<svg xmlns="http://www.w3.org/2000/svg" width="100" height="100" viewBox="0 0 100 100">
	<path fill="#fff" d="M50 0A50 50 0 0 0 0 50a50 50 0 0 0 50 50 50 50 0 0 0 50-50A50 50 0 0 0 50 0zm0 2a48 48 0 0 1 48 48 48 48 0 0 1-48 48A48 48 0 0 1 2 50 48 48 0 0 1 50 2z"/>
	<path fill="#fff" d="M10.51 57.14c3.45 0 6.074-1.905 6.074-5.993 0-4.04-2.6-5.943-6.075-5.943-3.104 0-6.077 1.57-6.077 5.943 0 4.088 2.622 5.994 6.076 5.994m0-2.616c-2.12 0-2.353-2.097-2.353-3.373 0-3.18 1.686-3.333 2.352-3.333.743 0 2.35.155 2.35 3.334 0 1.253-.194 3.374-2.35 3.374m11.26-8.907h-3.33V56.72h3.466v-5.74c0-.48.043-3.04 2.325-3.04 1.85 0 1.96 1.77 1.96 2.864v5.915h3.466v-6.975c0-4.13-2.302-4.542-3.874-4.542-1.552 0-3.08.522-4.015 1.747m17.906 6.556c-.284.986-1.034 1.145-1.998 1.145-2.075 0-2.473-1.6-2.494-2.67h8.353l-.02-.614c-.044-1.356-.33-6.16-5.73-6.16-3.625 0-6.224 2.095-6.224 5.942 0 5.662 4.5 5.995 5.964 5.995 2.055 0 4.894-.488 5.77-3.636m-8.112-3.386c.064-1.137.595-2.603 2.56-2.603.81 0 2.04.225 2.084 2.604h-4.644zm16.867-3.365l2.96 9.966h1.3l3.423-11.103H58.66l-3.02 9.943-2.985-9.944h-1.212L48.46 55.56l-3.027-9.944h-1.07l3.425 11.104h1.303m11.793-5.553c0 3.3 1.49 5.995 5.216 5.995 3.714 0 5.21-2.695 5.21-5.994 0-3.297-1.495-5.988-5.21-5.988-3.726 0-5.217 2.69-5.217 5.988m1.024 0c0-3.145 1.363-5.22 4.192-5.22 2.822 0 4.185 2.075 4.185 5.22 0 3.147-1.363 5.223-4.186 5.223-2.83 0-4.193-2.074-4.193-5.22m17.074-5.767h-.515c-1.857 0-3.268 1.134-3.808 2.51h-.042v-2.296h-.99V56.72h.99v-5.31c0-4.504 2.415-4.98 3.874-5.026h.49m1.823-4.96h.958V56.72h-.957zm12.2 0v6.053c-.726-1.487-2.27-2.297-3.998-2.297-2.636 0-4.905 1.685-4.905 5.835 0 1.225.203 6.147 4.948 6.147 2.86 0 3.726-1.774 3.906-2.214h.048v1.77h.996V41.425m-8.854 9.57c0-2.36.95-5.046 3.81-5.046 2.568 0 4.094 2.053 4.094 5.29 0 3.754-2.09 5.152-4.044 5.152-.86 0-3.86-.217-3.86-5.395"/>
</svg>
