<svg xmlns="http://www.w3.org/2000/svg" width="239" height="100" viewBox="0 0 239 100">
	<path fill="#bed600" d="M99.994 49.985C99.994 22.37 77.624 0 50.01 0 22.4 0 0 22.367 0 49.985 0 77.615 22.396 100 50.015 100c27.61 0 49.98-22.385 49.98-50.006"/>
	<path fill="#fff" d="M83.16 21.204H58.69l-3.48 8.692h8.107c5.455 0 6.507-.12 7.878-.12-1.98 4.53-13.9 34.904-13.9 34.904h10.09S82.478 26.867 84.078 22.9c.442-.885.224-1.7-.923-1.7m-36.793 0c-7.874 0-12.983.44-16.682 1.81-6.217 2.424-10.51 7.497-10.51 14.164 0 5.553 2.594 9.577 10.075 14.2 7.988 4.844 9.577 6.438 9.577 9.36 0 3.19-3.13 6.825-11.178 6.825-2.807 0-7.034-.39-9.74-1.05l-1.29-.328c-.722 1.93-2.356 6.498-2.853 8.152l1.28.37c2.43.774 8.197 1.38 12.334 1.38 13.756 0 21.967-8.308 21.967-17.01 0-5.348-2.43-9.41-10.634-14.532-4.113-2.533-6.214-4.172-7.487-5.445-1.035-1.324-1.148-2.313-1.148-3.356 0-.995.223-2.14.88-2.98.714-1.043 2.014-1.705 3.775-2.25 1.81-.602 5.17-.617 10.397-.617h4.867l3.48-8.692h-7.106z"/>
	<path fill="#fff" d="M136.796 31.94c5.916 0 8.84.656 11.574 2.474 3.71 2.474 5.663 6.438 5.663 11.446 0 4.49-1.628 8.13-4.686 10.73-2.664 2.215-5.854 3.13-10.796 3.13h-9.757v15.603h-9.428v-43.38h17.43zm-8.003 20.298h8.46c2.598 0 4.29-.393 5.394-1.37 1.302-1.038 2.086-2.796 2.086-4.877 0-2.08-.85-3.835-2.408-4.875-1.17-.847-2.862-1.172-5.595-1.172h-7.937V52.24zm48.515-.912c-1.56-.26-2.405-.327-3.383-.327-3.055 0-5.59 1.43-7.022 3.903-.975 1.562-1.302 3.577-1.302 7.285v13.138h-8.584V43.91h8.188v5.79c2.277-4.36 5.595-6.44 10.146-6.44.656 0 1.043 0 1.956.132v7.934zm31.735 8.257c0 10.015-6.438 16.587-16.194 16.587-9.816 0-16.32-6.635-16.32-16.522 0-10.015 6.57-16.584 16.585-16.584 9.493 0 15.93 6.632 15.93 16.52m-23.868.064c0 6.373 2.862 10.146 7.675 10.146 4.752 0 7.547-3.77 7.547-10.208 0-6.307-2.862-10.143-7.542-10.143-4.882 0-7.678 3.776-7.678 10.214m43.434-21.338c-1.23-.135-1.95-.195-2.99-.195-2.86 0-3.77.775-3.77 3.31v2.473h6.244v5.794h-6.116v25.624h-8.584v-25.62h-5.142v-5.8h5.142v-1.623c0-4.098.52-5.982 2.146-7.675 1.76-1.95 4.62-2.86 8.584-2.86 1.103 0 1.952.067 4.49.198v6.38zm10.146.974h-8.584v-7.35h8.584v7.353zm0 36.035h-8.584V43.913h8.584V75.33z"/>
</svg>