<svg xmlns="http://www.w3.org/2000/svg" width="11.035" height="11.035" viewBox="0 0 11.035 11.035">
	<path fill="#9A9A9A" d="M10.185.85C9.05-.282 7.207-.282 6.075.85L3.832 3.094c-1.134 1.134-1.134 2.978 0 4.11.167.168.35.31.544.428l1.2-1.2c-.23-.054-.445-.17-.623-.347-.516-.516-.516-1.354 0-1.87l2.242-2.24c.516-.517 1.354-.517 1.868 0 .516.515.516 1.353 0 1.867l-.66.66c.272.638.35 1.34.228 2.016l1.555-1.555c1.133-1.132 1.133-2.976 0-4.11zM6.66 3.405l-1.2 1.2c.228.055.444.17.622.35.516.514.516 1.353 0 1.867L3.84 9.064c-.515.516-1.354.516-1.868 0-.515-.515-.515-1.354 0-1.868l.66-.66c-.273-.638-.35-1.34-.228-2.015L.85 6.074c-1.133 1.133-1.133 2.978 0 4.11 1.135 1.133 2.98 1.133 4.11 0l2.243-2.242c1.135-1.134 1.134-2.978 0-4.11-.166-.168-.35-.31-.544-.428z"/>
</svg>