<svg xmlns="http://www.w3.org/2000/svg" width="44" height="44" viewBox="0 0 44 44">
	<circle fill="#bbcf32" cx="22" cy="22" r="22"/>
	<path fill="#fff" d="M10.553 34.64c-1.558-.12-3.843-.475-4.113-.64-.227-.14-.18-.423.29-1.804.47-1.376.62-1.63.933-1.593.205.025 1.034.14 1.842.255 4.5.64 7.573-.54 7.57-2.91 0-1.285-.556-1.868-3.726-3.904-2.325-1.492-3.583-2.655-4.25-3.927-.416-.79-.49-1.176-.5-2.517-.005-1.362.066-1.732.51-2.633.282-.577.935-1.443 1.45-1.924 1.93-1.806 4.007-2.325 9.346-2.335l3.48-.006-.706 1.817-.706 1.816-3.333.094c-2.84.08-3.443.15-4.08.467-1.424.713-1.763 2.39-.73 3.618.256.304 1.49 1.247 2.743 2.094 3.966 2.682 5.027 4.073 5.016 6.57-.013 2.755-1.486 4.94-4.275 6.34-1.72.862-4.36 1.3-6.76 1.12zm15.084-5.993c.193-.487 1.568-3.927 3.056-7.644l2.706-6.76h-3.434c-2.625 0-3.43-.054-3.423-.232.005-.126.283-.902.617-1.723l.61-1.49 5.644-.05c3.106-.028 5.618.014 5.583.093-.035.077-1.728 4.315-3.763 9.417l-3.7 9.275h-4.247l.35-.885z"/>
</svg>