<svg xmlns="http://www.w3.org/2000/svg" width="50" height="50" viewBox="0 0 50 50">
	<path fill="#909090" d="M19 22.3c-1.6 0-2.9 1.2-2.9 2.8 0 1.8 1.2 2.9 2.9 2.9 1.2 0 2.4-.5 2.7-1.8H20c-.2.4-.6.6-1 .6-.7 0-1.2-.5-1.2-1.2h4c.1-1.9-.9-3.3-2.8-3.3zm-1.2 2.3c.1-.7.5-1.1 1.1-1.1.6 0 1 .5 1.1 1.1h-2.2zm-12-2.3c-1.7 0-2.8 1.2-2.8 2.9C3 26.8 4.1 28 5.8 28c1.7 0 2.8-1.2 2.8-2.8.1-1.7-1.1-2.9-2.8-2.9zm0 4.4c-.8 0-1.1-.8-1.1-1.5s.3-1.5 1.1-1.5 1.1.8 1.1 1.5-.3 1.5-1.1 1.5zm7.2-4.4c-.6 0-1.4.3-1.7.9v-.7H9.6v5.4h1.8V25c0-.6.3-1.2 1-1.2 1 0 .9.7.9 1.5v2.6H15v-3.5c0-.8-.2-2.1-2-2.1zm14.6 4.8l-1.3-4.6h-.7l-1.3 4.6-1.4-4.6h-.7l1.7 5.4h.7l1.3-4.6 1.3 4.6h.8l1.7-5.4H29l-1.4 4.6zm12.1.8h.7v-7.5h-.7v7.5zm-7-5.6c-1.7 0-2.6 1.3-2.6 2.9 0 1.6.9 2.9 2.6 2.9 1.7 0 2.6-1.3 2.6-2.9 0-1.6-.9-2.9-2.6-2.9zm0 5.2c-1.3 0-1.9-1.2-1.9-2.3 0-1.2.6-2.3 1.9-2.3 1.3 0 1.9 1.2 1.9 2.3 0 1.1-.6 2.3-1.9 2.3zM25 0C11.2 0 0 11.2 0 25s11.2 25 25 25 25-11.2 25-25S38.8 0 25 0zm0 49C11.8 49 1 38.2 1 25S11.8 1 25 1s24 10.8 24 24-10.8 24-24 24zm11.9-25.3v-1.3h-.6v5.4h.7V25c0-1.1.8-2 2-1.9v-.7c-1-.1-1.7.5-2.1 1.3zm8.8-3.3v3.1c-.3-.8-1.1-1.2-1.9-1.2-1.6 0-2.4 1.3-2.4 2.9 0 1.5.8 2.9 2.4 2.9.8 0 1.6-.5 1.9-1.2v1h.6v-7.5h-.6zm-1.9 7.1c-1.3 0-1.8-1.2-1.8-2.3 0-1.1.5-2.3 1.8-2.3 1.4 0 1.9 1.2 1.9 2.3 0 1.1-.5 2.3-1.9 2.3z"/>
</svg>