<svg xmlns="http://www.w3.org/2000/svg" width="16" height="17" viewBox="0 0 16 17">
	<path fill="#FFF" d="M15 2h-3L11.995.924c0-.508-.374-.924-.835-.924H4.79c-.434 0-.786.374-.786.83L4 2H1c-.553 0-1 .448-1 1s.447 1 1 1h1.002l.015 12.17c0 .458.354.83.793.83h10.38c.438 0 .793-.372.793-.83L13.997 4H15c.552 0 1-.448 1-1s-.448-1-1-1zm-3 13H4V4h8v11zm-2.5-2c.276 0 .5-.224.5-.5v-6c0-.276-.224-.5-.5-.5s-.5.224-.5.5v6c0 .276.224.5.5.5zm-3 0c.276 0 .5-.224.5-.5v-6c0-.276-.224-.5-.5-.5s-.5.224-.5.5v6c0 .276.224.5.5.5z"/>
</svg>