<svg xmlns="http://www.w3.org/2000/svg" width="23" height="23" viewBox="0 0 23 23">
	<path fill="#A8A8A8" d="M11.5 0C5.148 0 0 5.148 0 11.5S5.148 23 11.5 23 23 17.852 23 11.5 17.852 0 11.5 0zm5.58 20.383C15.462 21.403 13.553 22 11.5 22c-2.063 0-3.98-.604-5.602-1.63.004-.224-.008-.428-.008-.43 0-2.488 1.473-4.605 3.676-5.326.555.282 1.18.444 1.846.444.664 0 1.29-.162 1.846-.444 2.256.735 3.822 2.886 3.834 5.3.003.17-.004.325-.012.47zm-8.778-9.356c0-1.7 1.396-3.083 3.11-3.083s3.11 1.383 3.11 3.083c0 1.7-1.396 3.084-3.11 3.084s-3.11-1.38-3.11-3.083zm9.728 8.686c-.002-.215-.022-.438-.04-.585-.283-2.267-1.736-4.24-3.8-5.167.79-.734 1.287-1.776 1.287-2.933 0-2.222-1.823-4.03-4.065-4.03s-4.066 1.808-4.066 4.03c0 1.158.498 2.2 1.29 2.936-2.005.91-3.378 2.847-3.647 5.146-.012.114-.046.363-.06.574C2.538 17.76 1 14.812 1 11.5 1 5.7 5.7 1 11.5 1S22 5.7 22 11.5c0 3.328-1.553 6.29-3.97 8.213z"/>
</svg>
