<svg xmlns="http://www.w3.org/2000/svg" width="27" height="25" viewBox="0 0 27 25">
	<path fill="#D9D9D9" d="M1.42 23.55c-1.804-1.845-1.902-4.745-.218-6.466L16.26 1.7c2.333-2.384 6.266-2.243 8.77.314 2.5 2.557 2.64 6.575.307 8.96l-12.64 12.912c-.39.397-1.036.378-1.447-.04-.41-.42-.43-1.082-.04-1.48L23.85 9.454c1.557-1.59 1.455-4.283-.227-6.002-1.682-1.718-4.318-1.822-5.875-.23l-15.06 15.38c-.907.928-.846 2.502.14 3.508.984 1.007 2.524 1.07 3.433.142L18.747 9.5c.26-.267.238-.723-.05-1.016-.286-.294-.732-.316-.993-.05L7.638 18.716c-.39.397-1.036.38-1.447-.04s-.427-1.082-.04-1.48l10.066-10.28c1.036-1.06 2.78-1 3.888.13s1.166 2.914.13 3.973L7.668 23.854c-.026.026-.052.05-.08.073-1.7 1.557-4.42 1.407-6.167-.38z"/>
</svg>