<svg xmlns="http://www.w3.org/2000/svg" width="100" height="48" viewBox="0 0 99.999996 48">
	<g transform="scale(1.10455 1.0909)">
		<linearGradient id="a" gradientUnits="userSpaceOnUse" x1="59.534" y1="39.329" x2="84.728" y2="1.785">
			<stop offset="0" stop-color="#4D5700"/>
			<stop offset=".335" stop-color="#7D8A00"/>
			<stop offset=".765" stop-color="#9FAD00"/>
		</linearGradient>
		<path fill="url(#a)" d="M61.07 31.036l6.74 5.912 7.196-4.103L90.536 44 69.888 0 50.987 12.842l.015.018-14.44 9.832 14.12 11.348"/>
		<linearGradient id="b" gradientUnits="userSpaceOnUse" x1="53.225" y1="17.235" x2="74.176" y2="16.599">
			<stop offset=".05" stop-color="#6B7500"/>
			<stop offset=".144" stop-color="#8A9600"/>
			<stop offset=".202" stop-color="#98A600"/>
			<stop offset=".656" stop-color="#CEE000"/>
		</linearGradient>
		<path fill="url(#b)" d="M50.684 34.04L69.89 0 36.562 22.692"/>
		<linearGradient id="c" gradientUnits="userSpaceOnUse" x1="50.739" y1="14.549" x2="85.621" y2="-5.209">
			<stop offset=".073" stop-color="#6B7500"/>
			<stop offset=".137" stop-color="#859100"/>
			<stop offset=".183" stop-color="#94A100"/>
			<stop offset=".521" stop-color="#CEE000"/>
		</linearGradient>
		<path fill="url(#c)" d="M53.973 16.42L69.89 0 50.987 12.842"/>
		<linearGradient id="d" gradientUnits="userSpaceOnUse" x1="80.558" y1="43.742" x2="79.787" y2="-4.907">
			<stop offset="0" stop-color="#718000"/>
			<stop offset=".335" stop-color="#92A100"/>
			<stop offset=".997" stop-color="#C2D400"/>
		</linearGradient>
		<path fill="url(#d)" d="M75.006 32.845L90.536 44 69.888 0"/>
		<linearGradient id="e" gradientUnits="userSpaceOnUse" x1="59.119" y1="29.071" x2="87.502" y2="-1.836">
			<stop offset="0" stop-color="#6B7500"/>
			<stop offset=".112" stop-color="#828E00"/>
			<stop offset=".202" stop-color="#909E00"/>
			<stop offset=".625" stop-color="#C0D100"/>
		</linearGradient>
		<path fill="url(#e)" d="M61.07 31.036l6.74 5.912L69.89 0"/>
		<linearGradient id="f" gradientUnits="userSpaceOnUse" x1="72.119" y1="42.573" x2="69.013" y2="9.016">
			<stop offset="0" stop-color="#778200"/>
			<stop offset=".175" stop-color="#8A9600"/>
			<stop offset=".348" stop-color="#98A600"/>
			<stop offset=".831" stop-color="#CBDB00"/>
		</linearGradient>
		<path fill="url(#f)" d="M67.81 36.948l7.196-4.103L69.89 0"/>
		<linearGradient id="g" gradientUnits="userSpaceOnUse" x1="52.616" y1="34.687" x2="77.81" y2="-2.858">
			<stop offset=".069" stop-color="#4D5700"/>
			<stop offset=".335" stop-color="#7D8A00"/>
			<stop offset=".765" stop-color="#9FAD00"/>
		</linearGradient>
		<path fill="url(#g)" d="M69.89 0L50.683 34.04l10.386-3.004"/>
		<linearGradient id="h" gradientUnits="userSpaceOnUse" x1="-686.072" y1="39.33" x2="-660.878" y2="1.786" gradientTransform="matrix(-1 0 0 1 -655.07 0)">
			<stop offset="0" stop-color="#4D5700"/>
			<stop offset=".335" stop-color="#7D8A00"/>
			<stop offset=".765" stop-color="#9FAD00"/>
		</linearGradient>
		<path fill="url(#h)" d="M29.465 31.036l-6.74 5.912-7.196-4.103L0 44 20.646 0l18.9 12.842-.014.018 14.44 9.832-14.12 11.348"/>
		<linearGradient id="i" gradientUnits="userSpaceOnUse" x1="-692.38" y1="17.234" x2="-671.428" y2="16.598" gradientTransform="matrix(-1 0 0 1 -655.07 0)">
			<stop offset=".05" stop-color="#6B7500"/>
			<stop offset=".144" stop-color="#8A9600"/>
			<stop offset=".202" stop-color="#98A600"/>
			<stop offset=".656" stop-color="#CEE000"/>
		</linearGradient>
		<path fill="url(#i)" d="M39.852 34.04L20.646 0l33.327 22.692"/>
		<linearGradient id="j" gradientUnits="userSpaceOnUse" x1="-694.866" y1="14.55" x2="-659.985" y2="-5.207" gradientTransform="matrix(-1 0 0 1 -655.07 0)">
			<stop offset=".073" stop-color="#6B7500"/>
			<stop offset=".137" stop-color="#859100"/>
			<stop offset=".183" stop-color="#94A100"/>
			<stop offset=".521" stop-color="#CEE000"/>
		</linearGradient>
		<path fill="url(#j)" d="M36.563 16.42L20.646 0l18.9 12.842"/>
		<linearGradient id="k" gradientUnits="userSpaceOnUse" x1="-665.049" y1="43.743" x2="-665.82" y2="-4.906" gradientTransform="matrix(-1 0 0 1 -655.07 0)">
			<stop offset="0" stop-color="#718000"/>
			<stop offset=".335" stop-color="#92A100"/>
			<stop offset=".997" stop-color="#C2D400"/>
		</linearGradient>
		<path fill="url(#k)" d="M15.53 32.845L0 44 20.646 0"/>
		<linearGradient id="l" gradientUnits="userSpaceOnUse" x1="-686.488" y1="29.071" x2="-658.105" y2="-1.836" gradientTransform="matrix(-1 0 0 1 -655.07 0)">
			<stop offset="0" stop-color="#6B7500"/>
			<stop offset=".112" stop-color="#828E00"/>
			<stop offset=".202" stop-color="#909E00"/>
			<stop offset=".625" stop-color="#C0D100"/>
		</linearGradient>
		<path fill="url(#l)" d="M29.465 31.036l-6.74 5.912L20.645 0"/>
		<linearGradient id="m" gradientUnits="userSpaceOnUse" x1="-673.487" y1="42.573" x2="-676.593" y2="9.016" gradientTransform="matrix(-1 0 0 1 -655.07 0)">
			<stop offset="0" stop-color="#778200"/>
			<stop offset=".175" stop-color="#8A9600"/>
			<stop offset=".348" stop-color="#98A600"/>
			<stop offset=".831" stop-color="#CBDB00"/>
		</linearGradient>
		<path fill="url(#m)" d="M22.725 36.948l-7.196-4.103L20.645 0"/>
		<linearGradient id="n" gradientUnits="userSpaceOnUse" x1="-692.99" y1="34.688" x2="-667.795" y2="-2.857" gradientTransform="matrix(-1 0 0 1 -655.07 0)">
			<stop offset=".069" stop-color="#4D5700"/>
			<stop offset=".335" stop-color="#7D8A00"/>
			<stop offset=".765" stop-color="#9FAD00"/>
		</linearGradient>
		<path fill="url(#n)" d="M20.646 0l19.206 34.04-10.387-3.004"/>
		<linearGradient id="o" gradientUnits="userSpaceOnUse" x1="39.557" y1="9.406" x2="53.839" y2="49.962">
			<stop offset="0" stop-color="#515900"/>
			<stop offset=".018" stop-color="#586000"/>
			<stop offset=".127" stop-color="#7E8900"/>
			<stop offset=".183" stop-color="#8C9900"/>
			<stop offset=".656" stop-color="#C0D100"/>
		</linearGradient>
		<path fill="url(#o)" d="M44.965 44l9-10.892V16.42L49.753 10H40.906l-4.94 6.42v16.688"/>
		<linearGradient id="p" gradientUnits="userSpaceOnUse" x1="40.137" y1="15.779" x2="61.368" y2="48.627">
			<stop offset="0" stop-color="#515900"/>
			<stop offset=".018" stop-color="#586000"/>
			<stop offset=".127" stop-color="#7E8900"/>
			<stop offset=".183" stop-color="#8C9900"/>
			<stop offset=".656" stop-color="#C0D100"/>
			<stop offset="1" stop-color="#96A300"/>
		</linearGradient>
		<path fill="url(#p)" d="M53.965 33.108V16.42L49.753 10h-4.788v34"/>
		<linearGradient id="q" gradientUnits="userSpaceOnUse" x1="40.137" y1="15.779" x2="61.368" y2="48.627">
			<stop offset="0" stop-color="#515900"/>
			<stop offset=".018" stop-color="#586000"/>
			<stop offset=".132" stop-color="#7E8900"/>
			<stop offset=".191" stop-color="#8C9900"/>
			<stop offset="1" stop-color="#C0D100"/>
		</linearGradient>
		<path fill="url(#q)" d="M53.965 33.108V16.42L49.753 10h-4.788v34"/>
		<linearGradient id="r" gradientUnits="userSpaceOnUse" x1="-675.185" y1="9.906" x2="-661.479" y2="48.828" gradientTransform="matrix(-1 0 0 1 -627.57 0)">
			<stop offset="0" stop-color="#515900"/>
			<stop offset=".018" stop-color="#586000"/>
			<stop offset=".127" stop-color="#7E8900"/>
			<stop offset=".183" stop-color="#8C9900"/>
			<stop offset=".656" stop-color="#C0D100"/>
		</linearGradient>
		<path fill="url(#r)" d="M35.965 33.108V16.42l4.94-6.42h4.06v34"/>
		<linearGradient id="s" gradientUnits="userSpaceOnUse" x1="45.271" y1="19.801" x2="45.169" y2="9.786">
			<stop offset="0" stop-color="#4D5700"/>
			<stop offset=".561" stop-color="#7D8A00"/>
			<stop offset="1" stop-color="#9FAD00"/>
		</linearGradient>
		<path fill="url(#s)" d="M48.594 20l3.878-6.42L50.134 10H40.27l-2.325 3.58L41.837 20"/>
		<linearGradient id="t" gradientUnits="userSpaceOnUse" x1="49.91" y1="18.301" x2="45.256" y2="5.027">
			<stop offset="0" stop-color="#ADBD00"/>
			<stop offset="1" stop-color="#BECC1D"/>
		</linearGradient>
		<path fill="url(#t)" d="M52.472 13.283l-3.878 7.272-2.375-.46 2.175-17.017"/>
		<linearGradient id="u" gradientUnits="userSpaceOnUse" x1="-555.054" y1="18.301" x2="-559.708" y2="5.027" gradientTransform="matrix(-1 0 0 1 -514.547 0)">
			<stop offset="0" stop-color="#ADBD00"/>
			<stop offset="1" stop-color="#BECC1D"/>
		</linearGradient>
		<path fill="url(#u)" d="M37.945 13.283l3.877 7.272 2.376-.46-2.176-17.017"/>
	</g>
</svg>
