<svg xmlns="http://www.w3.org/2000/svg" width="44" height="44" viewBox="0 0 44 44">
	<path fill="#fff" d="M16.72 19.624c-1.408 0-2.552 1.056-2.552 2.464 0 1.584 1.056 2.552 2.552 2.552 1.056 0 2.112-.44 2.376-1.584H17.6c-.176.352-.528.528-.88.528-.616 0-1.056-.44-1.056-1.056h3.52c.088-1.672-.792-2.904-2.464-2.904zm-1.056 2.024c.088-.616.44-.968.968-.968s.88.44.968.968h-1.936zm-10.56-2.024c-1.496 0-2.464 1.056-2.464 2.552 0 1.408.968 2.464 2.464 2.464s2.464-1.056 2.464-2.464c.088-1.496-.968-2.552-2.464-2.552zm0 3.872c-.704 0-.968-.704-.968-1.32 0-.616.264-1.32.968-1.32s.968.704.968 1.32c0 .616-.264 1.32-.968 1.32zm6.336-3.872c-.528 0-1.232.264-1.496.792V19.8H8.448v4.752h1.584V22c0-.528.264-1.056.88-1.056.88 0 .792.616.792 1.32v2.288H13.2v-3.08c0-.704-.176-1.848-1.76-1.848zm12.848 4.224L23.144 19.8h-.616l-1.144 4.048-1.232-4.048h-.616l1.496 4.752h.616l1.144-4.048 1.144 4.048h.704l1.496-4.752h-.616l-1.232 4.048zm10.648.704h.616v-6.6h-.616v6.6zm-6.16-4.928c-1.496 0-2.288 1.144-2.288 2.552 0 1.408.792 2.552 2.288 2.552 1.496 0 2.288-1.144 2.288-2.552 0-1.408-.792-2.552-2.288-2.552zm0 4.576c-1.144 0-1.672-1.056-1.672-2.024 0-1.056.528-2.024 1.672-2.024s1.672 1.056 1.672 2.024-.528 2.024-1.672 2.024zM22 0C9.856 0 0 9.856 0 22s9.856 22 22 22 22-9.856 22-22S34.144 0 22 0zm0 43.12C10.384 43.12.88 33.616.88 22 .88 10.384 10.384.88 22 .88 33.616.88 43.12 10.384 43.12 22c0 11.616-9.504 21.12-21.12 21.12zm10.472-22.264v-1.144h-.528v4.752h.616V22c0-.968.704-1.76 1.76-1.672v-.616c-.88-.088-1.496.44-1.848 1.144zm7.744-2.904v2.728c-.264-.704-.968-1.056-1.672-1.056-1.408 0-2.112 1.144-2.112 2.552 0 1.32.704 2.552 2.112 2.552.704 0 1.408-.44 1.672-1.056v.88h.528v-6.6h-.528zM38.544 24.2c-1.144 0-1.584-1.056-1.584-2.024s.44-2.024 1.584-2.024c1.232 0 1.672 1.056 1.672 2.024s-.44 2.024-1.672 2.024z"/>
</svg>