<svg xmlns="http://www.w3.org/2000/svg" width="15" height="15" viewBox="0 0 15 15">
	<path fill="#FF6C47" d="M7.5 0C3.357 0 0 3.357 0 7.5 0 11.64 3.357 15 7.5 15c4.142 0 7.5-3.358 7.5-7.5C15 3.356 11.642 0 7.5 0zm0 2.765c.645 0 1.17.523 1.17 1.17S8.145 5.102 7.5 5.102c-.646 0-1.17-.523-1.17-1.17s.524-1.168 1.17-1.168zm0 3.118c.285 0 .57.113.77.308.2.196.315.47.312.742v4.254c.004.275-.112.552-.316.746-.204.195-.493.308-.78.303-.286-.005-.564-.12-.76-.314s-.312-.464-.308-.734V6.932c-.004-.274.11-.546.312-.742.2-.194.484-.307.77-.307z"/>
</svg>