<svg xmlns="http://www.w3.org/2000/svg" width="23" height="23" viewBox="0 0 23 23">
	<path fill="#A8A8A8" d="M20.926 7.95h-2.518V7c0-3.876-2.578-7.027-6.48-7.027C8.027-.027 5.414 3.125 5.414 7v.95H2.93c-.277 0-.5.225-.5.498v14.054c0 .275.222.498.5.498h17.995c.278 0 .5-.223.5-.498V8.448c0-.273-.222-.498-.5-.498zM6.416 7C6.416 3.673 8.58.967 11.93.967s5.477 2.706 5.477 6.03v.952H6.417V7zM20.43 22.003L3.43 22 3.426 8.983 20.43 9v13.004zm-9.633-7.684c-.197-.19-.515-.19-.71.008-.192.195-.188.512.01.703l1.524 1.487c.1.096.226.143.353.143s.254-.047.35-.143l4.36-4.247c.197-.19.2-.507.007-.703-.194-.196-.512-.2-.71-.007l-4.007 3.906-1.176-1.146zm.614 4.762v.883c0 .273.224.496.502.496.275 0 .5-.222.5-.495v-.883c1.885-.242 3.346-1.818 3.346-3.725 0-.273-.226-.496-.5-.496-.28 0-.502.224-.502.497 0 1.523-1.275 2.762-2.844 2.762s-2.846-1.24-2.846-2.763c0-1.52 1.277-2.76 2.846-2.76.384 0 .757.073 1.11.218.255.106.548-.016.653-.27.105-.253-.016-.545-.27-.648-.475-.197-.98-.294-1.494-.294-2.12 0-3.847 1.686-3.847 3.754 0 1.907 1.462 3.483 3.348 3.725z"/>
</svg>