<svg xmlns="http://www.w3.org/2000/svg" width="20" height="19" viewBox="0 0 20 19">
	<path fill="#C5C5C5" d="M20 7.2c0-.2-.2-.3-.4-.3l-6.4-.8L10.4.3c-.1-.2-.2-.3-.4-.3s-.3.1-.4.3L6.8 6.1l-6.4.8c-.2 0-.3.2-.4.3 0 .2 0 .3.1.5l4.7 4.4-1.2 6.4c0 .2 0 .3.2.5.2 0 .4 0 .5-.1l5.7-3.1 5.7 3.1h.2c.1 0 .2 0 .3-.1.1-.1.2-.3.2-.5l-1.2-6.4 4.7-4.4c.1.1.1-.1.1-.3zm-5.6 4.5c-.1.1-.2.2-.1.4l1.1 5.7-5.2-2.8h-.4l-5 2.8 1.1-5.7c0-.2 0-.3-.1-.4l-4.2-4L7.3 7c.2 0 .3-.1.3-.2L10 1.5l2.5 5.2c.1.1.2.2.3.2l5.7.8-4.1 4z"/>
</svg>