<svg xmlns="http://www.w3.org/2000/svg" width="30" height="30" viewBox="0 0 30 30">
	<path fill="#ADC400" d="M15 2c7.168 0 13 5.832 13 13s-5.832 13-13 13S2 22.168 2 15 7.832 2 15 2m0-2C6.716 0 0 6.716 0 15c0 8.284 6.716 15 15 15 8.284 0 15-6.716 15-15 0-8.284-6.716-15-15-15z"/>
	<path fill="#ADC400" d="M15.998 7.883c0-.104-.023-.195-.07-.273-.047-.078-.102-.117-.164-.117h-1.527c-.063 0-.117.04-.164.117-.047.078-.07.17-.07.273v1.81c0 .105.023.196.07.274.047.078.102.117.164.117h1.527c.063 0 .117-.04.164-.117.047-.078.07-.168.07-.273v-1.81zm-.047 3.855c0-.104-.02-.195-.07-.273-.046-.078-.1-.117-.163-.117h-1.433c-.063 0-.117.04-.164.117-.048.078-.07.17-.07.273v10.38c0 .103.022.194.07.27.046.08.1.118.163.118h1.433c.063 0 .117-.04.164-.117.047-.08.07-.17.07-.274v-10.38z"/>
</svg>