<svg xmlns="http://www.w3.org/2000/svg" width="50" height="50" viewBox="0 0 50 50">
	<path fill="#BBCF32" d="M25 50C11.2 50 0 38.8 0 25S11.2 0 25 0s25 11.2 25 25-11.2 25-25 25zm-1.8-38c-3.9 0-6.5.2-8.3.9-3.1 1.2-5.3 3.7-5.3 7.1 0 2.8 1.3 4.8 5 7.1 4 2.4 4.8 3.2 4.8 4.7 0 1.6-1.6 3.4-5.6 3.4-1.4 0-3.5-.2-4.9-.5l-.6-.2c-.4 1-1.2 3.2-1.4 4.1l.6.2c1.2.4 4.1.7 6.2.7 6.9 0 11-4.2 11-8.5 0-2.7-1.2-4.7-5.3-7.3-2.1-1.3-3.1-2.1-3.7-2.7-.5-.7-.6-1.2-.6-1.7s.1-1.1.4-1.5c.4-.5 1-.9 1.9-1.1.9-.3 2.6-.3 5.2-.3H25l1.7-4.3h-3.5zm18.4 0H29.3l-1.7 4.3h4.1c2.7 0 3.3-.1 3.9-.1-1 2.3-7 17.5-7 17.5h5s7.5-18.9 8.3-20.9c.4-.4.3-.8-.3-.8z"/>
</svg>