<svg xmlns="http://www.w3.org/2000/svg" width="23" height="23" viewBox="0 0 23 23">
	<path fill="#A8A8A8" d="M11.5 0C5.158 0 0 5.16 0 11.5S5.158 23 11.5 23c1.646 0 3.235-.34 4.727-1.013.258-.116.364-.403.238-.64-.125-.238-.438-.338-.695-.222-1.348.607-2.785.915-4.27.915-5.768 0-10.46-4.73-10.46-10.54S5.732.957 11.5.957 21.96 5.688 21.96 11.5c0 1.443-.24 2.83-.642 3.71-.49 1.07-1.46 2.382-3.29 2.55-.646.06-1.13-.037-1.433-.29-.48-.4-.494-1.154-.495-1.55V5.973c0-.265-.232-.48-.52-.48-.288 0-.52.216-.52.48v1.962c-.994-1.563-2.604-2.586-4.423-2.586-3.012 0-5.463 2.79-5.463 6.223s2.45 6.225 5.463 6.225c1.82 0 3.43-1.023 4.422-2.587v.658c0 .003-.003.006-.003.01 0 .06 0 .134.002.214v.052l.002.014c.02.553.13 1.437.835 2.023.53.443 1.28.623 2.232.535 1.824-.167 3.296-1.28 4.145-3.132.46-1.007.725-2.495.725-4.083C23 5.16 17.842 0 11.5 0zm-.86 16.838c-2.44 0-4.423-2.362-4.423-5.266S8.2 6.307 10.64 6.307c2.437 0 4.42 2.362 4.42 5.266s-1.984 5.265-4.42 5.265z"/>
</svg>