<svg xmlns="http://www.w3.org/2000/svg" width="24" height="24" viewBox="0 0 24 24">
	<path fill="#fff" d="M12 0C5.365 0 0 5.365 0 12s5.365 12 12 12 12-5.365 12-12S18.635 0 12 0zm0 23.294C5.788 23.294.706 18.212.706 12 .706 5.788 5.788.706 12 .706 18.212.706 23.294 5.788 23.294 12c0 6.212-5.082 11.294-11.294 11.294zM10.094 12l3.812-3.812c.282-.282.282-.706 0-.988-.282-.282-.706-.282-.988 0l-4.165 4.165s-.07 0-.07.07c-.07.07-.142.14-.142.283-.14.282-.07.564.143.776.07.07.142.14.212.14l4.094 4.095c.282.28.705.28.987 0 .283-.284.283-.707 0-.99L10.094 12z"/>
</svg>