<svg xmlns="http://www.w3.org/2000/svg" width="6" height="14" viewBox="0 0 6 14">
	<path fill="#B1B1B1" d="M1 0C.447 0 0 .448 0 1s.447 1 1 1 1-.448 1-1-.447-1-1-1zm4 2c.553 0 1-.448 1-1s-.447-1-1-1-1 .448-1 1 .447 1 1 1zM1 4c-.553 0-1 .447-1 1s.447 1 1 1 1-.447 1-1-.447-1-1-1zm4 0c-.553 0-1 .447-1 1s.447 1 1 1 1-.447 1-1-.447-1-1-1zM1 8c-.553 0-1 .447-1 1s.447 1 1 1 1-.447 1-1-.447-1-1-1zm4 0c-.553 0-1 .447-1 1s.447 1 1 1 1-.447 1-1-.447-1-1-1zm-4 4c-.553 0-1 .447-1 1s.447 1 1 1 1-.447 1-1-.447-1-1-1zm4 0c-.553 0-1 .447-1 1s.447 1 1 1 1-.447 1-1-.447-1-1-1z"/>
</svg>