<?xml version="1.0" encoding="UTF-8"?>
<svg xmlns="http://www.w3.org/2000/svg" xmlns:xlink="http://www.w3.org/1999/xlink" version="1.2" >
<font id="NimbusSanNovMed">
<font-face  font-family="NimbusSanNovMed" units-per-em="2048" ascent="1663" descent="-385" font-style="normal" font-weight="400" font-stretch="normal" cap-height="1365" x-height="990" underline-position="-200" underline-thickness="114" />
<missing-glyph  horiz-adv-x="512" d="M51 0 L51 1365 L461 1365 L461 0 L51 0 Z M410 51 L410 1314 L102 1314 L102 51 L410 51 Z " />
<glyph glyph-name="space" unicode="&#x20;" horiz-adv-x="512" d="" />
<glyph glyph-name="exclam" unicode="&#x21;" horiz-adv-x="583" d="M403 1365 L403 947 L356 340 L268 340 L223 947 L223 1365 L403 1365 Z M413 193 L413 0 L212 0 L212 193 L413 193 Z " />
<glyph glyph-name="quotedbl" unicode="&#x22;" horiz-adv-x="669" d="M548 816 L470 816 L443 1365 L576 1365 L548 816 Z M199 816 L120 816 L93 1365 L227 1365 L199 816 Z " />
<glyph glyph-name="numbersign" unicode="&#x23;" horiz-adv-x="1092" d="M733 460 L678 72 L571 72 L625 460 L397 460 L343 72 L235 72 L290 460 L48 460 L63 565 L304 565 L335 781 L93 781 L108 886 L350 886 L400 1242 L507 1242 L457 886 L685 886 L735 1242 L843 1242 L793 886 L1044 886 L1029 781 L778 781 L747 565 L999 565 L984 460 L733 460 Z M670 781 L442 781 L412 565 L640 565 L670 781 Z " />
<glyph glyph-name="dollar" unicode="&#x24;" horiz-adv-x="1092" d="M67 423 L226 423 Q226 134 482 120 L482 645 Q92 712 92 1017 Q92 1177 198 1277.5 Q304 1378 482 1387 L482 1556 L584 1556 L584 1387 Q762 1372 853 1281 Q952 1182 950 1021 L793 1021 Q779 1245 584 1253 L584 779 Q706 746 749.5 730.5 Q793 715 831 690 Q987 587 987 377 Q987 161 814 49 Q731 -5 584 -14 L584 -223 L482 -223 L482 -14 Q270 0 170 113 Q66 232 67 423 Z M584 120 Q692 120 761 188 Q830 256 830 362 Q830 472 771 534.5 Q712 597 584 622 L584 120 Z M482 1254 Q393 1251 341 1215 Q249 1151 249 1030 Q249 935 305.5 880 Q362 825 482 803 L482 1254 Z " />
<glyph glyph-name="percent" unicode="&#x25;" horiz-adv-x="1696" d="M1296 1401 L531 -66 L400 -66 L1169 1401 L1296 1401 Z M1320 740 Q1464 740 1540.5 646 Q1617 552 1617 375 Q1617 161 1528 63 Q1447 -27 1306 -27 Q1147 -27 1069 78 Q999 171 999 343 Q999 531 1073 630 Q1157 740 1320 740 Z M1312 631 Q1226 631 1185.5 563.5 Q1145 496 1145 353 Q1145 81 1309 81 Q1472 81 1472 357 Q1472 631 1312 631 Z M397 1362 Q543 1362 619.5 1268 Q696 1174 696 996 Q696 800 616.5 697.5 Q537 595 387 595 Q79 595 79 981 Q79 1165 161.5 1263.5 Q244 1362 397 1362 Z M390 1251 Q224 1251 224 973 Q224 704 387 704 Q554 704 554 989 Q554 1251 390 1251 Z " />
<glyph glyph-name="ampersand" unicode="&#x26;" horiz-adv-x="1280" d="M1081 647 Q1077 565 1049 464 Q1021 363 987 308 L1253 0 L1041 0 L896 172 Q871 129 805 74 Q684 -29 498 -29 Q301 -29 182 93 Q82 195 82 356 Q82 539 236 661 Q328 734 401 767 Q322 862 287.5 936 Q253 1010 253 1084 Q253 1212 341.5 1292.5 Q430 1373 571 1373 Q706 1373 791 1298 Q883 1217 883 1089 Q883 873 633 735 L880 433 Q921 547 925 647 L1081 647 Z M546 840 Q725 946 725 1075 Q725 1146 680.5 1192.5 Q636 1239 568 1239 Q501 1239 455 1196 Q409 1153 409 1090 Q409 1024 469 939 Q479 925 546 840 Z M490 662 Q483 658 479 656 Q387 603 337 554 Q251 471 251 362 Q251 258 328 184 Q405 110 513 110 Q600 110 668.5 151 Q737 192 804 283 L490 662 Z " />
<glyph glyph-name="quotesingle" unicode="&#x27;" horiz-adv-x="319" d="M199 816 L120 816 L93 1365 L227 1365 L199 816 Z " />
<glyph glyph-name="parenleft" unicode="&#x28;" horiz-adv-x="600" d="M505 1365 Q251 973 251 484 Q251 17 505 -385 L380 -385 L371 -370 Q268 -205 229.5 -130 Q191 -55 153 56 Q82 265 82 481 Q82 765 190 1026 Q270 1219 380 1365 L505 1365 Z " />
<glyph glyph-name="parenright" unicode="&#x29;" horiz-adv-x="601" d="M96 -385 Q219 -194 284.5 32.5 Q350 259 350 497 Q350 963 96 1365 L221 1365 L230 1350 Q333 1185 371.5 1109.5 Q410 1034 448 924 Q519 715 519 500 Q519 215 411 -46 Q330 -240 221 -385 L96 -385 Z " />
<glyph glyph-name="asterisk" unicode="&#x2a;" horiz-adv-x="1092" d="M837 1131 L628 1058 L755 885 L676 827 L543 1009 L417 827 L333 885 L457 1058 L254 1131 L287 1225 L492 1147 L492 1365 L596 1365 L596 1147 L799 1225 L837 1131 Z " />
<glyph glyph-name="plus" unicode="&#x2b;" horiz-adv-x="1092" d="M102 735 L482 735 L482 1113 L612 1113 L612 735 L989 735 L989 605 L612 605 L612 225 L482 225 L482 605 L102 605 L102 735 Z " />
<glyph glyph-name="comma" unicode="&#x2c;" horiz-adv-x="511" d="M364 205 L364 83 Q364 -19 352 -74.5 Q340 -130 308 -176 Q251 -257 146 -285 L146 -188 Q253 -152 257 0 L146 0 L146 205 L364 205 Z " />
<glyph glyph-name="hyphen" unicode="&#x2d;" horiz-adv-x="464" d="M464 591 L464 427 L0 427 L0 591 L464 591 Z " />
<glyph glyph-name="period" unicode="&#x2e;" horiz-adv-x="511" d="M367 213 L367 0 L143 0 L143 213 L367 213 Z " />
<glyph glyph-name="slash" unicode="&#x2f;" horiz-adv-x="827" d="M755 1365 L57 -385 L-81 -385 L622 1365 L755 1365 Z " />
<glyph glyph-name="zero" unicode="0" horiz-adv-x="1092" d="M551 1387 Q735 1387 846 1273 Q931 1187 965.5 1048 Q1000 909 1000 656 Q1000 374 935 219 Q831 -28 552 -28 Q259 -28 156 218 Q93 369 93 661 Q93 838 108 950 Q123 1062 157 1142 Q263 1387 551 1387 Z M549 1243 Q356 1243 301 1054 Q264 926 264 666 Q264 433 302 308 Q330 216 395 166 Q460 116 550 116 Q670 116 739 206 Q787 270 808 378 Q829 486 829 670 Q829 924 790 1052 Q761 1144 699 1193.5 Q637 1243 549 1243 Z " />
<glyph glyph-name="one" unicode="1" horiz-adv-x="1092" d="M735 1394 L735 0 L557 0 L557 1010 L457 1010 L361 1010 L257 1010 L213 1010 L213 1136 Q391 1136 479.5 1194 Q568 1252 607 1394 L735 1394 Z " />
<glyph glyph-name="two" unicode="2" horiz-adv-x="1092" d="M992 150 L992 0 L104 0 Q113 196 196.5 316.5 Q280 437 508 582 Q700 704 754 768 Q832 860 832 978 Q832 1093 758 1170 Q688 1243 570 1243 Q445 1243 378 1154.5 Q311 1066 305 892 L141 892 Q141 915 141 927 Q141 1135 261 1261 Q381 1387 579 1387 Q759 1387 873 1289 Q934 1237 968.5 1155.5 Q1003 1074 1003 981 Q1003 803 881 673 Q800 586 596 461 Q435 362 374 299.5 Q313 237 292 149 L362 150 L992 150 Z " />
<glyph glyph-name="three" unicode="3" horiz-adv-x="1092" d="M113 939 Q117 1087 177 1197 Q282 1387 544 1387 Q717 1387 831 1291 Q944 1196 944 1027 Q944 929 894.5 853 Q845 777 757 739 Q874 709 939 622.5 Q1004 536 1004 409 Q1004 215 871 88 Q748 -28 535 -28 Q289 -28 167 136 Q82 249 82 406 Q82 413 83 433 L244 433 Q248 329 288 254 Q362 116 539 116 Q676 116 759 202 Q833 279 833 392 Q833 517 749 589 Q705 627 654.5 642.5 Q604 658 525 658 Q481 658 443 652 L443 791 Q475 789 499 789 Q623 789 694 845 Q774 909 774 1019 Q774 1120 708.5 1181.5 Q643 1243 536 1243 Q414 1243 345 1164 Q276 1085 272 939 L113 939 Z " />
<glyph glyph-name="four" unicode="4" horiz-adv-x="1092" d="M1006 477 L1006 339 L823 339 L823 0 L668 0 L668 339 L72 339 L72 493 L690 1394 L823 1394 L823 477 L1006 477 Z M668 477 L668 873 Q668 1028 671 1161 Q530 937 518 919 L341 664 Q319 632 206 477 L282 477 L364 477 L668 477 Z " />
<glyph glyph-name="five" unicode="5" horiz-adv-x="1092" d="M923 1365 L923 1215 L373 1215 L324 959 Q309 877 291 802 Q388 912 565 912 Q744 912 863 800 Q997 673 997 456 Q997 245 864 108 Q734 -28 526 -28 Q332 -28 211.5 82 Q91 192 86 373 L251 373 Q258 293 300 231 Q337 178 398 147.5 Q459 117 529 117 Q670 117 756 226 Q827 317 827 442 Q827 587 743.5 677 Q660 767 526 767 Q358 767 264 633 L124 640 L251 1365 L923 1365 Z " />
<glyph glyph-name="six" unicode="6" horiz-adv-x="1092" d="M975 1026 L810 1026 Q778 1243 578 1243 Q381 1243 300 1005 Q269 914 256 708 Q364 889 593 889 Q779 889 897 767 Q1012 648 1012 449 Q1012 233 887 105 Q757 -28 567 -28 Q395 -28 277 75 Q183 158 138.5 301 Q94 444 94 663 Q94 1040 240 1224 Q369 1387 586 1387 Q757 1387 859.5 1292 Q962 1197 975 1026 Z M569 745 Q424 745 346 639 Q287 559 287 439 Q287 313 352 222 Q428 116 567 116 Q700 116 774 216 Q841 305 841 431 Q841 563 775 649 Q702 745 569 745 Z " />
<glyph glyph-name="seven" unicode="7" horiz-adv-x="1092" d="M1006 1365 L1006 1219 Q996 1206 942 1143 Q858 1045 773 898 Q688 751 629 604 Q521 330 485 0 L305 0 Q317 172 376.5 373 Q436 574 526 746 Q594 877 655.5 967 Q717 1057 841 1206 L673 1204 L128 1204 L128 1365 L1006 1365 Z " />
<glyph glyph-name="eight" unicode="8" horiz-adv-x="1092" d="M329 741 Q240 777 191 853 Q142 929 142 1031 Q142 1188 255 1287 Q369 1387 546 1387 Q743 1387 853 1273 Q948 1175 948 1039 Q948 831 761 741 Q1002 655 1002 406 Q1002 204 875 86 Q752 -28 540 -28 Q330 -28 205 95 Q90 209 90 391 Q90 582 225 685 Q276 724 329 741 Z M548 1243 Q429 1243 366 1169 Q313 1107 313 1022 Q313 924 377.5 863.5 Q442 803 546 803 Q660 803 721 871 Q777 933 777 1023 Q777 1129 711 1187 Q646 1243 548 1243 Z M545 669 Q420 669 340.5 592.5 Q261 516 261 395 Q261 263 352 185 Q433 116 544 116 Q687 116 764 206 Q831 285 831 394 Q831 519 752 593 Q671 669 545 669 Z " />
<glyph glyph-name="nine" unicode="9" horiz-adv-x="1092" d="M114 336 L275 336 Q286 251 327 202 Q399 116 522 116 Q638 116 708.5 199 Q779 282 812 457 Q828 544 829 659 Q790 597 758 568 Q654 470 497 470 Q402 470 318.5 508 Q235 546 179 616 Q83 736 83 918 Q83 1127 213 1261 Q336 1387 529 1387 Q817 1387 933 1120 Q996 974 996 709 Q996 442 925 269 Q865 123 761 47.5 Q657 -28 516 -28 Q344 -28 233.5 72 Q123 172 114 336 Z M528 1243 Q403 1243 326 1151 Q254 1065 254 921 Q254 806 309 723 Q382 614 522 614 Q656 614 734 711 Q800 792 800 918 Q800 1062 729 1147 Q650 1243 528 1243 Z " />
<glyph glyph-name="colon" unicode="&#x3a;" horiz-adv-x="545" d="M401 213 L401 0 L177 0 L177 213 L401 213 Z M401 990 L401 777 L177 777 L177 990 L401 990 Z " />
<glyph glyph-name="semicolon" unicode="&#x3b;" horiz-adv-x="545" d="M398 990 L398 785 L180 785 L180 990 L398 990 Z M398 206 L398 77 Q407 -226 180 -283 L180 -188 Q293 -148 290 0 L180 0 L180 206 L398 206 Z " />
<glyph glyph-name="less" unicode="&#x3c;" horiz-adv-x="1024" d="M955 1188 L955 1010 L257 686 L954 362 L955 186 L68 611 L68 763 L955 1188 Z " />
<glyph glyph-name="equal" unicode="&#x3d;" horiz-adv-x="1092" d="M102 580 L989 580 L989 450 L102 450 L102 580 Z M102 887 L989 887 L989 757 L102 757 L102 887 Z " />
<glyph glyph-name="greater" unicode="&#x3e;" horiz-adv-x="1024" d="M69 186 L69 363 L767 687 L70 1012 L69 1188 L956 763 L956 610 L69 186 Z " />
<glyph glyph-name="question" unicode="&#x3f;" horiz-adv-x="1022" d="M102 945 Q110 1119 170 1214 Q227 1302 321.5 1349.5 Q416 1397 533 1397 Q722 1397 835 1290 Q939 1191 939 1029 Q939 895 868 799 Q836 755 716 638 Q662 586 641.5 552 Q621 518 612 468 Q604 417 603 337 L445 337 Q447 481 470 549 Q487 599 518.5 639.5 Q550 680 657 790 Q716 850 740.5 901.5 Q765 953 765 1016 Q765 1110 714 1173 Q651 1251 531 1251 Q282 1251 262 945 L102 945 Z M623 194 L623 0 L421 0 L421 194 L623 194 Z " />
<glyph glyph-name="at" unicode="&#x40;" horiz-adv-x="1518" d="M1300 358 L1408 357 Q1374 281 1337.5 233.5 Q1301 186 1238 135 Q1038 -27 786 -27 Q580 -27 408 83 Q242 188 157 365 Q89 506 89 666 Q89 865 191 1032 Q282 1181 435 1269 Q602 1365 796 1365 Q956 1365 1099 1296 Q1266 1215 1354 1065 Q1428 939 1428 790 Q1428 549 1243 400 Q1112 294 982 294 Q929 294 888 320 Q847 346 833 389 Q729 294 617 294 Q501 294 432 390 Q385 456 385 559 Q385 719 488 863 Q617 1043 785 1043 Q847 1043 897 1015.5 Q947 988 975 938 L1002 1011 L1137 1012 L967 512 Q949 460 949 434 Q949 382 1011 382 Q1107 382 1205 481 Q1330 607 1330 786 Q1330 1005 1160 1146 Q1007 1273 797 1273 Q624 1273 479 1185 Q349 1107 273 976 Q193 836 193 667 Q193 420 360 249 Q535 68 790 68 Q947 68 1086.5 147 Q1226 226 1300 358 Z M852 596 L899 726 Q923 793 923 831 Q923 882 892 918 Q861 954 816 954 Q719 954 632 834 Q587 771 558 684.5 Q529 598 529 524 Q529 457 558 419 Q587 381 639 381 Q709 381 760 433 Q811 485 852 596 Z " />
<glyph glyph-name="A" unicode="A" horiz-adv-x="1297" d="M751 1371 L1284 0 L1084 0 L931 419 L358 419 L202 0 L12 0 L548 1371 L751 1371 Z M878 565 L744 928 Q675 1112 646 1204 Q615 1112 548 935 L410 565 L878 565 Z " />
<glyph glyph-name="B" unicode="B" horiz-adv-x="1323" d="M157 1365 L706 1365 Q906 1365 997 1319 Q1081 1277 1130 1197 Q1179 1117 1179 1023 Q1179 924 1125 846.5 Q1071 769 977 732 Q1053 712 1096 683 Q1239 586 1239 400 Q1239 156 1038 50 Q944 0 791 0 L157 0 L157 1365 Z M337 1208 L337 784 L662 784 Q795 784 859 802 Q922 820 960 873.5 Q998 927 998 998 Q998 1146 874 1190 Q824 1208 680 1208 L337 1208 Z M337 638 L337 157 L698 157 Q884 157 948 189 Q1058 245 1058 393 Q1058 560 910 616 Q852 638 667 638 L337 638 Z " />
<glyph glyph-name="C" unicode="C" horiz-adv-x="1383" d="M1314 515 Q1297 307 1182 167 Q1021 -31 723 -31 Q407 -31 236 193 Q90 382 90 681 Q90 1001 277 1206 Q449 1396 737 1396 Q1018 1396 1179 1222 Q1289 1103 1303 956 L1121 956 Q1091 1090 988 1166.5 Q885 1243 733 1243 Q489 1243 366 1044 Q272 893 272 683 Q272 459 369 310 Q492 122 732 122 Q906 122 1009 223 Q1112 324 1135 515 L1314 515 Z " />
<glyph glyph-name="D" unicode="D" horiz-adv-x="1372" d="M157 1365 L647 1365 Q802 1365 901 1334.5 Q1000 1304 1082 1231 Q1282 1052 1282 711 Q1282 347 1090 151 Q1006 66 914 33 Q822 0 667 0 L157 0 L157 1365 Z M337 1208 L337 157 L632 157 Q771 157 843 180 Q915 203 971 265 Q1100 409 1100 703 Q1100 953 987 1080.5 Q874 1208 651 1208 L337 1208 Z " />
<glyph glyph-name="E" unicode="E" horiz-adv-x="1196" d="M1103 1365 L1103 1208 L337 1208 L337 776 L1053 776 L1053 630 L337 630 L337 157 L1113 157 L1113 0 L157 0 L157 1365 L1103 1365 Z " />
<glyph glyph-name="F" unicode="F" horiz-adv-x="1097" d="M1054 1365 L1054 1208 L337 1208 L337 777 L968 777 L968 631 L337 631 L337 0 L157 0 L157 1365 L1054 1365 Z " />
<glyph glyph-name="G" unicode="G" horiz-adv-x="1469" d="M1342 721 L1342 0 L1227 0 L1200 104 Q1189 146 1181 171 Q1015 -32 742 -32 Q414 -32 235 205 Q90 395 90 669 Q90 990 276 1199 Q453 1397 754 1397 Q1032 1397 1192 1233 Q1310 1112 1327 946 L1150 946 Q1129 1081 1021 1162.5 Q913 1244 754 1244 Q523 1244 391 1078 Q272 927 272 676 Q272 446 381 299 Q513 121 754 121 Q940 121 1059 239 Q1177 354 1181 575 L744 575 L744 721 L1342 721 Z " />
<glyph glyph-name="H" unicode="H" horiz-adv-x="1395" d="M1238 1365 L1238 0 L1058 0 L1058 639 L337 639 L337 0 L157 0 L157 1365 L337 1365 L337 796 L1058 796 L1058 1365 L1238 1365 Z " />
<glyph glyph-name="I" unicode="I" horiz-adv-x="494" d="M337 1365 L337 0 L157 0 L157 1365 L337 1365 Z " />
<glyph glyph-name="J" unicode="J" horiz-adv-x="961" d="M823 1365 L823 440 Q823 315 812.5 253 Q802 191 771 137 Q676 -32 430 -32 Q153 -32 64 156 Q22 245 22 399 Q22 421 24 451 L199 451 Q199 418 199 401 Q199 265 237 206 Q293 121 428 121 Q557 121 606 204 Q643 265 643 439 L643 1365 L823 1365 Z " />
<glyph glyph-name="K" unicode="K" horiz-adv-x="1274" d="M1266 1365 L690 817 L1289 0 L1060 0 L563 694 L337 479 L337 0 L157 0 L157 1365 L337 1365 L337 827 Q336 732 336 685 Q366 714 426 776 L1030 1365 L1266 1365 Z " />
<glyph glyph-name="L" unicode="L" horiz-adv-x="1102" d="M1062 157 L1062 0 L157 0 L157 1365 L337 1365 L337 157 L1062 157 Z " />
<glyph glyph-name="M" unicode="M" horiz-adv-x="1680" d="M1522 1365 L1522 0 L1349 0 L1351 612 Q1352 951 1373 1219 L1353 1164 L1291 987 L1249 873 L924 0 L767 0 L427 863 Q353 1049 309 1206 Q327 914 328 618 L330 0 L157 0 L157 1365 L403 1365 L723 532 Q807 313 846 187 Q889 322 965 530 L1272 1365 L1522 1365 Z " />
<glyph glyph-name="N" unicode="N" horiz-adv-x="1407" d="M1249 1365 L1249 0 L1050 0 L563 736 Q377 1017 317 1143 Q328 1002 329 689 L330 0 L157 0 L157 1365 L352 1365 L862 588 Q1016 354 1089 215 Q1079 454 1078 682 L1076 1365 L1249 1365 Z " />
<glyph glyph-name="O" unicode="O" horiz-adv-x="1487" d="M755 1397 Q1035 1397 1217 1200 Q1397 1004 1397 686 Q1397 401 1257 214 Q1074 -31 742 -31 Q412 -31 228 216 Q90 401 90 682 Q90 1012 270 1200 Q458 1397 755 1397 Z M751 1244 Q538 1244 407 1098 Q272 950 272 686 Q272 442 385 294 Q453 205 563 159 Q649 122 746 122 Q939 122 1063 249 Q1215 404 1215 684 Q1215 937 1084 1092 Q955 1244 751 1244 Z " />
<glyph glyph-name="P" unicode="P" horiz-adv-x="1235" d="M157 1365 L700 1365 Q820 1365 889 1349 Q958 1333 1017 1292 Q1174 1183 1174 973 Q1174 739 1015 631 Q955 591 890 576 Q825 561 707 561 L337 561 L337 0 L157 0 L157 1365 Z M337 1208 L337 707 L685 707 Q833 707 900 757 Q992 825 992 963 Q992 1106 885 1169 Q847 1192 799.5 1200 Q752 1208 659 1208 L337 1208 Z " />
<glyph glyph-name="Q" unicode="Q" horiz-adv-x="1464" d="M1374 -2 L1281 -116 L1073 51 Q930 -31 741 -31 Q447 -31 265 172 Q90 367 90 683 Q90 1001 271 1199 Q368 1305 499 1353 Q617 1396 742 1396 Q1044 1396 1222 1192 Q1397 992 1397 685 Q1397 516 1344 375 Q1291 234 1194 142 L1374 -2 Z M1058 244 Q1215 406 1215 686 Q1215 933 1086 1089 Q957 1243 742 1243 Q529 1243 398 1086 Q272 936 272 687 Q272 449 378 303 Q441 217 538 169.5 Q635 122 748 122 Q845 122 935 160 L784 280 L879 393 L1058 244 Z " />
<glyph glyph-name="R" unicode="R" horiz-adv-x="1369" d="M153 1365 L777 1365 Q949 1365 1045 1305 Q1211 1202 1211 994 Q1211 869 1151 782.5 Q1091 696 977 658 Q1077 638 1128 560 Q1158 514 1167 471 Q1176 428 1193 236 Q1208 61 1246 20 L1263 0 L1057 0 Q1036 30 1029.5 72.5 Q1023 115 1015 269 Q1005 460 939.5 525.5 Q874 591 692 591 L333 591 L333 0 L153 0 L153 1365 Z M333 1208 L333 737 L673 737 Q776 737 832.5 746.5 Q889 756 929 779 Q1029 838 1029 977 Q1029 1054 995 1108.5 Q961 1163 899 1186 Q839 1208 721 1208 L333 1208 Z " />
<glyph glyph-name="S" unicode="S" horiz-adv-x="1230" d="M1094 965 L920 965 Q903 1109 821 1176.5 Q739 1244 579 1244 Q450 1244 373 1198 Q271 1137 271 1017 Q271 919 344 877 Q417 835 642 787 Q781 757 855.5 732.5 Q930 708 983 674 Q1147 569 1147 385 Q1147 191 994 73 Q861 -31 616 -31 Q349 -31 201 95 Q53 221 51 451 L225 451 Q229 319 294 244 Q400 122 628 122 Q796 122 880 192 Q965 262 965 371 Q965 439 932.5 482.5 Q900 526 822 562 Q763 589 571 633 Q387 676 338 691.5 Q289 707 239 737 Q98 823 98 1006 Q98 1187 227.5 1292 Q357 1397 580 1397 Q903 1397 1031 1194 Q1089 1103 1094 965 Z " />
<glyph glyph-name="T" unicode="T" horiz-adv-x="1158" d="M1128 1365 L1128 1208 L669 1208 L669 0 L489 0 L489 1208 L30 1208 L30 1365 L1128 1365 Z " />
<glyph glyph-name="U" unicode="U" horiz-adv-x="1373" d="M1236 1365 L1236 569 Q1236 386 1214 308 Q1118 -31 691 -31 Q463 -31 335 57 Q192 154 155 333 Q137 416 137 572 L137 1365 L317 1365 L317 566 Q317 436 326.5 378.5 Q336 321 367 267 Q449 122 694 122 Q928 122 1005 257 Q1035 308 1045.5 373 Q1056 438 1056 567 L1056 1365 L1236 1365 Z " />
<glyph glyph-name="V" unicode="V" horiz-adv-x="1205" d="M1193 1365 L705 0 L499 0 L12 1365 L212 1365 L499 504 L538 383 Q578 255 604 152 Q641 287 713 504 L1002 1365 L1193 1365 Z " />
<glyph glyph-name="W" unicode="W" horiz-adv-x="1775" d="M1755 1365 L1391 0 L1201 0 L970 835 Q913 1043 886 1194 Q856 1050 797 846 L568 0 L375 0 L21 1365 L208 1365 L410 528 Q460 322 481 186 Q502 312 562 532 L790 1365 L988 1365 L1221 513 Q1267 343 1295 186 Q1315 311 1364 509 L1574 1365 L1755 1365 Z " />
<glyph glyph-name="X" unicode="X" horiz-adv-x="1186" d="M1155 1365 L701 703 L1181 0 L962 0 L681 424 Q635 493 593 571 Q557 515 499 428 L212 0 L5 0 L486 703 L35 1365 L251 1365 L485 1007 Q559 894 594 825 Q651 922 709 1007 L951 1365 L1155 1365 Z " />
<glyph glyph-name="Y" unicode="Y" horiz-adv-x="1198" d="M1218 1365 L692 559 L692 0 L512 0 L512 559 L-20 1365 L197 1365 L519 855 Q577 763 608 707 Q640 768 692 851 L1012 1365 L1218 1365 Z " />
<glyph glyph-name="Z" unicode="Z" horiz-adv-x="1193" d="M1122 1365 L1122 1216 L346 252 L262 153 Q469 157 513 157 L1143 157 L1143 0 L53 0 L53 153 L837 1126 Q842 1132 913 1212 Q793 1208 671 1208 L120 1208 L120 1365 L1122 1365 Z " />
<glyph glyph-name="bracketleft" unicode="&#x5b;" horiz-adv-x="601" d="M507 1365 L507 1237 L301 1237 L301 -255 L507 -255 L507 -385 L145 -385 L145 1365 L507 1365 Z " />
<glyph glyph-name="backslash" unicode="&#x5c;" horiz-adv-x="827" d="M72 1365 L205 1365 L908 -385 L770 -385 L72 1365 Z " />
<glyph glyph-name="bracketright" unicode="&#x5d;" horiz-adv-x="601" d="M94 -385 L94 -255 L300 -255 L300 1237 L94 1237 L94 1365 L456 1365 L456 -385 L94 -385 Z " />
<glyph glyph-name="asciicircum" unicode="&#x5e;" horiz-adv-x="1024" d="M225 760 L60 760 L411 1369 L612 1369 L963 760 L797 760 L510 1248 L225 760 Z " />
<glyph glyph-name="underscore" unicode="&#x5f;" horiz-adv-x="1024" d="M0 -143 L1024 -143 L1024 -257 L0 -257 L0 -143 Z " />
<glyph glyph-name="grave" unicode="&#x60;" horiz-adv-x="1024" d="M259 1399 L460 1399 L602 1126 L489 1126 L259 1399 Z " />
<glyph glyph-name="a" unicode="a" horiz-adv-x="1036" d="M993 131 L993 4 Q936 -16 879 -16 Q812 -16 775 22 Q738 60 736 131 Q597 -29 378 -29 Q239 -29 157 39 Q62 117 62 253 Q62 448 248 523 Q295 542 338.5 550 Q382 558 552 578 Q652 591 689 619 Q726 647 726 710 Q726 883 503 883 Q386 883 328.5 835 Q271 787 260 680 L101 680 Q105 840 214 929.5 Q323 1019 515 1019 Q723 1019 825 922 Q862 886 877 833.5 Q892 781 892 688 Q892 577 886 281 Q885 226 885 221 Q885 166 899.5 143.5 Q914 121 949 121 Q969 121 993 131 Z M729 514 Q695 489 656 478.5 Q617 468 510 454 Q367 436 312 408 Q229 365 229 267 Q229 189 281.5 143.5 Q334 98 425 98 Q508 98 581 133.5 Q654 169 697 231 Q729 275 729 366 L729 514 Z " />
<glyph glyph-name="b" unicode="b" horiz-adv-x="1159" d="M306 1365 L306 853 Q409 1019 633 1019 Q832 1019 956 878 Q1079 739 1079 499 Q1079 252 949 108 Q824 -29 623 -29 Q387 -29 296 143 L296 0 L144 0 L144 1365 L306 1365 Z M613 882 Q478 882 393 790 Q301 691 301 492 Q301 309 383 211 Q468 108 608 108 Q746 108 825 210 Q912 321 912 497 Q912 680 825 785 Q744 882 613 882 Z " />
<glyph glyph-name="c" unicode="c" horiz-adv-x="1041" d="M983 360 Q958 176 844 73.5 Q730 -29 551 -29 Q310 -29 183 139 Q81 275 81 481 Q81 749 227 892 Q357 1019 556 1019 Q738 1019 847.5 928 Q957 837 977 668 L808 668 Q792 752 747 803 Q677 883 556 883 Q394 883 313 752 Q248 647 248 494 Q248 332 314 231 Q394 107 546 107 Q657 107 728 173 Q799 239 817 360 L983 360 Z " />
<glyph glyph-name="d" unicode="d" horiz-adv-x="1159" d="M1015 1365 L1015 0 L862 0 L862 146 Q820 62 736 16.5 Q652 -29 538 -29 Q335 -29 210 108 Q80 249 80 497 Q80 740 202 877 Q329 1019 525 1019 Q640 1019 724 976 Q808 933 853 853 L853 1365 L1015 1365 Z M554 882 Q416 882 335 786 Q247 683 247 500 Q247 321 334 211 Q416 108 553 108 Q694 108 776 211 Q857 313 857 493 Q857 693 765 791 Q679 882 554 882 Z " />
<glyph glyph-name="e" unicode="e" horiz-adv-x="1065" d="M982 317 Q904 -29 549 -29 Q309 -29 186 134 Q81 273 81 487 Q81 720 209 868 Q340 1019 544 1019 Q711 1019 829 918 Q917 843 955.5 734 Q994 625 993 453 L249 453 Q259 107 560 107 Q664 107 726 156.5 Q788 206 822 317 L982 317 Z M825 587 Q817 689 775 756 Q695 883 539 883 Q417 883 343.5 808 Q270 733 250 587 L825 587 Z " />
<glyph glyph-name="f" unicode="f" horiz-adv-x="573" d="M556 1370 L556 1230 Q506 1241 463 1241 Q389 1241 364.5 1214 Q340 1187 340 1104 L340 990 L530 990 L530 856 L340 856 L340 0 L178 0 L178 856 L11 856 L11 990 L178 990 L178 1055 Q178 1158 185.5 1201 Q193 1244 217 1279 Q284 1377 442 1377 Q488 1377 556 1370 Z " />
<glyph glyph-name="g" unicode="g" horiz-adv-x="1133" d="M989 990 L989 108 Q989 -15 974 -88 Q959 -161 922 -223 Q811 -404 529 -404 Q323 -404 211 -310 Q129 -241 113 -112 L280 -112 Q309 -277 535 -277 Q705 -277 773 -179 Q825 -104 827 49 L828 169 Q796 114 768 85 Q672 -13 511 -13 Q318 -13 198 125 Q79 262 79 491 Q79 734 205 877 Q330 1019 522 1019 Q628 1019 703.5 977.5 Q779 936 837 847 L837 990 L989 990 Z M540 882 Q390 882 314 767 Q246 666 246 508 Q246 289 352 193 Q429 124 534 124 Q679 124 758 245 Q825 349 825 513 Q825 715 725 811 Q650 882 540 882 Z " />
<glyph glyph-name="h" unicode="h" horiz-adv-x="1101" d="M306 1365 L306 966 Q306 949 302 848 Q414 1019 633 1019 Q850 1019 927 871 Q965 799 965 643 L965 0 L803 0 L803 623 Q803 754 771 801 Q717 882 586 882 Q500 882 434 841.5 Q368 801 337 729 Q318 686 312 635 Q306 584 306 467 L306 0 L144 0 L144 1365 L306 1365 Z " />
<glyph glyph-name="i" unicode="i" horiz-adv-x="449" d="M305 1365 L305 1166 L143 1166 L143 1365 L305 1365 Z M305 990 L305 0 L143 0 L143 990 L305 990 Z " />
<glyph glyph-name="j" unicode="j" horiz-adv-x="449" d="M306 990 L306 -25 Q306 -166 300 -214.5 Q294 -263 272 -302 Q218 -398 55 -398 Q21 -398 -19 -392 L-19 -254 Q14 -261 39 -261 Q88 -261 110 -246.5 Q132 -232 138 -197 Q144 -161 144 -26 L144 990 L306 990 Z M306 1365 L306 1166 L144 1166 L144 1365 L306 1365 Z " />
<glyph glyph-name="k" unicode="k" horiz-adv-x="1020" d="M980 990 L587 631 L1008 0 L802 0 L462 518 L306 375 L306 0 L144 0 L144 1365 L306 1365 L306 695 L306 620 L306 553 Q352 602 373 622 L762 990 L980 990 Z " />
<glyph glyph-name="l" unicode="l" horiz-adv-x="449" d="M305 1365 L305 0 L143 0 L143 1365 L305 1365 Z " />
<glyph glyph-name="m" unicode="m" horiz-adv-x="1669" d="M296 990 L296 847 Q355 926 414 963 Q504 1019 619 1019 Q724 1019 789.5 977.5 Q855 936 893 844 Q1016 1019 1223 1019 Q1405 1019 1485 896 Q1533 822 1533 683 L1533 0 L1371 0 L1371 624 Q1371 743 1352 786 Q1311 882 1173 882 Q1076 882 1011 828 Q954 781 936.5 723 Q919 665 919 524 L919 0 L757 0 L757 636 Q757 779 716 826 Q667 883 571 883 Q492 883 429 843.5 Q366 804 335 735 Q306 671 306 524 L306 0 L144 0 L144 990 L296 990 Z " />
<glyph glyph-name="n" unicode="n" horiz-adv-x="1101" d="M296 990 L296 836 Q338 899 376 930 Q482 1019 640 1019 Q775 1019 861 950 Q920 903 942.5 836 Q965 769 965 640 L965 0 L803 0 L803 583 Q803 749 769 800 Q716 882 589 882 Q463 882 386 800 Q340 752 323 683.5 Q306 615 306 479 L306 0 L144 0 L144 990 L296 990 Z " />
<glyph glyph-name="o" unicode="o" horiz-adv-x="1118" d="M568 1019 Q782 1019 914 873 Q1039 736 1039 496 Q1039 232 891 89 Q770 -29 566 -29 Q331 -29 203 123 Q81 267 81 495 Q81 713 191 852 Q322 1019 568 1019 Z M566 882 Q429 882 344 790 Q248 685 248 494 Q248 305 341 201 Q424 108 565 108 Q690 108 768 187 Q872 293 872 498 Q872 685 781 788 Q697 882 566 882 Z " />
<glyph glyph-name="p" unicode="p" horiz-adv-x="1160" d="M296 990 L296 848 Q408 1019 625 1019 Q818 1019 941 891 Q1080 746 1080 489 Q1080 255 957 113 Q833 -29 636 -29 Q419 -29 306 136 L306 -385 L144 -385 L144 990 L296 990 Z M610 882 Q470 882 385 783 Q300 684 300 495 Q300 300 394 199 Q479 108 610 108 Q747 108 825 204 Q913 312 913 489 Q913 674 822 785 Q742 882 610 882 Z " />
<glyph glyph-name="q" unicode="q" horiz-adv-x="1159" d="M1016 990 L1016 -385 L854 -385 L854 137 Q740 -29 521 -29 Q326 -29 204 109 Q81 248 81 489 Q81 746 218 890 Q340 1019 537 1019 Q767 1019 864 847 L864 990 L1016 990 Z M555 882 Q417 882 339 786 Q248 675 248 489 Q248 309 335 205 Q416 108 551 108 Q681 108 765 198 Q859 299 859 500 Q859 685 773 783 Q687 882 555 882 Z " />
<glyph glyph-name="r" unicode="r" horiz-adv-x="663" d="M667 1019 L667 849 Q631 852 615 852 Q484 852 400 766 Q345 709 325.5 630.5 Q306 552 306 385 L306 0 L144 0 L144 990 L296 990 L296 783 Q396 1027 667 1019 Z " />
<glyph glyph-name="s" unicode="s" horiz-adv-x="951" d="M840 702 L677 702 Q668 769 642 804 Q584 882 437 882 Q341 882 287.5 845.5 Q234 809 234 744 Q234 683 283 654.5 Q332 626 498 588 Q705 542 788 482 Q881 414 881 288 Q881 144 769 57.5 Q657 -29 470 -29 Q269 -29 160 58.5 Q51 146 45 313 L205 313 Q215 230 250 189 Q318 108 471 108 Q611 108 676 178 Q714 218 714 271 Q714 334 662.5 368.5 Q611 403 465 438 Q309 476 266 489 Q223 502 183 523 Q129 552 98 606.5 Q67 661 67 728 Q67 886 206 965 Q300 1019 444 1019 Q667 1019 771 898 Q830 829 840 702 Z " />
<glyph glyph-name="t" unicode="t" horiz-adv-x="578" d="M519 990 L519 856 L322 856 L322 272 Q322 179 337 154 Q358 120 432 120 Q473 120 519 131 L519 -8 Q456 -16 393 -16 Q236 -16 189 61 Q169 93 164.5 142 Q160 191 160 363 L160 856 L-7 856 L-7 990 L160 990 L160 1283 L322 1283 L322 990 L519 990 Z " />
<glyph glyph-name="u" unicode="u" horiz-adv-x="1105" d="M962 990 L962 0 L810 0 L810 155 Q756 66 667 18.5 Q578 -29 467 -29 Q291 -29 203 79 Q137 160 137 347 L137 990 L299 990 L299 406 Q299 242 331 191 Q383 108 513 108 Q681 108 761 255 Q800 326 800 511 L800 990 L962 990 Z " />
<glyph glyph-name="v" unicode="v" horiz-adv-x="906" d="M905 990 L544 0 L369 0 L1 990 L181 990 L359 489 Q413 337 463 163 Q493 275 569 500 L735 990 L905 990 Z " />
<glyph glyph-name="w" unicode="w" horiz-adv-x="1407" d="M1398 990 L1082 0 L909 0 L761 541 Q732 648 703 787 Q674 653 645 542 L504 0 L327 0 L10 990 L190 990 L327 516 Q370 367 416 180 Q466 414 494 522 L616 990 L796 990 L939 464 Q965 366 1003 180 Q1041 351 1073 460 L1227 990 L1398 990 Z " />
<glyph glyph-name="x" unicode="x" horiz-adv-x="945" d="M910 990 L568 535 L951 0 L742 0 L529 312 Q493 364 466 410 Q442 373 401 312 L191 0 L-7 0 L365 522 L21 990 L229 990 L387 766 Q407 738 466 645 Q527 734 551 767 L713 990 L910 990 Z " />
<glyph glyph-name="y" unicode="y" horiz-adv-x="928" d="M927 990 L563 32 Q465 -224 427 -286 Q357 -398 215 -398 Q165 -398 120 -388 L95 -382 L95 -236 Q164 -257 200 -257 Q260 -257 293 -212 Q326 -167 392 6 L1 990 L184 990 L401 410 Q423 350 476 181 Q523 331 556 425 L755 990 L927 990 Z " />
<glyph glyph-name="z" unicode="z" horiz-adv-x="904" d="M859 990 L859 882 L327 220 Q316 207 253 133 Q330 134 376 134 L884 134 L884 0 L48 0 L48 121 L566 765 Q583 786 649 857 Q575 856 556 856 L86 856 L86 990 L859 990 Z " />
<glyph glyph-name="braceleft" unicode="&#x7b;" horiz-adv-x="601" d="M187 489 Q250 453 275 400.5 Q300 348 300 251 L300 -40 Q300 -121 312.5 -162 Q325 -203 356 -226 Q398 -255 495 -257 L495 -385 L481 -385 Q356 -385 301 -371 Q246 -357 207 -315 Q144 -245 144 -81 L144 229 Q144 319 118 362 Q92 405 27 424 L27 560 Q91 579 117.5 621.5 Q144 664 144 748 L144 1087 Q144 1234 211 1299 Q250 1338 305.5 1351.5 Q361 1365 482 1365 L495 1365 L495 1237 Q381 1233 340.5 1188 Q300 1143 300 1020 L300 721 Q300 625 275.5 574 Q251 523 187 489 Z " />
<glyph glyph-name="bar" unicode="&#x7c;" horiz-adv-x="1024" d="M423 1365 L601 1365 L601 -341 L423 -341 L423 1365 Z " />
<glyph glyph-name="braceright" unicode="&#x7d;" horiz-adv-x="601" d="M413 492 Q350 526 325 579 Q300 632 300 729 L300 1020 Q300 1101 287.5 1142.5 Q275 1184 244 1206 Q202 1235 105 1237 L105 1365 L119 1365 Q244 1365 299.5 1351 Q355 1337 393 1295 Q456 1225 456 1061 L456 751 Q456 661 482 618 Q508 575 573 556 L573 420 Q509 401 482.5 358.5 Q456 316 456 232 L456 -107 Q456 -253 390 -319 Q350 -358 294.5 -371.5 Q239 -385 118 -385 L105 -385 L105 -257 Q219 -253 259.5 -208 Q300 -163 300 -40 L300 259 Q300 355 324.5 406 Q349 457 413 492 Z " />
<glyph glyph-name="asciitilde" unicode="&#x7e;" horiz-adv-x="1365" d="M286 1181 L193 1255 Q299 1491 474 1491 Q550 1491 710 1412 Q795 1371 829.5 1358.5 Q864 1346 897 1346 Q998 1346 1081 1496 L1175 1422 Q1071 1188 877 1188 Q837 1188 795.5 1203.5 Q754 1219 633 1278 Q525 1331 467 1331 Q415 1331 373.5 1296.5 Q332 1262 286 1181 Z " />
<glyph glyph-name="Adieresis" unicode="&#xc4;" horiz-adv-x="1297" d="M751 1371 L1284 0 L1084 0 L931 419 L358 419 L202 0 L12 0 L548 1371 L751 1371 Z M878 565 L744 928 Q675 1112 646 1204 Q615 1112 548 935 L410 565 L878 565 Z M947 1697 L947 1509 L770 1509 L770 1697 L947 1697 Z M526 1697 L526 1509 L349 1509 L349 1697 L526 1697 Z " />
<glyph glyph-name="Aring" unicode="&#xc5;" horiz-adv-x="1297" d="M751 1371 L1284 0 L1084 0 L931 419 L358 419 L202 0 L12 0 L548 1371 L751 1371 Z M878 565 L744 928 Q675 1112 646 1204 Q615 1112 548 935 L410 565 L878 565 Z M654 1883 Q746 1883 812 1811 Q868 1749 868 1665 Q868 1568 796 1503 Q734 1447 650 1447 Q553 1447 488 1519 Q432 1581 432 1667 Q432 1761 504 1827 Q566 1883 654 1883 Z M649 1785 Q599 1785 563.5 1750.5 Q528 1716 528 1666 Q528 1615 562.5 1580 Q597 1545 648 1545 Q698 1545 734 1580.5 Q770 1616 770 1665 Q770 1713 734 1749 Q698 1785 649 1785 Z " />
<glyph glyph-name="Ccedilla" unicode="&#xc7;" horiz-adv-x="1383" d="M1314 516 Q1297 277 1143.5 127.5 Q990 -22 753 -31 L689 -118 Q734 -109 757 -109 Q825 -109 871 -147 Q917 -185 917 -242 Q917 -320 853.5 -368.5 Q790 -417 688 -417 Q611 -417 503 -378 L536 -307 Q602 -334 671 -334 Q716 -334 742.5 -312 Q769 -290 769 -254 Q769 -223 742.5 -203.5 Q716 -184 673 -184 Q646 -184 601 -197 L570 -163 L670 -31 Q562 -28 461.5 16 Q361 60 286 137 Q90 339 90 679 Q90 999 274 1205 Q444 1396 744 1396 Q1016 1396 1176 1224 Q1286 1107 1302 956 L1120 956 Q1101 1052 1026 1132 Q920 1243 739 1243 Q496 1243 366 1042 Q272 897 272 686 Q272 460 373 308 Q495 123 736 123 Q943 123 1046 266 Q1124 376 1135 516 L1314 516 Z " />
<glyph glyph-name="Eacute" unicode="&#xc9;" horiz-adv-x="1196" d="M1103 1365 L1103 1208 L337 1208 L337 776 L1053 776 L1053 630 L337 630 L337 157 L1113 157 L1113 0 L157 0 L157 1365 L1103 1365 Z M906 1734 L669 1475 L536 1475 L691 1734 L906 1734 Z " />
<glyph glyph-name="Ntilde" unicode="&#xd1;" horiz-adv-x="1407" d="M1249 1365 L1249 0 L1050 0 L563 736 Q377 1017 317 1143 Q328 1002 329 689 L330 0 L157 0 L157 1365 L352 1365 L862 588 Q1016 354 1089 215 Q1079 454 1078 682 L1076 1365 L1249 1365 Z M1044 1719 Q1030 1616 978.5 1559.5 Q927 1503 847 1503 Q803 1503 647 1561 Q603 1578 571 1578 Q507 1578 481 1492 L390 1492 Q402 1594 454 1649.5 Q506 1705 590 1705 Q630 1705 661.5 1696 Q693 1687 798 1644 Q826 1633 857 1633 Q927 1633 949 1719 L1044 1719 Z " />
<glyph glyph-name="Odieresis" unicode="&#xd6;" horiz-adv-x="1487" d="M755 1397 Q1035 1397 1217 1200 Q1397 1004 1397 686 Q1397 401 1257 214 Q1074 -31 742 -31 Q412 -31 228 216 Q90 401 90 682 Q90 1012 270 1200 Q458 1397 755 1397 Z M751 1244 Q538 1244 407 1098 Q272 950 272 686 Q272 442 385 294 Q453 205 563 159 Q649 122 746 122 Q939 122 1063 249 Q1215 404 1215 684 Q1215 937 1084 1092 Q955 1244 751 1244 Z M1042 1697 L1042 1509 L865 1509 L865 1697 L1042 1697 Z M621 1697 L621 1509 L444 1509 L444 1697 L621 1697 Z " />
<glyph glyph-name="Udieresis" unicode="&#xdc;" horiz-adv-x="1373" d="M1236 1365 L1236 569 Q1236 386 1214 308 Q1118 -31 691 -31 Q463 -31 335 57 Q192 154 155 333 Q137 416 137 572 L137 1365 L317 1365 L317 566 Q317 436 326.5 378.5 Q336 321 367 267 Q449 122 694 122 Q928 122 1005 257 Q1035 308 1045.5 373 Q1056 438 1056 567 L1056 1365 L1236 1365 Z M986 1697 L986 1509 L809 1509 L809 1697 L986 1697 Z M565 1697 L565 1509 L388 1509 L388 1697 L565 1697 Z " />
<glyph glyph-name="aacute" unicode="&#xe1;" horiz-adv-x="1036" d="M993 131 L993 4 Q936 -16 879 -16 Q812 -16 775 22 Q738 60 736 131 Q597 -29 378 -29 Q239 -29 157 39 Q62 117 62 253 Q62 448 248 523 Q295 542 338.5 550 Q382 558 552 578 Q652 591 689 619 Q726 647 726 710 Q726 883 503 883 Q386 883 328.5 835 Q271 787 260 680 L101 680 Q105 840 214 929.5 Q323 1019 515 1019 Q723 1019 825 922 Q862 886 877 833.5 Q892 781 892 688 Q892 577 886 281 Q885 226 885 221 Q885 166 899.5 143.5 Q914 121 949 121 Q969 121 993 131 Z M729 514 Q695 489 656 478.5 Q617 468 510 454 Q367 436 312 408 Q229 365 229 267 Q229 189 281.5 143.5 Q334 98 425 98 Q508 98 581 133.5 Q654 169 697 231 Q729 275 729 366 L729 514 Z M751 1399 L521 1126 L408 1126 L550 1399 L751 1399 Z " />
<glyph glyph-name="agrave" unicode="&#xe0;" horiz-adv-x="1036" d="M993 131 L993 4 Q936 -16 879 -16 Q812 -16 775 22 Q738 60 736 131 Q597 -29 378 -29 Q239 -29 157 39 Q62 117 62 253 Q62 448 248 523 Q295 542 338.5 550 Q382 558 552 578 Q652 591 689 619 Q726 647 726 710 Q726 883 503 883 Q386 883 328.5 835 Q271 787 260 680 L101 680 Q105 840 214 929.5 Q323 1019 515 1019 Q723 1019 825 922 Q862 886 877 833.5 Q892 781 892 688 Q892 577 886 281 Q885 226 885 221 Q885 166 899.5 143.5 Q914 121 949 121 Q969 121 993 131 Z M729 514 Q695 489 656 478.5 Q617 468 510 454 Q367 436 312 408 Q229 365 229 267 Q229 189 281.5 143.5 Q334 98 425 98 Q508 98 581 133.5 Q654 169 697 231 Q729 275 729 366 L729 514 Z M265 1399 L466 1399 L608 1126 L495 1126 L265 1399 Z " />
<glyph glyph-name="acircumflex" unicode="&#xe2;" horiz-adv-x="1036" d="M993 131 L993 4 Q936 -16 879 -16 Q812 -16 775 22 Q738 60 736 131 Q597 -29 378 -29 Q239 -29 157 39 Q62 117 62 253 Q62 448 248 523 Q295 542 338.5 550 Q382 558 552 578 Q652 591 689 619 Q726 647 726 710 Q726 883 503 883 Q386 883 328.5 835 Q271 787 260 680 L101 680 Q105 840 214 929.5 Q323 1019 515 1019 Q723 1019 825 922 Q862 886 877 833.5 Q892 781 892 688 Q892 577 886 281 Q885 226 885 221 Q885 166 899.5 143.5 Q914 121 949 121 Q969 121 993 131 Z M729 514 Q695 489 656 478.5 Q617 468 510 454 Q367 436 312 408 Q229 365 229 267 Q229 189 281.5 143.5 Q334 98 425 98 Q508 98 581 133.5 Q654 169 697 231 Q729 275 729 366 L729 514 Z M792 1133 L628 1133 L499 1315 L364 1133 L217 1133 L415 1406 L591 1406 L792 1133 Z " />
<glyph glyph-name="adieresis" unicode="&#xe4;" horiz-adv-x="1036" d="M993 131 L993 4 Q936 -16 879 -16 Q812 -16 775 22 Q738 60 736 131 Q597 -29 378 -29 Q239 -29 157 39 Q62 117 62 253 Q62 448 248 523 Q295 542 338.5 550 Q382 558 552 578 Q652 591 689 619 Q726 647 726 710 Q726 883 503 883 Q386 883 328.5 835 Q271 787 260 680 L101 680 Q105 840 214 929.5 Q323 1019 515 1019 Q723 1019 825 922 Q862 886 877 833.5 Q892 781 892 688 Q892 577 886 281 Q885 226 885 221 Q885 166 899.5 143.5 Q914 121 949 121 Q969 121 993 131 Z M729 514 Q695 489 656 478.5 Q617 468 510 454 Q367 436 312 408 Q229 365 229 267 Q229 189 281.5 143.5 Q334 98 425 98 Q508 98 581 133.5 Q654 169 697 231 Q729 275 729 366 L729 514 Z M772 1354 L772 1160 L599 1160 L599 1354 L772 1354 Z M410 1354 L410 1160 L237 1160 L237 1354 L410 1354 Z " />
<glyph glyph-name="atilde" unicode="&#xe3;" horiz-adv-x="1036" d="M993 131 L993 4 Q936 -16 879 -16 Q812 -16 775 22 Q738 60 736 131 Q597 -29 378 -29 Q239 -29 157 39 Q62 117 62 253 Q62 448 248 523 Q295 542 338.5 550 Q382 558 552 578 Q652 591 689 619 Q726 647 726 710 Q726 883 503 883 Q386 883 328.5 835 Q271 787 260 680 L101 680 Q105 840 214 929.5 Q323 1019 515 1019 Q723 1019 825 922 Q862 886 877 833.5 Q892 781 892 688 Q892 577 886 281 Q885 226 885 221 Q885 166 899.5 143.5 Q914 121 949 121 Q969 121 993 131 Z M729 514 Q695 489 656 478.5 Q617 468 510 454 Q367 436 312 408 Q229 365 229 267 Q229 189 281.5 143.5 Q334 98 425 98 Q508 98 581 133.5 Q654 169 697 231 Q729 275 729 366 L729 514 Z M802 1387 Q789 1285 742.5 1229 Q696 1173 624 1173 Q582 1173 506 1204 Q402 1247 373 1247 Q315 1247 293 1162 L207 1162 Q218 1264 265.5 1319 Q313 1374 389 1374 Q425 1374 454 1364.5 Q483 1355 579 1312 Q604 1301 632 1301 Q693 1301 713 1387 L802 1387 Z " />
<glyph glyph-name="aring" unicode="&#xe5;" horiz-adv-x="1036" d="M993 131 L993 4 Q936 -16 879 -16 Q812 -16 775 22 Q738 60 736 131 Q597 -29 378 -29 Q239 -29 157 39 Q62 117 62 253 Q62 448 248 523 Q295 542 338.5 550 Q382 558 552 578 Q652 591 689 619 Q726 647 726 710 Q726 883 503 883 Q386 883 328.5 835 Q271 787 260 680 L101 680 Q105 840 214 929.5 Q323 1019 515 1019 Q723 1019 825 922 Q862 886 877 833.5 Q892 781 892 688 Q892 577 886 281 Q885 226 885 221 Q885 166 899.5 143.5 Q914 121 949 121 Q969 121 993 131 Z M729 514 Q695 489 656 478.5 Q617 468 510 454 Q367 436 312 408 Q229 365 229 267 Q229 189 281.5 143.5 Q334 98 425 98 Q508 98 581 133.5 Q654 169 697 231 Q729 275 729 366 L729 514 Z M506 1506 Q595 1506 657 1437 Q710 1378 710 1299 Q710 1207 641 1145 Q583 1092 503 1092 Q411 1092 349 1161 Q296 1219 296 1301 Q296 1390 364 1453 Q423 1506 506 1506 Z M502 1419 Q451 1419 416 1384.5 Q381 1350 381 1300 Q381 1249 415.5 1214 Q450 1179 500 1179 Q550 1179 586 1214.5 Q622 1250 622 1299 Q622 1347 586.5 1383 Q551 1419 502 1419 Z " />
<glyph glyph-name="ccedilla" unicode="&#xe7;" horiz-adv-x="1041" d="M983 366 Q966 193 851 86 Q736 -21 567 -21 Q562 -21 549 -21 L480 -113 Q521 -106 547 -106 Q622 -106 665 -142 Q708 -178 708 -240 Q708 -320 646.5 -367 Q585 -414 480 -414 Q393 -414 295 -375 L330 -304 Q389 -330 459 -330 Q563 -330 563 -252 Q563 -219 536.5 -199 Q510 -179 464 -179 Q434 -179 395 -193 L364 -160 L471 -21 Q339 -1 251 74 Q81 216 81 496 Q81 750 227 897 Q354 1025 555 1025 Q737 1025 846.5 934 Q956 843 978 674 L808 674 Q763 888 551 888 Q390 888 311 757 Q248 654 248 507 Q248 343 314 239 Q394 114 552 114 Q770 114 824 366 L983 366 Z " />
<glyph glyph-name="eacute" unicode="&#xe9;" horiz-adv-x="1065" d="M982 317 Q904 -29 549 -29 Q309 -29 186 134 Q81 273 81 487 Q81 720 209 868 Q340 1019 544 1019 Q711 1019 829 918 Q917 843 955.5 734 Q994 625 993 453 L249 453 Q259 107 560 107 Q664 107 726 156.5 Q788 206 822 317 L982 317 Z M825 587 Q817 689 775 756 Q695 883 539 883 Q417 883 343.5 808 Q270 733 250 587 L825 587 Z M792 1399 L562 1126 L450 1126 L591 1399 L792 1399 Z " />
<glyph glyph-name="egrave" unicode="&#xe8;" horiz-adv-x="1065" d="M982 317 Q904 -29 549 -29 Q309 -29 186 134 Q81 273 81 487 Q81 720 209 868 Q340 1019 544 1019 Q711 1019 829 918 Q917 843 955.5 734 Q994 625 993 453 L249 453 Q259 107 560 107 Q664 107 726 156.5 Q788 206 822 317 L982 317 Z M825 587 Q817 689 775 756 Q695 883 539 883 Q417 883 343.5 808 Q270 733 250 587 L825 587 Z M286 1399 L487 1399 L629 1126 L516 1126 L286 1399 Z " />
<glyph glyph-name="ecircumflex" unicode="&#xea;" horiz-adv-x="1065" d="M982 317 Q904 -29 549 -29 Q309 -29 186 134 Q81 273 81 487 Q81 720 209 868 Q340 1019 544 1019 Q711 1019 829 918 Q917 843 955.5 734 Q994 625 993 453 L249 453 Q259 107 560 107 Q664 107 726 156.5 Q788 206 822 317 L982 317 Z M825 587 Q817 689 775 756 Q695 883 539 883 Q417 883 343.5 808 Q270 733 250 587 L825 587 Z M827 1133 L662 1133 L534 1315 L398 1133 L252 1133 L449 1406 L625 1406 L827 1133 Z " />
<glyph glyph-name="edieresis" unicode="&#xeb;" horiz-adv-x="1065" d="M982 317 Q904 -29 549 -29 Q309 -29 186 134 Q81 273 81 487 Q81 720 209 868 Q340 1019 544 1019 Q711 1019 829 918 Q917 843 955.5 734 Q994 625 993 453 L249 453 Q259 107 560 107 Q664 107 726 156.5 Q788 206 822 317 L982 317 Z M825 587 Q817 689 775 756 Q695 883 539 883 Q417 883 343.5 808 Q270 733 250 587 L825 587 Z M807 1354 L807 1160 L634 1160 L634 1354 L807 1354 Z M444 1354 L444 1160 L271 1160 L271 1354 L444 1354 Z " />
<glyph glyph-name="iacute" unicode="&#xed;" horiz-adv-x="449" d="M305 990 L305 0 L143 0 L143 990 L305 990 Z M478 1399 L261 1126 L148 1126 L283 1399 L478 1399 Z " />
<glyph glyph-name="igrave" unicode="&#xec;" horiz-adv-x="449" d="M306 990 L306 0 L144 0 L144 990 L306 990 Z M-22 1399 L172 1399 L307 1126 L194 1126 L-22 1399 Z " />
<glyph glyph-name="icircumflex" unicode="&#xee;" horiz-adv-x="449" d="M306 990 L306 0 L144 0 L144 990 L306 990 Z M499 1133 L334 1133 L219 1315 L98 1133 L-49 1133 L135 1406 L311 1406 L499 1133 Z " />
<glyph glyph-name="idieresis" unicode="&#xef;" horiz-adv-x="449" d="M306 990 L306 0 L144 0 L144 990 L306 990 Z M445 1354 L445 1160 L272 1160 L272 1354 L445 1354 Z M178 1354 L178 1160 L5 1160 L5 1354 L178 1354 Z " />
<glyph glyph-name="ntilde" unicode="&#xf1;" horiz-adv-x="1101" d="M296 990 L296 836 Q338 899 376 930 Q482 1019 640 1019 Q775 1019 861 950 Q920 903 942.5 836 Q965 769 965 640 L965 0 L803 0 L803 583 Q803 749 769 800 Q716 882 589 882 Q463 882 386 800 Q340 752 323 683.5 Q306 615 306 479 L306 0 L144 0 L144 990 L296 990 Z M855 1387 Q842 1285 795.5 1229 Q749 1173 677 1173 Q635 1173 559 1204 Q455 1247 426 1247 Q369 1247 346 1162 L260 1162 Q271 1264 318.5 1319 Q366 1374 442 1374 Q479 1374 507.5 1364.5 Q536 1355 632 1312 Q657 1301 685 1301 Q746 1301 766 1387 L855 1387 Z " />
<glyph glyph-name="oacute" unicode="&#xf3;" horiz-adv-x="1118" d="M568 1019 Q782 1019 914 873 Q1039 736 1039 496 Q1039 232 891 89 Q770 -29 566 -29 Q331 -29 203 123 Q81 267 81 495 Q81 713 191 852 Q322 1019 568 1019 Z M566 882 Q429 882 344 790 Q248 685 248 494 Q248 305 341 201 Q424 108 565 108 Q690 108 768 187 Q872 293 872 498 Q872 685 781 788 Q697 882 566 882 Z M812 1399 L582 1126 L469 1126 L611 1399 L812 1399 Z " />
<glyph glyph-name="ograve" unicode="&#xf2;" horiz-adv-x="1118" d="M568 1019 Q782 1019 914 873 Q1039 736 1039 496 Q1039 232 891 89 Q770 -29 566 -29 Q331 -29 203 123 Q81 267 81 495 Q81 713 191 852 Q322 1019 568 1019 Z M566 882 Q429 882 344 790 Q248 685 248 494 Q248 305 341 201 Q424 108 565 108 Q690 108 768 187 Q872 293 872 498 Q872 685 781 788 Q697 882 566 882 Z M312 1399 L513 1399 L655 1126 L542 1126 L312 1399 Z " />
<glyph glyph-name="ocircumflex" unicode="&#xf4;" horiz-adv-x="1118" d="M568 1019 Q782 1019 914 873 Q1039 736 1039 496 Q1039 232 891 89 Q770 -29 566 -29 Q331 -29 203 123 Q81 267 81 495 Q81 713 191 852 Q322 1019 568 1019 Z M566 882 Q429 882 344 790 Q248 685 248 494 Q248 305 341 201 Q424 108 565 108 Q690 108 768 187 Q872 293 872 498 Q872 685 781 788 Q697 882 566 882 Z M846 1133 L682 1133 L553 1315 L418 1133 L271 1133 L469 1406 L645 1406 L846 1133 Z " />
<glyph glyph-name="odieresis" unicode="&#xf6;" horiz-adv-x="1118" d="M568 1019 Q782 1019 914 873 Q1039 736 1039 496 Q1039 232 891 89 Q770 -29 566 -29 Q331 -29 203 123 Q81 267 81 495 Q81 713 191 852 Q322 1019 568 1019 Z M566 882 Q429 882 344 790 Q248 685 248 494 Q248 305 341 201 Q424 108 565 108 Q690 108 768 187 Q872 293 872 498 Q872 685 781 788 Q697 882 566 882 Z M826 1354 L826 1160 L653 1160 L653 1354 L826 1354 Z M464 1354 L464 1160 L291 1160 L291 1354 L464 1354 Z " />
<glyph glyph-name="otilde" unicode="&#xf5;" horiz-adv-x="1118" d="M568 1019 Q782 1019 914 873 Q1039 736 1039 496 Q1039 232 891 89 Q770 -29 566 -29 Q331 -29 203 123 Q81 267 81 495 Q81 713 191 852 Q322 1019 568 1019 Z M566 882 Q429 882 344 790 Q248 685 248 494 Q248 305 341 201 Q424 108 565 108 Q690 108 768 187 Q872 293 872 498 Q872 685 781 788 Q697 882 566 882 Z M863 1387 Q850 1285 803.5 1229 Q757 1173 685 1173 Q643 1173 567 1204 Q463 1247 434 1247 Q377 1247 354 1162 L268 1162 Q279 1264 326.5 1319 Q374 1374 450 1374 Q487 1374 515.5 1364.5 Q544 1355 640 1312 Q665 1301 693 1301 Q754 1301 774 1387 L863 1387 Z " />
<glyph glyph-name="uacute" unicode="&#xfa;" horiz-adv-x="1105" d="M962 990 L962 0 L810 0 L810 155 Q756 66 667 18.5 Q578 -29 467 -29 Q291 -29 203 79 Q137 160 137 347 L137 990 L299 990 L299 406 Q299 242 331 191 Q383 108 513 108 Q681 108 761 255 Q800 326 800 511 L800 990 L962 990 Z M806 1399 L576 1126 L463 1126 L605 1399 L806 1399 Z " />
<glyph glyph-name="ugrave" unicode="&#xf9;" horiz-adv-x="1105" d="M962 990 L962 0 L810 0 L810 155 Q756 66 667 18.5 Q578 -29 467 -29 Q291 -29 203 79 Q137 160 137 347 L137 990 L299 990 L299 406 Q299 242 331 191 Q383 108 513 108 Q681 108 761 255 Q800 326 800 511 L800 990 L962 990 Z M306 1399 L507 1399 L649 1126 L536 1126 L306 1399 Z " />
<glyph glyph-name="ucircumflex" unicode="&#xfb;" horiz-adv-x="1105" d="M962 990 L962 0 L810 0 L810 155 Q756 66 667 18.5 Q578 -29 467 -29 Q291 -29 203 79 Q137 160 137 347 L137 990 L299 990 L299 406 Q299 242 331 191 Q383 108 513 108 Q681 108 761 255 Q800 326 800 511 L800 990 L962 990 Z M840 1133 L676 1133 L547 1315 L412 1133 L265 1133 L463 1406 L639 1406 L840 1133 Z " />
<glyph glyph-name="udieresis" unicode="&#xfc;" horiz-adv-x="1105" d="M962 990 L962 0 L810 0 L810 155 Q756 66 667 18.5 Q578 -29 467 -29 Q291 -29 203 79 Q137 160 137 347 L137 990 L299 990 L299 406 Q299 242 331 191 Q383 108 513 108 Q681 108 761 255 Q800 326 800 511 L800 990 L962 990 Z M820 1354 L820 1160 L647 1160 L647 1354 L820 1354 Z M458 1354 L458 1160 L285 1160 L285 1354 L458 1354 Z " />
<glyph glyph-name="dagger" unicode="&#x2020;" horiz-adv-x="1092" d="M997 971 L997 829 L619 829 L619 -385 L463 -385 L463 829 L92 829 L92 971 L463 971 L463 1365 L619 1365 L619 971 L997 971 Z " />
<glyph glyph-name="degree" unicode="&#xb0;" horiz-adv-x="789" d="M396 1365 Q522 1365 613 1271 Q696 1184 696 1060 Q696 936 607 847 Q519 760 396 760 Q262 760 171 859 Q93 945 93 1063 Q93 1204 195 1290 Q284 1365 396 1365 Z M392 1274 Q314 1274 256 1219 Q187 1153 187 1063 Q187 985 238 924 Q299 851 395 851 Q479 851 540.5 912.5 Q602 974 602 1058 Q602 1148 543 1209 Q480 1274 392 1274 Z " />
<glyph glyph-name="cent" unicode="&#xa2;" horiz-adv-x="1092" d="M1004 558 Q988 400 881 288 Q780 184 620 176 L620 -30 L518 -30 L518 176 Q346 185 236 307 Q108 450 108 692 Q108 977 282 1120 Q381 1201 518 1216 L518 1384 L620 1384 L620 1216 Q792 1207 892 1109 Q987 1017 1004 867 L832 867 Q802 1054 620 1080 L620 311 Q722 323 784 408 Q828 470 842 558 L1004 558 Z M518 1075 Q425 1062 362 982 Q279 877 279 698 Q279 521 352 419 Q417 328 518 313 L518 1075 Z " />
<glyph glyph-name="sterling" unicode="&#xa3;" horiz-adv-x="1092" d="M1030 945 L863 945 Q858 1040 825 1109 Q796 1171 729.5 1207 Q663 1243 579 1243 Q461 1243 385.5 1177 Q310 1111 310 1007 Q310 917 373 799 Q403 741 412 724 L729 724 L729 606 L467 606 Q489 537 489 490 Q489 427 471 378 Q453 329 407 269 Q371 221 323 179 Q286 145 270 130 Q345 166 388.5 177.5 Q432 189 489 189 Q539 189 575.5 181 Q612 173 725 137 Q761 126 806 126 Q905 126 988 195 L1069 67 Q1024 24 951.5 -2 Q879 -28 803 -28 Q751 -28 718 -20.5 Q685 -13 587 20 Q480 57 405 57 Q354 57 314.5 41.5 Q275 26 206 -20 L118 118 Q327 274 327 459 Q327 528 290 606 L111 606 L111 724 L231 724 Q178 815 159 873 Q140 931 140 1003 Q140 1191 292 1303 Q405 1387 580 1387 Q860 1387 977 1180 Q1031 1085 1030 945 Z " />
<glyph glyph-name="section" unicode="&#xa7;" horiz-adv-x="1092" d="M905 1031 L744 1031 Q729 1236 548 1236 Q467 1236 416.5 1193.5 Q366 1151 366 1082 Q366 1004 451 939 Q480 916 693 791 Q875 685 936 618 Q1006 541 1006 430 Q1006 235 806 145 Q866 91 890 41.5 Q914 -8 914 -78 Q914 -212 813.5 -298.5 Q713 -385 557 -385 Q386 -385 284.5 -291 Q183 -197 176 -31 L340 -31 Q358 -247 562 -247 Q652 -247 704 -195 Q748 -150 748 -88 Q748 -21 690.5 32.5 Q633 86 444 195 Q296 280 249.5 311.5 Q203 343 167 381 Q86 467 86 595 Q86 696 141.5 771.5 Q197 847 290 872 Q202 962 202 1070 Q202 1204 299.5 1288 Q397 1372 553 1372 Q718 1372 811.5 1281 Q905 1190 905 1031 Z M379 791 Q240 729 240 610 Q240 528 320 466 Q367 429 559 319 Q613 289 710 224 Q774 251 811 298 Q848 345 848 401 Q848 477 782.5 533.5 Q717 590 451 742 Q404 769 379 791 Z " />
<glyph glyph-name="bullet" unicode="&#x2022;" horiz-adv-x="1365" d="M687 982 Q799 982 881 899 Q964 815 964 696 Q964 578 882 494 Q799 410 683 410 Q567 410 485 493 Q401 577 401 696 Q401 817 485 899 Q569 982 687 982 Z " />
<glyph glyph-name="paragraph" unicode="&#xb6;" horiz-adv-x="1092" d="M456 -385 L456 646 Q436 645 426 645 Q316 645 229 698 Q155 742 114 822 Q72 903 72 1001 Q72 1102 115 1184 Q158 1266 235 1311 Q328 1365 501 1365 L985 1365 L985 1256 L897 1256 L897 -385 L765 -385 L765 1256 L588 1256 L588 -385 L456 -385 Z " />
<glyph glyph-name="germandbls" unicode="&#xdf;" horiz-adv-x="1060" d="M454 118 Q493 112 520 112 Q656 112 733 188 Q815 270 815 411 Q815 604 665 662 Q624 678 586 682.5 Q548 687 454 688 L454 818 Q468 818 475 818 Q750 818 750 1040 Q750 1135 689.5 1192 Q629 1249 530 1249 Q393 1249 343 1163 Q320 1124 313 1077 Q306 1030 306 919 L306 0 L144 0 L144 891 Q144 1048 156 1115 Q168 1182 205 1237 Q306 1386 533 1386 Q700 1386 806 1299 Q916 1208 916 1050 Q916 945 862.5 868.5 Q809 792 720 769 Q789 756 838 724 Q981 629 981 416 Q981 208 831 79 Q714 -23 527 -23 Q492 -23 454 -15 L454 118 Z " />
<glyph glyph-name="registered" unicode="&#xae;" horiz-adv-x="1606" d="M488 1075 L872 1075 Q977 1075 1038 1040 Q1142 980 1142 857 Q1142 729 1024 671 Q1075 651 1100 603 Q1113 579 1117 557 Q1121 535 1131 434 Q1140 339 1160 318 L1186 291 L1035 291 Q1012 320 1008 392 Q1003 535 970 580 Q938 622 821 622 L615 622 L615 291 L488 291 L488 1075 Z M615 968 L615 723 L809 723 Q918 723 959 745 Q1014 776 1014 849 Q1014 913 973 940.5 Q932 968 838 968 L615 968 Z M812 1396 Q1004 1396 1175 1291 Q1347 1185 1437 1007 Q1515 853 1515 682 Q1515 481 1410 310 Q1306 139 1127 47 Q974 -31 803 -31 Q603 -31 432 74 Q260 178 168 358 Q90 511 90 681 Q90 884 195 1056 Q298 1225 480 1319 Q632 1396 812 1396 Z M811 1296 Q554 1296 376 1118 Q291 1032 244 918 Q198 804 198 681 Q198 510 288 362 Q377 214 529 136 Q659 69 803 69 Q1053 69 1230 249 Q1407 428 1407 683 Q1407 856 1318 1004 Q1231 1149 1078 1229 Q950 1296 811 1296 Z " />
<glyph glyph-name="copyright" unicode="&#xa9;" horiz-adv-x="1606" d="M1159 598 Q1146 443 1050 358 Q954 273 794 273 Q600 273 495 402 Q405 511 405 682 Q405 866 514.5 979 Q624 1092 803 1092 Q949 1092 1045.5 1018.5 Q1142 945 1153 826 L1026 826 Q1008 903 949.5 945 Q891 987 800 987 Q659 987 588 880 Q533 797 533 682 Q533 542 605 460 Q677 378 800 378 Q1006 378 1033 598 L1159 598 Z M812 1396 Q1004 1396 1175 1291 Q1347 1185 1437 1007 Q1515 853 1515 682 Q1515 481 1410 310 Q1306 139 1127 47 Q974 -31 803 -31 Q603 -31 432 74 Q260 178 168 358 Q90 511 90 681 Q90 884 195 1056 Q298 1225 480 1319 Q632 1396 812 1396 Z M811 1296 Q554 1296 376 1118 Q291 1032 244 918 Q198 804 198 681 Q198 510 288 362 Q377 214 529 136 Q659 69 803 69 Q1053 69 1230 249 Q1407 428 1407 683 Q1407 856 1318 1004 Q1231 1149 1078 1229 Q950 1296 811 1296 Z " />
<glyph glyph-name="trademark" unicode="&#x2122;" horiz-adv-x="1734" d="M692 1365 L692 1264 L418 1264 L418 587 L296 587 L296 1264 L20 1264 L20 1365 L692 1365 Z M1604 1365 L1604 587 L1486 587 L1487 937 Q1488 1118 1496 1229 Q1472 1164 1439 1080 L1242 587 L1139 587 L933 1075 Q910 1127 879 1214 Q886 1083 887 940 L888 587 L771 587 L771 1365 L930 1365 L1123 895 Q1171 780 1191 720 Q1212 782 1256 893 L1442 1365 L1604 1365 Z " />
<glyph glyph-name="acute" unicode="&#xb4;" horiz-adv-x="1024" d="M765 1399 L535 1126 L422 1126 L564 1399 L765 1399 Z " />
<glyph glyph-name="dieresis" unicode="&#xa8;" horiz-adv-x="1024" d="M779 1354 L779 1160 L606 1160 L606 1354 L779 1354 Z M417 1354 L417 1160 L244 1160 L244 1354 L417 1354 Z " />
<glyph glyph-name="notequal" unicode="&#x2260;" horiz-adv-x="1024" d="M552 909 L678 1162 L797 1109 L697 909 L956 909 L956 761 L635 761 L539 563 L956 563 L956 415 L482 415 L358 165 L239 217 L336 415 L68 415 L68 563 L393 563 L490 761 L69 761 L69 909 L552 909 Z " />
<glyph glyph-name="AE" unicode="&#xc6;" horiz-adv-x="1815" d="M1722 1365 L1722 1208 L1049 1208 L1049 776 L1683 776 L1683 630 L1049 630 L1049 157 L1733 157 L1733 0 L869 0 L869 401 L399 401 L201 0 L-5 0 L691 1365 L1722 1365 Z M869 547 L869 1212 L793 1212 L471 547 L869 547 Z " />
<glyph glyph-name="Oslash" unicode="&#xd8;" horiz-adv-x="1487" d="M223 221 Q90 406 90 685 Q90 1006 270 1199 Q453 1396 744 1396 Q994 1396 1166 1251 L1317 1414 L1399 1337 L1245 1167 Q1298 1095 1328 1029 Q1397 881 1397 687 Q1397 401 1257 213 Q1074 -31 743 -31 Q482 -31 299 135 L142 -37 L60 42 L223 221 Z M344 353 L1052 1126 Q931 1243 742 1243 Q538 1243 407 1098 Q272 949 272 688 Q272 496 344 353 Z M1126 1035 L413 260 Q553 122 746 122 Q938 122 1063 249 Q1215 403 1215 684 Q1215 883 1126 1035 Z " />
<glyph glyph-name="infinity" unicode="&#x221e;" horiz-adv-x="1365" d="M686 613 Q530 387 344 387 Q188 387 103 498 Q39 581 39 700 Q39 870 169 955 Q248 1007 346 1007 Q530 1007 681 781 Q724 845 761 884 Q877 1007 1024 1007 Q1182 1007 1267 892 Q1327 811 1327 696 Q1327 548 1231 463 Q1146 387 1025 387 Q835 387 686 613 Z M745 697 Q813 591 875.5 544.5 Q938 498 1011 498 Q1099 498 1154 562 Q1200 616 1200 697 Q1200 801 1128 856 Q1075 896 1010 896 Q937 896 877 851 Q817 806 745 697 Z M621 696 Q552 803 490.5 849.5 Q429 896 355 896 Q267 896 212 832 Q166 778 166 697 Q166 592 238 537 Q291 497 357 497 Q430 497 489 541.5 Q548 586 621 696 Z " />
<glyph glyph-name="plusminus" unicode="&#xb1;" horiz-adv-x="1092" d="M102 735 L482 735 L482 1113 L612 1113 L612 735 L989 735 L989 605 L612 605 L612 239 L482 239 L482 605 L102 605 L102 735 Z M102 171 L989 171 L989 41 L102 41 L102 171 Z " />
<glyph glyph-name="lessequal" unicode="&#x2264;" horiz-adv-x="1024" d="M955 1229 L955 1062 L262 795 L954 529 L955 361 L68 719 L68 871 L955 1229 Z M955 302 L955 146 L68 146 L68 302 L955 302 Z " />
<glyph glyph-name="greaterequal" unicode="&#x2265;" horiz-adv-x="1024" d="M68 361 L69 529 L761 795 L68 1062 L68 1229 L955 871 L955 719 L68 361 Z M68 146 L68 302 L955 302 L955 146 L68 146 Z " />
<glyph glyph-name="yen" unicode="&#xa5;" horiz-adv-x="1092" d="M744 789 L980 789 L980 673 L682 673 L631 569 L631 452 L939 452 L939 336 L631 336 L631 0 L467 0 L467 336 L152 336 L152 452 L467 452 L467 569 L414 673 L112 673 L112 789 L352 789 L52 1365 L239 1365 L554 722 L864 1365 L1041 1365 L744 789 Z " />
<glyph glyph-name="mu" unicode="&#xb5;" horiz-adv-x="1024" d="M100 -341 L100 983 L253 983 L253 431 Q253 329 265 284 Q287 206 354 155 Q421 104 502 104 Q638 104 710 220 Q771 320 771 449 L771 983 L924 983 L924 0 L771 0 L771 184 Q736 95 691 50 Q613 -26 500 -26 Q417 -26 358.5 9.5 Q300 45 253 123 L253 -341 L100 -341 Z " />
<glyph glyph-name="partialdiff" unicode="&#x2202;" horiz-adv-x="1024" d="M170 1236 L190 1372 Q364 1348 477 1300 Q732 1191 861 936 Q960 739 960 494 Q960 300 879 176 Q813 76 707 23 Q616 -22 514 -22 Q361 -22 239 72 Q172 124 129 197 Q64 306 64 437 Q64 578 139 698 Q203 798 306 848 Q392 890 485 890 Q544 890 603 873.5 Q662 857 698 830 Q725 810 785 741 Q772 768 718 895 Q704 928 659.5 984 Q615 1040 580 1069 Q421 1201 170 1236 Z M525 762 Q417 762 333 696 Q280 655 247.5 583 Q215 511 215 435 Q215 294 312 198 Q399 113 512 113 Q614 113 696 182 Q806 275 806 444 Q806 605 707 691 Q625 762 525 762 Z " />
<glyph glyph-name="summation" unicode="&#x2211;" horiz-adv-x="1365" d="M1228 1536 L1228 1062 L1074 1062 L1058 1379 L258 1379 L767 551 L259 -357 L1077 -357 L1086 -36 L1247 -36 L1247 -512 L70 -512 L70 -332 L567 551 L70 1359 L70 1536 L1228 1536 Z " />
<glyph glyph-name="product" unicode="&#x220f;" horiz-adv-x="1365" d="M54 1536 L1312 1536 L1312 1398 L1162 1398 L1162 -374 L1312 -374 L1312 -512 L855 -512 L855 -374 L1009 -374 L1009 1398 L358 1398 L358 -374 L509 -374 L509 -512 L54 -512 L54 -374 L206 -374 L206 1398 L54 1398 L54 1536 Z " />
<glyph glyph-name="pi" unicode="&#x3c0;" horiz-adv-x="1164" d="M195 0 L195 861 L47 861 L47 990 L1117 990 L1117 861 L970 861 L970 0 L811 0 L811 861 L354 861 L354 0 L195 0 Z " />
<glyph glyph-name="integral" unicode="&#x222b;" horiz-adv-x="1024" d="M190 -490 L224 -332 Q268 -353 305 -353 Q389 -353 412 -283 Q421 -257 422 -95 L422 1090 Q423 1258 425.5 1292.5 Q428 1327 440 1368 Q462 1445 532.5 1490.5 Q603 1536 700 1536 Q757 1536 835 1514 L800 1356 Q756 1376 719 1376 Q636 1376 612 1306 Q602 1276 602 1168 L602 -62 Q602 -241 594 -298.5 Q586 -356 554 -401 Q479 -508 286 -508 Q234 -508 190 -490 Z " />
<glyph glyph-name="ordfeminine" unicode="&#xaa;" horiz-adv-x="795" d="M702 608 L93 608 L93 676 L702 676 L702 608 Z M672 907 L672 823 Q634 811 601 811 Q532 811 516 880 Q443 804 321 804 Q236 804 186.5 846.5 Q137 889 137 962 Q137 1071 246 1113 Q285 1128 418 1143 Q471 1149 490.5 1162.5 Q510 1176 510 1207 Q510 1293 392 1293 Q326 1293 296.5 1268.5 Q267 1244 261 1185 L159 1185 Q161 1278 223 1329 Q285 1380 398 1380 Q518 1380 576 1326 Q616 1289 616 1192 Q616 1138 613 976 Q613 951 613 946 Q613 897 641 897 Q652 897 672 907 Z M511 1090 Q455 1070 396 1064 Q311 1055 277.5 1034 Q244 1013 244 970 Q244 931 271.5 908.5 Q299 886 347 886 Q444 886 494 954 Q511 976 511 1023 L511 1090 Z " />
<glyph glyph-name="ordmasculine" unicode="&#xba;" horiz-adv-x="795" d="M702 608 L93 608 L93 676 L702 676 L702 608 Z M402 1380 Q525 1380 598.5 1302 Q672 1224 672 1092 Q672 947 587 869 Q516 804 400 804 Q266 804 192 888 Q122 967 122 1092 Q122 1213 185 1288 Q262 1380 402 1380 Z M400 1293 Q320 1293 274 1239 Q228 1185 228 1091 Q228 998 274 944.5 Q320 891 400 891 Q468 891 509 931 Q566 987 566 1094 Q566 1185 521 1239 Q476 1293 400 1293 Z " />
<glyph glyph-name="Omega" unicode="&#x2126;" horiz-adv-x="1364" d="M57 0 L57 148 L423 148 Q54 364 54 746 Q54 1059 289 1256 Q459 1398 682 1398 Q906 1398 1076 1256 Q1311 1059 1311 745 Q1311 364 942 148 L1308 148 L1308 0 L773 0 L773 138 Q907 212 987 306 Q1140 488 1140 717 Q1140 972 968 1133 Q845 1249 684 1249 Q521 1249 397 1133 Q225 973 225 718 Q225 340 592 138 L592 0 L57 0 Z " />
<glyph glyph-name="ae" unicode="&#xe6;" horiz-adv-x="1685" d="M1603 311 Q1576 194 1503 110 Q1383 -29 1167 -29 Q912 -29 815 171 Q697 -29 414 -29 Q244 -29 147 57 Q62 132 62 264 Q62 413 182 493 Q259 545 464 568 Q607 584 652.5 593.5 Q698 603 715 620 Q740 645 740 711 Q740 880 514 880 Q363 880 300 797 Q270 758 263 676 L103 676 Q119 821 196 899 Q312 1017 524 1017 Q776 1017 852 867 Q951 1017 1169 1017 Q1378 1017 1495 881 Q1612 745 1612 503 Q1612 489 1611 453 L893 453 Q893 441 893 435 Q893 330 933 252 Q1007 107 1180 107 Q1379 107 1442 311 L1603 311 Z M1444 587 Q1438 697 1390 767 Q1353 820 1294 850 Q1235 880 1166 880 Q1094 880 1032 847 Q970 814 935 756 Q902 702 890 587 L1444 587 Z M737 511 Q705 486 669 477.5 Q633 469 497 452 Q345 434 287 395.5 Q229 357 229 274 Q229 191 284.5 144.5 Q340 98 441 98 Q572 98 661 173 Q737 237 737 353 L737 511 Z " />
<glyph glyph-name="oslash" unicode="&#xf8;" horiz-adv-x="1118" d="M175 158 Q79 299 79 497 Q79 714 189 853 Q321 1019 558 1019 Q744 1019 867 919 L975 1040 L1051 971 L937 845 Q1038 707 1038 495 Q1038 232 890 89 Q769 -29 566 -29 Q371 -29 244 79 L129 -49 L54 22 L175 158 Z M288 282 L764 806 Q682 882 560 882 Q426 882 342 790 Q246 685 246 500 Q246 371 288 282 Z M825 722 L347 194 Q434 108 565 108 Q690 108 767 187 Q871 293 871 497 Q871 627 825 722 Z " />
<glyph glyph-name="questiondown" unicode="&#xbf;" horiz-adv-x="1022" d="M919 46 Q912 -129 851 -224 Q795 -312 700.5 -359.5 Q606 -407 488 -407 Q298 -407 186 -300 Q82 -200 82 -38 Q82 95 153 192 Q184 235 305 352 Q359 404 379.5 438 Q400 472 409 522 Q418 572 418 653 L577 653 Q575 509 552 441 Q535 392 503.5 351 Q472 310 364 201 Q295 130 274 73 Q256 25 256 -26 Q256 -120 307 -183 Q370 -261 490 -261 Q739 -261 759 46 L919 46 Z M399 796 L399 990 L601 990 L601 796 L399 796 Z " />
<glyph glyph-name="exclamdown" unicode="&#xa1;" horiz-adv-x="583" d="M182 -375 L182 43 L228 651 L317 651 L362 43 L362 -375 L182 -375 Z M171 797 L171 990 L372 990 L372 797 L171 797 Z " />
<glyph glyph-name="logicalnot" unicode="&#xac;" horiz-adv-x="1024" d="M782 0 L782 415 L68 415 L68 571 L955 571 L955 0 L782 0 Z " />
<glyph glyph-name="radical" unicode="&#x221a;" horiz-adv-x="1365" d="M1365 1693 L1365 1551 L975 1551 L521 0 L335 0 L165 594 L0 594 L0 736 L265 736 L349 455 Q357 429 407 210 L414 177 L423 177 Q432 215 468 358 L522 569 L620 901 L851 1693 L1365 1693 Z " />
<glyph glyph-name="florin" unicode="&#x192;" horiz-adv-x="1092" d="M876 934 L855 818 L658 818 L520 12 Q496 -129 472 -194 Q448 -259 402 -305 Q360 -348 307.5 -366.5 Q255 -385 175 -385 Q132 -385 61 -379 L84 -231 Q126 -235 155 -235 Q249 -235 286.5 -190 Q324 -145 349 0 L492 818 L317 818 L338 934 L512 934 L553 1176 Q577 1316 625 1383 Q668 1444 731 1471.5 Q794 1499 891 1499 Q936 1499 1000 1493 L972 1345 Q928 1357 889 1357 Q814 1357 775 1313.5 Q736 1270 717 1165 L675 934 L876 934 Z " />
<glyph glyph-name="approxequal" unicode="&#x2248;" horiz-adv-x="1024" d="M115 713 L21 777 Q128 1013 302 1013 Q378 1013 538 934 Q625 891 658.5 879 Q692 867 726 867 Q781 867 819.5 896.5 Q858 926 909 1007 L1003 943 Q900 709 706 709 Q665 709 623 724.5 Q581 740 461 800 Q353 853 294 853 Q243 853 203.5 822 Q164 791 115 713 Z M115 352 L21 416 Q127 652 302 652 Q377 652 538 573 Q623 531 657.5 519 Q692 507 726 507 Q781 507 819 536 Q857 565 909 647 L1003 583 Q900 349 705 349 Q665 349 622.5 364.5 Q580 380 461 439 Q353 492 294 492 Q243 492 204 461.5 Q165 431 115 352 Z " />
<glyph glyph-name="increment" unicode="&#x2206;" horiz-adv-x="1279" d="M13 0 L551 1365 L726 1365 L1266 0 L13 0 Z M232 148 L1044 148 L640 1184 L232 148 Z " />
<glyph glyph-name="guillemotleft" unicode="&#xab;" horiz-adv-x="889" d="M766 823 L766 657 L574 511 L766 361 L766 199 L474 428 L474 594 L766 823 Z M394 823 L394 659 L196 513 L394 363 L394 195 L96 431 L96 594 L394 823 Z " />
<glyph glyph-name="guillemotright" unicode="&#xbb;" horiz-adv-x="889" d="M496 823 L793 586 L793 424 L496 195 L496 358 L692 504 L496 655 L496 823 Z M123 820 L414 589 L414 426 L123 198 L123 361 L314 506 L123 655 L123 820 Z " />
<glyph glyph-name="ellipsis" unicode="&#x2026;" horiz-adv-x="1532" d="M367 213 L367 0 L143 0 L143 213 L367 213 Z M878 213 L878 0 L654 0 L654 213 L878 213 Z M1388 213 L1388 0 L1164 0 L1164 213 L1388 213 Z " />
<glyph glyph-name="Agrave" unicode="&#xc0;" horiz-adv-x="1297" d="M751 1371 L1284 0 L1084 0 L931 419 L358 419 L202 0 L12 0 L548 1371 L751 1371 Z M878 565 L744 928 Q675 1112 646 1204 Q615 1112 548 935 L410 565 L878 565 Z M367 1734 L582 1734 L738 1475 L604 1475 L367 1734 Z " />
<glyph glyph-name="Atilde" unicode="&#xc3;" horiz-adv-x="1297" d="M751 1371 L1284 0 L1084 0 L931 419 L358 419 L202 0 L12 0 L548 1371 L751 1371 Z M878 565 L744 928 Q675 1112 646 1204 Q615 1112 548 935 L410 565 L878 565 Z M982 1719 Q968 1616 916.5 1559.5 Q865 1503 786 1503 Q741 1503 585 1561 Q541 1578 509 1578 Q445 1578 419 1492 L328 1492 Q340 1594 392 1649.5 Q444 1705 528 1705 Q568 1705 599.5 1696 Q631 1687 736 1644 Q764 1633 795 1633 Q865 1633 887 1719 L982 1719 Z " />
<glyph glyph-name="Otilde" unicode="&#xd5;" horiz-adv-x="1487" d="M755 1397 Q1035 1397 1217 1200 Q1397 1004 1397 686 Q1397 401 1257 214 Q1074 -31 742 -31 Q412 -31 228 216 Q90 401 90 682 Q90 1012 270 1200 Q458 1397 755 1397 Z M751 1244 Q538 1244 407 1098 Q272 950 272 686 Q272 442 385 294 Q453 205 563 159 Q649 122 746 122 Q939 122 1063 249 Q1215 404 1215 684 Q1215 937 1084 1092 Q955 1244 751 1244 Z M1084 1719 Q1070 1616 1018.5 1559.5 Q967 1503 888 1503 Q843 1503 687 1561 Q643 1578 611 1578 Q547 1578 521 1492 L430 1492 Q442 1594 494 1649.5 Q546 1705 630 1705 Q670 1705 701.5 1696 Q733 1687 838 1644 Q866 1633 897 1633 Q967 1633 989 1719 L1084 1719 Z " />
<glyph glyph-name="OE" unicode="&#x152;" horiz-adv-x="2080" d="M1985 1365 L1985 1208 L1255 1208 L1255 776 L1924 776 L1924 630 L1255 630 L1255 157 L1996 157 L1996 0 L1087 0 L1087 139 Q944 -26 713 -26 Q412 -26 238 200 Q91 391 91 679 Q91 995 267 1192 Q445 1391 724 1391 Q978 1391 1088 1246 L1088 1365 L1985 1365 Z M1075 408 L1075 962 Q1075 1030 1066 1059 Q1057 1088 1024 1125 Q924 1238 746 1238 Q514 1238 381 1058 Q273 911 273 686 Q273 434 404 276 Q527 127 731 127 Q922 127 1027 256 Q1075 314 1075 408 Z " />
<glyph glyph-name="oe" unicode="&#x153;" horiz-adv-x="1738" d="M1655 314 Q1622 154 1507 62.5 Q1392 -29 1224 -29 Q1090 -29 1004 20.5 Q918 70 872 174 Q832 77 742 24 Q652 -29 528 -29 Q313 -29 185 131 Q81 261 81 495 Q81 731 197 870 Q321 1019 535 1019 Q783 1019 879 833 Q988 1019 1224 1019 Q1449 1019 1569 860 Q1667 729 1667 490 Q1667 481 1666 453 L948 453 Q948 443 948 421 Q948 333 985 258 Q1061 107 1233 107 Q1332 107 1396 157.5 Q1460 208 1495 314 L1655 314 Z M1497 587 Q1492 693 1453 755 Q1373 882 1221 882 Q1101 882 1028 804 Q955 726 944 587 L1497 587 Z M534 882 Q404 882 332 792 Q248 686 248 493 Q248 316 320 214 Q395 108 533 108 Q675 108 740 218 Q805 328 805 508 Q805 700 727 796 Q696 835 643 858.5 Q590 882 534 882 Z " />
<glyph glyph-name="endash" unicode="&#x2013;" horiz-adv-x="1092" d="M956 591 L956 427 L137 427 L137 591 L956 591 Z " />
<glyph glyph-name="emdash" unicode="&#x2014;" horiz-adv-x="1387" d="M1387 591 L1387 427 L0 427 L0 591 L1387 591 Z " />
<glyph glyph-name="quotedblleft" unicode="&#x201c;" horiz-adv-x="848" d="M146 908 L146 1064 Q146 1192 196 1269 Q255 1359 354 1384 L354 1293 Q250 1249 249 1105 L354 1105 L354 908 L146 908 Z M496 908 L496 1069 Q496 1201 553 1281 Q609 1360 702 1386 L702 1293 Q597 1245 598 1105 L702 1105 L702 908 L496 908 Z " />
<glyph glyph-name="quotedblright" unicode="&#x201d;" horiz-adv-x="848" d="M702 1365 L702 1209 Q702 1081 653 1004 Q594 914 496 888 L496 980 Q599 1024 600 1168 L496 1168 L496 1365 L702 1365 Z M354 1365 L354 1204 Q354 1072 296 992 Q240 913 146 886 L146 980 Q252 1028 252 1168 L146 1168 L146 1365 L354 1365 Z " />
<glyph glyph-name="quoteleft" unicode="&#x2018;" horiz-adv-x="511" d="M146 897 L146 1047 Q146 1139 162 1195 Q178 1251 217 1299 Q270 1363 364 1386 L364 1291 Q258 1256 253 1103 L364 1103 L364 897 L146 897 Z " />
<glyph glyph-name="quoteright" unicode="&#x2019;" horiz-adv-x="511" d="M364 1365 L364 1215 Q364 1123 348.5 1067.5 Q333 1012 293 963 Q240 899 146 877 L146 971 Q252 1006 256 1159 L146 1159 L146 1365 L364 1365 Z " />
<glyph glyph-name="divide" unicode="&#xf7;" horiz-adv-x="1092" d="M547 1102 Q592 1102 624.5 1069 Q657 1036 657 991 Q657 944 624.5 911.5 Q592 879 545 879 Q499 879 466.5 912 Q434 945 434 991 Q434 1037 467 1069.5 Q500 1102 547 1102 Z M548 460 Q593 460 625.5 427 Q658 394 658 348 Q658 302 625.5 269 Q593 236 546 236 Q499 236 466.5 269 Q434 302 434 349 Q434 395 467 427.5 Q500 460 548 460 Z M102 735 L989 735 L989 605 L102 605 L102 735 Z " />
<glyph glyph-name="lozenge" unicode="&#x25ca;" horiz-adv-x="1365" d="M683 1419 L1214 683 L683 -53 L151 683 L683 1419 Z M683 1238 L279 683 L683 129 L1086 683 L683 1238 Z " />
<glyph glyph-name="ydieresis" unicode="&#xff;" horiz-adv-x="928" d="M927 990 L563 32 Q465 -224 427 -286 Q357 -398 215 -398 Q165 -398 120 -388 L95 -382 L95 -236 Q164 -257 200 -257 Q260 -257 293 -212 Q326 -167 392 6 L1 990 L184 990 L401 410 Q423 350 476 181 Q523 331 556 425 L755 990 L927 990 Z M732 1354 L732 1160 L559 1160 L559 1354 L732 1354 Z M370 1354 L370 1160 L197 1160 L197 1354 L370 1354 Z " />
<glyph glyph-name="Ydieresis" unicode="&#x178;" horiz-adv-x="1198" d="M1218 1365 L692 559 L692 0 L512 0 L512 559 L-20 1365 L197 1365 L519 855 Q577 763 608 707 Q640 768 692 851 L1012 1365 L1218 1365 Z M904 1697 L904 1509 L727 1509 L727 1697 L904 1697 Z M483 1697 L483 1509 L306 1509 L306 1697 L483 1697 Z " />
<glyph glyph-name="fraction" unicode="&#x2044;" horiz-adv-x="311" d="M604 1349 L-172 0 L-287 0 L494 1349 L604 1349 Z " />
<glyph glyph-name="Euro" unicode="&#x20ac;" horiz-adv-x="1120" d="M152 620 L152 627 Q152 683 154 733 L154 740 L3 740 L52 858 L168 858 Q183 952 214 1037 Q338 1387 667 1387 Q900 1387 1089 1235 L1023 1082 Q939 1140 893 1167 Q782 1232 665 1232 Q407 1232 340 858 L926 858 L875 740 L324 740 Q322 695 322 666 Q322 634 322 620 L824 620 L773 502 L336 502 Q402 131 670 131 Q750 131 811 153.5 Q872 176 1023 261 L1023 72 Q979 47 971 43 Q834 -28 658 -28 Q316 -28 199 340 Q175 416 163 502 L2 502 L52 620 L152 620 Z " />
<glyph glyph-name="guilsinglleft" unicode="&#x2039;" horiz-adv-x="509" d="M387 821 L387 655 L194 507 L387 362 L387 198 L96 422 L96 590 L387 821 Z " />
<glyph glyph-name="guilsinglright" unicode="&#x203a;" horiz-adv-x="509" d="M123 821 L414 590 L414 422 L123 198 L123 362 L316 507 L123 655 L123 821 Z " />
<glyph glyph-name="fi" unicode="&#xfb01;" horiz-adv-x="1023" d="M556 1370 L556 1230 Q506 1241 463 1241 Q389 1241 364.5 1214 Q340 1187 340 1104 L340 990 L530 990 L530 856 L340 856 L340 0 L178 0 L178 856 L11 856 L11 990 L178 990 L178 1055 Q178 1158 185.5 1201 Q193 1244 217 1279 Q284 1377 442 1377 Q488 1377 556 1370 Z M879 1365 L879 1166 L717 1166 L717 1365 L879 1365 Z M879 990 L879 0 L717 0 L717 990 L879 990 Z " />
<glyph glyph-name="fl" unicode="&#xfb02;" horiz-adv-x="1023" d="M556 1370 L556 1230 Q506 1241 463 1241 Q389 1241 364.5 1214 Q340 1187 340 1104 L340 990 L530 990 L530 856 L340 856 L340 0 L178 0 L178 856 L11 856 L11 990 L178 990 L178 1055 Q178 1158 185.5 1201 Q193 1244 217 1279 Q284 1377 442 1377 Q488 1377 556 1370 Z M879 1365 L879 0 L717 0 L717 1365 L879 1365 Z " />
<glyph glyph-name="daggerdbl" unicode="&#x2021;" horiz-adv-x="1092" d="M997 969 L997 827 L619 827 L619 177 L997 177 L997 35 L619 35 L619 -385 L463 -385 L463 35 L92 35 L92 177 L463 177 L463 827 L92 827 L92 969 L463 969 L463 1365 L619 1365 L619 969 L997 969 Z " />
<glyph glyph-name="periodcentered" unicode="&#xb7;" horiz-adv-x="511" d="M367 616 L367 403 L143 403 L143 616 L367 616 Z " />
<glyph glyph-name="quotesinglbase" unicode="&#x201a;" horiz-adv-x="511" d="M364 206 L364 56 Q364 -36 348 -92 Q332 -148 293 -196 Q240 -260 146 -283 L146 -188 Q252 -153 256 0 L146 0 L146 206 L364 206 Z " />
<glyph glyph-name="quotedblbase" unicode="&#x201e;" horiz-adv-x="848" d="M702 197 L702 41 Q702 -88 653 -164 Q594 -255 496 -280 L496 -188 Q599 -144 600 0 L496 0 L496 197 L702 197 Z M354 197 L354 36 Q354 -96 296 -176 Q240 -255 146 -282 L146 -188 Q252 -140 252 0 L146 0 L146 197 L354 197 Z " />
<glyph glyph-name="perthousand" unicode="&#x2030;" horiz-adv-x="2134" d="M1227 1402 L324 -67 L204 -67 L1113 1402 L1227 1402 Z M1091 628 Q1223 628 1295 546.5 Q1367 465 1367 314 Q1367 -20 1089 -20 Q807 -20 807 300 Q807 628 1091 628 Z M1088 524 Q946 524 946 297 Q946 188 980.5 136 Q1015 84 1088 84 Q1225 84 1225 308 Q1225 420 1192 467 Q1153 524 1088 524 Z M1774 629 Q1910 629 1982.5 547.5 Q2055 466 2055 312 Q2055 150 1982.5 64 Q1910 -22 1774 -22 Q1492 -22 1492 299 Q1492 476 1575 556 Q1651 629 1774 629 Z M1775 525 Q1631 525 1631 296 Q1631 83 1775 83 Q1912 83 1912 305 Q1912 525 1775 525 Z M364 1361 Q498 1361 570 1278 Q642 1195 642 1040 Q642 881 567.5 794.5 Q493 708 357 708 Q221 708 152 788 Q79 874 79 1033 Q79 1193 151.5 1277 Q224 1361 364 1361 Z M361 1256 Q220 1256 220 1027 Q220 814 360 814 Q499 814 499 1032 Q499 1256 361 1256 Z " />
<glyph glyph-name="Acircumflex" unicode="&#xc2;" horiz-adv-x="1297" d="M751 1371 L1284 0 L1084 0 L931 419 L358 419 L202 0 L12 0 L548 1371 L751 1371 Z M878 565 L744 928 Q675 1112 646 1204 Q615 1112 548 935 L410 565 L878 565 Z M963 1477 L778 1477 L656 1643 L528 1477 L361 1477 L558 1731 L762 1731 L963 1477 Z " />
<glyph glyph-name="Ecircumflex" unicode="&#xca;" horiz-adv-x="1196" d="M1103 1365 L1103 1208 L337 1208 L337 776 L1053 776 L1053 630 L337 630 L337 157 L1113 157 L1113 0 L157 0 L157 1365 L1103 1365 Z M933 1477 L748 1477 L627 1643 L498 1477 L331 1477 L529 1731 L732 1731 L933 1477 Z " />
<glyph glyph-name="Aacute" unicode="&#xc1;" horiz-adv-x="1297" d="M751 1371 L1284 0 L1084 0 L931 419 L358 419 L202 0 L12 0 L548 1371 L751 1371 Z M878 565 L744 928 Q675 1112 646 1204 Q615 1112 548 935 L410 565 L878 565 Z M929 1734 L692 1475 L559 1475 L714 1734 L929 1734 Z " />
<glyph glyph-name="Edieresis" unicode="&#xcb;" horiz-adv-x="1196" d="M1103 1365 L1103 1208 L337 1208 L337 776 L1053 776 L1053 630 L337 630 L337 157 L1113 157 L1113 0 L157 0 L157 1365 L1103 1365 Z M931 1697 L931 1509 L754 1509 L754 1697 L931 1697 Z M510 1697 L510 1509 L333 1509 L333 1697 L510 1697 Z " />
<glyph glyph-name="Egrave" unicode="&#xc8;" horiz-adv-x="1196" d="M1103 1365 L1103 1208 L337 1208 L337 776 L1053 776 L1053 630 L337 630 L337 157 L1113 157 L1113 0 L157 0 L157 1365 L1103 1365 Z M399 1734 L614 1734 L769 1475 L636 1475 L399 1734 Z " />
<glyph glyph-name="Iacute" unicode="&#xcd;" horiz-adv-x="494" d="M337 1365 L337 0 L157 0 L157 1365 L337 1365 Z M528 1734 L291 1475 L158 1475 L313 1734 L528 1734 Z " />
<glyph glyph-name="Icircumflex" unicode="&#xce;" horiz-adv-x="494" d="M337 1365 L337 0 L157 0 L157 1365 L337 1365 Z M535 1477 L350 1477 L242 1643 L127 1477 L-40 1477 L144 1731 L347 1731 L535 1477 Z " />
<glyph glyph-name="Idieresis" unicode="&#xcf;" horiz-adv-x="494" d="M337 1365 L337 0 L157 0 L157 1365 L337 1365 Z M485 1697 L485 1509 L308 1509 L308 1697 L485 1697 Z M187 1697 L187 1509 L10 1509 L10 1697 L187 1697 Z " />
<glyph glyph-name="Igrave" unicode="&#xcc;" horiz-adv-x="494" d="M337 1365 L337 0 L157 0 L157 1365 L337 1365 Z M-34 1734 L181 1734 L336 1475 L203 1475 L-34 1734 Z " />
<glyph glyph-name="Oacute" unicode="&#xd3;" horiz-adv-x="1487" d="M755 1397 Q1035 1397 1217 1200 Q1397 1004 1397 686 Q1397 401 1257 214 Q1074 -31 742 -31 Q412 -31 228 216 Q90 401 90 682 Q90 1012 270 1200 Q458 1397 755 1397 Z M751 1244 Q538 1244 407 1098 Q272 950 272 686 Q272 442 385 294 Q453 205 563 159 Q649 122 746 122 Q939 122 1063 249 Q1215 404 1215 684 Q1215 937 1084 1092 Q955 1244 751 1244 Z M1010 1734 L773 1475 L640 1475 L796 1734 L1010 1734 Z " />
<glyph glyph-name="Ocircumflex" unicode="&#xd4;" horiz-adv-x="1487" d="M755 1397 Q1035 1397 1217 1200 Q1397 1004 1397 686 Q1397 401 1257 214 Q1074 -31 742 -31 Q412 -31 228 216 Q90 401 90 682 Q90 1012 270 1200 Q458 1397 755 1397 Z M751 1244 Q538 1244 407 1098 Q272 950 272 686 Q272 442 385 294 Q453 205 563 159 Q649 122 746 122 Q939 122 1063 249 Q1215 404 1215 684 Q1215 937 1084 1092 Q955 1244 751 1244 Z M1045 1477 L859 1477 L738 1643 L609 1477 L442 1477 L640 1731 L843 1731 L1045 1477 Z " />
<glyph glyph-name="Ograve" unicode="&#xd2;" horiz-adv-x="1487" d="M755 1397 Q1035 1397 1217 1200 Q1397 1004 1397 686 Q1397 401 1257 214 Q1074 -31 742 -31 Q412 -31 228 216 Q90 401 90 682 Q90 1012 270 1200 Q458 1397 755 1397 Z M751 1244 Q538 1244 407 1098 Q272 950 272 686 Q272 442 385 294 Q453 205 563 159 Q649 122 746 122 Q939 122 1063 249 Q1215 404 1215 684 Q1215 937 1084 1092 Q955 1244 751 1244 Z M504 1734 L718 1734 L874 1475 L740 1475 L504 1734 Z " />
<glyph glyph-name="Uacute" unicode="&#xda;" horiz-adv-x="1373" d="M1236 1365 L1236 569 Q1236 386 1214 308 Q1118 -31 691 -31 Q463 -31 335 57 Q192 154 155 333 Q137 416 137 572 L137 1365 L317 1365 L317 566 Q317 436 326.5 378.5 Q336 321 367 267 Q449 122 694 122 Q928 122 1005 257 Q1035 308 1045.5 373 Q1056 438 1056 567 L1056 1365 L1236 1365 Z M967 1734 L730 1475 L597 1475 L752 1734 L967 1734 Z " />
<glyph glyph-name="Ucircumflex" unicode="&#xdb;" horiz-adv-x="1373" d="M1236 1365 L1236 569 Q1236 386 1214 308 Q1118 -31 691 -31 Q463 -31 335 57 Q192 154 155 333 Q137 416 137 572 L137 1365 L317 1365 L317 566 Q317 436 326.5 378.5 Q336 321 367 267 Q449 122 694 122 Q928 122 1005 257 Q1035 308 1045.5 373 Q1056 438 1056 567 L1056 1365 L1236 1365 Z M988 1477 L803 1477 L681 1643 L553 1477 L385 1477 L583 1731 L787 1731 L988 1477 Z " />
<glyph glyph-name="Ugrave" unicode="&#xd9;" horiz-adv-x="1373" d="M1236 1365 L1236 569 Q1236 386 1214 308 Q1118 -31 691 -31 Q463 -31 335 57 Q192 154 155 333 Q137 416 137 572 L137 1365 L317 1365 L317 566 Q317 436 326.5 378.5 Q336 321 367 267 Q449 122 694 122 Q928 122 1005 257 Q1035 308 1045.5 373 Q1056 438 1056 567 L1056 1365 L1236 1365 Z M433 1734 L648 1734 L803 1475 L670 1475 L433 1734 Z " />
<glyph glyph-name="dotlessi" unicode="&#x131;" horiz-adv-x="450" d="M306 990 L306 0 L144 0 L144 990 L306 990 Z " />
<glyph glyph-name="circumflex" unicode="&#x2c6;" horiz-adv-x="1024" d="M800 1133 L635 1133 L507 1315 L372 1133 L225 1133 L423 1406 L599 1406 L800 1133 Z " />
<glyph glyph-name="tilde" unicode="&#x2dc;" horiz-adv-x="1024" d="M809 1387 Q796 1285 749.5 1229 Q703 1173 631 1173 Q589 1173 513 1204 Q409 1247 380 1247 Q322 1247 300 1162 L214 1162 Q225 1264 272.5 1319 Q320 1374 396 1374 Q432 1374 461 1364.5 Q490 1355 586 1312 Q611 1301 639 1301 Q700 1301 720 1387 L809 1387 Z " />
<glyph glyph-name="overscore" unicode="&#xaf;" horiz-adv-x="1024" d="M800 1307 L800 1195 L224 1195 L224 1307 L800 1307 Z " />
<glyph glyph-name="breve" unicode="&#x2d8;" horiz-adv-x="1024" d="M783 1405 Q772 1294 740 1243 Q671 1133 504 1133 Q327 1133 267 1263 Q244 1316 240 1405 L332 1405 Q341 1340 367 1309 Q411 1255 515 1255 Q596 1255 635.5 1288.5 Q675 1322 692 1405 L783 1405 Z " />
<glyph glyph-name="dotaccent" unicode="&#x2d9;" horiz-adv-x="1024" d="M600 1354 L600 1160 L425 1160 L425 1354 L600 1354 Z " />
<glyph glyph-name="ring" unicode="&#x2da;" horiz-adv-x="1024" d="M514 1506 Q603 1506 665 1437 Q718 1378 718 1299 Q718 1207 649 1145 Q591 1092 511 1092 Q419 1092 357 1161 Q304 1219 304 1301 Q304 1390 372 1453 Q431 1506 514 1506 Z M510 1419 Q459 1419 424 1384.5 Q389 1350 389 1300 Q389 1249 423.5 1214 Q458 1179 508 1179 Q558 1179 594 1214.5 Q630 1250 630 1299 Q630 1347 594.5 1383 Q559 1419 510 1419 Z " />
<glyph glyph-name="cedilla" unicode="&#xb8;" horiz-adv-x="1024" d="M548 0 L463 -116 Q500 -106 528 -106 Q598 -106 642 -140 Q693 -180 693 -245 Q693 -321 628 -368 Q563 -415 457 -415 Q373 -415 278 -375 L313 -306 Q380 -332 443 -332 Q489 -332 518 -310.5 Q547 -289 547 -255 Q547 -223 520 -201.5 Q493 -180 453 -180 Q425 -180 379 -195 L347 -161 L469 0 L548 0 Z " />
<glyph glyph-name="hungarumlaut" unicode="&#x2dd;" horiz-adv-x="1024" d="M849 1399 L687 1126 L585 1126 L675 1399 L849 1399 Z M576 1399 L414 1126 L312 1126 L402 1399 L576 1399 Z " />
<glyph glyph-name="ogonek" unicode="&#x2db;" horiz-adv-x="1024" d="M580 0 L683 0 Q569 -84 569 -165 Q569 -209 606.5 -237 Q644 -265 704 -265 Q736 -265 786 -250 L787 -339 Q722 -359 669 -359 Q566 -359 506 -308 Q452 -261 452 -191 Q452 -94 580 0 Z " />
<glyph glyph-name="caron" unicode="&#x2c7;" horiz-adv-x="1024" d="M800 1406 L602 1133 L425 1133 L223 1406 L387 1406 L518 1223 L653 1406 L800 1406 Z " />
<glyph glyph-name="nbspace" unicode="&#xa0;" horiz-adv-x="512" d="" />
<glyph glyph-name="currency" unicode="&#xa4;" horiz-adv-x="1365" d="M171 290 L284 402 Q227 483 203.5 550.5 Q180 618 180 706 Q180 799 204 868.5 Q228 938 286 1013 L170 1128 L257 1217 L374 1101 Q517 1212 686 1212 Q771 1212 842 1187.5 Q913 1163 990 1106 L1104 1217 L1190 1128 L1077 1018 Q1137 941 1159 880 Q1189 797 1189 707 Q1189 616 1165 547.5 Q1141 479 1082 402 L1195 290 L1109 202 L996 314 Q922 256 861 234 Q773 202 683 202 Q594 202 522 228 Q450 254 372 314 L257 202 L171 290 Z M693 1073 Q524 1073 414 952 Q319 847 319 709 Q319 543 441 433 Q545 339 687 339 Q850 339 960 460 Q1054 565 1054 706 Q1054 867 932 979 Q829 1073 693 1073 Z " />
<glyph glyph-name="brokenbar" unicode="&#xa6;" horiz-adv-x="1024" d="M423 1365 L601 1365 L601 677 L423 677 L423 1365 Z M423 314 L601 314 L601 -341 L423 -341 L423 314 Z " />
<glyph glyph-name="uni00AD" unicode="&#xad;" horiz-adv-x="464" d="M464 591 L464 427 L0 427 L0 591 L464 591 Z " />
<glyph glyph-name="twosuperior" unicode="&#xb2;" horiz-adv-x="722" d="M649 646 L649 546 L76 546 Q80 665 133.5 737.5 Q187 810 334 896 Q453 967 487 1003 Q534 1055 534 1121 Q534 1186 490 1227 Q446 1268 377 1268 Q224 1268 216 1065 L100 1065 Q99 1084 99 1091 Q99 1215 176.5 1290.5 Q254 1366 382 1366 Q498 1366 572 1308 Q656 1242 656 1124 Q656 1029 600.5 964.5 Q545 900 391 814 Q291 759 257 728.5 Q223 698 201 646 L649 646 Z " />
<glyph glyph-name="threesuperior" unicode="&#xb3;" horiz-adv-x="722" d="M81 1091 Q84 1224 156 1294.5 Q228 1365 360 1365 Q476 1365 547 1305.5 Q618 1246 618 1149 Q618 1044 514 984 Q656 933 656 791 Q656 674 573 602 Q490 530 354 530 Q197 530 117 627 Q62 695 62 790 Q62 799 62 811 L177 811 Q184 628 356 628 Q434 628 484 670.5 Q534 713 534 780 Q534 851 485 889.5 Q436 928 347 928 Q318 928 289 924 L289 1020 Q314 1018 332 1018 Q409 1018 453 1051.5 Q497 1085 497 1144 Q497 1200 458 1233.5 Q419 1267 355 1267 Q199 1267 195 1091 L81 1091 Z " />
<glyph glyph-name="onesuperior" unicode="&#xb9;" horiz-adv-x="723" d="M488 1365 L488 546 L361 546 L361 1130 L305 1130 L245 1130 L179 1130 L145 1130 L145 1216 Q261 1216 315 1248.5 Q369 1281 395 1365 L488 1365 Z " />
<glyph glyph-name="onequarter" unicode="&#xbc;" horiz-adv-x="1757" d="M488 1365 L488 546 L361 546 L361 1130 L305 1130 L245 1130 L179 1130 L145 1130 L145 1216 Q261 1216 315 1248.5 Q369 1281 395 1365 L488 1365 Z M1328 1349 L551 0 L436 0 L1217 1349 L1328 1349 Z M1692 291 L1692 195 L1576 195 L1576 0 L1465 0 L1465 195 L1090 195 L1090 295 L1482 819 L1576 819 L1576 291 L1692 291 Z M1465 291 L1465 512 Q1465 597 1466 655 Q1392 547 1383 535 L1272 388 Q1260 373 1195 291 L1229 291 L1281 291 L1465 291 Z " />
<glyph glyph-name="onehalf" unicode="&#xbd;" horiz-adv-x="1756" d="M488 1365 L488 546 L361 546 L361 1130 L305 1130 L245 1130 L179 1130 L145 1130 L145 1216 Q261 1216 315 1248.5 Q369 1281 395 1365 L488 1365 Z M1328 1349 L551 0 L436 0 L1217 1349 L1328 1349 Z M1683 100 L1683 0 L1110 0 Q1115 120 1168.5 192.5 Q1222 265 1368 351 Q1489 421 1528.5 466 Q1568 511 1568 575 Q1568 640 1524 681 Q1480 722 1411 722 Q1258 722 1250 519 L1134 519 Q1133 537 1133 545 Q1133 669 1210.5 744 Q1288 819 1417 819 Q1532 819 1606 761 Q1690 695 1690 577 Q1690 483 1635 418.5 Q1580 354 1425 268 Q1325 213 1291 182.5 Q1257 152 1235 100 L1683 100 Z " />
<glyph glyph-name="threequarters" unicode="&#xbe;" horiz-adv-x="1756" d="M81 1091 Q84 1224 156 1294.5 Q228 1365 360 1365 Q476 1365 547 1305.5 Q618 1246 618 1149 Q618 1044 514 984 Q656 933 656 791 Q656 674 573 602 Q490 530 354 530 Q197 530 117 627 Q62 695 62 790 Q62 799 62 811 L177 811 Q184 628 356 628 Q434 628 484 670.5 Q534 713 534 780 Q534 851 485 889.5 Q436 928 347 928 Q318 928 289 924 L289 1020 Q314 1018 332 1018 Q409 1018 453 1051.5 Q497 1085 497 1144 Q497 1200 458 1233.5 Q419 1267 355 1267 Q199 1267 195 1091 L81 1091 Z M1327 1349 L551 0 L436 0 L1217 1349 L1327 1349 Z M1692 291 L1692 195 L1576 195 L1576 0 L1465 0 L1465 195 L1090 195 L1090 295 L1482 819 L1576 819 L1576 291 L1692 291 Z M1465 291 L1465 512 Q1465 597 1466 655 Q1392 547 1383 535 L1272 388 Q1260 373 1195 291 L1229 291 L1281 291 L1465 291 Z " />
<glyph glyph-name="Eth" unicode="&#xd0;" horiz-adv-x="1372" d="M158 1365 L648 1365 Q802 1365 902 1334.5 Q1002 1304 1083 1232 Q1283 1053 1283 710 Q1283 347 1091 151 Q1006 66 914.5 33 Q823 0 668 0 L158 0 L158 641 L21 641 L21 778 L158 778 L158 1365 Z M338 1209 L338 778 L693 778 L693 641 L338 641 L338 157 L633 157 Q772 157 844.5 180 Q917 203 972 264 Q1101 408 1101 702 Q1101 953 987.5 1081 Q874 1209 652 1209 L338 1209 Z " />
<glyph glyph-name="multiply" unicode="&#xd7;" horiz-adv-x="1092" d="M162 377 L454 669 L162 961 L254 1053 L546 761 L838 1053 L930 961 L638 669 L929 377 L838 285 L546 577 L254 285 L162 377 Z " />
<glyph glyph-name="Yacute" unicode="&#xdd;" horiz-adv-x="1198" d="M1218 1365 L692 559 L692 0 L512 0 L512 559 L-20 1365 L197 1365 L519 855 Q577 763 608 707 Q640 768 692 851 L1012 1365 L1218 1365 Z M880 1734 L643 1475 L509 1475 L665 1734 L880 1734 Z " />
<glyph glyph-name="Thorn" unicode="&#xde;" horiz-adv-x="1242" d="M157 1365 L337 1365 L337 1162 L700 1162 Q819 1162 889 1146 Q959 1130 1017 1089 Q1174 981 1174 767 Q1174 533 1015 426 Q955 385 890 370.5 Q825 356 707 356 L337 356 L337 0 L157 0 L157 1365 Z M337 1006 L337 501 L685 501 Q833 501 900 550 Q992 618 992 756 Q992 902 885 966 Q847 989 798.5 997.5 Q750 1006 659 1006 L337 1006 Z " />
<glyph glyph-name="eth" unicode="&#xf0;" horiz-adv-x="1118" d="M397 1176 L551 1242 L469 1375 L582 1423 L667 1291 L837 1365 L883 1270 L725 1202 L889 938 Q975 798 1003 716 Q1039 610 1039 493 Q1039 259 913 118 Q782 -29 562 -29 Q322 -29 193 136 Q81 277 81 493 Q81 742 225 887 Q353 1017 541 1017 Q602 1017 689 995 L603 1150 L442 1084 L397 1176 Z M567 882 Q429 882 344 790 Q248 685 248 494 Q248 304 341 201 Q425 108 566 108 Q692 108 769 187 Q874 293 874 498 Q874 685 783 788 Q699 882 567 882 Z " />
<glyph glyph-name="yacute" unicode="&#xfd;" horiz-adv-x="928" d="M927 990 L563 32 Q465 -224 427 -286 Q357 -398 215 -398 Q165 -398 120 -388 L95 -382 L95 -236 Q164 -257 200 -257 Q260 -257 293 -212 Q326 -167 392 6 L1 990 L184 990 L401 410 Q423 350 476 181 Q523 331 556 425 L755 990 L927 990 Z M724 1399 L494 1126 L381 1126 L523 1399 L724 1399 Z " />
<glyph glyph-name="thorn" unicode="&#xfe;" horiz-adv-x="1160" d="M306 1365 L306 853 Q415 1020 626 1020 Q818 1020 941 892 Q1080 747 1080 491 Q1080 258 957 116 Q833 -25 636 -25 Q418 -25 306 138 L306 -382 L144 -382 L144 1365 L306 1365 Z M610 883 Q470 883 385 785 Q299 685 299 498 Q299 303 393 202 Q478 112 610 112 Q746 112 825 208 Q913 315 913 491 Q913 676 822 787 Q742 883 610 883 Z " />
<glyph glyph-name="Amacron" unicode="&#x100;" horiz-adv-x="1297" d="M751 1371 L1284 0 L1084 0 L931 419 L358 419 L202 0 L12 0 L548 1371 L751 1371 Z M878 565 L744 928 Q675 1112 646 1204 Q615 1112 548 935 L410 565 L878 565 Z M970 1651 L970 1534 L326 1534 L326 1651 L970 1651 Z " />
<glyph glyph-name="amacron" unicode="&#x101;" horiz-adv-x="1036" d="M993 131 L993 4 Q936 -16 879 -16 Q812 -16 775 22 Q738 60 736 131 Q597 -29 378 -29 Q239 -29 157 39 Q62 117 62 253 Q62 448 248 523 Q295 542 338.5 550 Q382 558 552 578 Q652 591 689 619 Q726 647 726 710 Q726 883 503 883 Q386 883 328.5 835 Q271 787 260 680 L101 680 Q105 840 214 929.5 Q323 1019 515 1019 Q723 1019 825 922 Q862 886 877 833.5 Q892 781 892 688 Q892 577 886 281 Q885 226 885 221 Q885 166 899.5 143.5 Q914 121 949 121 Q969 121 993 131 Z M729 514 Q695 489 656 478.5 Q617 468 510 454 Q367 436 312 408 Q229 365 229 267 Q229 189 281.5 143.5 Q334 98 425 98 Q508 98 581 133.5 Q654 169 697 231 Q729 275 729 366 L729 514 Z M793 1307 L793 1195 L217 1195 L217 1307 L793 1307 Z " />
<glyph glyph-name="Abreve" unicode="&#x102;" horiz-adv-x="1297" d="M751 1371 L1284 0 L1084 0 L931 419 L358 419 L202 0 L12 0 L548 1371 L751 1371 Z M878 565 L744 928 Q675 1112 646 1204 Q615 1112 548 935 L410 565 L878 565 Z M946 1748 Q936 1650 890 1588 Q810 1478 644 1478 Q477 1478 398 1591 Q354 1655 351 1748 L446 1748 Q483 1609 653 1609 Q735 1609 781.5 1641.5 Q828 1674 850 1748 L946 1748 Z " />
<glyph glyph-name="abreve" unicode="&#x103;" horiz-adv-x="1036" d="M993 131 L993 4 Q936 -16 879 -16 Q812 -16 775 22 Q738 60 736 131 Q597 -29 378 -29 Q239 -29 157 39 Q62 117 62 253 Q62 448 248 523 Q295 542 338.5 550 Q382 558 552 578 Q652 591 689 619 Q726 647 726 710 Q726 883 503 883 Q386 883 328.5 835 Q271 787 260 680 L101 680 Q105 840 214 929.5 Q323 1019 515 1019 Q723 1019 825 922 Q862 886 877 833.5 Q892 781 892 688 Q892 577 886 281 Q885 226 885 221 Q885 166 899.5 143.5 Q914 121 949 121 Q969 121 993 131 Z M729 514 Q695 489 656 478.5 Q617 468 510 454 Q367 436 312 408 Q229 365 229 267 Q229 189 281.5 143.5 Q334 98 425 98 Q508 98 581 133.5 Q654 169 697 231 Q729 275 729 366 L729 514 Z M776 1405 Q765 1294 732 1243 Q664 1133 497 1133 Q320 1133 260 1263 Q236 1316 233 1405 L325 1405 Q334 1340 360 1309 Q404 1255 508 1255 Q589 1255 628.5 1288.5 Q668 1322 685 1405 L776 1405 Z " />
<glyph glyph-name="Aogonek" unicode="&#x104;" horiz-adv-x="1297" d="M1284 0 Q1171 -85 1171 -165 Q1171 -209 1208.5 -237 Q1246 -265 1305 -265 Q1337 -265 1387 -250 L1388 -339 Q1324 -359 1271 -359 Q1168 -359 1108 -308 Q1054 -261 1054 -191 Q1054 -94 1181 0 L1084 0 L931 419 L358 419 L202 0 L12 0 L548 1371 L751 1371 L1284 0 Z M878 565 L744 928 Q675 1112 646 1204 Q615 1112 548 935 L410 565 L878 565 Z " />
<glyph glyph-name="aogonek" unicode="&#x105;" horiz-adv-x="1036" d="M926 -16 Q834 -89 834 -166 Q834 -209 871.5 -237 Q909 -265 969 -265 Q1001 -265 1051 -250 L1051 -339 Q987 -359 934 -359 Q831 -359 771 -308 Q717 -262 717 -195 Q717 -80 841 -7 Q793 -3 765.5 33.5 Q738 70 736 131 Q597 -29 378 -29 Q239 -29 157 39 Q62 117 62 253 Q62 448 248 523 Q295 542 338.5 550 Q382 558 552 578 Q652 591 689 619 Q726 647 726 710 Q726 883 503 883 Q386 883 328.5 835 Q271 787 260 680 L101 680 Q105 840 214 929.5 Q323 1019 515 1019 Q723 1019 825 921 Q862 886 877 833.5 Q892 781 892 688 Q892 576 886 280 Q885 225 885 220 Q885 165 899.5 142.5 Q914 120 949 120 Q969 120 993 131 L993 4 L926 -16 Z M729 514 Q695 489 656 478.5 Q617 468 510 454 Q367 436 312 408 Q229 365 229 267 Q229 189 281.5 143.5 Q334 98 425 98 Q508 98 581 133.5 Q654 169 697 231 Q729 275 729 366 L729 514 Z " />
<glyph glyph-name="Cacute" unicode="&#x106;" horiz-adv-x="1383" d="M1314 515 Q1297 307 1182 167 Q1021 -31 723 -31 Q407 -31 236 193 Q90 382 90 681 Q90 1001 277 1206 Q449 1396 737 1396 Q1018 1396 1179 1222 Q1289 1103 1303 956 L1121 956 Q1091 1090 988 1166.5 Q885 1243 733 1243 Q489 1243 366 1044 Q272 893 272 683 Q272 459 369 310 Q492 122 732 122 Q906 122 1009 223 Q1112 324 1135 515 L1314 515 Z M973 1734 L736 1475 L602 1475 L758 1734 L973 1734 Z " />
<glyph glyph-name="cacute" unicode="&#x107;" horiz-adv-x="1041" d="M983 360 Q958 176 844 73.5 Q730 -29 551 -29 Q310 -29 183 139 Q81 275 81 481 Q81 749 227 892 Q357 1019 556 1019 Q738 1019 847.5 928 Q957 837 977 668 L808 668 Q792 752 747 803 Q677 883 556 883 Q394 883 313 752 Q248 647 248 494 Q248 332 314 231 Q394 107 546 107 Q657 107 728 173 Q799 239 817 360 L983 360 Z M801 1399 L571 1126 L458 1126 L600 1399 L801 1399 Z " />
<glyph glyph-name="Ccircumflex" unicode="&#x108;" horiz-adv-x="1383" d="M1314 515 Q1297 307 1182 167 Q1021 -31 723 -31 Q407 -31 236 193 Q90 382 90 681 Q90 1001 277 1206 Q449 1396 737 1396 Q1018 1396 1179 1222 Q1289 1103 1303 956 L1121 956 Q1091 1090 988 1166.5 Q885 1243 733 1243 Q489 1243 366 1044 Q272 893 272 683 Q272 459 369 310 Q492 122 732 122 Q906 122 1009 223 Q1112 324 1135 515 L1314 515 Z M1034 1477 L849 1477 L727 1643 L599 1477 L432 1477 L629 1731 L833 1731 L1034 1477 Z " />
<glyph glyph-name="ccircumflex" unicode="&#x109;" horiz-adv-x="1042" d="M983 360 Q958 176 844 73.5 Q730 -29 551 -29 Q310 -29 183 139 Q81 275 81 481 Q81 749 227 892 Q357 1019 556 1019 Q738 1019 847.5 928 Q957 837 977 668 L809 668 Q792 752 748 802 Q677 882 556 882 Q394 882 313 751 Q248 647 248 494 Q248 332 314 231 Q395 107 546 107 Q657 107 728 173 Q799 239 817 360 L983 360 Z M842 1133 L678 1133 L549 1316 L414 1133 L267 1133 L465 1407 L641 1407 L842 1133 Z " />
<glyph glyph-name="Cdotaccent" unicode="&#x10a;" horiz-adv-x="1383" d="M1314 515 Q1297 307 1182 167 Q1021 -31 723 -31 Q407 -31 236 193 Q90 382 90 681 Q90 1001 277 1206 Q449 1396 737 1396 Q1018 1396 1179 1222 Q1289 1103 1303 956 L1121 956 Q1091 1090 988 1166.5 Q885 1243 733 1243 Q489 1243 366 1044 Q272 893 272 683 Q272 459 369 310 Q492 122 732 122 Q906 122 1009 223 Q1112 324 1135 515 L1314 515 Z M808 1697 L808 1509 L631 1509 L631 1697 L808 1697 Z " />
<glyph glyph-name="cdotaccent" unicode="&#x10b;" horiz-adv-x="1041" d="M983 360 Q958 176 844 73.5 Q730 -29 551 -29 Q310 -29 183 139 Q81 275 81 481 Q81 749 227 892 Q357 1019 556 1019 Q738 1019 847.5 928 Q957 837 977 668 L808 668 Q792 752 747 803 Q677 883 556 883 Q394 883 313 752 Q248 647 248 494 Q248 332 314 231 Q394 107 546 107 Q657 107 728 173 Q799 239 817 360 L983 360 Z M636 1368 L636 1174 L461 1174 L461 1368 L636 1368 Z " />
<glyph glyph-name="Ccaron" unicode="&#x10c;" horiz-adv-x="1383" d="M1314 515 Q1297 307 1182 167 Q1021 -31 723 -31 Q407 -31 236 193 Q90 382 90 681 Q90 1001 277 1206 Q449 1396 737 1396 Q1018 1396 1179 1222 Q1289 1103 1303 956 L1121 956 Q1091 1090 988 1166.5 Q885 1243 733 1243 Q489 1243 366 1044 Q272 893 272 683 Q272 459 369 310 Q492 122 732 122 Q906 122 1009 223 Q1112 324 1135 515 L1314 515 Z M418 1731 L603 1731 L725 1565 L853 1731 L1020 1731 L823 1477 L619 1477 L418 1731 Z " />
<glyph glyph-name="ccaron" unicode="&#x10d;" horiz-adv-x="1041" d="M983 360 Q958 176 844 73.5 Q730 -29 551 -29 Q310 -29 183 139 Q81 275 81 481 Q81 749 227 892 Q357 1019 556 1019 Q738 1019 847.5 928 Q957 837 977 668 L808 668 Q792 752 747 803 Q677 883 556 883 Q394 883 313 752 Q248 647 248 494 Q248 332 314 231 Q394 107 546 107 Q657 107 728 173 Q799 239 817 360 L983 360 Z M837 1406 L639 1133 L461 1133 L259 1406 L424 1406 L554 1223 L690 1406 L837 1406 Z " />
<glyph glyph-name="Dcaron" unicode="&#x10e;" horiz-adv-x="1372" d="M157 1365 L647 1365 Q802 1365 901 1334.5 Q1000 1304 1082 1231 Q1282 1052 1282 711 Q1282 347 1090 151 Q1006 66 914 33 Q822 0 667 0 L157 0 L157 1365 Z M337 1208 L337 157 L632 157 Q771 157 843 180 Q915 203 971 265 Q1100 409 1100 703 Q1100 953 987 1080.5 Q874 1208 651 1208 L337 1208 Z M330 1731 L515 1731 L637 1565 L765 1731 L932 1731 L735 1477 L531 1477 L330 1731 Z " />
<glyph glyph-name="dcaron" unicode="&#x10f;" horiz-adv-x="1411" d="M1015 1365 L1015 0 L862 0 L862 146 Q820 62 736 16.5 Q652 -29 538 -29 Q335 -29 210 108 Q80 249 80 497 Q80 740 202 877 Q329 1019 525 1019 Q640 1019 724 976 Q808 933 853 853 L853 1365 L1015 1365 Z M554 882 Q416 882 335 786 Q247 683 247 500 Q247 321 334 211 Q416 108 553 108 Q694 108 776 211 Q857 313 857 493 Q857 693 765 791 Q679 882 554 882 Z M1329 1365 L1329 1232 Q1329 1022 1152 1002 L1152 1071 Q1237 1091 1246 1196 L1152 1196 L1152 1365 L1329 1365 Z " />
<glyph glyph-name="Dcroat" unicode="&#x110;" horiz-adv-x="1372" d="M158 1365 L648 1365 Q802 1365 902 1334.5 Q1002 1304 1083 1232 Q1283 1053 1283 710 Q1283 347 1091 151 Q1006 66 914.5 33 Q823 0 668 0 L158 0 L158 641 L21 641 L21 778 L158 778 L158 1365 Z M338 1209 L338 778 L693 778 L693 641 L338 641 L338 157 L633 157 Q772 157 844.5 180 Q917 203 972 264 Q1101 408 1101 702 Q1101 953 987.5 1081 Q874 1209 652 1209 L338 1209 Z " />
<glyph glyph-name="dcroat" unicode="&#x111;" horiz-adv-x="1157" d="M853 1237 L853 1365 L1014 1365 L1014 1237 L1150 1237 L1150 1118 L1014 1118 L1014 0 L862 0 L862 146 Q820 62 736 16.5 Q652 -29 538 -29 Q335 -29 210 108 Q80 249 80 497 Q80 740 202 877 Q328 1019 525 1019 Q639 1019 724 976 Q809 933 853 853 L853 1118 L536 1118 L536 1237 L853 1237 Z M553 883 Q414 883 333 787 Q245 684 245 500 Q245 321 332 211 Q414 108 552 108 Q693 108 776 212 Q857 313 857 493 Q857 693 764 792 Q679 883 553 883 Z " />
<glyph glyph-name="Emacron" unicode="&#x112;" horiz-adv-x="1196" d="M1103 1365 L1103 1208 L337 1208 L337 776 L1053 776 L1053 630 L337 630 L337 157 L1113 157 L1113 0 L157 0 L157 1365 L1103 1365 Z M954 1651 L954 1534 L310 1534 L310 1651 L954 1651 Z " />
<glyph glyph-name="emacron" unicode="&#x113;" horiz-adv-x="1065" d="M982 317 Q904 -29 549 -29 Q309 -29 186 134 Q81 273 81 487 Q81 720 209 868 Q340 1019 544 1019 Q711 1019 829 918 Q917 843 955.5 734 Q994 625 993 453 L249 453 Q259 107 560 107 Q664 107 726 156.5 Q788 206 822 317 L982 317 Z M825 587 Q817 689 775 756 Q695 883 539 883 Q417 883 343.5 808 Q270 733 250 587 L825 587 Z M820 1307 L820 1195 L244 1195 L244 1307 L820 1307 Z " />
<glyph glyph-name="Ebreve" unicode="&#x114;" horiz-adv-x="1196" d="M1103 1365 L1103 1208 L337 1208 L337 776 L1053 776 L1053 630 L337 630 L337 157 L1113 157 L1113 0 L157 0 L157 1365 L1103 1365 Z M928 1748 Q919 1650 873 1588 Q793 1478 627 1478 Q460 1478 381 1591 Q336 1655 333 1748 L429 1748 Q465 1609 635 1609 Q718 1609 764.5 1641.5 Q811 1674 833 1748 L928 1748 Z " />
<glyph glyph-name="ebreve" unicode="&#x115;" horiz-adv-x="1065" d="M982 317 Q904 -29 549 -29 Q309 -29 186 134 Q81 273 81 487 Q81 720 209 868 Q340 1019 544 1019 Q711 1019 829 918 Q917 843 955.5 734 Q994 625 993 453 L249 453 Q259 107 560 107 Q664 107 726 156.5 Q788 206 822 317 L982 317 Z M825 587 Q817 689 775 756 Q695 883 539 883 Q417 883 343.5 808 Q270 733 250 587 L825 587 Z M811 1405 Q799 1294 767 1243 Q698 1133 531 1133 Q354 1133 295 1263 Q271 1316 267 1405 L360 1405 Q369 1340 394 1309 Q439 1255 542 1255 Q624 1255 663 1288.5 Q702 1322 719 1405 L811 1405 Z " />
<glyph glyph-name="Edotaccent" unicode="&#x116;" horiz-adv-x="1196" d="M1103 1365 L1103 1208 L337 1208 L337 776 L1053 776 L1053 630 L337 630 L337 157 L1113 157 L1113 0 L157 0 L157 1365 L1103 1365 Z M720 1697 L720 1509 L543 1509 L543 1697 L720 1697 Z " />
<glyph glyph-name="edotaccent" unicode="&#x117;" horiz-adv-x="1065" d="M982 317 Q904 -29 549 -29 Q309 -29 186 134 Q81 273 81 487 Q81 720 209 868 Q340 1019 544 1019 Q711 1019 829 918 Q917 843 955.5 734 Q994 625 993 453 L249 453 Q259 107 560 107 Q664 107 726 156.5 Q788 206 822 317 L982 317 Z M825 587 Q817 689 775 756 Q695 883 539 883 Q417 883 343.5 808 Q270 733 250 587 L825 587 Z M620 1368 L620 1174 L445 1174 L445 1368 L620 1368 Z " />
<glyph glyph-name="Eogonek" unicode="&#x118;" horiz-adv-x="1196" d="M1103 1365 L1103 1208 L337 1208 L337 776 L1053 776 L1053 630 L337 630 L337 157 L1113 157 L1113 0 Q999 -84 999 -165 Q999 -209 1036.5 -237 Q1074 -265 1134 -265 Q1166 -265 1216 -250 L1217 -339 Q1153 -359 1099 -359 Q996 -359 936 -308 Q882 -261 882 -191 Q882 -94 1010 0 L157 0 L157 1365 L1103 1365 Z " />
<glyph glyph-name="eogonek" unicode="&#x119;" horiz-adv-x="1065" d="M737 -13 Q683 -60 663 -91 Q643 -122 643 -159 Q643 -207 680 -236 Q717 -265 779 -265 Q811 -265 861 -250 L862 -339 Q797 -359 744 -359 Q641 -359 581 -308 Q527 -262 527 -193 Q527 -103 623 -25 Q569 -29 539 -29 Q312 -29 186 134 Q81 270 81 487 Q81 720 209 868 Q340 1019 544 1019 Q711 1019 829 918 Q917 843 955.5 734 Q994 625 993 453 L249 453 Q259 108 560 108 Q664 108 725.5 157.5 Q787 207 822 317 L982 317 Q956 203 906 135.5 Q856 68 737 -13 Z M825 587 Q817 689 775 756 Q695 883 539 883 Q417 883 343.5 808 Q270 733 250 587 L825 587 Z " />
<glyph glyph-name="Ecaron" unicode="&#x11a;" horiz-adv-x="1196" d="M1103 1365 L1103 1208 L337 1208 L337 776 L1053 776 L1053 630 L337 630 L337 157 L1113 157 L1113 0 L157 0 L157 1365 L1103 1365 Z M331 1731 L516 1731 L638 1565 L766 1731 L933 1731 L736 1477 L532 1477 L331 1731 Z " />
<glyph glyph-name="ecaron" unicode="&#x11b;" horiz-adv-x="1065" d="M982 317 Q904 -29 549 -29 Q309 -29 186 134 Q81 273 81 487 Q81 720 209 868 Q340 1019 544 1019 Q711 1019 829 918 Q917 843 955.5 734 Q994 625 993 453 L249 453 Q259 107 560 107 Q664 107 726 156.5 Q788 206 822 317 L982 317 Z M825 587 Q817 689 775 756 Q695 883 539 883 Q417 883 343.5 808 Q270 733 250 587 L825 587 Z M828 1406 L630 1133 L452 1133 L250 1406 L415 1406 L545 1223 L681 1406 L828 1406 Z " />
<glyph glyph-name="Gcircumflex" unicode="&#x11c;" horiz-adv-x="1469" d="M1342 721 L1342 0 L1227 0 L1200 104 Q1189 146 1181 171 Q1015 -32 742 -32 Q414 -32 235 205 Q90 395 90 669 Q90 990 276 1199 Q453 1397 754 1397 Q1032 1397 1192 1233 Q1310 1112 1327 946 L1150 946 Q1129 1081 1021 1162.5 Q913 1244 754 1244 Q523 1244 391 1078 Q272 927 272 676 Q272 446 381 299 Q513 121 754 121 Q940 121 1059 239 Q1177 354 1181 575 L744 575 L744 721 L1342 721 Z M1049 1477 L864 1477 L743 1643 L614 1477 L447 1477 L645 1731 L848 1731 L1049 1477 Z " />
<glyph glyph-name="gcircumflex" unicode="&#x11d;" horiz-adv-x="1133" d="M989 990 L989 108 Q989 -15 974 -88 Q959 -161 922 -223 Q811 -404 529 -404 Q323 -404 211 -310 Q129 -241 113 -112 L280 -112 Q309 -277 535 -277 Q705 -277 773 -179 Q825 -104 827 49 L828 169 Q796 114 768 85 Q672 -13 511 -13 Q318 -13 198 125 Q79 262 79 491 Q79 734 205 877 Q330 1019 522 1019 Q628 1019 703.5 977.5 Q779 936 837 847 L837 990 L989 990 Z M540 882 Q390 882 314 767 Q246 666 246 508 Q246 289 352 193 Q429 124 534 124 Q679 124 758 245 Q825 349 825 513 Q825 715 725 811 Q650 882 540 882 Z M840 1133 L676 1133 L547 1315 L412 1133 L266 1133 L463 1406 L639 1406 L840 1133 Z " />
<glyph glyph-name="Gbreve" unicode="&#x11e;" horiz-adv-x="1469" d="M1342 721 L1342 0 L1227 0 L1200 104 Q1189 146 1181 171 Q1015 -32 742 -32 Q414 -32 235 205 Q90 395 90 669 Q90 990 276 1199 Q453 1397 754 1397 Q1032 1397 1192 1233 Q1310 1112 1327 946 L1150 946 Q1129 1081 1021 1162.5 Q913 1244 754 1244 Q523 1244 391 1078 Q272 927 272 676 Q272 446 381 299 Q513 121 754 121 Q940 121 1059 239 Q1177 354 1181 575 L744 575 L744 721 L1342 721 Z M1046 1748 Q1036 1650 990 1588 Q910 1478 744 1478 Q577 1478 499 1591 Q454 1655 451 1748 L547 1748 Q583 1609 753 1609 Q836 1609 882 1641.5 Q928 1674 951 1748 L1046 1748 Z " />
<glyph glyph-name="gbreve" unicode="&#x11f;" horiz-adv-x="1133" d="M989 990 L989 108 Q989 -15 974 -88 Q959 -161 922 -223 Q811 -404 529 -404 Q323 -404 211 -310 Q129 -241 113 -112 L280 -112 Q309 -277 535 -277 Q705 -277 773 -179 Q825 -104 827 49 L828 169 Q796 114 768 85 Q672 -13 511 -13 Q318 -13 198 125 Q79 262 79 491 Q79 734 205 877 Q330 1019 522 1019 Q628 1019 703.5 977.5 Q779 936 837 847 L837 990 L989 990 Z M540 882 Q390 882 314 767 Q246 666 246 508 Q246 289 352 193 Q429 124 534 124 Q679 124 758 245 Q825 349 825 513 Q825 715 725 811 Q650 882 540 882 Z M831 1405 Q820 1294 788 1243 Q719 1133 552 1133 Q375 1133 316 1263 Q292 1316 288 1405 L380 1405 Q389 1340 415 1309 Q459 1255 563 1255 Q644 1255 683.5 1288.5 Q723 1322 740 1405 L831 1405 Z " />
<glyph glyph-name="Gdotaccent" unicode="&#x120;" horiz-adv-x="1469" d="M1342 721 L1342 0 L1227 0 L1200 104 Q1189 146 1181 171 Q1015 -32 742 -32 Q414 -32 235 205 Q90 395 90 669 Q90 990 276 1199 Q453 1397 754 1397 Q1032 1397 1192 1233 Q1310 1112 1327 946 L1150 946 Q1129 1081 1021 1162.5 Q913 1244 754 1244 Q523 1244 391 1078 Q272 927 272 676 Q272 446 381 299 Q513 121 754 121 Q940 121 1059 239 Q1177 354 1181 575 L744 575 L744 721 L1342 721 Z M836 1697 L836 1509 L659 1509 L659 1697 L836 1697 Z " />
<glyph glyph-name="gdotaccent" unicode="&#x121;" horiz-adv-x="1133" d="M989 990 L989 108 Q989 -15 974 -88 Q959 -161 922 -223 Q811 -404 529 -404 Q323 -404 211 -310 Q129 -241 113 -112 L280 -112 Q309 -277 535 -277 Q705 -277 773 -179 Q825 -104 827 49 L828 169 Q796 114 768 85 Q672 -13 511 -13 Q318 -13 198 125 Q79 262 79 491 Q79 734 205 877 Q330 1019 522 1019 Q628 1019 703.5 977.5 Q779 936 837 847 L837 990 L989 990 Z M540 882 Q390 882 314 767 Q246 666 246 508 Q246 289 352 193 Q429 124 534 124 Q679 124 758 245 Q825 349 825 513 Q825 715 725 811 Q650 882 540 882 Z M627 1368 L627 1174 L452 1174 L452 1368 L627 1368 Z " />
<glyph glyph-name="Gcommaaccent" unicode="&#x122;" horiz-adv-x="1469" d="M1342 721 L1342 0 L1227 0 L1200 104 Q1189 146 1181 171 Q1015 -32 742 -32 Q414 -32 235 205 Q90 395 90 669 Q90 990 276 1199 Q453 1397 754 1397 Q1032 1397 1192 1233 Q1310 1112 1327 946 L1150 946 Q1129 1081 1021 1162.5 Q913 1244 754 1244 Q523 1244 391 1078 Q272 927 272 676 Q272 446 381 299 Q513 121 754 121 Q940 121 1059 239 Q1177 354 1181 575 L744 575 L744 721 L1342 721 Z M809 -123 L809 -255 Q809 -467 632 -486 L632 -417 Q717 -397 726 -292 L632 -292 L632 -123 L809 -123 Z " />
<glyph glyph-name="gcommaaccent" unicode="&#x123;" horiz-adv-x="1133" d="M989 990 L989 108 Q989 -15 974 -88 Q959 -161 922 -223 Q811 -404 529 -404 Q323 -404 211 -310 Q129 -241 113 -112 L280 -112 Q309 -277 535 -277 Q705 -277 773 -179 Q825 -104 827 49 L828 169 Q796 114 768 85 Q672 -13 511 -13 Q318 -13 198 125 Q79 262 79 491 Q79 734 205 877 Q330 1019 522 1019 Q628 1019 703.5 977.5 Q779 936 837 847 L837 990 L989 990 Z M540 882 Q390 882 314 767 Q246 666 246 508 Q246 289 352 193 Q429 124 534 124 Q679 124 758 245 Q825 349 825 513 Q825 715 725 811 Q650 882 540 882 Z M451 1127 L451 1260 Q451 1471 628 1490 L628 1421 Q543 1401 534 1296 L628 1296 L628 1127 L451 1127 Z " />
<glyph glyph-name="Hcircumflex" unicode="&#x124;" horiz-adv-x="1395" d="M1238 1365 L1238 0 L1058 0 L1058 639 L337 639 L337 0 L157 0 L157 1365 L337 1365 L337 796 L1058 796 L1058 1365 L1238 1365 Z M999 1477 L814 1477 L692 1643 L564 1477 L397 1477 L594 1731 L798 1731 L999 1477 Z " />
<glyph glyph-name="hcircumflex" unicode="&#x125;" horiz-adv-x="1101" d="M306 1365 L306 966 Q306 952 302 848 Q414 1019 634 1019 Q849 1019 927 871 Q965 799 965 643 L965 0 L803 0 L803 623 Q803 755 771 802 Q717 883 586 883 Q500 883 434 842.5 Q368 802 337 730 Q318 686 312 635.5 Q306 585 306 467 L306 0 L144 0 L144 1365 L306 1365 Z M569 1477 L384 1477 L263 1643 L134 1477 L-33 1477 L165 1731 L368 1731 L569 1477 Z " />
<glyph glyph-name="Hbar" unicode="&#x126;" horiz-adv-x="1395" d="M1238 1158 L1374 1158 L1374 1021 L1238 1021 L1238 0 L1058 0 L1058 639 L337 639 L337 0 L157 0 L157 1021 L20 1021 L20 1158 L157 1158 L157 1365 L337 1365 L337 1158 L1058 1158 L1058 1365 L1238 1365 L1238 1158 Z M337 1021 L337 796 L1058 796 L1058 1021 L337 1021 Z " />
<glyph glyph-name="hbar" unicode="&#x127;" horiz-adv-x="1101" d="M306 0 L144 0 L144 1118 L7 1118 L7 1237 L144 1237 L144 1365 L306 1365 L306 1237 L623 1237 L623 1118 L306 1118 L306 966 Q306 949 302 848 Q414 1019 632 1019 Q849 1019 926 871 Q964 799 964 643 L964 0 L802 0 L802 623 Q802 754 770 801 Q716 882 585 882 Q500 882 434 841.5 Q368 801 337 729 Q318 686 312 635 Q306 584 306 467 L306 0 Z " />
<glyph glyph-name="Itilde" unicode="&#x128;" horiz-adv-x="494" d="M337 1365 L337 0 L157 0 L157 1365 L337 1365 Z M574 1719 Q560 1618 509 1561 Q458 1504 380 1504 Q332 1504 249 1535 Q134 1578 101 1578 Q37 1578 11 1493 L-80 1493 Q-68 1594 -16 1649.5 Q36 1705 119 1705 Q160 1705 191.5 1696 Q223 1687 329 1644 Q357 1633 388 1633 Q457 1633 480 1719 L574 1719 Z " />
<glyph glyph-name="itilde" unicode="&#x129;" horiz-adv-x="450" d="M306 990 L306 0 L144 0 L144 990 L306 990 Z M522 1387 Q509 1286 462.5 1229.5 Q416 1173 346 1173 Q302 1173 226 1204 Q122 1247 92 1247 Q35 1247 13 1162 L-73 1162 Q-62 1263 -14.5 1318.5 Q33 1374 109 1374 Q146 1374 174.5 1365 Q203 1356 299 1313 Q324 1302 353 1302 Q414 1302 433 1387 L522 1387 Z " />
<glyph glyph-name="Imacron" unicode="&#x12a;" horiz-adv-x="494" d="M337 1365 L337 0 L157 0 L157 1365 L337 1365 Z M494 1651 L494 1534 L0 1534 L0 1651 L494 1651 Z " />
<glyph glyph-name="imacron" unicode="&#x12b;" horiz-adv-x="449" d="M306 990 L306 0 L144 0 L144 990 L306 990 Z M445 1307 L445 1195 L5 1195 L5 1307 L445 1307 Z " />
<glyph glyph-name="Ibreve" unicode="&#x12c;" horiz-adv-x="494" d="M337 1365 L337 0 L157 0 L157 1365 L337 1365 Z M545 1748 Q535 1650 489 1588 Q409 1478 243 1478 Q76 1478 -2 1591 Q-47 1655 -50 1748 L46 1748 Q82 1609 252 1609 Q335 1609 381.5 1641.5 Q428 1674 450 1748 L545 1748 Z " />
<glyph glyph-name="ibreve" unicode="&#x12d;" horiz-adv-x="449" d="M306 990 L306 0 L144 0 L144 990 L306 990 Z M483 1405 Q471 1294 439 1243 Q370 1133 218 1133 Q-22 1133 -33 1405 L59 1405 Q68 1339 94 1308 Q112 1285 151 1269.5 Q190 1254 228 1254 Q320 1254 362 1317 Q379 1344 391 1405 L483 1405 Z " />
<glyph glyph-name="Iogonek" unicode="&#x12e;" horiz-adv-x="494" d="M157 1365 L337 1365 L337 0 Q287 -22 258.5 -66 Q230 -110 230 -163 Q230 -262 337 -262 Q373 -262 413 -250 L414 -339 Q356 -359 310 -359 Q222 -359 168.5 -310.5 Q115 -262 115 -184 Q115 -79 228 0 L157 0 L157 1365 Z " />
<glyph glyph-name="iogonek" unicode="&#x12f;" horiz-adv-x="449" d="M144 990 L306 990 L306 0 Q213 -67 213 -165 Q213 -264 311 -264 Q341 -264 382 -250 L383 -339 Q334 -359 286 -359 Q200 -359 148 -313 Q96 -267 96 -188 Q96 -80 203 0 L144 0 L144 990 Z M306 1365 L306 1166 L144 1166 L144 1365 L306 1365 Z " />
<glyph glyph-name="Idot" unicode="&#x130;" horiz-adv-x="494" d="M337 1365 L337 0 L157 0 L157 1365 L337 1365 Z M335 1697 L335 1509 L158 1509 L158 1697 L335 1697 Z " />
<glyph glyph-name="IJ" unicode="&#x132;" horiz-adv-x="1442" d="M337 1365 L337 0 L157 0 L157 1365 L337 1365 Z M1303 1365 L1303 440 Q1303 315 1292.5 253 Q1282 191 1251 137 Q1156 -32 910 -32 Q633 -32 544 156 Q502 245 502 399 Q502 421 504 451 L680 451 Q679 418 679 401 Q679 265 717 206 Q773 121 908 121 Q1037 121 1087 204 Q1123 265 1123 439 L1123 1365 L1303 1365 Z " />
<glyph glyph-name="ij" unicode="&#x133;" horiz-adv-x="885" d="M306 1365 L306 1166 L144 1166 L144 1365 L306 1365 Z M306 990 L306 0 L144 0 L144 990 L306 990 Z M742 990 L742 -25 Q742 -166 736 -214.5 Q730 -263 708 -302 Q654 -398 491 -398 Q457 -398 417 -392 L417 -254 Q450 -261 475 -261 Q524 -261 546 -246.5 Q568 -232 574 -197 Q580 -161 580 -26 L580 990 L742 990 Z M742 1365 L742 1166 L580 1166 L580 1365 L742 1365 Z " />
<glyph glyph-name="Jcircumflex" unicode="&#x134;" horiz-adv-x="961" d="M823 1365 L823 440 Q823 315 812.5 253 Q802 191 771 137 Q675 -32 430 -32 Q153 -32 64 156 Q22 244 22 394 Q22 416 24 450 L199 450 L199 434 L199 401 Q199 266 238 206 Q292 121 429 121 Q557 121 606 204 Q643 265 643 438 L643 1365 L823 1365 Z M1039 1477 L854 1477 L732 1643 L604 1477 L437 1477 L634 1731 L838 1731 L1039 1477 Z " />
<glyph glyph-name="jcircumflex" unicode="&#x135;" horiz-adv-x="449" d="M306 990 L306 -25 Q306 -167 300 -215.5 Q294 -264 272 -303 Q217 -399 56 -399 Q20 -399 -20 -392 L-20 -254 Q13 -262 40 -262 Q88 -262 109.5 -247.5 Q131 -233 137 -198 Q143 -162 143 -26 L143 990 L306 990 Z M515 1133 L350 1133 L222 1316 L87 1133 L-60 1133 L138 1407 L314 1407 L515 1133 Z " />
<glyph glyph-name="Kcommaaccent" unicode="&#x136;" horiz-adv-x="1274" d="M1266 1365 L690 817 L1289 0 L1060 0 L563 694 L337 479 L337 0 L157 0 L157 1365 L337 1365 L337 827 Q336 732 336 685 Q366 714 426 776 L1030 1365 L1266 1365 Z M766 -110 L766 -242 Q766 -454 589 -473 L589 -404 Q674 -384 683 -279 L589 -279 L589 -110 L766 -110 Z " />
<glyph glyph-name="kcommaaccent" unicode="&#x137;" horiz-adv-x="1020" d="M980 990 L587 631 L1008 0 L802 0 L462 518 L306 375 L306 0 L144 0 L144 1365 L306 1365 L306 695 L306 620 L306 553 Q352 602 373 622 L762 990 L980 990 Z M619 -110 L619 -242 Q619 -453 442 -473 L442 -404 Q527 -384 536 -279 L442 -279 L442 -110 L619 -110 Z " />
<glyph glyph-name="kgreenlandic" unicode="&#x138;" horiz-adv-x="1020" d="M980 990 L587 631 L1008 0 L802 0 L462 518 L306 375 L306 0 L144 0 L144 990 L306 990 L306 695 L306 620 L306 553 Q352 602 373 622 L762 990 L980 990 Z " />
<glyph glyph-name="Lacute" unicode="&#x139;" horiz-adv-x="1102" d="M1062 157 L1062 0 L157 0 L157 1365 L337 1365 L337 157 L1062 157 Z M535 1734 L298 1475 L165 1475 L320 1734 L535 1734 Z " />
<glyph glyph-name="lacute" unicode="&#x13a;" horiz-adv-x="449" d="M305 1365 L305 0 L143 0 L143 1365 L305 1365 Z M505 1734 L282 1475 L148 1475 L304 1734 L505 1734 Z " />
<glyph glyph-name="Lcommaaccent" unicode="&#x13b;" horiz-adv-x="1102" d="M1062 157 L1062 0 L157 0 L157 1365 L337 1365 L337 157 L1062 157 Z M707 -110 L707 -242 Q707 -453 530 -473 L530 -404 Q615 -384 624 -279 L530 -279 L530 -110 L707 -110 Z " />
<glyph glyph-name="lcommaaccent" unicode="&#x13c;" horiz-adv-x="449" d="M306 1365 L306 0 L144 0 L144 1365 L306 1365 Z M313 -110 L313 -242 Q313 -453 136 -473 L136 -404 Q221 -384 230 -279 L136 -279 L136 -110 L313 -110 Z " />
<glyph glyph-name="Lcaron" unicode="&#x13d;" horiz-adv-x="1102" d="M1062 157 L1062 0 L157 0 L157 1365 L337 1365 L337 157 L1062 157 Z M824 1365 L824 1219 Q824 1136 813 1093.5 Q802 1051 774 1020 Q731 973 633 961 L633 1030 Q702 1049 720 1080 Q740 1114 741 1182 L633 1182 L633 1365 L824 1365 Z " />
<glyph glyph-name="lcaron" unicode="&#x13e;" horiz-adv-x="702" d="M305 1365 L305 0 L143 0 L143 1365 L305 1365 Z M620 1365 L620 1232 Q620 1021 443 1002 L443 1071 Q528 1091 537 1196 L443 1196 L443 1365 L620 1365 Z " />
<glyph glyph-name="Ldot" unicode="&#x13f;" horiz-adv-x="1102" d="M1062 157 L1062 0 L157 0 L157 1365 L337 1365 L337 157 L1062 157 Z M919 811 L919 582 L677 582 L677 811 L919 811 Z " />
<glyph glyph-name="ldot" unicode="&#x140;" horiz-adv-x="691" d="M305 1365 L305 0 L143 0 L143 1365 L305 1365 Z M690 811 L690 582 L448 582 L448 811 L690 811 Z " />
<glyph glyph-name="Lslash" unicode="&#x141;" horiz-adv-x="1102" d="M157 690 L157 1365 L337 1365 L337 789 L624 1005 L624 845 L337 629 L337 157 L1062 157 L1062 0 L157 0 L157 530 L35 438 L35 598 L157 690 Z " />
<glyph glyph-name="lslash" unicode="&#x142;" horiz-adv-x="474" d="M156 748 L156 1365 L318 1365 L318 841 L440 933 L440 786 L318 694 L318 0 L156 0 L156 602 L34 510 L34 657 L156 748 Z " />
<glyph glyph-name="Nacute" unicode="&#x143;" horiz-adv-x="1407" d="M1249 1365 L1249 0 L1050 0 L563 736 Q377 1017 317 1143 Q328 1002 329 689 L330 0 L157 0 L157 1365 L352 1365 L862 588 Q1016 354 1089 215 Q1079 454 1078 682 L1076 1365 L1249 1365 Z M984 1734 L747 1475 L614 1475 L769 1734 L984 1734 Z " />
<glyph glyph-name="nacute" unicode="&#x144;" horiz-adv-x="1101" d="M296 990 L296 836 Q338 899 376 930 Q482 1019 640 1019 Q775 1019 861 950 Q920 903 942.5 836 Q965 769 965 640 L965 0 L803 0 L803 583 Q803 749 769 800 Q716 882 589 882 Q463 882 386 800 Q340 752 323 683.5 Q306 615 306 479 L306 0 L144 0 L144 990 L296 990 Z M791 1399 L561 1126 L448 1126 L590 1399 L791 1399 Z " />
<glyph glyph-name="Ncommaaccent" unicode="&#x145;" horiz-adv-x="1407" d="M1249 1365 L1249 0 L1050 0 L563 736 Q377 1017 317 1143 Q328 1002 329 689 L330 0 L157 0 L157 1365 L352 1365 L862 588 Q1016 354 1089 215 Q1079 454 1078 682 L1076 1365 L1249 1365 Z M778 -110 L778 -242 Q778 -453 601 -473 L601 -404 Q686 -384 695 -279 L601 -279 L601 -110 L778 -110 Z " />
<glyph glyph-name="ncommaaccent" unicode="&#x146;" horiz-adv-x="1101" d="M296 990 L296 836 Q338 899 376 930 Q482 1019 640 1019 Q775 1019 861 950 Q920 903 942.5 836 Q965 769 965 640 L965 0 L803 0 L803 583 Q803 749 769 800 Q716 882 589 882 Q463 882 386 800 Q340 752 323 683.5 Q306 615 306 479 L306 0 L144 0 L144 990 L296 990 Z M639 -110 L639 -242 Q639 -454 462 -473 L462 -404 Q547 -384 556 -279 L462 -279 L462 -110 L639 -110 Z " />
<glyph glyph-name="Ncaron" unicode="&#x147;" horiz-adv-x="1407" d="M1249 1365 L1249 0 L1050 0 L563 736 Q377 1017 317 1143 Q328 1002 329 689 L330 0 L157 0 L157 1365 L352 1365 L862 588 Q1016 354 1089 215 Q1079 454 1078 682 L1076 1365 L1249 1365 Z M409 1731 L594 1731 L716 1565 L844 1731 L1011 1731 L814 1477 L610 1477 L409 1731 Z " />
<glyph glyph-name="ncaron" unicode="&#x148;" horiz-adv-x="1101" d="M296 990 L296 836 Q338 899 376 930 Q482 1019 640 1019 Q775 1019 861 950 Q920 903 942.5 836 Q965 769 965 640 L965 0 L803 0 L803 583 Q803 749 769 800 Q716 882 589 882 Q463 882 386 800 Q340 752 323 683.5 Q306 615 306 479 L306 0 L144 0 L144 990 L296 990 Z M840 1406 L642 1133 L464 1133 L262 1406 L427 1406 L557 1223 L693 1406 L840 1406 Z " />
<glyph glyph-name="napostrophe" unicode="&#x149;" horiz-adv-x="1475" d="M364 1365 L364 1215 Q364 1123 348.5 1067.5 Q333 1012 293 963 Q240 899 146 877 L146 971 Q252 1006 256 1159 L146 1159 L146 1365 L364 1365 Z M670 990 L670 836 Q712 899 750 930 Q856 1019 1013 1019 Q1148 1019 1234 950 Q1293 903 1315.5 836 Q1338 769 1338 640 L1338 0 L1176 0 L1176 583 Q1176 749 1143 800 Q1089 882 962 882 Q837 882 759 800 Q714 752 697 683 Q680 614 680 479 L680 0 L518 0 L518 990 L670 990 Z " />
<glyph glyph-name="Eng" unicode="&#x14a;" horiz-adv-x="1395" d="M337 1365 L337 1162 Q398 1244 448 1283 Q592 1397 804 1397 Q987 1397 1100 1308 Q1178 1247 1208 1159 Q1238 1071 1238 903 L1238 -25 Q1238 -167 1231.5 -215 Q1225 -263 1201 -302 Q1143 -398 970 -398 Q936 -398 896 -392 L896 -254 Q929 -261 954 -261 Q1007 -261 1029 -243.5 Q1051 -226 1054 -181 Q1058 -124 1058 -26 L1058 828 Q1058 963 1047.5 1026 Q1037 1089 1009 1131 Q981 1171 938 1196 Q857 1244 744 1244 Q562 1244 452 1133 Q386 1067 361.5 972 Q337 877 337 692 L337 0 L157 0 L157 1365 L337 1365 Z " />
<glyph glyph-name="eng" unicode="&#x14b;" horiz-adv-x="1100" d="M295 990 L295 836 Q337 899 375 930 Q481 1019 639 1019 Q774 1019 860 950 Q919 903 941.5 836 Q964 769 964 640 L964 -25 Q964 -166 958 -214.5 Q952 -263 930 -302 Q876 -398 713 -398 Q679 -398 639 -392 L639 -254 Q672 -261 697 -261 Q772 -261 787 -227 Q802 -193 802 -26 L802 583 Q802 749 768 800 Q715 882 588 882 Q462 882 385 800 Q339 752 322 683.5 Q305 615 305 479 L305 0 L143 0 L143 990 L295 990 Z " />
<glyph glyph-name="Omacron" unicode="&#x14c;" horiz-adv-x="1487" d="M755 1397 Q1035 1397 1217 1200 Q1397 1004 1397 686 Q1397 401 1257 214 Q1074 -31 742 -31 Q412 -31 228 216 Q90 401 90 682 Q90 1012 270 1200 Q458 1397 755 1397 Z M751 1244 Q538 1244 407 1098 Q272 950 272 686 Q272 442 385 294 Q453 205 563 159 Q649 122 746 122 Q939 122 1063 249 Q1215 404 1215 684 Q1215 937 1084 1092 Q955 1244 751 1244 Z M1066 1651 L1066 1534 L421 1534 L421 1651 L1066 1651 Z " />
<glyph glyph-name="omacron" unicode="&#x14d;" horiz-adv-x="1118" d="M568 1019 Q782 1019 914 873 Q1039 736 1039 496 Q1039 232 891 89 Q770 -29 566 -29 Q331 -29 203 123 Q81 267 81 495 Q81 713 191 852 Q322 1019 568 1019 Z M566 882 Q429 882 344 790 Q248 685 248 494 Q248 305 341 201 Q424 108 565 108 Q690 108 768 187 Q872 293 872 498 Q872 685 781 788 Q697 882 566 882 Z M847 1307 L847 1195 L271 1195 L271 1307 L847 1307 Z " />
<glyph glyph-name="Obreve" unicode="&#x14e;" horiz-adv-x="1487" d="M755 1397 Q1035 1397 1217 1200 Q1397 1004 1397 686 Q1397 401 1257 214 Q1074 -31 742 -31 Q412 -31 228 216 Q90 401 90 682 Q90 1012 270 1200 Q458 1397 755 1397 Z M751 1244 Q538 1244 407 1098 Q272 950 272 686 Q272 442 385 294 Q453 205 563 159 Q649 122 746 122 Q939 122 1063 249 Q1215 404 1215 684 Q1215 937 1084 1092 Q955 1244 751 1244 Z M1041 1748 Q1031 1650 985 1588 Q905 1478 739 1478 Q572 1478 494 1591 Q449 1655 446 1748 L542 1748 Q578 1609 748 1609 Q831 1609 877.5 1641.5 Q924 1674 946 1748 L1041 1748 Z " />
<glyph glyph-name="obreve" unicode="&#x14f;" horiz-adv-x="1118" d="M568 1019 Q782 1019 914 873 Q1039 736 1039 496 Q1039 232 891 89 Q770 -29 566 -29 Q331 -29 203 123 Q81 267 81 495 Q81 713 191 852 Q322 1019 568 1019 Z M566 882 Q429 882 344 790 Q248 685 248 494 Q248 305 341 201 Q424 108 565 108 Q690 108 768 187 Q872 293 872 498 Q872 685 781 788 Q697 882 566 882 Z M831 1405 Q819 1294 787 1243 Q718 1133 551 1133 Q374 1133 315 1263 Q291 1316 287 1405 L379 1405 Q388 1340 414 1309 Q459 1255 562 1255 Q644 1255 683 1288.5 Q722 1322 739 1405 L831 1405 Z " />
<glyph glyph-name="Ohungarumlaut" unicode="&#x150;" horiz-adv-x="1487" d="M755 1397 Q1035 1397 1217 1200 Q1397 1004 1397 686 Q1397 401 1257 214 Q1074 -31 742 -31 Q412 -31 228 216 Q90 401 90 682 Q90 1012 270 1200 Q458 1397 755 1397 Z M751 1244 Q538 1244 407 1098 Q272 950 272 686 Q272 442 385 294 Q453 205 563 159 Q649 122 746 122 Q939 122 1063 249 Q1215 404 1215 684 Q1215 937 1084 1092 Q955 1244 751 1244 Z M1134 1734 L951 1475 L831 1475 L945 1734 L1134 1734 Z M819 1734 L637 1475 L517 1475 L631 1734 L819 1734 Z " />
<glyph glyph-name="ohungarumlaut" unicode="&#x151;" horiz-adv-x="1118" d="M568 1019 Q782 1019 914 873 Q1039 736 1039 496 Q1039 232 891 89 Q770 -29 566 -29 Q331 -29 203 123 Q81 267 81 495 Q81 713 191 852 Q322 1019 568 1019 Z M566 882 Q429 882 344 790 Q248 685 248 494 Q248 305 341 201 Q424 108 565 108 Q690 108 768 187 Q872 293 872 498 Q872 685 781 788 Q697 882 566 882 Z M896 1399 L734 1126 L632 1126 L722 1399 L896 1399 Z M622 1399 L461 1126 L359 1126 L449 1399 L622 1399 Z " />
<glyph glyph-name="Racute" unicode="&#x154;" horiz-adv-x="1369" d="M153 1365 L777 1365 Q949 1365 1045 1305 Q1211 1202 1211 994 Q1211 869 1151 782.5 Q1091 696 977 658 Q1077 638 1128 560 Q1158 514 1167 471 Q1176 428 1193 236 Q1208 61 1246 20 L1263 0 L1057 0 Q1036 30 1029.5 72.5 Q1023 115 1015 269 Q1005 460 939.5 525.5 Q874 591 692 591 L333 591 L333 0 L153 0 L153 1365 Z M333 1208 L333 737 L673 737 Q776 737 832.5 746.5 Q889 756 929 779 Q1029 838 1029 977 Q1029 1054 995 1108.5 Q961 1163 899 1186 Q839 1208 721 1208 L333 1208 Z M897 1734 L660 1475 L527 1475 L682 1734 L897 1734 Z " />
<glyph glyph-name="racute" unicode="&#x155;" horiz-adv-x="663" d="M667 1019 L667 849 Q631 852 615 852 Q484 852 400 766 Q345 709 325.5 630.5 Q306 552 306 385 L306 0 L144 0 L144 990 L296 990 L296 783 Q396 1027 667 1019 Z M640 1399 L410 1126 L297 1126 L439 1399 L640 1399 Z " />
<glyph glyph-name="Rcommaaccent" unicode="&#x156;" horiz-adv-x="1369" d="M153 1365 L777 1365 Q949 1365 1045 1305 Q1211 1202 1211 994 Q1211 869 1151 782.5 Q1091 696 977 658 Q1077 638 1128 560 Q1158 514 1167 471 Q1176 428 1193 236 Q1208 61 1246 20 L1263 0 L1057 0 Q1036 30 1029.5 72.5 Q1023 115 1015 269 Q1005 460 939.5 525.5 Q874 591 692 591 L333 591 L333 0 L153 0 L153 1365 Z M333 1208 L333 737 L673 737 Q776 737 832.5 746.5 Q889 756 929 779 Q1029 838 1029 977 Q1029 1054 995 1108.5 Q961 1163 899 1186 Q839 1208 721 1208 L333 1208 Z M773 -110 L773 -242 Q773 -453 596 -473 L596 -404 Q681 -384 690 -279 L596 -279 L596 -110 L773 -110 Z " />
<glyph glyph-name="rcommaaccent" unicode="&#x157;" horiz-adv-x="663" d="M666 1019 L666 849 Q631 852 614 852 Q484 852 400 766 Q345 709 325.5 630.5 Q306 552 306 385 L306 0 L144 0 L144 990 L296 990 L296 783 Q395 1027 666 1019 Z M313 -123 L313 -255 Q313 -467 136 -486 L136 -417 Q221 -397 230 -292 L136 -292 L136 -123 L313 -123 Z " />
<glyph glyph-name="Rcaron" unicode="&#x158;" horiz-adv-x="1369" d="M153 1365 L777 1365 Q949 1365 1045 1305 Q1211 1202 1211 994 Q1211 869 1151 782.5 Q1091 696 977 658 Q1077 638 1128 560 Q1158 514 1167 471 Q1176 428 1193 236 Q1208 61 1246 20 L1263 0 L1057 0 Q1036 30 1029.5 72.5 Q1023 115 1015 269 Q1005 460 939.5 525.5 Q874 591 692 591 L333 591 L333 0 L153 0 L153 1365 Z M333 1208 L333 737 L673 737 Q776 737 832.5 746.5 Q889 756 929 779 Q1029 838 1029 977 Q1029 1054 995 1108.5 Q961 1163 899 1186 Q839 1208 721 1208 L333 1208 Z M342 1731 L528 1731 L649 1565 L778 1731 L945 1731 L747 1477 L543 1477 L342 1731 Z " />
<glyph glyph-name="rcaron" unicode="&#x159;" horiz-adv-x="663" d="M666 1019 L666 849 Q630 852 614 852 Q483 852 399 766 Q344 709 324.5 630 Q305 551 305 385 L305 0 L143 0 L143 990 L295 990 L295 783 Q395 1027 666 1019 Z M674 1406 L476 1133 L299 1133 L97 1406 L261 1406 L392 1223 L527 1406 L674 1406 Z " />
<glyph glyph-name="Sacute" unicode="&#x15a;" horiz-adv-x="1230" d="M1094 965 L920 965 Q903 1109 821 1176.5 Q739 1244 579 1244 Q450 1244 373 1198 Q271 1137 271 1017 Q271 919 344 877 Q417 835 642 787 Q781 757 855.5 732.5 Q930 708 983 674 Q1147 569 1147 385 Q1147 191 994 73 Q861 -31 616 -31 Q349 -31 201 95 Q53 221 51 451 L225 451 Q229 319 294 244 Q400 122 628 122 Q796 122 880 192 Q965 262 965 371 Q965 439 932.5 482.5 Q900 526 822 562 Q763 589 571 633 Q387 676 338 691.5 Q289 707 239 737 Q98 823 98 1006 Q98 1187 227.5 1292 Q357 1397 580 1397 Q903 1397 1031 1194 Q1089 1103 1094 965 Z M854 1734 L617 1475 L484 1475 L640 1734 L854 1734 Z " />
<glyph glyph-name="sacute" unicode="&#x15b;" horiz-adv-x="951" d="M840 702 L677 702 Q668 769 642 804 Q584 882 437 882 Q341 882 287.5 845.5 Q234 809 234 744 Q234 683 283 654.5 Q332 626 498 588 Q705 542 788 482 Q881 414 881 288 Q881 144 769 57.5 Q657 -29 470 -29 Q269 -29 160 58.5 Q51 146 45 313 L205 313 Q215 230 250 189 Q318 108 471 108 Q611 108 676 178 Q714 218 714 271 Q714 334 662.5 368.5 Q611 403 465 438 Q309 476 266 489 Q223 502 183 523 Q129 552 98 606.5 Q67 661 67 728 Q67 886 206 965 Q300 1019 444 1019 Q667 1019 771 898 Q830 829 840 702 Z M709 1399 L479 1126 L366 1126 L508 1399 L709 1399 Z " />
<glyph glyph-name="Scircumflex" unicode="&#x15c;" horiz-adv-x="1230" d="M1094 965 L920 965 Q903 1109 821 1176.5 Q739 1244 579 1244 Q450 1244 373 1198 Q271 1137 271 1017 Q271 919 344 877 Q417 835 642 787 Q781 757 855.5 732.5 Q930 708 983 674 Q1147 569 1147 385 Q1147 191 994 73 Q861 -31 616 -31 Q349 -31 201 95 Q53 221 51 451 L225 451 Q229 319 294 244 Q400 122 628 122 Q796 122 880 192 Q965 262 965 371 Q965 439 932.5 482.5 Q900 526 822 562 Q763 589 571 633 Q387 676 338 691.5 Q289 707 239 737 Q98 823 98 1006 Q98 1187 227.5 1292 Q357 1397 580 1397 Q903 1397 1031 1194 Q1089 1103 1094 965 Z M895 1477 L710 1477 L589 1643 L460 1477 L293 1477 L491 1731 L694 1731 L895 1477 Z " />
<glyph glyph-name="scircumflex" unicode="&#x15d;" horiz-adv-x="951" d="M840 702 L677 702 Q668 769 642 804 Q584 882 437 882 Q341 882 287.5 845.5 Q234 809 234 744 Q234 683 283 654.5 Q332 626 498 588 Q705 542 788 482 Q881 414 881 288 Q881 144 769 57.5 Q657 -29 470 -29 Q269 -29 160 58.5 Q51 146 45 313 L205 313 Q215 230 250 189 Q318 108 471 108 Q611 108 676 178 Q714 218 714 271 Q714 334 662.5 368.5 Q611 403 465 438 Q309 476 266 489 Q223 502 183 523 Q129 552 98 606.5 Q67 661 67 728 Q67 886 206 965 Q300 1019 444 1019 Q667 1019 771 898 Q830 829 840 702 Z M750 1133 L585 1133 L457 1315 L322 1133 L175 1133 L373 1406 L549 1406 L750 1133 Z " />
<glyph glyph-name="Scedilla" unicode="&#x15e;" horiz-adv-x="1230" d="M646 -31 L582 -117 Q626 -109 650 -109 Q719 -109 765 -147 Q811 -185 811 -242 Q811 -320 747.5 -368.5 Q684 -417 582 -417 Q504 -417 396 -378 L429 -307 Q495 -334 565 -334 Q609 -334 636 -312 Q663 -290 663 -254 Q663 -223 636 -203.5 Q609 -184 567 -184 Q538 -184 494 -197 L463 -162 L563 -30 Q319 -16 186 109 Q53 234 51 451 L225 451 Q229 319 294 244 Q400 122 628 122 Q795 122 880 192 Q965 261 965 371 Q965 439 932.5 483 Q900 527 822 562 Q764 588 571 633 Q390 675 339.5 691 Q289 707 239 737 Q98 823 98 1006 Q98 1187 227.5 1292 Q357 1397 580 1397 Q903 1397 1031 1194 Q1089 1103 1094 965 L920 965 Q903 1109 821 1176.5 Q739 1244 579 1244 Q450 1244 373 1198 Q271 1137 271 1017 Q271 919 344 877 Q417 835 642 787 Q780 757 855.5 732.5 Q931 708 983 674 Q1147 569 1147 384 Q1147 275 1094.5 185.5 Q1042 96 945 39 Q837 -24 646 -31 Z " />
<glyph glyph-name="scedilla" unicode="&#x15f;" horiz-adv-x="951" d="M491 -28 L427 -116 Q464 -106 492 -106 Q566 -106 611.5 -144.5 Q657 -183 657 -245 Q657 -321 592 -368 Q527 -415 421 -415 Q336 -415 242 -375 L277 -306 Q344 -332 407 -332 Q453 -332 482 -310.5 Q511 -289 511 -255 Q511 -223 484 -201.5 Q457 -180 417 -180 Q390 -180 343 -195 L311 -161 L412 -26 Q57 3 45 313 L205 313 Q215 230 250 189 Q318 108 471 108 Q611 108 676 177 Q714 218 714 271 Q714 334 662.5 368.5 Q611 403 465 438 Q305 477 264 489.5 Q223 502 183 523 Q129 552 98 606.5 Q67 661 67 728 Q67 885 206 965 Q300 1019 444 1019 Q667 1019 771 898 Q830 829 840 702 L677 702 Q668 769 642 804 Q584 882 437 882 Q341 882 287.5 845.5 Q234 809 234 744 Q234 683 283 654.5 Q332 626 498 588 Q705 542 788 482 Q881 414 881 288 Q881 148 776 63 Q671 -22 491 -28 Z " />
<glyph glyph-name="Scaron" unicode="&#x160;" horiz-adv-x="1230" d="M1094 965 L920 965 Q903 1109 821 1176.5 Q739 1244 579 1244 Q450 1244 373 1198 Q271 1137 271 1017 Q271 919 344 877 Q417 835 642 787 Q781 757 855.5 732.5 Q930 708 983 674 Q1147 569 1147 385 Q1147 191 994 73 Q861 -31 616 -31 Q349 -31 201 95 Q53 221 51 451 L225 451 Q229 319 294 244 Q400 122 628 122 Q796 122 880 192 Q965 262 965 371 Q965 439 932.5 482.5 Q900 526 822 562 Q763 589 571 633 Q387 676 338 691.5 Q289 707 239 737 Q98 823 98 1006 Q98 1187 227.5 1292 Q357 1397 580 1397 Q903 1397 1031 1194 Q1089 1103 1094 965 Z M286 1731 L471 1731 L593 1565 L721 1731 L888 1731 L691 1477 L487 1477 L286 1731 Z " />
<glyph glyph-name="scaron" unicode="&#x161;" horiz-adv-x="951" d="M840 702 L677 702 Q668 769 642 804 Q584 882 437 882 Q341 882 287.5 845.5 Q234 809 234 744 Q234 683 283 654.5 Q332 626 498 588 Q705 542 788 482 Q881 414 881 288 Q881 144 769 57.5 Q657 -29 470 -29 Q269 -29 160 58.5 Q51 146 45 313 L205 313 Q215 230 250 189 Q318 108 471 108 Q611 108 676 178 Q714 218 714 271 Q714 334 662.5 368.5 Q611 403 465 438 Q309 476 266 489 Q223 502 183 523 Q129 552 98 606.5 Q67 661 67 728 Q67 886 206 965 Q300 1019 444 1019 Q667 1019 771 898 Q830 829 840 702 Z M737 1406 L539 1133 L362 1133 L160 1406 L324 1406 L455 1223 L591 1406 L737 1406 Z " />
<glyph glyph-name="Tcommaaccent" unicode="&#x162;" horiz-adv-x="1158" d="M1128 1365 L1128 1208 L669 1208 L669 0 L489 0 L489 1208 L30 1208 L30 1365 L1128 1365 Z M667 -110 L667 -242 Q667 -454 490 -473 L490 -404 Q575 -384 584 -279 L490 -279 L490 -110 L667 -110 Z " />
<glyph glyph-name="tcommaaccent" unicode="&#x163;" horiz-adv-x="578" d="M519 990 L519 856 L322 856 L322 272 Q322 179 337 154 Q358 120 432 120 Q473 120 519 131 L519 -8 Q456 -16 393 -16 Q236 -16 189 61 Q169 93 164.5 142 Q160 191 160 363 L160 856 L-7 856 L-7 990 L160 990 L160 1283 L322 1283 L322 990 L519 990 Z M418 -123 L418 -255 Q418 -467 241 -486 L241 -417 Q327 -397 335 -292 L241 -292 L241 -123 L418 -123 Z " />
<glyph glyph-name="Tcaron" unicode="&#x164;" horiz-adv-x="1158" d="M1128 1365 L1128 1208 L669 1208 L669 0 L489 0 L489 1208 L30 1208 L30 1365 L1128 1365 Z M278 1731 L463 1731 L584 1565 L713 1731 L880 1731 L682 1477 L479 1477 L278 1731 Z " />
<glyph glyph-name="tcaron" unicode="&#x165;" horiz-adv-x="718" d="M519 990 L519 856 L322 856 L322 272 Q322 179 337 154 Q358 120 432 120 Q473 120 519 131 L519 -8 Q456 -16 393 -16 Q236 -16 189 61 Q169 93 164.5 142 Q160 191 160 363 L160 856 L-7 856 L-7 990 L160 990 L160 1283 L322 1283 L322 990 L519 990 Z M622 1476 L622 1343 Q622 1132 445 1113 L445 1182 Q530 1202 539 1307 L445 1307 L445 1476 L622 1476 Z " />
<glyph glyph-name="Tbar" unicode="&#x166;" horiz-adv-x="1158" d="M1128 1365 L1128 1208 L669 1208 L669 819 L983 819 L983 682 L669 682 L669 0 L489 0 L489 682 L175 682 L175 819 L489 819 L489 1208 L30 1208 L30 1365 L1128 1365 Z " />
<glyph glyph-name="tbar" unicode="&#x167;" horiz-adv-x="578" d="M519 990 L519 856 L322 856 L322 668 L498 668 L498 549 L322 549 L322 272 Q322 179 337 154 Q357 120 431 120 Q472 120 519 131 L519 -8 Q455 -16 393 -16 Q236 -16 189 61 Q169 92 164.5 141.5 Q160 191 160 363 L160 549 L7 549 L7 668 L160 668 L160 856 L-7 856 L-7 990 L160 990 L160 1283 L322 1283 L322 990 L519 990 Z " />
<glyph glyph-name="Utilde" unicode="&#x168;" horiz-adv-x="1373" d="M1236 1365 L1236 569 Q1236 385 1214 307 Q1118 -32 691 -32 Q463 -32 335 56 Q192 154 155 332 Q137 416 137 572 L137 1365 L317 1365 L317 566 Q317 434 326.5 378 Q336 322 367 267 Q448 121 694 121 Q928 121 1005 256 Q1035 309 1045.5 373 Q1056 437 1056 567 L1056 1365 L1236 1365 Z M1014 1719 Q1001 1618 949.5 1561 Q898 1504 820 1504 Q771 1504 688 1535 Q573 1578 541 1578 Q476 1578 451 1493 L360 1493 Q372 1594 424 1649.5 Q476 1705 559 1705 Q599 1705 630.5 1696 Q662 1687 768 1644 Q796 1633 828 1633 Q898 1633 919 1719 L1014 1719 Z " />
<glyph glyph-name="utilde" unicode="&#x169;" horiz-adv-x="1105" d="M962 990 L962 0 L810 0 L810 155 Q756 66 667 18.5 Q578 -29 467 -29 Q291 -29 203 79 Q137 160 137 347 L137 990 L299 990 L299 406 Q299 242 331 191 Q383 108 513 108 Q681 108 761 255 Q800 326 800 511 L800 990 L962 990 Z M857 1387 Q844 1285 797.5 1229 Q751 1173 679 1173 Q637 1173 561 1204 Q457 1247 428 1247 Q370 1247 348 1162 L262 1162 Q273 1264 320.5 1319 Q368 1374 444 1374 Q480 1374 509 1364.5 Q538 1355 634 1312 Q659 1301 687 1301 Q748 1301 768 1387 L857 1387 Z " />
<glyph glyph-name="Umacron" unicode="&#x16a;" horiz-adv-x="1373" d="M1236 1365 L1236 569 Q1236 386 1214 308 Q1118 -31 691 -31 Q463 -31 335 57 Q192 154 155 333 Q137 416 137 572 L137 1365 L317 1365 L317 566 Q317 436 326.5 378.5 Q336 321 367 267 Q449 122 694 122 Q928 122 1005 257 Q1035 308 1045.5 373 Q1056 438 1056 567 L1056 1365 L1236 1365 Z M1009 1651 L1009 1534 L364 1534 L364 1651 L1009 1651 Z " />
<glyph glyph-name="umacron" unicode="&#x16b;" horiz-adv-x="1105" d="M962 990 L962 0 L810 0 L810 155 Q756 66 667 18.5 Q578 -29 467 -29 Q291 -29 203 79 Q137 160 137 347 L137 990 L299 990 L299 406 Q299 242 331 191 Q383 108 513 108 Q681 108 761 255 Q800 326 800 511 L800 990 L962 990 Z M841 1307 L841 1195 L265 1195 L265 1307 L841 1307 Z " />
<glyph glyph-name="Ubreve" unicode="&#x16c;" horiz-adv-x="1373" d="M1236 1365 L1236 569 Q1236 386 1214 308 Q1118 -31 691 -31 Q463 -31 335 57 Q192 154 155 333 Q137 416 137 572 L137 1365 L317 1365 L317 566 Q317 436 326.5 378.5 Q336 321 367 267 Q449 122 694 122 Q928 122 1005 257 Q1035 308 1045.5 373 Q1056 438 1056 567 L1056 1365 L1236 1365 Z M984 1748 Q974 1650 929 1588 Q848 1478 682 1478 Q515 1478 437 1591 Q392 1655 389 1748 L485 1748 Q521 1609 691 1609 Q774 1609 820.5 1641.5 Q867 1674 889 1748 L984 1748 Z " />
<glyph glyph-name="ubreve" unicode="&#x16d;" horiz-adv-x="1105" d="M962 990 L962 0 L810 0 L810 155 Q756 66 667 18.5 Q578 -29 467 -29 Q291 -29 203 79 Q137 160 137 347 L137 990 L299 990 L299 406 Q299 242 331 191 Q383 108 513 108 Q681 108 761 255 Q800 326 800 511 L800 990 L962 990 Z M824 1405 Q813 1294 781 1243 Q712 1133 545 1133 Q368 1133 309 1263 Q285 1316 281 1405 L373 1405 Q382 1340 408 1309 Q453 1255 556 1255 Q637 1255 676.5 1288.5 Q716 1322 733 1405 L824 1405 Z " />
<glyph glyph-name="Uring" unicode="&#x16e;" horiz-adv-x="1373" d="M1236 1365 L1236 569 Q1236 386 1214 308 Q1118 -31 691 -31 Q463 -31 335 57 Q192 154 155 333 Q137 416 137 572 L137 1365 L317 1365 L317 566 Q317 436 326.5 378.5 Q336 321 367 267 Q449 122 694 122 Q928 122 1005 257 Q1035 308 1045.5 373 Q1056 438 1056 567 L1056 1365 L1236 1365 Z M689 1883 Q781 1883 847 1811 Q903 1749 903 1665 Q903 1568 831 1503 Q769 1447 685 1447 Q588 1447 523 1519 Q467 1581 467 1667 Q467 1761 539 1827 Q601 1883 689 1883 Z M684 1785 Q634 1785 598.5 1750.5 Q563 1716 563 1666 Q563 1615 597.5 1580 Q632 1545 682 1545 Q733 1545 769 1580.5 Q805 1616 805 1665 Q805 1713 769 1749 Q733 1785 684 1785 Z " />
<glyph glyph-name="uring" unicode="&#x16f;" horiz-adv-x="1105" d="M962 990 L962 0 L810 0 L810 155 Q756 66 667 18.5 Q578 -29 467 -29 Q291 -29 203 79 Q137 160 137 347 L137 990 L299 990 L299 406 Q299 242 331 191 Q383 108 513 108 Q681 108 761 255 Q800 326 800 511 L800 990 L962 990 Z M555 1506 Q643 1506 705 1437 Q758 1378 758 1299 Q758 1207 690 1145 Q631 1092 551 1092 Q459 1092 398 1161 Q345 1219 345 1301 Q345 1390 413 1453 Q472 1506 555 1506 Z M550 1419 Q500 1419 465 1384.5 Q430 1350 430 1300 Q430 1249 464.5 1214 Q499 1179 549 1179 Q599 1179 634.5 1214.5 Q670 1250 670 1299 Q670 1348 634.5 1383.5 Q599 1419 550 1419 Z " />
<glyph glyph-name="Uhungarumlaut" unicode="&#x170;" horiz-adv-x="1373" d="M1236 1365 L1236 569 Q1236 386 1214 308 Q1118 -31 691 -31 Q463 -31 335 57 Q192 154 155 333 Q137 416 137 572 L137 1365 L317 1365 L317 566 Q317 436 326.5 378.5 Q336 321 367 267 Q449 122 694 122 Q928 122 1005 257 Q1035 308 1045.5 373 Q1056 438 1056 567 L1056 1365 L1236 1365 Z M1077 1734 L894 1475 L774 1475 L889 1734 L1077 1734 Z M763 1734 L580 1475 L460 1475 L575 1734 L763 1734 Z " />
<glyph glyph-name="uhungarumlaut" unicode="&#x171;" horiz-adv-x="1105" d="M962 990 L962 0 L810 0 L810 155 Q756 66 667 18.5 Q578 -29 467 -29 Q291 -29 203 79 Q137 160 137 347 L137 990 L299 990 L299 406 Q299 242 331 191 Q383 108 513 108 Q681 108 761 255 Q800 326 800 511 L800 990 L962 990 Z M889 1399 L728 1126 L626 1126 L716 1399 L889 1399 Z M616 1399 L455 1126 L353 1126 L443 1399 L616 1399 Z " />
<glyph glyph-name="Uogonek" unicode="&#x172;" horiz-adv-x="1373" d="M1056 1365 L1236 1365 L1236 569 Q1236 430 1226.5 364 Q1217 298 1186 233 Q1156 168 1117.5 125 Q1079 82 999 25 Q938 -21 925 -32 Q866 -85 866 -153 Q866 -196 904 -224 Q942 -252 1001 -252 Q1033 -252 1084 -236 L1084 -326 Q1020 -346 967 -346 Q863 -346 804 -295 Q749 -248 749 -173 Q749 -128 770 -93.5 Q791 -59 846 -17 Q749 -31 676 -31 Q349 -31 215 182 Q171 251 154 336 Q137 421 137 572 L137 1365 L317 1365 L317 566 Q317 436 326.5 378.5 Q336 321 367 267 Q449 122 694 122 Q928 122 1005 257 Q1035 308 1045.5 373 Q1056 438 1056 567 L1056 1365 Z " />
<glyph glyph-name="uogonek" unicode="&#x173;" horiz-adv-x="1105" d="M137 990 L299 990 L299 406 Q299 242 331 191 Q383 108 513 108 Q681 108 761 255 Q800 326 800 511 L800 990 L962 990 L962 0 Q834 -62 834 -164 Q834 -209 871.5 -237 Q909 -265 969 -265 Q1001 -265 1051 -250 L1052 -339 Q988 -359 934 -359 Q831 -359 772 -308 Q718 -261 718 -193 Q718 -75 859 0 L810 0 L810 155 Q756 66 667 18.5 Q578 -29 467 -29 Q291 -29 203 79 Q137 160 137 347 L137 990 Z " />
<glyph glyph-name="Wcircumflex" unicode="&#x174;" horiz-adv-x="1775" d="M1755 1365 L1391 0 L1201 0 L970 835 Q913 1043 886 1194 Q856 1050 797 846 L568 0 L375 0 L21 1365 L208 1365 L410 528 Q460 322 481 186 Q502 312 562 532 L790 1365 L988 1365 L1221 513 Q1267 343 1295 186 Q1315 311 1364 509 L1574 1365 L1755 1365 Z M1189 1477 L1004 1477 L882 1643 L754 1477 L587 1477 L784 1731 L988 1731 L1189 1477 Z " />
<glyph glyph-name="wcircumflex" unicode="&#x175;" horiz-adv-x="1407" d="M1398 990 L1082 0 L909 0 L761 541 Q732 647 703 787 Q672 646 645 542 L504 0 L327 0 L10 990 L190 990 L327 516 Q373 358 416 180 Q464 406 494 521 L616 990 L796 990 L939 464 Q965 365 1003 180 Q1040 345 1073 460 L1227 990 L1398 990 Z M992 1133 L827 1133 L699 1316 L563 1133 L416 1133 L614 1407 L790 1407 L992 1133 Z " />
<glyph glyph-name="Ycircumflex" unicode="&#x176;" horiz-adv-x="1198" d="M1218 1365 L692 559 L692 0 L512 0 L512 559 L-20 1365 L197 1365 L519 855 Q577 763 608 707 Q640 768 692 851 L1012 1365 L1218 1365 Z M907 1477 L722 1477 L600 1643 L472 1477 L305 1477 L502 1731 L706 1731 L907 1477 Z " />
<glyph glyph-name="ycircumflex" unicode="&#x177;" horiz-adv-x="928" d="M927 990 L563 32 Q465 -224 427 -286 Q357 -398 215 -398 Q165 -398 120 -388 L95 -382 L95 -236 Q164 -257 200 -257 Q260 -257 293 -212 Q326 -167 392 6 L1 990 L184 990 L401 410 Q423 350 476 181 Q523 331 556 425 L755 990 L927 990 Z M752 1133 L587 1133 L459 1315 L323 1133 L177 1133 L374 1406 L551 1406 L752 1133 Z " />
<glyph glyph-name="Zacute" unicode="&#x179;" horiz-adv-x="1193" d="M1122 1365 L1122 1216 L346 252 L262 153 Q469 157 513 157 L1143 157 L1143 0 L53 0 L53 153 L837 1126 Q842 1132 913 1212 Q793 1208 671 1208 L120 1208 L120 1365 L1122 1365 Z M878 1734 L641 1475 L507 1475 L663 1734 L878 1734 Z " />
<glyph glyph-name="zacute" unicode="&#x17a;" horiz-adv-x="904" d="M859 990 L859 882 L327 220 Q316 207 253 133 Q330 134 376 134 L884 134 L884 0 L48 0 L48 121 L566 765 Q583 786 649 857 Q575 856 556 856 L86 856 L86 990 L859 990 Z M726 1399 L496 1126 L383 1126 L525 1399 L726 1399 Z " />
<glyph glyph-name="Zdotaccent" unicode="&#x17b;" horiz-adv-x="1193" d="M1122 1365 L1122 1216 L346 252 L262 153 Q469 157 513 157 L1143 157 L1143 0 L53 0 L53 153 L837 1126 Q842 1132 913 1212 Q793 1208 671 1208 L120 1208 L120 1365 L1122 1365 Z M706 1697 L706 1509 L529 1509 L529 1697 L706 1697 Z " />
<glyph glyph-name="zdotaccent" unicode="&#x17c;" horiz-adv-x="904" d="M859 990 L859 882 L327 220 Q316 207 253 133 Q330 134 376 134 L884 134 L884 0 L48 0 L48 121 L566 765 Q583 786 649 857 Q575 856 556 856 L86 856 L86 990 L859 990 Z M574 1368 L574 1174 L399 1174 L399 1368 L574 1368 Z " />
<glyph glyph-name="Zcaron" unicode="&#x17d;" horiz-adv-x="1193" d="M1122 1365 L1122 1216 L346 252 L262 153 Q469 157 513 157 L1143 157 L1143 0 L53 0 L53 153 L837 1126 Q842 1132 913 1212 Q793 1208 671 1208 L120 1208 L120 1365 L1122 1365 Z M316 1731 L502 1731 L623 1565 L752 1731 L919 1731 L721 1477 L517 1477 L316 1731 Z " />
<glyph glyph-name="zcaron" unicode="&#x17e;" horiz-adv-x="904" d="M859 990 L859 882 L327 220 Q316 207 253 133 Q330 134 376 134 L884 134 L884 0 L48 0 L48 121 L566 765 Q583 786 649 857 Q575 856 556 856 L86 856 L86 990 L859 990 Z M761 1406 L563 1133 L386 1133 L184 1406 L348 1406 L478 1223 L614 1406 L761 1406 Z " />
<glyph glyph-name="longs" unicode="&#x17f;" horiz-adv-x="574" d="M555 1370 L555 1231 Q506 1241 462 1241 Q387 1241 363 1214 Q339 1187 339 1104 L339 0 L177 0 L177 856 L11 856 L11 990 L177 990 L177 1055 Q177 1159 184.5 1201.5 Q192 1244 216 1279 Q283 1377 441 1377 Q489 1377 555 1370 Z " />
<glyph glyph-name="uni018F" unicode="&#x18f;" horiz-adv-x="1487" d="M211 1126 Q401 1396 745 1396 Q1036 1396 1217 1199 Q1397 1003 1397 686 Q1397 401 1257 213 Q1074 -31 742 -31 Q412 -31 228 216 Q90 401 90 680 Q90 713 92 749 L1212 749 Q1200 908 1132 1023 Q1004 1243 741 1243 Q492 1243 366 1058 L211 1126 Z M1211 603 L276 603 Q289 466 338 369 Q399 245 522 178 Q625 122 746 122 Q893 122 1008 202 Q1183 325 1211 603 Z " />
<glyph glyph-name="Ohorn" unicode="&#x1a0;" horiz-adv-x="1491" d="M1267 1130 Q1359 1142 1352 1284 L1249 1284 L1249 1476 L1443 1476 L1443 1282 Q1443 1104 1311 1059 Q1401 890 1401 668 Q1401 429 1288 247 Q1184 80 1005 7 Q883 -43 735 -43 Q478 -43 307 102 Q185 205 126 361 Q69 509 69 673 Q69 917 182 1099 Q285 1265 465 1338 Q587 1388 736 1388 Q1080 1388 1267 1130 Z M734 1230 Q532 1230 400 1097 Q329 1024 291 918 Q250 801 250 673 Q250 489 325 350 Q395 222 525 161 Q623 115 735 115 Q939 115 1070 248 Q1141 320 1179 427 Q1220 543 1220 665 Q1220 943 1070 1097 Q940 1230 734 1230 Z " />
<glyph glyph-name="ohorn" unicode="&#x1a1;" horiz-adv-x="1073" d="M883 818 Q964 836 958 970 L855 970 L855 1162 L1049 1162 L1049 968 Q1049 793 919 746 Q963 638 963 479 Q963 245 851 105 Q732 -43 513 -43 Q295 -43 176 105 Q64 245 64 484 Q64 722 176 862 Q296 1011 514 1011 Q754 1011 883 818 Z M513 861 Q382 861 307.5 760.5 Q233 660 233 484 Q233 329 291 230 Q326 172 385 139 Q444 106 513 106 Q583 106 642.5 139 Q702 172 736 230 Q794 329 794 479 Q794 639 736 737 Q702 793 646 826 Q585 861 513 861 Z " />
<glyph glyph-name="Uhorn" unicode="&#x1af;" horiz-adv-x="1452" d="M1037 1365 L1218 1365 L1218 408 Q1218 189 1055 66 Q911 -43 686 -43 Q458 -43 315 66 Q157 186 157 408 L157 1365 L338 1365 L338 408 Q338 259 437 186 Q533 115 686 115 Q837 115 933 186 Q1037 262 1037 408 L1037 1365 Z M1261 1476 L1454 1476 L1454 1282 Q1454 1192 1414 1128 Q1393 1096 1356.5 1074 Q1320 1052 1285 1052 L1275 1052 L1261 1053 L1261 1129 Q1315 1130 1339.5 1166.5 Q1364 1203 1364 1284 L1261 1284 L1261 1476 Z " />
<glyph glyph-name="uhorn" unicode="&#x1b0;" horiz-adv-x="1142" d="M911 0 L764 0 L764 130 Q711 57 658 20 Q565 -43 437 -43 Q308 -43 223 17 Q120 89 120 226 L120 983 L282 983 L282 288 Q282 191 346 142 Q403 99 483 99 Q593 99 668 178 Q749 264 749 427 L749 983 L911 983 L911 0 Z M951 1162 L1145 1162 L1145 968 Q1145 865 1095 801.5 Q1045 738 965 738 Q962 738 951 739 L951 815 Q1006 817 1030 853 Q1054 889 1054 970 L951 970 L951 1162 Z " />
<glyph glyph-name="uni01C4" unicode="&#x1c4;" horiz-adv-x="2370" d="M171 1365 L661 1365 Q816 1365 915 1334.5 Q1014 1304 1096 1231 Q1296 1052 1296 711 Q1296 347 1104 151 Q1020 66 928 33 Q836 0 681 0 L171 0 L171 1365 Z M351 1208 L351 157 L646 157 Q785 157 857 180 Q929 203 985 265 Q1114 409 1114 703 Q1114 953 1001 1080.5 Q888 1208 665 1208 L351 1208 Z M2299 1365 L2299 1216 L1522 252 L1438 153 Q1645 157 1689 157 L2319 157 L2319 0 L1230 0 L1230 153 L2014 1126 Q2021 1135 2090 1212 Q1969 1208 1847 1208 L1296 1208 L1296 1365 L2299 1365 Z M2093 1789 L1895 1516 L1718 1516 L1516 1789 L1680 1789 L1810 1605 L1946 1789 L2093 1789 Z " />
<glyph glyph-name="uni01C5" unicode="&#x1c5;" horiz-adv-x="2175" d="M2029 1406 L1831 1133 L1653 1133 L1451 1406 L1616 1406 L1746 1223 L1882 1406 L2029 1406 Z M157 1365 L647 1365 Q802 1365 901 1334.5 Q1000 1304 1082 1231 Q1282 1052 1282 711 Q1282 347 1090 151 Q1006 66 914 33 Q822 0 667 0 L157 0 L157 1365 Z M337 1208 L337 157 L632 157 Q771 157 843 180 Q915 203 971 265 Q1100 409 1100 703 Q1100 953 987 1080.5 Q874 1208 651 1208 L337 1208 Z M2130 990 L2130 882 L1598 220 Q1589 209 1524 133 Q1601 134 1647 134 L2155 134 L2155 0 L1319 0 L1319 121 L1837 765 Q1853 785 1920 857 Q1846 856 1827 856 L1357 856 L1357 990 L2130 990 Z " />
<glyph glyph-name="uni01C6" unicode="&#x1c6;" horiz-adv-x="1914" d="M1868 990 L1868 882 L1337 220 Q1327 208 1263 133 Q1340 134 1385 134 L1893 134 L1893 0 L1057 0 L1057 121 L1575 765 Q1592 785 1658 857 Q1584 856 1565 856 L1096 856 L1096 990 L1868 990 Z M955 1365 L955 0 L802 0 L802 146 Q760 62 676 16.5 Q592 -29 478 -29 Q275 -29 150 108 Q20 249 20 497 Q20 740 142 877 Q269 1019 465 1019 Q580 1019 664 976 Q748 933 793 853 L793 1365 L955 1365 Z M494 882 Q356 882 275 786 Q187 683 187 500 Q187 321 274 211 Q356 108 493 108 Q634 108 716 211 Q797 313 797 493 Q797 693 705 791 Q619 882 494 882 Z M1810 1406 L1612 1133 L1434 1133 L1233 1406 L1397 1406 L1527 1223 L1663 1406 L1810 1406 Z " />
<glyph glyph-name="uni01C7" unicode="&#x1c7;" horiz-adv-x="2074" d="M1062 157 L1062 0 L157 0 L157 1365 L337 1365 L337 157 L1062 157 Z M1935 1365 L1935 440 Q1935 315 1924.5 253 Q1914 191 1883 137 Q1787 -32 1542 -32 Q1265 -32 1176 156 Q1134 245 1134 399 Q1134 421 1136 451 L1312 451 Q1311 418 1311 401 Q1311 265 1349 206 Q1405 121 1540 121 Q1669 121 1719 204 Q1755 265 1755 439 L1755 1365 L1935 1365 Z " />
<glyph glyph-name="uni01C8" unicode="&#x1c8;" horiz-adv-x="1519" d="M1062 157 L1062 0 L157 0 L157 1365 L337 1365 L337 157 L1062 157 Z M1375 990 L1375 -25 Q1375 -166 1369 -214.5 Q1363 -263 1341 -302 Q1287 -398 1124 -398 Q1090 -398 1050 -392 L1050 -254 Q1083 -261 1108 -261 Q1157 -261 1179 -246.5 Q1201 -232 1207 -197 Q1213 -161 1213 -26 L1213 990 L1375 990 Z M1375 1365 L1375 1166 L1213 1166 L1213 1365 L1375 1365 Z " />
<glyph glyph-name="uni01C9" unicode="&#x1c9;" horiz-adv-x="709" d="M565 990 L565 -25 Q565 -166 559 -214.5 Q553 -263 531 -302 Q477 -398 314 -398 Q280 -398 240 -392 L240 -254 Q273 -261 298 -261 Q347 -261 369 -246.5 Q391 -232 397 -197 Q403 -161 403 -26 L403 990 L565 990 Z M565 1365 L565 1166 L403 1166 L403 1365 L565 1365 Z M305 1365 L305 0 L143 0 L143 1365 L305 1365 Z " />
<glyph glyph-name="uni01CA" unicode="&#x1ca;" horiz-adv-x="2262" d="M1249 1365 L1249 0 L1050 0 L563 736 Q377 1017 317 1143 Q328 1002 329 689 L330 0 L157 0 L157 1365 L352 1365 L862 588 Q1016 354 1089 215 Q1079 454 1078 682 L1076 1365 L1249 1365 Z M2123 1365 L2123 440 Q2123 315 2112.5 253 Q2102 191 2071 137 Q1976 -32 1730 -32 Q1453 -32 1364 156 Q1322 245 1322 399 Q1322 421 1324 451 L1500 451 Q1499 418 1499 401 Q1499 265 1537 206 Q1593 121 1728 121 Q1857 121 1907 204 Q1943 265 1943 439 L1943 1365 L2123 1365 Z " />
<glyph glyph-name="uni01CB" unicode="&#x1cb;" horiz-adv-x="1699" d="M1249 1365 L1249 0 L1050 0 L563 736 Q377 1017 317 1143 Q328 1002 329 689 L330 0 L157 0 L157 1365 L352 1365 L862 588 Q1016 354 1089 215 Q1079 454 1078 682 L1076 1365 L1249 1365 Z M1555 990 L1555 -25 Q1555 -166 1549 -214.5 Q1543 -263 1521 -302 Q1467 -398 1304 -398 Q1270 -398 1230 -392 L1230 -254 Q1263 -261 1288 -261 Q1363 -261 1378 -227 Q1393 -193 1393 -26 L1393 990 L1555 990 Z M1555 1365 L1555 1166 L1393 1166 L1393 1365 L1555 1365 Z " />
<glyph glyph-name="uni01CC" unicode="&#x1cc;" horiz-adv-x="1431" d="M1274 990 L1274 -25 Q1274 -166 1268 -214.5 Q1262 -263 1240 -302 Q1186 -398 1023 -398 Q989 -398 949 -392 L949 -254 Q982 -261 1007 -261 Q1056 -261 1078 -246.5 Q1100 -232 1106 -197 Q1112 -161 1112 -26 L1112 990 L1274 990 Z M1274 1365 L1274 1166 L1112 1166 L1112 1365 L1274 1365 Z M296 990 L296 836 Q338 899 376 930 Q482 1019 640 1019 Q775 1019 861 950 Q920 903 942.5 836 Q965 769 965 640 L965 0 L803 0 L803 583 Q803 749 769 800 Q716 882 589 882 Q463 882 386 800 Q340 752 323 683.5 Q306 615 306 479 L306 0 L144 0 L144 990 L296 990 Z " />
<glyph glyph-name="uni01CD" unicode="&#x1cd;" horiz-adv-x="1297" d="M751 1371 L1284 0 L1084 0 L931 419 L358 419 L202 0 L12 0 L548 1371 L751 1371 Z M878 565 L744 928 Q675 1112 646 1204 Q615 1112 548 935 L410 565 L878 565 Z M347 1731 L532 1731 L654 1565 L782 1731 L949 1731 L752 1477 L548 1477 L347 1731 Z " />
<glyph glyph-name="uni01CE" unicode="&#x1ce;" horiz-adv-x="1036" d="M993 131 L993 4 Q936 -16 879 -16 Q812 -16 775 22 Q738 60 736 131 Q597 -29 378 -29 Q239 -29 157 39 Q62 117 62 253 Q62 448 248 523 Q295 542 338.5 550 Q382 558 552 578 Q652 591 689 619 Q726 647 726 710 Q726 883 503 883 Q386 883 328.5 835 Q271 787 260 680 L101 680 Q105 840 214 929.5 Q323 1019 515 1019 Q723 1019 825 922 Q862 886 877 833.5 Q892 781 892 688 Q892 577 886 281 Q885 226 885 221 Q885 166 899.5 143.5 Q914 121 949 121 Q969 121 993 131 Z M729 514 Q695 489 656 478.5 Q617 468 510 454 Q367 436 312 408 Q229 365 229 267 Q229 189 281.5 143.5 Q334 98 425 98 Q508 98 581 133.5 Q654 169 697 231 Q729 275 729 366 L729 514 Z M793 1406 L595 1133 L418 1133 L216 1406 L380 1406 L511 1223 L646 1406 L793 1406 Z " />
<glyph glyph-name="uni01CF" unicode="&#x1cf;" horiz-adv-x="494" d="M337 1365 L337 0 L157 0 L157 1365 L337 1365 Z M-54 1731 L131 1731 L253 1565 L381 1731 L548 1731 L351 1477 L147 1477 L-54 1731 Z " />
<glyph glyph-name="uni01D0" unicode="&#x1d0;" horiz-adv-x="450" d="M305 990 L305 0 L143 0 L143 990 L305 990 Z M513 1407 L315 1133 L138 1133 L-64 1407 L100 1407 L231 1223 L367 1407 L513 1407 Z " />
<glyph glyph-name="uni01D1" unicode="&#x1d1;" horiz-adv-x="1487" d="M755 1397 Q1035 1397 1217 1200 Q1397 1004 1397 686 Q1397 401 1257 214 Q1074 -31 742 -31 Q412 -31 228 216 Q90 401 90 682 Q90 1012 270 1200 Q458 1397 755 1397 Z M751 1244 Q538 1244 407 1098 Q272 950 272 686 Q272 442 385 294 Q453 205 563 159 Q649 122 746 122 Q939 122 1063 249 Q1215 404 1215 684 Q1215 937 1084 1092 Q955 1244 751 1244 Z M442 1731 L627 1731 L749 1565 L877 1731 L1044 1731 L847 1477 L643 1477 L442 1731 Z " />
<glyph glyph-name="uni01D2" unicode="&#x1d2;" horiz-adv-x="1118" d="M568 1019 Q782 1019 915 873 Q1039 736 1039 496 Q1039 232 891 89 Q770 -29 566 -29 Q331 -29 203 123 Q81 267 81 495 Q81 713 191 852 Q323 1019 568 1019 Z M558 883 Q428 883 343 791 Q247 686 247 496 Q247 302 340 200 Q425 107 565 107 Q691 107 768 186 Q873 292 873 496 Q873 685 782 788 Q698 883 558 883 Z M849 1407 L651 1133 L473 1133 L272 1407 L436 1407 L566 1223 L702 1407 L849 1407 Z " />
<glyph glyph-name="uni01D3" unicode="&#x1d3;" horiz-adv-x="1373" d="M1236 1365 L1236 569 Q1236 386 1214 308 Q1118 -31 691 -31 Q463 -31 335 57 Q192 154 155 333 Q137 416 137 572 L137 1365 L317 1365 L317 566 Q317 436 326.5 378.5 Q336 321 367 267 Q449 122 694 122 Q928 122 1005 257 Q1035 308 1045.5 373 Q1056 438 1056 567 L1056 1365 L1236 1365 Z M385 1731 L571 1731 L692 1565 L821 1731 L988 1731 L790 1477 L587 1477 L385 1731 Z " />
<glyph glyph-name="uni01D4" unicode="&#x1d4;" horiz-adv-x="1105" d="M962 990 L962 0 L810 0 L810 155 Q756 66 667 18.5 Q578 -29 467 -29 Q291 -29 203 79 Q137 160 137 347 L137 990 L299 990 L299 406 Q299 242 331 191 Q383 108 513 108 Q681 108 761 255 Q800 326 800 511 L800 990 L962 990 Z M841 1406 L643 1133 L466 1133 L264 1406 L428 1406 L559 1223 L695 1406 L841 1406 Z " />
<glyph glyph-name="uni01DD" unicode="&#x1dd;" horiz-adv-x="1080" d="M91 673 Q169 1019 524 1019 Q764 1019 887 856 Q992 717 992 503 Q992 270 864 122 Q733 -29 529 -29 Q362 -29 244 72 Q156 147 117.5 256 Q79 365 80 537 L825 537 Q814 883 513 883 Q409 883 347 833.5 Q285 784 251 673 L91 673 Z M248 403 Q256 301 298 234 Q378 107 534 107 Q657 107 730 182 Q803 257 823 403 L248 403 Z " />
<glyph glyph-name="Gcaron" unicode="&#x1e6;" horiz-adv-x="1469" d="M1342 721 L1342 0 L1227 0 L1200 104 Q1189 146 1181 171 Q1015 -32 742 -32 Q414 -32 235 205 Q90 395 90 669 Q90 990 276 1199 Q453 1397 754 1397 Q1032 1397 1192 1233 Q1310 1112 1327 946 L1150 946 Q1129 1081 1021 1162.5 Q913 1244 754 1244 Q523 1244 391 1078 Q272 927 272 676 Q272 446 381 299 Q513 121 754 121 Q940 121 1059 239 Q1177 354 1181 575 L744 575 L744 721 L1342 721 Z M447 1731 L632 1731 L754 1565 L882 1731 L1049 1731 L852 1477 L648 1477 L447 1731 Z " />
<glyph glyph-name="gcaron" unicode="&#x1e7;" horiz-adv-x="1133" d="M989 990 L989 108 Q989 -15 974 -88 Q959 -161 922 -223 Q811 -404 529 -404 Q323 -404 211 -310 Q129 -241 113 -112 L280 -112 Q309 -277 535 -277 Q705 -277 773 -179 Q825 -104 827 49 L828 169 Q796 114 768 85 Q672 -13 511 -13 Q318 -13 198 125 Q79 262 79 491 Q79 734 205 877 Q330 1019 522 1019 Q628 1019 703.5 977.5 Q779 936 837 847 L837 990 L989 990 Z M540 882 Q390 882 314 767 Q246 666 246 508 Q246 289 352 193 Q429 124 534 124 Q679 124 758 245 Q825 349 825 513 Q825 715 725 811 Q650 882 540 882 Z M835 1406 L637 1133 L459 1133 L257 1406 L422 1406 L552 1223 L688 1406 L835 1406 Z " />
<glyph glyph-name="uni01F4" unicode="&#x1f4;" horiz-adv-x="1469" d="M1342 721 L1342 0 L1227 0 L1200 104 Q1189 146 1181 171 Q1015 -32 742 -32 Q414 -32 235 205 Q90 395 90 669 Q90 990 276 1199 Q453 1397 754 1397 Q1032 1397 1192 1233 Q1310 1112 1327 946 L1150 946 Q1129 1081 1021 1162.5 Q913 1244 754 1244 Q523 1244 391 1078 Q272 927 272 676 Q272 446 381 299 Q513 121 754 121 Q940 121 1059 239 Q1177 354 1181 575 L744 575 L744 721 L1342 721 Z M1008 1734 L772 1475 L638 1475 L794 1734 L1008 1734 Z " />
<glyph glyph-name="uni01F5" unicode="&#x1f5;" horiz-adv-x="1133" d="M990 990 L990 108 Q990 -15 975.5 -88 Q961 -161 923 -223 Q814 -404 531 -404 Q325 -404 213 -310 Q132 -241 115 -112 L282 -112 Q311 -277 536 -277 Q707 -277 775 -179 Q827 -104 829 49 L830 169 Q798 114 770 85 Q674 -13 514 -13 Q320 -13 200 125 Q81 262 81 491 Q81 733 207 877 Q332 1019 524 1019 Q727 1019 839 846 L839 990 L990 990 Z M532 883 Q392 883 316 768 Q248 666 248 503 Q248 289 354 193 Q431 124 536 124 Q681 124 760 246 Q827 350 827 518 Q827 611 800.5 688.5 Q774 766 727 811 Q652 883 532 883 Z M754 1400 L524 1127 L411 1127 L553 1400 L754 1400 Z " />
<glyph glyph-name="Aringacute" unicode="&#x1fa;" horiz-adv-x="1297" d="M751 1371 L1284 0 L1084 0 L932 419 L358 419 L202 0 L12 0 L548 1371 L751 1371 Z M878 565 L744 928 Q675 1113 647 1204 Q617 1119 548 935 L410 565 L878 565 Z M657 1840 Q750 1840 815 1768 Q871 1706 871 1623 Q871 1526 799 1461 Q737 1405 653 1405 Q556 1405 491 1477 Q435 1539 435 1624 Q435 1718 507 1784 Q568 1840 657 1840 Z M648 1742 Q600 1742 565 1707 Q530 1672 530 1622 Q530 1573 565 1538 Q600 1503 650 1503 Q701 1503 737 1538 Q773 1573 773 1623 Q773 1672 736.5 1707 Q700 1742 648 1742 Z M715 2047 L478 1788 L345 1788 L500 2047 L715 2047 Z " />
<glyph glyph-name="aringacute" unicode="&#x1fb;" horiz-adv-x="1036" d="M993 131 L993 4 Q937 -17 877 -17 Q811 -17 774.5 21.5 Q738 60 736 131 Q597 -29 378 -29 Q239 -29 157 38 Q62 117 62 251 Q62 447 248 522 Q296 541 339.5 549 Q383 557 552 578 Q651 590 688.5 618 Q726 646 726 708 Q726 882 503 882 Q386 882 328.5 834.5 Q271 787 260 680 L101 680 Q104 839 214 929 Q324 1019 515 1019 Q723 1019 825 921 Q865 883 878.5 829.5 Q892 776 892 659 Q892 483 886 279 Q885 236 885 216 Q885 164 899.5 141.5 Q914 119 949 119 Q969 119 993 131 Z M729 514 Q695 489 655.5 478.5 Q616 468 510 454 Q367 436 312 408 Q229 365 229 267 Q229 189 282 143.5 Q335 98 426 98 Q508 98 580.5 133.5 Q653 169 697 231 Q729 275 729 367 L729 514 Z M507 1506 Q595 1506 657 1438 Q710 1378 710 1300 Q710 1208 641 1146 Q583 1093 503 1093 Q411 1093 349 1161 Q296 1220 296 1301 Q296 1390 365 1453 Q423 1506 507 1506 Z M498 1418 Q450 1418 415.5 1383 Q381 1348 381 1299 Q381 1250 415.5 1215.5 Q450 1181 500 1181 Q551 1181 586.5 1216 Q622 1251 622 1300 Q622 1349 586 1383.5 Q550 1418 498 1418 Z M601 1774 L371 1501 L258 1501 L400 1774 L601 1774 Z " />
<glyph glyph-name="AEacute" unicode="&#x1fc;" horiz-adv-x="1816" d="M1723 1365 L1723 1208 L1049 1208 L1049 776 L1683 776 L1683 630 L1049 630 L1049 157 L1733 157 L1733 0 L869 0 L869 402 L399 402 L201 0 L-5 0 L691 1365 L1723 1365 Z M869 548 L869 1212 L793 1212 L471 548 L869 548 Z M1363 1734 L1126 1475 L992 1475 L1148 1734 L1363 1734 Z " />
<glyph glyph-name="aeacute" unicode="&#x1fd;" horiz-adv-x="1686" d="M1605 312 Q1577 194 1505 110 Q1385 -29 1169 -29 Q913 -29 816 171 Q698 -29 414 -29 Q245 -29 148 57 Q63 132 63 265 Q63 414 182 494 Q259 546 465 569 Q610 585 654 594.5 Q698 604 715 621 Q740 646 740 712 Q740 881 515 881 Q364 881 301 798 Q271 759 263 676 L104 676 Q120 821 197 900 Q312 1017 525 1017 Q777 1017 853 867 Q953 1017 1171 1017 Q1379 1017 1496.5 881.5 Q1614 746 1614 506 Q1614 491 1613 454 L895 454 Q894 369 911 312 Q938 219 1002 166 Q1074 107 1181 107 Q1381 107 1443 312 L1605 312 Z M1445 587 Q1440 697 1392 768 Q1355 821 1295.5 851 Q1236 881 1168 881 Q1096 881 1033.5 847.5 Q971 814 936 757 Q903 702 892 587 L1445 587 Z M738 511 Q707 487 671.5 478.5 Q636 470 498 453 Q345 434 287.5 396 Q230 358 230 275 Q230 191 285.5 144.5 Q341 98 442 98 Q573 98 662 173 Q738 238 738 354 L738 511 Z M1111 1400 L881 1127 L768 1127 L910 1400 L1111 1400 Z " />
<glyph glyph-name="Oslashacute" unicode="&#x1fe;" horiz-adv-x="1487" d="M223 221 Q90 408 90 685 Q90 1007 270 1200 Q454 1397 744 1397 Q997 1397 1166 1251 L1317 1415 L1400 1337 L1245 1167 Q1298 1094 1328 1029 Q1397 880 1397 686 Q1397 400 1257 213 Q1073 -32 742 -32 Q484 -32 299 135 L142 -37 L60 42 L223 221 Z M344 353 L1052 1126 Q933 1244 742 1244 Q538 1244 406 1098 Q271 949 271 688 Q271 495 344 353 Z M1126 1035 L413 260 Q553 121 747 121 Q939 121 1064 248 Q1216 402 1216 683 Q1216 884 1126 1035 Z M1005 1734 L768 1475 L635 1475 L790 1734 L1005 1734 Z " />
<glyph glyph-name="oslashacute" unicode="&#x1ff;" horiz-adv-x="1118" d="M175 158 Q79 299 79 497 Q79 714 189 852 Q321 1019 558 1019 Q743 1019 867 919 L975 1041 L1051 971 L937 846 Q1038 706 1038 495 Q1038 232 890 89 Q769 -29 567 -29 Q370 -29 244 79 L129 -49 L54 22 L175 158 Z M288 282 L764 806 Q681 882 560 882 Q426 882 341 790 Q245 685 245 500 Q245 374 288 282 Z M825 722 L347 194 Q437 107 565 107 Q690 107 768 186 Q872 292 872 495 Q872 627 825 722 Z M811 1400 L581 1127 L468 1127 L610 1400 L811 1400 Z " />
<glyph glyph-name="uni0200" unicode="&#x200;" horiz-adv-x="1297" d="M751 1371 L1284 0 L1084 0 L931 419 L358 419 L202 0 L12 0 L548 1371 L751 1371 Z M878 565 L744 928 Q675 1112 646 1204 Q615 1112 548 935 L410 565 L878 565 Z M242 1734 L430 1734 L545 1475 L424 1475 L242 1734 Z M556 1734 L744 1734 L859 1475 L738 1475 L556 1734 Z " />
<glyph glyph-name="uni0201" unicode="&#x201;" horiz-adv-x="1036" d="M993 131 L993 4 Q936 -16 879 -16 Q812 -16 775 22 Q738 60 736 131 Q597 -29 378 -29 Q239 -29 157 39 Q62 117 62 253 Q62 448 248 523 Q295 542 338.5 550 Q382 558 552 578 Q652 591 689 619 Q726 647 726 710 Q726 883 503 883 Q386 883 328.5 835 Q271 787 260 680 L101 680 Q105 840 214 929.5 Q323 1019 515 1019 Q723 1019 825 922 Q862 886 877 833.5 Q892 781 892 688 Q892 577 886 281 Q885 226 885 221 Q885 166 899.5 143.5 Q914 121 949 121 Q969 121 993 131 Z M729 514 Q695 489 656 478.5 Q617 468 510 454 Q367 436 312 408 Q229 365 229 267 Q229 189 281.5 143.5 Q334 98 425 98 Q508 98 581 133.5 Q654 169 697 231 Q729 275 729 366 L729 514 Z M149 1423 L337 1423 L451 1164 L331 1164 L149 1423 Z M463 1423 L651 1423 L765 1164 L645 1164 L463 1423 Z " />
<glyph glyph-name="Scommaaccent" unicode="&#x218;" horiz-adv-x="1230" d="M1094 965 L920 965 Q903 1109 821 1176.5 Q739 1244 579 1244 Q450 1244 373 1198 Q271 1137 271 1017 Q271 919 344 877 Q417 835 642 787 Q781 757 855.5 732.5 Q930 708 983 674 Q1147 569 1147 385 Q1147 191 994 73 Q861 -31 616 -31 Q349 -31 201 95 Q53 221 51 451 L225 451 Q229 319 294 244 Q400 122 628 122 Q796 122 880 192 Q965 262 965 371 Q965 439 932.5 482.5 Q900 526 822 562 Q763 589 571 633 Q387 676 338 691.5 Q289 707 239 737 Q98 823 98 1006 Q98 1187 227.5 1292 Q357 1397 580 1397 Q903 1397 1031 1194 Q1089 1103 1094 965 Z M689 -123 L689 -255 Q689 -467 512 -486 L512 -417 Q597 -397 606 -292 L512 -292 L512 -123 L689 -123 Z " />
<glyph glyph-name="scommaaccent" unicode="&#x219;" horiz-adv-x="951" d="M840 702 L677 702 Q668 769 642 804 Q584 882 437 882 Q341 882 287.5 845.5 Q234 809 234 744 Q234 683 283 654.5 Q332 626 498 588 Q705 542 788 482 Q881 414 881 288 Q881 144 769 57.5 Q657 -29 470 -29 Q269 -29 160 58.5 Q51 146 45 313 L205 313 Q215 230 250 189 Q318 108 471 108 Q611 108 676 178 Q714 218 714 271 Q714 334 662.5 368.5 Q611 403 465 438 Q309 476 266 489 Q223 502 183 523 Q129 552 98 606.5 Q67 661 67 728 Q67 886 206 965 Q300 1019 444 1019 Q667 1019 771 898 Q830 829 840 702 Z M537 -123 L537 -255 Q537 -467 360 -486 L360 -417 Q445 -397 454 -292 L360 -292 L360 -123 L537 -123 Z " />
<glyph glyph-name="uni021A" unicode="&#x21a;" horiz-adv-x="1158" d="M1128 1365 L1128 1208 L669 1208 L669 0 L489 0 L489 1208 L30 1208 L30 1365 L1128 1365 Z M667 -110 L667 -242 Q667 -454 490 -473 L490 -404 Q575 -384 584 -279 L490 -279 L490 -110 L667 -110 Z " />
<glyph glyph-name="uni021B" unicode="&#x21b;" horiz-adv-x="578" d="M519 990 L519 856 L322 856 L322 272 Q322 179 337 154 Q358 120 432 120 Q473 120 519 131 L519 -8 Q456 -16 393 -16 Q236 -16 189 61 Q169 93 164.5 142 Q160 191 160 363 L160 856 L-7 856 L-7 990 L160 990 L160 1283 L322 1283 L322 990 L519 990 Z M418 -123 L418 -255 Q418 -467 241 -486 L241 -417 Q327 -397 335 -292 L241 -292 L241 -123 L418 -123 Z " />
<glyph glyph-name="uni0226" unicode="&#x226;" horiz-adv-x="1297" d="M751 1371 L1284 0 L1084 0 L931 419 L358 419 L202 0 L12 0 L548 1371 L751 1371 Z M878 565 L744 928 Q675 1112 646 1204 Q615 1112 548 935 L410 565 L878 565 Z M736 1697 L736 1509 L559 1509 L559 1697 L736 1697 Z " />
<glyph glyph-name="uni0227" unicode="&#x227;" horiz-adv-x="1036" d="M993 131 L993 4 Q936 -16 879 -16 Q812 -16 775 22 Q738 60 736 131 Q597 -29 378 -29 Q239 -29 157 39 Q62 117 62 253 Q62 448 248 523 Q295 542 338.5 550 Q382 558 552 578 Q652 591 689 619 Q726 647 726 710 Q726 883 503 883 Q386 883 328.5 835 Q271 787 260 680 L101 680 Q105 840 214 929.5 Q323 1019 515 1019 Q723 1019 825 922 Q862 886 877 833.5 Q892 781 892 688 Q892 577 886 281 Q885 226 885 221 Q885 166 899.5 143.5 Q914 121 949 121 Q969 121 993 131 Z M729 514 Q695 489 656 478.5 Q617 468 510 454 Q367 436 312 408 Q229 365 229 267 Q229 189 281.5 143.5 Q334 98 425 98 Q508 98 581 133.5 Q654 169 697 231 Q729 275 729 366 L729 514 Z M592 1368 L592 1174 L417 1174 L417 1368 L592 1368 Z " />
<glyph glyph-name="uni0237" unicode="&#x237;" horiz-adv-x="449" d="M306 990 L306 -25 Q306 -166 300 -214.5 Q294 -263 272 -302 Q218 -398 55 -398 Q21 -398 -19 -392 L-19 -254 Q14 -261 39 -261 Q88 -261 110 -246.5 Q132 -232 138 -197 Q144 -161 144 -26 L144 990 L306 990 Z " />
<glyph glyph-name="uni0259" unicode="&#x259;" horiz-adv-x="1080" d="M91 673 Q169 1019 524 1019 Q764 1019 887 856 Q992 717 992 503 Q992 270 864 122 Q733 -29 529 -29 Q362 -29 244 72 Q156 147 117.5 256 Q79 365 80 537 L825 537 Q814 883 513 883 Q409 883 347 833.5 Q285 784 251 673 L91 673 Z M248 403 Q256 301 298 234 Q378 107 534 107 Q657 107 730 182 Q803 257 823 403 L248 403 Z " />
<glyph glyph-name="uni02BB" unicode="&#x2bb;" horiz-adv-x="414" d="M294 931 L120 931 L120 1120 Q120 1232 165 1295.5 Q210 1359 294 1365 L294 1294 Q200 1281 204 1126 L294 1126 L294 931 Z " />
<glyph glyph-name="afii57929" unicode="&#x2bc;" horiz-adv-x="511" d="M364 1365 L364 1215 Q364 1123 348.5 1067.5 Q333 1012 293 963 Q240 899 146 877 L146 971 Q252 1006 256 1159 L146 1159 L146 1365 L364 1365 Z " />
<glyph glyph-name="uni02C9" unicode="&#x2c9;" horiz-adv-x="1024" d="M800 1307 L800 1195 L224 1195 L224 1307 L800 1307 Z " />
<glyph glyph-name="uni037E" unicode="&#x37e;" horiz-adv-x="545" d="M398 990 L398 785 L180 785 L180 990 L398 990 Z M398 206 L398 77 Q407 -226 180 -283 L180 -188 Q293 -148 290 0 L180 0 L180 206 L398 206 Z " />
<glyph glyph-name="tonos" unicode="&#x384;" horiz-adv-x="992" d="M438 1097 L416 1430 L577 1430 L555 1097 L438 1097 Z " />
<glyph glyph-name="dieresistonos" unicode="&#x385;" horiz-adv-x="992" d="M187 1162 L187 1358 L334 1358 L334 1162 L187 1162 Z M659 1162 L659 1358 L806 1358 L806 1162 L659 1162 Z M438 1097 L416 1430 L577 1430 L555 1097 L438 1097 Z " />
<glyph glyph-name="Alphatonos" unicode="&#x386;" horiz-adv-x="1300" d="M753 1371 L1286 0 L1086 0 L933 419 L360 419 L204 0 L14 0 L550 1371 L753 1371 Z M880 565 L746 928 Q677 1112 648 1204 Q617 1112 550 935 L412 565 L880 565 Z M157 1012 L137 1430 L298 1430 L277 1012 L157 1012 Z " />
<glyph glyph-name="Epsilontonos" unicode="&#x388;" horiz-adv-x="1360" d="M21 1012 L0 1430 L161 1430 L140 1012 L21 1012 Z M1266 1365 L1266 1208 L499 1208 L499 776 L1215 776 L1215 630 L499 630 L499 157 L1275 157 L1275 0 L319 0 L319 1365 L1266 1365 Z " />
<glyph glyph-name="Etatonos" unicode="&#x389;" horiz-adv-x="1559" d="M21 1012 L0 1430 L161 1430 L140 1012 L21 1012 Z M1401 1365 L1401 0 L1221 0 L1221 639 L499 639 L499 0 L319 0 L319 1365 L499 1365 L499 796 L1221 796 L1221 1365 L1401 1365 Z " />
<glyph glyph-name="Iotatonos" unicode="&#x38a;" horiz-adv-x="659" d="M21 1012 L0 1430 L161 1430 L140 1012 L21 1012 Z M500 1365 L500 0 L320 0 L320 1365 L500 1365 Z " />
<glyph glyph-name="Omicrontonos" unicode="&#x38c;" horiz-adv-x="1611" d="M21 1012 L0 1430 L161 1430 L140 1012 L21 1012 Z M877 1397 Q1157 1397 1339 1200 Q1519 1005 1519 686 Q1519 401 1379 214 Q1196 -31 865 -31 Q535 -31 351 216 Q213 401 213 682 Q213 1012 393 1200 Q581 1397 877 1397 Z M873 1244 Q661 1244 529 1098 Q395 950 395 686 Q395 442 508 294 Q576 205 686 159 Q772 122 869 122 Q1062 122 1186 249 Q1337 404 1337 684 Q1337 938 1206 1092 Q1078 1244 873 1244 Z " />
<glyph glyph-name="Upsilontonos" unicode="&#x38e;" horiz-adv-x="1433" d="M161 1430 L140 1012 L21 1012 L0 1430 L161 1430 Z M1451 1365 L924 559 L924 0 L744 0 L744 559 L212 1365 L430 1365 L751 855 Q808 766 840 707 Q874 770 924 851 L1244 1365 L1451 1365 Z " />
<glyph glyph-name="Omegatonos" unicode="&#x38f;" horiz-adv-x="1548" d="M21 1012 L0 1430 L161 1430 L140 1012 L21 1012 Z M1153 157 L1453 157 L1453 0 L926 0 L926 176 Q1019 202 1099 274 Q1271 429 1271 717 Q1271 966 1136 1106 Q1005 1243 799 1243 Q593 1243 462 1106 Q327 965 327 717 Q327 399 535 245 Q602 196 672 176 L672 0 L146 0 L146 157 L446 157 Q361 208 298 281 Q146 458 146 726 Q146 1027 325 1210 Q508 1396 799 1396 Q1090 1396 1273 1210 Q1453 1027 1453 726 Q1453 458 1301 281 Q1238 209 1153 157 Z " />
<glyph glyph-name="iotadieresistonos" unicode="&#x390;" horiz-adv-x="464" d="M313 990 L313 0 L151 0 L151 990 L313 990 Z M-77 1162 L-77 1358 L70 1358 L70 1162 L-77 1162 Z M395 1162 L395 1358 L542 1358 L542 1162 L395 1162 Z M174 1097 L152 1430 L313 1430 L291 1097 L174 1097 Z " />
<glyph glyph-name="Alpha" unicode="&#x391;" horiz-adv-x="1300" d="M753 1371 L1286 0 L1086 0 L933 419 L360 419 L204 0 L14 0 L550 1371 L753 1371 Z M880 565 L746 928 Q677 1112 648 1204 Q617 1112 550 935 L412 565 L880 565 Z " />
<glyph glyph-name="Beta" unicode="&#x392;" horiz-adv-x="1326" d="M159 1365 L708 1365 Q908 1365 999 1319 Q1083 1277 1132 1197 Q1181 1117 1181 1023 Q1181 924 1127 846.5 Q1073 769 979 732 Q1055 712 1098 683 Q1241 586 1241 400 Q1241 156 1040 50 Q946 0 793 0 L159 0 L159 1365 Z M339 1208 L339 784 L664 784 Q797 784 861 802 Q924 820 962 873.5 Q1000 927 1000 998 Q1000 1146 876 1190 Q826 1208 682 1208 L339 1208 Z M339 638 L339 157 L700 157 Q886 157 950 189 Q1060 245 1060 393 Q1060 560 912 616 Q854 638 669 638 L339 638 Z " />
<glyph glyph-name="Gamma" unicode="&#x393;" horiz-adv-x="1059" d="M154 1365 L1043 1365 L1043 1206 L335 1206 L335 0 L154 0 L154 1365 Z " />
<glyph glyph-name="uni0394" unicode="&#x394;" horiz-adv-x="1349" d="M20 0 L576 1365 L768 1365 L1330 0 L20 0 Z M673 1143 L279 159 L1068 159 L673 1143 Z " />
<glyph glyph-name="Epsilon" unicode="&#x395;" horiz-adv-x="1199" d="M1105 1365 L1105 1208 L339 1208 L339 776 L1055 776 L1055 630 L339 630 L339 157 L1115 157 L1115 0 L159 0 L159 1365 L1105 1365 Z " />
<glyph glyph-name="Zeta" unicode="&#x396;" horiz-adv-x="1197" d="M1123 1365 L1123 1216 L347 252 L263 153 Q470 157 514 157 L1144 157 L1144 0 L54 0 L54 153 L838 1126 Q843 1132 914 1212 Q794 1208 672 1208 L121 1208 L121 1365 L1123 1365 Z " />
<glyph glyph-name="Eta" unicode="&#x397;" horiz-adv-x="1399" d="M1240 1365 L1240 0 L1060 0 L1060 639 L339 639 L339 0 L159 0 L159 1365 L339 1365 L339 796 L1060 796 L1060 1365 L1240 1365 Z " />
<glyph glyph-name="Theta" unicode="&#x398;" horiz-adv-x="1487" d="M755 1397 Q1035 1397 1217 1200 Q1397 1004 1397 686 Q1397 401 1257 214 Q1074 -31 742 -31 Q412 -31 228 216 Q90 401 90 682 Q90 1012 270 1200 Q458 1397 755 1397 Z M751 1244 Q538 1244 407 1098 Q272 950 272 686 Q272 442 385 294 Q453 205 563 159 Q649 122 746 122 Q939 122 1063 249 Q1215 404 1215 684 Q1215 937 1084 1092 Q955 1244 751 1244 Z M459 749 L1030 749 L1030 603 L459 603 L459 749 Z " />
<glyph glyph-name="Iota" unicode="&#x399;" horiz-adv-x="498" d="M339 1365 L339 0 L159 0 L159 1365 L339 1365 Z " />
<glyph glyph-name="Kappa" unicode="&#x39a;" horiz-adv-x="1278" d="M1268 1365 L692 817 L1291 0 L1062 0 L565 694 L339 479 L339 0 L159 0 L159 1365 L339 1365 L339 827 Q338 732 338 685 Q368 714 428 776 L1032 1365 L1268 1365 Z " />
<glyph glyph-name="Lambda" unicode="&#x39b;" horiz-adv-x="1223" d="M0 0 L505 1365 L719 1365 L1223 0 L1022 0 L719 860 L679 982 Q636 1111 609 1213 Q566 1057 497 861 L191 0 L0 0 Z " />
<glyph glyph-name="Mu" unicode="&#x39c;" horiz-adv-x="1683" d="M1524 1365 L1524 0 L1351 0 L1353 612 Q1354 951 1375 1219 L1355 1164 L1293 987 L1251 873 L926 0 L769 0 L429 863 Q355 1049 311 1206 Q329 914 330 618 L332 0 L159 0 L159 1365 L405 1365 L725 532 Q809 313 848 187 Q891 322 967 530 L1274 1365 L1524 1365 Z " />
<glyph glyph-name="Nu" unicode="&#x39d;" horiz-adv-x="1410" d="M1251 1365 L1251 0 L1052 0 L565 736 Q379 1017 319 1143 Q330 1002 331 689 L332 0 L159 0 L159 1365 L354 1365 L864 588 Q1018 354 1091 215 Q1081 454 1080 682 L1078 1365 L1251 1365 Z " />
<glyph glyph-name="Xi" unicode="&#x39e;" horiz-adv-x="1190" d="M92 1365 L1099 1365 L1099 1198 L92 1198 L92 1365 Z M142 626 L142 790 L1048 790 L1048 626 L142 626 Z M82 0 L82 167 L1108 167 L1108 0 L82 0 Z " />
<glyph glyph-name="Omicron" unicode="&#x39f;" horiz-adv-x="1490" d="M757 1397 Q1037 1397 1219 1200 Q1399 1004 1399 686 Q1399 401 1259 214 Q1076 -31 744 -31 Q414 -31 230 216 Q92 401 92 682 Q92 1012 272 1200 Q460 1397 757 1397 Z M753 1244 Q540 1244 409 1098 Q274 950 274 686 Q274 442 387 294 Q455 205 565 159 Q651 122 748 122 Q941 122 1065 249 Q1217 404 1217 684 Q1217 937 1086 1092 Q957 1244 753 1244 Z " />
<glyph glyph-name="Pi" unicode="&#x3a0;" horiz-adv-x="1395" d="M1058 1208 L337 1208 L337 0 L157 0 L157 1365 L1238 1365 L1238 0 L1058 0 L1058 1208 Z " />
<glyph glyph-name="Rho" unicode="&#x3a1;" horiz-adv-x="1239" d="M159 1365 L702 1365 Q822 1365 891 1349 Q960 1333 1019 1292 Q1176 1183 1176 973 Q1176 739 1017 631 Q957 591 892 576 Q827 561 709 561 L339 561 L339 0 L159 0 L159 1365 Z M339 1208 L339 707 L687 707 Q835 707 902 757 Q994 825 994 963 Q994 1106 887 1169 Q849 1192 801.5 1200 Q754 1208 661 1208 L339 1208 Z " />
<glyph glyph-name="Sigma" unicode="&#x3a3;" horiz-adv-x="1159" d="M78 0 L78 154 L561 692 L80 1208 L80 1365 L1053 1365 L1053 1206 L321 1206 L791 692 L310 158 L1086 158 L1086 0 L78 0 Z " />
<glyph glyph-name="Tau" unicode="&#x3a4;" horiz-adv-x="1161" d="M1130 1365 L1130 1208 L671 1208 L671 0 L491 0 L491 1208 L32 1208 L32 1365 L1130 1365 Z " />
<glyph glyph-name="Upsilon" unicode="&#x3a5;" horiz-adv-x="1202" d="M1220 1365 L694 559 L694 0 L514 0 L514 559 L-18 1365 L199 1365 L521 855 Q579 763 610 707 Q642 768 694 851 L1014 1365 L1220 1365 Z " />
<glyph glyph-name="Phi" unicode="&#x3a6;" horiz-adv-x="1648" d="M737 1365 L910 1365 L910 1205 Q1165 1198 1318 1119 Q1579 982 1579 683 Q1579 436 1408 302.5 Q1237 169 910 160 L910 0 L737 0 L737 160 Q482 167 329 246 Q68 383 68 683 Q68 929 239 1063 Q410 1197 737 1205 L737 1365 Z M910 306 Q1096 307 1205 360 Q1404 455 1404 683 Q1404 865 1278 961 Q1152 1057 910 1059 L910 306 Z M737 306 L737 1059 Q551 1058 442 1005 Q243 910 243 683 Q243 500 369 404 Q495 308 737 306 Z " />
<glyph glyph-name="Chi" unicode="&#x3a7;" horiz-adv-x="1189" d="M1156 1365 L702 703 L1182 0 L963 0 L682 424 Q636 493 594 571 Q558 515 500 428 L213 0 L6 0 L487 703 L36 1365 L252 1365 L486 1007 Q560 894 595 825 Q652 922 710 1007 L952 1365 L1156 1365 Z " />
<glyph glyph-name="Psi" unicode="&#x3a8;" horiz-adv-x="1523" d="M851 1365 L851 471 Q1055 484 1155 579 Q1206 628 1227 696 Q1248 764 1248 881 L1248 1365 L1428 1365 L1428 893 Q1428 734 1393 643 Q1339 501 1198 418.5 Q1057 336 851 325 L851 0 L672 0 L672 325 Q401 339 249 474 Q136 574 108 726 Q96 788 96 893 L96 1365 L276 1365 L276 881 Q276 755 300 688 Q370 490 672 471 L672 1365 L851 1365 Z " />
<glyph glyph-name="uni03A9" unicode="&#x3a9;" horiz-adv-x="1498" d="M1103 157 L1403 157 L1403 0 L876 0 L876 176 Q968 202 1049 274 Q1221 429 1221 717 Q1221 965 1086 1106 Q955 1243 749 1243 Q542 1243 412 1106 Q277 966 277 717 Q277 398 485 245 Q551 196 622 176 L622 0 L96 0 L96 157 L396 157 Q310 209 248 281 Q96 458 96 726 Q96 1027 276 1210 Q459 1396 749 1396 Q1040 1396 1223 1210 Q1403 1027 1403 726 Q1403 458 1251 281 Q1188 209 1103 157 Z " />
<glyph glyph-name="Iotadieresis" unicode="&#x3aa;" horiz-adv-x="498" d="M339 1365 L339 0 L159 0 L159 1365 L339 1365 Z M548 1697 L548 1509 L371 1509 L371 1697 L548 1697 Z M127 1697 L127 1509 L-50 1509 L-50 1697 L127 1697 Z " />
<glyph glyph-name="Upsilondieresis" unicode="&#x3ab;" horiz-adv-x="1202" d="M1220 1365 L694 559 L694 0 L514 0 L514 559 L-18 1365 L199 1365 L521 855 Q579 763 610 707 Q642 768 694 851 L1014 1365 L1220 1365 Z M900 1697 L900 1509 L723 1509 L723 1697 L900 1697 Z M479 1697 L479 1509 L302 1509 L302 1697 L479 1697 Z " />
<glyph glyph-name="alphatonos" unicode="&#x3ac;" horiz-adv-x="1238" d="M499 1097 L477 1430 L638 1430 L616 1097 L499 1097 Z M1163 990 L1018 509 L1177 0 L1004 0 L920 304 Q841 120 749 45.5 Q657 -29 509 -29 Q305 -29 196 109 Q82 252 82 480 Q82 739 226 893 Q343 1019 525 1019 Q654 1019 753 954 Q810 917 846.5 864 Q883 811 923 705 L993 990 L1163 990 Z M855 515 Q807 645 774 710 Q685 882 521 882 Q399 882 328 780 Q249 668 249 489 Q249 319 321 210 Q388 108 510 108 Q669 108 764 281 Q813 370 855 515 Z " />
<glyph glyph-name="epsilontonos" unicode="&#x3ad;" horiz-adv-x="964" d="M440 1097 L418 1430 L579 1430 L557 1097 L440 1097 Z M556 574 L556 440 L428 440 Q345 440 295 410 Q222 366 222 281 Q222 202 290 154.5 Q358 107 472 107 Q727 107 766 360 L932 360 Q913 218 837 123 Q774 43 688 7 Q602 -29 476 -29 Q309 -29 201 30 Q133 67 94 132 Q55 197 55 273 Q55 383 127 448 Q164 481 245 509 Q69 564 69 732 Q69 863 187 938 Q315 1019 497 1019 Q685 1019 795.5 928.5 Q906 838 926 668 L757 668 Q714 883 485 883 Q382 883 312 843 Q236 799 236 718 Q236 654 291 614 Q346 574 435 574 L556 574 Z " />
<glyph glyph-name="etatonos" unicode="&#x3ae;" horiz-adv-x="1067" d="M138 990 L289 990 L289 853 Q407 1018 612 1018 Q744 1018 827 958 Q929 884 929 749 L929 -363 L765 -363 L765 686 Q765 784 702 833 Q647 876 566 876 Q459 876 383 797 Q338 750 321 696 Q302 633 302 548 L302 0 L138 0 L138 990 Z M475 1097 L453 1430 L614 1430 L592 1097 L475 1097 Z " />
<glyph glyph-name="iotatonos" unicode="&#x3af;" horiz-adv-x="464" d="M313 990 L313 0 L151 0 L151 990 L313 990 Z M174 1097 L152 1430 L313 1430 L291 1097 L174 1097 Z " />
<glyph glyph-name="upsilondieresistonos" unicode="&#x3b0;" horiz-adv-x="1067" d="M138 990 L302 990 L302 348 Q302 266 316 224 Q330 182 367 155 Q434 106 534 106 Q634 106 701 156 Q737 184 751 225 Q765 266 765 348 L765 990 L929 990 L929 348 Q929 207 903 147 Q859 42 740 -7 Q652 -43 535 -43 Q326 -43 220 63 Q162 121 149 199 Q138 260 138 348 L138 990 Z M224 1162 L224 1358 L371 1358 L371 1162 L224 1162 Z M696 1162 L696 1358 L843 1358 L843 1162 L696 1162 Z M475 1097 L453 1430 L614 1430 L592 1097 L475 1097 Z " />
<glyph glyph-name="alpha" unicode="&#x3b1;" horiz-adv-x="1238" d="M1163 990 L1018 509 L1177 0 L1004 0 L920 304 Q841 120 749 45.5 Q657 -29 509 -29 Q305 -29 196 109 Q82 252 82 480 Q82 739 226 893 Q343 1019 525 1019 Q654 1019 753 954 Q810 917 846.5 864 Q883 811 923 705 L993 990 L1163 990 Z M855 515 Q807 645 774 710 Q685 882 521 882 Q399 882 328 780 Q249 668 249 489 Q249 319 321 210 Q388 108 510 108 Q669 108 764 281 Q813 370 855 515 Z " />
<glyph glyph-name="beta" unicode="&#x3b2;" horiz-adv-x="1160" d="M144 -385 L144 921 Q144 1117 239 1228 Q366 1377 603 1377 Q794 1377 914 1286 Q1040 1191 1040 1018 Q1040 892 971 808.5 Q902 725 780 702 Q1081 652 1081 373 Q1081 179 949 66 Q838 -29 653 -29 Q530 -29 448 10 Q366 49 306 136 L306 -385 L144 -385 Z M517 628 L517 762 L627 762 Q734 762 803 830 Q873 900 873 1011 Q873 1118 808 1180 Q732 1251 604 1251 Q520 1251 452.5 1217 Q385 1183 348 1122 Q306 1052 306 918 L306 514 Q306 337 362 248 Q449 108 623 108 Q746 108 826 176 Q914 252 914 381 Q914 497 844 562.5 Q774 628 650 628 L517 628 Z " />
<glyph glyph-name="gamma" unicode="&#x3b3;" horiz-adv-x="941" d="M551 -385 L389 -385 L389 0 L7 990 L190 990 L470 186 L750 990 L933 990 L551 0 L551 -385 Z " />
<glyph glyph-name="delta" unicode="&#x3b4;" horiz-adv-x="1121" d="M521 1006 L225 1231 L225 1365 L939 1365 L939 1231 L459 1231 L816 954 Q935 861 987 754.5 Q1039 648 1039 498 Q1039 232 891 89 Q770 -29 566 -29 Q331 -29 203 122 Q81 266 81 495 Q81 794 286 932 Q387 999 521 1006 Z M566 882 Q428 882 344 790 Q248 685 248 494 Q248 304 341 200 Q424 107 565 107 Q691 107 768 186 Q872 292 872 497 Q872 685 781 788 Q698 882 566 882 Z " />
<glyph glyph-name="epsilon" unicode="&#x3b5;" horiz-adv-x="964" d="M556 574 L556 440 L428 440 Q345 440 295 410 Q222 366 222 281 Q222 202 290 154.5 Q358 107 472 107 Q727 107 766 360 L932 360 Q913 218 837 123 Q774 43 688 7 Q602 -29 476 -29 Q309 -29 201 30 Q133 67 94 132 Q55 197 55 273 Q55 383 127 448 Q164 481 245 509 Q69 564 69 732 Q69 863 187 938 Q315 1019 497 1019 Q685 1019 795.5 928.5 Q906 838 926 668 L757 668 Q714 883 485 883 Q382 883 312 843 Q236 799 236 718 Q236 654 291 614 Q346 574 435 574 L556 574 Z " />
<glyph glyph-name="zeta" unicode="&#x3b6;" horiz-adv-x="893" d="M865 1241 Q577 1037 443 889 Q247 671 247 462 Q247 364 284.5 281.5 Q322 199 388 153 Q470 95 598 88 L666 85 Q758 80 806 53 Q831 39 848 9 Q865 -21 865 -53 Q865 -166 735 -385 L573 -385 Q697 -180 697 -95 Q697 -39 606 -35 L539 -32 Q390 -25 286 43 Q191 103 136 215 Q81 325 81 452 Q81 683 260 898 Q328 979 403.5 1047.5 Q479 1116 628 1231 L167 1231 L167 1365 L865 1365 L865 1241 Z " />
<glyph glyph-name="eta" unicode="&#x3b7;" horiz-adv-x="1067" d="M138 990 L289 990 L289 853 Q407 1018 612 1018 Q744 1018 827 958 Q929 884 929 749 L929 -363 L765 -363 L765 686 Q765 784 702 833 Q647 876 566 876 Q459 876 383 797 Q338 750 321 696 Q302 633 302 548 L302 0 L138 0 L138 990 Z " />
<glyph glyph-name="theta" unicode="&#x3b8;" horiz-adv-x="1109" d="M865 607 L243 607 Q254 422 300 312 Q386 107 559 107 Q732 107 813 324 Q855 433 865 607 Z M243 741 L865 741 Q858 913 809 1035 Q725 1241 556 1241 Q452 1241 373 1154 Q317 1093 283 983.5 Q249 874 243 741 Z M563 1377 Q704 1377 816 1285 Q1033 1106 1033 675 Q1033 327 885 129 Q767 -29 561 -29 Q322 -29 197 174 Q75 373 75 673 Q75 965 185 1153 Q315 1377 563 1377 Z " />
<glyph glyph-name="iota" unicode="&#x3b9;" horiz-adv-x="464" d="M313 990 L313 0 L151 0 L151 990 L313 990 Z " />
<glyph glyph-name="kappa" unicode="&#x3ba;" horiz-adv-x="1008" d="M461 527 L302 372 L302 0 L138 0 L138 990 L302 990 L302 574 L714 990 L928 990 L579 641 L982 0 L789 0 L461 527 Z " />
<glyph glyph-name="lambda" unicode="&#x3bb;" horiz-adv-x="927" d="M29 0 L370 953 L215 1365 L392 1365 L900 0 L720 0 L457 724 L204 0 L29 0 Z " />
<glyph glyph-name="uni03BC" unicode="&#x3bc;" horiz-adv-x="1039" d="M107 -366 L107 990 L260 990 L260 431 Q260 330 272 284 Q294 206 361 155 Q428 104 509 104 Q645 104 717 220 Q778 320 778 449 L778 990 L931 990 L931 0 L778 0 L778 128 Q695 -26 509 -26 Q425 -26 366 2.5 Q307 31 260 95 L260 -366 L107 -366 Z " />
<glyph glyph-name="nu" unicode="&#x3bd;" horiz-adv-x="921" d="M913 990 L552 0 L377 0 L9 990 L189 990 L367 489 Q421 337 471 163 Q501 275 577 500 L743 990 L913 990 Z " />
<glyph glyph-name="xi" unicode="&#x3be;" horiz-adv-x="920" d="M724 591 L576 591 Q437 591 361 550 Q248 489 248 344 Q248 223 325 160.5 Q402 98 561 90 L666 85 Q865 75 865 -53 Q865 -167 735 -385 L573 -385 Q697 -181 697 -95 Q697 -40 606 -34 L494 -28 Q405 -22 349 -7 Q293 8 239 42 Q81 141 81 337 Q81 511 210 601 Q278 647 396 668 Q165 722 165 947 Q165 1073 242 1156 Q289 1208 353 1231 L167 1231 L167 1365 L865 1365 L865 1231 L716 1231 Q554 1231 461 1178 Q333 1106 333 964 Q333 855 413 790 Q493 725 627 725 L724 725 L724 591 Z " />
<glyph glyph-name="omicron" unicode="&#x3bf;" horiz-adv-x="1133" d="M576 1019 Q790 1019 922 873 Q1047 736 1047 496 Q1047 232 899 89 Q778 -29 574 -29 Q339 -29 211 123 Q89 267 89 495 Q89 713 199 852 Q330 1019 576 1019 Z M574 882 Q437 882 352 790 Q256 685 256 494 Q256 305 349 201 Q432 108 573 108 Q698 108 776 187 Q880 293 880 498 Q880 685 789 788 Q705 882 574 882 Z " />
<glyph glyph-name="rho" unicode="&#x3c1;" horiz-adv-x="1139" d="M123 -385 L123 490 Q123 617 131 662 Q162 822 280 920 Q400 1019 586 1019 Q793 1019 917 891 Q1059 743 1059 488 Q1059 255 936 113 Q812 -29 616 -29 Q398 -29 285 136 L285 -385 L123 -385 Z M589 882 Q448 882 364 783 Q278 682 278 495 Q278 301 373 199 Q458 108 589 108 Q726 108 804 204 Q892 312 892 489 Q892 674 801 785 Q721 882 589 882 Z " />
<glyph glyph-name="uni03C2" unicode="&#x3c2;" horiz-adv-x="1005" d="M573 -385 Q697 -181 697 -95 Q697 -38 606 -34 L540 -31 Q363 -23 251 69 Q81 208 81 480 Q81 749 227 892 Q357 1019 556 1019 Q738 1019 847.5 928 Q957 837 977 668 L808 668 Q792 752 747 803 Q677 883 556 883 Q394 883 313 752 Q248 648 248 496 Q248 107 598 89 L666 85 Q758 80 806 54 Q831 40 848 9.5 Q865 -21 865 -53 Q865 -167 735 -385 L573 -385 Z " />
<glyph glyph-name="sigma" unicode="&#x3c3;" horiz-adv-x="1135" d="M877 875 Q1039 748 1039 487 Q1039 233 891 89 Q770 -29 566 -29 Q331 -29 203 123 Q81 267 81 496 Q81 714 191 852 Q323 1019 557 1019 Q595 1019 661 1015 L1100 990 L1100 856 L877 875 Z M566 883 Q428 883 344 791 Q248 686 248 495 Q248 305 341 201 Q424 108 565 108 Q690 108 768 187 Q872 293 872 498 Q872 686 781 789 Q698 883 566 883 Z " />
<glyph glyph-name="tau" unicode="&#x3c4;" horiz-adv-x="890" d="M362 0 L362 847 L36 847 L36 990 L854 990 L854 847 L526 847 L526 0 L362 0 Z " />
<glyph glyph-name="upsilon" unicode="&#x3c5;" horiz-adv-x="1067" d="M138 990 L302 990 L302 348 Q302 266 316 224 Q330 182 367 155 Q434 106 534 106 Q634 106 701 156 Q737 184 751 225 Q765 266 765 348 L765 990 L929 990 L929 348 Q929 207 903 147 Q859 42 740 -7 Q652 -43 535 -43 Q326 -43 220 63 Q162 121 149 199 Q138 260 138 348 L138 990 Z " />
<glyph glyph-name="phi" unicode="&#x3c6;" horiz-adv-x="1275" d="M716 -385 L560 -385 L560 -28 Q385 -22 272 64 Q176 136 126 256 Q82 364 82 496 Q82 778 269 921 L363 829 Q242 711 242 498 Q242 235 410 142 Q474 106 560 101 L560 1015 Q632 1020 667 1020 Q940 1020 1080 852 Q1194 717 1194 496 Q1194 316 1114 186 Q989 -18 716 -28 L716 -385 Z M716 101 Q818 107 891 157 Q1034 257 1034 496 Q1034 749 869 845 Q803 884 716 889 L716 101 Z " />
<glyph glyph-name="chi" unicode="&#x3c7;" horiz-adv-x="921" d="M458 510 L692 990 L872 990 L547 341 L904 -363 L719 -363 L454 163 L191 -363 L16 -363 L365 332 L33 990 L221 990 L458 510 Z " />
<glyph glyph-name="psi" unicode="&#x3c8;" horiz-adv-x="1356" d="M770 990 L770 111 Q1077 140 1069 415 L1069 990 L1231 990 L1231 418 Q1243 14 770 -22 L770 -385 L610 -385 L610 -22 Q137 15 149 418 L149 990 L311 990 L311 415 Q303 140 610 111 L610 990 L770 990 Z " />
<glyph glyph-name="omega" unicode="&#x3c9;" horiz-adv-x="1338" d="M750 524 L750 339 Q750 234 791.5 170.5 Q833 107 902 107 Q989 107 1034 189 Q1089 290 1089 460 Q1089 609 1045 723.5 Q1001 838 906 938 L1012 1024 Q1100 949 1146 879 Q1256 716 1256 461 Q1256 245 1181 113 Q1143 46 1076.5 8.5 Q1010 -29 930 -29 Q737 -29 669 170 Q601 -29 408 -29 Q295 -29 214 42 Q82 159 82 461 Q82 652 138.5 782 Q195 912 327 1024 L432 938 Q372 876 340 821 Q249 668 249 460 Q249 291 304 189 Q349 107 436 107 Q511 107 548 173 Q588 244 588 339 L588 524 L750 524 Z " />
<glyph glyph-name="iotadieresis" unicode="&#x3ca;" horiz-adv-x="422" d="M132 0 L132 982 L289 982 L289 0 L132 0 Z M150 1339 L150 1146 L-45 1146 L-45 1339 L150 1339 Z M453 1339 L453 1146 L258 1146 L258 1339 L453 1339 Z " />
<glyph glyph-name="upsilondieresis" unicode="&#x3cb;" horiz-adv-x="1046" d="M132 982 L289 982 L289 347 Q289 264 303.5 221.5 Q318 179 355 151 Q422 101 523 101 Q624 101 691 152 Q728 180 742 222 Q756 264 756 347 L756 982 L913 982 L913 347 Q913 207 888 146 Q845 42 728 -7 Q640 -43 524 -43 Q317 -43 212 63 Q156 120 143 198 Q132 260 132 347 L132 982 Z M469 1339 L469 1146 L274 1146 L274 1339 L469 1339 Z M772 1339 L772 1146 L577 1146 L577 1339 L772 1339 Z " />
<glyph glyph-name="omicrontonos" unicode="&#x3cc;" horiz-adv-x="1133" d="M576 1019 Q790 1019 922 873 Q1047 736 1047 496 Q1047 232 899 89 Q778 -29 574 -29 Q339 -29 211 123 Q89 267 89 495 Q89 713 199 852 Q330 1019 576 1019 Z M574 882 Q437 882 352 790 Q256 685 256 494 Q256 305 349 201 Q432 108 573 108 Q698 108 776 187 Q880 293 880 498 Q880 685 789 788 Q705 882 574 882 Z M510 1097 L488 1430 L649 1430 L627 1097 L510 1097 Z " />
<glyph glyph-name="upsilontonos" unicode="&#x3cd;" horiz-adv-x="1067" d="M138 990 L302 990 L302 348 Q302 266 316 224 Q330 182 367 155 Q434 106 534 106 Q634 106 701 156 Q737 184 751 225 Q765 266 765 348 L765 990 L929 990 L929 348 Q929 207 903 147 Q859 42 740 -7 Q652 -43 535 -43 Q326 -43 220 63 Q162 121 149 199 Q138 260 138 348 L138 990 Z M475 1097 L453 1430 L614 1430 L592 1097 L475 1097 Z " />
<glyph glyph-name="omegatonos" unicode="&#x3ce;" horiz-adv-x="1338" d="M602 1097 L580 1430 L741 1430 L719 1097 L602 1097 Z M750 524 L750 339 Q750 234 791.5 170.5 Q833 107 902 107 Q989 107 1034 189 Q1089 290 1089 460 Q1089 609 1045 723.5 Q1001 838 906 938 L1012 1024 Q1100 949 1146 879 Q1256 716 1256 461 Q1256 245 1181 113 Q1143 46 1076.5 8.5 Q1010 -29 930 -29 Q737 -29 669 170 Q601 -29 408 -29 Q295 -29 214 42 Q82 159 82 461 Q82 652 138.5 782 Q195 912 327 1024 L432 938 Q372 876 340 821 Q249 668 249 460 Q249 291 304 189 Q349 107 436 107 Q511 107 548 173 Q588 244 588 339 L588 524 L750 524 Z " />
<glyph glyph-name="theta1" unicode="&#x3d1;" horiz-adv-x="1120" d="M123 432 L27 432 L27 566 L283 566 Q282 397 311 298 Q366 108 536 108 Q717 108 794 331 Q834 446 835 607 Q575 606 421 667 Q274 725 202 829 Q135 927 135 1047 Q135 1197 236 1286 Q338 1377 501 1377 Q704 1377 837 1234 Q912 1154 957 1019 Q1002 884 1002 741 L1120 741 L1120 607 L1002 607 Q989 383 913 229 Q785 -29 524 -29 Q347 -29 239.5 94.5 Q132 218 123 432 Z M835 741 Q815 962 775 1050 Q688 1240 514 1240 Q418 1240 357 1179 Q302 1123 302 1039 Q302 944 364.5 873.5 Q427 803 541 770 Q643 741 835 741 Z " />
<glyph glyph-name="phi1" unicode="&#x3d5;" horiz-adv-x="1275" d="M716 -385 L560 -385 L560 -28 Q385 -22 272 64 Q176 136 126 255 Q82 363 82 496 Q82 730 210 869.5 Q338 1009 560 1018 L560 1365 L716 1365 L716 1018 Q901 1011 1019 913 Q1194 769 1194 496 Q1194 316 1114 186 Q989 -18 716 -28 L716 -385 Z M560 101 L560 888 Q458 883 384 830 Q242 728 242 495 Q242 235 410 142 Q474 106 560 101 Z M716 101 Q818 107 891 157 Q1034 256 1034 495 Q1034 748 869 845 Q803 884 716 888 L716 101 Z " />
<glyph glyph-name="uni0400" unicode="&#x400;" horiz-adv-x="1199" d="M1105 1365 L1105 1208 L339 1208 L339 776 L1055 776 L1055 630 L339 630 L339 157 L1115 157 L1115 0 L159 0 L159 1365 L1105 1365 Z M356 1734 L571 1734 L726 1475 L593 1475 L356 1734 Z " />
<glyph glyph-name="afii10023" unicode="&#x401;" horiz-adv-x="1199" d="M1105 1365 L1105 1208 L339 1208 L339 776 L1055 776 L1055 630 L339 630 L339 157 L1115 157 L1115 0 L159 0 L159 1365 L1105 1365 Z M936 1697 L936 1509 L759 1509 L759 1697 L936 1697 Z M515 1697 L515 1509 L338 1509 L338 1697 L515 1697 Z " />
<glyph glyph-name="afii10051" unicode="&#x402;" horiz-adv-x="1446" d="M800 -381 L800 -229 Q833 -231 848 -231 Q1038 -231 1112 -97 Q1187 38 1187 287 Q1187 540 1121 664 Q1056 788 896 788 Q794 788 714 735 Q634 682 596 588 Q563 508 563 384 L563 0 L383 0 L383 1208 L30 1208 L30 1365 L1130 1365 L1130 1208 L563 1208 L563 771 Q612 834 659 867 Q770 945 924 945 Q1153 945 1268 778 Q1367 634 1367 297 Q1367 -78 1227 -244 Q1111 -383 865 -383 Q844 -383 800 -381 Z " />
<glyph glyph-name="afii10052" unicode="&#x403;" horiz-adv-x="1102" d="M862 1734 L625 1475 L491 1475 L647 1734 L862 1734 Z M1062 1208 L337 1208 L337 0 L157 0 L157 1365 L1062 1365 L1062 1208 Z " />
<glyph glyph-name="afii10053" unicode="&#x404;" horiz-adv-x="1442" d="M275 618 Q288 459 346 349 Q466 122 732 122 Q896 122 999.5 214 Q1103 306 1130 475 L1311 475 Q1286 293 1183 167 Q1021 -31 723 -31 Q407 -31 236 193 Q90 382 90 681 Q90 1001 277 1206 Q449 1396 737 1396 Q1019 1396 1180 1222 Q1290 1103 1303 956 L1122 956 Q1092 1090 988.5 1166.5 Q885 1243 733 1243 Q452 1243 334 984 Q288 885 276 763 L807 763 L807 618 L275 618 Z " />
<glyph glyph-name="afii10054" unicode="&#x405;" horiz-adv-x="1233" d="M1096 965 L922 965 Q905 1109 823 1176.5 Q741 1244 581 1244 Q452 1244 375 1198 Q273 1137 273 1017 Q273 919 346 877 Q419 835 644 787 Q783 757 857.5 732.5 Q932 708 985 674 Q1149 569 1149 385 Q1149 191 996 73 Q863 -31 618 -31 Q351 -31 203 95 Q55 221 53 451 L227 451 Q231 319 296 244 Q402 122 630 122 Q798 122 882 192 Q967 262 967 371 Q967 439 934.5 482.5 Q902 526 824 562 Q765 589 573 633 Q389 676 340 691.5 Q291 707 241 737 Q100 823 100 1006 Q100 1187 229.5 1292 Q359 1397 582 1397 Q905 1397 1033 1194 Q1091 1103 1096 965 Z " />
<glyph glyph-name="afii10055" unicode="&#x406;" horiz-adv-x="498" d="M339 1365 L339 0 L159 0 L159 1365 L339 1365 Z " />
<glyph glyph-name="afii10056" unicode="&#x407;" horiz-adv-x="498" d="M339 1365 L339 0 L159 0 L159 1365 L339 1365 Z M548 1697 L548 1509 L371 1509 L371 1697 L548 1697 Z M127 1697 L127 1509 L-50 1509 L-50 1697 L127 1697 Z " />
<glyph glyph-name="afii10057" unicode="&#x408;" horiz-adv-x="964" d="M824 1365 L824 440 Q824 315 813.5 253 Q803 191 772 137 Q677 -32 431 -32 Q154 -32 65 156 Q23 245 23 399 Q23 421 25 451 L200 451 Q200 418 200 401 Q200 265 238 206 Q294 121 429 121 Q558 121 607 204 Q644 265 644 439 L644 1365 L824 1365 Z " />
<glyph glyph-name="afii10058" unicode="&#x409;" horiz-adv-x="2131" d="M1214 789 L1624 789 Q1728 789 1799 769 Q1870 749 1928 703 Q2062 596 2062 395 Q2062 190 1926 84 Q1818 0 1636 0 L1031 0 L1031 1206 L474 1206 L474 522 Q474 388 441 269 Q410 156 316.5 78.5 Q223 1 119 1 Q100 1 61 4 L61 158 Q181 161 236 247.5 Q291 334 291 517 L291 1365 L1214 1365 L1214 789 Z M1214 630 L1214 158 L1608 158 Q1742 158 1812 225 Q1879 290 1879 394 Q1879 506 1807.5 568 Q1736 630 1608 630 L1214 630 Z " />
<glyph glyph-name="afii10059" unicode="&#x40a;" horiz-adv-x="2160" d="M1060 0 L1060 639 L342 639 L342 0 L159 0 L159 1365 L342 1365 L342 796 L1060 796 L1060 1365 L1243 1365 L1243 789 L1653 789 Q1757 789 1828.5 769 Q1900 749 1957 703 Q2091 596 2091 395 Q2091 190 1955 84 Q1847 0 1665 0 L1060 0 Z M1243 630 L1243 158 L1636 158 Q1771 158 1841 225 Q1908 290 1908 394 Q1908 506 1836.5 568 Q1765 630 1636 630 L1243 630 Z " />
<glyph glyph-name="afii10060" unicode="&#x40b;" horiz-adv-x="1468" d="M30 1365 L1133 1365 L1133 1194 L554 1194 L554 764 Q683 945 927 945 Q1154 945 1270 789 Q1350 681 1350 499 L1350 0 L1180 0 L1181 411 Q1181 512 1172 563 Q1163 614 1138 661 Q1107 716 1052 747 Q980 788 888 788 Q733 788 641 684 Q554 587 554 411 L554 0 L384 0 L384 1194 L30 1194 L30 1365 Z " />
<glyph glyph-name="afii10061" unicode="&#x40c;" horiz-adv-x="1278" d="M929 1734 L692 1475 L559 1475 L715 1734 L929 1734 Z M1268 1365 L692 817 L1291 0 L1062 0 L565 694 L339 479 L339 0 L159 0 L159 1365 L339 1365 L339 827 Q338 732 338 685 Q368 714 428 776 L1032 1365 L1268 1365 Z " />
<glyph glyph-name="uni040D" unicode="&#x40d;" horiz-adv-x="1399" d="M150 0 L150 1365 L330 1365 L330 282 L1070 1365 L1248 1365 L1248 0 L1068 0 L1068 1082 L329 0 L150 0 Z M418 1734 L633 1734 L788 1475 L655 1475 L418 1734 Z " />
<glyph glyph-name="afii10062" unicode="&#x40e;" horiz-adv-x="1151" d="M241 0 L241 158 L349 158 Q414 158 442.5 182.5 Q471 207 507 294 L8 1365 L225 1365 L598 507 L950 1365 L1164 1365 L640 173 Q564 0 410 0 L241 0 Z M884 1748 Q875 1650 828 1588 Q748 1478 582 1478 Q415 1478 336 1591 Q292 1655 289 1748 L385 1748 Q421 1609 591 1609 Q674 1609 720 1641.5 Q766 1674 789 1748 L884 1748 Z " />
<glyph glyph-name="afii10145" unicode="&#x40f;" horiz-adv-x="1365" d="M150 0 L150 1365 L333 1365 L333 158 L1031 158 L1031 1365 L1214 1365 L1214 0 L771 0 L771 -310 L588 -310 L588 0 L150 0 Z " />
<glyph glyph-name="afii10017" unicode="&#x410;" horiz-adv-x="1300" d="M753 1371 L1286 0 L1086 0 L933 419 L360 419 L204 0 L14 0 L550 1371 L753 1371 Z M880 565 L746 928 Q677 1112 648 1204 Q617 1112 550 935 L412 565 L880 565 Z " />
<glyph glyph-name="afii10018" unicode="&#x411;" horiz-adv-x="1235" d="M337 1208 L337 804 L707 804 Q825 804 890 789 Q955 774 1015 734 Q1174 626 1174 392 Q1174 182 1017 73 Q958 32 889 16 Q820 0 700 0 L157 0 L157 1365 L1048 1365 L1048 1208 L337 1208 Z M337 157 L659 157 Q752 157 799.5 165 Q847 173 885 196 Q992 259 992 402 Q992 540 900 608 Q833 658 685 658 L337 658 L337 157 Z " />
<glyph glyph-name="afii10019" unicode="&#x412;" horiz-adv-x="1326" d="M159 1365 L708 1365 Q908 1365 999 1319 Q1083 1277 1132 1197 Q1181 1117 1181 1023 Q1181 924 1127 846.5 Q1073 769 979 732 Q1055 712 1098 683 Q1241 586 1241 400 Q1241 156 1040 50 Q946 0 793 0 L159 0 L159 1365 Z M339 1208 L339 784 L664 784 Q797 784 861 802 Q924 820 962 873.5 Q1000 927 1000 998 Q1000 1146 876 1190 Q826 1208 682 1208 L339 1208 Z M339 638 L339 157 L700 157 Q886 157 950 189 Q1060 245 1060 393 Q1060 560 912 616 Q854 638 669 638 L339 638 Z " />
<glyph glyph-name="afii10020" unicode="&#x413;" horiz-adv-x="1102" d="M1062 1208 L337 1208 L337 0 L157 0 L157 1365 L1062 1365 L1062 1208 Z " />
<glyph glyph-name="afii10021" unicode="&#x414;" horiz-adv-x="1412" d="M325 1365 L1241 1365 L1241 157 L1405 157 L1405 -273 L1238 -273 L1238 0 L167 0 L167 -273 L0 -273 L0 157 Q142 157 206 338 Q244 443 269 693 Q304 1035 325 1365 Z M284 157 L1061 157 L1061 1208 L493 1208 Q450 621 412.5 432.5 Q375 244 284 157 Z " />
<glyph glyph-name="afii10022" unicode="&#x415;" horiz-adv-x="1199" d="M1105 1365 L1105 1208 L339 1208 L339 776 L1055 776 L1055 630 L339 630 L339 157 L1115 157 L1115 0 L159 0 L159 1365 L1105 1365 Z " />
<glyph glyph-name="afii10024" unicode="&#x416;" horiz-adv-x="1847" d="M830 0 L830 644 L625 644 L204 0 L-1 0 L474 720 L83 1365 L287 1365 L626 803 L830 803 L830 1365 L1013 1365 L1013 803 L1219 803 L1557 1365 L1759 1365 L1372 720 L1848 0 L1648 0 L1224 644 L1013 644 L1013 0 L830 0 Z " />
<glyph glyph-name="afii10025" unicode="&#x417;" horiz-adv-x="1304" d="M586 618 L586 763 L755 763 Q852 763 918 801 Q968 831 997.5 886 Q1027 941 1027 1005 Q1027 1131 924 1189 Q826 1244 673 1244 Q476 1244 365 1132 Q294 1060 271 956 L89 956 Q104 1118 233 1243 Q391 1397 669 1397 Q892 1397 1034 1317 Q1209 1219 1209 1025 Q1209 900 1141.5 813.5 Q1074 727 951 694 Q1038 675 1092 644 Q1223 569 1223 395 Q1223 187 1048 68 Q904 -31 679 -31 Q453 -31 315 68 Q119 209 82 475 L263 475 Q291 303 394.5 212.5 Q498 122 668 122 Q839 122 937 198 Q1041 277 1041 405 Q1041 524 940 576 Q860 618 755 618 L586 618 Z " />
<glyph glyph-name="afii10026" unicode="&#x418;" horiz-adv-x="1399" d="M150 0 L150 1365 L330 1365 L330 282 L1070 1365 L1248 1365 L1248 0 L1068 0 L1068 1082 L329 0 L150 0 Z " />
<glyph glyph-name="afii10027" unicode="&#x419;" horiz-adv-x="1399" d="M150 0 L150 1365 L330 1365 L330 282 L1070 1365 L1248 1365 L1248 0 L1068 0 L1068 1082 L329 0 L150 0 Z M996 1748 Q987 1650 941 1588 Q861 1478 695 1478 Q528 1478 449 1591 Q405 1655 401 1748 L497 1748 Q533 1609 703 1609 Q786 1609 832.5 1641.5 Q879 1674 901 1748 L996 1748 Z " />
<glyph glyph-name="afii10028" unicode="&#x41a;" horiz-adv-x="1278" d="M1268 1365 L692 817 L1291 0 L1062 0 L565 694 L339 479 L339 0 L159 0 L159 1365 L339 1365 L339 827 Q338 732 338 685 Q368 714 428 776 L1032 1365 L1268 1365 Z " />
<glyph glyph-name="afii10029" unicode="&#x41b;" horiz-adv-x="1364" d="M1031 0 L1031 1206 L474 1206 L474 522 Q474 445 459 356.5 Q444 268 422 220 Q309 -15 61 0 L61 158 Q78 157 83 157 Q134 160 184 197.5 Q234 235 256 287 Q291 369 291 517 L291 1365 L1214 1365 L1214 0 L1031 0 Z " />
<glyph glyph-name="afii10030" unicode="&#x41c;" horiz-adv-x="1683" d="M1524 1365 L1524 0 L1351 0 L1353 612 Q1354 951 1375 1219 L1355 1164 L1293 987 L1251 873 L926 0 L769 0 L429 863 Q355 1049 311 1206 Q329 914 330 618 L332 0 L159 0 L159 1365 L405 1365 L725 532 Q809 313 848 187 Q891 322 967 530 L1274 1365 L1524 1365 Z " />
<glyph glyph-name="afii10031" unicode="&#x41d;" horiz-adv-x="1399" d="M1240 1365 L1240 0 L1060 0 L1060 639 L339 639 L339 0 L159 0 L159 1365 L339 1365 L339 796 L1060 796 L1060 1365 L1240 1365 Z " />
<glyph glyph-name="afii10032" unicode="&#x41e;" horiz-adv-x="1490" d="M757 1397 Q1037 1397 1219 1200 Q1399 1004 1399 686 Q1399 401 1259 214 Q1076 -31 744 -31 Q414 -31 230 216 Q92 401 92 682 Q92 1012 272 1200 Q460 1397 757 1397 Z M753 1244 Q540 1244 409 1098 Q274 950 274 686 Q274 442 387 294 Q455 205 565 159 Q651 122 748 122 Q941 122 1065 249 Q1217 404 1217 684 Q1217 937 1086 1092 Q957 1244 753 1244 Z " />
<glyph glyph-name="afii10033" unicode="&#x41f;" horiz-adv-x="1395" d="M1058 1208 L337 1208 L337 0 L157 0 L157 1365 L1238 1365 L1238 0 L1058 0 L1058 1208 Z " />
<glyph glyph-name="afii10034" unicode="&#x420;" horiz-adv-x="1239" d="M159 1365 L702 1365 Q822 1365 891 1349 Q960 1333 1019 1292 Q1176 1183 1176 973 Q1176 739 1017 631 Q957 591 892 576 Q827 561 709 561 L339 561 L339 0 L159 0 L159 1365 Z M339 1208 L339 707 L687 707 Q835 707 902 757 Q994 825 994 963 Q994 1106 887 1169 Q849 1192 801.5 1200 Q754 1208 661 1208 L339 1208 Z " />
<glyph glyph-name="afii10035" unicode="&#x421;" horiz-adv-x="1387" d="M1316 515 Q1297 305 1184 167 Q1023 -31 725 -31 Q409 -31 238 193 Q92 382 92 681 Q92 1001 279 1206 Q451 1396 739 1396 Q1020 1396 1181 1222 Q1291 1103 1305 956 L1123 956 Q1093 1090 990 1166.5 Q887 1243 735 1243 Q491 1243 368 1044 Q274 893 274 683 Q274 459 371 310 Q494 122 734 122 Q908 122 1011 223 Q1114 324 1137 515 L1316 515 Z " />
<glyph glyph-name="afii10036" unicode="&#x422;" horiz-adv-x="1161" d="M1130 1365 L1130 1208 L671 1208 L671 0 L491 0 L491 1208 L32 1208 L32 1365 L1130 1365 Z " />
<glyph glyph-name="afii10037" unicode="&#x423;" horiz-adv-x="1151" d="M241 0 L241 158 L349 158 Q414 158 442.5 182.5 Q471 207 507 294 L8 1365 L225 1365 L598 507 L950 1365 L1164 1365 L640 173 Q564 0 410 0 L241 0 Z " />
<glyph glyph-name="afii10038" unicode="&#x424;" horiz-adv-x="1648" d="M737 1365 L910 1365 L910 1205 Q1165 1198 1318 1119 Q1579 982 1579 683 Q1579 436 1408 302.5 Q1237 169 910 160 L910 0 L737 0 L737 160 Q482 167 329 246 Q68 383 68 683 Q68 929 239 1063 Q410 1197 737 1205 L737 1365 Z M910 306 Q1096 307 1205 360 Q1404 455 1404 683 Q1404 865 1278 961 Q1152 1057 910 1059 L910 306 Z M737 306 L737 1059 Q551 1058 442 1005 Q243 910 243 683 Q243 500 369 404 Q495 308 737 306 Z " />
<glyph glyph-name="afii10039" unicode="&#x425;" horiz-adv-x="1189" d="M1156 1365 L702 703 L1182 0 L963 0 L682 424 Q636 493 594 571 Q558 515 500 428 L213 0 L6 0 L487 703 L36 1365 L252 1365 L486 1007 Q560 894 595 825 Q652 922 710 1007 L952 1365 L1156 1365 Z " />
<glyph glyph-name="afii10040" unicode="&#x426;" horiz-adv-x="1344" d="M150 0 L150 1365 L333 1365 L333 158 L1057 158 L1057 1365 L1240 1365 L1240 158 L1344 158 L1344 -310 L1161 -310 L1161 0 L150 0 Z " />
<glyph glyph-name="afii10041" unicode="&#x427;" horiz-adv-x="1313" d="M980 0 L980 517 Q784 464 598 464 Q331 464 207 585 Q114 675 114 812 L114 1365 L297 1365 L297 821 Q297 622 638 622 Q790 622 980 675 L980 1365 L1163 1365 L1163 0 L980 0 Z " />
<glyph glyph-name="afii10042" unicode="&#x428;" horiz-adv-x="1914" d="M1577 157 L1577 1365 L1757 1365 L1757 0 L157 0 L157 1365 L337 1365 L337 157 L867 157 L867 1365 L1047 1365 L1047 157 L1577 157 Z " />
<glyph glyph-name="afii10043" unicode="&#x429;" horiz-adv-x="1921" d="M1757 157 L1921 157 L1921 -273 L1754 -273 L1754 0 L157 0 L157 1365 L337 1365 L337 157 L867 157 L867 1365 L1047 1365 L1047 157 L1577 157 L1577 1365 L1757 1365 L1757 157 Z " />
<glyph glyph-name="afii10044" unicode="&#x42a;" horiz-adv-x="1489" d="M559 1365 L598 1365 L598 804 L968 804 Q1086 804 1151 789 Q1216 774 1276 734 Q1435 626 1435 392 Q1435 182 1278 73 Q1219 32 1150 16 Q1081 0 961 0 L418 0 L418 1206 L14 1206 L14 1365 L559 1365 Z M598 157 L920 157 Q1013 157 1060.5 165 Q1108 173 1146 196 Q1253 259 1253 402 Q1253 540 1161 608 Q1094 658 946 658 L598 658 L598 157 Z " />
<glyph glyph-name="afii10045" unicode="&#x42b;" horiz-adv-x="1655" d="M333 789 L743 789 Q847 789 918.5 769 Q990 749 1047 703 Q1181 596 1181 395 Q1181 190 1045 84 Q937 0 755 0 L150 0 L150 1365 L333 1365 L333 789 Z M333 630 L333 158 L726 158 Q861 158 931 225 Q998 290 998 394 Q998 506 926.5 568 Q855 630 726 630 L333 630 Z M1320 0 L1320 1365 L1503 1365 L1503 0 L1320 0 Z " />
<glyph glyph-name="afii10046" unicode="&#x42c;" horiz-adv-x="1250" d="M333 789 L743 789 Q847 789 918.5 769 Q990 749 1047 703 Q1181 596 1181 395 Q1181 190 1045 84 Q937 0 755 0 L150 0 L150 1365 L333 1365 L333 789 Z M333 630 L333 158 L726 158 Q861 158 931 225 Q998 290 998 394 Q998 506 926.5 568 Q855 630 726 630 L333 630 Z " />
<glyph glyph-name="afii10047" unicode="&#x42d;" horiz-adv-x="1392" d="M1118 618 L586 618 L586 763 L1117 763 Q1094 988 973 1115.5 Q852 1243 659 1243 Q507 1243 404 1166.5 Q301 1090 271 956 L89 956 Q104 1118 233 1242 Q392 1396 656 1396 Q960 1396 1137 1183 Q1303 982 1303 681 Q1303 382 1157 193 Q985 -31 670 -31 Q354 -31 192 191 Q105 310 82 475 L263 475 Q290 306 393.5 214 Q497 122 660 122 Q940 122 1056 369 Q1106 473 1118 618 Z " />
<glyph glyph-name="afii10048" unicode="&#x42e;" horiz-adv-x="1966" d="M570 639 L337 639 L337 0 L157 0 L157 1365 L337 1365 L337 796 L576 796 Q599 988 687 1120 Q776 1254 917 1326 Q1054 1396 1225 1396 Q1515 1396 1696 1199 Q1876 1003 1876 685 Q1876 401 1736 213 Q1553 -31 1222 -31 Q961 -31 786 129 Q627 275 585 508 Q575 568 570 639 Z M1230 1243 Q1018 1243 886 1097 Q751 949 751 686 Q751 440 864 294 Q934 204 1042 159 Q1129 122 1225 122 Q1418 122 1542 249 Q1694 404 1694 683 Q1694 937 1563 1091 Q1434 1243 1230 1243 Z " />
<glyph glyph-name="afii10049" unicode="&#x42f;" horiz-adv-x="1372" d="M1218 1365 L1218 0 L1038 0 L1038 591 L679 591 Q570 591 509 572 Q448 553 418 509 Q384 461 371.5 396 Q359 331 351 163 Q345 43 314 0 L108 0 L125 20 Q150 48 161 104.5 Q172 161 189 354 Q201 625 394 658 Q280 697 220 783 Q160 869 160 995 Q160 1202 326 1305 Q422 1365 594 1365 L1218 1365 Z M1038 1208 L650 1208 Q532 1208 472 1186 Q410 1163 376 1108.5 Q342 1054 342 978 Q342 838 442 779 Q482 756 538.5 746.5 Q595 737 698 737 L1038 737 L1038 1208 Z " />
</font>
</svg>
