<?xml version="1.0" encoding="UTF-8"?>
<svg xmlns="http://www.w3.org/2000/svg" xmlns:xlink="http://www.w3.org/1999/xlink" version="1.2" >
<font id="NimbusSanNovSemBol">
<font-face  font-family="NimbusSanNovSemBol" units-per-em="2048" ascent="1682" descent="-366" font-style="normal" font-weight="400" font-stretch="normal" cap-height="1365" x-height="990" underline-position="-203" underline-thickness="146" />
<missing-glyph  horiz-adv-x="532" d="M53 0 L53 1365 L479 1365 L479 0 L53 0 Z M426 53 L426 1312 L106 1312 L106 53 L426 53 Z " />
<glyph glyph-name="space" unicode="&#x20;" horiz-adv-x="532" d="" />
<glyph glyph-name="exclam" unicode="&#x21;" horiz-adv-x="532" d="M408 1365 L408 974 L339 378 L226 378 L166 972 L166 1365 L408 1365 Z M412 242 L412 0 L162 0 L162 242 L412 242 Z " />
<glyph glyph-name="quotedbl" unicode="&#x22;" horiz-adv-x="849" d="M334 818 L154 818 L112 1365 L376 1365 L334 818 Z M695 818 L516 818 L474 1365 L737 1365 L695 818 Z " />
<glyph glyph-name="numbersign" unicode="&#x23;" horiz-adv-x="1063" d="M731 445 L679 78 L548 78 L600 445 L386 445 L334 78 L203 78 L255 445 L27 445 L45 573 L273 573 L301 776 L73 776 L91 904 L319 904 L367 1241 L497 1241 L450 904 L664 904 L712 1241 L843 1241 L795 904 L1036 904 L1018 776 L777 776 L749 573 L990 573 L972 445 L731 445 Z M646 776 L432 776 L404 573 L618 573 L646 776 Z " />
<glyph glyph-name="dollar" unicode="&#x24;" horiz-adv-x="1063" d="M581 1211 L581 801 Q763 758 856 695 Q1006 592 1006 393 Q1006 167 822 45 Q728 -17 581 -24 L581 -248 L472 -248 L472 -24 Q266 -17 147 114 Q37 239 38 436 L259 436 Q261 317 303 251 Q358 167 472 157 L472 616 Q71 705 71 1000 Q71 1163 182 1270 Q293 1377 472 1386 L472 1572 L581 1572 L581 1386 Q761 1374 862.5 1270 Q964 1166 965 992 L752 992 Q747 1090 714 1139 Q669 1204 581 1211 Z M472 1215 Q399 1208 351 1173 Q318 1148 297 1107.5 Q276 1067 276 1027 Q276 934 341 881 Q378 851 472 824 L472 1215 Z M581 155 Q677 162 729 211 Q794 272 794 367 Q794 455 746.5 505 Q699 555 581 591 L581 155 Z " />
<glyph glyph-name="percent" unicode="&#x25;" horiz-adv-x="1912" d="M507 1346 Q655 1346 733.5 1252 Q812 1158 812 981 Q812 790 731.5 689.5 Q651 589 500 589 Q335 589 253 702 Q185 797 185 970 Q185 1151 268.5 1248.5 Q352 1346 507 1346 Z M501 1222 Q354 1222 354 962 Q354 834 388.5 773 Q423 712 496 712 Q572 712 608 777 Q644 842 644 980 Q644 1222 501 1222 Z M1405 1334 L652 0 L508 0 L1265 1334 L1405 1334 Z M1423 744 Q1571 744 1649.5 650 Q1728 556 1728 380 Q1728 189 1647.5 88.5 Q1567 -12 1416 -12 Q1251 -12 1169 101 Q1101 196 1101 369 Q1101 550 1184.5 647 Q1268 744 1423 744 Z M1417 620 Q1270 620 1270 360 Q1270 233 1304.5 172 Q1339 111 1412 111 Q1488 111 1524 176 Q1560 241 1560 378 Q1560 620 1417 620 Z " />
<glyph glyph-name="ampersand" unicode="&#x26;" horiz-adv-x="1239" d="M1097 653 Q1078 448 986 316 L1254 0 L986 0 L859 153 Q829 110 762 61 Q641 -29 476 -29 Q277 -29 158 91 Q49 201 49 365 Q49 551 201 672 Q288 742 359 773 Q286 862 254.5 931.5 Q223 1001 223 1073 Q223 1224 342 1310 Q432 1377 561 1377 Q700 1377 790 1298 Q890 1210 890 1073 Q890 854 649 724 L858 466 Q895 550 905 653 L1097 653 Z M540 857 Q699 953 699 1070 Q699 1132 659.5 1173.5 Q620 1215 560 1215 Q500 1215 459.5 1176.5 Q419 1138 419 1081 Q419 1036 446 986.5 Q473 937 540 857 Z M472 632 Q408 597 371 567 Q263 482 263 372 Q263 282 329 218 Q395 154 488 154 Q626 154 743 300 L472 632 Z " />
<glyph glyph-name="quotesingle" unicode="&#x27;" horiz-adv-x="532" d="M356 818 L176 818 L134 1365 L398 1365 L356 818 Z " />
<glyph glyph-name="parenleft" unicode="&#x28;" horiz-adv-x="532" d="M484 1365 Q373 1170 323 995 Q251 746 251 493 Q251 44 486 -366 L308 -366 Q219 -214 189 -156 Q159 -98 128 -17 Q33 234 33 487 Q33 773 134 1037 Q167 1121 216.5 1214.5 Q266 1308 308 1365 L484 1365 Z " />
<glyph glyph-name="parenright" unicode="&#x29;" horiz-adv-x="532" d="M48 -366 Q160 -170 209 4 Q281 254 281 506 Q281 955 46 1365 L224 1365 Q313 1214 343 1155 Q373 1096 404 1016 Q499 765 499 512 Q499 226 398 -38 Q365 -121 315.5 -215 Q266 -309 224 -366 L48 -366 Z " />
<glyph glyph-name="asterisk" unicode="&#x2a;" horiz-adv-x="708" d="M674 1096 L456 1023 L590 843 L488 766 L351 956 L220 766 L114 843 L247 1023 L34 1096 L76 1218 L288 1137 L287 1365 L419 1365 L416 1137 L628 1218 L674 1096 Z " />
<glyph glyph-name="plus" unicode="&#x2b;" horiz-adv-x="1147" d="M116 748 L496 748 L496 1121 L653 1121 L653 748 L1031 748 L1031 591 L653 591 L653 218 L496 218 L496 591 L116 591 L116 748 Z " />
<glyph glyph-name="comma" unicode="&#x2c;" horiz-adv-x="532" d="M394 253 L394 73 Q394 -118 318 -200 Q246 -279 135 -302 L135 -186 Q253 -146 257 0 L135 0 L135 253 L394 253 Z " />
<glyph glyph-name="hyphen" unicode="&#x2d;" horiz-adv-x="744" d="M618 609 L618 411 L126 411 L126 609 L618 609 Z " />
<glyph glyph-name="period" unicode="&#x2e;" horiz-adv-x="532" d="M399 258 L399 0 L133 0 L133 258 L399 258 Z " />
<glyph glyph-name="slash" unicode="&#x2f;" horiz-adv-x="673" d="M695 1365 L30 -366 L-163 -366 L505 1365 L695 1365 Z " />
<glyph glyph-name="zero" unicode="0" horiz-adv-x="1063" d="M534 1385 Q663 1385 761 1323.5 Q859 1262 912 1149 Q995 970 995 673 Q995 391 911 212 Q800 -24 535 -24 Q303 -24 185 153 Q67 330 67 677 Q67 977 154 1153 Q210 1267 307 1326 Q404 1385 534 1385 Z M533 1202 Q400 1202 344 1079 Q288 956 288 664 Q288 455 325 331 Q377 159 534 159 Q690 159 737 329 Q774 464 774 674 Q774 896 736 1030 Q687 1202 533 1202 Z " />
<glyph glyph-name="one" unicode="1" horiz-adv-x="1063" d="M747 1394 L747 0 L515 0 L515 957 L420 957 L323 957 L224 957 L179 957 L179 1124 Q359 1125 449.5 1187 Q540 1249 573 1394 L747 1394 Z " />
<glyph glyph-name="two" unicode="2" horiz-adv-x="1063" d="M976 194 L976 0 L59 0 Q65 192 147.5 314.5 Q230 437 459 595 Q647 725 693 781 Q756 859 756 967 Q756 1076 697.5 1139 Q639 1202 538 1202 Q420 1202 365.5 1124 Q311 1046 305 868 L93 868 Q93 881 93 901 Q93 1129 222 1262 Q341 1385 543 1385 Q732 1385 845 1284 Q977 1165 977 971 Q977 796 861 668 Q796 597 610 470 Q366 309 319 190 L490 194 L976 194 Z " />
<glyph glyph-name="three" unicode="3" horiz-adv-x="1063" d="M81 933 Q86 1092 154 1200 Q270 1385 518 1385 Q701 1385 812 1289 Q933 1184 933 1018 Q933 919 882.5 843.5 Q832 768 746 738 Q860 709 924 624 Q988 539 988 415 Q988 218 849 92 Q721 -24 513 -24 Q273 -24 142 137 Q49 251 49 424 Q49 434 50 453 L260 453 Q269 159 521 159 Q644 159 709 235 Q767 303 767 407 Q767 519 696.5 579 Q626 639 494 639 Q463 639 424 636 L424 805 Q440 805 447 805 Q588 805 646 848 Q719 902 719 1004 Q719 1094 663 1148 Q607 1202 515 1202 Q410 1202 352 1133 Q294 1064 290 933 L81 933 Z " />
<glyph glyph-name="four" unicode="4" horiz-adv-x="1063" d="M997 511 L997 328 L827 328 L827 0 L617 0 L616 328 L47 328 L47 544 L620 1394 L827 1394 L827 511 L997 511 Z M619 511 L619 840 Q619 988 624 1119 L225 510 Q325 511 363 511 L619 511 Z " />
<glyph glyph-name="five" unicode="5" horiz-adv-x="1063" d="M908 1365 L908 1177 L373 1177 L336 962 Q324 890 306 815 Q400 920 572 920 Q745 920 857 804 Q982 676 982 469 Q982 240 834 100 Q703 -23 502 -23 Q303 -23 178.5 90.5 Q54 204 48 390 L264 390 Q274 285 340 222.5 Q406 160 508 160 Q642 160 708 253 Q761 328 761 456 Q761 582 704 658 Q635 751 503 751 Q362 751 279 622 L87 628 L216 1365 L908 1365 Z " />
<glyph glyph-name="six" unicode="6" horiz-adv-x="1063" d="M974 1022 L762 1022 Q731 1211 559 1211 Q392 1211 327 999 Q303 919 294 836 L286 737 Q396 905 590 905 Q775 905 893 777 Q1004 658 1004 455 Q1004 246 870 104 Q748 -24 551 -24 Q321 -24 197 154 Q73 332 73 662 Q73 1021 218 1210 Q352 1385 570 1385 Q741 1385 848 1288.5 Q955 1192 974 1022 Z M552 730 Q426 730 364 636 Q315 562 315 450 Q315 335 369 253 Q432 159 551 159 Q666 159 728 249 Q783 329 783 446 Q783 562 729 639 Q664 730 552 730 Z " />
<glyph glyph-name="seven" unicode="7" horiz-adv-x="1063" d="M1003 1365 L1003 1181 Q836 1018 696 717 Q530 361 514 0 L277 0 Q278 143 339.5 357 Q401 571 487 735 Q635 1014 789 1166 Q639 1163 598 1163 L91 1163 L91 1365 L1003 1365 Z " />
<glyph glyph-name="eight" unicode="8" horiz-adv-x="1063" d="M305 736 Q214 769 163.5 844.5 Q113 920 113 1022 Q113 1192 242 1293 Q357 1385 537 1385 Q726 1385 842 1277 Q948 1179 948 1027 Q948 817 757 736 Q831 711 871 683 Q1002 590 1002 405 Q1002 205 860 84 Q734 -24 528 -24 Q317 -24 187 94 Q60 209 60 393 Q60 521 124 610.5 Q188 700 305 736 Z M535 1210 Q423 1210 365 1144 Q318 1090 318 1010 Q318 920 377.5 864 Q437 808 532 808 Q629 808 686 862.5 Q743 917 743 1009 Q743 1101 686.5 1155.5 Q630 1210 535 1210 Z M533 649 Q419 649 350 582 Q281 515 281 404 Q281 287 350 219 Q419 151 538 151 Q652 151 716.5 216 Q781 281 781 397 Q781 514 712 582 Q643 649 533 649 Z " />
<glyph glyph-name="nine" unicode="9" horiz-adv-x="1063" d="M88 341 L297 341 Q310 265 343 225 Q403 151 507 151 Q603 151 662.5 221.5 Q722 292 751 441 Q769 534 772 631 Q727 564 700 540 Q606 457 473 457 Q276 457 159 604 Q61 728 61 906 Q61 1126 201 1261 Q329 1385 516 1385 Q754 1385 883 1187 Q990 1023 990 715 Q990 442 902 252 Q833 103 733 40 Q633 -24 496 -24 Q278 -24 162 134 Q94 227 88 341 Z M515 1202 Q405 1202 343 1120 Q282 1040 282 911 Q282 805 326 734 Q388 632 514 632 Q618 632 682.5 709 Q747 786 747 912 Q747 1035 688 1116 Q625 1202 515 1202 Z " />
<glyph glyph-name="colon" unicode="&#x3a;" horiz-adv-x="532" d="M416 258 L416 0 L150 0 L150 258 L416 258 Z M416 976 L416 718 L150 718 L150 976 L416 976 Z " />
<glyph glyph-name="semicolon" unicode="&#x3b;" horiz-adv-x="532" d="M416 253 L416 73 Q416 -118 340 -200 Q268 -279 157 -302 L157 -186 Q275 -146 279 0 L157 0 L157 253 L416 253 Z M416 976 L416 718 L150 718 L150 976 L416 976 Z " />
<glyph glyph-name="less" unicode="&#x3c;" horiz-adv-x="1147" d="M1017 1233 L1017 996 L382 688 L1016 379 L1017 144 L130 588 L130 789 L1017 1233 Z " />
<glyph glyph-name="equal" unicode="&#x3d;" horiz-adv-x="1147" d="M116 900 L1031 900 L1031 747 L116 747 L116 900 Z M116 591 L1031 591 L1031 438 L116 438 L116 591 Z " />
<glyph glyph-name="greater" unicode="&#x3e;" horiz-adv-x="1147" d="M131 144 L131 381 L766 689 L132 998 L131 1233 L1018 789 L1018 588 L131 144 Z " />
<glyph glyph-name="question" unicode="&#x3f;" horiz-adv-x="1063" d="M102 931 Q110 1108 180 1211 Q240 1299 336.5 1345.5 Q433 1392 554 1392 Q750 1392 869 1282 Q981 1178 981 1011 Q981 904 935.5 828.5 Q890 753 760 644 Q707 600 686.5 571.5 Q666 543 653 495 Q642 454 641 371 L435 371 Q439 520 461 584 Q478 632 508 668 Q538 704 640 799 Q700 855 724.5 902 Q749 949 749 1010 Q749 1099 695.5 1152 Q642 1205 552 1205 Q335 1205 322 931 L102 931 Z M660 242 L660 0 L412 0 L412 242 L660 242 Z " />
<glyph glyph-name="at" unicode="&#x40;" horiz-adv-x="1530" d="M1302 366 L1436 365 Q1401 289 1364 241 Q1327 193 1265 141 Q1055 -33 794 -33 Q581 -33 402 82 Q232 191 144 374 Q75 518 75 682 Q75 886 179 1056 Q273 1209 432 1300 Q603 1398 802 1398 Q968 1398 1113 1327 Q1282 1244 1373 1095 Q1454 962 1454 807 Q1454 560 1261 408 Q1127 302 993 302 Q939 302 897 326.5 Q855 351 839 392 Q725 299 620 299 Q491 299 415 402 Q363 471 363 579 Q363 745 478 893 Q612 1065 781 1065 Q913 1065 978 966 L1003 1032 L1174 1033 L1002 520 Q985 469 985 442 Q985 399 1036 399 Q1075 399 1124.5 427 Q1174 455 1217 501 Q1333 628 1333 798 Q1333 1015 1162 1159 Q1011 1285 803 1285 Q631 1285 487 1198 Q357 1120 282 989 Q203 850 203 684 Q203 440 367 268 Q542 84 800 84 Q953 84 1089 160.5 Q1225 237 1302 366 Z M850 611 L898 744 Q921 809 921 849 Q921 896 893 928.5 Q865 961 824 961 Q735 961 654 843 Q613 782 584 691.5 Q555 601 555 532 Q555 470 580 434 Q605 398 647 398 Q713 398 761.5 448.5 Q810 499 850 611 Z " />
<glyph glyph-name="A" unicode="A" horiz-adv-x="1275" d="M767 1365 L1292 0 L1036 0 L905 363 L365 363 L232 0 L-17 0 L511 1365 L767 1365 Z M842 545 L731 850 Q673 1010 637 1136 Q604 1029 540 853 L427 545 L842 545 Z " />
<glyph glyph-name="B" unicode="B" horiz-adv-x="1346" d="M139 1365 L728 1365 Q932 1365 1028 1317 Q1111 1275 1159.5 1196 Q1208 1117 1208 1022 Q1208 925 1156 848.5 Q1104 772 1013 735 Q1269 661 1269 403 Q1269 292 1218 202 Q1167 112 1074 58 Q973 0 799 0 L139 0 L139 1365 Z M379 1171 L379 796 L683 796 Q803 796 856 813 Q907 831 937.5 877 Q968 923 968 984 Q968 1116 862 1155 Q820 1171 691 1171 L379 1171 Z M379 624 L379 194 L716 194 Q876 194 937 230 Q1029 285 1029 409 Q1029 479 996.5 531 Q964 583 906 604 Q852 624 692 624 L379 624 Z " />
<glyph glyph-name="C" unicode="C" horiz-adv-x="1381" d="M1315 522 Q1301 314 1178 166 Q1013 -33 720 -33 Q409 -33 233 194 Q83 388 83 683 Q83 994 268 1200 Q445 1398 732 1398 Q1007 1398 1175 1217 Q1292 1091 1304 931 L1067 931 Q1041 1056 951.5 1126 Q862 1196 728 1196 Q510 1196 405 1014 Q323 872 323 683 Q323 479 408 342 Q515 169 726 169 Q877 169 966 259 Q1055 349 1077 522 L1315 522 Z " />
<glyph glyph-name="D" unicode="D" horiz-adv-x="1381" d="M135 1365 L656 1365 Q810 1365 915 1332 Q1020 1299 1102 1226 Q1305 1044 1305 705 Q1305 344 1112 152 Q1028 68 929 34 Q830 0 670 0 L135 0 L135 1365 Z M375 1160 L375 205 L637 205 Q760 205 827.5 227 Q895 249 946 305 Q1065 436 1065 694 Q1065 922 957 1041 Q849 1160 641 1160 L375 1160 Z " />
<glyph glyph-name="E" unicode="E" horiz-adv-x="1205" d="M1117 1365 L1117 1160 L373 1160 L373 801 L1063 801 L1063 607 L373 607 L373 205 L1130 205 L1130 0 L133 0 L133 1365 L1117 1365 Z " />
<glyph glyph-name="F" unicode="F" horiz-adv-x="1134" d="M1089 1365 L1089 1160 L384 1160 L384 791 L1003 791 L1003 597 L384 597 L384 0 L144 0 L144 1365 L1089 1365 Z " />
<glyph glyph-name="G" unicode="G" horiz-adv-x="1451" d="M1337 728 L1337 0 L1184 0 L1146 163 Q988 -33 722 -33 Q402 -33 222 201 Q74 394 74 673 Q74 995 265 1202 Q447 1398 742 1398 Q1015 1398 1180 1229 Q1303 1102 1320 931 L1087 931 Q1066 1054 972.5 1125 Q879 1196 740 1196 Q533 1196 417 1042 Q314 906 314 676 Q314 462 409 330 Q525 169 747 169 Q977 169 1074 350 Q1113 423 1121 546 L751 546 L751 728 L1337 728 Z " />
<glyph glyph-name="H" unicode="H" horiz-adv-x="1381" d="M1243 1365 L1243 0 L1003 0 L1003 614 L378 614 L378 0 L138 0 L138 1365 L378 1365 L378 819 L1003 819 L1003 1365 L1243 1365 Z " />
<glyph glyph-name="I" unicode="I" horiz-adv-x="532" d="M386 1365 L386 0 L146 0 L146 1365 L386 1365 Z " />
<glyph glyph-name="J" unicode="J" horiz-adv-x="1027" d="M890 1365 L890 444 Q890 323 875.5 255 Q861 187 823 130 Q715 -33 469 -33 Q185 -33 86 159 Q37 255 37 428 Q37 449 38 481 L264 481 L264 458 Q265 340 275 295 Q306 164 463 164 Q569 164 609.5 223.5 Q650 283 650 438 L650 1365 L890 1365 Z " />
<glyph glyph-name="K" unicode="K" horiz-adv-x="1310" d="M1290 1365 L744 822 L1326 0 L1028 0 L580 653 L384 460 L384 0 L144 0 L144 1365 L384 1365 L384 734 Q425 785 484 846 L989 1365 L1290 1365 Z " />
<glyph glyph-name="L" unicode="L" horiz-adv-x="1098" d="M1065 205 L1065 0 L128 0 L128 1365 L368 1365 L368 205 L1065 205 Z " />
<glyph glyph-name="M" unicode="M" horiz-adv-x="1700" d="M1559 1365 L1559 0 L1330 0 L1332 510 Q1333 865 1352 1160 Q1300 970 1220 748 L951 0 L756 0 L476 737 Q381 1014 348 1150 Q365 798 366 529 L368 0 L139 0 L139 1365 L474 1365 L736 652 Q825 376 855 263 Q924 515 973 652 L1224 1365 L1559 1365 Z " />
<glyph glyph-name="N" unicode="N" horiz-adv-x="1381" d="M1246 1365 L1246 0 L999 0 L558 697 Q404 940 351 1054 Q363 898 363 635 L363 0 L135 0 L135 1365 L383 1365 L831 655 Q967 438 1030 310 Q1018 577 1018 739 L1018 1365 L1246 1365 Z " />
<glyph glyph-name="O" unicode="O" horiz-adv-x="1453" d="M738 1398 Q1008 1398 1190 1210 Q1382 1011 1382 683 Q1382 397 1235 206 Q1050 -33 727 -33 Q402 -33 215 210 Q71 398 71 681 Q71 1015 258 1205 Q448 1398 738 1398 Z M733 1196 Q544 1196 428 1061 Q311 925 311 685 Q311 453 416 317 Q470 248 553.5 208.5 Q637 169 730 169 Q905 169 1014 289 Q1142 431 1142 685 Q1142 918 1028 1057 Q916 1196 733 1196 Z " />
<glyph glyph-name="P" unicode="P" horiz-adv-x="1275" d="M144 1365 L700 1365 Q833 1365 908.5 1348.5 Q984 1332 1046 1290 Q1213 1176 1213 949 Q1213 728 1060 612 Q999 565 924.5 545.5 Q850 526 731 526 L384 526 L384 0 L144 0 L144 1365 Z M384 1164 L384 720 L699 720 Q834 720 894 766 Q973 825 973 943 Q973 1068 881 1126 Q820 1164 677 1164 L384 1164 Z " />
<glyph glyph-name="Q" unicode="Q" horiz-adv-x="1453" d="M1372 9 L1255 -124 L1052 51 Q920 -33 727 -33 Q430 -33 248 178 Q78 376 78 683 Q78 1003 266 1202 Q452 1398 734 1398 Q1032 1398 1213 1189 Q1387 988 1387 688 Q1387 524 1336 385.5 Q1285 247 1193 161 L1372 9 Z M1024 308 Q1081 381 1101 430 Q1147 540 1147 687 Q1147 913 1038 1053 Q926 1196 732 1196 Q541 1196 428 1053 Q318 916 318 687 Q318 458 419 322 Q533 169 736 169 Q818 169 889 199 L748 319 L863 449 L1024 308 Z " />
<glyph glyph-name="R" unicode="R" horiz-adv-x="1346" d="M145 1365 L792 1365 Q979 1365 1080 1305 Q1252 1202 1252 986 Q1252 862 1193.5 775 Q1135 688 1026 650 Q1121 630 1173 552 Q1204 505 1214 454.5 Q1224 404 1241 214 Q1255 56 1288 18 L1303 0 L1044 0 Q1026 30 1019 73 Q1012 116 1002 275 Q992 443 929 503.5 Q866 564 702 564 L385 564 L385 0 L145 0 L145 1365 Z M385 1167 L385 741 L700 741 Q862 741 926 782 Q1012 837 1012 959 Q1012 1098 898 1144 Q842 1167 731 1167 L385 1167 Z " />
<glyph glyph-name="S" unicode="S" horiz-adv-x="1239" d="M1135 964 L907 964 Q881 1206 611 1206 Q488 1206 418.5 1155 Q349 1104 349 1014 Q349 930 413 894 Q473 859 696 807 Q933 752 1024 693 Q1189 586 1189 398 Q1189 200 1043 85 Q897 -30 646 -30 Q376 -30 225 97.5 Q74 225 71 455 L307 455 Q311 332 370 266 Q464 160 660 160 Q800 160 875 217 Q954 277 954 377 Q954 430 928.5 465.5 Q903 501 844 531 Q796 555 635 595 Q351 665 262 722 Q120 814 120 996 Q120 1178 258 1286.5 Q396 1395 627 1395 Q862 1395 995 1282.5 Q1128 1170 1135 964 Z " />
<glyph glyph-name="T" unicode="T" horiz-adv-x="1134" d="M1121 1365 L1121 1160 L686 1160 L686 0 L446 0 L446 1160 L10 1160 L10 1365 L1121 1365 Z " />
<glyph glyph-name="U" unicode="U" horiz-adv-x="1381" d="M1250 1365 L1250 565 Q1250 387 1223 299 Q1120 -33 693 -33 Q352 -33 212 177 Q165 247 146.5 334 Q128 421 128 569 L128 1365 L368 1365 L368 556 Q368 449 377.5 394 Q387 339 414 292 Q487 166 697 166 Q895 166 963 283 Q1010 365 1010 557 L1010 1365 L1250 1365 Z " />
<glyph glyph-name="V" unicode="V" horiz-adv-x="1168" d="M1180 1365 L716 0 L448 0 L-13 1365 L240 1365 L468 659 Q545 423 584 219 Q628 425 704 658 L933 1365 L1180 1365 Z " />
<glyph glyph-name="W" unicode="W" horiz-adv-x="1805" d="M1795 1365 L1425 0 L1178 0 L987 710 Q965 792 901 1103 Q859 896 813 719 L624 0 L373 0 L11 1365 L257 1365 L427 660 Q470 479 506 254 Q547 491 593 661 L783 1365 L1026 1365 L1216 658 Q1248 538 1299 254 Q1339 490 1381 662 L1554 1365 L1795 1365 Z " />
<glyph glyph-name="X" unicode="X" horiz-adv-x="1239" d="M1214 1365 L762 709 L1248 0 L954 0 L709 373 Q656 455 617 533 Q580 466 519 375 L269 0 L-9 0 L479 709 L25 1365 L312 1365 L515 1052 Q587 941 622 865 Q670 954 732 1047 L943 1365 L1214 1365 Z " />
<glyph glyph-name="Y" unicode="Y" horiz-adv-x="1239" d="M1252 1365 L741 542 L741 0 L501 0 L501 544 L-13 1365 L263 1365 L528 928 Q579 844 626 743 Q682 863 724 933 L985 1365 L1252 1365 Z " />
<glyph glyph-name="Z" unicode="Z" horiz-adv-x="1205" d="M1143 1365 L1143 1176 L450 332 L332 201 Q436 205 594 205 L1165 205 L1165 0 L43 0 L43 198 L750 1057 Q767 1078 850 1164 Q734 1160 605 1160 L102 1160 L102 1365 L1143 1365 Z " />
<glyph glyph-name="bracketleft" unicode="&#x5b;" horiz-adv-x="566" d="M537 1365 L537 1203 L306 1203 L306 -204 L537 -204 L537 -366 L108 -366 L108 1365 L537 1365 Z " />
<glyph glyph-name="backslash" unicode="&#x5c;" horiz-adv-x="673" d="M-22 1365 L169 1365 L836 -366 L643 -366 L-22 1365 Z " />
<glyph glyph-name="bracketright" unicode="&#x5d;" horiz-adv-x="566" d="M29 -366 L29 -204 L260 -204 L260 1203 L29 1203 L29 1365 L458 1365 L458 -366 L29 -366 Z " />
<glyph glyph-name="asciicircum" unicode="&#x5e;" horiz-adv-x="1147" d="M322 740 L108 740 L440 1371 L706 1371 L1039 740 L823 740 L573 1209 L322 740 Z " />
<glyph glyph-name="underscore" unicode="&#x5f;" horiz-adv-x="956" d="M-34 -130 L990 -130 L990 -276 L-34 -276 L-34 -130 Z " />
<glyph glyph-name="grave" unicode="&#x60;" horiz-adv-x="461" d="M-39 1419 L199 1419 L336 1130 L191 1130 L-39 1419 Z " />
<glyph glyph-name="a" unicode="a" horiz-adv-x="1063" d="M87 683 Q99 826 181 906 Q294 1017 520 1017 Q648 1017 744 983.5 Q840 950 886 889 Q932 828 932 703 Q932 674 928 522 L923 284 Q923 187 932 165 Q941 143 979 143 Q996 143 1027 147 L1027 -6 Q941 -28 886 -28 Q745 -28 725 91 Q589 -29 375 -29 Q224 -29 134 51 Q44 131 44 266 Q44 409 144 484 Q199 525 255 540.5 Q311 556 487 578 Q646 598 681.5 617.5 Q717 637 717 706 Q717 856 512 856 Q406 856 356 816.5 Q306 777 293 683 L87 683 Z M714 494 Q673 473 638 464.5 Q603 456 483 440 Q348 422 306 380 Q266 340 266 276 Q266 206 313.5 167 Q361 128 447 128 Q526 128 594 157 Q662 186 691 232 Q714 269 714 378 L714 494 Z " />
<glyph glyph-name="b" unicode="b" horiz-adv-x="1168" d="M338 1365 L338 861 Q453 1017 662 1017 Q859 1017 982 875 Q1100 738 1100 503 Q1100 274 984 128 Q860 -27 649 -27 Q420 -27 325 134 L325 0 L120 0 L120 1365 L338 1365 Z M610 842 Q487 842 410 756 Q332 668 332 495 Q332 339 399 249 Q474 148 608 148 Q736 148 808 250 Q879 349 879 499 Q879 663 800 756 Q728 842 610 842 Z " />
<glyph glyph-name="c" unicode="c" horiz-adv-x="1063" d="M1011 370 Q986 183 865.5 78 Q745 -27 556 -27 Q312 -27 179 140 Q70 277 70 484 Q70 744 221 889 Q354 1017 561 1017 Q752 1017 868.5 921.5 Q985 826 1005 655 L787 655 Q769 746 711.5 794 Q654 842 564 842 Q437 842 364 748.5 Q291 655 291 493 Q291 347 349 258 Q420 148 556 148 Q691 148 756 255 Q785 303 796 370 L1011 370 Z " />
<glyph glyph-name="d" unicode="d" horiz-adv-x="1168" d="M1047 1365 L1047 0 L842 0 L842 136 Q751 -27 526 -27 Q318 -27 193 115 Q69 257 69 497 Q69 730 183 867 Q307 1017 517 1017 Q623 1017 703 977 Q783 937 829 860 L829 1365 L1047 1365 Z M565 842 Q439 842 367 756 Q290 664 290 498 Q290 336 365 240 Q438 148 564 148 Q692 148 765 240 Q837 330 837 494 Q837 670 757 758 Q681 842 565 842 Z " />
<glyph glyph-name="e" unicode="e" horiz-adv-x="1063" d="M995 310 Q975 227 929 160 Q801 -27 548 -27 Q318 -27 185 124 Q60 267 60 483 Q60 709 188 859 Q323 1017 539 1017 Q715 1017 839 911 Q1011 764 1009 442 L277 442 Q280 361 301 306 Q366 134 551 134 Q723 134 787 310 L995 310 Z M790 588 Q783 676 747 737 Q675 856 537 856 Q430 856 364 787 Q298 718 281 588 L790 588 Z " />
<glyph glyph-name="f" unicode="f" horiz-adv-x="602" d="M595 1367 L595 1198 Q548 1204 507 1204 Q436 1204 412.5 1180.5 Q389 1157 389 1086 L389 990 L576 990 L576 830 L391 830 L391 0 L173 0 L173 830 L9 830 L9 990 L173 990 L173 1049 Q173 1146 184.5 1194 Q196 1242 227 1280 Q305 1373 478 1373 Q527 1373 595 1367 Z " />
<glyph glyph-name="g" unicode="g" horiz-adv-x="1134" d="M1017 991 L1017 116 Q1017 -7 1003 -77 Q989 -147 952 -205 Q838 -386 541 -386 Q136 -386 97 -85 L316 -85 Q347 -232 546 -232 Q698 -232 759 -146 Q805 -81 806 60 L807 176 Q702 9 492 9 Q298 9 180 143 Q62 277 62 504 Q62 737 184 876 Q307 1017 505 1017 Q609 1017 682.5 977.5 Q756 938 812 852 L812 991 L1017 991 Z M549 843 Q410 843 341 739 Q283 652 283 519 Q283 335 372 251 Q442 184 543 184 Q679 184 749 292 Q807 381 807 518 Q807 690 720 776 Q652 843 549 843 Z " />
<glyph glyph-name="h" unicode="h" horiz-adv-x="1098" d="M335 1365 L335 969 Q335 954 332 849 Q394 937 469 977 Q544 1017 648 1017 Q857 1017 943 872 Q988 795 988 634 L988 0 L770 0 L770 601 Q770 719 739 764 Q690 834 577 834 Q424 834 364 704 Q346 665 340.5 620 Q335 575 335 474 L335 0 L117 0 L117 1365 L335 1365 Z " />
<glyph glyph-name="i" unicode="i" horiz-adv-x="461" d="M339 1365 L339 1157 L121 1157 L121 1365 L339 1365 Z M339 990 L339 0 L121 0 L121 990 L339 990 Z " />
<glyph glyph-name="j" unicode="j" horiz-adv-x="461" d="M339 990 L339 -13 Q339 -142 327.5 -197.5 Q316 -253 281 -296 Q214 -379 47 -379 Q7 -379 -44 -373 L-44 -195 Q-13 -198 8 -198 Q88 -198 106 -163 Q121 -134 121 28 L121 990 L339 990 Z M339 1365 L339 1157 L121 1157 L121 1365 L339 1365 Z " />
<glyph glyph-name="k" unicode="k" horiz-adv-x="1027" d="M999 990 L619 627 L1034 0 L767 0 L467 479 L335 356 L335 0 L117 0 L117 1365 L335 1365 L335 735 Q335 712 334 586 Q382 643 401 662 L730 990 L999 990 Z " />
<glyph glyph-name="l" unicode="l" horiz-adv-x="461" d="M339 1365 L339 0 L121 0 L121 1365 L339 1365 Z " />
<glyph glyph-name="m" unicode="m" horiz-adv-x="1664" d="M320 990 L320 851 Q384 938 458.5 977.5 Q533 1017 633 1017 Q829 1017 908 849 Q1031 1017 1229 1017 Q1343 1017 1428 961 Q1494 917 1523.5 849.5 Q1553 782 1553 675 L1553 0 L1335 0 L1335 607 Q1335 712 1315 753 Q1275 834 1160 834 Q1017 834 963 713 Q941 664 941 531 L941 0 L723 0 L723 620 Q723 742 686 784 Q641 834 558 834 Q493 834 439.5 800.5 Q386 767 359 710 Q333 654 333 531 L333 0 L115 0 L115 990 L320 990 Z " />
<glyph glyph-name="n" unicode="n" horiz-adv-x="1098" d="M321 990 L321 844 Q441 1018 651 1018 Q779 1018 869 952 Q935 904 960.5 834 Q986 764 986 631 L986 0 L768 0 L768 576 Q768 689 750 738 Q733 783 688 808 Q640 835 579 835 Q507 835 449.5 800.5 Q392 766 365 707 Q334 640 334 496 L334 0 L116 0 L116 990 L321 990 Z " />
<glyph glyph-name="o" unicode="o" horiz-adv-x="1134" d="M575 1017 Q797 1017 934 872 Q1066 733 1066 495 Q1066 242 917 100 Q784 -27 568 -27 Q330 -27 195 124 Q67 268 67 494 Q67 716 187 855 Q328 1017 575 1017 Z M571 842 Q444 842 369 755 Q288 663 288 494 Q288 324 367 234 Q443 148 570 148 Q686 148 757 224 Q845 317 845 497 Q845 663 768 753 Q693 842 571 842 Z " />
<glyph glyph-name="p" unicode="p" horiz-adv-x="1168" d="M324 990 L324 858 Q431 1017 648 1017 Q847 1017 970 881 Q1100 737 1100 490 Q1100 262 985 122 Q862 -27 659 -27 Q447 -27 337 130 L337 -366 L119 -366 L119 990 L324 990 Z M607 842 Q479 842 403 752 Q329 665 329 496 Q329 321 409 232 Q485 148 607 148 Q730 148 802 235 Q879 328 879 490 Q879 658 800 754 Q728 842 607 842 Z " />
<glyph glyph-name="q" unicode="q" horiz-adv-x="1168" d="M1047 990 L1047 -366 L829 -366 L829 132 Q718 -27 507 -27 Q305 -27 183 120 Q69 259 69 491 Q69 740 199 883 Q322 1017 521 1017 Q748 1017 842 859 L842 990 L1047 990 Z M564 842 Q439 842 367 753 Q290 657 290 489 Q290 328 365 236 Q437 148 562 148 Q683 148 757 233 Q837 324 837 499 Q837 667 762 753 Q685 842 564 842 Z " />
<glyph glyph-name="r" unicode="r" horiz-adv-x="673" d="M692 1011 L692 800 Q644 806 615 806 Q497 806 421 732 Q368 681 349 611 Q330 541 330 397 L330 0 L112 0 L112 990 L317 990 L317 793 Q424 1012 652 1012 Q665 1012 692 1011 Z " />
<glyph glyph-name="s" unicode="s" horiz-adv-x="992" d="M899 702 L690 702 Q682 761 658 791 Q606 856 477 856 Q393 856 346 825.5 Q299 795 299 741 Q299 685 344.5 659.5 Q390 634 551 599 Q752 557 837 497 Q935 429 935 297 Q935 148 818.5 60.5 Q702 -27 503 -27 Q293 -27 180.5 60 Q68 147 59 317 L269 317 Q277 243 309 205 Q370 134 506 134 Q603 134 661 173 Q719 212 719 276 Q719 333 672.5 362 Q626 391 484 424 Q340 458 292 472.5 Q244 487 200 512 Q82 578 82 722 Q82 878 217 958 Q318 1017 486 1017 Q723 1017 829 895 Q889 827 899 702 Z " />
<glyph glyph-name="t" unicode="t" horiz-adv-x="637" d="M590 990 L590 830 L390 830 L390 309 Q390 220 405 196 Q428 163 507 163 Q546 163 590 170 L590 -2 Q506 -11 441 -11 Q261 -11 205 78 Q184 113 178 163 Q172 213 172 359 L172 830 L7 830 L7 990 L172 990 L172 1286 L390 1286 L390 990 L590 990 Z " />
<glyph glyph-name="u" unicode="u" horiz-adv-x="1098" d="M979 990 L979 0 L774 0 L774 147 Q656 -27 446 -27 Q269 -27 176 86 Q109 168 109 355 L109 990 L327 990 L327 425 Q327 275 356 229 Q402 156 516 156 Q661 156 728 283 Q761 345 761 505 L761 990 L979 990 Z " />
<glyph glyph-name="v" unicode="v" horiz-adv-x="992" d="M976 990 L621 0 L377 0 L15 990 L253 990 L407 543 Q467 369 504 206 Q534 338 603 545 L751 990 L976 990 Z " />
<glyph glyph-name="w" unicode="w" horiz-adv-x="1488" d="M1467 990 L1156 0 L932 0 L802 486 Q774 592 743 755 Q705 570 684 488 L560 0 L334 0 L21 990 L254 990 L369 572 Q407 433 455 224 Q501 455 533 582 L635 990 L854 990 L977 523 Q1003 424 1042 230 Q1085 433 1109 520 L1244 990 L1467 990 Z " />
<glyph glyph-name="x" unicode="x" horiz-adv-x="1027" d="M979 990 L639 532 L1021 0 L755 0 L576 264 Q556 293 509 372 Q464 295 439 259 L263 0 L6 0 L378 522 L36 990 L301 990 L432 803 Q463 760 510 680 Q544 736 596 808 L726 990 L979 990 Z " />
<glyph glyph-name="y" unicode="y" horiz-adv-x="992" d="M987 990 L620 19 Q565 -127 539 -182.5 Q513 -238 481 -278 Q400 -378 252 -378 Q198 -378 102 -367 L102 -183 Q180 -195 214 -195 Q291 -195 327 -122 Q373 -28 383 32 L5 990 L245 990 L438 457 Q464 385 507 228 Q552 387 581 471 L759 990 L987 990 Z " />
<glyph glyph-name="z" unicode="z" horiz-adv-x="956" d="M890 990 L890 837 L420 279 Q403 258 318 172 Q425 175 449 175 L920 175 L920 0 L46 0 L46 167 L503 708 Q547 760 616 817 Q551 815 517 815 L84 815 L84 990 L890 990 Z " />
<glyph glyph-name="braceleft" unicode="&#x7b;" horiz-adv-x="566" d="M191 499 Q255 461 280.5 407.5 Q306 354 306 255 L306 19 Q306 -63 315 -101 Q324 -139 350 -166 Q386 -204 479 -204 L504 -204 L504 -366 L498 -366 Q333 -365 280.5 -354.5 Q228 -344 185 -305 Q108 -235 108 -66 L108 221 Q108 312 82 357 Q56 402 -8 419 L-8 581 Q54 599 81 644 Q108 689 108 776 L108 1084 Q108 1241 187 1307 Q231 1344 283.5 1353.5 Q336 1363 499 1365 L504 1365 L504 1203 L478 1202 Q376 1198 341 1151.5 Q306 1105 306 975 L306 738 Q306 641 281 589 Q256 537 191 499 Z " />
<glyph glyph-name="bar" unicode="&#x7c;" horiz-adv-x="424" d="M93 1365 L332 1365 L332 -341 L93 -341 L93 1365 Z " />
<glyph glyph-name="braceright" unicode="&#x7d;" horiz-adv-x="566" d="M375 499 Q311 538 285.5 591.5 Q260 645 260 744 L260 980 Q260 1062 251 1100 Q242 1138 216 1165 Q180 1203 87 1203 L62 1203 L62 1365 L68 1365 Q233 1364 285.5 1353.5 Q338 1343 381 1304 Q458 1234 458 1065 L458 779 Q458 687 484 642 Q510 597 574 580 L574 418 Q512 400 485 355 Q458 310 458 223 L458 -85 Q458 -242 379 -308 Q335 -345 282.5 -354.5 Q230 -364 67 -366 L62 -366 L62 -204 L88 -203 Q190 -199 225 -152.5 Q260 -106 260 24 L260 261 Q260 359 285 410.5 Q310 462 375 499 Z " />
<glyph glyph-name="asciitilde" unicode="&#x7e;" horiz-adv-x="1147" d="M201 1158 L82 1255 Q191 1511 374 1511 Q447 1511 608 1436 Q693 1397 722 1387 Q751 1377 781 1377 Q872 1377 948 1516 L1068 1419 Q1008 1278 929 1220 Q856 1166 755 1166 Q716 1166 678.5 1179 Q641 1192 523 1248 Q417 1297 364 1297 Q318 1297 280.5 1265 Q243 1233 201 1158 Z " />
<glyph glyph-name="Adieresis" unicode="&#xc4;" horiz-adv-x="1275" d="M767 1365 L1292 0 L1036 0 L905 363 L365 363 L232 0 L-17 0 L511 1365 L767 1365 Z M842 545 L731 850 Q673 1010 637 1136 Q604 1029 540 853 L427 545 L842 545 Z M960 1709 L960 1506 L742 1506 L742 1709 L960 1709 Z M534 1709 L534 1506 L316 1506 L316 1709 L534 1709 Z " />
<glyph glyph-name="Aring" unicode="&#xc5;" horiz-adv-x="1275" d="M767 1365 L1292 0 L1036 0 L905 363 L365 363 L232 0 L-17 0 L511 1365 L767 1365 Z M842 545 L731 850 Q673 1010 637 1136 Q604 1029 540 853 L427 545 L842 545 Z M641 1871 Q731 1871 795 1801 Q849 1740 849 1659 Q849 1565 779 1502 Q718 1447 638 1447 Q543 1447 480 1517 Q426 1578 426 1661 Q426 1752 496 1816 Q556 1871 641 1871 Z M639 1763 Q595 1763 564.5 1733 Q534 1703 534 1660 Q534 1616 564 1585.5 Q594 1555 637 1555 Q680 1555 710.5 1585.5 Q741 1616 741 1659 Q741 1701 711 1732 Q681 1763 639 1763 Z " />
<glyph glyph-name="Ccedilla" unicode="&#xc7;" horiz-adv-x="1381" d="M741 -32 L683 -118 Q727 -108 754 -108 Q822 -108 867.5 -146.5 Q913 -185 913 -242 Q913 -321 850.5 -369.5 Q788 -418 686 -418 Q599 -418 488 -378 L523 -301 Q593 -332 663 -332 Q705 -332 732.5 -310 Q760 -288 760 -254 Q760 -224 733.5 -204 Q707 -184 666 -184 Q638 -184 597 -199 L562 -162 L655 -30 Q436 -16 282 138 Q83 338 83 683 Q83 995 268 1201 Q445 1398 732 1398 Q1007 1398 1175 1217 Q1292 1091 1304 931 L1067 931 Q1041 1056 951.5 1126 Q862 1196 728 1196 Q510 1196 405 1015 Q323 872 323 684 Q323 480 408 343 Q515 170 726 170 Q877 170 966 260 Q1055 350 1077 522 L1315 522 Q1298 280 1138 123 Q1060 46 967 9.5 Q874 -27 741 -32 Z " />
<glyph glyph-name="Eacute" unicode="&#xc9;" horiz-adv-x="1205" d="M1117 1365 L1117 1160 L373 1160 L373 801 L1063 801 L1063 607 L373 607 L373 205 L1130 205 L1130 0 L133 0 L133 1365 L1117 1365 Z M917 1742 L659 1481 L501 1481 L661 1742 L917 1742 Z " />
<glyph glyph-name="Ntilde" unicode="&#xd1;" horiz-adv-x="1381" d="M1246 1365 L1246 0 L999 0 L558 697 Q404 940 351 1054 Q363 898 363 635 L363 0 L135 0 L135 1365 L383 1365 L831 655 Q967 438 1030 310 Q1018 577 1018 739 L1018 1365 L1246 1365 Z M1039 1729 Q997 1508 836 1508 Q790 1508 648 1556 Q584 1578 553 1578 Q490 1578 465 1496 L359 1496 Q378 1604 432 1661 Q486 1718 571 1718 Q612 1718 643.5 1709 Q675 1700 778 1658 Q808 1646 841 1646 Q907 1646 932 1729 L1039 1729 Z " />
<glyph glyph-name="Odieresis" unicode="&#xd6;" horiz-adv-x="1453" d="M738 1398 Q1008 1398 1190 1210 Q1382 1011 1382 683 Q1382 397 1235 206 Q1050 -33 727 -33 Q402 -33 215 210 Q71 398 71 681 Q71 1015 258 1205 Q448 1398 738 1398 Z M733 1196 Q544 1196 428 1061 Q311 925 311 685 Q311 453 416 317 Q470 248 553.5 208.5 Q637 169 730 169 Q905 169 1014 289 Q1142 431 1142 685 Q1142 918 1028 1057 Q916 1196 733 1196 Z M1049 1709 L1049 1506 L831 1506 L831 1709 L1049 1709 Z M622 1709 L622 1506 L404 1506 L404 1709 L622 1709 Z " />
<glyph glyph-name="Udieresis" unicode="&#xdc;" horiz-adv-x="1381" d="M1250 1365 L1250 565 Q1250 387 1223 299 Q1120 -33 693 -33 Q352 -33 212 177 Q165 247 146.5 334 Q128 421 128 569 L128 1365 L368 1365 L368 556 Q368 449 377.5 394 Q387 339 414 292 Q487 166 697 166 Q895 166 963 283 Q1010 365 1010 557 L1010 1365 L1250 1365 Z M1012 1709 L1012 1506 L794 1506 L794 1709 L1012 1709 Z M585 1709 L585 1506 L367 1506 L367 1709 L585 1709 Z " />
<glyph glyph-name="aacute" unicode="&#xe1;" horiz-adv-x="1063" d="M87 683 Q99 826 181 906 Q294 1017 520 1017 Q648 1017 744 983.5 Q840 950 886 889 Q932 828 932 703 Q932 674 928 522 L923 284 Q923 187 932 165 Q941 143 979 143 Q996 143 1027 147 L1027 -6 Q941 -28 886 -28 Q745 -28 725 91 Q589 -29 375 -29 Q224 -29 134 51 Q44 131 44 266 Q44 409 144 484 Q199 525 255 540.5 Q311 556 487 578 Q646 598 681.5 617.5 Q717 637 717 706 Q717 856 512 856 Q406 856 356 816.5 Q306 777 293 683 L87 683 Z M714 494 Q673 473 638 464.5 Q603 456 483 440 Q348 422 306 380 Q266 340 266 276 Q266 206 313.5 167 Q361 128 447 128 Q526 128 594 157 Q662 186 691 232 Q714 269 714 378 L714 494 Z M792 1419 L562 1130 L418 1130 L554 1419 L792 1419 Z " />
<glyph glyph-name="agrave" unicode="&#xe0;" horiz-adv-x="1063" d="M87 683 Q99 826 181 906 Q294 1017 520 1017 Q648 1017 744 983.5 Q840 950 886 889 Q932 828 932 703 Q932 674 928 522 L923 284 Q923 187 932 165 Q941 143 979 143 Q996 143 1027 147 L1027 -6 Q941 -28 886 -28 Q745 -28 725 91 Q589 -29 375 -29 Q224 -29 134 51 Q44 131 44 266 Q44 409 144 484 Q199 525 255 540.5 Q311 556 487 578 Q646 598 681.5 617.5 Q717 637 717 706 Q717 856 512 856 Q406 856 356 816.5 Q306 777 293 683 L87 683 Z M714 494 Q673 473 638 464.5 Q603 456 483 440 Q348 422 306 380 Q266 340 266 276 Q266 206 313.5 167 Q361 128 447 128 Q526 128 594 157 Q662 186 691 232 Q714 269 714 378 L714 494 Z M287 1419 L525 1419 L662 1130 L518 1130 L287 1419 Z " />
<glyph glyph-name="acircumflex" unicode="&#xe2;" horiz-adv-x="1063" d="M87 683 Q99 826 181 906 Q294 1017 520 1017 Q648 1017 744 983.5 Q840 950 886 889 Q932 828 932 703 Q932 674 928 522 L923 284 Q923 187 932 165 Q941 143 979 143 Q996 143 1027 147 L1027 -6 Q941 -28 886 -28 Q745 -28 725 91 Q589 -29 375 -29 Q224 -29 134 51 Q44 131 44 266 Q44 409 144 484 Q199 525 255 540.5 Q311 556 487 578 Q646 598 681.5 617.5 Q717 637 717 706 Q717 856 512 856 Q406 856 356 816.5 Q306 777 293 683 L87 683 Z M714 494 Q673 473 638 464.5 Q603 456 483 440 Q348 422 306 380 Q266 340 266 276 Q266 206 313.5 167 Q361 128 447 128 Q526 128 594 157 Q662 186 691 232 Q714 269 714 378 L714 494 Z M819 1130 L634 1130 L530 1304 L421 1130 L250 1130 L434 1419 L633 1419 L819 1130 Z " />
<glyph glyph-name="adieresis" unicode="&#xe4;" horiz-adv-x="1063" d="M87 683 Q99 826 181 906 Q294 1017 520 1017 Q648 1017 744 983.5 Q840 950 886 889 Q932 828 932 703 Q932 674 928 522 L923 284 Q923 187 932 165 Q941 143 979 143 Q996 143 1027 147 L1027 -6 Q941 -28 886 -28 Q745 -28 725 91 Q589 -29 375 -29 Q224 -29 134 51 Q44 131 44 266 Q44 409 144 484 Q199 525 255 540.5 Q311 556 487 578 Q646 598 681.5 617.5 Q717 637 717 706 Q717 856 512 856 Q406 856 356 816.5 Q306 777 293 683 L87 683 Z M714 494 Q673 473 638 464.5 Q603 456 483 440 Q348 422 306 380 Q266 340 266 276 Q266 206 313.5 167 Q361 128 447 128 Q526 128 594 157 Q662 186 691 232 Q714 269 714 378 L714 494 Z M832 1379 L832 1170 L620 1170 L620 1379 L832 1379 Z M449 1379 L449 1170 L237 1170 L237 1379 L449 1379 Z " />
<glyph glyph-name="atilde" unicode="&#xe3;" horiz-adv-x="1063" d="M87 683 Q99 826 181 906 Q294 1017 520 1017 Q648 1017 744 983.5 Q840 950 886 889 Q932 828 932 703 Q932 674 928 522 L923 284 Q923 187 932 165 Q941 143 979 143 Q996 143 1027 147 L1027 -6 Q941 -28 886 -28 Q745 -28 725 91 Q589 -29 375 -29 Q224 -29 134 51 Q44 131 44 266 Q44 409 144 484 Q199 525 255 540.5 Q311 556 487 578 Q646 598 681.5 617.5 Q717 637 717 706 Q717 856 512 856 Q406 856 356 816.5 Q306 777 293 683 L87 683 Z M714 494 Q673 473 638 464.5 Q603 456 483 440 Q348 422 306 380 Q266 340 266 276 Q266 206 313.5 167 Q361 128 447 128 Q526 128 594 157 Q662 186 691 232 Q714 269 714 378 L714 494 Z M846 1390 Q833 1281 784.5 1222 Q736 1163 661 1163 Q609 1163 492 1213 Q436 1236 410 1236 Q352 1236 331 1152 L228 1152 Q240 1259 291.5 1319.5 Q343 1380 422 1380 Q456 1380 485.5 1370.5 Q515 1361 617 1316 Q640 1306 665 1306 Q722 1306 741 1390 L846 1390 Z " />
<glyph glyph-name="aring" unicode="&#xe5;" horiz-adv-x="1063" d="M87 683 Q99 826 181 906 Q294 1017 520 1017 Q648 1017 744 983.5 Q840 950 886 889 Q932 828 932 703 Q932 674 928 522 L923 284 Q923 187 932 165 Q941 143 979 143 Q996 143 1027 147 L1027 -6 Q941 -28 886 -28 Q745 -28 725 91 Q589 -29 375 -29 Q224 -29 134 51 Q44 131 44 266 Q44 409 144 484 Q199 525 255 540.5 Q311 556 487 578 Q646 598 681.5 617.5 Q717 637 717 706 Q717 856 512 856 Q406 856 356 816.5 Q306 777 293 683 L87 683 Z M714 494 Q673 473 638 464.5 Q603 456 483 440 Q348 422 306 380 Q266 340 266 276 Q266 206 313.5 167 Q361 128 447 128 Q526 128 594 157 Q662 186 691 232 Q714 269 714 378 L714 494 Z M538 1502 Q625 1502 686 1434 Q739 1376 739 1297 Q739 1206 671 1145 Q613 1092 535 1092 Q443 1092 382 1160 Q330 1218 330 1299 Q330 1387 398 1449 Q455 1502 538 1502 Z M536 1398 Q494 1398 464 1368.5 Q434 1339 434 1298 Q434 1256 463.5 1226 Q493 1196 535 1196 Q576 1196 605.5 1225.5 Q635 1255 635 1297 Q635 1338 605.5 1368 Q576 1398 536 1398 Z " />
<glyph glyph-name="ccedilla" unicode="&#xe7;" horiz-adv-x="1063" d="M589 -26 L527 -118 Q571 -108 600 -108 Q664 -108 708 -146 Q752 -184 752 -240 Q752 -320 692 -367 Q632 -414 529 -414 Q443 -414 332 -374 L367 -297 Q438 -328 506 -328 Q548 -328 575.5 -307 Q603 -286 603 -254 Q603 -224 576.5 -204.5 Q550 -185 510 -185 Q481 -185 440 -199 L406 -162 L502 -25 Q352 -13 249 69 Q70 212 70 484 Q70 744 221 889 Q354 1017 561 1017 Q752 1017 868.5 921.5 Q985 826 1005 655 L787 655 Q769 746 711.5 794 Q654 842 564 842 Q437 842 364 748.5 Q291 655 291 493 Q291 347 349 257 Q420 147 556 147 Q691 147 756 255 Q785 302 796 370 L1011 370 Q988 194 876.5 89.5 Q765 -15 589 -26 Z " />
<glyph glyph-name="eacute" unicode="&#xe9;" horiz-adv-x="1063" d="M995 310 Q975 227 929 160 Q801 -27 548 -27 Q318 -27 185 124 Q60 267 60 483 Q60 709 188 859 Q323 1017 539 1017 Q715 1017 839 911 Q1011 764 1009 442 L277 442 Q280 361 301 306 Q366 134 551 134 Q723 134 787 310 L995 310 Z M790 588 Q783 676 747 737 Q675 856 537 856 Q430 856 364 787 Q298 718 281 588 L790 588 Z M804 1419 L573 1130 L429 1130 L566 1419 L804 1419 Z " />
<glyph glyph-name="egrave" unicode="&#xe8;" horiz-adv-x="1063" d="M995 310 Q975 227 929 160 Q801 -27 548 -27 Q318 -27 185 124 Q60 267 60 483 Q60 709 188 859 Q323 1017 539 1017 Q715 1017 839 911 Q1011 764 1009 442 L277 442 Q280 361 301 306 Q366 134 551 134 Q723 134 787 310 L995 310 Z M790 588 Q783 676 747 737 Q675 856 537 856 Q430 856 364 787 Q298 718 281 588 L790 588 Z M290 1419 L528 1419 L665 1130 L521 1130 L290 1419 Z " />
<glyph glyph-name="ecircumflex" unicode="&#xea;" horiz-adv-x="1063" d="M995 310 Q975 227 929 160 Q801 -27 548 -27 Q318 -27 185 124 Q60 267 60 483 Q60 709 188 859 Q323 1017 539 1017 Q715 1017 839 911 Q1011 764 1009 442 L277 442 Q280 361 301 306 Q366 134 551 134 Q723 134 787 310 L995 310 Z M790 588 Q783 676 747 737 Q675 856 537 856 Q430 856 364 787 Q298 718 281 588 L790 588 Z M819 1130 L634 1130 L530 1304 L421 1130 L250 1130 L435 1419 L633 1419 L819 1130 Z " />
<glyph glyph-name="edieresis" unicode="&#xeb;" horiz-adv-x="1063" d="M995 310 Q975 227 929 160 Q801 -27 548 -27 Q318 -27 185 124 Q60 267 60 483 Q60 709 188 859 Q323 1017 539 1017 Q715 1017 839 911 Q1011 764 1009 442 L277 442 Q280 361 301 306 Q366 134 551 134 Q723 134 787 310 L995 310 Z M790 588 Q783 676 747 737 Q675 856 537 856 Q430 856 364 787 Q298 718 281 588 L790 588 Z M838 1379 L838 1170 L626 1170 L626 1379 L838 1379 Z M454 1379 L454 1170 L242 1170 L242 1379 L454 1379 Z " />
<glyph glyph-name="iacute" unicode="&#xed;" horiz-adv-x="461" d="M338 990 L338 0 L120 0 L120 990 L338 990 Z M502 1419 L271 1130 L127 1130 L263 1419 L502 1419 Z " />
<glyph glyph-name="igrave" unicode="&#xec;" horiz-adv-x="461" d="M339 990 L339 0 L120 0 L120 990 L339 990 Z M-43 1419 L195 1419 L332 1130 L187 1130 L-43 1419 Z " />
<glyph glyph-name="icircumflex" unicode="&#xee;" horiz-adv-x="461" d="M338 990 L338 0 L120 0 L120 990 L338 990 Z M514 1130 L329 1130 L225 1304 L116 1130 L-55 1130 L130 1419 L328 1419 L514 1130 Z " />
<glyph glyph-name="idieresis" unicode="&#xef;" horiz-adv-x="461" d="M339 990 L339 0 L120 0 L120 990 L339 990 Z M459 1379 L459 1170 L272 1170 L272 1379 L459 1379 Z M187 1379 L187 1170 L0 1170 L0 1379 L187 1379 Z " />
<glyph glyph-name="ntilde" unicode="&#xf1;" horiz-adv-x="1098" d="M321 990 L321 844 Q441 1018 651 1018 Q779 1018 869 952 Q935 904 960.5 834 Q986 764 986 631 L986 0 L768 0 L768 576 Q768 689 750 738 Q733 783 688 808 Q640 835 579 835 Q507 835 449.5 800.5 Q392 766 365 707 Q334 640 334 496 L334 0 L116 0 L116 990 L321 990 Z M871 1390 Q857 1281 809 1222 Q761 1163 686 1163 Q634 1163 517 1213 Q461 1236 435 1236 Q377 1236 356 1152 L253 1152 Q265 1259 316.5 1319.5 Q368 1380 446 1380 Q481 1380 510.5 1370.5 Q540 1361 642 1316 Q665 1306 690 1306 Q747 1306 766 1390 L871 1390 Z " />
<glyph glyph-name="oacute" unicode="&#xf3;" horiz-adv-x="1134" d="M575 1017 Q797 1017 934 872 Q1066 733 1066 495 Q1066 242 917 100 Q784 -27 568 -27 Q330 -27 195 124 Q67 268 67 494 Q67 716 187 855 Q328 1017 575 1017 Z M571 842 Q444 842 369 755 Q288 663 288 494 Q288 324 367 234 Q443 148 570 148 Q686 148 757 224 Q845 317 845 497 Q845 663 768 753 Q693 842 571 842 Z M836 1419 L606 1130 L462 1130 L598 1419 L836 1419 Z " />
<glyph glyph-name="ograve" unicode="&#xf2;" horiz-adv-x="1134" d="M575 1017 Q797 1017 934 872 Q1066 733 1066 495 Q1066 242 917 100 Q784 -27 568 -27 Q330 -27 195 124 Q67 268 67 494 Q67 716 187 855 Q328 1017 575 1017 Z M571 842 Q444 842 369 755 Q288 663 288 494 Q288 324 367 234 Q443 148 570 148 Q686 148 757 224 Q845 317 845 497 Q845 663 768 753 Q693 842 571 842 Z M317 1419 L555 1419 L692 1130 L547 1130 L317 1419 Z " />
<glyph glyph-name="ocircumflex" unicode="&#xf4;" horiz-adv-x="1134" d="M575 1017 Q797 1017 934 872 Q1066 733 1066 495 Q1066 242 917 100 Q784 -27 568 -27 Q330 -27 195 124 Q67 268 67 494 Q67 716 187 855 Q328 1017 575 1017 Z M571 842 Q444 842 369 755 Q288 663 288 494 Q288 324 367 234 Q443 148 570 148 Q686 148 757 224 Q845 317 845 497 Q845 663 768 753 Q693 842 571 842 Z M851 1130 L666 1130 L562 1304 L453 1130 L282 1130 L467 1419 L665 1419 L851 1130 Z " />
<glyph glyph-name="odieresis" unicode="&#xf6;" horiz-adv-x="1134" d="M575 1017 Q797 1017 934 872 Q1066 733 1066 495 Q1066 242 917 100 Q784 -27 568 -27 Q330 -27 195 124 Q67 268 67 494 Q67 716 187 855 Q328 1017 575 1017 Z M571 842 Q444 842 369 755 Q288 663 288 494 Q288 324 367 234 Q443 148 570 148 Q686 148 757 224 Q845 317 845 497 Q845 663 768 753 Q693 842 571 842 Z M864 1379 L864 1170 L652 1170 L652 1379 L864 1379 Z M481 1379 L481 1170 L269 1170 L269 1379 L481 1379 Z " />
<glyph glyph-name="otilde" unicode="&#xf5;" horiz-adv-x="1134" d="M575 1017 Q797 1017 934 872 Q1066 733 1066 495 Q1066 242 917 100 Q784 -27 568 -27 Q330 -27 195 124 Q67 268 67 494 Q67 716 187 855 Q328 1017 575 1017 Z M571 842 Q444 842 369 755 Q288 663 288 494 Q288 324 367 234 Q443 148 570 148 Q686 148 757 224 Q845 317 845 497 Q845 663 768 753 Q693 842 571 842 Z M876 1390 Q862 1281 813.5 1222 Q765 1163 691 1163 Q639 1163 521 1213 Q466 1236 440 1236 Q382 1236 361 1152 L258 1152 Q270 1259 321.5 1319.5 Q373 1380 451 1380 Q486 1380 515 1370.5 Q544 1361 646 1316 Q670 1306 695 1306 Q751 1306 771 1390 L876 1390 Z " />
<glyph glyph-name="uacute" unicode="&#xfa;" horiz-adv-x="1098" d="M979 990 L979 0 L774 0 L774 147 Q656 -27 446 -27 Q269 -27 176 86 Q109 168 109 355 L109 990 L327 990 L327 425 Q327 275 356 229 Q402 156 516 156 Q661 156 728 283 Q761 345 761 505 L761 990 L979 990 Z M808 1419 L577 1130 L433 1130 L570 1419 L808 1419 Z " />
<glyph glyph-name="ugrave" unicode="&#xf9;" horiz-adv-x="1098" d="M979 990 L979 0 L774 0 L774 147 Q656 -27 446 -27 Q269 -27 176 86 Q109 168 109 355 L109 990 L327 990 L327 425 Q327 275 356 229 Q402 156 516 156 Q661 156 728 283 Q761 345 761 505 L761 990 L979 990 Z M294 1419 L532 1419 L669 1130 L525 1130 L294 1419 Z " />
<glyph glyph-name="ucircumflex" unicode="&#xfb;" horiz-adv-x="1098" d="M979 990 L979 0 L774 0 L774 147 Q656 -27 446 -27 Q269 -27 176 86 Q109 168 109 355 L109 990 L327 990 L327 425 Q327 275 356 229 Q402 156 516 156 Q661 156 728 283 Q761 345 761 505 L761 990 L979 990 Z M829 1130 L643 1130 L539 1304 L430 1130 L259 1130 L444 1419 L642 1419 L829 1130 Z " />
<glyph glyph-name="udieresis" unicode="&#xfc;" horiz-adv-x="1098" d="M979 990 L979 0 L774 0 L774 147 Q656 -27 446 -27 Q269 -27 176 86 Q109 168 109 355 L109 990 L327 990 L327 425 Q327 275 356 229 Q402 156 516 156 Q661 156 728 283 Q761 345 761 505 L761 990 L979 990 Z M842 1379 L842 1170 L630 1170 L630 1379 L842 1379 Z M458 1379 L458 1170 L246 1170 L246 1379 L458 1379 Z " />
<glyph glyph-name="dagger" unicode="&#x2020;" horiz-adv-x="1063" d="M1001 980 L1001 793 L634 793 L634 -366 L424 -366 L424 793 L62 793 L62 980 L424 980 L424 1365 L634 1365 L634 980 L1001 980 Z " />
<glyph glyph-name="degree" unicode="&#xb0;" horiz-adv-x="765" d="M385 1372 Q517 1372 611 1273 Q697 1183 697 1053 Q697 924 603 831 Q512 741 384 741 Q245 741 151 844 Q69 934 69 1056 Q69 1204 176 1294 Q268 1372 385 1372 Z M381 1263 Q304 1263 248 1209 Q181 1145 181 1057 Q181 980 230 921 Q290 850 383 850 Q465 850 525 910 Q585 970 585 1052 Q585 1140 528 1199 Q467 1263 381 1263 Z " />
<glyph glyph-name="cent" unicode="&#xa2;" horiz-adv-x="1063" d="M1005 573 Q988 405 878.5 297.5 Q769 190 602 177 L602 -26 L493 -26 L493 177 Q322 193 215 300 Q67 446 67 692 Q67 912 175 1044.5 Q283 1177 493 1215 L493 1383 L602 1383 L602 1215 Q773 1204 879 1109 Q987 1012 1003 855 L790 855 Q778 934 729 984.5 Q680 1035 602 1048 L602 348 Q682 359 734 419 Q786 479 798 573 L1005 573 Z M493 1044 Q392 1020 336.5 929.5 Q281 839 281 700 Q281 538 347 447 Q404 368 493 348 L493 1044 Z " />
<glyph glyph-name="sterling" unicode="&#xa3;" horiz-adv-x="1063" d="M1008 937 L791 937 Q788 1021 760 1080 Q734 1135 676.5 1166.5 Q619 1198 544 1198 Q444 1198 379.5 1142 Q315 1086 315 998 Q315 922 367 821 Q393 770 407 740 L687 740 L687 620 L455 620 Q483 540 483 490 Q483 433 468 390 Q453 347 413 291 Q384 251 292 167 Q399 216 488 216 Q553 216 632 192 Q733 160 774 160 Q878 160 954 239 L1052 74 Q1003 24 926 -5 Q849 -34 764 -34 Q710 -34 676.5 -27 Q643 -20 541 12 Q435 46 363 46 Q311 46 267.5 29.5 Q224 13 161 -31 L58 128 Q267 282 267 456 Q267 533 225 620 L52 620 L52 740 L170 740 Q84 861 84 1002 Q84 1191 244 1303 Q362 1385 543 1385 Q762 1385 884.5 1267 Q1007 1149 1008 937 Z " />
<glyph glyph-name="section" unicode="&#xa7;" horiz-adv-x="1063" d="M917 1036 L715 1036 Q703 1218 538 1218 Q465 1218 420.5 1180.5 Q376 1143 376 1082 Q376 1026 413.5 988.5 Q451 951 574 884 Q802 760 878 705 Q1017 603 1017 459 Q1017 364 964.5 289.5 Q912 215 818 178 Q877 124 900.5 75 Q924 26 924 -43 Q924 -186 809 -281 Q706 -366 539 -366 Q353 -366 246.5 -269 Q140 -172 135 1 L339 1 Q348 -76 374 -115 Q426 -193 541 -193 Q616 -193 663 -153.5 Q710 -114 710 -50 Q710 -7 686 26.5 Q662 60 602 101 Q540 143 334 253 Q185 332 124 396 Q46 479 46 604 Q46 741 148 825 Q193 862 248 878 Q164 967 164 1074 Q164 1195 248 1280 Q354 1387 542 1387 Q764 1387 861 1236 Q917 1149 917 1036 Z M360 775 Q305 757 272 715 Q239 673 239 622 Q239 559 289.5 517 Q340 475 550 361 Q600 333 628 316 Q676 286 699 276 Q751 293 785 336 Q819 379 819 427 Q819 492 754 543.5 Q689 595 437 730 L378 765 L360 775 Z " />
<glyph glyph-name="bullet" unicode="&#x2022;" horiz-adv-x="956" d="M482 982 Q595 982 677 899 Q760 815 760 696 Q760 578 678 494 Q595 410 479 410 Q363 410 281 493 Q197 577 197 696 Q197 817 281 899 Q365 982 482 982 Z " />
<glyph glyph-name="paragraph" unicode="&#xb6;" horiz-adv-x="1147" d="M465 -366 L465 650 Q449 650 437 650 Q300 650 206 730 Q92 828 92 1003 Q92 1105 134 1186 Q176 1267 252 1311 Q345 1365 522 1365 L1019 1365 L1019 1235 L929 1235 L929 -366 L777 -366 L777 1235 L617 1235 L617 -366 L465 -366 Z " />
<glyph glyph-name="germandbls" unicode="&#xdf;" horiz-adv-x="1098" d="M469 161 Q506 154 534 154 Q649 154 716 221 Q791 295 791 422 Q791 552 719 613.5 Q647 675 496 675 Q486 675 469 675 L469 826 Q491 825 497 825 Q609 825 666 870 Q732 921 732 1024 Q732 1109 679 1160.5 Q626 1212 538 1212 Q419 1212 374 1133 Q355 1099 348.5 1056 Q342 1013 342 920 L342 0 L124 0 L124 881 Q124 1026 137.5 1096.5 Q151 1167 189 1224 Q241 1302 334 1344.5 Q427 1387 543 1387 Q711 1387 823 1300 Q944 1205 944 1041 Q944 941 894 866.5 Q844 792 758 765 Q828 750 876 716 Q1012 619 1012 417 Q1012 205 856 74 Q744 -20 564 -20 Q520 -20 469 -11 L469 161 Z " />
<glyph glyph-name="registered" unicode="&#xae;" horiz-adv-x="1530" d="M420 1075 L818 1075 Q932 1075 995 1040 Q1103 980 1103 853 Q1103 723 989 666 Q1045 643 1064.5 599 Q1084 555 1097 421 Q1105 336 1122 317 L1146 291 L964 291 Q943 320 938 397 Q929 533 898.5 569.5 Q868 606 763 606 L583 606 L583 291 L420 291 L420 1075 Z M583 945 L583 725 L762 725 Q857 725 893 746 Q940 774 940 837 Q940 894 902.5 919.5 Q865 945 781 945 L583 945 Z M775 1398 Q966 1398 1137 1292 Q1308 1186 1399 1008 Q1477 854 1477 682 Q1477 481 1372 309 Q1268 137 1090 46 Q937 -33 766 -33 Q566 -33 394 72 Q222 177 130 357 Q52 510 52 681 Q52 885 157 1058 Q260 1227 443 1321 Q595 1398 775 1398 Z M773 1281 Q524 1281 352 1107 Q269 1024 224 912 Q179 801 179 681 Q179 514 266 369 Q353 225 501 149 Q626 84 766 84 Q1008 84 1179 259 Q1350 435 1350 682 Q1350 851 1264 996 Q1180 1137 1031 1216 Q907 1281 773 1281 Z " />
<glyph glyph-name="copyright" unicode="&#xa9;" horiz-adv-x="1530" d="M1136 602 Q1127 451 1027.5 362 Q928 273 769 273 Q577 273 469 403 Q377 514 377 683 Q377 864 488.5 978.5 Q600 1093 776 1093 Q923 1093 1022 1014.5 Q1121 936 1130 812 L970 812 Q955 884 904 922.5 Q853 961 773 961 Q649 961 588 864 Q540 787 540 683 Q540 555 602.5 480 Q665 405 773 405 Q950 405 975 602 L1136 602 Z M775 1398 Q966 1398 1137 1292 Q1308 1186 1399 1008 Q1477 854 1477 682 Q1477 481 1372 309 Q1268 137 1090 46 Q937 -33 766 -33 Q566 -33 394 72 Q222 177 130 357 Q52 510 52 681 Q52 885 157 1058 Q260 1227 443 1321 Q595 1398 775 1398 Z M773 1281 Q524 1281 352 1107 Q269 1024 224 912 Q179 801 179 681 Q179 514 266 369 Q353 225 501 149 Q626 84 766 84 Q1008 84 1179 259 Q1350 435 1350 682 Q1350 851 1264 996 Q1180 1137 1031 1216 Q907 1281 773 1281 Z " />
<glyph glyph-name="trademark" unicode="&#x2122;" horiz-adv-x="1893" d="M766 1365 L766 1237 L505 1237 L505 587 L347 587 L347 1237 L86 1237 L86 1365 L766 1365 Z M1704 1365 L1704 587 L1553 587 L1554 880 Q1555 1041 1563 1184 Q1538 1108 1500 1010 L1337 587 L1211 587 L1041 1004 Q1033 1025 980 1176 Q988 1043 988 890 L989 587 L840 587 L840 1365 L1051 1365 L1210 961 Q1244 874 1275 766 Q1312 890 1339 961 L1492 1365 L1704 1365 Z " />
<glyph glyph-name="acute" unicode="&#xb4;" horiz-adv-x="461" d="M500 1419 L269 1130 L125 1130 L262 1419 L500 1419 Z " />
<glyph glyph-name="dieresis" unicode="&#xa8;" horiz-adv-x="461" d="M528 1379 L528 1170 L316 1170 L316 1379 L528 1379 Z M145 1379 L145 1170 L-67 1170 L-67 1379 L145 1379 Z " />
<glyph glyph-name="notequal" unicode="&#x2260;" horiz-adv-x="1024" d="M541 941 L674 1200 L826 1124 L732 941 L956 941 L956 743 L650 743 L559 563 L955 563 L955 365 L485 365 L361 123 L209 199 L294 365 L68 365 L68 563 L368 563 L460 743 L69 743 L69 941 L541 941 Z " />
<glyph glyph-name="AE" unicode="&#xc6;" horiz-adv-x="1841" d="M1758 1365 L1758 1160 L1096 1160 L1096 801 L1719 801 L1719 607 L1096 607 L1096 205 L1772 205 L1772 0 L864 0 L864 350 L408 350 L239 0 L-28 0 L655 1365 L1758 1365 Z M864 532 L864 1160 L794 1160 L492 532 L864 532 Z " />
<glyph glyph-name="Oslash" unicode="&#xd8;" horiz-adv-x="1453" d="M48 38 L209 217 Q137 327 105 437 Q73 547 73 688 Q73 1007 257 1204 Q344 1297 466.5 1347.5 Q589 1398 728 1398 Q970 1398 1135 1258 L1289 1426 L1390 1334 L1231 1157 Q1304 1071 1337 975 Q1383 839 1383 682 Q1383 377 1213 182 Q1026 -33 731 -33 Q603 -33 513 -0.5 Q423 32 303 122 L148 -54 L48 38 Z M447 280 Q576 169 734 169 Q924 169 1033.5 308.5 Q1143 448 1143 688 Q1143 781 1128.5 842.5 Q1114 904 1074 983 L447 280 Z M994 1096 Q886 1196 726 1196 Q547 1196 431 1064 Q313 931 313 680 Q313 538 373 402 L994 1096 Z " />
<glyph glyph-name="infinity" unicode="&#x221e;" horiz-adv-x="1365" d="M686 590 Q536 381 350 381 Q193 381 105 491 Q37 575 37 699 Q37 840 128 926 Q220 1012 351 1012 Q537 1012 679 803 Q822 1012 1016 1012 Q1177 1012 1266 896 Q1328 813 1328 695 Q1328 546 1229 458 Q1142 380 1018 380 Q827 380 686 590 Z M762 697 Q875 524 998 524 Q1074 524 1122 579 Q1164 626 1164 697 Q1164 785 1101 833 Q1054 869 996 869 Q932 869 878.5 829.5 Q825 790 762 697 Z M603 696 Q490 868 367 868 Q291 868 243 813 Q201 766 201 695 Q201 608 264 560 Q311 524 369 524 Q488 524 603 696 Z " />
<glyph glyph-name="plusminus" unicode="&#xb1;" horiz-adv-x="1147" d="M116 748 L496 748 L496 1121 L653 1121 L653 748 L1031 748 L1031 591 L653 591 L653 232 L496 232 L496 591 L116 591 L116 748 Z M116 157 L1031 157 L1031 0 L116 0 L116 157 Z " />
<glyph glyph-name="lessequal" unicode="&#x2264;" horiz-adv-x="1024" d="M955 1271 L955 1048 L327 822 L954 597 L955 374 L68 722 L68 924 L955 1271 Z M955 317 L955 109 L68 109 L68 317 L955 317 Z " />
<glyph glyph-name="greaterequal" unicode="&#x2265;" horiz-adv-x="1024" d="M68 374 L69 597 L696 822 L68 1048 L68 1271 L955 924 L955 722 L68 374 Z M68 109 L68 317 L955 317 L955 109 L68 109 Z " />
<glyph glyph-name="yen" unicode="&#xa5;" horiz-adv-x="1063" d="M1002 911 L1002 791 L753 791 L655 579 L936 579 L936 459 L637 459 L637 0 L427 0 L427 459 L131 459 L131 579 L410 579 L313 791 L66 791 L66 911 L256 911 L40 1365 L283 1365 L405 1103 Q475 954 535 769 Q596 962 660 1100 L785 1365 L1024 1365 L811 911 L1002 911 Z " />
<glyph glyph-name="mu" unicode="&#xb5;" horiz-adv-x="1098" d="M120 -344 L120 983 L322 983 L322 448 Q322 359 332.5 315.5 Q343 272 373 233 Q443 147 543 147 Q668 147 728 260 Q776 350 776 462 L776 983 L978 983 L978 0 L776 0 L776 163 Q703 -23 540 -23 Q466 -23 415.5 9 Q365 41 322 114 L322 -344 L120 -344 Z " />
<glyph glyph-name="partialdiff" unicode="&#x2202;" horiz-adv-x="1024" d="M149 1189 L175 1367 Q358 1344 487 1292 Q665 1222 789 1069 Q972 845 972 511 Q972 308 887 179 Q821 80 717 27 Q622 -20 511 -20 Q361 -20 242 64 Q170 115 122 191 Q52 304 52 442 Q52 536 87 622.5 Q122 709 184 771 Q302 888 468 888 Q586 888 662 840 Q685 825 748 764 Q732 791 678 903 Q664 931 622 977.5 Q580 1024 547 1048 Q470 1103 370.5 1138.5 Q271 1174 149 1189 Z M521 720 Q426 720 351 660 Q306 624 279 563.5 Q252 503 252 438 Q252 316 336 234 Q411 159 510 159 Q601 159 674 222 Q767 302 767 444 Q767 581 682 656 Q610 720 521 720 Z " />
<glyph glyph-name="summation" unicode="&#x2211;" horiz-adv-x="1365" d="M1248 1536 L1248 1040 L1044 1040 L1021 1328 L322 1328 L825 548 L324 -305 L1039 -305 L1052 -11 L1267 -11 L1267 -512 L70 -512 L70 -273 L558 547 L70 1299 L70 1536 L1248 1536 Z " />
<glyph glyph-name="product" unicode="&#x220f;" horiz-adv-x="1365" d="M47 1536 L1319 1536 L1319 1354 L1170 1354 L1170 -330 L1319 -330 L1319 -512 L822 -512 L822 -330 L967 -330 L967 1354 L399 1354 L399 -330 L541 -330 L541 -512 L47 -512 L47 -330 L198 -330 L198 1354 L47 1354 L47 1536 Z " />
<glyph glyph-name="pi" unicode="&#x3c0;" horiz-adv-x="1217" d="M196 0 L196 822 L47 822 L47 990 L1171 990 L1171 822 L1023 822 L1023 0 L812 0 L812 822 L407 822 L407 0 L196 0 Z " />
<glyph glyph-name="integral" unicode="&#x222b;" horiz-adv-x="1024" d="M147 -491 L188 -278 Q235 -299 271 -299 Q357 -299 381 -229 Q390 -202 391 -26 L391 1010 Q392 1202 394.5 1242.5 Q397 1283 410 1331 Q437 1426 521 1481 Q605 1536 723 1536 Q786 1536 876 1515 L835 1302 Q789 1322 750 1322 Q667 1322 642 1252 Q632 1224 632 1120 L632 20 Q632 -157 629.5 -200.5 Q627 -244 614 -296 Q561 -507 264 -507 Q194 -507 147 -491 Z " />
<glyph glyph-name="ordfeminine" unicode="&#xaa;" horiz-adv-x="727" d="M668 601 L59 601 L59 683 L668 683 L668 601 Z M104 1186 Q120 1380 355 1380 Q508 1380 565 1308 Q592 1274 592 1204 Q592 1192 590 1106 Q588 995 588 980 Q588 928 591 918.5 Q594 909 611 909 Q624 909 645 912 L645 817 Q591 803 560 803 Q487 803 465 862 Q389 804 274 804 Q186 804 133.5 849 Q81 894 81 969 Q81 1050 140 1092 Q171 1115 203 1123.5 Q235 1132 335 1144 Q421 1154 439.5 1163.5 Q458 1173 458 1205 Q458 1280 350 1280 Q292 1280 266.5 1259.5 Q241 1239 233 1186 L104 1186 Z M456 1080 Q429 1068 334 1055 Q268 1047 243 1029.5 Q218 1012 218 974 Q218 901 312 901 Q355 901 392 916 Q429 931 444 954 Q456 973 456 1029 L456 1080 Z " />
<glyph glyph-name="ordmasculine" unicode="&#xba;" horiz-adv-x="727" d="M668 601 L59 601 L59 683 L668 683 L668 601 Z M369 1380 Q496 1380 574 1300 Q650 1223 650 1092 Q650 953 564 874 Q488 804 364 804 Q229 804 151 887 Q77 966 77 1091 Q77 1214 146 1291 Q226 1380 369 1380 Z M366 1272 Q295 1272 255 1224.5 Q215 1177 215 1092 Q215 1007 254.5 959.5 Q294 912 365 912 Q434 912 473 960 Q512 1008 512 1093 Q512 1176 473 1224 Q434 1272 366 1272 Z " />
<glyph glyph-name="Omega" unicode="&#x2126;" horiz-adv-x="1364" d="M57 0 L57 196 L387 196 Q52 396 52 750 Q52 1047 272 1243 Q447 1398 682 1398 Q919 1398 1093 1243 Q1313 1048 1313 749 Q1313 397 978 196 L1308 196 L1308 0 L766 0 L766 182 Q885 245 958 339 Q1084 504 1084 709 Q1084 934 943 1082 Q831 1199 683 1199 Q535 1199 422 1082 Q281 935 281 711 Q281 352 599 182 L599 0 L57 0 Z " />
<glyph glyph-name="ae" unicode="&#xe6;" horiz-adv-x="1700" d="M1636 311 Q1607 192 1529 109 Q1402 -27 1186 -27 Q934 -27 831 155 Q701 -27 423 -27 Q250 -27 153 55 Q64 131 64 268 Q64 350 102 414.5 Q140 479 207 511 Q262 538 319.5 550 Q377 562 565 586 Q665 599 702 625 Q739 651 739 710 Q739 856 537 856 Q430 856 377.5 814 Q325 772 316 680 L105 680 Q119 831 206 908 Q329 1017 544 1017 Q790 1017 873 880 Q926 945 1007 981 Q1088 1017 1183 1017 Q1397 1017 1522 874.5 Q1647 732 1647 488 Q1647 470 1646 442 L935 442 Q935 337 971 265 Q1037 134 1189 134 Q1361 134 1426 311 L1636 311 Z M1429 588 Q1423 693 1379 756 Q1309 856 1181 856 Q1117 856 1063.5 827 Q1010 798 978 747 Q944 691 933 588 L1429 588 Z M737 493 Q702 471 668.5 462.5 Q635 454 520 439 Q389 422 339 387.5 Q289 353 289 279 Q289 205 337.5 163.5 Q386 122 472 122 Q592 122 671 194 Q737 253 737 361 L737 493 Z " />
<glyph glyph-name="oslash" unicode="&#xf8;" horiz-adv-x="1134" d="M57 24 L172 151 Q66 300 66 499 Q66 732 206 875 Q345 1017 573 1017 Q754 1017 879 918 L993 1041 L1076 965 L960 841 Q1018 764 1042.5 688.5 Q1067 613 1067 510 Q1067 271 947 133 Q809 -27 566 -27 Q472 -27 402 -5 Q332 17 252 71 L140 -54 L57 24 Z M388 215 Q463 148 570 148 Q719 148 794 271 Q846 358 846 488 Q846 583 814 680 L388 215 Z M747 776 Q666 842 569 842 Q502 842 444 812 Q386 782 350 729 Q287 636 287 499 Q287 396 322 309 L747 776 Z " />
<glyph glyph-name="questiondown" unicode="&#xbf;" horiz-adv-x="1063" d="M961 59 Q953 -119 883 -222 Q823 -310 726.5 -356.5 Q630 -403 509 -403 Q312 -403 193 -293 Q81 -188 81 -21 Q81 86 126 161 Q171 236 302 345 Q356 390 375.5 417.5 Q395 445 409 494 Q420 534 421 618 L628 618 Q625 469 602 405 Q585 357 555 321.5 Q525 286 422 190 Q362 135 337.5 88 Q313 41 313 -20 Q313 -110 366.5 -163 Q420 -216 510 -216 Q729 -216 742 59 L961 59 Z M402 748 L402 990 L652 990 L652 748 L402 748 Z " />
<glyph glyph-name="exclamdown" unicode="&#xa1;" horiz-adv-x="532" d="M124 -375 L124 16 L193 612 L306 612 L366 17 L366 -375 L124 -375 Z M120 748 L120 990 L370 990 L370 748 L120 748 Z " />
<glyph glyph-name="logicalnot" unicode="&#xac;" horiz-adv-x="1147" d="M785 0 L785 374 L130 374 L130 582 L1017 582 L1017 0 L785 0 Z " />
<glyph glyph-name="radical" unicode="&#x221a;" horiz-adv-x="1365" d="M1365 1693 L1365 1505 L995 1505 L578 0 L321 0 L172 563 L0 563 L0 751 L303 751 L375 498 Q384 466 425 245 L430 214 L442 214 Q478 395 506 509.5 Q534 624 612 905 L830 1693 L1365 1693 Z " />
<glyph glyph-name="florin" unicode="&#x192;" horiz-adv-x="1063" d="M902 942 L875 788 L681 788 L546 12 Q524 -115 501 -175.5 Q478 -236 434 -281 Q388 -327 326.5 -346.5 Q265 -366 165 -366 Q119 -366 48 -361 L75 -189 Q111 -192 139 -192 Q241 -192 271 -147 Q301 -103 324 26 L458 788 L283 788 L310 942 L486 942 L525 1169 Q551 1318 608 1387 Q655 1444 722.5 1469 Q790 1494 897 1494 Q952 1494 1016 1488 L985 1317 Q938 1319 910 1319 Q833 1319 798 1283.5 Q763 1248 745 1153 L707 942 L902 942 Z " />
<glyph glyph-name="approxequal" unicode="&#x2248;" horiz-adv-x="1024" d="M139 713 L19 796 Q128 1052 312 1052 Q384 1052 545 977 Q628 938 658.5 927.5 Q689 917 718 917 Q769 917 802 942 Q835 967 885 1042 L1005 959 Q945 819 866 760 Q793 706 692 706 Q653 706 613 720.5 Q573 735 460 788 Q355 838 300 838 Q255 838 220 811 Q185 784 139 713 Z M139 314 L19 397 Q127 653 311 653 Q384 653 545 578 Q629 539 658.5 529 Q688 519 718 519 Q769 519 802 544 Q835 569 885 644 L1005 560 Q945 421 866 362 Q793 308 692 308 Q653 308 614 321.5 Q575 335 460 390 Q355 439 300 439 Q255 439 220 412 Q185 385 139 314 Z " />
<glyph glyph-name="increment" unicode="&#x2206;" horiz-adv-x="1301" d="M15 0 L533 1365 L766 1365 L1287 0 L15 0 Z M304 196 L993 196 L651 1125 L304 196 Z " />
<glyph glyph-name="guillemotleft" unicode="&#xab;" horiz-adv-x="885" d="M766 848 L766 650 L585 511 L766 369 L766 172 L470 405 L470 616 L766 848 Z M392 848 L392 653 L207 514 L392 371 L392 170 L92 408 L92 616 L392 848 Z " />
<glyph glyph-name="guillemotright" unicode="&#xbb;" horiz-adv-x="885" d="M493 849 L793 609 L793 402 L493 170 L493 365 L678 504 L493 649 L493 849 Z M119 846 L415 612 L415 404 L119 173 L119 367 L301 506 L119 647 L119 846 Z " />
<glyph glyph-name="ellipsis" unicode="&#x2026;" horiz-adv-x="1912" d="M550 258 L550 0 L284 0 L284 258 L550 258 Z M1089 258 L1089 0 L823 0 L823 258 L1089 258 Z M1629 258 L1629 0 L1363 0 L1363 258 L1629 258 Z " />
<glyph glyph-name="Agrave" unicode="&#xc0;" horiz-adv-x="1275" d="M767 1365 L1292 0 L1036 0 L905 363 L365 363 L232 0 L-17 0 L511 1365 L767 1365 Z M842 545 L731 850 Q673 1010 637 1136 Q604 1029 540 853 L427 545 L842 545 Z M310 1742 L566 1742 L725 1481 L568 1481 L310 1742 Z " />
<glyph glyph-name="Atilde" unicode="&#xc3;" horiz-adv-x="1275" d="M767 1365 L1292 0 L1036 0 L905 363 L365 363 L232 0 L-17 0 L511 1365 L767 1365 Z M842 545 L731 850 Q673 1010 637 1136 Q604 1029 540 853 L427 545 L842 545 Z M978 1729 Q936 1508 774 1508 Q728 1508 587 1556 Q523 1578 492 1578 Q430 1578 403 1496 L298 1496 Q317 1604 371 1661 Q425 1718 510 1718 Q551 1718 582.5 1709 Q614 1700 717 1658 Q746 1646 779 1646 Q846 1646 870 1729 L978 1729 Z " />
<glyph glyph-name="Otilde" unicode="&#xd5;" horiz-adv-x="1453" d="M738 1398 Q1008 1398 1190 1210 Q1382 1011 1382 683 Q1382 397 1235 206 Q1050 -33 727 -33 Q402 -33 215 210 Q71 398 71 681 Q71 1015 258 1205 Q448 1398 738 1398 Z M733 1196 Q544 1196 428 1061 Q311 925 311 685 Q311 453 416 317 Q470 248 553.5 208.5 Q637 169 730 169 Q905 169 1014 289 Q1142 431 1142 685 Q1142 918 1028 1057 Q916 1196 733 1196 Z M1066 1729 Q1026 1508 863 1508 Q817 1508 675 1556 Q612 1578 580 1578 Q518 1578 492 1496 L387 1496 Q405 1604 459.5 1661 Q514 1718 599 1718 Q640 1718 671.5 1709 Q703 1700 805 1658 Q835 1646 868 1646 Q935 1646 959 1729 L1066 1729 Z " />
<glyph glyph-name="OE" unicode="&#x152;" horiz-adv-x="2090" d="M1999 1365 L1999 1160 L1287 1160 L1287 801 L1939 801 L1939 607 L1287 607 L1287 205 L2013 205 L2013 0 L1063 0 L1063 123 Q933 -30 701 -30 Q408 -30 226 196 Q73 388 73 673 Q73 993 254 1192 Q439 1394 715 1394 Q959 1394 1065 1255 L1065 1365 L1999 1365 Z M1055 474 L1055 897 Q1055 969 1044 1005.5 Q1033 1042 1001 1081 Q908 1192 742 1192 Q531 1192 412 1028 Q313 893 313 681 Q313 450 432 307 Q544 172 728 172 Q907 172 1004 296 Q1055 362 1055 474 Z " />
<glyph glyph-name="oe" unicode="&#x153;" horiz-adv-x="1734" d="M1670 314 Q1627 151 1509.5 62 Q1392 -27 1218 -27 Q969 -27 867 155 Q769 -27 523 -27 Q301 -27 170 133 Q60 267 60 494 Q60 729 191 875 Q319 1017 536 1017 Q773 1017 877 849 Q993 1017 1218 1017 Q1419 1017 1546 886 Q1680 748 1680 442 L966 442 Q966 383 977 340 Q998 255 1054 200 Q1123 134 1226 134 Q1392 134 1460 314 L1670 314 Z M1461 588 Q1454 688 1418 745 Q1346 856 1213 856 Q1145 856 1088 822.5 Q1031 789 1001 731 Q973 678 965 588 L1461 588 Z M536 842 Q416 842 351 754 Q281 658 281 493 Q281 337 343 245 Q407 148 532 148 Q660 148 718 249 Q775 346 775 505 Q775 666 712 755 Q651 842 536 842 Z " />
<glyph glyph-name="endash" unicode="&#x2013;" horiz-adv-x="956" d="M915 609 L915 411 L41 411 L41 609 L915 609 Z " />
<glyph glyph-name="emdash" unicode="&#x2014;" horiz-adv-x="1912" d="M1675 609 L1675 411 L237 411 L237 609 L1675 609 Z " />
<glyph glyph-name="quotedblleft" unicode="&#x201c;" horiz-adv-x="849" d="M479 835 L479 1040 Q479 1181 541 1270 Q603 1359 719 1385 L719 1275 Q605 1232 603 1088 L719 1088 L719 835 L479 835 Z M128 835 L128 1040 Q128 1181 190 1270 Q252 1359 368 1385 L368 1275 Q254 1232 252 1088 L368 1088 L368 835 L128 835 Z " />
<glyph glyph-name="quotedblright" unicode="&#x201d;" horiz-adv-x="849" d="M368 1365 L368 1160 Q368 1012 304 928 Q238 840 128 815 L128 924 Q242 968 244 1112 L128 1112 L128 1365 L368 1365 Z M719 1365 L719 1160 Q719 1012 655 928 Q589 840 479 815 L479 924 Q593 968 595 1112 L479 1112 L479 1365 L719 1365 Z " />
<glyph glyph-name="quoteleft" unicode="&#x2018;" horiz-adv-x="532" d="M143 832 L143 1024 Q135 1335 402 1386 L402 1271 Q286 1231 280 1085 L402 1085 L402 832 L143 832 Z " />
<glyph glyph-name="quoteright" unicode="&#x2019;" horiz-adv-x="532" d="M394 1365 L394 1173 Q402 863 135 812 L135 926 Q251 966 257 1112 L135 1112 L135 1365 L394 1365 Z " />
<glyph glyph-name="divide" unicode="&#xf7;" horiz-adv-x="1147" d="M575 1132 Q626 1132 663 1094.5 Q700 1057 700 1005 Q700 953 662.5 915.5 Q625 878 573 878 Q520 878 483 915.5 Q446 953 446 1006 Q446 1058 483.5 1095 Q521 1132 575 1132 Z M575 461 Q626 461 663 423.5 Q700 386 700 334 Q700 281 662.5 243.5 Q625 206 573 206 Q520 206 482.5 243.5 Q445 281 445 335 Q445 387 483 424 Q521 461 575 461 Z M116 748 L1031 748 L1031 591 L116 591 L116 748 Z " />
<glyph glyph-name="lozenge" unicode="&#x25ca;" horiz-adv-x="1365" d="M683 1419 L1214 683 L683 -53 L151 683 L683 1419 Z M683 1238 L279 683 L683 129 L1086 683 L683 1238 Z " />
<glyph glyph-name="ydieresis" unicode="&#xff;" horiz-adv-x="992" d="M987 990 L620 19 Q565 -127 539 -182.5 Q513 -238 481 -278 Q400 -378 252 -378 Q198 -378 102 -367 L102 -183 Q180 -195 214 -195 Q291 -195 327 -122 Q373 -28 383 32 L5 990 L245 990 L438 457 Q464 385 507 228 Q552 387 581 471 L759 990 L987 990 Z M794 1379 L794 1170 L582 1170 L582 1379 L794 1379 Z M410 1379 L410 1170 L198 1170 L198 1379 L410 1379 Z " />
<glyph glyph-name="Ydieresis" unicode="&#x178;" horiz-adv-x="1239" d="M1252 1365 L741 542 L741 0 L501 0 L501 544 L-13 1365 L263 1365 L528 928 Q579 844 626 743 Q682 863 724 933 L985 1365 L1252 1365 Z M942 1709 L942 1506 L724 1506 L724 1709 L942 1709 Z M517 1709 L517 1506 L298 1506 L298 1709 L517 1709 Z " />
<glyph glyph-name="fraction" unicode="&#x2044;" horiz-adv-x="319" d="M612 1346 L-150 0 L-293 0 L472 1346 L612 1346 Z " />
<glyph glyph-name="Euro" unicode="&#x20ac;" horiz-adv-x="1311" d="M454 856 L1075 856 L979 675 L431 675 Q431 646 435 601 L935 601 L838 420 L477 420 Q580 169 834 169 Q940 169 1013 210 Q1086 251 1151 346 L1151 50 Q1070 4 998.5 -14.5 Q927 -33 827 -33 Q606 -33 447.5 86.5 Q289 206 227 420 L0 420 L97 601 L194 601 Q190 644 190 675 L0 675 L97 856 L209 856 Q248 1047 375 1188 Q552 1385 838 1385 Q1103 1385 1270 1214 L1150 992 Q1116 1055 1082 1088 Q988 1183 836 1183 Q616 1183 513 1002 Q473 933 454 856 Z " />
<glyph glyph-name="guilsinglleft" unicode="&#x2039;" horiz-adv-x="495" d="M382 847 L382 651 L200 513 L382 370 L382 171 L86 407 L86 616 L382 847 Z " />
<glyph glyph-name="guilsinglright" unicode="&#x203a;" horiz-adv-x="495" d="M114 847 L409 613 L409 401 L114 172 L114 367 L295 507 L114 648 L114 847 Z " />
<glyph glyph-name="fi" unicode="&#xfb01;" horiz-adv-x="1063" d="M160 830 L-4 830 L-4 990 L160 990 L160 1049 Q160 1146 171.5 1194 Q183 1242 214 1280 Q292 1373 465 1373 Q514 1373 582 1367 L582 1198 Q535 1204 494 1204 Q423 1204 399.5 1180.5 Q376 1157 376 1086 L376 990 L563 990 L563 830 L378 830 L378 0 L160 0 L160 830 Z M942 1365 L942 1157 L724 1157 L724 1365 L942 1365 Z M942 990 L942 0 L724 0 L724 990 L942 990 Z " />
<glyph glyph-name="fl" unicode="&#xfb02;" horiz-adv-x="1063" d="M160 830 L-4 830 L-4 990 L160 990 L160 1049 Q160 1146 171.5 1194 Q183 1242 214 1280 Q292 1373 465 1373 Q514 1373 582 1367 L582 1198 Q535 1204 494 1204 Q423 1204 399.5 1180.5 Q376 1157 376 1086 L376 990 L563 990 L563 830 L378 830 L378 0 L160 0 L160 830 Z M942 1365 L942 0 L724 0 L724 1365 L942 1365 Z " />
<glyph glyph-name="daggerdbl" unicode="&#x2021;" horiz-adv-x="1063" d="M1001 976 L1001 792 L634 792 L634 206 L1001 206 L1001 22 L634 22 L634 -366 L424 -366 L424 22 L62 22 L62 206 L424 206 L424 792 L62 792 L62 976 L424 976 L424 1365 L634 1365 L634 976 L1001 976 Z " />
<glyph glyph-name="periodcentered" unicode="&#xb7;" horiz-adv-x="532" d="M399 639 L399 381 L133 381 L133 639 L399 639 Z " />
<glyph glyph-name="quotesinglbase" unicode="&#x201a;" horiz-adv-x="532" d="M394 253 L394 61 Q402 -249 135 -301 L135 -186 Q251 -146 257 0 L135 0 L135 253 L394 253 Z " />
<glyph glyph-name="quotedblbase" unicode="&#x201e;" horiz-adv-x="849" d="M368 253 L368 48 Q368 -100 304 -184 Q238 -272 128 -297 L128 -188 Q242 -144 244 0 L128 0 L128 253 L368 253 Z M719 253 L719 48 Q719 -100 655 -184 Q589 -272 479 -297 L479 -188 Q593 -144 595 0 L479 0 L479 253 L719 253 Z " />
<glyph glyph-name="perthousand" unicode="&#x2030;" horiz-adv-x="2195" d="M381 1343 Q514 1343 585 1259.5 Q656 1176 656 1018 Q656 861 582 774.5 Q508 688 374 688 Q240 688 169 771.5 Q98 855 98 1014 Q98 1174 170.5 1258.5 Q243 1343 381 1343 Z M378 1228 Q254 1228 254 1007 Q254 805 376 805 Q499 805 499 1017 Q499 1228 378 1228 Z M1198 1334 L444 0 L315 0 L1071 1334 L1198 1334 Z M1140 646 Q1273 646 1343.5 562 Q1414 478 1414 321 Q1414 164 1340 77 Q1266 -10 1132 -10 Q998 -10 927 74 Q856 158 856 316 Q856 477 928.5 561.5 Q1001 646 1140 646 Z M1136 531 Q1012 531 1012 310 Q1012 107 1133 107 Q1256 107 1256 320 Q1256 531 1136 531 Z M1822 646 Q1956 646 2026.5 562.5 Q2097 479 2097 321 Q2097 163 2023 76.5 Q1949 -10 1814 -10 Q1680 -10 1609 74 Q1538 158 1538 316 Q1538 477 1611 561.5 Q1684 646 1822 646 Z M1818 531 Q1694 531 1694 310 Q1694 107 1816 107 Q1939 107 1939 320 Q1939 531 1818 531 Z " />
<glyph glyph-name="Acircumflex" unicode="&#xc2;" horiz-adv-x="1275" d="M767 1365 L1292 0 L1036 0 L905 363 L365 363 L232 0 L-17 0 L511 1365 L767 1365 Z M842 545 L731 850 Q673 1010 637 1136 Q604 1029 540 853 L427 545 L842 545 Z M953 1481 L769 1481 L638 1646 L506 1481 L323 1481 L528 1742 L747 1742 L953 1481 Z " />
<glyph glyph-name="Ecircumflex" unicode="&#xca;" horiz-adv-x="1205" d="M1117 1365 L1117 1160 L373 1160 L373 801 L1063 801 L1063 607 L373 607 L373 205 L1130 205 L1130 0 L133 0 L133 1365 L1117 1365 Z M946 1481 L763 1481 L631 1646 L500 1481 L317 1481 L522 1742 L741 1742 L946 1481 Z " />
<glyph glyph-name="Aacute" unicode="&#xc1;" horiz-adv-x="1275" d="M767 1365 L1292 0 L1036 0 L905 363 L365 363 L232 0 L-17 0 L511 1365 L767 1365 Z M842 545 L731 850 Q673 1010 637 1136 Q604 1029 540 853 L427 545 L842 545 Z M968 1742 L711 1481 L553 1481 L713 1742 L968 1742 Z " />
<glyph glyph-name="Edieresis" unicode="&#xcb;" horiz-adv-x="1205" d="M1117 1365 L1117 1160 L373 1160 L373 801 L1063 801 L1063 607 L373 607 L373 205 L1130 205 L1130 0 L133 0 L133 1365 L1117 1365 Z M945 1709 L945 1506 L727 1506 L727 1709 L945 1709 Z M519 1709 L519 1506 L301 1506 L301 1709 L519 1709 Z " />
<glyph glyph-name="Egrave" unicode="&#xc8;" horiz-adv-x="1205" d="M1117 1365 L1117 1160 L373 1160 L373 801 L1063 801 L1063 607 L373 607 L373 205 L1130 205 L1130 0 L133 0 L133 1365 L1117 1365 Z M363 1742 L619 1742 L778 1481 L620 1481 L363 1742 Z " />
<glyph glyph-name="Iacute" unicode="&#xcd;" horiz-adv-x="532" d="M386 1365 L386 0 L146 0 L146 1365 L386 1365 Z M574 1742 L316 1481 L159 1481 L318 1742 L574 1742 Z " />
<glyph glyph-name="Icircumflex" unicode="&#xce;" horiz-adv-x="532" d="M386 1365 L386 0 L146 0 L146 1365 L386 1365 Z M580 1481 L397 1481 L266 1646 L134 1481 L-49 1481 L156 1742 L375 1742 L580 1481 Z " />
<glyph glyph-name="Idieresis" unicode="&#xcf;" horiz-adv-x="532" d="M386 1365 L386 0 L146 0 L146 1365 L386 1365 Z M516 1709 L516 1506 L315 1506 L315 1709 L516 1709 Z M217 1709 L217 1506 L16 1506 L16 1709 L217 1709 Z " />
<glyph glyph-name="Igrave" unicode="&#xcc;" horiz-adv-x="532" d="M385 1365 L385 0 L145 0 L145 1365 L385 1365 Z M-34 1742 L222 1742 L381 1481 L224 1481 L-34 1742 Z " />
<glyph glyph-name="Oacute" unicode="&#xd3;" horiz-adv-x="1453" d="M738 1398 Q1008 1398 1190 1210 Q1382 1011 1382 683 Q1382 397 1235 206 Q1050 -33 727 -33 Q402 -33 215 210 Q71 398 71 681 Q71 1015 258 1205 Q448 1398 738 1398 Z M733 1196 Q544 1196 428 1061 Q311 925 311 685 Q311 453 416 317 Q470 248 553.5 208.5 Q637 169 730 169 Q905 169 1014 289 Q1142 431 1142 685 Q1142 918 1028 1057 Q916 1196 733 1196 Z M1037 1742 L779 1481 L622 1481 L782 1742 L1037 1742 Z " />
<glyph glyph-name="Ocircumflex" unicode="&#xd4;" horiz-adv-x="1453" d="M738 1398 Q1008 1398 1190 1210 Q1382 1011 1382 683 Q1382 397 1235 206 Q1050 -33 727 -33 Q402 -33 215 210 Q71 398 71 681 Q71 1015 258 1205 Q448 1398 738 1398 Z M733 1196 Q544 1196 428 1061 Q311 925 311 685 Q311 453 416 317 Q470 248 553.5 208.5 Q637 169 730 169 Q905 169 1014 289 Q1142 431 1142 685 Q1142 918 1028 1057 Q916 1196 733 1196 Z M1041 1481 L858 1481 L726 1646 L595 1481 L412 1481 L617 1742 L836 1742 L1041 1481 Z " />
<glyph glyph-name="Ograve" unicode="&#xd2;" horiz-adv-x="1453" d="M738 1398 Q1008 1398 1190 1210 Q1382 1011 1382 683 Q1382 397 1235 206 Q1050 -33 727 -33 Q402 -33 215 210 Q71 398 71 681 Q71 1015 258 1205 Q448 1398 738 1398 Z M733 1196 Q544 1196 428 1061 Q311 925 311 685 Q311 453 416 317 Q470 248 553.5 208.5 Q637 169 730 169 Q905 169 1014 289 Q1142 431 1142 685 Q1142 918 1028 1057 Q916 1196 733 1196 Z M449 1742 L705 1742 L865 1481 L707 1481 L449 1742 Z " />
<glyph glyph-name="Uacute" unicode="&#xda;" horiz-adv-x="1381" d="M1250 1365 L1250 565 Q1250 387 1223 299 Q1120 -33 693 -33 Q352 -33 212 177 Q165 247 146.5 334 Q128 421 128 569 L128 1365 L368 1365 L368 556 Q368 449 377.5 394 Q387 339 414 292 Q487 166 697 166 Q895 166 963 283 Q1010 365 1010 557 L1010 1365 L1250 1365 Z M1000 1742 L742 1481 L585 1481 L744 1742 L1000 1742 Z " />
<glyph glyph-name="Ucircumflex" unicode="&#xdb;" horiz-adv-x="1381" d="M1250 1365 L1250 565 Q1250 387 1223 299 Q1120 -33 693 -33 Q352 -33 212 177 Q165 247 146.5 334 Q128 421 128 569 L128 1365 L368 1365 L368 556 Q368 449 377.5 394 Q387 339 414 292 Q487 166 697 166 Q895 166 963 283 Q1010 365 1010 557 L1010 1365 L1250 1365 Z M1004 1481 L821 1481 L689 1646 L558 1481 L375 1481 L580 1742 L799 1742 L1004 1481 Z " />
<glyph glyph-name="Ugrave" unicode="&#xd9;" horiz-adv-x="1381" d="M1250 1365 L1250 565 Q1250 387 1223 299 Q1120 -33 693 -33 Q352 -33 212 177 Q165 247 146.5 334 Q128 421 128 569 L128 1365 L368 1365 L368 556 Q368 449 377.5 394 Q387 339 414 292 Q487 166 697 166 Q895 166 963 283 Q1010 365 1010 557 L1010 1365 L1250 1365 Z M415 1742 L671 1742 L831 1481 L673 1481 L415 1742 Z " />
<glyph glyph-name="dotlessi" unicode="&#x131;" horiz-adv-x="461" d="M338 990 L338 0 L120 0 L120 990 L338 990 Z " />
<glyph glyph-name="circumflex" unicode="&#x2c6;" horiz-adv-x="461" d="M515 1130 L330 1130 L226 1304 L117 1130 L-54 1130 L131 1419 L329 1419 L515 1130 Z " />
<glyph glyph-name="tilde" unicode="&#x2dc;" horiz-adv-x="461" d="M539 1390 Q526 1282 477.5 1222.5 Q429 1163 354 1163 Q302 1163 185 1213 Q129 1236 103 1236 Q45 1236 24 1152 L-79 1152 Q-67 1259 -15.5 1319.5 Q36 1380 114 1380 Q149 1380 178.5 1370.5 Q208 1361 310 1316 Q333 1306 358 1306 Q415 1306 434 1390 L539 1390 Z " />
<glyph glyph-name="overscore" unicode="&#xaf;" horiz-adv-x="461" d="M535 1335 L535 1208 L-73 1208 L-73 1335 L535 1335 Z " />
<glyph glyph-name="breve" unicode="&#x2d8;" horiz-adv-x="461" d="M510 1419 Q478 1130 226 1130 Q68 1130 -4 1251 Q-45 1320 -50 1419 L92 1419 Q116 1268 233 1268 Q288 1268 315 1296 Q351 1332 368 1419 L510 1419 Z " />
<glyph glyph-name="dotaccent" unicode="&#x2d9;" horiz-adv-x="461" d="M335 1379 L335 1170 L123 1170 L123 1379 L335 1379 Z " />
<glyph glyph-name="ring" unicode="&#x2da;" horiz-adv-x="461" d="M234 1502 Q322 1502 383 1434 Q436 1376 436 1297 Q436 1206 368 1145 Q310 1092 231 1092 Q140 1092 79 1160 Q26 1218 26 1299 Q26 1387 94 1449 Q152 1502 234 1502 Z M233 1398 Q190 1398 160 1368.5 Q130 1339 130 1298 Q130 1256 159.5 1226 Q189 1196 231 1196 Q273 1196 302.5 1225.5 Q332 1255 332 1297 Q332 1338 302.5 1368 Q273 1398 233 1398 Z " />
<glyph glyph-name="cedilla" unicode="&#xb8;" horiz-adv-x="461" d="M295 0 L215 -118 Q259 -108 288 -108 Q352 -108 396 -146 Q440 -184 440 -240 Q440 -320 380 -367 Q320 -414 217 -414 Q131 -414 20 -374 L55 -297 Q126 -328 194 -328 Q236 -328 263.5 -306.5 Q291 -285 291 -253 Q291 -223 264.5 -203.5 Q238 -184 197 -184 Q169 -184 128 -199 L94 -162 L208 0 L295 0 Z " />
<glyph glyph-name="hungarumlaut" unicode="&#x2dd;" horiz-adv-x="461" d="M588 1419 L433 1131 L309 1131 L391 1419 L588 1419 Z M288 1419 L133 1131 L9 1131 L91 1419 L288 1419 Z " />
<glyph glyph-name="ogonek" unicode="&#x2db;" horiz-adv-x="461" d="M280 0 L408 0 Q296 -86 296 -156 Q296 -200 331 -227 Q366 -254 425 -254 Q455 -254 500 -240 L501 -348 Q435 -369 380 -369 Q272 -369 210 -316 Q154 -268 154 -190 Q154 -139 181.5 -98 Q209 -57 280 0 Z " />
<glyph glyph-name="caron" unicode="&#x2c7;" horiz-adv-x="461" d="M-54 1419 L131 1419 L235 1245 L344 1419 L515 1419 L330 1130 L132 1130 L-54 1419 Z " />
<glyph glyph-name="nbspace" unicode="&#xa0;" horiz-adv-x="532" d="" />
<glyph glyph-name="currency" unicode="&#xa4;" horiz-adv-x="1063" d="M-74 222 L123 421 Q35 552 35 699 Q35 770 55 830 Q75 890 127 977 L-76 1178 L49 1302 L253 1099 Q343 1152 400.5 1170.5 Q458 1189 532 1189 Q606 1189 660.5 1171.5 Q715 1154 807 1100 L1010 1301 L1134 1177 L935 979 Q1028 836 1028 695 Q1028 625 1009.5 567 Q991 509 940 421 L1139 223 L1016 98 L818 296 Q684 203 543 203 Q407 203 247 295 L50 99 L-74 222 Z M535 989 Q413 989 328 904 Q244 819 244 698 Q244 579 328 494 Q413 409 532 409 Q651 409 736 494 Q820 579 820 699 Q820 821 736 904 Q649 989 535 989 Z " />
<glyph glyph-name="brokenbar" unicode="&#xa6;" horiz-adv-x="424" d="M93 1365 L332 1365 L332 662 L93 662 L93 1365 Z M93 314 L332 314 L332 -341 L93 -341 L93 314 Z " />
<glyph glyph-name="uni00AD" unicode="&#xad;" horiz-adv-x="744" d="M618 609 L618 411 L126 411 L126 609 L618 609 Z " />
<glyph glyph-name="twosuperior" unicode="&#xb2;" horiz-adv-x="688" d="M631 674 L631 546 L39 546 Q42 663 94.5 735.5 Q147 808 295 901 Q412 975 445.5 1013 Q479 1051 479 1110 Q479 1170 444 1204 Q409 1238 348 1238 Q275 1238 243.5 1195.5 Q212 1153 208 1049 L61 1049 Q61 1065 61 1074 Q61 1206 139.5 1283.5 Q218 1361 351 1361 Q472 1361 545 1302 Q632 1232 632 1116 Q632 1010 556 936 Q513 893 397 821 Q253 731 221 672 Q240 672 318 674 L631 674 Z " />
<glyph glyph-name="threesuperior" unicode="&#xb3;" horiz-adv-x="688" d="M53 1085 Q56 1186 100 1251 Q175 1361 335 1361 Q453 1361 525 1304 Q604 1241 604 1141 Q604 1036 502 981 Q638 933 638 794 Q638 678 553 605.5 Q468 533 332 533 Q178 533 94 628 Q33 696 33 800 Q33 811 33 822 L179 822 Q184 656 337 656 Q405 656 445 692.5 Q485 729 485 791 Q485 851 442.5 883.5 Q400 916 321 916 Q300 916 269 914 L269 1025 Q283 1025 289 1025 Q377 1025 412 1048 Q455 1077 455 1133 Q455 1182 421.5 1211.5 Q388 1241 333 1241 Q203 1241 198 1085 L53 1085 Z " />
<glyph glyph-name="onesuperior" unicode="&#xb9;" horiz-adv-x="688" d="M488 1357 L488 546 L328 546 L328 1094 L275 1094 L214 1094 L152 1094 L117 1094 L117 1203 Q234 1203 289 1237 Q344 1271 366 1357 L488 1357 Z " />
<glyph glyph-name="onequarter" unicode="&#xbc;" horiz-adv-x="1595" d="M418 1357 L418 546 L258 546 L258 1094 L205 1094 L144 1094 L81 1094 L46 1094 L46 1203 Q164 1203 219 1237 Q274 1271 296 1357 L418 1357 Z M1250 1346 L489 0 L345 0 L1110 1346 L1250 1346 Z M1625 310 L1625 187 L1517 187 L1517 0 L1371 0 L1370 187 L1012 187 L1012 324 L1377 811 L1517 811 L1517 310 L1625 310 Z M1379 305 L1379 637 L1135 304 L1379 305 Z " />
<glyph glyph-name="onehalf" unicode="&#xbd;" horiz-adv-x="1595" d="M418 1357 L418 546 L258 546 L258 1094 L205 1094 L144 1094 L81 1094 L46 1094 L46 1203 Q164 1203 219 1237 Q274 1271 296 1357 L418 1357 Z M1250 1346 L489 0 L345 0 L1110 1346 L1250 1346 Z M1609 128 L1609 0 L1017 0 Q1021 117 1073.5 190 Q1126 263 1273 355 Q1390 429 1423.5 467 Q1457 505 1457 564 Q1457 624 1422.5 658 Q1388 692 1326 692 Q1253 692 1221.5 649 Q1190 606 1186 502 L1039 502 Q1039 518 1039 527 Q1039 659 1117.5 737 Q1196 815 1329 815 Q1450 815 1524 755 Q1610 686 1610 570 Q1610 464 1535 390 Q1491 346 1375 274 Q1232 185 1199 126 Q1218 126 1296 128 L1609 128 Z " />
<glyph glyph-name="threequarters" unicode="&#xbe;" horiz-adv-x="1595" d="M-18 1085 Q-15 1186 29 1251 Q104 1361 264 1361 Q382 1361 454 1304 Q533 1241 533 1141 Q533 1036 431 981 Q567 933 567 794 Q567 678 482 605.5 Q397 533 261 533 Q107 533 23 628 Q-38 696 -38 800 Q-38 811 -38 822 L108 822 Q113 656 266 656 Q334 656 374 692.5 Q414 729 414 791 Q414 851 371.5 883.5 Q329 916 250 916 Q229 916 198 914 L198 1025 Q212 1025 218 1025 Q306 1025 341 1048 Q384 1077 384 1133 Q384 1182 350.5 1211.5 Q317 1241 262 1241 Q132 1241 127 1085 L-18 1085 Z M1250 1346 L488 0 L345 0 L1110 1346 L1250 1346 Z M1624 310 L1624 187 L1517 187 L1517 0 L1371 0 L1370 187 L1011 187 L1011 324 L1376 811 L1517 811 L1517 310 L1624 310 Z M1379 305 L1379 637 L1135 304 L1379 305 Z " />
<glyph glyph-name="Eth" unicode="&#xd0;" horiz-adv-x="1381" d="M135 1365 L656 1365 Q810 1365 915 1332 Q1020 1299 1102 1226 Q1305 1044 1305 705 Q1305 344 1112 152 Q1028 68 929 34 Q830 0 670 0 L135 0 L135 631 L5 631 L5 802 L135 802 L135 1365 Z M374 1160 L374 802 L673 802 L673 631 L374 631 L374 205 L637 205 Q759 205 826 227 Q893 249 945 305 Q1063 436 1063 693 Q1063 922 955.5 1041 Q848 1160 641 1160 L374 1160 Z " />
<glyph glyph-name="multiply" unicode="&#xd7;" horiz-adv-x="1147" d="M166 372 L463 669 L170 962 L281 1073 L574 780 L871 1077 L982 966 L685 669 L977 376 L866 265 L574 558 L277 261 L166 372 Z " />
<glyph glyph-name="Yacute" unicode="&#xdd;" horiz-adv-x="1239" d="M1252 1365 L741 542 L741 0 L501 0 L501 544 L-13 1365 L263 1365 L528 928 Q579 844 626 743 Q682 863 724 933 L985 1365 L1252 1365 Z M934 1742 L676 1481 L518 1481 L678 1742 L934 1742 Z " />
<glyph glyph-name="Thorn" unicode="&#xde;" horiz-adv-x="1275" d="M141 1365 L380 1365 L380 1161 L695 1161 Q828 1161 904 1144.5 Q980 1128 1042 1086 Q1209 972 1209 745 Q1209 523 1056 406 Q995 360 920.5 340.5 Q846 321 727 321 L380 321 L380 0 L141 0 L141 1365 Z M380 960 L380 515 L695 515 Q831 515 892 561 Q971 620 971 738 Q971 864 879 922 Q817 960 673 960 L380 960 Z " />
<glyph glyph-name="eth" unicode="&#xf0;" horiz-adv-x="1134" d="M375 1184 L536 1252 L474 1375 L605 1433 L680 1310 L840 1379 L885 1282 L740 1217 L907 948 Q997 805 1031.5 706.5 Q1066 608 1066 495 Q1066 259 929 115 Q793 -28 569 -28 Q319 -28 183 139 Q67 281 67 494 Q67 740 215 887 Q277 948 362.5 983 Q448 1018 536 1018 Q584 1018 660 1003 L582 1154 L417 1085 L375 1184 Z M571 843 Q444 843 369 756 Q288 663 288 494 Q288 324 367 234 Q443 148 570 148 Q686 148 757 224 Q845 317 845 497 Q845 663 768 754 Q693 843 571 843 Z " />
<glyph glyph-name="yacute" unicode="&#xfd;" horiz-adv-x="992" d="M987 990 L620 19 Q565 -127 539 -182.5 Q513 -238 481 -278 Q400 -378 252 -378 Q198 -378 102 -367 L102 -183 Q180 -195 214 -195 Q291 -195 327 -122 Q373 -28 383 32 L5 990 L245 990 L438 457 Q464 385 507 228 Q552 387 581 471 L759 990 L987 990 Z M762 1419 L532 1130 L388 1130 L524 1419 L762 1419 Z " />
<glyph glyph-name="thorn" unicode="&#xfe;" horiz-adv-x="1168" d="M337 1365 L337 858 Q443 1017 650 1017 Q847 1017 970 881 Q1100 737 1100 490 Q1100 262 985 122 Q862 -27 659 -27 Q447 -27 337 130 L337 -366 L119 -366 L119 1365 L337 1365 Z M607 842 Q480 842 404 752 Q329 664 329 496 Q329 322 409 232 Q485 148 607 148 Q730 148 802 235 Q879 328 879 490 Q879 658 800 754 Q728 842 607 842 Z " />
<glyph glyph-name="Amacron" unicode="&#x100;" horiz-adv-x="1275" d="M767 1365 L1292 0 L1036 0 L905 363 L365 363 L232 0 L-17 0 L511 1365 L767 1365 Z M842 545 L731 850 Q673 1010 637 1136 Q604 1029 540 853 L427 545 L842 545 Z M972 1673 L972 1543 L303 1543 L303 1673 L972 1673 Z " />
<glyph glyph-name="amacron" unicode="&#x101;" horiz-adv-x="1063" d="M87 683 Q99 826 181 906 Q294 1017 520 1017 Q648 1017 744 983.5 Q840 950 886 889 Q932 828 932 703 Q932 674 928 522 L923 284 Q923 187 932 165 Q941 143 979 143 Q996 143 1027 147 L1027 -6 Q941 -28 886 -28 Q745 -28 725 91 Q589 -29 375 -29 Q224 -29 134 51 Q44 131 44 266 Q44 409 144 484 Q199 525 255 540.5 Q311 556 487 578 Q646 598 681.5 617.5 Q717 637 717 706 Q717 856 512 856 Q406 856 356 816.5 Q306 777 293 683 L87 683 Z M714 494 Q673 473 638 464.5 Q603 456 483 440 Q348 422 306 380 Q266 340 266 276 Q266 206 313.5 167 Q361 128 447 128 Q526 128 594 157 Q662 186 691 232 Q714 269 714 378 L714 494 Z M835 1335 L835 1208 L228 1208 L228 1335 L835 1335 Z " />
<glyph glyph-name="Abreve" unicode="&#x102;" horiz-adv-x="1275" d="M767 1365 L1292 0 L1036 0 L905 363 L365 363 L232 0 L-17 0 L511 1365 L767 1365 Z M842 545 L731 850 Q673 1010 637 1136 Q604 1029 540 853 L427 545 L842 545 Z M946 1742 Q910 1476 633 1476 Q460 1476 380 1588 Q334 1651 329 1742 L471 1742 Q500 1614 642 1614 Q712 1614 749 1643 Q786 1672 805 1742 L946 1742 Z " />
<glyph glyph-name="abreve" unicode="&#x103;" horiz-adv-x="1063" d="M87 683 Q99 826 181 906 Q294 1017 520 1017 Q648 1017 744 983.5 Q840 950 886 889 Q932 828 932 703 Q932 674 928 522 L923 284 Q923 187 932 165 Q941 143 979 143 Q996 143 1027 147 L1027 -6 Q941 -28 886 -28 Q745 -28 725 91 Q589 -29 375 -29 Q224 -29 134 51 Q44 131 44 266 Q44 409 144 484 Q199 525 255 540.5 Q311 556 487 578 Q646 598 681.5 617.5 Q717 637 717 706 Q717 856 512 856 Q406 856 356 816.5 Q306 777 293 683 L87 683 Z M714 494 Q673 473 638 464.5 Q603 456 483 440 Q348 422 306 380 Q266 340 266 276 Q266 206 313.5 167 Q361 128 447 128 Q526 128 594 157 Q662 186 691 232 Q714 269 714 378 L714 494 Z M812 1419 Q780 1130 527 1130 Q369 1130 297 1251 Q256 1320 252 1419 L394 1419 Q417 1268 535 1268 Q589 1268 617 1296 Q653 1332 669 1419 L812 1419 Z " />
<glyph glyph-name="Aogonek" unicode="&#x104;" horiz-adv-x="1275" d="M1280 0 Q1168 -82 1168 -165 Q1168 -208 1203.5 -234.5 Q1239 -261 1297 -261 Q1326 -261 1372 -247 L1373 -355 Q1307 -376 1252 -376 Q1144 -376 1082 -323 Q1026 -275 1026 -199 Q1026 -144 1053.5 -100.5 Q1081 -57 1152 0 L1036 0 L905 363 L365 363 L232 0 L-17 0 L511 1365 L767 1365 L1292 0 L1280 0 Z M842 545 L731 850 Q673 1010 637 1136 Q604 1029 540 853 L427 545 L842 545 Z " />
<glyph glyph-name="aogonek" unicode="&#x105;" horiz-adv-x="1063" d="M964 -21 Q878 -89 878 -156 Q878 -200 913.5 -227 Q949 -254 1007 -254 Q1037 -254 1082 -240 L1083 -348 Q1017 -369 962 -369 Q854 -369 792 -316 Q736 -268 736 -190 Q736 -104 832 -24 Q741 -5 725 91 Q589 -29 375 -29 Q224 -29 134 51 Q44 131 44 266 Q44 409 144 484 Q199 525 255 540.5 Q311 556 487 578 Q646 598 681.5 617.5 Q717 637 717 706 Q717 856 512 856 Q406 856 356 816.5 Q306 777 293 683 L87 683 Q99 826 181 906 Q294 1017 520 1017 Q648 1017 744 983.5 Q840 950 886 889 Q932 828 932 703 Q932 674 928 522 L923 284 Q923 187 932 165 Q941 143 979 143 Q996 143 1027 147 L1027 -6 Q991 -15 964 -21 Z M714 494 Q673 473 638 464.5 Q603 456 483 440 Q348 422 306 380 Q266 340 266 276 Q266 206 313.5 167 Q361 128 447 128 Q526 128 594 157 Q662 186 691 232 Q714 269 714 378 L714 494 Z " />
<glyph glyph-name="Cacute" unicode="&#x106;" horiz-adv-x="1381" d="M1315 522 Q1301 314 1178 166 Q1013 -33 720 -33 Q409 -33 233 194 Q83 388 83 683 Q83 994 268 1200 Q445 1398 732 1398 Q1007 1398 1175 1217 Q1292 1091 1304 931 L1067 931 Q1041 1056 951.5 1126 Q862 1196 728 1196 Q510 1196 405 1014 Q323 872 323 683 Q323 479 408 342 Q515 169 726 169 Q877 169 966 259 Q1055 349 1077 522 L1315 522 Z M1018 1742 L760 1481 L603 1481 L762 1742 L1018 1742 Z " />
<glyph glyph-name="cacute" unicode="&#x107;" horiz-adv-x="1063" d="M1011 370 Q986 183 865.5 78 Q745 -27 556 -27 Q312 -27 179 140 Q70 277 70 484 Q70 744 221 889 Q354 1017 561 1017 Q752 1017 868.5 921.5 Q985 826 1005 655 L787 655 Q769 746 711.5 794 Q654 842 564 842 Q437 842 364 748.5 Q291 655 291 493 Q291 347 349 258 Q420 148 556 148 Q691 148 756 255 Q785 303 796 370 L1011 370 Z M824 1419 L594 1130 L450 1130 L586 1419 L824 1419 Z " />
<glyph glyph-name="Ccircumflex" unicode="&#x108;" horiz-adv-x="1381" d="M1315 522 Q1301 314 1178 166 Q1013 -33 720 -33 Q409 -33 233 194 Q83 388 83 683 Q83 994 268 1200 Q445 1398 732 1398 Q1007 1398 1175 1217 Q1292 1091 1304 931 L1067 931 Q1041 1056 951.5 1126 Q862 1196 728 1196 Q510 1196 405 1014 Q323 872 323 683 Q323 479 408 342 Q515 169 726 169 Q877 169 966 259 Q1055 349 1077 522 L1315 522 Z M1030 1481 L847 1481 L716 1646 L584 1481 L401 1481 L606 1742 L825 1742 L1030 1481 Z " />
<glyph glyph-name="ccircumflex" unicode="&#x109;" horiz-adv-x="1063" d="M1011 370 Q986 183 865.5 78 Q745 -27 556 -27 Q312 -27 179 140 Q70 277 70 484 Q70 744 221 889 Q354 1017 561 1017 Q752 1017 868.5 921.5 Q985 826 1005 655 L787 655 Q769 746 711.5 794 Q654 842 564 842 Q437 842 364 748.5 Q291 655 291 493 Q291 347 349 258 Q420 148 556 148 Q691 148 756 255 Q785 303 796 370 L1011 370 Z M859 1130 L674 1130 L569 1304 L461 1130 L290 1130 L474 1419 L673 1419 L859 1130 Z " />
<glyph glyph-name="Cdotaccent" unicode="&#x10a;" horiz-adv-x="1381" d="M1315 522 Q1301 314 1178 166 Q1013 -33 720 -33 Q409 -33 233 194 Q83 388 83 683 Q83 994 268 1200 Q445 1398 732 1398 Q1007 1398 1175 1217 Q1292 1091 1304 931 L1067 931 Q1041 1056 951.5 1126 Q862 1196 728 1196 Q510 1196 405 1014 Q323 872 323 683 Q323 479 408 342 Q515 169 726 169 Q877 169 966 259 Q1055 349 1077 522 L1315 522 Z M830 1709 L830 1506 L612 1506 L612 1709 L830 1709 Z " />
<glyph glyph-name="cdotaccent" unicode="&#x10b;" horiz-adv-x="1063" d="M1011 370 Q986 183 865.5 78 Q745 -27 556 -27 Q312 -27 179 140 Q70 277 70 484 Q70 744 221 889 Q354 1017 561 1017 Q752 1017 868.5 921.5 Q985 826 1005 655 L787 655 Q769 746 711.5 794 Q654 842 564 842 Q437 842 364 748.5 Q291 655 291 493 Q291 347 349 258 Q420 148 556 148 Q691 148 756 255 Q785 303 796 370 L1011 370 Z M669 1379 L669 1170 L457 1170 L457 1379 L669 1379 Z " />
<glyph glyph-name="Ccaron" unicode="&#x10c;" horiz-adv-x="1381" d="M1315 522 Q1301 314 1178 166 Q1013 -33 720 -33 Q409 -33 233 194 Q83 388 83 683 Q83 994 268 1200 Q445 1398 732 1398 Q1007 1398 1175 1217 Q1292 1091 1304 931 L1067 931 Q1041 1056 951.5 1126 Q862 1196 728 1196 Q510 1196 405 1014 Q323 872 323 683 Q323 479 408 342 Q515 169 726 169 Q877 169 966 259 Q1055 349 1077 522 L1315 522 Z M404 1742 L587 1742 L719 1577 L850 1742 L1033 1742 L828 1481 L609 1481 L404 1742 Z " />
<glyph glyph-name="ccaron" unicode="&#x10d;" horiz-adv-x="1063" d="M1011 370 Q986 183 865.5 78 Q745 -27 556 -27 Q312 -27 179 140 Q70 277 70 484 Q70 744 221 889 Q354 1017 561 1017 Q752 1017 868.5 921.5 Q985 826 1005 655 L787 655 Q769 746 711.5 794 Q654 842 564 842 Q437 842 364 748.5 Q291 655 291 493 Q291 347 349 258 Q420 148 556 148 Q691 148 756 255 Q785 303 796 370 L1011 370 Z M275 1419 L461 1419 L565 1245 L674 1419 L845 1419 L660 1130 L462 1130 L275 1419 Z " />
<glyph glyph-name="Dcaron" unicode="&#x10e;" horiz-adv-x="1381" d="M135 1365 L656 1365 Q810 1365 915 1332 Q1020 1299 1102 1226 Q1305 1044 1305 705 Q1305 344 1112 152 Q1028 68 929 34 Q830 0 670 0 L135 0 L135 1365 Z M375 1160 L375 205 L637 205 Q760 205 827.5 227 Q895 249 946 305 Q1065 436 1065 694 Q1065 922 957 1041 Q849 1160 641 1160 L375 1160 Z M323 1742 L506 1742 L638 1577 L769 1742 L952 1742 L747 1481 L528 1481 L323 1742 Z " />
<glyph glyph-name="dcaron" unicode="&#x10f;" horiz-adv-x="1358" d="M1047 1365 L1047 0 L842 0 L842 136 Q751 -27 526 -27 Q318 -27 193 115 Q69 257 69 497 Q69 730 183 867 Q307 1017 517 1017 Q623 1017 703 977 Q783 937 829 860 L829 1365 L1047 1365 Z M565 842 Q439 842 367 756 Q290 664 290 498 Q290 336 365 240 Q438 148 564 148 Q692 148 765 240 Q837 330 837 494 Q837 670 757 758 Q681 842 565 842 Z M1324 1365 L1324 1232 Q1324 1022 1138 1002 L1138 1078 Q1221 1096 1229 1189 L1138 1189 L1138 1365 L1324 1365 Z " />
<glyph glyph-name="Dcroat" unicode="&#x110;" horiz-adv-x="1381" d="M135 1365 L656 1365 Q810 1365 915 1332 Q1020 1299 1102 1226 Q1305 1044 1305 705 Q1305 344 1112 152 Q1028 68 929 34 Q830 0 670 0 L135 0 L135 631 L5 631 L5 802 L135 802 L135 1365 Z M374 1160 L374 802 L673 802 L673 631 L374 631 L374 205 L637 205 Q759 205 826 227 Q893 249 945 305 Q1063 436 1063 693 Q1063 922 955.5 1041 Q848 1160 641 1160 L374 1160 Z " />
<glyph glyph-name="dcroat" unicode="&#x111;" horiz-adv-x="1181" d="M835 1247 L835 1365 L1053 1365 L1053 1247 L1176 1247 L1176 1104 L1053 1104 L1053 0 L848 0 L848 136 Q804 57 722.5 15 Q641 -27 531 -27 Q323 -27 199 115 Q74 257 74 497 Q74 730 188 867 Q313 1017 522 1017 Q628 1017 708.5 976.5 Q789 936 835 860 L835 1104 L525 1104 L525 1247 L835 1247 Z M571 842 Q445 842 372 756 Q295 665 295 498 Q295 336 370 240 Q443 148 570 148 Q698 148 771 240 Q843 330 843 494 Q843 670 763 758 Q687 842 571 842 Z " />
<glyph glyph-name="Emacron" unicode="&#x112;" horiz-adv-x="1205" d="M1117 1365 L1117 1160 L373 1160 L373 801 L1063 801 L1063 607 L373 607 L373 205 L1130 205 L1130 0 L133 0 L133 1365 L1117 1365 Z M966 1673 L966 1543 L297 1543 L297 1673 L966 1673 Z " />
<glyph glyph-name="emacron" unicode="&#x113;" horiz-adv-x="1063" d="M995 310 Q975 227 929 160 Q801 -27 548 -27 Q318 -27 185 124 Q60 267 60 483 Q60 709 188 859 Q323 1017 539 1017 Q715 1017 839 911 Q1011 764 1009 442 L277 442 Q280 361 301 306 Q366 134 551 134 Q723 134 787 310 L995 310 Z M790 588 Q783 676 747 737 Q675 856 537 856 Q430 856 364 787 Q298 718 281 588 L790 588 Z M838 1335 L838 1208 L231 1208 L231 1335 L838 1335 Z " />
<glyph glyph-name="Ebreve" unicode="&#x114;" horiz-adv-x="1205" d="M1117 1365 L1117 1160 L373 1160 L373 801 L1063 801 L1063 607 L373 607 L373 205 L1130 205 L1130 0 L133 0 L133 1365 L1117 1365 Z M940 1742 Q904 1476 627 1476 Q454 1476 373 1588 Q328 1651 323 1742 L465 1742 Q493 1614 635 1614 Q705 1614 742 1643 Q779 1672 799 1742 L940 1742 Z " />
<glyph glyph-name="ebreve" unicode="&#x115;" horiz-adv-x="1063" d="M995 310 Q975 227 929 160 Q801 -27 548 -27 Q318 -27 185 124 Q60 267 60 483 Q60 709 188 859 Q323 1017 539 1017 Q715 1017 839 911 Q1011 764 1009 442 L277 442 Q280 361 301 306 Q366 134 551 134 Q723 134 787 310 L995 310 Z M790 588 Q783 676 747 737 Q675 856 537 856 Q430 856 364 787 Q298 718 281 588 L790 588 Z M817 1419 Q785 1130 533 1130 Q375 1130 303 1251 Q262 1320 257 1419 L399 1419 Q423 1268 540 1268 Q595 1268 623 1296 Q658 1332 675 1419 L817 1419 Z " />
<glyph glyph-name="Edotaccent" unicode="&#x116;" horiz-adv-x="1205" d="M1117 1365 L1117 1160 L373 1160 L373 801 L1063 801 L1063 607 L373 607 L373 205 L1130 205 L1130 0 L133 0 L133 1365 L1117 1365 Z M740 1709 L740 1506 L522 1506 L522 1709 L740 1709 Z " />
<glyph glyph-name="edotaccent" unicode="&#x117;" horiz-adv-x="1063" d="M995 310 Q975 227 929 160 Q801 -27 548 -27 Q318 -27 185 124 Q60 267 60 483 Q60 709 188 859 Q323 1017 539 1017 Q715 1017 839 911 Q1011 764 1009 442 L277 442 Q280 361 301 306 Q366 134 551 134 Q723 134 787 310 L995 310 Z M790 588 Q783 676 747 737 Q675 856 537 856 Q430 856 364 787 Q298 718 281 588 L790 588 Z M646 1379 L646 1170 L434 1170 L434 1379 L646 1379 Z " />
<glyph glyph-name="Eogonek" unicode="&#x118;" horiz-adv-x="1205" d="M1115 0 Q1004 -87 1004 -165 Q1004 -208 1039.5 -234.5 Q1075 -261 1133 -261 Q1163 -261 1208 -247 L1209 -355 Q1143 -376 1087 -376 Q980 -376 918 -323 Q862 -275 862 -199 Q862 -99 988 0 L133 0 L133 1365 L1117 1365 L1117 1160 L373 1160 L373 801 L1063 801 L1063 607 L373 607 L373 205 L1130 205 L1130 0 L1115 0 Z " />
<glyph glyph-name="eogonek" unicode="&#x119;" horiz-adv-x="1063" d="M690 -10 Q591 -87 591 -156 Q591 -200 626.5 -227 Q662 -254 720 -254 Q750 -254 795 -240 L796 -348 Q730 -369 675 -369 Q567 -369 505 -316 Q449 -268 449 -190 Q449 -104 542 -27 Q364 -24 249 65 Q155 136 106 249 Q60 355 60 483 Q60 709 188 859 Q323 1017 539 1017 Q715 1017 839 911 Q1011 764 1009 442 L277 442 Q280 361 301 306 Q366 134 551 134 Q723 134 787 310 L995 310 Q967 190 887.5 107 Q808 24 690 -10 Z M790 588 Q783 676 747 737 Q675 856 537 856 Q430 856 364 787 Q298 718 281 588 L790 588 Z " />
<glyph glyph-name="Ecaron" unicode="&#x11a;" horiz-adv-x="1205" d="M1117 1365 L1117 1160 L373 1160 L373 801 L1063 801 L1063 607 L373 607 L373 205 L1130 205 L1130 0 L133 0 L133 1365 L1117 1365 Z M317 1742 L500 1742 L631 1577 L763 1742 L946 1742 L741 1481 L522 1481 L317 1742 Z " />
<glyph glyph-name="ecaron" unicode="&#x11b;" horiz-adv-x="1063" d="M995 310 Q975 227 929 160 Q801 -27 548 -27 Q318 -27 185 124 Q60 267 60 483 Q60 709 188 859 Q323 1017 539 1017 Q715 1017 839 911 Q1011 764 1009 442 L277 442 Q280 361 301 306 Q366 134 551 134 Q723 134 787 310 L995 310 Z M790 588 Q783 676 747 737 Q675 856 537 856 Q430 856 364 787 Q298 718 281 588 L790 588 Z M250 1419 L435 1419 L539 1245 L648 1419 L819 1419 L634 1130 L436 1130 L250 1419 Z " />
<glyph glyph-name="Gcircumflex" unicode="&#x11c;" horiz-adv-x="1451" d="M1337 728 L1337 0 L1184 0 L1146 163 Q988 -33 722 -33 Q402 -33 222 201 Q74 394 74 673 Q74 995 265 1202 Q447 1398 742 1398 Q1015 1398 1180 1229 Q1303 1102 1320 931 L1087 931 Q1066 1054 972.5 1125 Q879 1196 740 1196 Q533 1196 417 1042 Q314 906 314 676 Q314 462 409 330 Q525 169 747 169 Q977 169 1074 350 Q1113 423 1121 546 L751 546 L751 728 L1337 728 Z M1060 1481 L876 1481 L745 1646 L614 1481 L430 1481 L636 1742 L854 1742 L1060 1481 Z " />
<glyph glyph-name="gcircumflex" unicode="&#x11d;" horiz-adv-x="1134" d="M1017 991 L1017 116 Q1017 -7 1003 -77 Q989 -147 952 -205 Q838 -386 541 -386 Q136 -386 97 -85 L316 -85 Q347 -232 546 -232 Q698 -232 759 -146 Q805 -81 806 60 L807 176 Q702 9 492 9 Q298 9 180 143 Q62 277 62 504 Q62 737 184 876 Q307 1017 505 1017 Q609 1017 682.5 977.5 Q756 938 812 852 L812 991 L1017 991 Z M549 843 Q410 843 341 739 Q283 652 283 519 Q283 335 372 251 Q442 184 543 184 Q679 184 749 292 Q807 381 807 518 Q807 690 720 776 Q652 843 549 843 Z M839 1130 L654 1130 L550 1304 L441 1130 L270 1130 L454 1419 L653 1419 L839 1130 Z " />
<glyph glyph-name="Gbreve" unicode="&#x11e;" horiz-adv-x="1451" d="M1337 728 L1337 0 L1184 0 L1146 163 Q988 -33 722 -33 Q402 -33 222 201 Q74 394 74 673 Q74 995 265 1202 Q447 1398 742 1398 Q1015 1398 1180 1229 Q1303 1102 1320 931 L1087 931 Q1066 1054 972.5 1125 Q879 1196 740 1196 Q533 1196 417 1042 Q314 906 314 676 Q314 462 409 330 Q525 169 747 169 Q977 169 1074 350 Q1113 423 1121 546 L751 546 L751 728 L1337 728 Z M1056 1742 Q1020 1476 743 1476 Q570 1476 490 1588 Q444 1651 439 1742 L581 1742 Q610 1614 751 1614 Q822 1614 859 1643 Q896 1672 915 1742 L1056 1742 Z " />
<glyph glyph-name="gbreve" unicode="&#x11f;" horiz-adv-x="1134" d="M1017 991 L1017 116 Q1017 -7 1003 -77 Q989 -147 952 -205 Q838 -386 541 -386 Q136 -386 97 -85 L316 -85 Q347 -232 546 -232 Q698 -232 759 -146 Q805 -81 806 60 L807 176 Q702 9 492 9 Q298 9 180 143 Q62 277 62 504 Q62 737 184 876 Q307 1017 505 1017 Q609 1017 682.5 977.5 Q756 938 812 852 L812 991 L1017 991 Z M549 843 Q410 843 341 739 Q283 652 283 519 Q283 335 372 251 Q442 184 543 184 Q679 184 749 292 Q807 381 807 518 Q807 690 720 776 Q652 843 549 843 Z M837 1419 Q805 1130 553 1130 Q395 1130 323 1251 Q282 1320 277 1419 L419 1419 Q443 1268 560 1268 Q615 1268 642 1296 Q678 1332 695 1419 L837 1419 Z " />
<glyph glyph-name="Gdotaccent" unicode="&#x120;" horiz-adv-x="1451" d="M1337 728 L1337 0 L1184 0 L1146 163 Q988 -33 722 -33 Q402 -33 222 201 Q74 394 74 673 Q74 995 265 1202 Q447 1398 742 1398 Q1015 1398 1180 1229 Q1303 1102 1320 931 L1087 931 Q1066 1054 972.5 1125 Q879 1196 740 1196 Q533 1196 417 1042 Q314 906 314 676 Q314 462 409 330 Q525 169 747 169 Q977 169 1074 350 Q1113 423 1121 546 L751 546 L751 728 L1337 728 Z M854 1709 L854 1506 L636 1506 L636 1709 L854 1709 Z " />
<glyph glyph-name="gdotaccent" unicode="&#x121;" horiz-adv-x="1134" d="M1017 991 L1017 116 Q1017 -7 1003 -77 Q989 -147 952 -205 Q838 -386 541 -386 Q136 -386 97 -85 L316 -85 Q347 -232 546 -232 Q698 -232 759 -146 Q805 -81 806 60 L807 176 Q702 9 492 9 Q298 9 180 143 Q62 277 62 504 Q62 737 184 876 Q307 1017 505 1017 Q609 1017 682.5 977.5 Q756 938 812 852 L812 991 L1017 991 Z M549 843 Q410 843 341 739 Q283 652 283 519 Q283 335 372 251 Q442 184 543 184 Q679 184 749 292 Q807 381 807 518 Q807 690 720 776 Q652 843 549 843 Z M660 1379 L660 1170 L448 1170 L448 1379 L660 1379 Z " />
<glyph glyph-name="Gcommaaccent" unicode="&#x122;" horiz-adv-x="1451" d="M1337 728 L1337 0 L1184 0 L1146 163 Q988 -33 722 -33 Q402 -33 222 201 Q74 394 74 673 Q74 995 265 1202 Q447 1398 742 1398 Q1015 1398 1180 1229 Q1303 1102 1320 931 L1087 931 Q1066 1054 972.5 1125 Q879 1196 740 1196 Q533 1196 417 1042 Q314 906 314 676 Q314 462 409 330 Q525 169 747 169 Q977 169 1074 350 Q1113 423 1121 546 L751 546 L751 728 L1337 728 Z M810 -123 L810 -256 Q810 -467 624 -486 L624 -410 Q704 -393 715 -299 L624 -299 L624 -123 L810 -123 Z " />
<glyph glyph-name="gcommaaccent" unicode="&#x123;" horiz-adv-x="1134" d="M1017 991 L1017 116 Q1017 -7 1003 -77 Q989 -147 952 -205 Q838 -386 541 -386 Q136 -386 97 -85 L316 -85 Q347 -232 546 -232 Q698 -232 759 -146 Q805 -81 806 60 L807 176 Q702 9 492 9 Q298 9 180 143 Q62 277 62 504 Q62 737 184 876 Q307 1017 505 1017 Q609 1017 682.5 977.5 Q756 938 812 852 L812 991 L1017 991 Z M549 843 Q410 843 341 739 Q283 652 283 519 Q283 335 372 251 Q442 184 543 184 Q679 184 749 292 Q807 381 807 518 Q807 690 720 776 Q652 843 549 843 Z M456 1129 L456 1262 Q456 1473 642 1492 L642 1416 Q562 1398 551 1305 L642 1305 L642 1129 L456 1129 Z " />
<glyph glyph-name="Hcircumflex" unicode="&#x124;" horiz-adv-x="1381" d="M1243 1365 L1243 0 L1003 0 L1003 614 L378 614 L378 0 L138 0 L138 1365 L378 1365 L378 819 L1003 819 L1003 1365 L1243 1365 Z M1005 1481 L822 1481 L690 1646 L559 1481 L376 1481 L581 1742 L800 1742 L1005 1481 Z " />
<glyph glyph-name="hcircumflex" unicode="&#x125;" horiz-adv-x="1098" d="M335 1365 L335 969 L332 849 Q450 1017 648 1017 Q857 1017 943 872 Q988 795 988 634 L988 0 L770 0 L770 601 Q770 719 739 764 Q690 834 577 834 Q424 834 364 704 Q346 665 340.5 621 Q335 577 335 474 L335 0 L116 0 L116 1365 L335 1365 Z M598 1481 L415 1481 L284 1646 L152 1481 L-31 1481 L174 1742 L393 1742 L598 1481 Z " />
<glyph glyph-name="Hbar" unicode="&#x126;" horiz-adv-x="1381" d="M1244 1181 L1366 1181 L1366 1010 L1244 1010 L1244 0 L1004 0 L1004 614 L380 614 L380 0 L140 0 L140 1010 L18 1010 L18 1181 L140 1181 L140 1365 L380 1365 L380 1181 L1004 1181 L1004 1365 L1244 1365 L1244 1181 Z M380 1010 L380 819 L1004 819 L1004 1010 L380 1010 Z " />
<glyph glyph-name="hbar" unicode="&#x127;" horiz-adv-x="1098" d="M346 0 L128 0 L128 1104 L5 1104 L5 1247 L128 1247 L128 1365 L346 1365 L346 1247 L656 1247 L656 1104 L346 1104 L346 969 Q346 954 343 849 Q405 937 480 977 Q555 1017 658 1017 Q869 1017 954 872 Q999 795 999 634 L999 0 L781 0 L781 601 Q781 719 750 764 Q701 834 587 834 Q435 834 375 704 Q357 665 351.5 620 Q346 575 346 474 L346 0 Z " />
<glyph glyph-name="Itilde" unicode="&#x128;" horiz-adv-x="532" d="M386 1365 L386 0 L146 0 L146 1365 L386 1365 Z M606 1729 Q564 1508 402 1508 Q356 1508 215 1556 Q151 1578 120 1578 Q58 1578 31 1496 L-74 1496 Q-55 1604 -1 1661 Q53 1718 138 1718 Q179 1718 210.5 1709 Q242 1700 344 1658 Q374 1646 407 1646 Q474 1646 498 1729 L606 1729 Z " />
<glyph glyph-name="itilde" unicode="&#x129;" horiz-adv-x="461" d="M338 990 L338 0 L120 0 L120 990 L338 990 Z M538 1390 Q525 1282 476.5 1222.5 Q428 1163 353 1163 Q301 1163 184 1213 Q128 1236 102 1236 Q44 1236 23 1152 L-80 1152 Q-68 1259 -16.5 1319.5 Q35 1380 113 1380 Q148 1380 177.5 1370.5 Q207 1361 309 1316 Q332 1306 357 1306 Q414 1306 433 1390 L538 1390 Z " />
<glyph glyph-name="Imacron" unicode="&#x12a;" horiz-adv-x="532" d="M386 1365 L386 0 L146 0 L146 1365 L386 1365 Z M522 1673 L522 1543 L3 1543 L3 1673 L522 1673 Z " />
<glyph glyph-name="imacron" unicode="&#x12b;" horiz-adv-x="461" d="M338 990 L338 0 L120 0 L120 990 L338 990 Z M466 1335 L466 1208 L-5 1208 L-5 1335 L466 1335 Z " />
<glyph glyph-name="Ibreve" unicode="&#x12c;" horiz-adv-x="532" d="M386 1365 L386 0 L146 0 L146 1365 L386 1365 Z M575 1742 Q539 1476 262 1476 Q89 1476 8 1588 Q-37 1651 -42 1742 L99 1742 Q129 1614 270 1614 Q340 1614 377.5 1643 Q415 1672 434 1742 L575 1742 Z " />
<glyph glyph-name="ibreve" unicode="&#x12d;" horiz-adv-x="461" d="M339 990 L339 0 L120 0 L120 990 L339 990 Z M509 1419 Q477 1130 225 1130 Q67 1130 -5 1251 Q-46 1320 -51 1419 L91 1419 Q115 1268 232 1268 Q287 1268 314 1296 Q350 1332 367 1419 L509 1419 Z " />
<glyph glyph-name="Iogonek" unicode="&#x12e;" horiz-adv-x="532" d="M368 0 Q257 -82 257 -165 Q257 -208 292.5 -234.5 Q328 -261 386 -261 Q415 -261 461 -247 L461 -355 Q396 -376 340 -376 Q233 -376 171 -323 Q115 -275 115 -199 Q115 -144 142.5 -100.5 Q170 -57 240 0 L146 0 L146 1365 L386 1365 L386 0 L368 0 Z " />
<glyph glyph-name="iogonek" unicode="&#x12f;" horiz-adv-x="461" d="M335 0 Q271 -50 247.5 -83 Q224 -116 224 -156 Q224 -200 259 -227 Q294 -254 352 -254 Q382 -254 427 -240 L428 -348 Q362 -369 307 -369 Q200 -369 138 -316 Q82 -268 82 -190 Q82 -139 106.5 -101.5 Q131 -64 203 -4 L207 0 L121 0 L121 990 L339 990 L339 0 L335 0 Z M339 1365 L339 1157 L121 1157 L121 1365 L339 1365 Z " />
<glyph glyph-name="Idot" unicode="&#x130;" horiz-adv-x="532" d="M386 1365 L386 0 L146 0 L146 1365 L386 1365 Z M376 1709 L376 1506 L157 1506 L157 1709 L376 1709 Z " />
<glyph glyph-name="IJ" unicode="&#x132;" horiz-adv-x="1511" d="M382 1365 L382 0 L142 0 L142 1365 L382 1365 Z M1391 1365 L1391 444 Q1391 323 1376.5 255 Q1362 187 1324 130 Q1216 -33 970 -33 Q686 -33 587 159 Q538 255 538 428 Q538 449 539 481 L765 481 L765 458 Q766 340 776 295 Q807 164 964 164 Q1075 164 1118 235 Q1151 290 1151 438 L1151 1365 L1391 1365 Z " />
<glyph glyph-name="ij" unicode="&#x133;" horiz-adv-x="943" d="M345 1365 L345 1157 L127 1157 L127 1365 L345 1365 Z M345 990 L345 0 L127 0 L127 990 L345 990 Z M814 990 L814 -13 Q814 -142 802.5 -197.5 Q791 -253 756 -296 Q689 -379 522 -379 Q482 -379 430 -373 L430 -195 Q461 -198 482 -198 Q563 -198 581 -163 Q596 -134 596 28 L596 990 L814 990 Z M814 1365 L814 1157 L596 1157 L596 1365 L814 1365 Z " />
<glyph glyph-name="Jcircumflex" unicode="&#x134;" horiz-adv-x="1027" d="M890 1365 L890 444 Q890 323 875.5 255 Q861 187 823 130 Q715 -33 469 -33 Q185 -33 86 159 Q37 255 37 428 Q37 449 38 481 L264 481 L264 458 Q265 340 275 295 Q306 164 463 164 Q569 164 609.5 223.5 Q650 283 650 438 L650 1365 L890 1365 Z M1075 1481 L892 1481 L760 1646 L629 1481 L446 1481 L651 1742 L870 1742 L1075 1481 Z " />
<glyph glyph-name="jcircumflex" unicode="&#x135;" horiz-adv-x="461" d="M340 990 L340 -13 Q340 -141 328.5 -197 Q317 -253 282 -296 Q215 -379 48 -379 Q8 -379 -44 -373 L-44 -195 Q-14 -198 8 -198 Q89 -198 107 -163 Q122 -133 122 28 L122 990 L340 990 Z M517 1130 L332 1130 L228 1304 L119 1130 L-52 1130 L133 1419 L331 1419 L517 1130 Z " />
<glyph glyph-name="Kcommaaccent" unicode="&#x136;" horiz-adv-x="1310" d="M1290 1365 L744 822 L1326 0 L1028 0 L580 653 L384 460 L384 0 L144 0 L144 1365 L384 1365 L384 734 Q425 785 484 846 L989 1365 L1290 1365 Z M778 -123 L778 -256 Q778 -467 592 -486 L592 -410 Q672 -392 683 -299 L592 -299 L592 -123 L778 -123 Z " />
<glyph glyph-name="kcommaaccent" unicode="&#x137;" horiz-adv-x="1027" d="M999 990 L619 627 L1034 0 L767 0 L467 479 L335 356 L335 0 L117 0 L117 1365 L335 1365 L335 735 Q335 712 334 586 Q382 643 401 662 L730 990 L999 990 Z M635 -109 L635 -242 Q635 -453 449 -472 L449 -396 Q529 -378 540 -285 L449 -285 L449 -109 L635 -109 Z " />
<glyph glyph-name="kgreenlandic" unicode="&#x138;" horiz-adv-x="1047" d="M1009 990 L629 627 L1044 0 L777 0 L477 479 L345 356 L345 0 L127 0 L127 990 L345 990 L345 735 Q345 712 344 586 Q392 643 411 662 L740 990 L1009 990 Z " />
<glyph glyph-name="Lacute" unicode="&#x139;" horiz-adv-x="1098" d="M1065 205 L1065 0 L128 0 L128 1365 L368 1365 L368 205 L1065 205 Z M577 1742 L319 1481 L162 1481 L321 1742 L577 1742 Z " />
<glyph glyph-name="lacute" unicode="&#x13a;" horiz-adv-x="461" d="M339 1365 L339 0 L121 0 L121 1365 L339 1365 Z M517 1748 L286 1460 L142 1460 L279 1748 L517 1748 Z " />
<glyph glyph-name="Lcommaaccent" unicode="&#x13b;" horiz-adv-x="1098" d="M1065 205 L1065 0 L128 0 L128 1365 L368 1365 L368 205 L1065 205 Z M692 -123 L692 -256 Q692 -467 506 -486 L506 -410 Q586 -392 597 -299 L506 -299 L506 -123 L692 -123 Z " />
<glyph glyph-name="lcommaaccent" unicode="&#x13c;" horiz-adv-x="461" d="M339 1365 L339 0 L121 0 L121 1365 L339 1365 Z M323 -109 L323 -242 Q323 -453 137 -472 L137 -396 Q217 -378 228 -285 L137 -285 L137 -109 L323 -109 Z " />
<glyph glyph-name="Lcaron" unicode="&#x13d;" horiz-adv-x="1098" d="M1065 205 L1065 0 L128 0 L128 1365 L368 1365 L368 205 L1065 205 Z M791 1365 L791 1232 Q791 1022 605 1002 L605 1078 Q688 1096 696 1189 L605 1189 L605 1365 L791 1365 Z " />
<glyph glyph-name="lcaron" unicode="&#x13e;" horiz-adv-x="643" d="M339 1365 L339 0 L121 0 L121 1365 L339 1365 Z M605 1365 L605 1232 Q605 1022 419 1002 L419 1078 Q502 1096 510 1189 L419 1189 L419 1365 L605 1365 Z " />
<glyph glyph-name="Ldot" unicode="&#x13f;" horiz-adv-x="1098" d="M1065 205 L1065 0 L128 0 L128 1365 L368 1365 L368 205 L1065 205 Z M904 856 L904 598 L638 598 L638 856 L904 856 Z " />
<glyph glyph-name="ldot" unicode="&#x140;" horiz-adv-x="735" d="M339 1365 L339 0 L121 0 L121 1365 L339 1365 Z M718 831 L718 573 L452 573 L452 831 L718 831 Z " />
<glyph glyph-name="Lslash" unicode="&#x141;" horiz-adv-x="1098" d="M127 703 L127 1365 L367 1365 L367 844 L627 1026 L627 835 L367 652 L367 209 L1064 209 L1064 0 L127 0 L127 512 L10 427 L10 618 L127 703 Z " />
<glyph glyph-name="lslash" unicode="&#x142;" horiz-adv-x="461" d="M121 740 L121 1365 L339 1365 L339 862 L449 942 L449 767 L339 688 L339 0 L121 0 L121 566 L12 486 L12 660 L121 740 Z " />
<glyph glyph-name="Nacute" unicode="&#x143;" horiz-adv-x="1381" d="M1246 1365 L1246 0 L999 0 L558 697 Q404 940 351 1054 Q363 898 363 635 L363 0 L135 0 L135 1365 L383 1365 L831 655 Q967 438 1030 310 Q1018 577 1018 739 L1018 1365 L1246 1365 Z M996 1742 L738 1481 L580 1481 L740 1742 L996 1742 Z " />
<glyph glyph-name="nacute" unicode="&#x144;" horiz-adv-x="1098" d="M321 990 L321 844 Q441 1018 651 1018 Q779 1018 869 952 Q935 904 960.5 834 Q986 764 986 631 L986 0 L768 0 L768 576 Q768 689 750 738 Q733 783 688 808 Q640 835 579 835 Q507 835 449.5 800.5 Q392 766 365 707 Q334 640 334 496 L334 0 L116 0 L116 990 L321 990 Z M820 1419 L590 1130 L446 1130 L582 1419 L820 1419 Z " />
<glyph glyph-name="Ncommaaccent" unicode="&#x145;" horiz-adv-x="1381" d="M1246 1365 L1246 0 L999 0 L558 697 Q404 940 351 1054 Q363 898 363 635 L363 0 L135 0 L135 1365 L383 1365 L831 655 Q967 438 1030 310 Q1018 577 1018 739 L1018 1365 L1246 1365 Z M798 -123 L798 -256 Q798 -467 612 -486 L612 -410 Q692 -392 703 -299 L612 -299 L612 -123 L798 -123 Z " />
<glyph glyph-name="ncommaaccent" unicode="&#x146;" horiz-adv-x="1098" d="M321 990 L321 844 Q441 1018 651 1018 Q779 1018 869 952 Q935 904 960.5 834 Q986 764 986 631 L986 0 L768 0 L768 576 Q768 689 750 738 Q733 783 688 808 Q640 835 579 835 Q507 835 449.5 800.5 Q392 766 365 707 Q334 640 334 496 L334 0 L116 0 L116 990 L321 990 Z M644 -109 L644 -242 Q644 -453 458 -472 L458 -396 Q538 -378 549 -285 L458 -285 L458 -109 L644 -109 Z " />
<glyph glyph-name="Ncaron" unicode="&#x147;" horiz-adv-x="1381" d="M1246 1365 L1246 0 L999 0 L558 697 Q404 940 351 1054 Q363 898 363 635 L363 0 L135 0 L135 1365 L383 1365 L831 655 Q967 438 1030 310 Q1018 577 1018 739 L1018 1365 L1246 1365 Z M387 1742 L571 1742 L702 1577 L834 1742 L1017 1742 L812 1481 L593 1481 L387 1742 Z " />
<glyph glyph-name="ncaron" unicode="&#x148;" horiz-adv-x="1098" d="M321 990 L321 844 Q441 1018 651 1018 Q779 1018 869 952 Q935 904 960.5 834 Q986 764 986 631 L986 0 L768 0 L768 576 Q768 689 750 738 Q733 783 688 808 Q640 835 579 835 Q507 835 449.5 800.5 Q392 766 365 707 Q334 640 334 496 L334 0 L116 0 L116 990 L321 990 Z M266 1419 L451 1419 L556 1245 L664 1419 L836 1419 L651 1130 L452 1130 L266 1419 Z " />
<glyph glyph-name="napostrophe" unicode="&#x149;" horiz-adv-x="1357" d="M583 990 L583 844 Q703 1018 913 1018 Q1041 1018 1130 952 Q1197 904 1222.5 834 Q1248 764 1248 631 L1248 0 L1030 0 L1030 576 Q1030 689 1012 738 Q995 783 950 808 Q902 835 840 835 Q768 835 711 801 Q654 767 627 707 Q596 640 596 496 L596 0 L378 0 L378 990 L583 990 Z M306 1365 L306 1232 Q306 1022 120 1002 L120 1078 Q203 1096 211 1189 L120 1189 L120 1365 L306 1365 Z " />
<glyph glyph-name="Eng" unicode="&#x14a;" horiz-adv-x="1389" d="M382 1365 L382 1179 Q441 1257 493 1296 Q629 1398 818 1398 Q984 1398 1098 1315 Q1181 1255 1214 1166 Q1247 1077 1247 909 L1247 -13 Q1247 -142 1234.5 -198 Q1222 -254 1184 -296 Q1109 -379 933 -379 Q893 -379 841 -373 L841 -195 Q872 -198 893 -198 Q973 -198 992 -163 Q1007 -134 1007 28 L1007 839 Q1007 997 981 1063 Q955 1127 890 1161 Q820 1198 731 1198 Q577 1198 483 1105 Q427 1049 404.5 968 Q382 887 382 737 L382 0 L142 0 L142 1365 L382 1365 Z " />
<glyph glyph-name="eng" unicode="&#x14b;" horiz-adv-x="1120" d="M332 990 L332 844 Q452 1018 662 1018 Q790 1018 880 953 Q946 904 971.5 834 Q997 764 997 631 L997 -13 Q997 -142 985.5 -197.5 Q974 -253 939 -296 Q872 -379 705 -379 Q665 -379 613 -373 L613 -195 Q644 -198 665 -198 Q745 -198 764 -163 Q779 -134 779 28 L779 576 Q779 689 761 738 Q744 783 699 808 Q651 835 589 835 Q517 835 460 800.5 Q403 766 376 707 Q345 640 345 496 L345 0 L127 0 L127 990 L332 990 Z " />
<glyph glyph-name="Omacron" unicode="&#x14c;" horiz-adv-x="1453" d="M738 1398 Q1008 1398 1190 1210 Q1382 1011 1382 683 Q1382 397 1235 206 Q1050 -33 727 -33 Q402 -33 215 210 Q71 398 71 681 Q71 1015 258 1205 Q448 1398 738 1398 Z M733 1196 Q544 1196 428 1061 Q311 925 311 685 Q311 453 416 317 Q470 248 553.5 208.5 Q637 169 730 169 Q905 169 1014 289 Q1142 431 1142 685 Q1142 918 1028 1057 Q916 1196 733 1196 Z M1061 1673 L1061 1543 L392 1543 L392 1673 L1061 1673 Z " />
<glyph glyph-name="omacron" unicode="&#x14d;" horiz-adv-x="1134" d="M575 1017 Q797 1017 934 872 Q1066 733 1066 495 Q1066 242 917 100 Q784 -27 568 -27 Q330 -27 195 124 Q67 268 67 494 Q67 716 187 855 Q328 1017 575 1017 Z M571 842 Q444 842 369 755 Q288 663 288 494 Q288 324 367 234 Q443 148 570 148 Q686 148 757 224 Q845 317 845 497 Q845 663 768 753 Q693 842 571 842 Z M870 1335 L870 1208 L263 1208 L263 1335 L870 1335 Z " />
<glyph glyph-name="Obreve" unicode="&#x14e;" horiz-adv-x="1453" d="M738 1398 Q1008 1398 1190 1210 Q1382 1011 1382 683 Q1382 397 1235 206 Q1050 -33 727 -33 Q402 -33 215 210 Q71 398 71 681 Q71 1015 258 1205 Q448 1398 738 1398 Z M733 1196 Q544 1196 428 1061 Q311 925 311 685 Q311 453 416 317 Q470 248 553.5 208.5 Q637 169 730 169 Q905 169 1014 289 Q1142 431 1142 685 Q1142 918 1028 1057 Q916 1196 733 1196 Z M1035 1742 Q999 1476 722 1476 Q549 1476 468 1588 Q423 1651 418 1742 L560 1742 Q589 1614 730 1614 Q800 1614 837 1643 Q874 1672 894 1742 L1035 1742 Z " />
<glyph glyph-name="obreve" unicode="&#x14f;" horiz-adv-x="1134" d="M575 1017 Q797 1017 934 872 Q1066 733 1066 495 Q1066 242 917 100 Q784 -27 568 -27 Q330 -27 195 124 Q67 268 67 494 Q67 716 187 855 Q328 1017 575 1017 Z M571 842 Q444 842 369 755 Q288 663 288 494 Q288 324 367 234 Q443 148 570 148 Q686 148 757 224 Q845 317 845 497 Q845 663 768 753 Q693 842 571 842 Z M847 1419 Q815 1130 563 1130 Q404 1130 332 1251 Q292 1320 287 1419 L429 1419 Q452 1268 570 1268 Q624 1268 652 1296 Q688 1332 705 1419 L847 1419 Z " />
<glyph glyph-name="Ohungarumlaut" unicode="&#x150;" horiz-adv-x="1453" d="M738 1398 Q1008 1398 1190 1210 Q1382 1011 1382 683 Q1382 397 1235 206 Q1050 -33 727 -33 Q402 -33 215 210 Q71 398 71 681 Q71 1015 258 1205 Q448 1398 738 1398 Z M733 1196 Q544 1196 428 1061 Q311 925 311 685 Q311 453 416 317 Q470 248 553.5 208.5 Q637 169 730 169 Q905 169 1014 289 Q1142 431 1142 685 Q1142 918 1028 1057 Q916 1196 733 1196 Z M1128 1742 L952 1481 L805 1481 L914 1742 L1128 1742 Z M793 1742 L617 1481 L471 1481 L580 1742 L793 1742 Z " />
<glyph glyph-name="ohungarumlaut" unicode="&#x151;" horiz-adv-x="1134" d="M575 1017 Q797 1017 934 872 Q1066 733 1066 495 Q1066 242 917 100 Q784 -27 568 -27 Q330 -27 195 124 Q67 268 67 494 Q67 716 187 855 Q328 1017 575 1017 Z M571 842 Q444 842 369 755 Q288 663 288 494 Q288 324 367 234 Q443 148 570 148 Q686 148 757 224 Q845 317 845 497 Q845 663 768 753 Q693 842 571 842 Z M919 1419 L764 1131 L640 1131 L722 1419 L919 1419 Z M619 1419 L463 1131 L340 1131 L422 1419 L619 1419 Z " />
<glyph glyph-name="Racute" unicode="&#x154;" horiz-adv-x="1346" d="M912 1742 L654 1481 L497 1481 L656 1742 L912 1742 Z M145 1365 L792 1365 Q979 1365 1080 1305 Q1252 1202 1252 986 Q1252 862 1193.5 775 Q1135 688 1026 650 Q1121 630 1173 552 Q1204 505 1214 454.5 Q1224 404 1241 214 Q1255 56 1288 18 L1303 0 L1044 0 Q1026 30 1019 73 Q1012 116 1002 275 Q992 443 929 503.5 Q866 564 702 564 L385 564 L385 0 L145 0 L145 1365 Z M385 1167 L385 741 L700 741 Q862 741 926 782 Q1012 837 1012 959 Q1012 1098 898 1144 Q842 1167 731 1167 L385 1167 Z " />
<glyph glyph-name="racute" unicode="&#x155;" horiz-adv-x="673" d="M692 1011 L692 800 Q644 806 615 806 Q497 806 421 732 Q368 681 349 611 Q330 541 330 397 L330 0 L112 0 L112 990 L317 990 L317 793 Q424 1012 652 1012 Q665 1012 692 1011 Z M663 1419 L433 1130 L289 1130 L425 1419 L663 1419 Z " />
<glyph glyph-name="Rcommaaccent" unicode="&#x156;" horiz-adv-x="1346" d="M795 -123 L795 -256 Q795 -467 609 -486 L609 -410 Q689 -392 700 -299 L609 -299 L609 -123 L795 -123 Z M145 1365 L792 1365 Q979 1365 1080 1305 Q1252 1202 1252 986 Q1252 862 1193.5 775 Q1135 688 1026 650 Q1121 630 1173 552 Q1204 505 1214 454.5 Q1224 404 1241 214 Q1255 56 1288 18 L1303 0 L1044 0 Q1026 30 1019 73 Q1012 116 1002 275 Q992 443 929 503.5 Q866 564 702 564 L385 564 L385 0 L145 0 L145 1365 Z M385 1167 L385 741 L700 741 Q862 741 926 782 Q1012 837 1012 959 Q1012 1098 898 1144 Q842 1167 731 1167 L385 1167 Z " />
<glyph glyph-name="rcommaaccent" unicode="&#x157;" horiz-adv-x="673" d="M692 1011 L692 800 Q644 806 615 806 Q497 806 421 732 Q368 681 349 611 Q330 541 330 397 L330 0 L112 0 L112 990 L317 990 L317 793 Q424 1012 652 1012 Q665 1012 692 1011 Z M321 -109 L321 -242 Q321 -453 135 -472 L135 -396 Q215 -378 226 -285 L135 -285 L135 -109 L321 -109 Z " />
<glyph glyph-name="Rcaron" unicode="&#x158;" horiz-adv-x="1346" d="M330 1742 L513 1742 L645 1577 L776 1742 L959 1742 L754 1481 L535 1481 L330 1742 Z M145 1365 L792 1365 Q979 1365 1080 1305 Q1252 1202 1252 986 Q1252 862 1193.5 775 Q1135 688 1026 650 Q1121 630 1173 552 Q1204 505 1214 454.5 Q1224 404 1241 214 Q1255 56 1288 18 L1303 0 L1044 0 Q1026 30 1019 73 Q1012 116 1002 275 Q992 443 929 503.5 Q866 564 702 564 L385 564 L385 0 L145 0 L145 1365 Z M385 1167 L385 741 L700 741 Q862 741 926 782 Q1012 837 1012 959 Q1012 1098 898 1144 Q842 1167 731 1167 L385 1167 Z " />
<glyph glyph-name="rcaron" unicode="&#x159;" horiz-adv-x="673" d="M692 1011 L692 800 Q644 806 615 806 Q497 806 421 732 Q368 681 349 611 Q330 541 330 397 L330 0 L112 0 L112 990 L317 990 L317 793 Q423 1012 652 1012 Q665 1012 692 1011 Z M98 1419 L283 1419 L387 1245 L496 1419 L667 1419 L482 1130 L284 1130 L98 1419 Z " />
<glyph glyph-name="Sacute" unicode="&#x15a;" horiz-adv-x="1239" d="M912 1742 L655 1481 L497 1481 L657 1742 L912 1742 Z M1135 964 L907 964 Q881 1206 611 1206 Q488 1206 418.5 1155 Q349 1104 349 1014 Q349 930 413 894 Q473 859 696 807 Q933 752 1024 693 Q1189 586 1189 398 Q1189 200 1043 85 Q897 -30 646 -30 Q376 -30 225 97.5 Q74 225 71 455 L307 455 Q311 332 370 266 Q464 160 660 160 Q800 160 875 217 Q954 277 954 377 Q954 430 928.5 465.5 Q903 501 844 531 Q796 555 635 595 Q351 665 262 722 Q120 814 120 996 Q120 1178 258 1286.5 Q396 1395 627 1395 Q862 1395 995 1282.5 Q1128 1170 1135 964 Z " />
<glyph glyph-name="sacute" unicode="&#x15b;" horiz-adv-x="992" d="M738 1419 L508 1130 L364 1130 L500 1419 L738 1419 Z M899 702 L690 702 Q682 761 658 791 Q606 856 477 856 Q393 856 346 825.5 Q299 795 299 741 Q299 685 344.5 659.5 Q390 634 551 599 Q752 557 837 497 Q935 429 935 297 Q935 148 818.5 60.5 Q702 -27 503 -27 Q293 -27 180.5 60 Q68 147 59 317 L269 317 Q277 243 309 205 Q370 134 506 134 Q603 134 661 173 Q719 212 719 276 Q719 333 672.5 362 Q626 391 484 424 Q340 458 292 472.5 Q244 487 200 512 Q82 578 82 722 Q82 878 217 958 Q318 1017 486 1017 Q723 1017 829 895 Q889 827 899 702 Z " />
<glyph glyph-name="Scircumflex" unicode="&#x15c;" horiz-adv-x="1239" d="M928 1481 L744 1481 L613 1646 L482 1481 L298 1481 L504 1742 L722 1742 L928 1481 Z M1135 964 L907 964 Q881 1206 611 1206 Q488 1206 418.5 1155 Q349 1104 349 1014 Q349 930 413 894 Q473 859 696 807 Q933 752 1024 693 Q1189 586 1189 398 Q1189 200 1043 85 Q897 -30 646 -30 Q376 -30 225 97.5 Q74 225 71 455 L307 455 Q311 332 370 266 Q464 160 660 160 Q800 160 875 217 Q954 277 954 377 Q954 430 928.5 465.5 Q903 501 844 531 Q796 555 635 595 Q351 665 262 722 Q120 814 120 996 Q120 1178 258 1286.5 Q396 1395 627 1395 Q862 1395 995 1282.5 Q1128 1170 1135 964 Z " />
<glyph glyph-name="scircumflex" unicode="&#x15d;" horiz-adv-x="992" d="M782 1130 L597 1130 L492 1304 L383 1130 L212 1130 L397 1419 L596 1419 L782 1130 Z M899 702 L690 702 Q682 761 658 791 Q606 856 477 856 Q393 856 346 825.5 Q299 795 299 741 Q299 685 344.5 659.5 Q390 634 551 599 Q752 557 837 497 Q935 429 935 297 Q935 148 818.5 60.5 Q702 -27 503 -27 Q293 -27 180.5 60 Q68 147 59 317 L269 317 Q277 243 309 205 Q370 134 506 134 Q603 134 661 173 Q719 212 719 276 Q719 333 672.5 362 Q626 391 484 424 Q340 458 292 472.5 Q244 487 200 512 Q82 578 82 722 Q82 878 217 958 Q318 1017 486 1017 Q723 1017 829 895 Q889 827 899 702 Z " />
<glyph glyph-name="Scedilla" unicode="&#x15e;" horiz-adv-x="1239" d="M577 -28 Q334 -7 204 117.5 Q74 242 71 455 L307 455 Q311 332 370 266 Q464 160 660 160 Q800 160 875 217 Q954 277 954 376 Q954 430 928.5 465.5 Q903 501 844 531 Q796 555 635 595 Q351 665 262 722 Q120 814 120 996 Q120 1178 258 1286.5 Q396 1395 627 1395 Q862 1395 995 1282.5 Q1128 1170 1135 964 L907 964 Q881 1206 611 1206 Q488 1206 418.5 1155 Q349 1104 349 1014 Q349 930 413 894 Q473 859 696 807 Q932 752 1024 693 Q1189 587 1189 398 Q1189 283 1133.5 189.5 Q1078 96 976 40 Q856 -26 663 -30 L603 -118 Q647 -108 674 -108 Q742 -108 787.5 -146.5 Q833 -185 833 -242 Q833 -321 770.5 -369.5 Q708 -418 606 -418 Q520 -418 408 -378 L443 -301 Q513 -332 583 -332 Q625 -332 652.5 -310 Q680 -288 680 -254 Q680 -224 653.5 -204 Q627 -184 586 -184 Q558 -184 516 -199 L482 -162 L577 -28 Z " />
<glyph glyph-name="scedilla" unicode="&#x15f;" horiz-adv-x="992" d="M464 -26 Q268 -13 168 71.5 Q68 156 59 317 L269 317 Q277 243 309 205 Q370 134 506 134 Q603 134 661 173 Q719 212 719 276 Q719 333 672.5 362 Q626 391 484 424 Q338 458 291 472.5 Q244 487 200 512 Q82 578 82 722 Q82 878 217 958 Q318 1017 486 1017 Q723 1017 829 895 Q889 827 899 702 L690 702 Q682 761 658 791 Q606 856 477 856 Q393 856 346 825.5 Q299 795 299 741 Q299 685 345 659 Q391 633 551 599 Q752 557 837 497 Q935 429 935 297 Q935 157 833 71.5 Q731 -14 552 -26 L489 -118 Q533 -108 562 -108 Q626 -108 670 -146 Q714 -184 714 -240 Q714 -320 654 -367 Q594 -414 491 -414 Q406 -414 294 -374 L329 -297 Q399 -328 469 -328 Q510 -328 537.5 -306.5 Q565 -285 565 -253 Q565 -223 538.5 -203.5 Q512 -184 472 -184 Q444 -184 403 -199 L368 -162 L464 -26 Z " />
<glyph glyph-name="Scaron" unicode="&#x160;" horiz-adv-x="1239" d="M304 1742 L487 1742 L619 1577 L750 1742 L933 1742 L728 1481 L509 1481 L304 1742 Z M1135 964 L907 964 Q881 1206 611 1206 Q488 1206 418.5 1155 Q349 1104 349 1014 Q349 930 413 894 Q473 859 696 807 Q933 752 1024 693 Q1189 586 1189 398 Q1189 200 1043 85 Q897 -30 646 -30 Q376 -30 225 97.5 Q74 225 71 455 L307 455 Q311 332 370 266 Q464 160 660 160 Q800 160 875 217 Q954 277 954 377 Q954 430 928.5 465.5 Q903 501 844 531 Q796 555 635 595 Q351 665 262 722 Q120 814 120 996 Q120 1178 258 1286.5 Q396 1395 627 1395 Q862 1395 995 1282.5 Q1128 1170 1135 964 Z " />
<glyph glyph-name="scaron" unicode="&#x161;" horiz-adv-x="992" d="M204 1419 L389 1419 L493 1245 L602 1419 L773 1419 L588 1130 L390 1130 L204 1419 Z M899 702 L690 702 Q682 761 658 791 Q606 856 477 856 Q393 856 346 825.5 Q299 795 299 741 Q299 685 344.5 659.5 Q390 634 551 599 Q752 557 837 497 Q935 429 935 297 Q935 148 818.5 60.5 Q702 -27 503 -27 Q293 -27 180.5 60 Q68 147 59 317 L269 317 Q277 243 309 205 Q370 134 506 134 Q603 134 661 173 Q719 212 719 276 Q719 333 672.5 362 Q626 391 484 424 Q340 458 292 472.5 Q244 487 200 512 Q82 578 82 722 Q82 878 217 958 Q318 1017 486 1017 Q723 1017 829 895 Q889 827 899 702 Z " />
<glyph glyph-name="Tcommaaccent" unicode="&#x162;" horiz-adv-x="1134" d="M1121 1365 L1121 1160 L686 1160 L686 0 L446 0 L446 1160 L10 1160 L10 1365 L1121 1365 Z M659 -123 L659 -256 Q659 -467 473 -486 L473 -410 Q553 -392 564 -299 L473 -299 L473 -123 L659 -123 Z " />
<glyph glyph-name="tcommaaccent" unicode="&#x163;" horiz-adv-x="637" d="M579 990 L579 830 L379 830 L379 309 Q379 220 394 196 Q417 163 496 163 Q535 163 579 170 L579 -2 Q495 -11 430 -11 Q250 -11 194 78 Q173 113 167 163 Q161 213 161 359 L161 830 L-4 830 L-4 990 L161 990 L161 1286 L379 1286 L379 990 L579 990 Z M366 -109 L366 -242 Q366 -453 180 -472 L180 -396 Q260 -378 271 -285 L180 -285 L180 -109 L366 -109 Z " />
<glyph glyph-name="Tcaron" unicode="&#x164;" horiz-adv-x="1134" d="M1121 1365 L1121 1160 L686 1160 L686 0 L446 0 L446 1160 L10 1160 L10 1365 L1121 1365 Z M251 1742 L434 1742 L566 1577 L697 1742 L880 1742 L675 1481 L456 1481 L251 1742 Z " />
<glyph glyph-name="tcaron" unicode="&#x165;" horiz-adv-x="702" d="M579 990 L579 830 L379 830 L379 309 Q379 220 394 196 Q417 163 496 163 Q535 163 579 170 L579 -2 Q495 -11 430 -11 Q250 -11 194 78 Q173 113 167 163 Q161 213 161 359 L161 830 L-4 830 L-4 990 L161 990 L161 1286 L379 1286 L379 990 L579 990 Z M674 1464 L674 1331 Q674 1121 488 1101 L488 1177 Q571 1195 579 1288 L488 1288 L488 1464 L674 1464 Z " />
<glyph glyph-name="Tbar" unicode="&#x166;" horiz-adv-x="1134" d="M686 853 L1000 853 L1000 682 L686 682 L686 0 L446 0 L446 682 L131 682 L131 853 L446 853 L446 1160 L10 1160 L10 1365 L1121 1365 L1121 1160 L686 1160 L686 853 Z " />
<glyph glyph-name="tbar" unicode="&#x167;" horiz-adv-x="637" d="M575 990 L575 830 L375 830 L375 657 L555 657 L555 514 L375 514 L375 309 Q375 220 390 197 Q413 164 492 164 Q533 164 575 171 L575 -2 Q493 -11 427 -11 Q331 -11 275.5 10 Q220 31 190 78 Q169 113 163 163 Q157 213 157 360 L157 514 L12 514 L12 657 L157 657 L157 830 L-8 830 L-8 990 L157 990 L157 1286 L375 1286 L375 990 L575 990 Z " />
<glyph glyph-name="Utilde" unicode="&#x168;" horiz-adv-x="1381" d="M1250 1365 L1250 565 Q1250 387 1223 299 Q1120 -33 693 -33 Q352 -33 212 177 Q165 247 146.5 334 Q128 421 128 569 L128 1365 L368 1365 L368 556 Q368 449 377.5 394 Q387 339 414 292 Q487 166 697 166 Q895 166 963 283 Q1010 365 1010 557 L1010 1365 L1250 1365 Z M1026 1729 Q984 1508 823 1508 Q777 1508 635 1556 Q572 1578 540 1578 Q477 1578 452 1496 L347 1496 Q365 1604 419.5 1661 Q474 1718 558 1718 Q600 1718 631.5 1709 Q663 1700 765 1658 Q795 1646 828 1646 Q894 1646 919 1729 L1026 1729 Z " />
<glyph glyph-name="utilde" unicode="&#x169;" horiz-adv-x="1098" d="M979 990 L979 0 L774 0 L774 147 Q656 -27 446 -27 Q269 -27 176 86 Q109 168 109 355 L109 990 L327 990 L327 425 Q327 275 356 229 Q402 156 516 156 Q661 156 728 283 Q761 345 761 505 L761 990 L979 990 Z M853 1390 Q839 1281 790.5 1222 Q742 1163 668 1163 Q616 1163 498 1213 Q443 1236 417 1236 Q359 1236 338 1152 L235 1152 Q247 1259 298.5 1319.5 Q350 1380 428 1380 Q463 1380 492 1370.5 Q521 1361 623 1316 Q647 1306 672 1306 Q729 1306 748 1390 L853 1390 Z " />
<glyph glyph-name="Umacron" unicode="&#x16a;" horiz-adv-x="1381" d="M1250 1365 L1250 565 Q1250 387 1223 299 Q1120 -33 693 -33 Q352 -33 212 177 Q165 247 146.5 334 Q128 421 128 569 L128 1365 L368 1365 L368 556 Q368 449 377.5 394 Q387 339 414 292 Q487 166 697 166 Q895 166 963 283 Q1010 365 1010 557 L1010 1365 L1250 1365 Z M1024 1673 L1024 1543 L355 1543 L355 1673 L1024 1673 Z " />
<glyph glyph-name="umacron" unicode="&#x16b;" horiz-adv-x="1098" d="M979 990 L979 0 L774 0 L774 147 Q656 -27 446 -27 Q269 -27 176 86 Q109 168 109 355 L109 990 L327 990 L327 425 Q327 275 356 229 Q402 156 516 156 Q661 156 728 283 Q761 345 761 505 L761 990 L979 990 Z M848 1335 L848 1208 L240 1208 L240 1335 L848 1335 Z " />
<glyph glyph-name="Ubreve" unicode="&#x16c;" horiz-adv-x="1381" d="M1250 1365 L1250 565 Q1250 387 1223 299 Q1120 -33 693 -33 Q352 -33 212 177 Q165 247 146.5 334 Q128 421 128 569 L128 1365 L368 1365 L368 556 Q368 449 377.5 394 Q387 339 414 292 Q487 166 697 166 Q895 166 963 283 Q1010 365 1010 557 L1010 1365 L1250 1365 Z M998 1742 Q962 1476 685 1476 Q512 1476 431 1588 Q385 1651 381 1742 L522 1742 Q552 1614 693 1614 Q763 1614 800 1643 Q837 1672 857 1742 L998 1742 Z " />
<glyph glyph-name="ubreve" unicode="&#x16d;" horiz-adv-x="1098" d="M979 990 L979 0 L774 0 L774 147 Q656 -27 446 -27 Q269 -27 176 86 Q109 168 109 355 L109 990 L327 990 L327 425 Q327 275 356 229 Q402 156 516 156 Q661 156 728 283 Q761 345 761 505 L761 990 L979 990 Z M824 1419 Q792 1130 539 1130 Q382 1130 310 1251 Q269 1320 264 1419 L406 1419 Q430 1268 547 1268 Q601 1268 629 1296 Q665 1332 682 1419 L824 1419 Z " />
<glyph glyph-name="Uring" unicode="&#x16e;" horiz-adv-x="1381" d="M1250 1365 L1250 565 Q1250 387 1223 299 Q1120 -33 693 -33 Q352 -33 212 177 Q165 247 146.5 334 Q128 421 128 569 L128 1365 L368 1365 L368 556 Q368 449 377.5 394 Q387 339 414 292 Q487 166 697 166 Q895 166 963 283 Q1010 365 1010 557 L1010 1365 L1250 1365 Z M693 1871 Q783 1871 847 1801 Q901 1740 901 1659 Q901 1565 831 1502 Q770 1447 690 1447 Q595 1447 532 1517 Q478 1578 478 1661 Q478 1752 548 1816 Q608 1871 693 1871 Z M691 1763 Q647 1763 616.5 1733 Q586 1703 586 1660 Q586 1616 616 1585.5 Q646 1555 690 1555 Q732 1555 762.5 1585.5 Q793 1616 793 1659 Q793 1701 763 1732 Q733 1763 691 1763 Z " />
<glyph glyph-name="uring" unicode="&#x16f;" horiz-adv-x="1098" d="M979 990 L979 0 L774 0 L774 147 Q656 -27 446 -27 Q269 -27 176 86 Q109 168 109 355 L109 990 L327 990 L327 425 Q327 275 356 229 Q402 156 516 156 Q661 156 728 283 Q761 345 761 505 L761 990 L979 990 Z M550 1502 Q638 1502 699 1434 Q752 1376 752 1297 Q752 1206 684 1145 Q626 1092 547 1092 Q456 1092 395 1160 Q342 1218 342 1299 Q342 1387 410 1449 Q468 1502 550 1502 Z M549 1398 Q506 1398 476 1368.5 Q446 1339 446 1298 Q446 1256 475.5 1226 Q505 1196 547 1196 Q589 1196 618.5 1225.5 Q648 1255 648 1297 Q648 1338 618.5 1368 Q589 1398 549 1398 Z " />
<glyph glyph-name="Uhungarumlaut" unicode="&#x170;" horiz-adv-x="1381" d="M1250 1365 L1250 565 Q1250 387 1223 299 Q1120 -33 693 -33 Q352 -33 212 177 Q165 247 146.5 334 Q128 421 128 569 L128 1365 L368 1365 L368 556 Q368 449 377.5 394 Q387 339 414 292 Q487 166 697 166 Q895 166 963 283 Q1010 365 1010 557 L1010 1365 L1250 1365 Z M1088 1742 L912 1481 L765 1481 L874 1742 L1088 1742 Z M753 1742 L577 1481 L431 1481 L540 1742 L753 1742 Z " />
<glyph glyph-name="uhungarumlaut" unicode="&#x171;" horiz-adv-x="1098" d="M979 990 L979 0 L774 0 L774 147 Q656 -27 446 -27 Q269 -27 176 86 Q109 168 109 355 L109 990 L327 990 L327 425 Q327 275 356 229 Q402 156 516 156 Q661 156 728 283 Q761 345 761 505 L761 990 L979 990 Z M896 1419 L741 1131 L617 1131 L699 1419 L896 1419 Z M596 1419 L441 1131 L317 1131 L399 1419 L596 1419 Z " />
<glyph glyph-name="Uogonek" unicode="&#x172;" horiz-adv-x="1381" d="M890 -12 Q794 -86 794 -165 Q794 -208 829.5 -234.5 Q865 -261 923 -261 Q952 -261 998 -247 L999 -355 Q933 -376 878 -376 Q770 -376 708 -323 Q652 -275 652 -198 Q652 -110 739 -32 Q707 -33 690 -33 Q352 -33 212 177 Q165 247 146.5 334 Q128 421 128 569 L128 1365 L368 1365 L368 556 Q368 449 377.5 394 Q387 339 414 292 Q487 166 697 166 Q895 166 963 283 Q1010 365 1010 557 L1010 1365 L1250 1365 L1250 565 Q1268 91 890 -12 Z " />
<glyph glyph-name="uogonek" unicode="&#x173;" horiz-adv-x="1098" d="M964 0 Q851 -86 851 -156 Q851 -200 886 -227 Q921 -254 980 -254 Q1011 -254 1056 -240 L1056 -348 Q990 -369 935 -369 Q827 -369 766 -316 Q710 -268 710 -190 Q710 -138 736.5 -98.5 Q763 -59 835 0 L774 0 L774 147 Q656 -27 446 -27 Q269 -27 176 86 Q109 168 109 355 L109 990 L327 990 L327 425 Q327 275 356 229 Q402 156 516 156 Q661 156 728 283 Q761 345 761 505 L761 990 L979 990 L979 0 L964 0 Z " />
<glyph glyph-name="Wcircumflex" unicode="&#x174;" horiz-adv-x="1805" d="M1795 1365 L1425 0 L1178 0 L987 710 Q965 792 901 1103 Q859 896 813 719 L624 0 L373 0 L11 1365 L257 1365 L427 660 Q470 479 506 254 Q547 491 593 661 L783 1365 L1026 1365 L1216 658 Q1248 538 1299 254 Q1339 490 1381 662 L1554 1365 L1795 1365 Z M1218 1481 L1034 1481 L903 1646 L771 1481 L588 1481 L794 1742 L1012 1742 L1218 1481 Z " />
<glyph glyph-name="wcircumflex" unicode="&#x175;" horiz-adv-x="1488" d="M1467 990 L1156 0 L932 0 L802 486 Q774 592 743 755 Q705 570 684 488 L560 0 L334 0 L21 990 L254 990 L369 572 Q407 433 455 224 Q501 455 533 582 L635 990 L854 990 L977 523 Q1003 424 1042 230 Q1085 433 1109 520 L1244 990 L1467 990 Z M1029 1130 L844 1130 L739 1304 L630 1130 L459 1130 L644 1419 L843 1419 L1029 1130 Z " />
<glyph glyph-name="Ycircumflex" unicode="&#x176;" horiz-adv-x="1239" d="M1252 1365 L741 542 L741 0 L501 0 L501 544 L-13 1365 L263 1365 L528 928 Q579 844 626 743 Q682 863 724 933 L985 1365 L1252 1365 Z M935 1481 L751 1481 L620 1646 L488 1481 L305 1481 L511 1742 L729 1742 L935 1481 Z " />
<glyph glyph-name="ycircumflex" unicode="&#x177;" horiz-adv-x="992" d="M987 990 L620 19 Q565 -127 539 -182.5 Q513 -238 481 -278 Q400 -378 252 -378 Q198 -378 102 -367 L102 -183 Q180 -195 214 -195 Q291 -195 327 -122 Q373 -28 383 32 L5 990 L245 990 L438 457 Q464 385 507 228 Q552 387 581 471 L759 990 L987 990 Z M780 1130 L595 1130 L491 1304 L382 1130 L211 1130 L396 1419 L594 1419 L780 1130 Z " />
<glyph glyph-name="Zacute" unicode="&#x179;" horiz-adv-x="1205" d="M1143 1365 L1143 1176 L450 332 L332 201 Q436 205 594 205 L1165 205 L1165 0 L43 0 L43 198 L750 1057 Q767 1078 850 1164 Q734 1160 605 1160 L102 1160 L102 1365 L1143 1365 Z M912 1742 L654 1481 L497 1481 L656 1742 L912 1742 Z " />
<glyph glyph-name="zacute" unicode="&#x17a;" horiz-adv-x="956" d="M899 990 L899 837 L429 279 Q412 258 327 172 Q434 175 458 175 L929 175 L929 0 L55 0 L55 167 L512 708 Q556 760 625 817 Q560 815 526 815 L93 815 L93 990 L899 990 Z M742 1419 L511 1130 L367 1130 L504 1419 L742 1419 Z " />
<glyph glyph-name="Zdotaccent" unicode="&#x17b;" horiz-adv-x="1205" d="M1143 1365 L1143 1176 L450 332 L332 201 Q436 205 594 205 L1165 205 L1165 0 L43 0 L43 198 L750 1057 Q767 1078 850 1164 Q734 1160 605 1160 L102 1160 L102 1365 L1143 1365 Z M731 1709 L731 1506 L512 1506 L512 1709 L731 1709 Z " />
<glyph glyph-name="zdotaccent" unicode="&#x17c;" horiz-adv-x="956" d="M899 990 L899 837 L429 279 Q412 258 327 172 Q434 175 458 175 L929 175 L929 0 L55 0 L55 167 L512 708 Q556 760 625 817 Q560 815 526 815 L93 815 L93 990 L899 990 Z M598 1379 L598 1170 L386 1170 L386 1379 L598 1379 Z " />
<glyph glyph-name="Zcaron" unicode="&#x17d;" horiz-adv-x="1205" d="M1143 1365 L1143 1176 L450 332 L332 201 Q436 205 594 205 L1165 205 L1165 0 L43 0 L43 198 L750 1057 Q767 1078 850 1164 Q734 1160 605 1160 L102 1160 L102 1365 L1143 1365 Z M309 1742 L493 1742 L624 1577 L755 1742 L939 1742 L733 1481 L515 1481 L309 1742 Z " />
<glyph glyph-name="zcaron" unicode="&#x17e;" horiz-adv-x="956" d="M899 990 L899 837 L429 279 Q412 258 327 172 Q434 175 458 175 L929 175 L929 0 L55 0 L55 167 L512 708 Q556 760 625 817 Q560 815 526 815 L93 815 L93 990 L899 990 Z M207 1419 L392 1419 L497 1245 L606 1419 L777 1419 L592 1130 L393 1130 L207 1419 Z " />
<glyph glyph-name="longs" unicode="&#x17f;" horiz-adv-x="604" d="M589 1367 L589 1198 Q542 1204 502 1204 Q432 1204 407.5 1180 Q383 1156 383 1086 L383 0 L167 0 L167 830 L4 830 L4 990 L167 990 L167 1049 Q167 1145 178.5 1193.5 Q190 1242 221 1280 Q299 1373 473 1373 Q519 1373 589 1367 Z " />
<glyph glyph-name="uni018F" unicode="&#x18f;" horiz-adv-x="1467" d="M75 774 L1157 774 Q1133 930 1061 1032 Q1012 1101 930 1143 Q841 1187 735 1187 Q639 1187 567 1154 Q495 1121 415 1041 L207 1130 Q300 1249 391 1301 Q542 1388 736 1388 Q1044 1388 1222 1185 Q1314 1080 1361 926 Q1399 803 1399 673 Q1399 452 1296 268 Q1215 122 1073 42 Q924 -42 734 -42 Q427 -42 246 163 Q153 268 106 423 Q69 544 69 673 Q69 721 75 774 Z M1156 575 L311 575 Q334 426 404 323 Q455 247 542 203 Q630 159 734 159 Q880 159 988 242 Q1125 347 1156 575 Z " />
<glyph glyph-name="Ohorn" unicode="&#x1a0;" horiz-adv-x="1472" d="M1249 1152 Q1317 1170 1328 1260 L1237 1260 L1237 1436 L1423 1436 L1423 1304 Q1423 1187 1370 1132 Q1339 1100 1294 1084 Q1391 899 1391 683 Q1391 397 1243 206 Q1058 -33 736 -33 Q411 -33 224 210 Q80 398 80 683 Q80 1010 267 1206 Q451 1398 738 1398 Q1063 1398 1249 1152 Z M731 1196 Q553 1196 437 1061 Q320 924 320 686 Q320 453 425 317 Q479 248 562.5 208.5 Q646 169 739 169 Q913 169 1022 289 Q1151 431 1151 683 Q1151 917 1037 1057 Q925 1196 731 1196 Z " />
<glyph glyph-name="ohorn" unicode="&#x1a1;" horiz-adv-x="1139" d="M992 801 Q1061 821 1072 910 L981 910 L981 1086 L1167 1086 L1167 954 Q1167 770 1028 731 Q1069 619 1069 494 Q1069 242 920 100 Q787 -27 571 -27 Q333 -27 198 123 Q70 267 70 495 Q70 714 190 855 Q329 1017 572 1017 Q714 1017 814 965.5 Q914 914 992 801 Z M566 842 Q440 842 365.5 748 Q291 654 291 496 Q291 323 370 234 Q446 147 573 147 Q689 147 760 223 Q848 316 848 495 Q848 662 771 753 Q696 842 566 842 Z " />
<glyph glyph-name="Uhorn" unicode="&#x1af;" horiz-adv-x="1365" d="M1243 1365 L1243 565 Q1243 387 1216 299 Q1113 -33 685 -33 Q343 -33 203 177 Q157 247 138.5 334 Q120 421 120 569 L120 1365 L360 1365 L360 556 Q360 447 369.5 393 Q379 339 406 292 Q479 166 689 166 Q888 166 956 283 Q1003 365 1003 557 L1003 1365 L1243 1365 Z M1506 1428 L1506 1295 Q1506 1084 1320 1065 L1320 1141 Q1402 1159 1411 1252 L1320 1252 L1320 1428 L1506 1428 Z " />
<glyph glyph-name="uhorn" unicode="&#x1b0;" horiz-adv-x="1119" d="M989 990 L989 0 L784 0 L784 147 Q660 -27 458 -27 Q281 -27 188 86 Q120 168 120 356 L120 990 L339 990 L339 425 Q339 276 368 229 Q413 156 526 156 Q671 156 737 283 Q770 345 770 505 L770 990 L989 990 Z M1259 1060 L1259 927 Q1259 716 1073 697 L1073 773 Q1153 791 1164 884 L1073 884 L1073 1060 L1259 1060 Z " />
<glyph glyph-name="uni01C4" unicode="&#x1c4;" horiz-adv-x="2462" d="M1563 1742 L1747 1742 L1878 1577 L2009 1742 L2193 1742 L1987 1481 L1768 1481 L1563 1742 Z M135 1365 L656 1365 Q810 1365 915 1332 Q1020 1299 1102 1226 Q1305 1044 1305 705 Q1305 344 1112 152 Q1028 68 929 34 Q830 0 670 0 L135 0 L135 1365 Z M375 1160 L375 205 L637 205 Q760 205 827.5 227 Q895 249 946 305 Q1065 436 1065 694 Q1065 922 957 1041 Q849 1160 641 1160 L375 1160 Z M2401 1365 L2401 1176 L1707 332 L1589 201 Q1694 205 1852 205 L2422 205 L2422 0 L1300 0 L1300 198 L2008 1057 Q2024 1077 2107 1164 Q1992 1160 1863 1160 L1359 1160 L1359 1365 L2401 1365 Z " />
<glyph glyph-name="uni01C5" unicode="&#x1c5;" horiz-adv-x="2286" d="M135 1365 L656 1365 Q810 1365 915 1332 Q1020 1299 1102 1226 Q1305 1044 1305 705 Q1305 344 1112 152 Q1028 68 929 34 Q830 0 670 0 L135 0 L135 1365 Z M375 1160 L375 205 L637 205 Q760 205 827.5 227 Q895 249 946 305 Q1065 436 1065 694 Q1065 922 957 1041 Q849 1160 641 1160 L375 1160 Z M2220 990 L2220 837 L1750 279 Q1732 257 1648 172 Q1755 175 1779 175 L2250 175 L2250 0 L1376 0 L1376 167 L1833 708 Q1876 759 1946 817 Q1881 815 1847 815 L1414 815 L1414 990 L2220 990 Z M1514 1419 L1699 1419 L1803 1245 L1912 1419 L2083 1419 L1898 1130 L1700 1130 L1514 1419 Z " />
<glyph glyph-name="uni01C6" unicode="&#x1c6;" horiz-adv-x="2069" d="M1319 1419 L1504 1419 L1608 1245 L1717 1419 L1888 1419 L1703 1130 L1505 1130 L1319 1419 Z M2003 990 L2003 837 L1534 279 Q1516 258 1432 172 Q1538 175 1562 175 L2033 175 L2033 0 L1159 0 L1159 167 L1616 708 Q1660 759 1729 817 Q1665 815 1630 815 L1198 815 L1198 990 L2003 990 Z M1046 1365 L1046 0 L842 0 L842 136 Q744 -27 525 -27 Q317 -27 192 115 Q68 257 68 497 Q68 730 182 867 Q306 1017 516 1017 Q622 1017 702 977 Q782 937 828 860 L828 1365 L1046 1365 Z M564 842 Q438 842 366 756 Q289 665 289 498 Q289 336 364 240 Q437 148 563 148 Q691 148 764 240 Q836 331 836 494 Q836 669 756 758 Q680 842 564 842 Z " />
<glyph glyph-name="uni01C7" unicode="&#x1c7;" horiz-adv-x="2111" d="M1065 205 L1065 0 L128 0 L128 1365 L368 1365 L368 205 L1065 205 Z M1975 1365 L1975 444 Q1975 323 1960.5 255 Q1946 187 1908 130 Q1800 -33 1554 -33 Q1270 -33 1171 159 Q1122 255 1122 428 Q1122 449 1123 481 L1349 481 L1349 458 Q1350 340 1360 295 Q1391 164 1548 164 Q1659 164 1702 235 Q1735 290 1735 438 L1735 1365 L1975 1365 Z " />
<glyph glyph-name="uni01C8" unicode="&#x1c8;" horiz-adv-x="1530" d="M1065 205 L1065 0 L128 0 L128 1365 L368 1365 L368 205 L1065 205 Z M1409 990 L1409 -13 Q1409 -142 1398 -197.5 Q1387 -253 1351 -296 Q1284 -379 1117 -379 Q1077 -379 1026 -373 L1026 -195 Q1057 -198 1078 -198 Q1158 -198 1176 -163 Q1191 -133 1191 28 L1191 990 L1409 990 Z M1409 1365 L1409 1157 L1191 1157 L1191 1365 L1409 1365 Z " />
<glyph glyph-name="uni01C9" unicode="&#x1c9;" horiz-adv-x="800" d="M339 1365 L339 0 L121 0 L121 1365 L339 1365 Z M679 1048 L679 45 Q679 -84 667.5 -139.5 Q656 -195 621 -238 Q554 -321 387 -321 Q346 -321 295 -315 L295 -137 Q325 -140 347 -140 Q428 -140 446 -105 Q461 -75 461 86 L461 1048 L679 1048 Z M679 1365 L679 1157 L461 1157 L461 1365 L679 1365 Z " />
<glyph glyph-name="uni01CA" unicode="&#x1ca;" horiz-adv-x="2349" d="M1246 1365 L1246 0 L999 0 L558 697 Q404 940 351 1054 Q363 898 363 635 L363 0 L135 0 L135 1365 L383 1365 L831 655 Q967 438 1030 310 Q1018 577 1018 739 L1018 1365 L1246 1365 Z M2213 1365 L2213 444 Q2213 323 2198.5 255 Q2184 187 2146 130 Q2038 -33 1792 -33 Q1508 -33 1409 159 Q1360 255 1360 428 Q1360 449 1361 481 L1587 481 L1587 458 Q1588 340 1599 295 Q1629 164 1786 164 Q1892 164 1932.5 223.5 Q1973 283 1973 438 L1973 1365 L2213 1365 Z " />
<glyph glyph-name="uni01CB" unicode="&#x1cb;" horiz-adv-x="1732" d="M1246 1365 L1246 0 L999 0 L558 697 Q404 940 351 1054 Q363 898 363 635 L363 0 L135 0 L135 1365 L383 1365 L831 655 Q967 438 1030 310 Q1018 577 1018 739 L1018 1365 L1246 1365 Z M1611 990 L1611 -13 Q1611 -142 1600 -197.5 Q1589 -253 1553 -296 Q1486 -379 1319 -379 Q1279 -379 1228 -373 L1228 -195 Q1258 -198 1280 -198 Q1360 -198 1378 -163 Q1393 -133 1393 28 L1393 990 L1611 990 Z M1611 1365 L1611 1157 L1393 1157 L1393 1365 L1611 1365 Z " />
<glyph glyph-name="uni01CC" unicode="&#x1cc;" horiz-adv-x="1436" d="M1315 990 L1315 -13 Q1315 -142 1303.5 -197.5 Q1292 -253 1257 -296 Q1190 -379 1023 -379 Q983 -379 931 -373 L931 -195 Q962 -198 983 -198 Q1064 -198 1082 -163 Q1097 -134 1097 28 L1097 990 L1315 990 Z M1315 1365 L1315 1157 L1097 1157 L1097 1365 L1315 1365 Z M321 990 L321 844 Q441 1018 651 1018 Q779 1018 869 952 Q935 904 960.5 834 Q986 764 986 631 L986 0 L768 0 L768 576 Q768 689 750 738 Q733 783 688 808 Q640 835 579 835 Q507 835 449.5 800.5 Q392 766 365 707 Q334 640 334 496 L334 0 L116 0 L116 990 L321 990 Z " />
<glyph glyph-name="uni01CD" unicode="&#x1cd;" horiz-adv-x="1275" d="M767 1365 L1292 0 L1036 0 L905 363 L365 363 L232 0 L-17 0 L511 1365 L767 1365 Z M842 545 L731 850 Q673 1010 637 1136 Q604 1029 540 853 L427 545 L842 545 Z M323 1742 L506 1742 L638 1577 L769 1742 L953 1742 L747 1481 L528 1481 L323 1742 Z " />
<glyph glyph-name="uni01CE" unicode="&#x1ce;" horiz-adv-x="1063" d="M87 683 Q99 826 181 906 Q294 1017 520 1017 Q648 1017 744 983.5 Q840 950 886 889 Q932 828 932 703 Q932 674 928 522 L923 284 Q923 187 932 165 Q941 143 979 143 Q996 143 1027 147 L1027 -6 Q941 -28 886 -28 Q745 -28 725 91 Q589 -29 375 -29 Q224 -29 134 51 Q44 131 44 266 Q44 409 144 484 Q199 525 255 540.5 Q311 556 487 578 Q646 598 681.5 617.5 Q717 637 717 706 Q717 856 512 856 Q406 856 356 816.5 Q306 777 293 683 L87 683 Z M714 494 Q673 473 638 464.5 Q603 456 483 440 Q348 422 306 380 Q266 340 266 276 Q266 206 313.5 167 Q361 128 447 128 Q526 128 594 157 Q662 186 691 232 Q714 269 714 378 L714 494 Z M247 1419 L432 1419 L536 1245 L645 1419 L816 1419 L631 1130 L433 1130 L247 1419 Z " />
<glyph glyph-name="uni01CF" unicode="&#x1cf;" horiz-adv-x="524" d="M381 1365 L381 0 L141 0 L141 1365 L381 1365 Z M-53 1743 L130 1743 L262 1578 L393 1743 L577 1743 L371 1482 L152 1482 L-53 1743 Z " />
<glyph glyph-name="uni01D0" unicode="&#x1d0;" horiz-adv-x="475" d="M347 990 L347 0 L128 0 L128 990 L347 990 Z M-48 1418 L137 1418 L242 1245 L350 1418 L521 1418 L337 1131 L138 1131 L-48 1418 Z " />
<glyph glyph-name="uni01D1" unicode="&#x1d1;" horiz-adv-x="1453" d="M738 1398 Q1008 1398 1190 1210 Q1382 1011 1382 683 Q1382 397 1235 206 Q1050 -33 727 -33 Q402 -33 215 210 Q71 398 71 681 Q71 1015 258 1205 Q448 1398 738 1398 Z M733 1196 Q544 1196 428 1061 Q311 925 311 685 Q311 453 416 317 Q470 248 553.5 208.5 Q637 169 730 169 Q905 169 1014 289 Q1142 431 1142 685 Q1142 918 1028 1057 Q916 1196 733 1196 Z M461 1742 L644 1742 L775 1577 L907 1742 L1090 1742 L885 1481 L666 1481 L461 1742 Z " />
<glyph glyph-name="uni01D2" unicode="&#x1d2;" horiz-adv-x="1139" d="M579 1017 Q800 1017 937 873 Q1069 733 1069 494 Q1069 242 920 100 Q787 -27 571 -27 Q332 -27 198 123 Q70 267 70 494 Q70 716 190 855 Q331 1017 579 1017 Z M566 842 Q440 842 365.5 748 Q291 654 291 496 Q291 324 370 235 Q446 148 573 148 Q689 148 760 224 Q848 317 848 495 Q848 662 771 753 Q696 842 566 842 Z M285 1418 L470 1418 L575 1245 L683 1418 L855 1418 L670 1131 L471 1131 L285 1418 Z " />
<glyph glyph-name="uni01D3" unicode="&#x1d3;" horiz-adv-x="1381" d="M1250 1365 L1250 565 Q1250 387 1223 299 Q1120 -33 693 -33 Q352 -33 212 177 Q165 247 146.5 334 Q128 421 128 569 L128 1365 L368 1365 L368 556 Q368 449 377.5 394 Q387 339 414 292 Q487 166 697 166 Q895 166 963 283 Q1010 365 1010 557 L1010 1365 L1250 1365 Z M375 1742 L558 1742 L689 1577 L821 1742 L1004 1742 L799 1481 L580 1481 L375 1742 Z " />
<glyph glyph-name="uni01D4" unicode="&#x1d4;" horiz-adv-x="1098" d="M979 990 L979 0 L774 0 L774 147 Q656 -27 446 -27 Q269 -27 176 86 Q109 168 109 355 L109 990 L327 990 L327 425 Q327 275 356 229 Q402 156 516 156 Q661 156 728 283 Q761 345 761 505 L761 990 L979 990 Z M259 1419 L444 1419 L549 1245 L657 1419 L829 1419 L644 1130 L445 1130 L259 1419 Z " />
<glyph glyph-name="uni01DD" unicode="&#x1dd;" horiz-adv-x="1097" d="M87 680 Q106 761 153 830 Q280 1017 534 1017 Q764 1017 897 866 Q1022 723 1022 505 Q1022 280 894 131 Q759 -27 543 -27 Q367 -27 243 79 Q71 226 73 547 L804 547 Q802 629 781 684 Q716 856 531 856 Q358 856 295 680 L87 680 Z M291 401 Q299 313 335 252 Q407 134 545 134 Q652 134 718 203 Q784 272 801 401 L291 401 Z " />
<glyph glyph-name="Gcaron" unicode="&#x1e6;" horiz-adv-x="1451" d="M1337 728 L1337 0 L1184 0 L1146 163 Q988 -33 722 -33 Q402 -33 222 201 Q74 394 74 673 Q74 995 265 1202 Q447 1398 742 1398 Q1015 1398 1180 1229 Q1303 1102 1320 931 L1087 931 Q1066 1054 972.5 1125 Q879 1196 740 1196 Q533 1196 417 1042 Q314 906 314 676 Q314 462 409 330 Q525 169 747 169 Q977 169 1074 350 Q1113 423 1121 546 L751 546 L751 728 L1337 728 Z M433 1742 L616 1742 L748 1577 L879 1742 L1063 1742 L857 1481 L638 1481 L433 1742 Z " />
<glyph glyph-name="gcaron" unicode="&#x1e7;" horiz-adv-x="1134" d="M1017 991 L1017 116 Q1017 -7 1003 -77 Q989 -147 952 -205 Q838 -386 541 -386 Q136 -386 97 -85 L316 -85 Q347 -232 546 -232 Q698 -232 759 -146 Q805 -81 806 60 L807 176 Q702 9 492 9 Q298 9 180 143 Q62 277 62 504 Q62 737 184 876 Q307 1017 505 1017 Q609 1017 682.5 977.5 Q756 938 812 852 L812 991 L1017 991 Z M549 843 Q410 843 341 739 Q283 652 283 519 Q283 335 372 251 Q442 184 543 184 Q679 184 749 292 Q807 381 807 518 Q807 690 720 776 Q652 843 549 843 Z M264 1419 L449 1419 L553 1245 L662 1419 L833 1419 L648 1130 L450 1130 L264 1419 Z " />
<glyph glyph-name="uni01F4" unicode="&#x1f4;" horiz-adv-x="1451" d="M1337 728 L1337 0 L1184 0 L1146 163 Q988 -33 722 -33 Q402 -33 222 201 Q74 394 74 673 Q74 995 265 1202 Q447 1398 742 1398 Q1015 1398 1180 1229 Q1303 1102 1320 931 L1087 931 Q1066 1054 972.5 1125 Q879 1196 740 1196 Q533 1196 417 1042 Q314 906 314 676 Q314 462 409 330 Q525 169 747 169 Q977 169 1074 350 Q1113 423 1121 546 L751 546 L751 728 L1337 728 Z M1030 1742 L773 1481 L615 1481 L775 1742 L1030 1742 Z " />
<glyph glyph-name="uni01F5" unicode="&#x1f5;" horiz-adv-x="1134" d="M1017 991 L1017 116 Q1017 -7 1003 -77 Q989 -147 952 -205 Q838 -386 541 -386 Q136 -386 97 -85 L316 -85 Q347 -232 546 -232 Q698 -232 759 -146 Q805 -81 806 60 L807 176 Q702 9 492 9 Q298 9 180 143 Q62 277 62 504 Q62 737 184 876 Q307 1017 505 1017 Q609 1017 682.5 977.5 Q756 938 812 852 L812 991 L1017 991 Z M549 843 Q410 843 341 739 Q283 652 283 519 Q283 335 372 251 Q442 184 543 184 Q679 184 749 292 Q807 381 807 518 Q807 690 720 776 Q652 843 549 843 Z M793 1419 L562 1130 L418 1130 L555 1419 L793 1419 Z " />
<glyph glyph-name="Aringacute" unicode="&#x1fa;" horiz-adv-x="1321" d="M789 1365 L1315 0 L1058 0 L927 363 L387 363 L254 0 L5 0 L533 1365 L789 1365 Z M864 544 L753 849 Q695 1009 659 1135 Q626 1028 562 853 L449 544 L864 544 Z M669 1817 Q759 1817 822 1747 Q877 1686 877 1606 Q877 1512 807 1448 Q747 1394 665 1394 Q571 1394 508 1464 Q454 1525 454 1607 Q454 1698 524 1762 Q584 1817 669 1817 Z M664 1709 Q622 1709 592 1678.5 Q562 1648 562 1606 Q562 1562 592 1532 Q622 1502 665 1502 Q709 1502 739 1532.5 Q769 1563 769 1606 Q769 1649 738 1679 Q707 1709 664 1709 Z M744 2019 L486 1758 L328 1758 L488 2019 L744 2019 Z " />
<glyph glyph-name="aringacute" unicode="&#x1fb;" horiz-adv-x="1080" d="M95 683 Q108 826 190 906 Q303 1017 528 1017 Q657 1017 753 983.5 Q849 950 895 889 Q941 828 941 703 Q941 674 937 523 L932 287 Q932 188 941 166 Q950 144 989 144 Q1008 144 1036 147 L1036 -6 Q949 -28 895 -28 Q754 -28 734 91 Q598 -29 385 -29 Q249 -29 162 34 Q53 114 53 266 Q53 408 153 483 Q206 524 263 539.5 Q320 555 496 577 Q656 598 691 617 Q726 636 726 704 Q726 782 676.5 818.5 Q627 855 520 855 Q415 855 365.5 816 Q316 777 302 683 L95 683 Z M723 494 Q681 472 647.5 464.5 Q614 457 492 440 Q357 422 315 380 Q275 340 275 276 Q275 206 322 167 Q369 128 454 128 Q535 128 602.5 156.5 Q670 185 700 232 Q723 269 723 378 L723 494 Z M543 1502 Q630 1502 691 1434 Q744 1376 744 1297 Q744 1206 676 1145 Q618 1092 539 1092 Q448 1092 387 1160 Q334 1218 334 1299 Q334 1387 402 1449 Q460 1502 543 1502 Z M538 1398 Q497 1398 467.5 1368 Q438 1338 438 1297 Q438 1255 467.5 1225.5 Q497 1196 539 1196 Q581 1196 610.5 1225.5 Q640 1255 640 1298 Q640 1339 610 1368.5 Q580 1398 538 1398 Z M666 1780 L435 1492 L291 1492 L428 1780 L666 1780 Z " />
<glyph glyph-name="AEacute" unicode="&#x1fc;" horiz-adv-x="1866" d="M1772 1365 L1772 1160 L1110 1160 L1110 801 L1732 801 L1732 607 L1110 607 L1110 205 L1785 205 L1785 0 L877 0 L877 349 L421 349 L252 0 L-15 0 L668 1365 L1772 1365 Z M877 530 L877 1160 L807 1160 L505 530 L877 530 Z M1417 1743 L1159 1482 L1001 1482 L1161 1743 L1417 1743 Z " />
<glyph glyph-name="aeacute" unicode="&#x1fd;" horiz-adv-x="1705" d="M1628 311 Q1600 193 1521 109 Q1395 -27 1178 -27 Q926 -27 823 155 Q693 -27 414 -27 Q242 -27 145 55 Q56 131 56 268 Q56 350 94 414.5 Q132 479 199 511 Q254 538 311 550 Q368 562 557 586 Q658 599 694.5 625 Q731 651 731 709 Q731 855 530 855 Q422 855 369.5 813.5 Q317 772 307 680 L97 680 Q111 831 198 908 Q322 1017 536 1017 Q783 1017 865 880 Q916 945 998 981 Q1080 1017 1176 1017 Q1390 1017 1520 869 Q1640 730 1640 493 Q1640 479 1639 443 L927 443 Q927 337 963 265 Q1029 134 1181 134 Q1354 134 1418 311 L1628 311 Z M1421 589 Q1415 693 1371 756 Q1301 855 1174 855 Q1037 855 970 746 Q936 690 925 589 L1421 589 Z M729 493 Q694 472 660 463.5 Q626 455 512 440 Q383 423 332 387.5 Q281 352 281 279 Q281 205 329.5 163 Q378 121 464 121 Q584 121 663 193 Q729 253 729 361 L729 493 Z M1117 1418 L886 1130 L742 1130 L879 1418 L1117 1418 Z " />
<glyph glyph-name="Oslashacute" unicode="&#x1fe;" horiz-adv-x="1472" d="M57 38 L218 217 Q159 308 131 383 Q82 519 82 688 Q82 1008 266 1204 Q447 1398 738 1398 Q981 1398 1144 1258 L1299 1426 L1399 1335 L1240 1157 Q1313 1071 1345 975 Q1391 840 1391 682 Q1391 377 1222 182 Q1035 -33 740 -33 Q612 -33 522 -0.5 Q432 32 312 122 L157 -54 L57 38 Z M456 280 Q585 169 743 169 Q932 169 1041.5 308.5 Q1151 448 1151 688 Q1151 781 1137 842.5 Q1123 904 1083 983 L456 280 Z M1003 1096 Q894 1196 734 1196 Q557 1196 440 1064 Q322 931 322 680 Q322 537 382 402 L1003 1096 Z M995 1743 L737 1482 L580 1482 L739 1743 L995 1743 Z " />
<glyph glyph-name="oslashacute" unicode="&#x1ff;" horiz-adv-x="1139" d="M60 24 L175 151 Q69 301 69 498 Q69 732 209 875 Q348 1017 577 1017 Q757 1017 882 918 L996 1041 L1079 965 L964 841 Q1021 765 1045.5 688.5 Q1070 612 1070 510 Q1070 271 950 132 Q812 -27 569 -27 Q475 -27 404.5 -5 Q334 17 255 71 L143 -54 L60 24 Z M391 215 Q467 148 573 148 Q722 148 797 272 Q849 358 849 488 Q849 584 817 680 L391 215 Z M750 776 Q669 842 573 842 Q429 842 353 729 Q290 636 290 499 Q290 396 325 309 L750 776 Z M828 1418 L597 1130 L453 1130 L589 1418 L828 1418 Z " />
<glyph glyph-name="uni0200" unicode="&#x200;" horiz-adv-x="1275" d="M767 1365 L1292 0 L1036 0 L905 363 L365 363 L232 0 L-17 0 L511 1365 L767 1365 Z M842 545 L731 850 Q673 1010 637 1136 Q604 1029 540 853 L427 545 L842 545 Z M229 1742 L443 1742 L552 1481 L405 1481 L229 1742 Z M564 1742 L777 1742 L886 1481 L740 1481 L564 1742 Z " />
<glyph glyph-name="uni0201" unicode="&#x201;" horiz-adv-x="581" d="M87 683 Q99 826 181 906 Q294 1017 520 1017 Q648 1017 744 983.5 Q840 950 886 889 Q932 828 932 703 Q932 674 928 522 L923 284 Q923 187 932 165 Q941 143 979 143 Q996 143 1027 147 L1027 -6 Q941 -28 886 -28 Q745 -28 725 91 Q589 -29 375 -29 Q224 -29 134 51 Q44 131 44 266 Q44 409 144 484 Q199 525 255 540.5 Q311 556 487 578 Q646 598 681.5 617.5 Q717 637 717 706 Q717 856 512 856 Q406 856 356 816.5 Q306 777 293 683 L87 683 Z M714 494 Q673 473 638 464.5 Q603 456 483 440 Q348 422 306 380 Q266 340 266 276 Q266 206 313.5 167 Q361 128 447 128 Q526 128 594 157 Q662 186 691 232 Q714 269 714 378 L714 494 Z M128 1403 L341 1403 L450 1142 L304 1142 L128 1403 Z M462 1403 L676 1403 L785 1142 L638 1142 L462 1403 Z " />
<glyph glyph-name="Scommaaccent" unicode="&#x218;" horiz-adv-x="1239" d="M740 -123 L740 -256 Q740 -467 554 -486 L554 -410 Q634 -392 645 -299 L554 -299 L554 -123 L740 -123 Z M1135 964 L907 964 Q881 1206 611 1206 Q488 1206 418.5 1155 Q349 1104 349 1014 Q349 930 413 894 Q473 859 696 807 Q933 752 1024 693 Q1189 586 1189 398 Q1189 200 1043 85 Q897 -30 646 -30 Q376 -30 225 97.5 Q74 225 71 455 L307 455 Q311 332 370 266 Q464 160 660 160 Q800 160 875 217 Q954 277 954 377 Q954 430 928.5 465.5 Q903 501 844 531 Q796 555 635 595 Q351 665 262 722 Q120 814 120 996 Q120 1178 258 1286.5 Q396 1395 627 1395 Q862 1395 995 1282.5 Q1128 1170 1135 964 Z " />
<glyph glyph-name="scommaaccent" unicode="&#x219;" horiz-adv-x="992" d="M604 -109 L604 -242 Q604 -453 418 -472 L418 -396 Q498 -378 509 -285 L418 -285 L418 -109 L604 -109 Z M899 702 L690 702 Q682 761 658 791 Q606 856 477 856 Q393 856 346 825.5 Q299 795 299 741 Q299 685 344.5 659.5 Q390 634 551 599 Q752 557 837 497 Q935 429 935 297 Q935 148 818.5 60.5 Q702 -27 503 -27 Q293 -27 180.5 60 Q68 147 59 317 L269 317 Q277 243 309 205 Q370 134 506 134 Q603 134 661 173 Q719 212 719 276 Q719 333 672.5 362 Q626 391 484 424 Q340 458 292 472.5 Q244 487 200 512 Q82 578 82 722 Q82 878 217 958 Q318 1017 486 1017 Q723 1017 829 895 Q889 827 899 702 Z " />
<glyph glyph-name="uni021A" unicode="&#x21a;" horiz-adv-x="1134" d="M1121 1365 L1121 1160 L686 1160 L686 0 L446 0 L446 1160 L10 1160 L10 1365 L1121 1365 Z M659 -123 L659 -256 Q659 -467 473 -486 L473 -410 Q553 -392 564 -299 L473 -299 L473 -123 L659 -123 Z " />
<glyph glyph-name="uni021B" unicode="&#x21b;" horiz-adv-x="637" d="M579 990 L579 830 L379 830 L379 309 Q379 220 394 196 Q417 163 496 163 Q535 163 579 170 L579 -2 Q495 -11 430 -11 Q250 -11 194 78 Q173 113 167 163 Q161 213 161 359 L161 830 L-4 830 L-4 990 L161 990 L161 1286 L379 1286 L379 990 L579 990 Z M366 -109 L366 -242 Q366 -453 180 -472 L180 -396 Q260 -378 271 -285 L180 -285 L180 -109 L366 -109 Z " />
<glyph glyph-name="uni0226" unicode="&#x226;" horiz-adv-x="1320" d="M789 1365 L1314 0 L1058 0 L927 363 L387 363 L254 0 L5 0 L533 1365 L789 1365 Z M864 545 L753 850 Q695 1010 659 1136 Q626 1029 562 853 L449 545 L864 545 Z M769 1709 L769 1506 L551 1506 L551 1709 L769 1709 Z " />
<glyph glyph-name="uni0227" unicode="&#x227;" horiz-adv-x="1080" d="M96 683 Q108 826 190 906 Q303 1017 529 1017 Q657 1017 753 983.5 Q849 950 895 889 Q941 828 941 703 Q941 674 937 522 L932 284 Q932 187 941 165 Q950 143 988 143 Q1005 143 1036 147 L1036 -6 Q950 -28 895 -28 Q754 -28 734 91 Q598 -29 384 -29 Q233 -29 143 51 Q53 131 53 266 Q53 409 153 484 Q208 525 264 540.5 Q320 556 496 578 Q655 598 690.5 617.5 Q726 637 726 706 Q726 856 521 856 Q415 856 365 816.5 Q315 777 302 683 L96 683 Z M723 494 Q682 473 647 464.5 Q612 456 492 440 Q357 422 315 380 Q275 340 275 276 Q275 206 322.5 167 Q370 128 456 128 Q535 128 603 157 Q671 186 700 232 Q723 269 723 378 L723 494 Z M645 1379 L645 1170 L433 1170 L433 1379 L645 1379 Z " />
<glyph glyph-name="uni0237" unicode="&#x237;" horiz-adv-x="475" d="M346 990 L346 -13 Q346 -142 334.5 -197.5 Q323 -253 288 -296 Q221 -379 54 -379 Q14 -379 -37 -373 L-37 -195 Q-6 -198 15 -198 Q95 -198 113 -163 Q128 -134 128 28 L128 990 L346 990 Z " />
<glyph glyph-name="uni0259" unicode="&#x259;" horiz-adv-x="1097" d="M87 680 Q106 761 153 830 Q280 1017 534 1017 Q764 1017 897 866 Q1022 723 1022 505 Q1022 280 894 131 Q759 -27 543 -27 Q367 -27 243 79 Q71 226 73 547 L804 547 Q802 629 781 684 Q716 856 531 856 Q358 856 295 680 L87 680 Z M291 401 Q299 313 335 252 Q407 134 545 134 Q652 134 718 203 Q784 272 801 401 L291 401 Z " />
<glyph glyph-name="uni02BB" unicode="&#x2bb;" horiz-adv-x="689" d="M311 868 L98 868 L98 1076 Q98 1164 118.5 1217.5 Q139 1271 187 1306 Q237 1343 311 1351 L311 1268 Q189 1247 194 1087 L311 1087 L311 868 Z " />
<glyph glyph-name="afii57929" unicode="&#x2bc;" horiz-adv-x="539" d="M398 1365 L398 1173 Q406 863 139 812 L139 926 Q255 966 261 1112 L139 1112 L139 1365 L398 1365 Z " />
<glyph glyph-name="uni02C9" unicode="&#x2c9;" horiz-adv-x="461" d="M535 1335 L535 1208 L-73 1208 L-73 1335 L535 1335 Z " />
<glyph glyph-name="uni037E" unicode="&#x37e;" horiz-adv-x="532" d="M416 253 L416 73 Q416 -118 340 -200 Q268 -279 157 -302 L157 -186 Q275 -146 279 0 L157 0 L157 253 L416 253 Z M416 976 L416 718 L150 718 L150 976 L416 976 Z " />
<glyph glyph-name="tonos" unicode="&#x384;" horiz-adv-x="992" d="M425 1098 L400 1439 L593 1439 L568 1098 L425 1098 Z " />
<glyph glyph-name="dieresistonos" unicode="&#x385;" horiz-adv-x="992" d="M158 1148 L158 1364 L338 1364 L338 1148 L158 1148 Z M654 1148 L654 1364 L834 1364 L834 1148 L654 1148 Z M425 1098 L399 1439 L592 1439 L567 1098 L425 1098 Z " />
<glyph glyph-name="Alphatonos" unicode="&#x386;" horiz-adv-x="1323" d="M6 0 L534 1369 L791 1369 L1316 0 L1059 0 L928 362 L389 362 L256 0 L6 0 Z M865 544 L754 849 Q688 1030 661 1135 Q627 1029 563 852 L451 544 L865 544 Z M143 1008 L120 1439 L313 1439 L290 1008 L143 1008 Z " />
<glyph glyph-name="Epsilontonos" unicode="&#x388;" horiz-adv-x="1418" d="M23 1008 L0 1439 L193 1439 L170 1008 L23 1008 Z M1324 1365 L1324 1160 L578 1160 L578 799 L1268 799 L1268 608 L578 608 L578 205 L1335 205 L1335 0 L338 0 L338 1365 L1324 1365 Z " />
<glyph glyph-name="Etatonos" unicode="&#x389;" horiz-adv-x="1602" d="M23 1008 L0 1439 L193 1439 L170 1008 L23 1008 Z M1457 1365 L1457 0 L1217 0 L1217 616 L578 616 L578 0 L338 0 L338 1365 L578 1365 L578 821 L1217 821 L1217 1365 L1457 1365 Z " />
<glyph glyph-name="Iotatonos" unicode="&#x38a;" horiz-adv-x="724" d="M23 1008 L0 1439 L193 1439 L170 1008 L23 1008 Z M578 1365 L578 0 L338 0 L338 1365 L578 1365 Z " />
<glyph glyph-name="Omicrontonos" unicode="&#x38c;" horiz-adv-x="1643" d="M23 1008 L0 1439 L193 1439 L170 1008 L23 1008 Z M898 1397 Q1200 1397 1385 1191 Q1561 996 1561 683 Q1561 370 1385 174 Q1201 -32 900 -32 Q595 -32 411 174 Q235 370 235 692 Q235 996 411 1191 Q596 1397 898 1397 Z M898 1196 Q754 1196 649 1113 Q543 1029 500 873 Q477 786 477 688 Q477 482 566 343 Q677 169 899 169 Q1043 169 1147 251 Q1230 316 1274.5 428.5 Q1319 541 1319 683 Q1319 886 1230 1022 Q1117 1196 898 1196 Z " />
<glyph glyph-name="Upsilontonos" unicode="&#x38e;" horiz-adv-x="1482" d="M193 1439 L170 1008 L23 1008 L0 1439 L193 1439 Z M1510 1365 L992 542 L992 0 L752 0 L752 544 L232 1365 L512 1365 L778 928 Q829 844 877 743 Q932 860 976 933 L1238 1365 L1510 1365 Z " />
<glyph glyph-name="Omegatonos" unicode="&#x38f;" horiz-adv-x="1628" d="M23 1008 L0 1439 L193 1439 L170 1008 L23 1008 Z M239 0 L239 195 L490 195 Q234 396 234 739 Q234 1020 399 1205 Q571 1397 891 1397 Q1210 1397 1382 1205 Q1547 1020 1547 739 Q1547 395 1291 195 L1542 195 L1542 0 L1000 0 L1000 181 Q1307 352 1307 716 Q1307 909 1213 1045 Q1109 1194 890 1194 Q672 1194 568 1045 Q474 909 474 716 Q474 351 781 181 L781 0 L239 0 Z " />
<glyph glyph-name="iotadieresistonos" unicode="&#x390;" horiz-adv-x="493" d="M355 990 L355 0 L137 0 L137 990 L355 990 Z M-92 1148 L-92 1364 L88 1364 L88 1148 L-92 1148 Z M404 1148 L404 1364 L584 1364 L584 1148 L404 1148 Z M175 1098 L149 1439 L342 1439 L317 1098 L175 1098 Z " />
<glyph glyph-name="Alpha" unicode="&#x391;" horiz-adv-x="1323" d="M6 0 L534 1369 L791 1369 L1316 0 L1059 0 L928 362 L389 362 L256 0 L6 0 Z M865 544 L754 849 Q688 1030 661 1135 Q627 1029 563 852 L451 544 L865 544 Z " />
<glyph glyph-name="Beta" unicode="&#x392;" horiz-adv-x="1342" d="M145 1365 L727 1365 Q843 1365 912.5 1352 Q982 1339 1036 1308 Q1111 1265 1155 1190 Q1200 1113 1200 1023 Q1200 927 1149 851 Q1098 775 1007 736 Q1262 661 1262 401 Q1262 241 1164 133 Q1101 64 1013 32 Q925 0 797 0 L145 0 L145 1365 Z M385 1169 L385 798 L683 798 Q816 798 878 830 Q962 874 962 986 Q962 1094 882 1139 Q828 1169 692 1169 L385 1169 Z M385 623 L385 196 L716 196 Q870 196 929 230 Q1020 281 1020 407 Q1020 535 924 588 Q888 608 838 615.5 Q788 623 693 623 L385 623 Z " />
<glyph glyph-name="Gamma" unicode="&#x393;" horiz-adv-x="1106" d="M150 1365 L1080 1365 L1080 1166 L386 1166 L386 0 L150 0 L150 1365 Z " />
<glyph glyph-name="uni0394" unicode="&#x394;" horiz-adv-x="1362" d="M15 0 L538 1365 L820 1365 L1346 0 L15 0 Z M680 1115 L335 199 L1024 199 L680 1115 Z " />
<glyph glyph-name="Epsilon" unicode="&#x395;" horiz-adv-x="1225" d="M1131 1365 L1131 1160 L385 1160 L385 799 L1076 799 L1076 608 L385 608 L385 205 L1143 205 L1143 0 L145 0 L145 1365 L1131 1365 Z " />
<glyph glyph-name="Zeta" unicode="&#x396;" horiz-adv-x="1223" d="M1150 1365 L1150 1177 L459 330 L405 270 Q383 245 341 199 Q532 205 603 205 L1173 205 L1173 0 L50 0 L50 196 L755 1057 Q773 1079 855 1165 Q721 1160 611 1160 L109 1160 L109 1365 L1150 1365 Z " />
<glyph glyph-name="Eta" unicode="&#x397;" horiz-adv-x="1410" d="M1263 1365 L1263 0 L1023 0 L1023 616 L385 616 L385 0 L145 0 L145 1365 L385 1365 L385 821 L1023 821 L1023 1365 L1263 1365 Z " />
<glyph glyph-name="Theta" unicode="&#x398;" horiz-adv-x="1470" d="M738 1388 Q1029 1388 1209 1199 Q1402 997 1402 660 Q1402 451 1299 267 Q1218 121 1076 41 Q927 -43 738 -43 Q429 -43 248 162 Q156 266 109 423 Q72 546 72 672 Q72 897 174 1078 Q259 1226 398 1304 Q548 1388 738 1388 Z M736 1187 Q549 1187 431 1054 Q374 990 341 887.5 Q308 785 308 672 Q308 500 383 359 Q432 267 527 212 Q621 158 737 158 Q926 158 1043 291 Q1104 361 1138 474 Q1166 569 1166 662 Q1166 918 1036 1062 Q922 1187 736 1187 Z M495 780 L957 780 L957 586 L495 586 L495 780 Z " />
<glyph glyph-name="Iota" unicode="&#x399;" horiz-adv-x="531" d="M385 1365 L385 0 L145 0 L145 1365 L385 1365 Z " />
<glyph glyph-name="Kappa" unicode="&#x39a;" horiz-adv-x="1322" d="M1306 1365 L750 822 L1342 0 L1038 0 L584 653 L385 460 L385 0 L145 0 L145 1365 L385 1365 L385 893 L383 736 L486 847 L997 1365 L1306 1365 Z " />
<glyph glyph-name="Lambda" unicode="&#x39b;" horiz-adv-x="1314" d="M34 0 L520 1365 L793 1365 L1280 0 L1031 0 L657 1100 L282 0 L34 0 Z " />
<glyph glyph-name="Mu" unicode="&#x39c;" horiz-adv-x="1713" d="M1566 1365 L1566 0 L1337 0 L1338 510 Q1339 860 1358 1160 Q1304 966 1226 748 L958 0 L762 0 L483 737 Q408 937 355 1150 Q372 787 373 529 L374 0 L145 0 L145 1365 L482 1365 L743 652 Q810 467 861 263 Q911 457 979 652 L1229 1365 L1566 1365 Z " />
<glyph glyph-name="Nu" unicode="&#x39d;" horiz-adv-x="1415" d="M1270 1365 L1270 0 L1019 0 L573 697 Q420 937 364 1054 Q376 906 376 635 L377 0 L146 0 L146 1365 L397 1365 L849 655 Q988 437 1051 310 Q1040 543 1040 740 L1039 1365 L1270 1365 Z " />
<glyph glyph-name="Xi" unicode="&#x39e;" horiz-adv-x="1218" d="M82 0 L82 216 L1136 216 L1136 0 L82 0 Z M144 597 L144 811 L1065 811 L1065 597 L144 597 Z M89 1149 L89 1365 L1129 1365 L1129 1149 L89 1149 Z " />
<glyph glyph-name="Omicron" unicode="&#x39f;" horiz-adv-x="1490" d="M745 1397 Q1047 1397 1232 1191 Q1408 996 1408 683 Q1408 370 1232 174 Q1048 -32 747 -32 Q442 -32 258 174 Q82 370 82 692 Q82 996 258 1191 Q443 1397 745 1397 Z M745 1196 Q601 1196 496 1113 Q389 1029 347 873 Q324 786 324 688 Q324 482 413 343 Q524 169 746 169 Q890 169 994 251 Q1077 316 1121.5 428.5 Q1166 541 1166 683 Q1166 886 1077 1022 Q964 1196 745 1196 Z " />
<glyph glyph-name="Pi" unicode="&#x3a0;" horiz-adv-x="1365" d="M1227 0 L989 0 L989 1166 L375 1166 L375 0 L138 0 L138 1365 L1227 1365 L1227 0 Z " />
<glyph glyph-name="Rho" unicode="&#x3a1;" horiz-adv-x="1260" d="M145 1365 L692 1365 Q884 1365 974 1323 Q1083 1272 1141.5 1176 Q1200 1080 1200 953 Q1200 696 1008 586 Q907 527 723 527 L385 527 L385 0 L145 0 L145 1365 Z M385 1160 L385 717 L691 717 Q849 717 907 784 Q961 847 961 939 Q961 1071 863 1127 Q804 1160 670 1160 L385 1160 Z " />
<glyph glyph-name="Sigma" unicode="&#x3a3;" horiz-adv-x="1155" d="M67 0 L67 190 L524 691 L71 1168 L71 1365 L1063 1365 L1063 1166 L375 1166 L807 691 L365 199 L1095 199 L1095 0 L67 0 Z " />
<glyph glyph-name="Tau" unicode="&#x3a4;" horiz-adv-x="1175" d="M1144 1365 L1144 1160 L707 1160 L707 0 L467 0 L467 1160 L32 1160 L32 1365 L1144 1365 Z " />
<glyph glyph-name="Upsilon" unicode="&#x3a5;" horiz-adv-x="1222" d="M1248 1365 L731 542 L731 0 L491 0 L491 544 L-29 1365 L251 1365 L517 928 Q570 840 616 743 Q674 864 715 933 L977 1365 L1248 1365 Z " />
<glyph glyph-name="Phi" unicode="&#x3a6;" horiz-adv-x="1701" d="M964 0 L737 0 L737 151 Q467 155 300 258 Q68 400 68 683 Q68 931 243.5 1070 Q419 1209 737 1214 L737 1365 L964 1365 L964 1214 Q1235 1210 1401 1107 Q1633 964 1633 683 Q1633 434 1457.5 295 Q1282 156 964 151 L964 0 Z M737 1025 Q566 1023 457 966 Q369 920 328 834 Q295 765 295 683 Q295 466 490 383 Q589 342 737 340 L737 1025 Z M964 1025 L964 340 Q1135 342 1243 399 Q1332 445 1373 531 Q1406 601 1406 683 Q1406 899 1211 982 Q1112 1023 964 1025 Z " />
<glyph glyph-name="Chi" unicode="&#x3a7;" horiz-adv-x="1232" d="M1202 1365 L757 709 L1236 0 L945 0 L704 373 Q653 453 613 533 Q579 471 517 375 L270 0 L-5 0 L477 709 L29 1365 L313 1365 L512 1052 Q582 942 618 865 Q666 955 726 1047 L934 1365 L1202 1365 Z " />
<glyph glyph-name="Psi" unicode="&#x3a8;" horiz-adv-x="1551" d="M918 1365 L918 503 Q1097 510 1177 596 Q1220 642 1236 706 Q1252 770 1252 892 L1252 1365 L1492 1365 L1492 912 Q1514 328 918 310 L918 0 L678 0 L678 310 Q82 328 105 912 L105 1365 L345 1365 L345 892 Q345 763 364.5 695 Q384 627 434 582 Q515 509 678 503 L678 1365 L918 1365 Z " />
<glyph glyph-name="uni03A9" unicode="&#x3a9;" horiz-adv-x="1474" d="M86 0 L86 195 L337 195 Q81 395 81 739 Q81 1020 246 1205 Q418 1397 738 1397 Q1057 1397 1229 1205 Q1394 1020 1394 739 Q1394 396 1138 195 L1389 195 L1389 0 L847 0 L847 181 Q1154 352 1154 715 Q1154 909 1060 1045 Q957 1194 737 1194 Q519 1194 415 1045 Q321 909 321 716 Q321 351 628 181 L628 0 L86 0 Z " />
<glyph glyph-name="Iotadieresis" unicode="&#x3aa;" horiz-adv-x="531" d="M385 1365 L385 0 L145 0 L145 1365 L385 1365 Z M587 1709 L587 1506 L369 1506 L369 1709 L587 1709 Z M161 1709 L161 1506 L-57 1506 L-57 1709 L161 1709 Z " />
<glyph glyph-name="Upsilondieresis" unicode="&#x3ab;" horiz-adv-x="1222" d="M1248 1365 L731 542 L731 0 L491 0 L491 544 L-29 1365 L251 1365 L517 928 Q570 840 616 743 Q674 864 715 933 L977 1365 L1248 1365 Z M932 1709 L932 1506 L714 1506 L714 1709 L932 1709 Z M506 1709 L506 1506 L288 1506 L288 1709 L506 1709 Z " />
<glyph glyph-name="alphatonos" unicode="&#x3ac;" horiz-adv-x="1269" d="M1216 990 L1023 511 L1242 0 L1003 0 L905 278 Q852 164 796 98 Q686 -35 503 -35 Q293 -35 186 114 Q82 261 82 477 Q82 680 176 830 Q237 926 336 976 Q417 1016 515 1016 Q644 1016 735.5 950.5 Q827 885 901 740 L986 990 L1216 990 Z M815 511 Q754 685 706 748 Q635 842 539 842 Q428 842 364 745 Q297 643 297 487 Q297 332 364 232 Q425 140 530 140 Q624 140 685.5 220 Q747 300 815 511 Z M488 1098 L463 1439 L656 1439 L631 1098 L488 1098 Z " />
<glyph glyph-name="epsilontonos" unicode="&#x3ad;" horiz-adv-x="1007" d="M629 579 L629 425 Q613 425 605 425 Q462 425 393 401 Q303 370 303 284 Q303 222 352 179 Q408 130 513 130 Q609 130 663.5 173 Q718 216 747 316 L963 316 Q939 200 886 125 Q772 -35 497 -35 Q321 -35 211 35 Q83 116 83 269 Q83 454 268 515 Q114 602 114 743 Q114 869 219 939 Q331 1014 505 1014 Q693 1014 803.5 932.5 Q914 851 939 695 L724 695 Q708 752 684 782 Q634 845 515 845 Q430 845 380.5 810 Q331 775 331 716 Q331 643 401 611 Q471 579 629 579 Z M452 1098 L427 1439 L620 1439 L594 1098 L452 1098 Z " />
<glyph glyph-name="etatonos" unicode="&#x3ae;" horiz-adv-x="1119" d="M134 990 L345 990 L345 861 Q463 1013 654 1013 Q829 1013 917 916 Q989 837 989 702 L989 -366 L771 -366 L771 644 Q771 737 717 786 Q670 828 590 828 Q479 828 412 753 Q352 688 352 566 L352 0 L134 0 L134 990 Z M490 1098 L465 1439 L658 1439 L633 1098 L490 1098 Z " />
<glyph glyph-name="iotatonos" unicode="&#x3af;" horiz-adv-x="493" d="M355 990 L355 0 L137 0 L137 990 L355 990 Z M175 1098 L149 1439 L342 1439 L317 1098 L175 1098 Z " />
<glyph glyph-name="upsilondieresistonos" unicode="&#x3b0;" horiz-adv-x="1116" d="M131 990 L349 990 L349 378 Q349 242 396 193 Q448 140 558 140 Q672 140 720 194.5 Q768 249 768 378 L768 990 L986 990 L986 373 Q986 183 919 99 Q869 36 773.5 0.5 Q678 -35 558 -35 Q388 -35 279 31 Q197 79 164 156 Q131 233 131 373 L131 990 Z M221 1148 L221 1364 L401 1364 L401 1148 L221 1148 Z M716 1148 L716 1364 L896 1364 L896 1148 L716 1148 Z M487 1098 L462 1439 L655 1439 L630 1098 L487 1098 Z " />
<glyph glyph-name="alpha" unicode="&#x3b1;" horiz-adv-x="1269" d="M1216 990 L1023 511 L1242 0 L1003 0 L905 278 Q852 164 796 98 Q686 -35 503 -35 Q293 -35 186 114 Q82 261 82 477 Q82 680 176 830 Q237 926 336 976 Q417 1016 515 1016 Q644 1016 735.5 950.5 Q827 885 901 740 L986 990 L1216 990 Z M815 511 Q754 685 706 748 Q635 842 539 842 Q428 842 364 745 Q297 643 297 487 Q297 332 364 232 Q425 140 530 140 Q624 140 685.5 220 Q747 300 815 511 Z " />
<glyph glyph-name="beta" unicode="&#x3b2;" horiz-adv-x="1168" d="M119 -366 L119 872 Q119 1117 227 1236 Q352 1373 585 1373 Q807 1373 938 1259 Q1045 1166 1045 1013 Q1045 896 985 817.5 Q925 739 806 699 Q1100 642 1100 364 Q1100 191 984 82 Q869 -27 670 -27 Q448 -27 337 130 L337 -366 L119 -366 Z M510 602 L510 762 L582 762 Q686 762 751 818 Q824 881 824 985 Q824 1081 759 1141 Q695 1198 589 1198 Q338 1198 337 904 L337 495 Q337 331 384 263 Q465 148 618 148 Q737 148 807 216 Q879 285 879 390 Q879 514 781 567 Q718 602 630 602 L510 602 Z " />
<glyph glyph-name="gamma" unicode="&#x3b3;" horiz-adv-x="1012" d="M984 990 L615 26 L615 -366 L405 -366 L405 26 L29 990 L266 990 L511 277 L747 990 L984 990 Z " />
<glyph glyph-name="delta" unicode="&#x3b4;" horiz-adv-x="1134" d="M469 1009 L199 1203 L199 1365 L930 1365 L930 1190 L498 1190 L863 933 Q1067 789 1067 494 Q1067 242 918 100 Q785 -27 569 -27 Q330 -27 195 123 Q67 267 67 495 Q67 703 175 841 Q283 979 469 1009 Z M571 842 Q445 842 369 755 Q288 663 288 494 Q288 324 367 234 Q444 148 570 148 Q687 148 758 224 Q846 317 846 497 Q846 663 769 753 Q694 842 571 842 Z " />
<glyph glyph-name="epsilon" unicode="&#x3b5;" horiz-adv-x="1038" d="M968 655 L750 655 Q714 843 504 843 Q411 843 354 811 Q290 775 290 702 Q290 646 336 614.5 Q382 583 464 583 L582 583 L582 420 L464 420 Q276 420 276 291 Q276 224 332.5 186 Q389 148 489 148 Q609 148 675 202 Q741 256 758 369 L975 369 Q949 187 831 81 Q767 24 688 -1.5 Q609 -27 495 -27 Q293 -27 177 50 Q121 87 88 149 Q55 211 55 280 Q55 368 101 423.5 Q147 479 245 512 Q69 561 69 725 Q69 792 104 852.5 Q139 913 199 950 Q309 1018 492 1018 Q639 1018 737.5 977.5 Q836 937 897 852 Q956 771 968 655 Z " />
<glyph glyph-name="zeta" unicode="&#x3b6;" horiz-adv-x="901" d="M896 1206 Q623 1014 497 883 Q291 668 291 457 Q291 309 372 225 Q453 141 608 127 L681 121 Q900 101 900 -36 Q900 -151 773 -366 L562 -366 Q631 -242 654.5 -186.5 Q678 -131 678 -92 Q678 -43 611 -37 L540 -30 Q431 -21 369.5 -0.5 Q308 20 249 65 Q164 131 117 231 Q70 331 70 447 Q70 578 119.5 689 Q169 800 279 917 Q391 1036 591 1190 L157 1190 L157 1365 L896 1365 L896 1206 Z " />
<glyph glyph-name="eta" unicode="&#x3b7;" horiz-adv-x="1119" d="M134 990 L345 990 L345 861 Q463 1013 654 1013 Q829 1013 917 916 Q989 837 989 702 L989 -366 L771 -366 L771 644 Q771 737 717 786 Q670 828 590 828 Q479 828 412 753 Q352 688 352 566 L352 0 L134 0 L134 990 Z " />
<glyph glyph-name="theta" unicode="&#x3b8;" horiz-adv-x="1134" d="M843 753 Q834 904 797 1001 Q759 1101 696 1152 Q637 1199 567 1199 Q449 1199 376 1081 Q303 963 291 753 L843 753 Z M843 593 L291 593 Q300 438 338 341 Q374 247 434 197 Q494 147 570 147 Q728 147 801 355 Q834 451 843 593 Z M576 1373 Q724 1373 839 1281 Q968 1179 1025 989 Q1066 852 1066 672 Q1066 340 917 143 Q789 -27 569 -27 Q327 -27 195 175 Q67 372 67 671 Q67 966 187 1156 Q324 1373 576 1373 Z " />
<glyph glyph-name="iota" unicode="&#x3b9;" horiz-adv-x="493" d="M355 990 L355 0 L137 0 L137 990 L355 990 Z " />
<glyph glyph-name="kappa" unicode="&#x3ba;" horiz-adv-x="1050" d="M134 990 L352 990 L352 600 L722 990 L983 990 L634 635 L1022 0 L765 0 L481 484 L352 352 L352 0 L134 0 L134 990 Z " />
<glyph glyph-name="lambda" unicode="&#x3bb;" horiz-adv-x="993" d="M30 0 L381 936 L215 1365 L440 1365 L969 0 L731 0 L492 686 L257 0 L30 0 Z " />
<glyph glyph-name="uni03BC" unicode="&#x3bc;" horiz-adv-x="1037" d="M90 -366 L90 990 L292 990 L292 447 Q292 371 298.5 333.5 Q305 296 324 259 Q352 208 404 177 Q456 146 514 146 Q642 146 704 271 Q745 356 745 461 L745 990 L947 990 L947 0 L745 0 L745 124 Q674 -23 507 -23 Q372 -23 292 75 L292 -366 L90 -366 Z " />
<glyph glyph-name="nu" unicode="&#x3bd;" horiz-adv-x="948" d="M946 990 L598 0 L357 0 L2 990 L236 990 L387 541 Q445 370 482 205 Q511 335 579 544 L724 990 L946 990 Z " />
<glyph glyph-name="xi" unicode="&#x3be;" horiz-adv-x="914" d="M773 -366 L562 -366 Q631 -241 654.5 -186 Q678 -131 678 -92 Q678 -43 612 -37 L479 -24 Q312 -7 218 51 Q69 143 69 337 Q69 472 145.5 556.5 Q222 641 369 668 Q150 736 150 938 Q150 1025 195.5 1096.5 Q241 1168 314 1197 L157 1197 L157 1365 L896 1365 L896 1197 L718 1197 Q574 1197 488 1149 Q373 1084 373 952 Q373 848 444.5 791 Q516 734 646 734 L744 734 L744 574 L593 574 Q293 574 293 353 Q293 227 390 173 Q451 139 574 129 L681 121 Q900 104 900 -36 Q900 -152 773 -366 Z " />
<glyph glyph-name="omicron" unicode="&#x3bf;" horiz-adv-x="1146" d="M583 1018 Q801 1018 938 874 Q1070 734 1070 496 Q1070 242 922 99 Q791 -28 577 -28 Q338 -28 205 124 Q145 191 111.5 289 Q78 387 78 494 Q78 718 198 857 Q338 1018 583 1018 Z M579 849 Q424 849 349 717 Q299 630 299 493 Q299 296 398 207 Q472 141 577 141 Q695 141 768 223 Q804 264 826.5 340 Q849 416 849 498 Q849 591 823 666 Q797 741 750 783 Q676 849 579 849 Z " />
<glyph glyph-name="rho" unicode="&#x3c1;" horiz-adv-x="1158" d="M109 -366 L109 500 Q109 744 232 876 Q302 950 390 984 Q478 1018 600 1018 Q755 1018 849 966 Q1090 836 1090 492 Q1090 262 975 122 Q852 -27 649 -27 Q437 -27 327 130 L327 -366 L109 -366 Z M597 843 Q470 843 394 753 Q319 665 319 496 Q319 322 399 233 Q475 148 597 148 Q720 148 792 235 Q869 328 869 491 Q869 659 790 755 Q718 843 597 843 Z " />
<glyph glyph-name="uni03C2" unicode="&#x3c2;" horiz-adv-x="1057" d="M562 -366 Q631 -242 654.5 -186.5 Q678 -131 678 -92 Q678 -43 612 -37 L540 -30 Q433 -21 371 0.5 Q309 22 249 69 Q70 212 70 483 Q70 744 221 889 Q354 1017 561 1017 Q752 1017 868.5 921.5 Q985 826 1005 655 L787 655 Q769 746 711.5 794 Q654 842 564 842 Q437 842 364 748.5 Q291 655 291 494 Q291 320 368 231 Q445 142 609 127 L682 121 Q900 101 900 -36 Q900 -150 773 -366 L562 -366 Z " />
<glyph glyph-name="sigma" unicode="&#x3c3;" horiz-adv-x="1176" d="M911 845 Q1067 718 1067 483 Q1067 242 918 100 Q785 -27 569 -27 Q330 -27 195 124 Q67 267 67 496 Q67 713 187 855 Q262 944 358 979 Q463 1017 596 1017 Q639 1017 669 1015 L1135 990 L1135 830 L911 845 Z M571 842 Q445 842 369 755 Q288 663 288 494 Q288 324 367 234 Q444 148 570 148 Q687 148 758 224 Q846 317 846 497 Q846 663 769 753 Q694 842 571 842 Z " />
<glyph glyph-name="tau" unicode="&#x3c4;" horiz-adv-x="923" d="M352 0 L352 811 L35 811 L35 990 L888 990 L888 811 L570 811 L570 0 L352 0 Z " />
<glyph glyph-name="upsilon" unicode="&#x3c5;" horiz-adv-x="1116" d="M131 990 L349 990 L349 378 Q349 242 396 193 Q448 140 558 140 Q672 140 720 194.5 Q768 249 768 378 L768 990 L986 990 L986 373 Q986 183 919 99 Q869 36 773.5 0.5 Q678 -35 558 -35 Q388 -35 279 31 Q197 79 164 156 Q131 233 131 373 L131 990 Z " />
<glyph glyph-name="phi" unicode="&#x3c6;" horiz-adv-x="1300" d="M545 -366 L545 -22 Q374 -10 266 63 Q178 123 131 214 Q68 338 68 491 Q68 710 189 848 Q223 887 278 928 L394 808 Q330 732 303 659.5 Q276 587 276 491 Q276 339 346.5 247.5 Q417 156 545 142 L545 1004 Q622 1008 655 1008 Q887 1008 1027 922 Q1117 867 1167 768 Q1231 642 1231 494 Q1231 278 1123 146 Q1001 -4 754 -22 L754 -366 L545 -366 Z M754 845 L754 142 Q842 151 899 195 Q1023 289 1023 493 Q1023 697 899 792 Q841 836 754 845 Z " />
<glyph glyph-name="chi" unicode="&#x3c7;" horiz-adv-x="988" d="M494 533 L716 979 L949 979 L608 340 L981 -366 L740 -366 L490 139 L241 -366 L8 -366 L377 332 L31 979 L272 979 L494 533 Z " />
<glyph glyph-name="psi" unicode="&#x3c8;" horiz-adv-x="1389" d="M801 -366 L587 -366 L587 -30 Q311 -20 180 150 Q139 205 124 268.5 Q109 332 109 452 L109 990 L327 990 L327 460 Q327 313 366 251 Q430 155 587 147 L587 990 L801 990 L801 147 Q958 155 1022 251 Q1061 313 1061 460 L1061 990 L1279 990 L1279 452 Q1279 332 1264 268.5 Q1249 205 1208 150 Q1077 -20 801 -30 L801 -366 Z " />
<glyph glyph-name="omega" unicode="&#x3c9;" horiz-adv-x="1365" d="M793 530 L793 360 Q793 263 827 205.5 Q861 148 919 148 Q993 148 1034.5 232 Q1076 316 1076 465 Q1076 610 1036 712.5 Q996 815 898 923 L1045 1026 Q1162 939 1220 831 Q1297 688 1297 464 Q1297 251 1221 120 Q1182 52 1114 12 Q1045 -27 958 -27 Q754 -27 683 175 L683 174 L682 175 Q611 -27 407 -27 Q286 -27 202 48 Q68 168 68 464 Q68 664 127 795.5 Q186 927 320 1026 L467 923 Q401 851 372 801 Q289 663 289 465 Q289 308 338 217 Q375 148 446 148 Q506 148 535 200 Q572 265 572 360 L572 530 L793 530 Z " />
<glyph glyph-name="iotadieresis" unicode="&#x3ca;" horiz-adv-x="471" d="M128 0 L128 997 L339 997 L339 0 L128 0 Z M166 1365 L166 1154 L-34 1154 L-34 1365 L166 1365 Z M492 1365 L492 1154 L292 1154 L292 1365 L492 1365 Z " />
<glyph glyph-name="upsilondieresis" unicode="&#x3cb;" horiz-adv-x="1095" d="M125 997 L336 997 L336 388 Q336 255 391 208 Q452 156 547 156 Q610 156 660 181 Q710 206 734 249 Q758 291 758 399 L758 997 L968 997 L968 393 Q968 251 942 184 Q901 76 784 23 Q689 -21 550 -21 Q290 -21 187 120 Q125 205 125 393 L125 997 Z M485 1365 L485 1154 L285 1154 L285 1365 L485 1365 Z M811 1365 L811 1154 L611 1154 L611 1365 L811 1365 Z " />
<glyph glyph-name="omicrontonos" unicode="&#x3cc;" horiz-adv-x="1146" d="M583 1018 Q801 1018 938 874 Q1070 734 1070 496 Q1070 242 922 99 Q791 -28 577 -28 Q338 -28 205 124 Q145 191 111.5 289 Q78 387 78 494 Q78 718 198 857 Q338 1018 583 1018 Z M579 849 Q424 849 349 717 Q299 630 299 493 Q299 296 398 207 Q472 141 577 141 Q695 141 768 223 Q804 264 826.5 340 Q849 416 849 498 Q849 591 823 666 Q797 741 750 783 Q676 849 579 849 Z M503 1098 L477 1439 L671 1439 L645 1098 L503 1098 Z " />
<glyph glyph-name="upsilontonos" unicode="&#x3cd;" horiz-adv-x="1116" d="M131 990 L349 990 L349 378 Q349 242 396 193 Q448 140 558 140 Q672 140 720 194.5 Q768 249 768 378 L768 990 L986 990 L986 373 Q986 183 919 99 Q869 36 773.5 0.5 Q678 -35 558 -35 Q388 -35 279 31 Q197 79 164 156 Q131 233 131 373 L131 990 Z M487 1098 L462 1439 L655 1439 L630 1098 L487 1098 Z " />
<glyph glyph-name="omegatonos" unicode="&#x3ce;" horiz-adv-x="1405" d="M631 1098 L606 1439 L799 1439 L773 1098 L631 1098 Z M702 131 L702 132 Q607 -35 439 -35 Q248 -35 149 142 Q83 262 83 456 Q83 591 116 689.5 Q149 788 248 946 L393 803 Q360 737 347 702 Q304 590 304 446 Q304 303 347 221 Q390 139 464 139 Q538 139 569 203 Q588 240 594 280.5 Q600 321 600 405 L600 496 L804 496 L804 405 Q804 321 810 280.5 Q816 240 835 203 Q866 139 940 139 Q1012 139 1053 213 Q1100 298 1100 446 Q1100 550 1081.5 624.5 Q1063 699 1011 803 L1157 946 Q1255 787 1288 689 Q1321 591 1321 456 Q1321 262 1255 142 Q1156 -35 965 -35 Q796 -35 702 132 L702 131 Z " />
<glyph glyph-name="theta1" unicode="&#x3d1;" horiz-adv-x="1199" d="M149 407 L55 407 L55 567 L357 567 Q356 525 356 503 Q356 148 582 148 Q741 148 807 346 Q842 451 842 573 Q842 579 842 593 Q582 594 433 655 Q290 713 219 814 Q151 911 151 1031 Q151 1204 284 1300 Q384 1373 533 1373 Q752 1373 894 1233 Q962 1166 998.5 1080 Q1035 994 1055 854 Q1064 785 1064 753 L1172 753 L1172 593 L1065 593 Q1057 393 971 229 Q917 125 848 66 Q738 -27 574 -27 Q312 -27 198 217 Q159 300 149 407 Z M842 753 Q842 904 788 1023 Q709 1198 552 1198 Q470 1198 421 1150.5 Q372 1103 372 1023 Q372 890 491 821.5 Q610 753 842 753 Z " />
<glyph glyph-name="phi1" unicode="&#x3d5;" horiz-adv-x="1295" d="M545 -365 L545 -23 Q374 -10 266 63 Q178 122 131 214 Q68 338 68 490 Q68 702 177 837 Q299 989 545 1007 L545 1365 L746 1365 L746 1007 Q914 995 1022 922 Q1112 861 1159 767 Q1223 642 1223 490 Q1223 278 1115 145 Q993 -4 746 -23 L746 -365 L545 -365 Z M545 845 Q456 836 398 791 Q272 697 272 493 Q272 288 398 194 Q456 151 545 141 L545 845 Z M746 845 L746 142 Q835 151 893 194 Q1019 288 1019 493 Q1019 697 893 791 Q835 836 746 845 Z " />
<glyph glyph-name="uni0400" unicode="&#x400;" horiz-adv-x="1221" d="M1125 1365 L1125 1160 L381 1160 L381 801 L1071 801 L1071 607 L381 607 L381 205 L1138 205 L1138 0 L141 0 L141 1365 L1125 1365 Z M336 1742 L592 1742 L752 1481 L594 1481 L336 1742 Z " />
<glyph glyph-name="afii10023" unicode="&#x401;" horiz-adv-x="1225" d="M1131 1365 L1131 1160 L385 1160 L385 799 L1076 799 L1076 608 L385 608 L385 205 L1143 205 L1143 0 L145 0 L145 1365 L1131 1365 Z M966 1709 L966 1506 L748 1506 L748 1709 L966 1709 Z M540 1709 L540 1506 L322 1506 L322 1709 L540 1709 Z " />
<glyph glyph-name="afii10051" unicode="&#x402;" horiz-adv-x="1548" d="M1138 1365 L1138 1160 L609 1160 L609 747 Q671 808 728 837 Q840 894 976 894 Q1176 894 1306 776 Q1465 630 1465 305 Q1465 -82 1269 -256 Q1143 -367 929 -366 L929 -192 Q1056 -182 1134 -88 Q1225 21 1225 263 Q1225 697 922 697 Q752 697 669 582 Q609 500 609 385 L609 0 L369 0 L369 1160 L27 1160 L27 1365 L1138 1365 Z " />
<glyph glyph-name="afii10052" unicode="&#x403;" horiz-adv-x="1098" d="M881 1742 L623 1481 L466 1481 L625 1742 L881 1742 Z M1065 1160 L368 1160 L368 0 L128 0 L128 1365 L1065 1365 L1065 1160 Z " />
<glyph glyph-name="afii10053" unicode="&#x404;" horiz-adv-x="1373" d="M805 594 L325 594 Q345 438 405 342 Q512 169 726 169 Q874 169 963 241 Q1052 313 1073 450 L1311 450 Q1297 264 1176 132 Q1026 -33 705 -33 Q394 -33 224 194 Q79 387 79 683 Q79 995 258 1200 Q347 1303 459.5 1350.5 Q572 1398 724 1398 Q981 1398 1138 1261 Q1207 1200 1250 1120 Q1293 1040 1301 955 L1063 955 Q1038 1072 954.5 1134 Q871 1196 739 1196 Q391 1196 328 794 L805 794 L805 594 Z " />
<glyph glyph-name="afii10054" unicode="&#x405;" horiz-adv-x="1245" d="M1117 963 L887 963 Q861 1205 586 1205 Q516 1205 457.5 1185.5 Q399 1166 368 1133 Q324 1083 324 1013 Q324 956 356 919 Q402 866 586 827 Q847 772 949 723 Q1170 618 1170 393 Q1170 234 1064 121 Q921 -32 621 -32 Q350 -32 200 94.5 Q50 221 44 453 L281 453 Q287 306 375 237 Q470 160 634 160 Q752 160 824 201 Q928 260 928 376 Q928 458 861 503.5 Q794 549 609 593 Q436 633 344.5 667 Q253 701 202 743 Q93 832 93 994 Q93 1214 287 1327 Q408 1397 601 1397 Q858 1397 1000 1259 Q1110 1151 1117 963 Z " />
<glyph glyph-name="afii10055" unicode="&#x406;" horiz-adv-x="531" d="M385 1365 L385 0 L145 0 L145 1365 L385 1365 Z " />
<glyph glyph-name="afii10056" unicode="&#x407;" horiz-adv-x="526" d="M383 1365 L383 0 L143 0 L143 1365 L383 1365 Z M585 1709 L585 1506 L367 1506 L367 1709 L585 1709 Z M159 1709 L159 1506 L-59 1506 L-59 1709 L159 1709 Z " />
<glyph glyph-name="afii10057" unicode="&#x408;" horiz-adv-x="999" d="M874 1365 L874 444 Q874 336 861.5 269.5 Q849 203 819 150 Q715 -32 453 -32 Q306 -32 193 30 Q21 125 21 422 Q21 440 22 481 L249 481 Q249 383 255 330 Q273 165 449 165 Q561 165 603 239 Q634 294 634 438 L634 1365 L874 1365 Z " />
<glyph glyph-name="afii10058" unicode="&#x409;" horiz-adv-x="2054" d="M950 1166 L457 1166 L457 402 Q457 225 352 107 Q256 0 121 0 L23 0 L23 199 Q115 204 168 260.5 Q221 317 221 410 L221 1365 L1186 1365 L1186 819 L1539 819 Q1689 819 1791 760 Q1984 650 1984 412 Q1984 220 1856 104 Q1740 0 1545 0 L950 0 L950 1166 Z M1186 620 L1186 199 L1531 199 Q1642 199 1696 263 Q1748 324 1748 410 Q1748 508 1690 564 Q1632 620 1531 620 L1186 620 Z " />
<glyph glyph-name="afii10059" unicode="&#x40a;" horiz-adv-x="2044" d="M975 819 L975 1365 L1215 1365 L1215 819 L1535 819 Q1654 819 1728 800 Q1802 781 1864 736 Q2016 622 2016 406 Q2016 185 1849 73 Q1787 32 1712 16 Q1637 0 1503 0 L975 0 L975 621 L378 621 L378 0 L138 0 L138 1365 L378 1365 L378 819 L975 819 Z M1215 201 L1481 201 Q1623 201 1684 237 Q1776 292 1776 410 Q1776 522 1697 578 Q1637 621 1503 621 L1215 621 L1215 201 Z " />
<glyph glyph-name="afii10060" unicode="&#x40b;" horiz-adv-x="1502" d="M1399 0 L1159 0 L1159 387 Q1159 550 1110 629 Q1056 718 928 718 Q774 718 683 599 Q638 541 613 435 L613 0 L373 0 L373 1160 L31 1160 L31 1365 L1142 1365 L1142 1160 L613 1160 L613 765 Q757 924 982 924 Q1219 924 1325 755 Q1399 635 1399 404 L1399 0 Z " />
<glyph glyph-name="afii10061" unicode="&#x40c;" horiz-adv-x="1322" d="M1026 1742 L769 1481 L611 1481 L771 1742 L1026 1742 Z M1306 1365 L750 822 L1342 0 L1038 0 L584 653 L385 460 L385 0 L145 0 L145 1365 L385 1365 L385 893 L383 736 L486 847 L997 1365 L1306 1365 Z " />
<glyph glyph-name="uni040D" unicode="&#x40d;" horiz-adv-x="1399" d="M136 0 L136 1365 L377 1365 L377 397 L1038 1365 L1263 1365 L1263 0 L1023 0 L1023 965 L362 0 L136 0 Z M396 1742 L652 1742 L812 1481 L654 1481 L396 1742 Z " />
<glyph glyph-name="afii10062" unicode="&#x40e;" horiz-adv-x="1160" d="M1173 1365 L642 174 Q605 92 538 46 Q471 0 387 0 L165 0 L165 199 L343 199 Q394 199 417 225 Q425 234 459 305 L476 342 L7 1365 L265 1365 L596 595 L916 1365 L1173 1365 Z M916 1742 Q880 1476 602 1476 Q430 1476 349 1588 Q303 1651 299 1742 L440 1742 Q470 1614 611 1614 Q681 1614 718.5 1643 Q756 1672 775 1742 L916 1742 Z " />
<glyph glyph-name="afii10145" unicode="&#x40f;" horiz-adv-x="1341" d="M136 0 L136 1365 L373 1365 L373 199 L968 199 L968 1365 L1204 1365 L1204 0 L787 0 L787 -304 L551 -304 L551 0 L136 0 Z " />
<glyph glyph-name="afii10017" unicode="&#x410;" horiz-adv-x="1323" d="M6 0 L534 1369 L791 1369 L1316 0 L1059 0 L928 362 L389 362 L256 0 L6 0 Z M865 544 L754 849 Q688 1030 661 1135 Q627 1029 563 852 L451 544 L865 544 Z " />
<glyph glyph-name="afii10018" unicode="&#x411;" horiz-adv-x="1275" d="M384 1160 L384 840 L732 840 Q850 840 924.5 820.5 Q999 801 1061 754 Q1213 638 1213 416 Q1213 189 1046 75 Q984 33 908.5 16.5 Q833 0 700 0 L144 0 L144 1365 L1081 1365 L1081 1160 L384 1160 Z M384 201 L677 201 Q820 201 881 239 Q973 297 973 422 Q973 541 894 600 Q834 646 699 646 L384 646 L384 201 Z " />
<glyph glyph-name="afii10019" unicode="&#x412;" horiz-adv-x="1342" d="M145 1365 L727 1365 Q843 1365 912.5 1352 Q982 1339 1036 1308 Q1111 1265 1155 1190 Q1200 1113 1200 1023 Q1200 927 1149 851 Q1098 775 1007 736 Q1262 661 1262 401 Q1262 241 1164 133 Q1101 64 1013 32 Q925 0 797 0 L145 0 L145 1365 Z M385 1169 L385 798 L683 798 Q816 798 878 830 Q962 874 962 986 Q962 1094 882 1139 Q828 1169 692 1169 L385 1169 Z M385 623 L385 196 L716 196 Q870 196 929 230 Q1020 281 1020 407 Q1020 535 924 588 Q888 608 838 615.5 Q788 623 693 623 L385 623 Z " />
<glyph glyph-name="afii10020" unicode="&#x413;" horiz-adv-x="1095" d="M1065 1160 L368 1160 L368 0 L128 0 L128 1365 L1065 1365 L1065 1160 Z " />
<glyph glyph-name="afii10021" unicode="&#x414;" horiz-adv-x="1428" d="M321 1365 L1264 1365 L1264 205 L1428 205 L1428 -273 L1201 -273 L1201 0 L227 0 L227 -273 L0 -273 L0 205 Q135 205 196 373 Q275 591 321 1365 Z M349 205 L1024 205 L1024 1160 L547 1160 Q526 865 476 522 Q459 405 430.5 333.5 Q402 262 349 205 Z " />
<glyph glyph-name="afii10022" unicode="&#x415;" horiz-adv-x="1225" d="M1131 1365 L1131 1160 L385 1160 L385 799 L1076 799 L1076 608 L385 608 L385 205 L1143 205 L1143 0 L145 0 L145 1365 L1131 1365 Z " />
<glyph glyph-name="afii10024" unicode="&#x416;" horiz-adv-x="1928" d="M850 0 L850 631 L659 631 L324 0 L68 0 L453 728 L151 1365 L400 1365 L653 830 L850 830 L850 1365 L1086 1365 L1086 830 L1274 830 L1527 1365 L1775 1365 L1475 728 L1860 0 L1607 0 L1271 631 L1086 631 L1086 0 L850 0 Z " />
<glyph glyph-name="afii10025" unicode="&#x417;" horiz-adv-x="1227" d="M567 594 L567 788 L724 788 Q827 788 890 834 Q925 859 946 902 Q967 945 967 993 Q967 1102 868 1153 Q784 1196 647 1196 Q456 1196 368 1083 Q325 1027 310 955 L72 955 Q89 1133 235 1261 Q392 1398 660 1398 Q911 1398 1056 1303 Q1213 1201 1213 1018 Q1213 896 1148 812 Q1083 728 965 697 Q1226 634 1226 397 Q1226 215 1078 94 Q924 -33 666 -33 Q329 -33 179 152 Q75 280 62 450 L300 450 Q317 339 376 273 Q469 169 649 169 Q805 169 899 249 Q980 317 980 414 Q980 519 896 563 Q823 602 736 597 Q729 597 728 597 L567 594 Z " />
<glyph glyph-name="afii10026" unicode="&#x418;" horiz-adv-x="1399" d="M136 0 L136 1365 L377 1365 L377 397 L1038 1365 L1263 1365 L1263 0 L1023 0 L1023 965 L362 0 L136 0 Z " />
<glyph glyph-name="afii10027" unicode="&#x419;" horiz-adv-x="1399" d="M136 0 L136 1365 L377 1365 L377 397 L1038 1365 L1263 1365 L1263 0 L1023 0 L1023 965 L362 0 L136 0 Z M1008 1742 Q972 1476 694 1476 Q522 1476 441 1588 Q396 1651 391 1742 L532 1742 Q563 1614 703 1614 Q773 1614 810 1643 Q847 1672 867 1742 L1008 1742 Z " />
<glyph glyph-name="afii10028" unicode="&#x41a;" horiz-adv-x="1322" d="M1306 1365 L750 822 L1342 0 L1038 0 L584 653 L385 460 L385 0 L145 0 L145 1365 L385 1365 L385 893 L383 736 L486 847 L997 1365 L1306 1365 Z " />
<glyph glyph-name="afii10029" unicode="&#x41b;" horiz-adv-x="1323" d="M1187 0 L951 0 L951 1166 L457 1166 L457 401 Q457 224 352 107 Q256 0 121 0 L23 0 L23 198 Q115 203 168 259.5 Q221 316 221 409 L221 1365 L1187 1365 L1187 0 Z " />
<glyph glyph-name="afii10030" unicode="&#x41c;" horiz-adv-x="1713" d="M1566 1365 L1566 0 L1337 0 L1338 510 Q1339 858 1358 1160 Q1304 966 1226 748 L958 0 L762 0 L483 737 Q408 937 355 1150 Q372 787 373 529 L374 0 L145 0 L145 1365 L482 1365 L743 652 Q810 468 861 263 Q911 457 979 652 L1229 1365 L1566 1365 Z " />
<glyph glyph-name="afii10031" unicode="&#x41d;" horiz-adv-x="1410" d="M1263 1365 L1263 0 L1023 0 L1023 616 L385 616 L385 0 L145 0 L145 1365 L385 1365 L385 821 L1023 821 L1023 1365 L1263 1365 Z " />
<glyph glyph-name="afii10032" unicode="&#x41e;" horiz-adv-x="1490" d="M747 1397 Q1047 1397 1232 1191 Q1408 996 1408 674 Q1408 563 1376 445.5 Q1344 328 1292 250 Q1104 -32 746 -32 Q570 -32 427.5 42 Q285 116 196 253 Q82 428 82 683 Q82 975 228 1158 Q419 1397 747 1397 Z M751 1196 Q575 1196 462 1082 Q324 943 324 687 Q324 503 398 365 Q445 279 539 224 Q634 169 748 169 Q930 169 1044 297 Q1101 361 1133.5 465.5 Q1166 570 1166 687 Q1166 871 1092 998 Q977 1196 751 1196 Z " />
<glyph glyph-name="afii10033" unicode="&#x41f;" horiz-adv-x="1381" d="M1003 1160 L378 1160 L378 0 L138 0 L138 1365 L1243 1365 L1243 0 L1003 0 L1003 1160 Z " />
<glyph glyph-name="afii10034" unicode="&#x420;" horiz-adv-x="1260" d="M145 1365 L692 1365 Q884 1365 974 1323 Q1083 1272 1141.5 1176 Q1200 1080 1200 953 Q1200 696 1008 586 Q907 527 723 527 L385 527 L385 0 L145 0 L145 1365 Z M385 1160 L385 717 L691 717 Q849 717 907 784 Q961 847 961 939 Q961 1071 863 1127 Q804 1160 670 1160 L385 1160 Z " />
<glyph glyph-name="afii10035" unicode="&#x421;" horiz-adv-x="1392" d="M1330 521 Q1309 250 1122 95 Q970 -32 728 -32 Q537 -32 398 49 Q258 131 184 265 Q82 451 82 680 Q82 911 181 1082 Q364 1397 741 1397 Q1070 1397 1236 1159 Q1309 1055 1320 932 L1081 932 Q1062 1018 1012 1077 Q914 1196 736 1196 Q511 1196 403 1008 Q324 871 324 683 Q324 502 401 357 Q449 267 537 217 Q623 169 733 169 Q886 169 977 258.5 Q1068 348 1091 521 L1330 521 Z " />
<glyph glyph-name="afii10036" unicode="&#x422;" horiz-adv-x="1175" d="M1144 1365 L1144 1160 L707 1160 L707 0 L467 0 L467 1160 L32 1160 L32 1365 L1144 1365 Z " />
<glyph glyph-name="afii10037" unicode="&#x423;" horiz-adv-x="1160" d="M1173 1365 L642 174 Q605 92 538 46 Q471 0 387 0 L165 0 L165 199 L343 199 Q394 199 417 225 Q425 234 459 305 L476 342 L7 1365 L265 1365 L596 595 L916 1365 L1173 1365 Z " />
<glyph glyph-name="afii10038" unicode="&#x424;" horiz-adv-x="1701" d="M964 0 L737 0 L737 151 Q467 155 300 258 Q68 400 68 683 Q68 931 243.5 1070 Q419 1209 737 1214 L737 1365 L964 1365 L964 1214 Q1235 1210 1401 1107 Q1633 964 1633 683 Q1633 434 1457.5 295 Q1282 156 964 151 L964 0 Z M737 1025 Q566 1023 457 966 Q369 920 328 834 Q295 765 295 683 Q295 466 490 383 Q589 342 737 340 L737 1025 Z M964 1025 L964 340 Q1135 342 1243 399 Q1332 445 1373 531 Q1406 601 1406 683 Q1406 899 1211 982 Q1112 1023 964 1025 Z " />
<glyph glyph-name="afii10039" unicode="&#x425;" horiz-adv-x="1232" d="M1202 1365 L757 709 L1236 0 L945 0 L704 373 Q653 453 613 533 Q579 471 517 375 L270 0 L-5 0 L477 709 L29 1365 L313 1365 L512 1052 Q582 942 618 865 Q666 955 726 1047 L934 1365 L1202 1365 Z " />
<glyph glyph-name="afii10040" unicode="&#x426;" horiz-adv-x="1406" d="M1243 205 L1406 205 L1406 -273 L1179 -273 L1179 0 L138 0 L138 1365 L378 1365 L378 205 L1003 205 L1003 1365 L1243 1365 L1243 205 Z " />
<glyph glyph-name="afii10041" unicode="&#x427;" horiz-adv-x="1332" d="M1196 0 L960 0 L960 490 Q755 437 584 437 Q404 437 263 513 Q185 555 139 637 Q93 718 93 818 L93 1365 L330 1365 L330 822 Q330 745 382 701 Q415 672 477.5 655 Q540 638 610 638 Q766 638 960 692 L960 1365 L1196 1365 L1196 0 Z " />
<glyph glyph-name="afii10042" unicode="&#x428;" horiz-adv-x="1890" d="M1512 205 L1512 1365 L1752 1365 L1752 0 L138 0 L138 1365 L378 1365 L378 205 L825 205 L825 1365 L1065 1365 L1065 205 L1512 205 Z " />
<glyph glyph-name="afii10043" unicode="&#x429;" horiz-adv-x="1916" d="M1752 205 L1916 205 L1916 -273 L1689 -273 L1689 0 L138 0 L138 1365 L378 1365 L378 205 L825 205 L825 1365 L1065 1365 L1065 205 L1512 205 L1512 1365 L1752 1365 L1752 205 Z " />
<glyph glyph-name="afii10044" unicode="&#x42a;" horiz-adv-x="1544" d="M27 1365 L652 1365 L652 840 L999 840 Q1118 840 1192.5 820.5 Q1267 801 1328 754 Q1481 638 1481 416 Q1481 189 1314 75 Q1252 33 1176.5 16.5 Q1101 0 968 0 L412 0 L412 1160 L27 1160 L27 1365 Z M652 201 L945 201 Q1088 201 1149 239 Q1241 297 1241 422 Q1241 541 1162 600 Q1101 646 967 646 L652 646 L652 201 Z " />
<glyph glyph-name="afii10045" unicode="&#x42b;" horiz-adv-x="1674" d="M1301 0 L1301 1365 L1538 1365 L1538 0 L1301 0 Z M144 0 L144 1365 L384 1365 L384 840 L731 840 Q850 840 924.5 820.5 Q999 801 1060 754 Q1213 638 1213 416 Q1213 189 1046 75 Q984 33 908.5 16.5 Q833 0 700 0 L144 0 Z M384 201 L677 201 Q820 201 881 239 Q973 297 973 422 Q973 541 894 600 Q834 646 699 646 L384 646 L384 201 Z " />
<glyph glyph-name="afii10046" unicode="&#x42c;" horiz-adv-x="1275" d="M144 0 L144 1365 L384 1365 L384 840 L731 840 Q850 840 924.5 820.5 Q999 801 1060 754 Q1213 638 1213 416 Q1213 189 1046 75 Q984 33 908.5 16.5 Q833 0 700 0 L144 0 Z M384 201 L677 201 Q820 201 881 239 Q973 297 973 422 Q973 541 894 600 Q834 646 699 646 L384 646 L384 201 Z " />
<glyph glyph-name="afii10047" unicode="&#x42d;" horiz-adv-x="1373" d="M564 594 L564 794 L1045 794 Q1012 996 910 1096 Q808 1196 634 1196 Q455 1196 368 1083 Q326 1028 310 955 L72 955 Q80 1055 141 1150 Q298 1398 650 1398 Q861 1398 1004 1299 Q1142 1204 1217.5 1042.5 Q1293 881 1293 683 Q1293 387 1148 194 Q978 -33 667 -33 Q330 -33 179 152 Q72 283 62 450 L300 450 Q318 338 376 273 Q470 169 647 169 Q818 169 919 276 Q1020 383 1048 594 L564 594 Z " />
<glyph glyph-name="afii10048" unicode="&#x42e;" horiz-adv-x="1968" d="M373 1365 L373 817 L603 817 Q634 1008 735 1144 Q917 1387 1244 1387 Q1545 1387 1723 1185 Q1816 1080 1863 924 Q1900 802 1900 672 Q1900 449 1797 263 Q1716 118 1575 39 Q1430 -43 1245 -43 Q998 -43 830 98 Q650 249 603 521 Q596 564 592 618 L373 618 L373 0 L136 0 L136 1365 L373 1365 Z M1248 1186 Q1064 1186 949 1057 Q892 993 859 889.5 Q826 786 826 672 Q826 497 903 353 Q950 264 1043 211 Q1134 158 1245 158 Q1427 158 1541 287 Q1602 354 1636 472 Q1664 570 1664 663 Q1664 851 1587 991 Q1538 1082 1448 1133 Q1355 1186 1248 1186 Z " />
<glyph glyph-name="afii10049" unicode="&#x42f;" horiz-adv-x="1392" d="M1249 1365 L1249 0 L1009 0 L1009 564 L696 564 Q593 564 535.5 543 Q478 522 450 474 Q400 390 393 174 Q389 53 358 0 L98 0 L113 18 Q135 44 144.5 96.5 Q154 149 171 339 Q188 612 375 651 Q297 679 247 730 Q149 830 149 984 Q149 1205 328 1308 Q426 1365 607 1365 L1249 1365 Z M1009 1169 L668 1169 Q516 1169 457 1120 Q388 1064 388 961 Q388 834 482 782 Q545 746 698 746 L1009 746 L1009 1169 Z " />
<glyph glyph-name="afii10065" unicode="&#x430;" horiz-adv-x="1093" d="M102 683 Q114 826 196 906 Q309 1017 535 1017 Q663 1017 759 983.5 Q855 950 901 889 Q947 828 947 703 Q947 674 943 522 L938 284 Q938 187 947 165 Q956 143 994 143 Q1011 143 1042 147 L1042 -6 Q956 -28 901 -28 Q760 -28 740 91 Q604 -29 390 -29 Q239 -29 149 51 Q59 131 59 266 Q59 409 159 484 Q214 525 270 540.5 Q326 556 502 578 Q661 598 696.5 617.5 Q732 637 732 706 Q732 856 527 856 Q421 856 371 816.5 Q321 777 308 683 L102 683 Z M729 494 Q688 473 653 464.5 Q618 456 498 440 Q363 422 321 380 Q281 340 281 276 Q281 206 328.5 167 Q376 128 462 128 Q541 128 609 157 Q677 186 706 232 Q729 269 729 378 L729 494 Z " />
<glyph glyph-name="afii10066" unicode="&#x431;" horiz-adv-x="1136" d="M320 897 Q436 1017 624 1017 Q831 1017 952 868 Q1068 724 1068 498 Q1068 242 919 100 Q786 -27 570 -27 Q334 -27 197 124 Q125 202 100 293 Q68 407 68 559 Q68 905 183 1131 Q244 1250 347 1311.5 Q450 1373 587 1373 Q633 1373 744 1359 Q778 1355 810 1355 Q865 1355 942 1373 L942 1199 Q880 1180 818 1180 Q771 1180 673 1193 Q630 1199 591 1199 Q369 1199 320 897 Z M572 842 Q446 842 370 755 Q289 663 289 494 Q289 324 368 234 Q445 148 571 148 Q688 148 759 224 Q847 317 847 497 Q847 663 770 753 Q695 842 572 842 Z " />
<glyph glyph-name="afii10067" unicode="&#x432;" horiz-adv-x="1074" d="M130 0 L130 990 L682 990 Q823 990 904 899 Q968 826 968 732 Q968 603 831 516 Q928 466 963 418 Q998 370 998 286 Q998 150 909 71 Q830 0 705 0 L130 0 Z M348 180 L644 180 Q702 180 739.5 216 Q777 252 777 309 Q777 367 739.5 404 Q702 441 644 441 L348 441 L348 180 Z M348 593 L644 593 Q690 593 718.5 623.5 Q747 654 747 703 Q747 752 718.5 781 Q690 810 644 810 L348 810 L348 593 Z " />
<glyph glyph-name="afii10068" unicode="&#x433;" horiz-adv-x="756" d="M131 0 L131 990 L746 990 L746 810 L349 810 L349 0 L131 0 Z " />
<glyph glyph-name="afii10069" unicode="&#x434;" horiz-adv-x="1181" d="M35 -195 L35 180 Q125 196 169 224 Q213 252 240 309 Q305 453 305 872 L305 990 L1027 990 L1027 180 L1116 180 L1116 -195 L896 -195 L896 0 L255 0 L255 -195 L35 -195 Z M810 180 L810 810 L521 810 L521 637 Q521 488 480.5 369.5 Q440 251 365 180 L810 180 Z " />
<glyph glyph-name="afii10070" unicode="&#x435;" horiz-adv-x="1099" d="M1014 312 Q988 203 920 123 Q793 -28 569 -28 Q333 -28 204 119 Q145 187 111.5 284.5 Q78 382 78 487 Q78 651 153 786 Q213 894 323 957 Q429 1018 559 1018 Q769 1018 900 871 Q968 795 998 692.5 Q1028 590 1028 439 L301 439 Q304 326 351 247 Q416 138 572 138 Q660 138 714.5 179 Q769 220 803 312 L1014 312 Z M805 593 Q796 690 754 752 Q685 852 556 852 Q450 852 384 784.5 Q318 717 303 593 L805 593 Z " />
<glyph glyph-name="afii10072" unicode="&#x436;" horiz-adv-x="1499" d="M645 0 L645 455 L497 455 L275 0 L40 0 L303 550 L101 990 L334 990 L497 635 L645 635 L645 990 L863 990 L863 635 L1003 635 L1167 990 L1400 990 L1197 550 L1460 0 L1226 0 L1002 455 L863 455 L863 0 L645 0 Z " />
<glyph glyph-name="afii10073" unicode="&#x437;" horiz-adv-x="989" d="M70 655 Q83 771 141 852 Q198 931 272 965 Q387 1018 547 1018 Q730 1018 840 950 Q899 913 934.5 852 Q970 791 970 725 Q970 561 793 512 Q876 485 916 447 Q984 384 984 280 Q984 211 950.5 149 Q917 87 862 50 Q746 -27 544 -27 Q421 -27 337 3 Q253 33 187 100 Q87 204 64 369 L280 369 Q293 288 333 235 Q399 148 549 148 Q638 148 695 179 Q763 216 763 291 Q763 420 574 420 L457 420 L457 583 L574 583 Q657 583 703 614.5 Q749 646 749 702 Q749 769 692.5 806 Q636 843 534 843 Q325 843 289 655 L70 655 Z " />
</font>
</svg>
