<?xml version="1.0" encoding="UTF-8"?>
<svg xmlns="http://www.w3.org/2000/svg" xmlns:xlink="http://www.w3.org/1999/xlink" version="1.2" >
<font id="NimbusSanNov">
<font-face  font-family="NimbusSanNov" units-per-em="2048" ascent="1682" descent="-366" font-style="normal" font-weight="400" font-stretch="normal" cap-height="1365" x-height="986" underline-position="-197" underline-thickness="89" />
<missing-glyph  horiz-adv-x="512" d="M51 0 L51 1365 L461 1365 L461 0 L51 0 Z M410 51 L410 1314 L102 1314 L102 51 L410 51 Z " />
<glyph glyph-name="space" unicode="&#x20;" horiz-adv-x="512" d="" />
<glyph glyph-name="exclam" unicode="&#x21;" horiz-adv-x="539" d="M355 1365 L355 965 L325 343 L254 343 L225 965 L225 1365 L355 1365 Z M361 191 L361 0 L218 0 L218 191 L361 191 Z " />
<glyph glyph-name="quotedbl" unicode="&#x22;" horiz-adv-x="582" d="M205 818 L110 818 L93 1365 L223 1365 L205 818 Z M471 818 L377 818 L359 1365 L489 1365 L471 818 Z " />
<glyph glyph-name="numbersign" unicode="&#x23;" horiz-adv-x="1120" d="M736 471 L679 68 L591 68 L647 471 L408 471 L352 68 L263 68 L320 471 L67 471 L79 558 L332 558 L364 785 L111 785 L123 872 L376 872 L428 1244 L517 1244 L465 872 L704 872 L756 1244 L845 1244 L792 872 L1052 872 L1040 785 L780 785 L748 558 L1008 558 L996 471 L736 471 Z M691 785 L452 785 L420 558 L659 558 L691 785 Z " />
<glyph glyph-name="dollar" unicode="&#x24;" horiz-adv-x="1120" d="M525 1568 L614 1568 L614 1396 Q781 1385 877 1307 Q1000 1208 1002 1014 L884 1014 Q877 1276 614 1293 L614 761 Q740 737 838 691 Q1032 601 1032 365 Q1032 138 846 29 Q766 -17 614 -28 L614 -261 L525 -262 L525 -28 Q318 -25 202.5 92.5 Q87 210 85 418 L203 420 Q206 252 275 175 Q355 86 525 72 L525 664 Q353 699 266 765 Q141 861 141 1029 Q141 1189 244 1288 Q347 1387 525 1396 L525 1568 Z M525 1295 Q413 1290 347 1237 Q256 1164 256 1037 Q256 905 368 836 Q412 809 525 781 L525 1295 Z M614 74 Q750 85 821 144 Q916 224 916 358 Q916 509 791 581 Q749 606 614 646 L614 74 Z " />
<glyph glyph-name="percent" unicode="&#x25;" horiz-adv-x="1614" d="M1229 1324 L479 0 L379 0 L1129 1324 L1229 1324 Z M1235 699 Q1375 699 1452.5 607.5 Q1530 516 1530 349 Q1530 159 1445 65 Q1364 -25 1226 -25 Q1068 -25 989 80 Q922 168 922 328 Q922 504 998 597 Q1081 699 1235 699 Z M1229 616 Q1029 616 1029 333 Q1029 209 1073 138 Q1124 56 1228 56 Q1323 56 1374 129.5 Q1425 203 1425 340 Q1425 458 1386 528 Q1363 568 1321 592 Q1279 616 1229 616 Z M397 1358 Q539 1358 616.5 1266.5 Q694 1175 694 1007 Q694 830 614 732.5 Q534 635 388 635 Q224 635 147 750 Q85 842 85 999 Q85 1170 167 1264 Q249 1358 397 1358 Z M392 1275 Q190 1275 190 991 Q190 859 241 788 Q292 717 386 717 Q501 717 552 817 Q589 890 589 1004 Q589 1275 392 1275 Z " />
<glyph glyph-name="ampersand" unicode="&#x26;" horiz-adv-x="1231" d="M1041 603 Q1039 528 1015.5 438 Q992 348 958 289 L1204 0 L1051 0 L894 189 Q751 -27 496 -27 Q316 -27 200 78 Q87 180 87 343 Q87 520 251 645 Q347 719 426 759 Q333 873 295.5 946.5 Q258 1020 258 1090 Q258 1211 343.5 1287.5 Q429 1364 564 1364 Q689 1364 769 1295 Q861 1216 861 1094 Q861 991 798 906.5 Q735 822 593 735 L881 380 Q923 494 929 603 L1041 603 Z M529 813 Q748 937 748 1086 Q748 1162 694.5 1214 Q641 1266 562 1266 Q479 1266 425 1216.5 Q371 1167 371 1092 Q371 1042 407 978 Q443 914 529 813 Z M490 682 Q402 630 347 587 Q210 479 210 346 Q210 227 303 147 Q387 73 507 73 Q697 73 827 271 L490 682 Z " />
<glyph glyph-name="quotesingle" unicode="&#x27;" horiz-adv-x="315" d="M205 818 L110 818 L93 1365 L223 1365 L205 818 Z " />
<glyph glyph-name="parenleft" unicode="&#x28;" horiz-adv-x="568" d="M453 1365 Q336 1180 272.5 953 Q209 726 209 493 Q209 272 272 50.5 Q335 -171 453 -366 L358 -366 Q238 -167 181 -13 Q87 239 87 497 Q87 767 186 1031 Q258 1223 358 1365 L453 1365 Z " />
<glyph glyph-name="parenright" unicode="&#x29;" horiz-adv-x="568" d="M115 -366 Q232 -181 295.5 46.5 Q359 274 359 506 Q359 727 296 948.5 Q233 1170 115 1365 L210 1365 Q330 1166 387 1012 Q481 759 481 502 Q481 232 382 -32 Q309 -224 210 -366 L115 -366 Z " />
<glyph glyph-name="asterisk" unicode="&#x2a;" horiz-adv-x="1120" d="M846 1137 L622 1061 L760 874 L699 829 L558 1021 L418 831 L354 876 L493 1061 L273 1137 L298 1209 L519 1130 L519 1365 L598 1365 L598 1130 L818 1209 L846 1137 Z " />
<glyph glyph-name="plus" unicode="&#x2b;" horiz-adv-x="1120" d="M101 707 L515 707 L515 1121 L604 1121 L604 707 L1017 707 L1017 618 L604 618 L604 205 L515 205 L515 618 L101 618 L101 707 Z " />
<glyph glyph-name="comma" unicode="&#x2c;" horiz-adv-x="457" d="M307 198 L307 57 Q307 -86 269 -158 Q231 -230 138 -265 L138 -184 Q222 -147 225 0 L150 0 L150 198 L307 198 Z " />
<glyph glyph-name="hyphen" unicode="&#x2d;" horiz-adv-x="455" d="M455 560 L455 451 L0 451 L0 560 L455 560 Z " />
<glyph glyph-name="period" unicode="&#x2e;" horiz-adv-x="457" d="M307 205 L307 0 L150 0 L150 205 L307 205 Z " />
<glyph glyph-name="slash" unicode="&#x2f;" horiz-adv-x="808" d="M733 1365 L28 -366 L-75 -366 L635 1365 L733 1365 Z " />
<glyph glyph-name="zero" unicode="0" horiz-adv-x="1154" d="M582 1395 Q758 1395 878 1284 Q971 1198 1014.5 1051.5 Q1058 905 1058 675 Q1058 384 977 216 Q919 96 816.5 33 Q714 -30 577 -30 Q333 -30 213.5 142 Q94 314 94 664 Q94 986 181 1158 Q302 1395 582 1395 Z M581 1288 Q367 1288 287 1088 Q222 927 222 659 Q222 77 576 77 Q713 77 802 175 Q930 317 930 679 Q930 935 870 1081 Q829 1181 754 1234.5 Q679 1288 581 1288 Z " />
<glyph glyph-name="one" unicode="1" horiz-adv-x="1154" d="M738 1394 L738 0 L607 0 L607 1038 L555 1038 L418 1038 L306 1038 L249 1038 L249 1135 Q385 1139 443.5 1150.5 Q502 1162 541 1193 Q578 1222 598.5 1264.5 Q619 1307 638 1394 L738 1394 Z " />
<glyph glyph-name="two" unicode="2" horiz-adv-x="1154" d="M1023 111 L1023 0 L111 0 Q126 193 225 314 Q273 373 335 422 Q397 471 546 569 Q747 702 818 791.5 Q889 881 889 1002 Q889 1134 799 1214 Q717 1288 585 1288 Q496 1288 426.5 1250 Q357 1212 318 1142 Q272 1058 267 905 L145 905 Q144 1119 242 1245 Q361 1395 591 1395 Q775 1395 890 1298 Q1017 1191 1017 1003 Q1017 828 886 689 Q801 599 568 449 Q384 330 328 264 Q268 193 252 111 L281 111 L321 111 L1023 111 Z " />
<glyph glyph-name="three" unicode="3" horiz-adv-x="1154" d="M119 942 Q125 1106 192 1212 Q306 1395 569 1395 Q755 1395 870 1297 Q985 1200 985 1038 Q985 926 922 845.5 Q859 765 750 738 Q843 719 908 671 Q1034 578 1034 399 Q1034 206 895 82 Q769 -30 558 -30 Q306 -30 177 130 Q86 243 86 411 Q86 424 86 443 L206 443 Q206 319 254 235 Q302 151 394 112 Q475 77 559 77 Q633 77 702.5 103 Q772 129 818 175 Q906 261 906 387 Q906 544 784 623 Q700 678 539 678 Q510 678 475 675 L475 780 Q504 779 531 779 Q667 779 748 830 Q857 898 857 1032 Q857 1148 776.5 1218 Q696 1288 563 1288 Q410 1288 326.5 1199.5 Q243 1111 237 942 L119 942 Z " />
<glyph glyph-name="four" unicode="4" horiz-adv-x="1154" d="M1050 445 L1050 341 L840 341 L840 0 L724 0 L724 341 L87 341 L87 459 L734 1394 L840 1394 L840 445 L1050 445 Z M724 445 L724 996 Q724 1101 726 1228 Q625 1068 601 1033 L301 600 Q277 566 189 445 L253 445 L325 445 L724 445 Z " />
<glyph glyph-name="five" unicode="5" horiz-adv-x="1154" d="M972 1365 L972 1254 L372 1254 L305 932 Q286 835 272 778 Q387 918 587 918 Q761 918 882 816 Q945 762 985 684 Q1040 578 1040 452 Q1040 251 911 113 Q776 -30 564 -30 Q360 -30 233 88.5 Q106 207 106 398 L227 398 Q234 297 276 226 Q318 155 395.5 114.5 Q473 74 566 74 Q730 74 829 197 Q912 300 912 443 Q912 596 823 698 Q726 811 563 811 Q364 811 254 649 L145 654 L281 1365 L972 1365 Z " />
<glyph glyph-name="six" unicode="6" horiz-adv-x="1154" d="M1024 1033 L900 1033 Q880 1154 803 1221 Q726 1288 608 1288 Q357 1288 272 988 Q236 865 229 658 Q285 775 384.5 837 Q484 899 615 899 Q807 899 934 769 Q1057 643 1057 444 Q1057 239 928 107 Q794 -30 596 -30 Q423 -30 300 72 Q201 155 156 292.5 Q111 430 111 650 Q111 1035 257 1226 Q387 1395 612 1395 Q788 1395 895 1300.5 Q1002 1206 1024 1033 Z M598 792 Q434 792 336 675 Q256 579 256 440 Q256 292 345 188 Q442 77 594 77 Q751 77 847 192 Q929 292 929 436 Q929 581 847 679 Q752 792 598 792 Z " />
<glyph glyph-name="seven" unicode="7" horiz-adv-x="1154" d="M1048 1365 L1048 1252 Q823 1016 678 719 Q522 388 487 0 L354 0 Q367 317 523 657.5 Q679 998 928 1249 Q823 1248 785 1248 L158 1248 L158 1365 L1048 1365 Z " />
<glyph glyph-name="eight" unicode="8" horiz-adv-x="1154" d="M383 744 Q277 774 217.5 852.5 Q158 931 158 1042 Q158 1209 284 1307 Q396 1395 578 1395 Q784 1395 895 1289 Q996 1193 996 1049 Q996 936 939 858 Q882 780 772 744 Q866 721 922 678 Q1052 579 1052 398 Q1052 198 919 80 Q795 -30 577 -30 Q352 -30 225 90 Q103 204 103 388 Q103 526 177 620 Q251 714 383 744 Z M580 1288 Q435 1288 357 1215 Q282 1146 282 1037 Q282 924 361 859 Q445 790 579 790 Q723 790 801 864 Q872 932 872 1037 Q872 1161 788 1226 Q709 1288 580 1288 Z M576 691 Q419 691 325 609 Q231 527 231 391 Q231 248 325.5 162.5 Q420 77 577 77 Q750 77 842 174 Q924 261 924 390 Q924 541 818 619 Q720 691 576 691 Z " />
<glyph glyph-name="nine" unicode="9" horiz-adv-x="1154" d="M132 331 L252 331 Q267 237 322 174 Q408 77 555 77 Q833 77 901 449 Q919 548 920 722 Q807 467 539 467 Q327 467 201 618 Q97 742 97 924 Q97 1136 238 1271 Q366 1395 559 1395 Q751 1395 875 1277 Q964 1192 1004 1060 Q1044 928 1044 717 Q1044 435 973 266 Q912 122 804 46 Q696 -30 552 -30 Q377 -30 262 68.5 Q147 167 132 331 Z M560 1288 Q407 1288 312 1180 Q225 1080 225 929 Q225 793 300 695 Q393 574 555 574 Q714 574 809 687 Q892 785 892 928 Q892 1079 807 1175 Q707 1288 560 1288 Z " />
<glyph glyph-name="colon" unicode="&#x3a;" horiz-adv-x="492" d="M341 205 L341 0 L184 0 L184 205 L341 205 Z M341 986 L341 781 L184 781 L184 986 L341 986 Z " />
<glyph glyph-name="semicolon" unicode="&#x3b;" horiz-adv-x="492" d="M341 198 L341 57 Q341 -86 303 -158 Q265 -230 172 -265 L172 -184 Q256 -147 259 0 L184 0 L184 198 L341 198 Z M341 986 L341 781 L184 781 L184 986 L341 986 Z " />
<glyph glyph-name="less" unicode="&#x3c;" horiz-adv-x="1024" d="M955 1151 L955 1022 L206 685 L955 348 L955 220 L68 629 L68 742 L955 1151 Z " />
<glyph glyph-name="equal" unicode="&#x3d;" horiz-adv-x="1120" d="M101 853 L1017 853 L1017 764 L101 764 L101 853 Z M101 560 L1017 560 L1017 471 L101 471 L101 560 Z " />
<glyph glyph-name="greater" unicode="&#x3e;" horiz-adv-x="1024" d="M69 220 L69 348 L818 686 L70 1023 L69 1151 L956 742 L956 629 L69 220 Z " />
<glyph glyph-name="question" unicode="&#x3f;" horiz-adv-x="1011" d="M102 942 Q106 1111 167 1209 Q221 1297 315 1345.5 Q409 1394 526 1394 Q714 1394 824 1286 Q924 1188 924 1041 Q924 909 848 810 Q816 768 695 653 Q637 597 616.5 567 Q596 537 585 490 Q574 440 573 340 L459 340 Q460 489 485 555 Q503 600 532.5 635.5 Q562 671 678 786 Q799 907 799 1033 Q799 1136 732 1207 Q656 1288 523 1288 Q346 1288 265 1148 Q224 1076 218 942 L102 942 Z M586 191 L586 0 L443 0 L443 191 L586 191 Z " />
<glyph glyph-name="at" unicode="&#x40;" horiz-adv-x="1543" d="M1345 346 L1419 345 Q1362 219 1252 130 Q1051 -32 799 -32 Q591 -32 417 80 Q250 187 164 367 Q94 513 94 678 Q94 881 197 1053 Q289 1206 444 1297 Q613 1396 811 1396 Q974 1396 1119 1325 Q1290 1240 1378 1086 Q1449 961 1449 811 Q1449 565 1265 412 Q1132 302 1003 302 Q942 302 904 332.5 Q866 363 857 420 Q745 304 624 304 Q526 304 465 375.5 Q404 447 404 561 Q404 724 503 870 Q566 963 644 1013 Q722 1063 806 1063 Q944 1063 1002 928 L1039 1030 L1133 1031 L961 526 Q942 471 942 435 Q942 362 1026 362 Q1133 362 1240 468 Q1380 607 1380 807 Q1380 1044 1199 1195 Q1036 1332 812 1332 Q627 1332 472 1237 Q334 1152 254 1013 Q167 861 167 678 Q167 411 346 227 Q447 122 584 72 Q689 34 801 34 Q969 34 1119 120 Q1269 206 1345 346 Z M886 601 L934 737 Q961 810 961 853 Q961 918 920 962 Q881 1003 829 1003 Q718 1003 620 870 Q569 801 538.5 710 Q508 619 508 537 Q508 461 539 416 Q576 364 641 364 Q725 364 794 434 Q843 483 886 601 Z " />
<glyph glyph-name="A" unicode="A" horiz-adv-x="1277" d="M714 1369 L1259 0 L1113 0 L948 430 L324 430 L156 0 L17 0 L568 1369 L714 1369 Z M909 535 L713 1040 Q670 1150 639 1247 Q600 1139 564 1047 L363 535 L909 535 Z " />
<glyph glyph-name="B" unicode="B" horiz-adv-x="1319" d="M166 1365 L718 1365 Q913 1365 1012 1311 Q1091 1267 1136 1191.5 Q1181 1116 1181 1024 Q1181 913 1116.5 831 Q1052 749 943 723 Q1031 705 1082 674 Q1234 582 1234 390 Q1234 277 1178.5 187 Q1123 97 1021 48 Q924 0 751 0 L166 0 L166 1365 Z M296 1253 L296 760 L660 760 Q826 760 900 787 Q970 813 1011 872 Q1052 931 1052 1006 Q1052 1161 917 1222 Q848 1253 693 1253 L296 1253 Z M296 656 L296 112 L703 112 Q901 112 986 164 Q1104 237 1104 389 Q1104 527 1005 591.5 Q906 656 694 656 L296 656 Z " />
<glyph glyph-name="C" unicode="C" horiz-adv-x="1380" d="M1306 523 Q1289 320 1175 176 Q1011 -31 719 -31 Q411 -31 237 198 Q94 387 94 680 Q94 995 273 1199 Q445 1396 731 1396 Q1001 1396 1163 1222 Q1274 1103 1289 956 L1160 956 Q1135 1072 1058 1153 Q933 1284 727 1284 Q471 1284 333 1079 Q224 916 224 682 Q224 440 331 284 Q470 81 724 81 Q915 81 1034 196.5 Q1153 312 1178 523 L1306 523 Z " />
<glyph glyph-name="D" unicode="D" horiz-adv-x="1363" d="M166 1365 L642 1365 Q790 1365 891.5 1332.5 Q993 1300 1074 1228 Q1179 1132 1229 979 Q1271 852 1271 707 Q1271 344 1079 151 Q997 69 900 34.5 Q803 0 652 0 L166 0 L166 1365 Z M296 1253 L296 112 L621 112 Q762 112 844 138 Q926 164 989 229 Q1141 386 1141 701 Q1141 983 996 1128 Q931 1194 847 1223.5 Q763 1253 641 1253 L296 1253 Z " />
<glyph glyph-name="E" unicode="E" horiz-adv-x="1199" d="M1114 1365 L1114 1253 L296 1253 L296 763 L1062 763 L1062 651 L296 651 L296 112 L1122 112 L1122 0 L166 0 L166 1365 L1114 1365 Z " />
<glyph glyph-name="F" unicode="F" horiz-adv-x="1075" d="M1038 1365 L1038 1253 L296 1253 L296 763 L957 763 L957 651 L296 651 L296 0 L166 0 L166 1365 L1038 1365 Z " />
<glyph glyph-name="G" unicode="G" horiz-adv-x="1463" d="M1329 694 L1329 0 L1243 0 L1216 255 Q1154 119 1028 44 Q902 -31 735 -31 Q535 -31 384 67 Q234 164 156 345 Q93 492 93 670 Q93 994 278 1201 Q453 1396 742 1396 Q1012 1396 1175 1225 Q1286 1108 1310 945 L1184 945 Q1157 1098 1035.5 1191 Q914 1284 743 1284 Q488 1284 343 1090 Q223 930 223 672 Q223 425 344 269 Q488 81 742 81 Q946 81 1076 208 Q1213 341 1214 588 L746 588 L746 694 L1329 694 Z " />
<glyph glyph-name="H" unicode="H" horiz-adv-x="1405" d="M1241 1365 L1241 0 L1111 0 L1111 659 L294 659 L294 0 L164 0 L164 1365 L294 1365 L294 771 L1111 771 L1111 1365 L1241 1365 Z " />
<glyph glyph-name="I" unicode="I" horiz-adv-x="457" d="M294 1365 L294 0 L164 0 L164 1365 L294 1365 Z " />
<glyph glyph-name="J" unicode="J" horiz-adv-x="950" d="M807 1379 L807 404 Q807 293 794 230 Q781 167 746 113 Q715 63 682.5 39 Q650 15 594 0 Q500 -25 408 -25 Q288 -25 199 23.5 Q110 72 69 159 Q28 246 28 403 Q28 424 29 455 L154 455 L154 441 L154 413 Q154 274 185 210 Q244 87 421 87 Q568 87 632 181 Q677 247 677 420 L677 1379 L807 1379 Z " />
<glyph glyph-name="K" unicode="K" horiz-adv-x="1284" d="M1265 1365 L650 808 L1296 0 L1129 0 L557 719 L296 482 L296 0 L166 0 L166 1365 L296 1365 L296 631 Q359 692 385 717 L1092 1365 L1265 1365 Z " />
<glyph glyph-name="L" unicode="L" horiz-adv-x="1098" d="M1062 112 L1062 0 L164 0 L164 1365 L294 1365 L294 112 L1062 112 Z " />
<glyph glyph-name="M" unicode="M" horiz-adv-x="1657" d="M1494 1365 L1494 0 L1370 0 L1370 825 Q1370 1077 1385 1255 L1371 1214 L1347 1148 Q1306 1033 1295 1006 L892 0 L776 0 L365 994 Q327 1088 277 1247 Q290 975 290 829 L290 0 L166 0 L166 1365 L344 1365 L741 391 Q791 269 834 135 Q889 297 925 388 L1315 1365 L1494 1365 Z " />
<glyph glyph-name="N" unicode="N" horiz-adv-x="1405" d="M1242 1365 L1242 0 L1098 0 L462 916 Q345 1085 282 1209 Q287 1139 289 978 L290 882 L290 0 L166 0 L166 1365 L309 1365 L948 440 Q1044 300 1127 154 Q1118 336 1118 514 L1118 1365 L1242 1365 Z " />
<glyph glyph-name="O" unicode="O" horiz-adv-x="1475" d="M745 1397 Q1021 1397 1202 1196 Q1380 999 1380 679 Q1380 397 1237 208 Q1055 -31 735 -31 Q418 -31 237 208 Q94 398 94 681 Q94 1005 270 1196 Q455 1397 745 1397 Z M744 1285 Q513 1285 367 1121 Q224 959 224 685 Q224 431 346 269 Q421 171 536 121 Q629 81 737 81 Q961 81 1104 240 Q1250 404 1250 680 Q1250 951 1109 1117 Q966 1285 744 1285 Z " />
<glyph glyph-name="P" unicode="P" horiz-adv-x="1241" d="M166 1365 L712 1365 Q828 1365 897.5 1350 Q967 1335 1023 1297 Q1179 1193 1179 980 Q1179 764 1028 657 Q921 582 728 582 L296 582 L296 0 L166 0 L166 1365 Z M296 1253 L296 694 L692 694 Q780 694 833 704.5 Q886 715 928 741 Q1049 817 1049 974 Q1049 1134 932 1207 Q888 1234 836.5 1243.5 Q785 1253 685 1253 L296 1253 Z " />
<glyph glyph-name="Q" unicode="Q" horiz-adv-x="1467" d="M1373 -6 L1306 -88 L1091 75 Q1031 27 934.5 -2 Q838 -31 739 -31 Q447 -31 265 175 Q94 368 94 678 Q94 997 273 1196 Q452 1396 737 1396 Q1032 1396 1210 1187 Q1380 988 1380 685 Q1380 344 1177 142 L1373 -6 Z M1081 216 Q1250 398 1250 686 Q1250 935 1123 1099 Q978 1284 737 1284 Q619 1284 518 1235 Q417 1186 347 1094 Q224 933 224 682 Q224 432 338 278 Q407 185 514 133 Q621 81 744 81 Q887 81 992 153 L811 289 L879 372 L1081 216 Z " />
<glyph glyph-name="R" unicode="R" horiz-adv-x="1351" d="M158 1365 L759 1365 Q941 1365 1042 1303 Q1202 1205 1202 998 Q1202 867 1132.5 779 Q1063 691 934 659 Q1051 640 1109 569 Q1147 521 1158 471 Q1169 421 1183 232 Q1195 48 1239 0 L1092 0 Q1065 40 1058 188 Q1050 357 1034 423.5 Q1018 490 974 536 Q936 576 870 593 Q804 610 689 610 L288 610 L288 0 L158 0 L158 1365 Z M288 1253 L288 715 L673 715 Q867 715 953 764 Q1072 833 1072 989 Q1072 1147 942 1215 Q867 1253 718 1253 L288 1253 Z " />
<glyph glyph-name="S" unicode="S" horiz-adv-x="1201" d="M1071 972 L946 972 Q932 1129 842 1204 Q741 1288 565 1288 Q416 1288 329 1229 Q225 1159 225 1027 Q225 911 308 861 Q378 818 593 769 Q755 732 824.5 710 Q894 688 945 659 Q1114 562 1114 372 Q1114 179 959 64 Q829 -31 600 -31 Q344 -31 201 92 Q132 152 93.5 242.5 Q55 333 55 437 Q55 442 55 452 L180 452 Q185 297 256 211 Q366 78 609 78 Q802 78 898 161 Q988 240 988 360 Q988 510 829 576 Q755 606 527 660 Q392 691 329 713.5 Q266 736 217 770 Q98 852 98 1020 Q98 1194 226.5 1295.5 Q355 1397 575 1397 Q804 1397 933 1286.5 Q1062 1176 1071 972 Z " />
<glyph glyph-name="T" unicode="T" horiz-adv-x="1147" d="M1119 1365 L1119 1253 L640 1253 L640 0 L510 0 L510 1253 L29 1253 L29 1365 L1119 1365 Z " />
<glyph glyph-name="U" unicode="U" horiz-adv-x="1351" d="M1209 1365 L1209 547 Q1209 401 1190.5 321 Q1172 241 1122 166 Q988 -31 684 -31 Q351 -31 218 189 Q177 256 161 336.5 Q145 417 145 551 L145 1365 L275 1365 L275 546 Q275 426 289 356 Q303 286 339 230 Q438 78 685 78 Q924 78 1016 226 Q1079 327 1079 548 L1079 1365 L1209 1365 Z " />
<glyph glyph-name="V" unicode="V" horiz-adv-x="1205" d="M1188 1365 L680 0 L529 0 L17 1365 L163 1365 L520 383 Q553 293 606 111 Q663 296 694 381 L1049 1365 L1188 1365 Z " />
<glyph glyph-name="W" unicode="W" horiz-adv-x="1788" d="M1760 1365 L1382 0 L1241 0 L963 961 Q918 1119 893 1243 Q865 1121 820 965 L546 0 L405 0 L28 1365 L164 1365 L418 418 Q459 267 482 136 Q503 249 551 419 L821 1365 L969 1365 L1246 405 Q1283 275 1311 136 Q1336 269 1372 403 L1630 1365 L1760 1365 Z " />
<glyph glyph-name="X" unicode="X" horiz-adv-x="1169" d="M1131 1365 L664 702 L1157 0 L1001 0 L659 490 Q648 505 599 584 L585 606 L506 490 L162 0 L13 0 L508 702 L43 1365 L197 1365 L501 928 Q525 894 586 792 L602 818 Q667 919 675 929 L986 1365 L1131 1365 Z " />
<glyph glyph-name="Y" unicode="Y" horiz-adv-x="1186" d="M1201 1365 L660 564 L660 0 L530 0 L530 564 L-12 1365 L144 1365 L525 793 Q558 744 599 673 Q642 748 669 789 L1052 1365 L1201 1365 Z " />
<glyph glyph-name="Z" unicode="Z" horiz-adv-x="1176" d="M1107 1365 L1107 1252 L276 195 Q231 142 206 109 Q256 109 402 112 L1126 112 L1126 0 L58 0 L58 116 L896 1179 Q940 1232 959 1256 Q823 1253 780 1253 L121 1253 L121 1365 L1107 1365 Z " />
<glyph glyph-name="bracketleft" unicode="&#x5b;" horiz-adv-x="568" d="M462 1365 L462 1269 L265 1269 L265 -270 L462 -270 L462 -366 L152 -366 L152 1365 L462 1365 Z " />
<glyph glyph-name="backslash" unicode="&#x5c;" horiz-adv-x="808" d="M75 1365 L173 1365 L883 -366 L780 -366 L75 1365 Z " />
<glyph glyph-name="bracketright" unicode="&#x5d;" horiz-adv-x="568" d="M106 -366 L106 -270 L304 -270 L304 1269 L106 1269 L106 1365 L416 1365 L416 -366 L106 -366 Z " />
<glyph glyph-name="asciicircum" unicode="&#x5e;" horiz-adv-x="1024" d="M196 777 L71 777 L437 1368 L586 1368 L952 777 L826 777 L510 1279 L196 777 Z " />
<glyph glyph-name="underscore" unicode="&#x5f;" horiz-adv-x="1024" d="M0 -152 L1024 -152 L1024 -241 L0 -241 L0 -152 Z " />
<glyph glyph-name="grave" unicode="&#x60;" horiz-adv-x="1024" d="M261 1405 L408 1405 L600 1133 L503 1133 L261 1405 Z " />
<glyph glyph-name="a" unicode="a" horiz-adv-x="1023" d="M985 100 L985 7 Q940 -8 889 -8 Q819 -8 790.5 32.5 Q762 73 762 173 Q634 -29 389 -29 Q246 -29 163 37 Q67 113 67 250 Q67 444 253 517 Q306 538 354 545.5 Q402 553 599 572 Q689 581 722.5 608 Q756 635 756 699 Q756 813 693 863 Q628 915 498 915 Q371 915 306 858.5 Q241 802 229 681 L114 681 Q121 842 224.5 928.5 Q328 1015 512 1015 Q714 1015 812 914 Q848 876 860.5 827 Q873 778 873 671 L872 381 Q873 200 874 167.5 Q875 135 882 120 Q893 93 939 93 Q960 93 985 100 Z M756 537 Q725 511 684.5 500.5 Q644 490 484 468 Q325 446 259 401 Q189 353 189 261 Q189 173 251 122 Q314 69 419 69 Q566 69 661 155.5 Q756 242 756 377 L756 537 Z " />
<glyph glyph-name="b" unicode="b" horiz-adv-x="1147" d="M272 1365 L272 801 Q303 872 357 921 Q462 1015 624 1015 Q825 1015 947 871 Q1064 734 1064 496 Q1064 249 938 107 Q817 -29 619 -29 Q353 -29 265 193 L265 0 L152 0 L152 1365 L272 1365 Z M612 915 Q460 915 366 809 Q269 699 269 493 Q269 293 366 179 Q458 71 608 71 Q757 71 846 181 Q942 299 942 494 Q942 680 859 792 Q768 915 612 915 Z " />
<glyph glyph-name="c" unicode="c" horiz-adv-x="1019" d="M955 352 Q936 217 867 126 Q749 -29 539 -29 Q304 -29 180 148 Q84 285 84 484 Q84 739 221 883 Q347 1015 544 1015 Q715 1015 821.5 925 Q928 835 947 674 L825 674 Q807 767 762 821 Q684 915 545 915 Q370 915 279 774 Q206 661 206 492 Q206 315 284 202 Q373 71 534 71 Q658 71 736.5 144.5 Q815 218 834 352 L955 352 Z " />
<glyph glyph-name="d" unicode="d" horiz-adv-x="1149" d="M997 1365 L997 0 L884 0 L884 196 Q838 86 747.5 28.5 Q657 -29 530 -29 Q319 -29 198 122 Q84 264 84 493 Q84 738 208 877 Q331 1015 526 1015 Q777 1015 877 804 L877 1365 L997 1365 Z M545 915 Q391 915 301 808 Q206 694 206 494 Q206 314 288 198 Q377 71 541 71 Q701 71 793 189 Q880 301 880 491 Q880 694 787 803 Q691 915 545 915 Z " />
<glyph glyph-name="e" unicode="e" horiz-adv-x="1045" d="M957 325 Q938 230 898 164 Q781 -29 537 -29 Q315 -29 193 128 Q84 269 84 483 Q84 720 213 869 Q339 1015 534 1015 Q691 1015 803 918 Q890 842 929.5 734 Q969 626 968 464 L206 465 Q208 365 230 298 Q304 71 539 71 Q658 71 734.5 135.5 Q811 200 841 325 L957 325 Z M846 564 Q840 689 789 771 Q699 915 531 915 Q418 915 335 846 Q230 760 206 564 L846 564 Z " />
<glyph glyph-name="f" unicode="f" horiz-adv-x="532" d="M512 1368 L512 1266 Q463 1273 431 1273 Q335 1273 305 1221 Q288 1189 288 1084 L288 986 L487 986 L487 886 L288 886 L288 0 L168 0 L168 886 L0 886 L0 986 L168 986 L168 1070 Q168 1161 175 1202.5 Q182 1244 202 1276 Q263 1375 418 1375 Q460 1375 512 1368 Z " />
<glyph glyph-name="g" unicode="g" horiz-adv-x="1123" d="M971 986 L971 95 Q971 -19 958 -86.5 Q945 -154 912 -209 Q807 -386 528 -386 Q346 -386 240.5 -308.5 Q135 -231 124 -89 L245 -89 Q274 -289 530 -289 Q699 -289 775 -205 Q851 -121 852 66 L853 230 Q748 14 511 14 Q310 14 192 158 Q84 289 84 504 Q84 737 204 874 Q326 1015 522 1015 Q748 1015 858 802 L858 986 L971 986 Z M534 915 Q366 915 279 787 Q206 680 206 517 Q206 312 307 206 Q393 114 525 114 Q687 114 778 245 Q851 349 851 516 Q851 724 746 829 Q660 915 534 915 Z " />
<glyph glyph-name="h" unicode="h" horiz-adv-x="1100" d="M271 1365 L271 918 Q271 900 268 801 Q369 1015 611 1015 Q817 1015 908 869 Q957 790 957 635 L957 0 L835 0 L835 620 Q835 757 791 817 Q723 910 581 910 Q398 910 317 756 Q290 704 280.5 647 Q271 590 271 483 L271 0 L151 0 L151 1365 L271 1365 Z " />
<glyph glyph-name="i" unicode="i" horiz-adv-x="421" d="M270 1365 L270 1172 L150 1172 L150 1365 L270 1365 Z M270 986 L270 0 L150 0 L150 986 L270 986 Z " />
<glyph glyph-name="j" unicode="j" horiz-adv-x="421" d="M271 986 L271 -66 Q271 -171 262 -220.5 Q253 -270 226 -305 Q172 -378 31 -378 Q5 -378 -27 -373 L-27 -272 Q-1 -275 20 -275 Q104 -275 127.5 -238 Q151 -201 151 -69 L151 986 L271 986 Z M271 1365 L271 1172 L151 1172 L151 1365 L271 1365 Z " />
<glyph glyph-name="k" unicode="k" horiz-adv-x="1030" d="M982 986 L561 623 L1012 0 L861 0 L468 541 L272 374 L272 0 L152 0 L152 1365 L272 1365 L272 505 Q335 565 347 575 L822 986 L982 986 Z " />
<glyph glyph-name="l" unicode="l" horiz-adv-x="421" d="M270 1365 L270 0 L150 0 L150 1365 L270 1365 Z " />
<glyph glyph-name="m" unicode="m" horiz-adv-x="1663" d="M264 986 L264 814 Q316 899 369 941 Q464 1015 591 1015 Q805 1015 875 822 Q920 898 969 938 Q1065 1015 1204 1015 Q1376 1015 1462 901 Q1519 825 1519 679 L1519 0 L1399 0 L1399 646 Q1399 764 1369 815 Q1312 910 1171 910 Q1003 910 933 775 Q896 704 896 567 L896 0 L776 0 L776 643 Q776 758 749 810 Q698 910 559 910 Q477 910 411 871 Q345 832 310 762 Q271 684 271 543 L271 0 L151 0 L151 986 L264 986 Z " />
<glyph glyph-name="n" unicode="n" horiz-adv-x="1098" d="M265 986 L265 801 Q307 875 345 913 Q449 1015 614 1015 Q747 1015 837 951 Q904 903 930 833.5 Q956 764 956 634 L956 0 L836 0 L836 596 Q836 761 793 820 Q729 910 587 910 Q452 910 368 827 Q315 774 293.5 700.5 Q272 627 272 496 L272 0 L152 0 L152 986 L265 986 Z " />
<glyph glyph-name="o" unicode="o" horiz-adv-x="1103" d="M560 1015 Q773 1015 903 860 Q1018 722 1018 490 Q1018 243 885 104 Q758 -29 553 -29 Q326 -29 201 125 Q84 268 84 492 Q84 712 194 852 Q323 1015 560 1015 Z M557 915 Q400 915 305 804 Q207 690 207 492 Q207 295 302 182 Q396 71 555 71 Q705 71 795 174 Q896 290 896 492 Q896 682 805 797 Q762 852 696 883.5 Q630 915 557 915 Z " />
<glyph glyph-name="p" unicode="p" horiz-adv-x="1146" d="M265 986 L265 798 Q369 1015 617 1015 Q816 1015 938 874 Q1063 731 1063 490 Q1063 267 950 125 Q829 -29 622 -29 Q369 -29 272 184 L272 -366 L152 -366 L152 986 L265 986 Z M608 915 Q442 915 351 795 Q268 684 268 491 Q268 294 358 186 Q453 71 608 71 Q767 71 858 197 Q941 312 941 490 Q941 682 851 799 Q761 915 608 915 Z " />
<glyph glyph-name="q" unicode="q" horiz-adv-x="1146" d="M997 986 L997 -367 L877 -367 L877 183 Q778 -29 525 -29 Q319 -29 199 120 Q86 260 86 489 Q86 737 216 881 Q337 1015 536 1015 Q664 1015 745 964.5 Q826 914 884 797 L884 986 L997 986 Z M549 915 Q389 915 300 801 Q208 684 208 487 Q208 298 296 186 Q386 71 541 71 Q698 71 790 187 Q880 301 880 495 Q880 686 793 797 Q701 915 549 915 Z " />
<glyph glyph-name="r" unicode="r" horiz-adv-x="634" d="M642 1001 L642 879 Q620 880 611 880 Q454 880 359 770 Q308 711 290 635 Q272 559 272 403 L272 0 L152 0 L152 986 L265 986 L265 750 Q368 1006 642 1001 Z " />
<glyph glyph-name="s" unicode="s" horiz-adv-x="921" d="M811 700 L692 700 Q684 779 655 822 Q593 915 427 915 Q326 915 265 876 Q195 832 195 746 Q195 675 249 640.5 Q303 606 477 566 Q662 523 741 471 Q845 403 845 272 Q845 204 812 143.5 Q779 83 721 43 Q616 -29 453 -29 Q227 -29 120 102 Q52 186 48 322 L165 322 Q172 222 211 171 Q284 71 456 71 Q608 71 682 150 Q726 199 726 262 Q726 336 669 376.5 Q612 417 455 455 Q249 504 188 538 Q135 566 105.5 618.5 Q76 671 76 735 Q76 888 209 964 Q297 1015 435 1015 Q642 1015 741 900 Q801 830 811 700 Z " />
<glyph glyph-name="t" unicode="t" horiz-adv-x="538" d="M479 986 L479 886 L274 886 L274 264 Q274 167 290 140 Q314 98 398 98 Q430 98 479 104 L479 1 Q422 -7 371 -7 Q222 -7 178 73 Q163 101 158.5 146 Q154 191 154 323 L154 886 L-18 886 L-18 986 L154 986 L154 1288 L274 1288 L274 986 L479 986 Z " />
<glyph glyph-name="u" unicode="u" horiz-adv-x="1096" d="M945 986 L945 0 L832 0 L832 184 Q790 101 734 56 Q630 -29 487 -29 Q403 -29 329 3 Q255 35 211 90 Q144 176 144 350 L144 986 L264 986 L264 403 Q264 263 289 203 Q313 145 372 112 Q436 76 513 76 Q680 76 767 214 Q825 307 825 480 L825 986 L945 986 Z " />
<glyph glyph-name="v" unicode="v" horiz-adv-x="885" d="M879 986 L516 0 L386 0 L5 986 L135 986 L364 387 Q388 324 454 119 Q508 292 545 395 L757 986 L879 986 Z " />
<glyph glyph-name="w" unicode="w" horiz-adv-x="1424" d="M1408 986 L1088 0 L957 0 L762 648 Q741 718 713 842 Q681 711 663 649 L471 0 L337 0 L16 986 L147 986 L335 385 Q361 301 404 130 Q455 345 468 390 L645 986 L784 986 L971 360 Q990 296 1027 131 Q1062 278 1087 356 L1283 986 L1408 986 Z " />
<glyph glyph-name="x" unicode="x" horiz-adv-x="921" d="M882 986 L532 526 L921 0 L768 0 L505 362 Q485 389 456 436 Q413 372 406 362 L144 0 L1 0 L383 518 L30 986 L182 986 L396 698 Q402 690 457 606 Q506 678 521 698 L739 986 L882 986 Z " />
<glyph glyph-name="y" unicode="y" horiz-adv-x="895" d="M889 986 L502 -37 Q430 -227 393 -282 Q331 -374 210 -374 Q169 -374 131 -369 L105 -365 L105 -259 Q159 -272 191 -272 Q246 -272 283.5 -238 Q321 -204 350 -128 Q380 -50 385 -41 Q403 -7 403 1 Q403 4 401 7 L5 986 L137 986 L404 307 Q415 279 462 133 Q503 263 524 320 L766 986 L889 986 Z " />
<glyph glyph-name="z" unicode="z" horiz-adv-x="894" d="M847 986 L847 901 L259 178 Q218 131 194 99 L242 100 L298 100 L874 100 L874 0 L48 0 L48 98 L626 809 L694 887 Q670 887 615 886 L92 886 L92 986 L847 986 Z " />
<glyph glyph-name="braceleft" unicode="&#x7b;" horiz-adv-x="568" d="M151 498 Q214 463 239 410.5 Q264 358 264 261 L264 -69 Q264 -138 274 -173.5 Q284 -209 310 -233 Q349 -270 435 -270 L457 -270 L457 -366 L434 -366 Q279 -366 215 -297 Q151 -228 151 -62 L151 260 Q151 349 125 392.5 Q99 436 34 455 L34 548 Q98 567 124.5 609.5 Q151 652 151 736 L151 1087 Q151 1233 217 1298 Q284 1365 435 1365 L457 1365 L457 1269 L435 1269 Q342 1269 303 1225 Q264 1181 264 1076 L264 730 Q264 634 239 583 Q214 532 151 498 Z " />
<glyph glyph-name="bar" unicode="&#x7c;" horiz-adv-x="1024" d="M448 1365 L576 1365 L576 -341 L448 -341 L448 1365 Z " />
<glyph glyph-name="braceright" unicode="&#x7d;" horiz-adv-x="568" d="M417 501 Q354 536 329 588.5 Q304 641 304 738 L304 1069 Q304 1137 294 1172.5 Q284 1208 258 1232 Q219 1269 133 1269 L111 1269 L111 1365 L134 1365 Q289 1365 353 1296 Q417 1227 417 1061 L417 739 Q417 650 443 607 Q469 564 534 544 L534 451 Q470 433 443.5 390 Q417 347 417 263 L417 -88 Q417 -234 351 -299 Q284 -366 133 -366 L111 -366 L111 -270 L133 -270 Q226 -270 265 -226 Q304 -182 304 -77 L304 269 Q304 366 328.5 416.5 Q353 467 417 501 Z " />
<glyph glyph-name="asciitilde" unicode="&#x7e;" horiz-adv-x="1365" d="M266 1200 L194 1256 Q300 1475 466 1475 Q544 1475 704 1393 Q791 1348 828.5 1334.5 Q866 1321 902 1321 Q961 1321 1006.5 1357 Q1052 1393 1101 1479 L1173 1424 Q1071 1206 891 1206 Q847 1206 803 1222.5 Q759 1239 633 1303 Q522 1359 461 1359 Q405 1359 359.5 1322 Q314 1285 266 1200 Z " />
<glyph glyph-name="Adieresis" unicode="&#xc4;" horiz-adv-x="1277" d="M714 1369 L1259 0 L1113 0 L948 430 L324 430 L156 0 L17 0 L568 1369 L714 1369 Z M909 535 L713 1040 Q670 1150 639 1247 Q600 1139 564 1047 L363 535 L909 535 Z M910 1700 L910 1509 L780 1509 L780 1700 L910 1700 Z M496 1700 L496 1509 L366 1509 L366 1700 L496 1700 Z " />
<glyph glyph-name="Aring" unicode="&#xc5;" horiz-adv-x="1277" d="M714 1369 L1259 0 L1113 0 L948 430 L324 430 L156 0 L17 0 L568 1369 L714 1369 Z M909 535 L713 1040 Q670 1150 639 1247 Q600 1139 564 1047 L363 535 L909 535 Z M641 1836 Q726 1836 785 1770 Q836 1714 836 1638 Q836 1550 771 1491 Q714 1440 638 1440 Q550 1440 491 1505 Q440 1562 440 1639 Q440 1725 506 1785 Q561 1836 641 1836 Z M640 1757 Q589 1757 554 1722.5 Q519 1688 519 1639 Q519 1589 553.5 1554 Q588 1519 638 1519 Q687 1519 722 1554 Q757 1589 757 1638 Q757 1687 722.5 1722 Q688 1757 640 1757 Z " />
<glyph glyph-name="Ccedilla" unicode="&#xc7;" horiz-adv-x="1380" d="M1306 523 Q1291 313 1166 163 Q1009 -26 722 -30 L659 -115 Q706 -106 728 -106 Q792 -106 835 -142 Q878 -178 878 -231 Q878 -304 819.5 -349.5 Q761 -395 669 -395 Q591 -395 489 -356 L515 -298 Q590 -330 656 -330 Q706 -330 737.5 -305.5 Q769 -281 769 -242 Q769 -209 741.5 -187.5 Q714 -166 672 -166 Q640 -166 589 -183 L559 -154 L655 -26 Q417 -9 266 161 Q94 355 94 678 Q94 986 261 1185 Q438 1396 731 1396 Q999 1396 1160 1223 Q1262 1112 1289 956 L1158 956 Q1138 1053 1070 1135 Q946 1284 729 1284 Q474 1284 331 1075 Q223 918 223 683 Q223 439 333 281 Q473 81 722 81 Q949 81 1075 246 Q1166 365 1177 523 L1306 523 Z " />
<glyph glyph-name="Eacute" unicode="&#xc9;" horiz-adv-x="1199" d="M1114 1365 L1114 1253 L296 1253 L296 763 L1062 763 L1062 651 L296 651 L296 112 L1122 112 L1122 0 L166 0 L166 1365 L1114 1365 Z M924 1737 L655 1479 L554 1479 L767 1737 L924 1737 Z " />
<glyph glyph-name="Ntilde" unicode="&#xd1;" horiz-adv-x="1405" d="M1242 1365 L1242 0 L1098 0 L462 916 Q345 1085 282 1209 Q287 1139 289 978 L290 882 L290 0 L166 0 L166 1365 L309 1365 L948 440 Q1044 300 1127 154 Q1118 336 1118 514 L1118 1365 L1242 1365 Z M1025 1703 Q990 1517 858 1517 Q822 1517 788 1529 Q754 1541 658 1588 Q621 1606 588 1606 Q518 1606 493 1509 L421 1509 Q436 1600 481.5 1648 Q527 1696 597 1696 Q649 1696 723 1659 Q792 1624 813 1616.5 Q834 1609 859 1609 Q927 1609 951 1703 L1025 1703 Z " />
<glyph glyph-name="Odieresis" unicode="&#xd6;" horiz-adv-x="1475" d="M745 1397 Q1021 1397 1202 1196 Q1380 999 1380 679 Q1380 397 1237 208 Q1055 -31 735 -31 Q418 -31 237 208 Q94 398 94 681 Q94 1005 270 1196 Q455 1397 745 1397 Z M744 1285 Q513 1285 367 1121 Q224 959 224 685 Q224 431 346 269 Q421 171 536 121 Q629 81 737 81 Q961 81 1104 240 Q1250 404 1250 680 Q1250 951 1109 1117 Q966 1285 744 1285 Z M1009 1700 L1009 1509 L879 1509 L879 1700 L1009 1700 Z M595 1700 L595 1509 L465 1509 L465 1700 L595 1700 Z " />
<glyph glyph-name="Udieresis" unicode="&#xdc;" horiz-adv-x="1351" d="M1209 1365 L1209 547 Q1209 401 1190.5 321 Q1172 241 1122 166 Q988 -31 684 -31 Q351 -31 218 189 Q177 256 161 336.5 Q145 417 145 551 L145 1365 L275 1365 L275 546 Q275 426 289 356 Q303 286 339 230 Q438 78 685 78 Q924 78 1016 226 Q1079 327 1079 548 L1079 1365 L1209 1365 Z M947 1700 L947 1509 L817 1509 L817 1700 L947 1700 Z M534 1700 L534 1509 L404 1509 L404 1700 L534 1700 Z " />
<glyph glyph-name="aacute" unicode="&#xe1;" horiz-adv-x="1023" d="M985 100 L985 7 Q940 -8 889 -8 Q819 -8 790.5 32.5 Q762 73 762 173 Q634 -29 389 -29 Q246 -29 163 37 Q67 113 67 250 Q67 444 253 517 Q306 538 354 545.5 Q402 553 599 572 Q689 581 722.5 608 Q756 635 756 699 Q756 813 693 863 Q628 915 498 915 Q371 915 306 858.5 Q241 802 229 681 L114 681 Q121 842 224.5 928.5 Q328 1015 512 1015 Q714 1015 812 914 Q848 876 860.5 827 Q873 778 873 671 L872 381 Q873 200 874 167.5 Q875 135 882 120 Q893 93 939 93 Q960 93 985 100 Z M756 537 Q725 511 684.5 500.5 Q644 490 484 468 Q325 446 259 401 Q189 353 189 261 Q189 173 251 122 Q314 69 419 69 Q566 69 661 155.5 Q756 242 756 377 L756 537 Z M791 1405 L549 1133 L452 1133 L644 1405 L791 1405 Z " />
<glyph glyph-name="agrave" unicode="&#xe0;" horiz-adv-x="1023" d="M985 100 L985 7 Q940 -8 889 -8 Q819 -8 790.5 32.5 Q762 73 762 173 Q634 -29 389 -29 Q246 -29 163 37 Q67 113 67 250 Q67 444 253 517 Q306 538 354 545.5 Q402 553 599 572 Q689 581 722.5 608 Q756 635 756 699 Q756 813 693 863 Q628 915 498 915 Q371 915 306 858.5 Q241 802 229 681 L114 681 Q121 842 224.5 928.5 Q328 1015 512 1015 Q714 1015 812 914 Q848 876 860.5 827 Q873 778 873 671 L872 381 Q873 200 874 167.5 Q875 135 882 120 Q893 93 939 93 Q960 93 985 100 Z M756 537 Q725 511 684.5 500.5 Q644 490 484 468 Q325 446 259 401 Q189 353 189 261 Q189 173 251 122 Q314 69 419 69 Q566 69 661 155.5 Q756 242 756 377 L756 537 Z M294 1405 L441 1405 L632 1133 L536 1133 L294 1405 Z " />
<glyph glyph-name="acircumflex" unicode="&#xe2;" horiz-adv-x="1023" d="M985 100 L985 7 Q940 -8 889 -8 Q819 -8 790.5 32.5 Q762 73 762 173 Q634 -29 389 -29 Q246 -29 163 37 Q67 113 67 250 Q67 444 253 517 Q306 538 354 545.5 Q402 553 599 572 Q689 581 722.5 608 Q756 635 756 699 Q756 813 693 863 Q628 915 498 915 Q371 915 306 858.5 Q241 802 229 681 L114 681 Q121 842 224.5 928.5 Q328 1015 512 1015 Q714 1015 812 914 Q848 876 860.5 827 Q873 778 873 671 L872 381 Q873 200 874 167.5 Q875 135 882 120 Q893 93 939 93 Q960 93 985 100 Z M756 537 Q725 511 684.5 500.5 Q644 490 484 468 Q325 446 259 401 Q189 353 189 261 Q189 173 251 122 Q314 69 419 69 Q566 69 661 155.5 Q756 242 756 377 L756 537 Z M776 1133 L656 1133 L507 1335 L354 1133 L247 1133 L450 1405 L571 1405 L776 1133 Z " />
<glyph glyph-name="adieresis" unicode="&#xe4;" horiz-adv-x="1023" d="M985 100 L985 7 Q940 -8 889 -8 Q819 -8 790.5 32.5 Q762 73 762 173 Q634 -29 389 -29 Q246 -29 163 37 Q67 113 67 250 Q67 444 253 517 Q306 538 354 545.5 Q402 553 599 572 Q689 581 722.5 608 Q756 635 756 699 Q756 813 693 863 Q628 915 498 915 Q371 915 306 858.5 Q241 802 229 681 L114 681 Q121 842 224.5 928.5 Q328 1015 512 1015 Q714 1015 812 914 Q848 876 860.5 827 Q873 778 873 671 L872 381 Q873 200 874 167.5 Q875 135 882 120 Q893 93 939 93 Q960 93 985 100 Z M756 537 Q725 511 684.5 500.5 Q644 490 484 468 Q325 446 259 401 Q189 353 189 261 Q189 173 251 122 Q314 69 419 69 Q566 69 661 155.5 Q756 242 756 377 L756 537 Z M746 1368 L746 1173 L623 1173 L623 1368 L746 1368 Z M400 1368 L400 1173 L277 1173 L277 1368 L400 1368 Z " />
<glyph glyph-name="atilde" unicode="&#xe3;" horiz-adv-x="1023" d="M985 100 L985 7 Q940 -8 889 -8 Q819 -8 790.5 32.5 Q762 73 762 173 Q634 -29 389 -29 Q246 -29 163 37 Q67 113 67 250 Q67 444 253 517 Q306 538 354 545.5 Q402 553 599 572 Q689 581 722.5 608 Q756 635 756 699 Q756 813 693 863 Q628 915 498 915 Q371 915 306 858.5 Q241 802 229 681 L114 681 Q121 842 224.5 928.5 Q328 1015 512 1015 Q714 1015 812 914 Q848 876 860.5 827 Q873 778 873 671 L872 381 Q873 200 874 167.5 Q875 135 882 120 Q893 93 939 93 Q960 93 985 100 Z M756 537 Q725 511 684.5 500.5 Q644 490 484 468 Q325 446 259 401 Q189 353 189 261 Q189 173 251 122 Q314 69 419 69 Q566 69 661 155.5 Q756 242 756 377 L756 537 Z M783 1368 Q753 1182 633 1182 Q601 1182 570.5 1194 Q540 1206 453 1253 Q420 1270 391 1270 Q331 1270 310 1174 L240 1174 Q254 1264 294.5 1312 Q335 1360 398 1360 Q445 1360 512 1323 Q575 1288 593.5 1280.5 Q612 1273 634 1273 Q692 1273 711 1368 L783 1368 Z " />
<glyph glyph-name="aring" unicode="&#xe5;" horiz-adv-x="1023" d="M985 100 L985 7 Q940 -8 889 -8 Q819 -8 790.5 32.5 Q762 73 762 173 Q634 -29 389 -29 Q246 -29 163 37 Q67 113 67 250 Q67 444 253 517 Q306 538 354 545.5 Q402 553 599 572 Q689 581 722.5 608 Q756 635 756 699 Q756 813 693 863 Q628 915 498 915 Q371 915 306 858.5 Q241 802 229 681 L114 681 Q121 842 224.5 928.5 Q328 1015 512 1015 Q714 1015 812 914 Q848 876 860.5 827 Q873 778 873 671 L872 381 Q873 200 874 167.5 Q875 135 882 120 Q893 93 939 93 Q960 93 985 100 Z M756 537 Q725 511 684.5 500.5 Q644 490 484 468 Q325 446 259 401 Q189 353 189 261 Q189 173 251 122 Q314 69 419 69 Q566 69 661 155.5 Q756 242 756 377 L756 537 Z M527 1474 Q609 1474 666 1411 Q715 1356 715 1283 Q715 1198 652 1141 Q597 1092 524 1092 Q439 1092 382 1155 Q333 1210 333 1285 Q333 1367 396 1425 Q450 1474 527 1474 Z M526 1395 Q478 1395 445 1362.5 Q412 1330 412 1284 Q412 1237 444.5 1204 Q477 1171 524 1171 Q570 1171 603 1204 Q636 1237 636 1283 Q636 1329 603.5 1362 Q571 1395 526 1395 Z " />
<glyph glyph-name="ccedilla" unicode="&#xe7;" horiz-adv-x="1019" d="M526 -29 L466 -107 Q509 -100 535 -100 Q603 -100 644 -134.5 Q685 -169 685 -226 Q685 -301 628.5 -345 Q572 -389 477 -389 Q398 -389 300 -350 L327 -292 Q397 -323 462 -323 Q516 -323 547.5 -299.5 Q579 -276 579 -237 Q579 -202 551 -181 Q523 -160 478 -160 Q444 -160 399 -177 L370 -148 L465 -24 Q337 -7 244 75 Q84 218 84 484 Q84 740 221 883 Q347 1015 544 1015 Q715 1015 821.5 925 Q928 835 947 674 L825 674 Q807 767 762 821 Q684 915 545 915 Q370 915 279 774 Q206 661 206 492 Q206 315 284 202 Q373 71 534 71 Q658 71 736.5 144.5 Q815 218 834 352 L955 352 Q936 217 867 126 Q749 -29 549 -29 Q539 -29 526 -29 Z " />
<glyph glyph-name="eacute" unicode="&#xe9;" horiz-adv-x="1045" d="M957 325 Q938 230 898 164 Q781 -29 537 -29 Q315 -29 193 128 Q84 269 84 483 Q84 720 213 869 Q339 1015 534 1015 Q691 1015 803 918 Q890 842 929.5 734 Q969 626 968 464 L206 465 Q208 365 230 298 Q304 71 539 71 Q658 71 734.5 135.5 Q811 200 841 325 L957 325 Z M846 564 Q840 689 789 771 Q699 915 531 915 Q418 915 335 846 Q230 760 206 564 L846 564 Z M834 1405 L592 1133 L495 1133 L687 1405 L834 1405 Z " />
<glyph glyph-name="egrave" unicode="&#xe8;" horiz-adv-x="1045" d="M957 325 Q938 230 898 164 Q781 -29 537 -29 Q315 -29 193 128 Q84 269 84 483 Q84 720 213 869 Q339 1015 534 1015 Q691 1015 803 918 Q890 842 929.5 734 Q969 626 968 464 L206 465 Q208 365 230 298 Q304 71 539 71 Q658 71 734.5 135.5 Q811 200 841 325 L957 325 Z M846 564 Q840 689 789 771 Q699 915 531 915 Q418 915 335 846 Q230 760 206 564 L846 564 Z M320 1405 L467 1405 L659 1133 L562 1133 L320 1405 Z " />
<glyph glyph-name="ecircumflex" unicode="&#xea;" horiz-adv-x="1045" d="M957 325 Q938 230 898 164 Q781 -29 537 -29 Q315 -29 193 128 Q84 269 84 483 Q84 720 213 869 Q339 1015 534 1015 Q691 1015 803 918 Q890 842 929.5 734 Q969 626 968 464 L206 465 Q208 365 230 298 Q304 71 539 71 Q658 71 734.5 135.5 Q811 200 841 325 L957 325 Z M846 564 Q840 689 789 771 Q699 915 531 915 Q418 915 335 846 Q230 760 206 564 L846 564 Z M807 1133 L687 1133 L538 1335 L385 1133 L278 1133 L481 1405 L602 1405 L807 1133 Z " />
<glyph glyph-name="edieresis" unicode="&#xeb;" horiz-adv-x="1045" d="M957 325 Q938 230 898 164 Q781 -29 537 -29 Q315 -29 193 128 Q84 269 84 483 Q84 720 213 869 Q339 1015 534 1015 Q691 1015 803 918 Q890 842 929.5 734 Q969 626 968 464 L206 465 Q208 365 230 298 Q304 71 539 71 Q658 71 734.5 135.5 Q811 200 841 325 L957 325 Z M846 564 Q840 689 789 771 Q699 915 531 915 Q418 915 335 846 Q230 760 206 564 L846 564 Z M770 1368 L770 1173 L647 1173 L647 1368 L770 1368 Z M424 1368 L424 1173 L301 1173 L301 1368 L424 1368 Z " />
<glyph glyph-name="iacute" unicode="&#xed;" horiz-adv-x="421" d="M270 986 L270 0 L150 0 L150 986 L270 986 Z M476 1405 L275 1133 L178 1133 L336 1405 L476 1405 Z " />
<glyph glyph-name="igrave" unicode="&#xec;" horiz-adv-x="421" d="M270 986 L270 0 L150 0 L150 986 L270 986 Z M-7 1405 L133 1405 L291 1133 L194 1133 L-7 1405 Z " />
<glyph glyph-name="icircumflex" unicode="&#xee;" horiz-adv-x="421" d="M271 986 L271 0 L151 0 L151 986 L271 986 Z M430 1133 L317 1133 L209 1328 L97 1133 L-10 1133 L152 1405 L273 1405 L430 1133 Z " />
<glyph glyph-name="idieresis" unicode="&#xef;" horiz-adv-x="421" d="M270 986 L270 0 L150 0 L150 986 L270 986 Z M389 1368 L389 1173 L266 1173 L266 1368 L389 1368 Z M154 1368 L154 1173 L31 1173 L31 1368 L154 1368 Z " />
<glyph glyph-name="ntilde" unicode="&#xf1;" horiz-adv-x="1098" d="M265 986 L265 801 Q307 875 345 913 Q449 1015 614 1015 Q747 1015 837 951 Q904 903 930 833.5 Q956 764 956 634 L956 0 L836 0 L836 596 Q836 761 793 820 Q729 910 587 910 Q452 910 368 827 Q315 774 293.5 700.5 Q272 627 272 496 L272 0 L152 0 L152 986 L265 986 Z M847 1368 Q816 1182 697 1182 Q665 1182 634.5 1194 Q604 1206 516 1253 Q484 1270 455 1270 Q395 1270 374 1174 L303 1174 Q317 1264 358 1312 Q399 1360 462 1360 Q509 1360 576 1323 Q639 1288 657.5 1280.5 Q676 1273 698 1273 Q756 1273 775 1368 L847 1368 Z " />
<glyph glyph-name="oacute" unicode="&#xf3;" horiz-adv-x="1103" d="M560 1015 Q773 1015 903 860 Q1018 722 1018 490 Q1018 243 885 104 Q758 -29 553 -29 Q326 -29 201 125 Q84 268 84 492 Q84 712 194 852 Q323 1015 560 1015 Z M557 915 Q400 915 305 804 Q207 690 207 492 Q207 295 302 182 Q396 71 555 71 Q705 71 795 174 Q896 290 896 492 Q896 682 805 797 Q762 852 696 883.5 Q630 915 557 915 Z M834 1405 L592 1133 L495 1133 L687 1405 L834 1405 Z " />
<glyph glyph-name="ograve" unicode="&#xf2;" horiz-adv-x="1103" d="M560 1015 Q773 1015 903 860 Q1018 722 1018 490 Q1018 243 885 104 Q758 -29 553 -29 Q326 -29 201 125 Q84 268 84 492 Q84 712 194 852 Q323 1015 560 1015 Z M557 915 Q400 915 305 804 Q207 690 207 492 Q207 295 302 182 Q396 71 555 71 Q705 71 795 174 Q896 290 896 492 Q896 682 805 797 Q762 852 696 883.5 Q630 915 557 915 Z M332 1405 L479 1405 L671 1133 L574 1133 L332 1405 Z " />
<glyph glyph-name="ocircumflex" unicode="&#xf4;" horiz-adv-x="1103" d="M560 1015 Q773 1015 903 860 Q1018 722 1018 490 Q1018 243 885 104 Q758 -29 553 -29 Q326 -29 201 125 Q84 268 84 492 Q84 712 194 852 Q323 1015 560 1015 Z M557 915 Q400 915 305 804 Q207 690 207 492 Q207 295 302 182 Q396 71 555 71 Q705 71 795 174 Q896 290 896 492 Q896 682 805 797 Q762 852 696 883.5 Q630 915 557 915 Z M827 1133 L708 1133 L559 1335 L406 1133 L299 1133 L502 1405 L622 1405 L827 1133 Z " />
<glyph glyph-name="odieresis" unicode="&#xf6;" horiz-adv-x="1103" d="M560 1015 Q773 1015 903 860 Q1018 722 1018 490 Q1018 243 885 104 Q758 -29 553 -29 Q326 -29 201 125 Q84 268 84 492 Q84 712 194 852 Q323 1015 560 1015 Z M557 915 Q400 915 305 804 Q207 690 207 492 Q207 295 302 182 Q396 71 555 71 Q705 71 795 174 Q896 290 896 492 Q896 682 805 797 Q762 852 696 883.5 Q630 915 557 915 Z M786 1368 L786 1173 L663 1173 L663 1368 L786 1368 Z M439 1368 L439 1173 L316 1173 L316 1368 L439 1368 Z " />
<glyph glyph-name="otilde" unicode="&#xf5;" horiz-adv-x="1103" d="M560 1015 Q773 1015 903 860 Q1018 722 1018 490 Q1018 243 885 104 Q758 -29 553 -29 Q326 -29 201 125 Q84 268 84 492 Q84 712 194 852 Q323 1015 560 1015 Z M557 915 Q400 915 305 804 Q207 690 207 492 Q207 295 302 182 Q396 71 555 71 Q705 71 795 174 Q896 290 896 492 Q896 682 805 797 Q762 852 696 883.5 Q630 915 557 915 Z M836 1368 Q806 1182 686 1182 Q654 1182 623.5 1194 Q593 1206 506 1253 Q473 1270 444 1270 Q384 1270 363 1174 L293 1174 Q307 1264 347.5 1312 Q388 1360 451 1360 Q498 1360 565 1323 Q628 1288 646.5 1280.5 Q665 1273 687 1273 Q745 1273 764 1368 L836 1368 Z " />
<glyph glyph-name="uacute" unicode="&#xfa;" horiz-adv-x="1096" d="M945 986 L945 0 L832 0 L832 184 Q790 101 734 56 Q630 -29 487 -29 Q403 -29 329 3 Q255 35 211 90 Q144 176 144 350 L144 986 L264 986 L264 403 Q264 263 289 203 Q313 145 372 112 Q436 76 513 76 Q680 76 767 214 Q825 307 825 480 L825 986 L945 986 Z M808 1405 L566 1133 L470 1133 L661 1405 L808 1405 Z " />
<glyph glyph-name="ugrave" unicode="&#xf9;" horiz-adv-x="1096" d="M945 986 L945 0 L832 0 L832 184 Q790 101 734 56 Q630 -29 487 -29 Q403 -29 329 3 Q255 35 211 90 Q144 176 144 350 L144 986 L264 986 L264 403 Q264 263 289 203 Q313 145 372 112 Q436 76 513 76 Q680 76 767 214 Q825 307 825 480 L825 986 L945 986 Z M316 1405 L463 1405 L655 1133 L558 1133 L316 1405 Z " />
<glyph glyph-name="ucircumflex" unicode="&#xfb;" horiz-adv-x="1096" d="M945 986 L945 0 L832 0 L832 184 Q790 101 734 56 Q630 -29 487 -29 Q403 -29 329 3 Q255 35 211 90 Q144 176 144 350 L144 986 L264 986 L264 403 Q264 263 289 203 Q313 145 372 112 Q436 76 513 76 Q680 76 767 214 Q825 307 825 480 L825 986 L945 986 Z M818 1133 L698 1133 L549 1335 L396 1133 L289 1133 L492 1405 L613 1405 L818 1133 Z " />
<glyph glyph-name="udieresis" unicode="&#xfc;" horiz-adv-x="1096" d="M945 986 L945 0 L832 0 L832 184 Q790 101 734 56 Q630 -29 487 -29 Q403 -29 329 3 Q255 35 211 90 Q144 176 144 350 L144 986 L264 986 L264 403 Q264 263 289 203 Q313 145 372 112 Q436 76 513 76 Q680 76 767 214 Q825 307 825 480 L825 986 L945 986 Z M789 1368 L789 1173 L666 1173 L666 1368 L789 1368 Z M443 1368 L443 1173 L320 1173 L320 1368 L443 1368 Z " />
<glyph glyph-name="dagger" unicode="&#x2020;" horiz-adv-x="1120" d="M1000 943 L1000 841 L612 841 L612 -366 L499 -366 L499 841 L117 841 L117 943 L499 943 L499 1365 L612 1365 L612 943 L1000 943 Z " />
<glyph glyph-name="degree" unicode="&#xb0;" horiz-adv-x="766" d="M385 1360 Q506 1360 593 1270 Q674 1186 674 1066 Q674 945 588 859 Q504 775 385 775 Q254 775 167 871 Q91 953 91 1069 Q91 1204 190 1288 Q276 1360 385 1360 Z M380 1282 Q300 1282 240 1226 Q170 1160 170 1068 Q170 988 222 927 Q285 853 383 853 Q469 853 532 915.5 Q595 978 595 1063 Q595 1155 534 1217 Q470 1282 380 1282 Z " />
<glyph glyph-name="cent" unicode="&#xa2;" horiz-adv-x="1120" d="M1008 558 Q989 398 885 293 Q786 193 627 182 L627 -23 L538 -23 L538 182 Q363 200 260 313 Q131 456 131 699 Q131 979 302 1122 Q391 1196 538 1220 L538 1389 L627 1389 L627 1220 Q789 1208 887.5 1119.5 Q986 1031 1005 881 L881 881 Q863 984 797 1046 Q731 1108 627 1120 L627 281 Q733 291 803 364.5 Q873 438 891 558 L1008 558 Z M538 1117 Q420 1095 351 1013 Q255 899 255 703 Q255 526 328 417.5 Q401 309 538 282 L538 1117 Z " />
<glyph glyph-name="sterling" unicode="&#xa3;" horiz-adv-x="1120" d="M1028 931 L909 931 Q906 1061 854 1153 Q818 1218 745.5 1254.5 Q673 1291 580 1291 Q433 1291 347 1207 Q267 1128 267 1013 Q267 920 337 788 Q359 747 373 718 L686 718 L686 629 L420 629 Q456 550 456 458 Q456 332 366 213 Q340 179 248 89 Q322 127 363.5 139 Q405 151 459 151 Q509 151 545 142 Q581 133 703 90 Q749 74 800 74 Q918 74 1020 178 L1081 86 Q1027 28 952 -4 Q877 -36 799 -36 Q747 -36 713 -27.5 Q679 -19 563 23 Q476 55 406 55 Q351 55 306.5 37 Q262 19 193 -31 L125 72 Q340 243 340 436 Q340 514 293 629 L131 629 L131 718 L242 718 Q182 826 162.5 884.5 Q143 943 143 1016 Q143 1196 288 1308 Q401 1395 583 1395 Q796 1395 912 1274.5 Q1028 1154 1028 931 Z " />
<glyph glyph-name="section" unicode="&#xa7;" horiz-adv-x="1120" d="M901 1010 L785 1010 Q769 1249 551 1249 Q471 1249 415 1212 Q343 1163 343 1074 Q343 986 432 920 Q459 900 665 781 Q860 669 926 599 Q1006 513 1006 406 Q1006 313 951 240 Q896 167 797 129 Q857 76 882.5 25.5 Q908 -25 908 -90 Q908 -217 812 -297.5 Q716 -378 566 -378 Q397 -378 303 -287 Q209 -196 202 -25 L321 -25 Q334 -277 569 -277 Q673 -277 733 -220 Q787 -168 787 -96 Q787 -22 729.5 33 Q672 88 478 201 Q328 288 282 319 Q236 350 200 387 Q113 475 113 594 Q113 690 168.5 764 Q224 838 319 868 Q224 958 224 1068 Q224 1192 316 1270.5 Q408 1349 553 1349 Q717 1349 808 1260.5 Q899 1172 901 1010 Z M389 809 Q226 735 226 603 Q226 524 301 457 Q345 417 549 298 Q664 230 723 188 Q891 249 891 387 Q891 471 814.5 538 Q738 605 472 756 Q419 786 389 809 Z " />
<glyph glyph-name="bullet" unicode="&#x2022;" horiz-adv-x="1365" d="M687 983 Q799 983 881 900 Q964 816 964 697 Q964 578 882 494 Q799 410 683 410 Q568 410 485 493 Q401 578 401 696 Q401 818 485 900 Q569 983 687 983 Z " />
<glyph glyph-name="paragraph" unicode="&#xb6;" horiz-adv-x="1120" d="M483 -366 L483 642 Q469 642 449 642 Q339 642 250 695 Q177 739 134 819 Q90 901 90 1000 Q90 1101 134 1184 Q178 1267 255 1312 Q348 1365 519 1365 L995 1365 L995 1274 L906 1274 L906 -366 L789 -366 L789 1274 L600 1274 L600 -366 L483 -366 Z " />
<glyph glyph-name="germandbls" unicode="&#xdf;" horiz-adv-x="1061" d="M458 89 Q498 85 528 85 Q686 85 767 165 Q857 254 857 407 Q857 615 699 677 Q617 709 458 709 L458 806 Q480 805 486 805 Q632 805 708 866 Q788 930 788 1051 Q788 1158 715.5 1224.5 Q643 1291 527 1291 Q384 1291 321 1204 Q294 1166 283 1115.5 Q272 1065 272 974 L272 0 L152 0 L152 935 Q152 1068 162.5 1130 Q173 1192 205 1241 Q251 1312 337 1352 Q423 1392 531 1392 Q697 1392 801 1305 Q910 1212 910 1056 Q910 945 853.5 869.5 Q797 794 693 768 Q768 758 822 726 Q897 682 937.5 600 Q978 518 978 411 Q978 218 861.5 102.5 Q745 -13 551 -13 Q516 -13 458 -10 L458 89 Z " />
<glyph glyph-name="registered" unicode="&#xae;" horiz-adv-x="1614" d="M516 1073 L884 1073 Q995 1073 1057 1038 Q1157 980 1157 860 Q1157 723 1022 671 Q1083 654 1112 608 Q1129 582 1133.5 557 Q1138 532 1146 432 Q1151 366 1158.5 342 Q1166 318 1189 294 L1080 294 Q1060 320 1056 407 Q1051 499 1042 535 Q1033 571 1008 596 Q968 635 842 635 L609 635 L609 294 L516 294 L516 1073 Z M609 995 L609 709 L832 709 Q947 709 996 736 Q1064 772 1064 855 Q1064 995 859 995 L609 995 Z M816 1396 Q1008 1396 1179 1291 Q1351 1185 1441 1007 Q1519 853 1519 682 Q1519 482 1414 310 Q1310 139 1131 47 Q978 -31 807 -31 Q608 -31 436 74 Q264 179 172 358 Q94 511 94 681 Q94 883 199 1056 Q302 1225 484 1319 Q636 1396 816 1396 Z M815 1326 Q545 1326 358 1139 Q269 1049 220 929 Q171 811 171 681 Q171 501 265 346 Q359 191 519 109 Q655 39 807 39 Q986 39 1139 134 Q1292 229 1373 391 Q1442 528 1442 683 Q1442 864 1349 1020 Q1258 1172 1096 1256 Q961 1326 815 1326 Z " />
<glyph glyph-name="copyright" unicode="&#xa9;" horiz-adv-x="1614" d="M1185 601 Q1175 478 1104 394 Q1003 276 824 276 Q636 276 530 407 Q442 516 442 682 Q442 865 549.5 978 Q657 1091 831 1091 Q971 1091 1067 1017.5 Q1163 944 1175 829 L1083 829 Q1063 916 996 964.5 Q929 1013 829 1013 Q680 1013 599 901 Q535 812 535 683 Q535 550 598 464 Q679 354 827 354 Q941 354 1010 418 Q1079 482 1093 601 L1185 601 Z M816 1396 Q1008 1396 1179 1291 Q1351 1185 1441 1007 Q1519 853 1519 682 Q1519 482 1414 310 Q1310 139 1131 47 Q978 -31 807 -31 Q608 -31 436 74 Q264 179 172 358 Q94 511 94 681 Q94 883 199 1056 Q302 1225 484 1319 Q636 1396 816 1396 Z M815 1326 Q545 1326 358 1139 Q269 1049 220 929 Q171 811 171 681 Q171 501 265 346 Q359 191 519 109 Q655 39 807 39 Q986 39 1139 134 Q1292 229 1373 391 Q1442 528 1442 683 Q1442 864 1349 1020 Q1258 1172 1096 1256 Q961 1326 815 1326 Z " />
<glyph glyph-name="trademark" unicode="&#x2122;" horiz-adv-x="1670" d="M677 1365 L677 1289 L393 1289 L393 587 L303 587 L303 1289 L20 1289 L20 1365 L677 1365 Z M1533 1365 L1533 587 L1446 587 L1446 1056 Q1446 1132 1451 1249 L1446 1234 Q1421 1169 1415 1155 L1175 587 L1098 587 L854 1148 Q837 1186 817 1244 Q822 1116 822 1058 L822 587 L735 587 L735 1365 L852 1365 L1088 816 Q1116 749 1136 690 Q1165 768 1184 814 L1416 1365 L1533 1365 Z " />
<glyph glyph-name="acute" unicode="&#xb4;" horiz-adv-x="1024" d="M763 1405 L521 1133 L424 1133 L616 1405 L763 1405 Z " />
<glyph glyph-name="dieresis" unicode="&#xa8;" horiz-adv-x="1024" d="M747 1368 L747 1173 L624 1173 L624 1368 L747 1368 Z M400 1368 L400 1173 L277 1173 L277 1368 L400 1368 Z " />
<glyph glyph-name="notequal" unicode="&#x2260;" horiz-adv-x="1024" d="M561 883 L682 1131 L773 1097 L669 883 L956 883 L956 776 L623 776 L521 563 L956 563 L956 456 L478 456 L354 199 L263 232 L370 456 L68 456 L68 563 L413 563 L514 776 L68 776 L68 883 L561 883 Z " />
<glyph glyph-name="AE" unicode="&#xc6;" horiz-adv-x="1790" d="M1704 1365 L1704 1253 L998 1253 L998 763 L1656 763 L1656 651 L998 651 L998 112 L1712 112 L1712 0 L868 0 L868 446 L379 446 L150 0 L1 0 L714 1365 L1704 1365 Z M868 555 L868 1253 L789 1253 L432 555 L868 555 Z " />
<glyph glyph-name="Oslash" unicode="&#xd8;" horiz-adv-x="1475" d="M1233 1159 Q1380 962 1380 679 Q1380 396 1237 208 Q1055 -31 735 -31 Q480 -31 306 131 L163 -23 L94 38 L241 203 Q94 400 94 682 Q94 1001 270 1196 Q452 1396 736 1396 Q997 1396 1169 1230 L1309 1387 L1378 1324 L1233 1159 Z M1141 1074 L392 216 Q441 174 482 149 Q594 81 736 81 Q961 81 1104 240 Q1250 404 1250 679 Q1250 912 1141 1074 Z M331 292 L1083 1145 Q932 1284 737 1284 Q513 1284 368 1120 Q224 958 224 688 Q224 453 331 292 Z " />
<glyph glyph-name="infinity" unicode="&#x221e;" horiz-adv-x="1365" d="M684 632 Q524 392 338 392 Q239 392 167 440 Q39 525 39 701 Q39 863 159 947 Q238 1003 340 1003 Q524 1003 681 763 Q728 835 768 878 Q884 1002 1029 1002 Q1185 1002 1267 888 Q1326 807 1326 695 Q1326 549 1232 466 Q1149 392 1030 392 Q929 392 847 448.5 Q765 505 684 632 Z M730 698 Q769 637 804 596 Q905 477 1023 477 Q1121 477 1180 548 Q1230 608 1230 697 Q1230 814 1150 874 Q1092 918 1020 918 Q898 918 795 789 Q769 757 730 698 Z M634 696 Q560 814 491.5 866 Q423 918 342 918 Q245 918 185 847 Q135 787 135 697 Q135 580 215 520 Q273 476 344 476 Q425 476 489.5 525 Q554 574 634 696 Z " />
<glyph glyph-name="plusminus" unicode="&#xb1;" horiz-adv-x="1120" d="M101 810 L515 810 L515 1223 L604 1223 L604 810 L1017 810 L1017 721 L604 721 L604 307 L515 307 L515 721 L101 721 L101 810 Z M101 191 L1017 191 L1017 102 L101 102 L101 191 Z " />
<glyph glyph-name="lessequal" unicode="&#x2264;" horiz-adv-x="1024" d="M955 1195 L955 1072 L209 772 L955 473 L955 350 L68 716 L68 829 L955 1195 Z M955 290 L955 177 L68 177 L68 290 L955 290 Z " />
<glyph glyph-name="greaterequal" unicode="&#x2265;" horiz-adv-x="1024" d="M68 350 L69 473 L813 772 L68 1072 L68 1195 L955 829 L955 716 L68 350 Z M68 177 L68 290 L955 290 L955 177 L68 177 Z " />
<glyph glyph-name="yen" unicode="&#xa5;" horiz-adv-x="1120" d="M379 794 L60 1365 L195 1365 L500 810 Q532 751 563 688 Q600 761 624 805 L931 1365 L1059 1365 L741 794 L1018 794 L1018 712 L693 712 L616 574 L616 468 L978 468 L978 386 L616 386 L616 0 L504 0 L504 386 L142 386 L142 468 L504 468 L504 574 L427 712 L101 712 L101 794 L379 794 Z " />
<glyph glyph-name="mu" unicode="&#xb5;" horiz-adv-x="1024" d="M113 -338 L113 983 L225 983 L225 417 Q225 307 240 257 Q264 173 336.5 120.5 Q409 68 499 68 Q644 68 726 188 Q798 295 798 439 L798 983 L910 983 L910 0 L798 0 L798 201 Q760 106 709 56 Q624 -28 497 -28 Q406 -28 341.5 9.5 Q277 47 225 131 L225 -338 L113 -338 Z " />
<glyph glyph-name="partialdiff" unicode="&#x2202;" horiz-adv-x="1024" d="M187 1274 L202 1376 Q363 1353 469 1306 Q718 1197 847 941 Q952 733 952 482 Q952 293 874 173 Q808 72 701 19 Q612 -24 515 -24 Q359 -24 236 79 Q73 215 73 435 Q73 586 157 709 Q222 806 326 853 Q409 892 500 892 Q638 892 728 822 Q759 797 816 723 Q806 746 751 888 Q662 1068 510 1159 Q430 1209 361.5 1233.5 Q293 1258 187 1274 Z M528 797 Q410 797 318 726 Q258 680 221.5 599.5 Q185 519 185 434 Q185 276 294 169 Q389 76 514 76 Q626 76 715 150 Q839 254 839 445 Q839 625 728 720 Q639 797 528 797 Z " />
<glyph glyph-name="summation" unicode="&#x2211;" horiz-adv-x="1365" d="M1212 1536 L1212 1079 L1099 1079 L1089 1421 L207 1421 L721 554 L208 -399 L1107 -399 L1113 -56 L1231 -56 L1231 -512 L71 -512 L71 -380 L576 553 L71 1408 L71 1536 L1212 1536 Z " />
<glyph glyph-name="product" unicode="&#x220f;" horiz-adv-x="1365" d="M59 1536 L1307 1536 L1307 1434 L1154 1434 L1154 -410 L1307 -410 L1307 -512 L881 -512 L881 -410 L1041 -410 L1041 1434 L324 1434 L324 -410 L482 -410 L482 -512 L59 -512 L59 -410 L212 -410 L212 1434 L59 1434 L59 1536 Z " />
<glyph glyph-name="pi" unicode="&#x3c0;" horiz-adv-x="1067" d="M1044 986 L1044 886 L907 886 L907 0 L787 0 L787 886 L280 886 L280 0 L160 0 L160 886 L23 886 L23 986 L1044 986 Z " />
<glyph glyph-name="integral" unicode="&#x222b;" horiz-adv-x="1024" d="M224 -490 L253 -376 Q296 -396 332 -396 Q415 -396 437 -326 Q446 -300 447 -151 L447 1155 Q448 1303 450.5 1333 Q453 1363 463 1398 Q483 1462 542 1499 Q601 1536 681 1536 Q733 1536 800 1514 L771 1399 Q729 1420 692 1420 Q609 1420 587 1350 Q577 1319 577 1206 L577 -129 Q577 -275 570.5 -324.5 Q564 -374 541 -411 Q512 -455 450 -482 Q388 -509 314 -509 Q270 -509 224 -490 Z " />
<glyph glyph-name="ordfeminine" unicode="&#xaa;" horiz-adv-x="747" d="M678 608 L69 608 L69 676 L678 676 L678 608 Z M644 889 L644 825 Q613 815 583 815 Q513 815 505 898 Q435 804 303 804 Q217 804 167 846 Q117 888 117 961 Q117 1071 225 1112 Q268 1128 421 1142 Q469 1147 485.5 1159.5 Q502 1172 502 1204 Q502 1262 469 1286 Q434 1313 364 1313 Q294 1313 260 1283.5 Q226 1254 220 1188 L142 1188 Q146 1282 205 1331.5 Q264 1381 372 1381 Q440 1381 492 1359 Q544 1337 564 1299 Q577 1275 579 1241 Q581 1207 581 1024 Q582 909 583 900 Q587 883 611 883 Q624 883 644 889 Z M502 1103 Q459 1086 415 1080 Q293 1065 255 1049 Q199 1024 199 968 Q199 924 232 897.5 Q265 871 321 871 Q400 871 451 916 Q502 961 502 1030 L502 1103 Z " />
<glyph glyph-name="ordmasculine" unicode="&#xba;" horiz-adv-x="747" d="M678 608 L69 608 L69 676 L678 676 L678 608 Z M378 1380 Q498 1380 570 1301 Q642 1222 642 1090 Q642 955 565 877 Q492 804 374 804 Q244 804 172 889 Q105 968 105 1092 Q105 1214 168 1290 Q244 1380 378 1380 Z M377 1313 Q289 1313 238 1253.5 Q187 1194 187 1092 Q187 990 237.5 930.5 Q288 871 375 871 Q456 871 505 925 Q560 984 560 1091 Q560 1193 511 1252 Q461 1313 377 1313 Z " />
<glyph glyph-name="Omega" unicode="&#x2126;" horiz-adv-x="1364" d="M56 0 L56 108 L452 108 Q294 199 194 326 Q54 506 54 741 Q54 960 171 1128 Q275 1277 435 1347 Q549 1398 681 1398 Q896 1398 1061 1266 Q1189 1165 1253 1017 Q1309 890 1309 741 Q1309 487 1144 296 Q1050 188 911 108 L1307 108 L1307 0 L778 0 L778 102 Q923 183 1010 279 Q1185 474 1185 724 Q1185 1003 988 1174 Q856 1289 683 1289 Q509 1289 375 1174 Q178 1005 178 724 Q178 437 392 237 Q464 169 585 102 L585 0 L56 0 Z " />
<glyph glyph-name="ae" unicode="&#xe6;" horiz-adv-x="1688" d="M1601 322 Q1575 197 1503 112 Q1384 -29 1175 -29 Q898 -29 809 220 Q763 105 648 36.5 Q533 -32 387 -32 Q242 -32 154 49 Q66 130 66 262 Q66 400 165 479 Q244 543 459 563 Q677 583 711 606 Q752 633 752 700 Q752 810 690.5 862.5 Q629 915 499 915 Q366 915 298.5 858 Q231 801 221 679 L105 679 Q119 822 193 900 Q300 1015 503 1015 Q680 1015 765 940 Q811 900 836 812 Q931 1015 1178 1015 Q1389 1015 1508 865 Q1612 734 1612 512 Q1612 495 1611 464 L864 464 Q864 342 893 269 Q936 158 1026 110 Q1099 71 1187 71 Q1423 71 1485 322 L1601 322 Z M1491 564 Q1488 695 1432 781 Q1345 915 1178 915 Q1093 915 1022.5 875.5 Q952 836 912 765 Q873 695 862 564 L1491 564 Z M751 536 Q723 511 689.5 501.5 Q656 492 575 484 Q383 467 319 444 Q189 397 189 266 Q189 172 251 117 Q313 62 420 62 Q579 62 679 177 Q719 223 735 277 Q751 331 751 418 L751 536 Z " />
<glyph glyph-name="oslash" unicode="&#xf8;" horiz-adv-x="1103" d="M926 829 Q976 749 997 672 Q1018 595 1018 491 Q1018 243 885 104 Q758 -29 554 -29 Q366 -29 236 86 L128 -31 L64 27 L180 152 Q84 297 84 494 Q84 713 194 852 Q324 1015 551 1015 Q743 1015 870 896 L974 1008 L1038 951 L926 829 Z M839 747 L316 166 Q422 71 554 71 Q705 71 795 174 Q896 290 896 492 Q896 634 839 747 Z M264 236 L790 817 Q688 915 553 915 Q399 915 305 804 Q206 689 206 498 Q206 342 264 236 Z " />
<glyph glyph-name="questiondown" unicode="&#xbf;" horiz-adv-x="1011" d="M908 44 Q904 -125 843 -223 Q789 -311 695.5 -359.5 Q602 -408 485 -408 Q297 -408 187 -300 Q87 -202 87 -55 Q87 77 163 176 Q195 218 316 334 Q374 389 394 419.5 Q414 450 425 496 Q436 547 437 646 L552 646 Q550 498 525 432 Q508 386 479 351.5 Q450 317 333 200 Q212 79 212 -47 Q212 -150 279 -221 Q355 -302 488 -302 Q665 -302 745 -162 Q786 -90 793 44 L908 44 Z M424 795 L424 986 L567 986 L567 795 L424 795 Z " />
<glyph glyph-name="exclamdown" unicode="&#xa1;" horiz-adv-x="539" d="M184 -380 L184 21 L214 643 L285 643 L314 20 L314 -380 L184 -380 Z M177 795 L177 986 L320 986 L320 795 L177 795 Z " />
<glyph glyph-name="logicalnot" unicode="&#xac;" horiz-adv-x="1024" d="M830 0 L830 449 L68 449 L68 562 L955 562 L955 0 L830 0 Z " />
<glyph glyph-name="radical" unicode="&#x221a;" horiz-adv-x="1365" d="M1365 1693 L1365 1589 L959 1589 L474 0 L346 0 L159 620 L0 620 L0 724 L234 724 L328 422 Q337 393 362 299 Q394 177 401 147 L407 147 Q417 187 459 335 L517 542 L627 898 L868 1693 L1365 1693 Z " />
<glyph glyph-name="florin" unicode="&#x192;" horiz-adv-x="1120" d="M899 934 L882 838 L667 838 L518 10 Q496 -111 472 -175.5 Q448 -240 409 -284 Q335 -366 199 -366 Q152 -366 93 -358 L110 -254 Q159 -260 191 -260 Q283 -260 325 -201.5 Q367 -143 398 26 L545 838 L351 838 L370 934 L563 934 L606 1169 Q634 1326 685 1391 Q762 1489 918 1489 Q968 1489 1034 1481 L1013 1378 Q961 1385 922 1385 Q837 1385 792.5 1336 Q748 1287 726 1168 L683 934 L899 934 Z " />
<glyph glyph-name="approxequal" unicode="&#x2248;" horiz-adv-x="1024" d="M95 713 L23 762 Q130 981 295 981 Q373 981 533 899 Q621 854 658 840.5 Q695 827 732 827 Q791 827 833.5 859.5 Q876 892 930 979 L1002 930 Q900 712 720 712 Q676 712 631 729 Q586 746 462 809 Q352 865 289 865 Q234 865 190.5 831 Q147 797 95 713 Z M95 383 L23 432 Q130 652 295 652 Q373 652 533 569 Q620 524 658 510.5 Q696 497 732 497 Q791 497 833.5 529.5 Q876 562 930 649 L1002 600 Q899 382 720 382 Q676 382 630.5 399 Q585 416 462 480 Q352 536 289 536 Q234 536 190.5 502 Q147 468 95 383 Z " />
<glyph glyph-name="increment" unicode="&#x2206;" horiz-adv-x="1261" d="M12 0 L567 1365 L693 1365 L1250 0 L12 0 Z M173 108 L1086 108 L631 1231 L173 108 Z " />
<glyph glyph-name="guillemotleft" unicode="&#xab;" horiz-adv-x="795" d="M358 206 L101 449 L101 565 L358 805 L358 679 L177 506 L358 336 L358 206 Z M666 207 L411 446 L411 563 L666 804 L666 679 L486 505 L666 333 L666 207 Z " />
<glyph glyph-name="guillemotright" unicode="&#xbb;" horiz-adv-x="795" d="M435 805 L693 562 L693 446 L435 206 L435 331 L616 504 L435 674 L435 805 Z M128 803 L383 564 L383 448 L128 206 L128 331 L308 505 L128 677 L128 803 Z " />
<glyph glyph-name="ellipsis" unicode="&#x2026;" horiz-adv-x="1372" d="M307 205 L307 0 L150 0 L150 205 L307 205 Z M764 205 L764 0 L607 0 L607 205 L764 205 Z M1222 205 L1222 0 L1065 0 L1065 205 L1222 205 Z " />
<glyph glyph-name="Agrave" unicode="&#xc0;" horiz-adv-x="1277" d="M714 1369 L1259 0 L1113 0 L948 430 L324 430 L156 0 L17 0 L568 1369 L714 1369 Z M909 535 L713 1040 Q670 1150 639 1247 Q600 1139 564 1047 L363 535 L909 535 Z M365 1737 L522 1737 L734 1479 L634 1479 L365 1737 Z " />
<glyph glyph-name="Atilde" unicode="&#xc3;" horiz-adv-x="1277" d="M714 1369 L1259 0 L1113 0 L948 430 L324 430 L156 0 L17 0 L568 1369 L714 1369 Z M909 535 L713 1040 Q670 1150 639 1247 Q600 1139 564 1047 L363 535 L909 535 Z M953 1703 Q918 1517 786 1517 Q751 1517 717 1529 Q683 1541 586 1588 Q550 1606 516 1606 Q447 1606 421 1509 L349 1509 Q365 1600 410 1648 Q455 1696 525 1696 Q578 1696 652 1659 Q721 1624 741.5 1616.5 Q762 1609 788 1609 Q855 1609 879 1703 L953 1703 Z " />
<glyph glyph-name="Otilde" unicode="&#xd5;" horiz-adv-x="1475" d="M745 1397 Q1021 1397 1202 1196 Q1380 999 1380 679 Q1380 397 1237 208 Q1055 -31 735 -31 Q418 -31 237 208 Q94 398 94 681 Q94 1005 270 1196 Q455 1397 745 1397 Z M744 1285 Q513 1285 367 1121 Q224 959 224 685 Q224 431 346 269 Q421 171 536 121 Q629 81 737 81 Q961 81 1104 240 Q1250 404 1250 680 Q1250 951 1109 1117 Q966 1285 744 1285 Z M1060 1703 Q1024 1517 892 1517 Q857 1517 823 1529 Q789 1541 692 1588 Q656 1606 622 1606 Q553 1606 527 1509 L455 1509 Q471 1600 516 1648 Q561 1696 631 1696 Q684 1696 758 1659 Q827 1624 847.5 1616.5 Q868 1609 894 1609 Q962 1609 985 1703 L1060 1703 Z " />
<glyph glyph-name="OE" unicode="&#x152;" horiz-adv-x="2108" d="M2022 1365 L2022 1253 L1244 1253 L1244 763 L1949 763 L1949 651 L1244 651 L1244 112 L2029 112 L2029 0 L1122 0 L1122 139 Q963 -31 728 -31 Q426 -31 243 202 Q94 392 94 675 Q94 994 271 1190 Q456 1396 741 1396 Q910 1396 1031 1323 L1122 1253 L1122 1365 L2022 1365 Z M1114 328 L1114 1045 Q1114 1084 1097 1115 Q1080 1146 1037 1184 Q924 1284 754 1284 Q498 1284 347 1088 Q224 929 224 678 Q224 411 369 246 Q514 81 740 81 Q934 81 1052 200 Q1114 264 1114 328 Z " />
<glyph glyph-name="oe" unicode="&#x153;" horiz-adv-x="1748" d="M1662 321 Q1634 199 1571 122 Q1448 -29 1239 -29 Q958 -29 876 223 Q849 140 797 83 Q694 -29 515 -29 Q301 -29 181 137 Q84 270 84 491 Q84 729 200 870 Q320 1015 524 1015 Q792 1015 881 775 Q985 1015 1243 1015 Q1446 1015 1559 878 Q1672 741 1672 494 Q1672 484 1672 464 L933 464 Q932 443 932 433 Q932 301 994 206 Q1084 70 1248 70 Q1473 70 1547 321 L1662 321 Z M1551 564 Q1543 705 1496 777 Q1408 915 1240 915 Q1154 915 1085 874.5 Q1016 834 976 760 Q937 686 930 564 L1551 564 Z M525 915 Q372 915 290 803 Q205 686 205 488 Q205 300 285 188 Q368 71 524 71 Q685 71 761 201 Q828 318 828 502 Q828 699 749 808 Q670 915 525 915 Z " />
<glyph glyph-name="endash" unicode="&#x2013;" horiz-adv-x="1120" d="M990 560 L990 451 L130 451 L130 560 L990 560 Z " />
<glyph glyph-name="emdash" unicode="&#x2014;" horiz-adv-x="1365" d="M1365 560 L1365 451 L0 451 L0 560 L1365 560 Z " />
<glyph glyph-name="quotedblleft" unicode="&#x201c;" horiz-adv-x="744" d="M444 929 L444 1094 Q444 1323 606 1386 L606 1307 Q559 1275 541.5 1237 Q524 1199 522 1122 L594 1122 L594 929 L444 929 Z M150 929 L150 1094 Q150 1323 312 1386 L312 1307 Q265 1275 247.5 1236.5 Q230 1198 228 1122 L300 1122 L300 929 L150 929 Z " />
<glyph glyph-name="quotedblright" unicode="&#x201d;" horiz-adv-x="744" d="M300 1365 L300 1200 Q300 971 138 908 L138 986 Q185 1018 202.5 1057 Q220 1096 222 1172 L150 1172 L150 1365 L300 1365 Z M594 1365 L594 1200 Q594 971 432 908 L432 986 Q479 1018 496.5 1057 Q514 1096 516 1172 L444 1172 L444 1365 L594 1365 Z " />
<glyph glyph-name="quoteleft" unicode="&#x2018;" horiz-adv-x="457" d="M159 922 L159 1077 Q150 1326 328 1386 L328 1304 Q282 1276 262.5 1235 Q243 1194 242 1121 L316 1121 L316 922 L159 922 Z " />
<glyph glyph-name="quoteright" unicode="&#x2019;" horiz-adv-x="457" d="M307 1365 L307 1210 Q316 961 138 901 L138 983 Q184 1011 203.5 1052 Q223 1093 224 1166 L150 1166 L150 1365 L307 1365 Z " />
<glyph glyph-name="divide" unicode="&#xf7;" horiz-adv-x="1120" d="M101 707 L1017 707 L1017 618 L101 618 L101 707 Z M562 1050 Q598 1050 624 1023.5 Q650 997 650 960 Q650 923 623.5 896.5 Q597 870 560 870 Q522 870 496 896.5 Q470 923 470 961 Q470 998 496.5 1024 Q523 1050 562 1050 Z M562 454 Q598 454 624 427.5 Q650 401 650 364 Q650 327 623.5 300.5 Q597 274 560 274 Q523 274 496.5 300.5 Q470 327 470 365 Q470 402 496.5 428 Q523 454 562 454 Z " />
<glyph glyph-name="lozenge" unicode="&#x25ca;" horiz-adv-x="1365" d="M683 1419 L1214 683 L683 -53 L151 683 L683 1419 Z M683 1165 L332 683 L683 201 L1033 683 L683 1165 Z " />
<glyph glyph-name="ydieresis" unicode="&#xff;" horiz-adv-x="895" d="M889 986 L502 -37 Q430 -227 393 -282 Q331 -374 210 -374 Q169 -374 131 -369 L105 -365 L105 -259 Q159 -272 191 -272 Q246 -272 283.5 -238 Q321 -204 350 -128 Q380 -50 385 -41 Q403 -7 403 1 Q403 4 401 7 L5 986 L137 986 L404 307 Q415 279 462 133 Q503 263 524 320 L766 986 L889 986 Z M682 1368 L682 1173 L559 1173 L559 1368 L682 1368 Z M335 1368 L335 1173 L212 1173 L212 1368 L335 1368 Z " />
<glyph glyph-name="Ydieresis" unicode="&#x178;" horiz-adv-x="1186" d="M1201 1365 L660 564 L660 0 L530 0 L530 564 L-12 1365 L144 1365 L525 793 Q558 744 599 673 Q642 748 669 789 L1052 1365 L1201 1365 Z M865 1700 L865 1509 L735 1509 L735 1700 L865 1700 Z M451 1700 L451 1509 L321 1509 L321 1700 L451 1700 Z " />
<glyph glyph-name="fraction" unicode="&#x2044;" horiz-adv-x="301" d="M602 1341 L-209 0 L-300 0 L512 1341 L602 1341 Z " />
<glyph glyph-name="Euro" unicode="&#x20ac;" horiz-adv-x="1120" d="M192 857 L193 866 Q278 1395 679 1395 Q785 1395 889.5 1358.5 Q994 1322 1072 1258 L1027 1154 Q912 1235 847 1262 Q761 1297 677 1297 Q381 1297 310 869 L308 857 L899 857 L865 775 L298 775 Q294 733 294 669 Q294 661 295 603 L796 603 L762 521 L303 521 Q311 461 327 397 Q371 223 474 139 Q559 70 681 70 Q760 70 829.5 95 Q899 120 1019 191 L1019 64 Q859 -32 671 -32 Q256 -32 188 508 L186 521 L20 521 L53 603 L180 603 Q180 610 179 617 Q179 624 179 651 Q179 682 182 761 Q182 767 183 775 L20 775 L53 857 L192 857 Z " />
<glyph glyph-name="guilsinglleft" unicode="&#x2039;" horiz-adv-x="485" d="M356 206 L101 446 L101 562 L356 803 L356 679 L176 505 L356 332 L356 206 Z " />
<glyph glyph-name="guilsinglright" unicode="&#x203a;" horiz-adv-x="485" d="M128 803 L383 564 L383 448 L128 206 L128 331 L308 505 L128 677 L128 803 Z " />
<glyph glyph-name="fi" unicode="&#xfb01;" horiz-adv-x="953" d="M512 1368 L512 1266 Q463 1273 431 1273 Q335 1273 305 1221 Q288 1189 288 1084 L288 986 L487 986 L487 886 L288 886 L288 0 L168 0 L168 886 L0 886 L0 986 L168 986 L168 1070 Q168 1161 175 1202.5 Q182 1244 202 1276 Q263 1375 418 1375 Q460 1375 512 1368 Z M803 1365 L803 1172 L683 1172 L683 1365 L803 1365 Z M803 986 L803 0 L683 0 L683 986 L803 986 Z " />
<glyph glyph-name="fl" unicode="&#xfb02;" horiz-adv-x="953" d="M512 1368 L512 1266 Q463 1273 431 1273 Q335 1273 305 1221 Q288 1189 288 1084 L288 986 L487 986 L487 886 L288 886 L288 0 L168 0 L168 886 L0 886 L0 986 L168 986 L168 1070 Q168 1161 175 1202.5 Q182 1244 202 1276 Q263 1375 418 1375 Q460 1375 512 1368 Z M803 1365 L803 0 L683 0 L683 1365 L803 1365 Z " />
<glyph glyph-name="daggerdbl" unicode="&#x2021;" horiz-adv-x="1120" d="M1001 960 L1001 858 L614 858 L614 168 L1001 168 L1001 66 L614 66 L614 -366 L501 -366 L501 66 L119 66 L119 168 L501 168 L501 858 L119 858 L119 960 L501 960 L501 1365 L614 1365 L614 960 L1001 960 Z " />
<glyph glyph-name="periodcentered" unicode="&#xb7;" horiz-adv-x="457" d="M307 608 L307 403 L150 403 L150 608 L307 608 Z " />
<glyph glyph-name="quotesinglbase" unicode="&#x201a;" horiz-adv-x="457" d="M307 199 L307 44 Q316 -205 138 -265 L138 -183 Q184 -156 203.5 -114.5 Q223 -73 224 0 L150 0 L150 199 L307 199 Z " />
<glyph glyph-name="quotedblbase" unicode="&#x201e;" horiz-adv-x="744" d="M300 193 L300 28 Q300 -201 138 -264 L138 -186 Q185 -154 202.5 -115 Q220 -76 222 0 L150 0 L150 193 L300 193 Z M594 193 L594 28 Q594 -201 432 -264 L432 -186 Q479 -154 496.5 -115 Q514 -76 516 0 L444 0 L444 193 L594 193 Z " />
<glyph glyph-name="perthousand" unicode="&#x2030;" horiz-adv-x="2153" d="M1096 627 Q1229 627 1304 544 Q1379 461 1379 313 Q1379 152 1306 66 Q1233 -20 1096 -20 Q807 -20 807 301 Q807 467 886 549 Q962 627 1096 627 Z M1096 548 Q911 548 911 296 Q911 59 1094 59 Q1275 59 1275 307 Q1275 421 1234 479 Q1185 548 1096 548 Z M1785 628 Q1919 628 1994 544.5 Q2069 461 2069 310 Q2069 154 1994 67 Q1919 -20 1784 -20 Q1631 -20 1557 76 Q1495 158 1495 300 Q1495 468 1575 549 Q1654 628 1785 628 Z M1783 549 Q1693 549 1644.5 485 Q1596 421 1596 301 Q1596 184 1644 121.5 Q1692 59 1781 59 Q1962 59 1962 306 Q1962 421 1922 478 Q1873 549 1783 549 Z M375 1357 Q509 1357 583.5 1272.5 Q658 1188 658 1035 Q658 882 581 794.5 Q504 707 369 707 Q225 707 154 798 Q85 885 85 1032 Q85 1192 164 1276 Q240 1357 375 1357 Z M373 1276 Q285 1276 237 1211.5 Q189 1147 189 1027 Q189 789 370 789 Q458 789 505.5 852 Q553 915 553 1031 Q553 1141 515 1201 Q466 1276 373 1276 Z M1156 1324 L406 0 L306 0 L1056 1324 L1156 1324 Z " />
<glyph glyph-name="Acircumflex" unicode="&#xc2;" horiz-adv-x="1277" d="M714 1369 L1259 0 L1113 0 L948 430 L324 430 L156 0 L17 0 L568 1369 L714 1369 Z M909 535 L713 1040 Q670 1150 639 1247 Q600 1139 564 1047 L363 535 L909 535 Z M937 1479 L815 1479 L633 1665 L448 1479 L339 1479 L574 1737 L699 1737 L937 1479 Z " />
<glyph glyph-name="Ecircumflex" unicode="&#xca;" horiz-adv-x="1199" d="M1114 1365 L1114 1253 L296 1253 L296 763 L1062 763 L1062 651 L296 651 L296 112 L1122 112 L1122 0 L166 0 L166 1365 L1114 1365 Z M943 1479 L821 1479 L639 1665 L454 1479 L345 1479 L580 1737 L705 1737 L943 1479 Z " />
<glyph glyph-name="Aacute" unicode="&#xc1;" horiz-adv-x="1277" d="M714 1369 L1259 0 L1113 0 L948 430 L324 430 L156 0 L17 0 L568 1369 L714 1369 Z M909 535 L713 1040 Q670 1150 639 1247 Q600 1139 564 1047 L363 535 L909 535 Z M957 1737 L688 1479 L587 1479 L799 1737 L957 1737 Z " />
<glyph glyph-name="Edieresis" unicode="&#xcb;" horiz-adv-x="1199" d="M1114 1365 L1114 1253 L296 1253 L296 763 L1062 763 L1062 651 L296 651 L296 112 L1122 112 L1122 0 L166 0 L166 1365 L1114 1365 Z M912 1700 L912 1509 L782 1509 L782 1700 L912 1700 Z M499 1700 L499 1509 L369 1509 L369 1700 L499 1700 Z " />
<glyph glyph-name="Egrave" unicode="&#xc8;" horiz-adv-x="1199" d="M1114 1365 L1114 1253 L296 1253 L296 763 L1062 763 L1062 651 L296 651 L296 112 L1122 112 L1122 0 L166 0 L166 1365 L1114 1365 Z M400 1737 L557 1737 L769 1479 L669 1479 L400 1737 Z " />
<glyph glyph-name="Iacute" unicode="&#xcd;" horiz-adv-x="457" d="M294 1365 L294 0 L164 0 L164 1365 L294 1365 Z M517 1737 L282 1479 L188 1479 L366 1737 L517 1737 Z " />
<glyph glyph-name="Icircumflex" unicode="&#xce;" horiz-adv-x="457" d="M293 1365 L293 0 L163 0 L163 1365 L293 1365 Z M480 1479 L365 1479 L224 1665 L79 1479 L-30 1479 L165 1737 L290 1737 L480 1479 Z " />
<glyph glyph-name="Idieresis" unicode="&#xcf;" horiz-adv-x="457" d="M294 1365 L294 0 L164 0 L164 1365 L294 1365 Z M419 1700 L419 1509 L289 1509 L289 1700 L419 1700 Z M169 1700 L169 1509 L39 1509 L39 1700 L169 1700 Z " />
<glyph glyph-name="Igrave" unicode="&#xcc;" horiz-adv-x="457" d="M293 1365 L293 0 L163 0 L163 1365 L293 1365 Z M-11 1737 L139 1737 L317 1479 L224 1479 L-11 1737 Z " />
<glyph glyph-name="Oacute" unicode="&#xd3;" horiz-adv-x="1475" d="M745 1397 Q1021 1397 1202 1196 Q1380 999 1380 679 Q1380 397 1237 208 Q1055 -31 735 -31 Q418 -31 237 208 Q94 398 94 681 Q94 1005 270 1196 Q455 1397 745 1397 Z M744 1285 Q513 1285 367 1121 Q224 959 224 685 Q224 431 346 269 Q421 171 536 121 Q629 81 737 81 Q961 81 1104 240 Q1250 404 1250 680 Q1250 951 1109 1117 Q966 1285 744 1285 Z M1017 1737 L748 1479 L648 1479 L860 1737 L1017 1737 Z " />
<glyph glyph-name="Ocircumflex" unicode="&#xd4;" horiz-adv-x="1475" d="M745 1397 Q1021 1397 1202 1196 Q1380 999 1380 679 Q1380 397 1237 208 Q1055 -31 735 -31 Q418 -31 237 208 Q94 398 94 681 Q94 1005 270 1196 Q455 1397 745 1397 Z M744 1285 Q513 1285 367 1121 Q224 959 224 685 Q224 431 346 269 Q421 171 536 121 Q629 81 737 81 Q961 81 1104 240 Q1250 404 1250 680 Q1250 951 1109 1117 Q966 1285 744 1285 Z M1036 1479 L915 1479 L733 1665 L547 1479 L438 1479 L674 1737 L799 1737 L1036 1479 Z " />
<glyph glyph-name="Ograve" unicode="&#xd2;" horiz-adv-x="1475" d="M745 1397 Q1021 1397 1202 1196 Q1380 999 1380 679 Q1380 397 1237 208 Q1055 -31 735 -31 Q418 -31 237 208 Q94 398 94 681 Q94 1005 270 1196 Q455 1397 745 1397 Z M744 1285 Q513 1285 367 1121 Q224 959 224 685 Q224 431 346 269 Q421 171 536 121 Q629 81 737 81 Q961 81 1104 240 Q1250 404 1250 680 Q1250 951 1109 1117 Q966 1285 744 1285 Z M484 1737 L641 1737 L854 1479 L753 1479 L484 1737 Z " />
<glyph glyph-name="Uacute" unicode="&#xda;" horiz-adv-x="1351" d="M1209 1365 L1209 547 Q1209 401 1190.5 321 Q1172 241 1122 166 Q988 -31 684 -31 Q351 -31 218 189 Q177 256 161 336.5 Q145 417 145 551 L145 1365 L275 1365 L275 546 Q275 426 289 356 Q303 286 339 230 Q438 78 685 78 Q924 78 1016 226 Q1079 327 1079 548 L1079 1365 L1209 1365 Z M973 1737 L704 1479 L604 1479 L816 1737 L973 1737 Z " />
<glyph glyph-name="Ucircumflex" unicode="&#xdb;" horiz-adv-x="1351" d="M1209 1365 L1209 547 Q1209 401 1190.5 321 Q1172 241 1122 166 Q988 -31 684 -31 Q351 -31 218 189 Q177 256 161 336.5 Q145 417 145 551 L145 1365 L275 1365 L275 546 Q275 426 289 356 Q303 286 339 230 Q438 78 685 78 Q924 78 1016 226 Q1079 327 1079 548 L1079 1365 L1209 1365 Z M976 1479 L854 1479 L672 1665 L487 1479 L378 1479 L613 1737 L738 1737 L976 1479 Z " />
<glyph glyph-name="Ugrave" unicode="&#xd9;" horiz-adv-x="1351" d="M1209 1365 L1209 547 Q1209 401 1190.5 321 Q1172 241 1122 166 Q988 -31 684 -31 Q351 -31 218 189 Q177 256 161 336.5 Q145 417 145 551 L145 1365 L275 1365 L275 546 Q275 426 289 356 Q303 286 339 230 Q438 78 685 78 Q924 78 1016 226 Q1079 327 1079 548 L1079 1365 L1209 1365 Z M422 1737 L580 1737 L792 1479 L692 1479 L422 1737 Z " />
<glyph glyph-name="dotlessi" unicode="&#x131;" horiz-adv-x="421" d="M270 986 L270 0 L150 0 L150 986 L270 986 Z " />
<glyph glyph-name="circumflex" unicode="&#x2c6;" horiz-adv-x="1024" d="M777 1133 L657 1133 L508 1335 L355 1133 L248 1133 L451 1405 L572 1405 L777 1133 Z " />
<glyph glyph-name="tilde" unicode="&#x2dc;" horiz-adv-x="1024" d="M784 1368 Q753 1182 633 1182 Q601 1182 570.5 1194 Q540 1206 453 1253 Q421 1270 391 1270 Q332 1270 310 1174 L240 1174 Q254 1264 294.5 1312 Q335 1360 398 1360 Q445 1360 512 1323 Q575 1288 593.5 1280.5 Q612 1273 634 1273 Q692 1273 711 1368 L784 1368 Z " />
<glyph glyph-name="overscore" unicode="&#xaf;" horiz-adv-x="1024" d="M781 1315 L781 1229 L243 1229 L243 1315 L781 1315 Z " />
<glyph glyph-name="breve" unicode="&#x2d8;" horiz-adv-x="1024" d="M761 1402 Q750 1317 717 1261 Q651 1147 509 1147 Q402 1147 336 1215.5 Q270 1284 263 1402 L337 1402 Q366 1234 516 1234 Q654 1234 687 1402 L761 1402 Z " />
<glyph glyph-name="dotaccent" unicode="&#x2d9;" horiz-adv-x="1024" d="M574 1368 L574 1173 L451 1173 L451 1368 L574 1368 Z " />
<glyph glyph-name="ring" unicode="&#x2da;" horiz-adv-x="1024" d="M515 1474 Q596 1474 654 1411 Q703 1356 703 1283 Q703 1198 640 1141 Q585 1092 512 1092 Q427 1092 370 1155 Q321 1210 321 1285 Q321 1367 384 1425 Q438 1474 515 1474 Z M514 1395 Q466 1395 433 1362.5 Q400 1330 400 1284 Q400 1237 432.5 1204 Q465 1171 512 1171 Q558 1171 591 1204 Q624 1237 624 1283 Q624 1329 591.5 1362 Q559 1395 514 1395 Z " />
<glyph glyph-name="cedilla" unicode="&#xb8;" horiz-adv-x="1024" d="M567 0 L486 -107 Q528 -100 555 -100 Q623 -100 664 -134.5 Q705 -169 705 -226 Q705 -301 648.5 -345 Q592 -389 497 -389 Q417 -389 319 -350 L346 -292 Q417 -323 482 -323 Q535 -323 567 -299.5 Q599 -276 599 -237 Q599 -203 571 -181.5 Q543 -160 498 -160 Q463 -160 418 -177 L389 -148 L503 0 L567 0 Z " />
<glyph glyph-name="hungarumlaut" unicode="&#x2dd;" horiz-adv-x="1024" d="M866 1405 L668 1133 L578 1133 L725 1405 L866 1405 Z M606 1405 L409 1133 L319 1133 L466 1405 L606 1405 Z " />
<glyph glyph-name="ogonek" unicode="&#x2db;" horiz-adv-x="1024" d="M909 0 L994 0 Q855 -87 855 -184 Q855 -225 889.5 -250 Q924 -275 981 -275 Q1014 -275 1065 -259 L1065 -330 Q1004 -351 951 -351 Q853 -351 799 -301 Q753 -259 753 -198 Q753 -90 909 0 Z " />
<glyph glyph-name="caron" unicode="&#x2c7;" horiz-adv-x="1024" d="M248 1405 L368 1405 L517 1202 L669 1405 L777 1405 L574 1133 L453 1133 L248 1405 Z " />
<glyph glyph-name="nbspace" unicode="&#xa0;" horiz-adv-x="512" d="" />
<glyph glyph-name="currency" unicode="&#xa4;" horiz-adv-x="1365" d="M132 244 L318 434 Q211 569 211 728 Q211 880 318 1019 L126 1209 L195 1278 L385 1089 Q528 1198 683 1198 Q839 1198 978 1090 L1169 1278 L1238 1209 L1048 1020 Q1155 880 1155 726 Q1155 573 1049 435 L1240 245 L1171 175 L981 366 Q844 259 686 259 Q536 259 389 365 L200 176 L132 244 Z M688 1090 Q534 1090 428 983 Q323 878 323 727 Q323 578 428 473 Q534 367 683 367 Q832 367 938 473 Q1043 578 1043 727 Q1043 880 939 983 Q830 1090 688 1090 Z " />
<glyph glyph-name="brokenbar" unicode="&#xa6;" horiz-adv-x="1024" d="M448 1365 L576 1365 L576 689 L448 689 L448 1365 Z M448 314 L576 314 L576 -341 L448 -341 L448 314 Z " />
<glyph glyph-name="uni00AD" unicode="&#xad;" horiz-adv-x="455" d="M455 560 L455 451 L0 451 L0 560 L455 560 Z " />
<glyph glyph-name="twosuperior" unicode="&#xb2;" horiz-adv-x="728" d="M639 624 L639 546 L76 546 Q84 659 134.5 723 Q185 787 341 885 Q461 960 503 1009.5 Q545 1059 545 1126 Q545 1197 496.5 1240 Q448 1283 368 1283 Q189 1283 184 1064 L97 1064 Q97 1076 97 1083 Q97 1210 171 1283.5 Q245 1357 372 1357 Q485 1357 556 1300 Q635 1237 635 1126 Q635 1034 579 968.5 Q523 903 362 804 Q264 745 226.5 708 Q189 671 177 624 L639 624 Z " />
<glyph glyph-name="threesuperior" unicode="&#xb3;" horiz-adv-x="728" d="M82 1084 Q84 1185 127 1249 Q198 1357 358 1357 Q472 1357 544 1299 Q615 1242 615 1146 Q615 1026 496 976 Q646 932 646 782 Q646 670 565 600 Q484 530 353 530 Q220 530 141 600.5 Q62 671 62 790 Q62 798 63 814 L148 814 Q148 807 148 800 Q148 738 176 691 Q200 651 248 627.5 Q296 604 354 604 Q441 604 498.5 652.5 Q556 701 556 775 Q556 853 501.5 893.5 Q447 934 343 934 Q325 934 296 932 L296 1006 Q321 1005 336 1005 Q427 1005 476 1041 Q525 1077 525 1143 Q525 1207 478.5 1245 Q432 1283 355 1283 Q173 1283 166 1084 L82 1084 Z " />
<glyph glyph-name="onesuperior" unicode="&#xb9;" horiz-adv-x="728" d="M468 1349 L468 546 L377 546 L377 1134 L352 1134 L270 1134 L203 1134 L161 1134 L162 1203 Q301 1206 340 1234 Q362 1250 373 1272.5 Q384 1295 397 1349 L468 1349 Z " />
<glyph glyph-name="onequarter" unicode="&#xbc;" horiz-adv-x="1757" d="M467 1349 L467 546 L376 546 L376 1134 L351 1134 L269 1134 L202 1134 L160 1134 L161 1203 Q300 1206 339 1234 Q361 1250 372 1272.5 Q383 1295 396 1349 L467 1349 Z M1330 1341 L520 0 L428 0 L1241 1341 L1330 1341 Z M1685 266 L1685 194 L1559 194 L1559 0 L1476 0 L1476 194 L1092 194 L1092 269 L1485 803 L1559 803 L1559 266 L1685 266 Z M1476 266 L1476 679 L1174 266 L1476 266 Z " />
<glyph glyph-name="onehalf" unicode="&#xbd;" horiz-adv-x="1757" d="M467 1349 L467 546 L376 546 L376 1134 L351 1134 L269 1134 L202 1134 L160 1134 L161 1203 Q300 1206 339 1234 Q361 1250 372 1272.5 Q383 1295 396 1349 L467 1349 Z M1330 1341 L520 0 L428 0 L1241 1341 L1330 1341 Z M1669 78 L1669 0 L1106 0 Q1115 113 1165 176.5 Q1215 240 1372 338 Q1492 414 1533.5 463.5 Q1575 513 1575 579 Q1575 651 1526.5 694 Q1478 737 1399 737 Q1219 737 1214 517 L1127 517 Q1127 527 1127 536 Q1127 664 1201 738 Q1275 812 1403 812 Q1515 812 1586 755 Q1665 692 1665 580 Q1665 488 1609 422 Q1553 356 1392 258 Q1295 199 1257 162 Q1219 125 1207 78 L1669 78 Z " />
<glyph glyph-name="threequarters" unicode="&#xbe;" horiz-adv-x="1757" d="M82 1084 Q84 1185 127 1249 Q198 1357 358 1357 Q472 1357 544 1299 Q615 1242 615 1146 Q615 1026 496 976 Q646 932 646 782 Q646 670 565 600 Q484 530 353 530 Q220 530 141 600.5 Q62 671 62 790 Q62 798 63 814 L148 814 Q148 807 148 800 Q148 738 176 691 Q200 651 248 627.5 Q296 604 354 604 Q441 604 498.5 652.5 Q556 701 556 775 Q556 853 501.5 893.5 Q447 934 343 934 Q325 934 296 932 L296 1006 Q321 1005 336 1005 Q427 1005 476 1041 Q525 1077 525 1143 Q525 1207 478.5 1245 Q432 1283 355 1283 Q173 1283 166 1084 L82 1084 Z M1330 1341 L519 0 L428 0 L1240 1341 L1330 1341 Z M1684 266 L1684 194 L1559 194 L1559 0 L1476 0 L1476 194 L1092 194 L1092 269 L1485 803 L1559 803 L1559 266 L1684 266 Z M1476 266 L1476 679 L1174 266 L1476 266 Z " />
<glyph glyph-name="Eth" unicode="&#xd0;" horiz-adv-x="1363" d="M165 1365 L641 1365 Q790 1365 891 1333 Q992 1301 1073 1228 Q1178 1132 1228 979 Q1270 852 1270 708 Q1270 344 1078 151 Q996 69 899 34.5 Q802 0 651 0 L165 0 L165 662 L22 662 L22 771 L165 771 L165 1365 Z M295 1253 L295 771 L705 771 L705 662 L295 662 L295 112 L620 112 Q762 112 843.5 138 Q925 164 988 229 Q1140 385 1140 701 Q1140 983 995 1128 Q930 1194 846 1223.5 Q762 1253 641 1253 L295 1253 Z " />
<glyph glyph-name="multiply" unicode="&#xd7;" horiz-adv-x="1120" d="M171 336 L497 662 L171 989 L234 1051 L560 725 L886 1051 L949 989 L623 662 L949 336 L886 273 L560 599 L234 273 L171 336 Z " />
<glyph glyph-name="Yacute" unicode="&#xdd;" horiz-adv-x="1186" d="M1201 1365 L660 564 L660 0 L530 0 L530 564 L-12 1365 L144 1365 L525 793 Q558 744 599 673 Q642 748 669 789 L1052 1365 L1201 1365 Z M876 1737 L607 1479 L507 1479 L719 1737 L876 1737 Z " />
<glyph glyph-name="Thorn" unicode="&#xde;" horiz-adv-x="1246" d="M166 1365 L296 1365 L296 1161 L711 1161 Q826 1161 896 1146 Q966 1131 1022 1093 Q1178 990 1178 776 Q1178 559 1027 452 Q920 377 727 377 L296 377 L296 0 L166 0 L166 1365 Z M296 1049 L296 489 L690 489 Q779 489 832 499.5 Q885 510 927 536 Q1048 612 1048 769 Q1048 929 930 1003 Q887 1030 835.5 1039.5 Q784 1049 684 1049 L296 1049 Z " />
<glyph glyph-name="eth" unicode="&#xf0;" horiz-adv-x="1103" d="M416 1161 L561 1237 L469 1364 L542 1412 L652 1283 L800 1356 L848 1284 L705 1210 Q875 969 946.5 804.5 Q1018 640 1018 490 Q1018 262 900 122 Q773 -29 554 -29 Q321 -29 193 135 Q84 276 84 494 Q84 741 225 886 Q351 1015 546 1015 Q606 1015 642.5 1003.5 Q679 992 736 955 Q674 1065 608 1162 L457 1088 L416 1161 Z M557 915 Q400 915 305 804 Q207 690 207 492 Q207 295 302 182 Q396 71 555 71 Q705 71 795 174 Q896 290 896 492 Q896 682 805 797 Q762 852 696 883.5 Q630 915 557 915 Z " />
<glyph glyph-name="yacute" unicode="&#xfd;" horiz-adv-x="895" d="M889 986 L502 -37 Q430 -227 393 -282 Q331 -374 210 -374 Q169 -374 131 -369 L105 -365 L105 -259 Q159 -272 191 -272 Q246 -272 283.5 -238 Q321 -204 350 -128 Q380 -50 385 -41 Q403 -7 403 1 Q403 4 401 7 L5 986 L137 986 L404 307 Q415 279 462 133 Q503 263 524 320 L766 986 L889 986 Z M717 1405 L475 1133 L378 1133 L570 1405 L717 1405 Z " />
<glyph glyph-name="thorn" unicode="&#xfe;" horiz-adv-x="1147" d="M272 1365 L272 801 Q303 872 357 921 Q462 1015 624 1015 Q825 1015 947 871 Q1064 734 1064 498 Q1064 259 947 119 Q825 -29 625 -29 Q500 -29 408.5 29.5 Q317 88 272 197 L272 -367 L152 -367 L152 1365 L272 1365 Z M612 915 Q460 915 366 809 Q269 699 269 493 Q269 293 366 179 Q458 71 608 71 Q757 71 846 181 Q942 299 942 494 Q942 680 859 792 Q768 915 612 915 Z " />
<glyph glyph-name="Amacron" unicode="&#x100;" horiz-adv-x="1277" d="M714 1369 L1259 0 L1113 0 L948 430 L324 430 L156 0 L17 0 L568 1369 L714 1369 Z M909 535 L713 1040 Q670 1150 639 1247 Q600 1139 564 1047 L363 535 L909 535 Z M948 1642 L948 1556 L328 1556 L328 1642 L948 1642 Z " />
<glyph glyph-name="amacron" unicode="&#x101;" horiz-adv-x="1023" d="M985 100 L985 7 Q940 -8 889 -8 Q819 -8 790.5 32.5 Q762 73 762 173 Q634 -29 389 -29 Q246 -29 163 37 Q67 113 67 250 Q67 444 253 517 Q306 538 354 545.5 Q402 553 599 572 Q689 581 722.5 608 Q756 635 756 699 Q756 813 693 863 Q628 915 498 915 Q371 915 306 858.5 Q241 802 229 681 L114 681 Q121 842 224.5 928.5 Q328 1015 512 1015 Q714 1015 812 914 Q848 876 860.5 827 Q873 778 873 671 L872 381 Q873 200 874 167.5 Q875 135 882 120 Q893 93 939 93 Q960 93 985 100 Z M756 537 Q725 511 684.5 500.5 Q644 490 484 468 Q325 446 259 401 Q189 353 189 261 Q189 173 251 122 Q314 69 419 69 Q566 69 661 155.5 Q756 242 756 377 L756 537 Z M781 1315 L781 1229 L243 1229 L243 1315 L781 1315 Z " />
<glyph glyph-name="Abreve" unicode="&#x102;" horiz-adv-x="1277" d="M714 1369 L1259 0 L1113 0 L948 430 L324 430 L156 0 L17 0 L568 1369 L714 1369 Z M909 535 L713 1040 Q670 1150 639 1247 Q600 1139 564 1047 L363 535 L909 535 Z M914 1737 Q902 1652 866 1598 Q790 1486 635 1486 Q516 1486 442.5 1553.5 Q369 1621 361 1737 L437 1737 Q448 1679 474 1646 Q530 1573 639 1573 Q802 1573 839 1737 L914 1737 Z " />
<glyph glyph-name="abreve" unicode="&#x103;" horiz-adv-x="1023" d="M985 100 L985 7 Q940 -8 889 -8 Q819 -8 790.5 32.5 Q762 73 762 173 Q634 -29 389 -29 Q246 -29 163 37 Q67 113 67 250 Q67 444 253 517 Q306 538 354 545.5 Q402 553 599 572 Q689 581 722.5 608 Q756 635 756 699 Q756 813 693 863 Q628 915 498 915 Q371 915 306 858.5 Q241 802 229 681 L114 681 Q121 842 224.5 928.5 Q328 1015 512 1015 Q714 1015 812 914 Q848 876 860.5 827 Q873 778 873 671 L872 381 Q873 200 874 167.5 Q875 135 882 120 Q893 93 939 93 Q960 93 985 100 Z M756 537 Q725 511 684.5 500.5 Q644 490 484 468 Q325 446 259 401 Q189 353 189 261 Q189 173 251 122 Q314 69 419 69 Q566 69 661 155.5 Q756 242 756 377 L756 537 Z M766 1402 Q755 1317 723 1261 Q657 1147 515 1147 Q408 1147 342 1215.5 Q276 1284 269 1402 L343 1402 Q372 1234 522 1234 Q660 1234 693 1402 L766 1402 Z " />
<glyph glyph-name="Aogonek" unicode="&#x104;" horiz-adv-x="1277" d="M1259 0 Q1198 -31 1159 -83 Q1120 -135 1120 -184 Q1120 -235 1169 -259 Q1204 -275 1245 -275 Q1278 -275 1330 -259 L1330 -330 Q1268 -351 1216 -351 Q1118 -351 1064 -301 Q1018 -259 1018 -198 Q1018 -90 1173 0 L1113 0 L948 430 L324 430 L156 0 L17 0 L568 1369 L714 1369 L1259 0 Z M909 535 L713 1040 Q670 1150 639 1247 Q600 1139 564 1047 L363 535 L909 535 Z " />
<glyph glyph-name="aogonek" unicode="&#x105;" horiz-adv-x="1023" d="M1037 -259 L1037 -330 Q976 -351 924 -351 Q826 -351 771 -301 Q725 -259 725 -199 Q725 -86 876 -8 Q816 0 791 32 Q761 70 761 173 Q633 -29 388 -29 Q245 -29 162 37 Q66 112 66 251 Q66 444 252 517 Q305 538 353 545.5 Q401 553 598 572 Q688 581 721.5 608 Q755 635 755 699 Q755 813 692 863 Q627 915 497 915 Q370 915 305 858.5 Q240 802 228 681 L113 681 Q120 841 223.5 928 Q327 1015 511 1015 Q713 1015 812 914 Q848 876 860.5 827 Q873 778 873 671 L872 381 Q873 200 874 167.5 Q875 135 882 120 Q893 93 939 93 Q960 93 985 100 L985 7 Q910 -28 868.5 -78 Q827 -128 827 -184 Q827 -235 877 -259 Q912 -275 953 -275 Q986 -275 1037 -259 Z M755 537 Q724 511 683.5 500.5 Q643 490 483 468 Q324 446 258 401 Q188 353 188 261 Q188 173 250 122 Q313 69 418 69 Q565 69 660 155.5 Q755 242 755 377 L755 537 Z " />
<glyph glyph-name="Cacute" unicode="&#x106;" horiz-adv-x="1380" d="M1306 523 Q1289 320 1175 176 Q1011 -31 719 -31 Q411 -31 237 198 Q94 387 94 680 Q94 995 273 1199 Q445 1396 731 1396 Q1001 1396 1163 1222 Q1274 1103 1289 956 L1160 956 Q1135 1072 1058 1153 Q933 1284 727 1284 Q471 1284 333 1079 Q224 916 224 682 Q224 440 331 284 Q470 81 724 81 Q915 81 1034 196.5 Q1153 312 1178 523 L1306 523 Z M1031 1737 L762 1479 L661 1479 L873 1737 L1031 1737 Z " />
<glyph glyph-name="cacute" unicode="&#x107;" horiz-adv-x="1019" d="M955 352 Q936 217 867 126 Q749 -29 539 -29 Q304 -29 180 148 Q84 285 84 484 Q84 739 221 883 Q347 1015 544 1015 Q715 1015 821.5 925 Q928 835 947 674 L825 674 Q807 767 762 821 Q684 915 545 915 Q370 915 279 774 Q206 661 206 492 Q206 315 284 202 Q373 71 534 71 Q658 71 736.5 144.5 Q815 218 834 352 L955 352 Z M820 1405 L578 1133 L481 1133 L673 1405 L820 1405 Z " />
<glyph glyph-name="Ccircumflex" unicode="&#x108;" horiz-adv-x="1380" d="M1306 523 Q1289 320 1175 176 Q1011 -31 719 -31 Q411 -31 237 198 Q94 387 94 680 Q94 995 273 1199 Q445 1396 731 1396 Q1001 1396 1163 1222 Q1274 1103 1289 956 L1160 956 Q1135 1072 1058 1153 Q933 1284 727 1284 Q471 1284 333 1079 Q224 916 224 682 Q224 440 331 284 Q470 81 724 81 Q915 81 1034 196.5 Q1153 312 1178 523 L1306 523 Z M1040 1479 L919 1479 L737 1665 L551 1479 L442 1479 L677 1737 L802 1737 L1040 1479 Z " />
<glyph glyph-name="ccircumflex" unicode="&#x109;" horiz-adv-x="1019" d="M956 352 Q937 217 868 126 Q750 -29 540 -29 Q304 -29 181 148 Q85 285 85 484 Q85 740 222 883 Q349 1015 545 1015 Q716 1015 822.5 925.5 Q929 836 948 675 L827 675 Q808 768 763 821 Q685 915 546 915 Q370 915 279 775 Q206 662 206 493 Q206 315 284 201 Q373 71 535 71 Q659 71 737.5 144.5 Q816 218 835 352 L956 352 Z M813 1133 L693 1133 L544 1335 L392 1133 L284 1133 L487 1405 L608 1405 L813 1133 Z " />
<glyph glyph-name="Cdotaccent" unicode="&#x10a;" horiz-adv-x="1380" d="M1306 523 Q1289 320 1175 176 Q1011 -31 719 -31 Q411 -31 237 198 Q94 387 94 680 Q94 995 273 1199 Q445 1396 731 1396 Q1001 1396 1163 1222 Q1274 1103 1289 956 L1160 956 Q1135 1072 1058 1153 Q933 1284 727 1284 Q471 1284 333 1079 Q224 916 224 682 Q224 440 331 284 Q470 81 724 81 Q915 81 1034 196.5 Q1153 312 1178 523 L1306 523 Z M801 1700 L801 1509 L671 1509 L671 1700 L801 1700 Z " />
<glyph glyph-name="cdotaccent" unicode="&#x10b;" horiz-adv-x="1019" d="M955 352 Q936 217 867 126 Q749 -29 539 -29 Q304 -29 180 148 Q84 285 84 484 Q84 739 221 883 Q347 1015 544 1015 Q715 1015 821.5 925 Q928 835 947 674 L825 674 Q807 767 762 821 Q684 915 545 915 Q370 915 279 774 Q206 661 206 492 Q206 315 284 202 Q373 71 534 71 Q658 71 736.5 144.5 Q815 218 834 352 L955 352 Z M611 1368 L611 1173 L488 1173 L488 1368 L611 1368 Z " />
<glyph glyph-name="Ccaron" unicode="&#x10c;" horiz-adv-x="1380" d="M1306 523 Q1289 320 1175 176 Q1011 -31 719 -31 Q411 -31 237 198 Q94 387 94 680 Q94 995 273 1199 Q445 1396 731 1396 Q1001 1396 1163 1222 Q1274 1103 1289 956 L1160 956 Q1135 1072 1058 1153 Q933 1284 727 1284 Q471 1284 333 1079 Q224 916 224 682 Q224 440 331 284 Q470 81 724 81 Q915 81 1034 196.5 Q1153 312 1178 523 L1306 523 Z M442 1737 L563 1737 L745 1551 L931 1737 L1040 1737 L805 1479 L679 1479 L442 1737 Z " />
<glyph glyph-name="ccaron" unicode="&#x10d;" horiz-adv-x="1019" d="M955 352 Q936 217 867 126 Q749 -29 539 -29 Q304 -29 180 148 Q84 285 84 484 Q84 739 221 883 Q347 1015 544 1015 Q715 1015 821.5 925 Q928 835 947 674 L825 674 Q807 767 762 821 Q684 915 545 915 Q370 915 279 774 Q206 661 206 492 Q206 315 284 202 Q373 71 534 71 Q658 71 736.5 144.5 Q815 218 834 352 L955 352 Z M291 1405 L411 1405 L560 1202 L713 1405 L820 1405 L617 1133 L496 1133 L291 1405 Z " />
<glyph glyph-name="Dcaron" unicode="&#x10e;" horiz-adv-x="1363" d="M166 1365 L642 1365 Q790 1365 891.5 1332.5 Q993 1300 1074 1228 Q1179 1132 1229 979 Q1271 852 1271 707 Q1271 344 1079 151 Q997 69 900 34.5 Q803 0 652 0 L166 0 L166 1365 Z M296 1253 L296 112 L621 112 Q762 112 844 138 Q926 164 989 229 Q1141 386 1141 701 Q1141 983 996 1128 Q931 1194 847 1223.5 Q763 1253 641 1253 L296 1253 Z M328 1737 L450 1737 L632 1551 L817 1737 L926 1737 L691 1479 L566 1479 L328 1737 Z " />
<glyph glyph-name="dcaron" unicode="&#x10f;" horiz-adv-x="1252" d="M997 1365 L997 0 L884 0 L884 196 Q838 86 747.5 28.5 Q657 -29 530 -29 Q319 -29 198 122 Q84 264 84 493 Q84 738 208 877 Q331 1015 526 1015 Q777 1015 877 804 L877 1365 L997 1365 Z M545 915 Q391 915 301 808 Q206 694 206 494 Q206 314 288 198 Q377 71 541 71 Q701 71 793 189 Q880 301 880 491 Q880 694 787 803 Q691 915 545 915 Z M1265 1365 L1265 1240 Q1269 1056 1120 1018 L1120 1080 Q1191 1115 1198 1212 L1134 1212 L1134 1365 L1265 1365 Z " />
<glyph glyph-name="Dcroat" unicode="&#x110;" horiz-adv-x="1363" d="M165 1365 L641 1365 Q790 1365 891 1333 Q992 1301 1073 1228 Q1178 1132 1228 979 Q1270 852 1270 708 Q1270 344 1078 151 Q996 69 899 34.5 Q802 0 651 0 L165 0 L165 662 L22 662 L22 771 L165 771 L165 1365 Z M295 1253 L295 771 L705 771 L705 662 L295 662 L295 112 L620 112 Q762 112 843.5 138 Q925 164 988 229 Q1140 385 1140 701 Q1140 983 995 1128 Q930 1194 846 1223.5 Q762 1253 641 1253 L295 1253 Z " />
<glyph glyph-name="dcroat" unicode="&#x111;" horiz-adv-x="1149" d="M877 1229 L877 1365 L997 1365 L997 1229 L1133 1229 L1134 1133 L997 1133 L997 0 L884 0 L884 196 Q838 86 747.5 28.5 Q657 -29 530 -29 Q319 -29 198 122 Q84 263 84 493 Q84 737 208 876 Q331 1014 526 1014 Q777 1014 877 804 L877 1133 L550 1133 L550 1229 L877 1229 Z M545 915 Q392 915 301 808 Q206 694 206 494 Q206 314 288 198 Q377 71 541 71 Q701 71 793 189 Q880 301 880 491 Q880 694 787 803 Q691 915 545 915 Z " />
<glyph glyph-name="Emacron" unicode="&#x112;" horiz-adv-x="1199" d="M1114 1365 L1114 1253 L296 1253 L296 763 L1062 763 L1062 651 L296 651 L296 112 L1122 112 L1122 0 L166 0 L166 1365 L1114 1365 Z M951 1642 L951 1556 L331 1556 L331 1642 L951 1642 Z " />
<glyph glyph-name="emacron" unicode="&#x113;" horiz-adv-x="1045" d="M957 325 Q938 230 898 164 Q781 -29 537 -29 Q315 -29 193 128 Q84 269 84 483 Q84 720 213 869 Q339 1015 534 1015 Q691 1015 803 918 Q890 842 929.5 734 Q969 626 968 464 L206 465 Q208 365 230 298 Q304 71 539 71 Q658 71 734.5 135.5 Q811 200 841 325 L957 325 Z M846 564 Q840 689 789 771 Q699 915 531 915 Q418 915 335 846 Q230 760 206 564 L846 564 Z M805 1315 L805 1229 L267 1229 L267 1315 L805 1315 Z " />
<glyph glyph-name="Ebreve" unicode="&#x114;" horiz-adv-x="1199" d="M1114 1365 L1114 1253 L296 1253 L296 763 L1062 763 L1062 651 L296 651 L296 112 L1122 112 L1122 0 L166 0 L166 1365 L1114 1365 Z M917 1737 Q904 1652 868 1598 Q793 1486 637 1486 Q519 1486 445.5 1553.5 Q372 1621 364 1737 L439 1737 Q451 1679 477 1646 Q533 1573 641 1573 Q805 1573 842 1737 L917 1737 Z " />
<glyph glyph-name="ebreve" unicode="&#x115;" horiz-adv-x="1045" d="M957 325 Q938 230 898 164 Q781 -29 537 -29 Q315 -29 193 128 Q84 269 84 483 Q84 720 213 869 Q339 1015 534 1015 Q691 1015 803 918 Q890 842 929.5 734 Q969 626 968 464 L206 465 Q208 365 230 298 Q304 71 539 71 Q658 71 734.5 135.5 Q811 200 841 325 L957 325 Z M846 564 Q840 689 789 771 Q699 915 531 915 Q418 915 335 846 Q230 760 206 564 L846 564 Z M784 1402 Q773 1317 741 1261 Q675 1147 533 1147 Q426 1147 360 1215.5 Q294 1284 287 1402 L361 1402 Q390 1234 540 1234 Q678 1234 711 1402 L784 1402 Z " />
<glyph glyph-name="Edotaccent" unicode="&#x116;" horiz-adv-x="1199" d="M1114 1365 L1114 1253 L296 1253 L296 763 L1062 763 L1062 651 L296 651 L296 112 L1122 112 L1122 0 L166 0 L166 1365 L1114 1365 Z M714 1700 L714 1509 L584 1509 L584 1700 L714 1700 Z " />
<glyph glyph-name="edotaccent" unicode="&#x117;" horiz-adv-x="1045" d="M957 325 Q938 230 898 164 Q781 -29 537 -29 Q315 -29 193 128 Q84 269 84 483 Q84 720 213 869 Q339 1015 534 1015 Q691 1015 803 918 Q890 842 929.5 734 Q969 626 968 464 L206 465 Q208 365 230 298 Q304 71 539 71 Q658 71 734.5 135.5 Q811 200 841 325 L957 325 Z M846 564 Q840 689 789 771 Q699 915 531 915 Q418 915 335 846 Q230 760 206 564 L846 564 Z M606 1368 L606 1173 L483 1173 L483 1368 L606 1368 Z " />
<glyph glyph-name="Eogonek" unicode="&#x118;" horiz-adv-x="1199" d="M1122 0 Q1061 -32 1022 -83.5 Q983 -135 983 -184 Q983 -226 1017.5 -250.5 Q1052 -275 1109 -275 Q1142 -275 1193 -259 L1193 -330 Q1132 -351 1079 -351 Q981 -351 927 -301 Q881 -259 881 -198 Q881 -90 1037 0 L166 0 L166 1365 L1114 1365 L1114 1253 L296 1253 L296 763 L1062 763 L1062 651 L296 651 L296 112 L1122 112 L1122 0 Z " />
<glyph glyph-name="eogonek" unicode="&#x119;" horiz-adv-x="1045" d="M860 -259 L860 -330 Q799 -351 746 -351 Q648 -351 594 -301 Q548 -259 548 -199 Q548 -144 580 -102 Q612 -60 698 -3 Q615 -29 544 -29 Q315 -29 193 129 Q84 269 84 483 Q84 720 213 869 Q339 1015 534 1015 Q691 1015 803 918 Q890 843 929.5 734.5 Q969 626 968 464 L206 465 Q208 365 230 298 Q305 71 540 71 Q658 71 735 135.5 Q812 200 841 325 L957 325 Q938 226 904.5 172.5 Q871 119 750 -7 Q650 -111 650 -185 Q650 -226 684.5 -250.5 Q719 -275 776 -275 Q808 -275 860 -259 Z M846 564 Q840 689 789 771 Q699 915 531 915 Q418 915 335 846 Q230 760 206 564 L846 564 Z " />
<glyph glyph-name="Ecaron" unicode="&#x11a;" horiz-adv-x="1199" d="M1114 1365 L1114 1253 L296 1253 L296 763 L1062 763 L1062 651 L296 651 L296 112 L1122 112 L1122 0 L166 0 L166 1365 L1114 1365 Z M353 1737 L475 1737 L657 1551 L843 1737 L952 1737 L716 1479 L591 1479 L353 1737 Z " />
<glyph glyph-name="ecaron" unicode="&#x11b;" horiz-adv-x="1045" d="M957 325 Q938 230 898 164 Q781 -29 537 -29 Q315 -29 193 128 Q84 269 84 483 Q84 720 213 869 Q339 1015 534 1015 Q691 1015 803 918 Q890 842 929.5 734 Q969 626 968 464 L206 465 Q208 365 230 298 Q304 71 539 71 Q658 71 734.5 135.5 Q811 200 841 325 L957 325 Z M846 564 Q840 689 789 771 Q699 915 531 915 Q418 915 335 846 Q230 760 206 564 L846 564 Z M283 1405 L403 1405 L552 1202 L705 1405 L812 1405 L609 1133 L488 1133 L283 1405 Z " />
<glyph glyph-name="Gcircumflex" unicode="&#x11c;" horiz-adv-x="1463" d="M1329 694 L1329 0 L1243 0 L1216 255 Q1154 119 1028 44 Q902 -31 735 -31 Q535 -31 384 67 Q234 164 156 345 Q93 492 93 670 Q93 994 278 1201 Q453 1396 742 1396 Q1012 1396 1175 1225 Q1286 1108 1310 945 L1184 945 Q1157 1098 1035.5 1191 Q914 1284 743 1284 Q488 1284 343 1090 Q223 930 223 672 Q223 425 344 269 Q488 81 742 81 Q946 81 1076 208 Q1213 341 1214 588 L746 588 L746 694 L1329 694 Z M1061 1479 L940 1479 L758 1665 L572 1479 L463 1479 L699 1737 L824 1737 L1061 1479 Z " />
<glyph glyph-name="gcircumflex" unicode="&#x11d;" horiz-adv-x="1123" d="M971 986 L971 95 Q971 -19 958 -86.5 Q945 -154 912 -209 Q807 -386 528 -386 Q346 -386 240.5 -308.5 Q135 -231 124 -89 L245 -89 Q274 -289 530 -289 Q699 -289 775 -205 Q851 -121 852 66 L853 230 Q748 14 511 14 Q310 14 192 158 Q84 289 84 504 Q84 737 204 874 Q326 1015 522 1015 Q748 1015 858 802 L858 986 L971 986 Z M534 915 Q366 915 279 787 Q206 680 206 517 Q206 312 307 206 Q393 114 525 114 Q687 114 778 245 Q851 349 851 516 Q851 724 746 829 Q660 915 534 915 Z M825 1133 L706 1133 L556 1335 L404 1133 L296 1133 L499 1405 L620 1405 L825 1133 Z " />
<glyph glyph-name="Gbreve" unicode="&#x11e;" horiz-adv-x="1463" d="M1329 694 L1329 0 L1243 0 L1216 255 Q1154 119 1028 44 Q902 -31 735 -31 Q535 -31 384 67 Q234 164 156 345 Q93 492 93 670 Q93 994 278 1201 Q453 1396 742 1396 Q1012 1396 1175 1225 Q1286 1108 1310 945 L1184 945 Q1157 1098 1035.5 1191 Q914 1284 743 1284 Q488 1284 343 1090 Q223 930 223 672 Q223 425 344 269 Q488 81 742 81 Q946 81 1076 208 Q1213 341 1214 588 L746 588 L746 694 L1329 694 Z M1026 1737 Q1013 1652 977 1598 Q902 1486 746 1486 Q628 1486 554.5 1553.5 Q481 1621 473 1737 L548 1737 Q560 1679 586 1646 Q642 1573 750 1573 Q914 1573 951 1737 L1026 1737 Z " />
<glyph glyph-name="gbreve" unicode="&#x11f;" horiz-adv-x="1123" d="M971 986 L971 95 Q971 -19 958 -86.5 Q945 -154 912 -209 Q807 -386 528 -386 Q346 -386 240.5 -308.5 Q135 -231 124 -89 L245 -89 Q274 -289 530 -289 Q699 -289 775 -205 Q851 -121 852 66 L853 230 Q748 14 511 14 Q310 14 192 158 Q84 289 84 504 Q84 737 204 874 Q326 1015 522 1015 Q748 1015 858 802 L858 986 L971 986 Z M534 915 Q366 915 279 787 Q206 680 206 517 Q206 312 307 206 Q393 114 525 114 Q687 114 778 245 Q851 349 851 516 Q851 724 746 829 Q660 915 534 915 Z M810 1402 Q799 1317 766 1261 Q700 1147 558 1147 Q452 1147 385.5 1215.5 Q319 1284 312 1402 L386 1402 Q415 1234 565 1234 Q703 1234 736 1402 L810 1402 Z " />
<glyph glyph-name="Gdotaccent" unicode="&#x120;" horiz-adv-x="1463" d="M1329 694 L1329 0 L1243 0 L1216 255 Q1154 119 1028 44 Q902 -31 735 -31 Q535 -31 384 67 Q234 164 156 345 Q93 492 93 670 Q93 994 278 1201 Q453 1396 742 1396 Q1012 1396 1175 1225 Q1286 1108 1310 945 L1184 945 Q1157 1098 1035.5 1191 Q914 1284 743 1284 Q488 1284 343 1090 Q223 930 223 672 Q223 425 344 269 Q488 81 742 81 Q946 81 1076 208 Q1213 341 1214 588 L746 588 L746 694 L1329 694 Z M810 1700 L810 1509 L680 1509 L680 1700 L810 1700 Z " />
<glyph glyph-name="gdotaccent" unicode="&#x121;" horiz-adv-x="1123" d="M971 986 L971 95 Q971 -19 958 -86.5 Q945 -154 912 -209 Q807 -386 528 -386 Q346 -386 240.5 -308.5 Q135 -231 124 -89 L245 -89 Q274 -289 530 -289 Q699 -289 775 -205 Q851 -121 852 66 L853 230 Q748 14 511 14 Q310 14 192 158 Q84 289 84 504 Q84 737 204 874 Q326 1015 522 1015 Q748 1015 858 802 L858 986 L971 986 Z M534 915 Q366 915 279 787 Q206 680 206 517 Q206 312 307 206 Q393 114 525 114 Q687 114 778 245 Q851 349 851 516 Q851 724 746 829 Q660 915 534 915 Z M622 1368 L622 1173 L499 1173 L499 1368 L622 1368 Z " />
<glyph glyph-name="Gcommaaccent" unicode="&#x122;" horiz-adv-x="1463" d="M1329 694 L1329 0 L1243 0 L1216 255 Q1154 119 1028 44 Q902 -31 735 -31 Q535 -31 384 67 Q234 164 156 345 Q93 492 93 670 Q93 994 278 1201 Q453 1396 742 1396 Q1012 1396 1175 1225 Q1286 1108 1310 945 L1184 945 Q1157 1098 1035.5 1191 Q914 1284 743 1284 Q488 1284 343 1090 Q223 930 223 672 Q223 425 344 269 Q488 81 742 81 Q946 81 1076 208 Q1213 341 1214 588 L746 588 L746 694 L1329 694 Z M811 -116 L811 -241 Q814 -425 666 -463 L666 -402 Q737 -367 744 -269 L680 -269 L680 -116 L811 -116 Z " />
<glyph glyph-name="gcommaaccent" unicode="&#x123;" horiz-adv-x="1123" d="M971 986 L971 95 Q971 -19 958 -86.5 Q945 -154 912 -209 Q807 -386 528 -386 Q346 -386 240.5 -308.5 Q135 -231 124 -89 L245 -89 Q274 -289 530 -289 Q699 -289 775 -205 Q851 -121 852 66 L853 230 Q748 14 511 14 Q310 14 192 158 Q84 289 84 504 Q84 737 204 874 Q326 1015 522 1015 Q748 1015 858 802 L858 986 L971 986 Z M534 915 Q366 915 279 787 Q206 680 206 517 Q206 312 307 206 Q393 114 525 114 Q687 114 778 245 Q851 349 851 516 Q851 724 746 829 Q660 915 534 915 Z M489 1133 L489 1258 Q486 1442 634 1480 L634 1418 Q563 1384 556 1286 L620 1286 L620 1133 L489 1133 Z " />
<glyph glyph-name="Hcircumflex" unicode="&#x124;" horiz-adv-x="1405" d="M1241 1365 L1241 0 L1111 0 L1111 659 L294 659 L294 0 L164 0 L164 1365 L294 1365 L294 771 L1111 771 L1111 1365 L1241 1365 Z M1002 1479 L880 1479 L698 1665 L513 1479 L403 1479 L639 1737 L764 1737 L1002 1479 Z " />
<glyph glyph-name="hcircumflex" unicode="&#x125;" horiz-adv-x="1100" d="M271 1365 L271 918 Q271 900 268 802 Q369 1015 611 1015 Q818 1015 908 869 Q957 790 957 635 L957 0 L835 0 L835 620 Q835 757 791 817 Q723 910 581 910 Q398 910 318 756 Q291 705 281 647 Q271 589 271 483 L271 0 L151 0 L151 1365 L271 1365 Z M604 1479 L482 1479 L300 1665 L114 1479 L5 1479 L241 1737 L366 1737 L604 1479 Z " />
<glyph glyph-name="Hbar" unicode="&#x126;" horiz-adv-x="1405" d="M1241 1143 L1384 1143 L1384 1034 L1241 1034 L1241 0 L1111 0 L1111 659 L293 659 L293 0 L163 0 L163 1034 L20 1034 L20 1143 L163 1143 L163 1365 L293 1365 L293 1143 L1111 1143 L1111 1365 L1241 1365 L1241 1143 Z M293 1034 L293 771 L1111 771 L1111 1034 L293 1034 Z " />
<glyph glyph-name="hbar" unicode="&#x127;" horiz-adv-x="1100" d="M271 0 L151 0 L151 1133 L14 1133 L14 1229 L151 1229 L151 1365 L271 1365 L271 1229 L598 1229 L598 1133 L271 1133 L271 918 Q271 900 268 801 Q368 1014 610 1014 Q817 1014 907 868 Q956 790 956 635 L956 0 L834 0 L834 620 Q834 757 790 816 Q722 909 581 909 Q493 909 424.5 869 Q356 829 317 755 Q290 704 280.5 647 Q271 590 271 483 L271 0 Z " />
<glyph glyph-name="Itilde" unicode="&#x128;" horiz-adv-x="458" d="M294 1365 L294 0 L164 0 L164 1365 L294 1365 Z M531 1703 Q496 1517 366 1517 Q328 1517 294.5 1528.5 Q261 1540 164 1588 Q128 1605 90 1605 Q24 1605 -1 1509 L-73 1509 Q-58 1599 -12.5 1647.5 Q33 1696 102 1696 Q156 1696 229 1659 Q298 1624 319.5 1616 Q341 1608 366 1608 Q432 1608 457 1703 L531 1703 Z " />
<glyph glyph-name="itilde" unicode="&#x129;" horiz-adv-x="421" d="M270 986 L270 0 L150 0 L150 986 L270 986 Z M482 1368 Q467 1278 429 1230 Q391 1182 334 1182 Q299 1182 268.5 1193.5 Q238 1205 151 1252 Q120 1269 86 1269 Q29 1269 8 1174 L-62 1174 Q-48 1264 -7.5 1312 Q33 1360 95 1360 Q144 1360 210 1324 Q275 1288 292.5 1281 Q310 1274 333 1274 Q390 1274 409 1368 L482 1368 Z " />
<glyph glyph-name="Imacron" unicode="&#x12a;" horiz-adv-x="457" d="M294 1365 L294 0 L164 0 L164 1365 L294 1365 Z M436 1642 L436 1556 L21 1556 L21 1642 L436 1642 Z " />
<glyph glyph-name="imacron" unicode="&#x12b;" horiz-adv-x="421" d="M272 986 L272 0 L152 0 L152 986 L272 986 Z M411 1315 L411 1229 L10 1229 L10 1315 L411 1315 Z " />
<glyph glyph-name="Ibreve" unicode="&#x12c;" horiz-adv-x="457" d="M294 1365 L294 0 L164 0 L164 1365 L294 1365 Z M478 1737 Q470 1650 435 1595 Q365 1486 226 1486 Q117 1486 51 1553.5 Q-15 1621 -20 1737 L55 1737 Q63 1677 87 1643 Q136 1573 230 1573 Q380 1573 403 1737 L478 1737 Z " />
<glyph glyph-name="ibreve" unicode="&#x12d;" horiz-adv-x="421" d="M272 986 L272 0 L152 0 L152 986 L272 986 Z M432 1395 Q421 1313 388 1257 Q327 1153 208 1153 Q91 1153 29 1257 Q-6 1315 -11 1395 L63 1395 Q92 1240 216 1240 Q326 1240 358 1395 L432 1395 Z " />
<glyph glyph-name="Iogonek" unicode="&#x12e;" horiz-adv-x="457" d="M294 0 Q240 -74 224.5 -107 Q209 -140 209 -180 Q209 -274 292 -274 Q318 -274 358 -260 L358 -330 Q308 -351 268 -351 Q188 -351 144 -300 Q107 -257 107 -205 Q107 -155 142 -99.5 Q177 -44 236 0 L164 0 L164 1365 L294 1365 L294 0 Z " />
<glyph glyph-name="iogonek" unicode="&#x12f;" horiz-adv-x="421" d="M272 -2 Q194 -107 194 -185 Q194 -224 215 -250 Q236 -276 268 -276 Q288 -276 329 -262 L329 -332 Q279 -352 244 -352 Q174 -352 129 -301 Q92 -259 92 -206 Q92 -117 214 -2 L152 -2 L152 984 L272 984 L272 -2 Z M271 1365 L271 1172 L151 1172 L151 1365 L271 1365 Z " />
<glyph glyph-name="Idot" unicode="&#x130;" horiz-adv-x="457" d="M293 1365 L293 0 L163 0 L163 1365 L293 1365 Z M292 1700 L292 1509 L162 1509 L162 1700 L292 1700 Z " />
<glyph glyph-name="IJ" unicode="&#x132;" horiz-adv-x="1394" d="M294 1365 L294 0 L164 0 L164 1365 L294 1365 Z M1250 1379 L1250 404 Q1250 293 1237 230 Q1224 167 1189 113 Q1158 63 1125.5 39 Q1093 15 1037 0 Q943 -25 851 -25 Q731 -25 642 23.5 Q553 72 512 159 Q471 246 471 403 Q471 424 472 455 L597 455 Q597 426 597 413 Q597 274 628 210 Q687 87 864 87 Q1011 87 1075 181 Q1120 247 1120 420 L1120 1379 L1250 1379 Z " />
<glyph glyph-name="ij" unicode="&#x133;" horiz-adv-x="829" d="M270 1365 L270 1172 L150 1172 L150 1365 L270 1365 Z M270 986 L270 0 L150 0 L150 986 L270 986 Z M678 986 L678 -66 Q678 -171 668.5 -220.5 Q659 -270 633 -305 Q579 -378 438 -378 Q413 -378 381 -373 L381 -272 Q407 -275 427 -275 Q511 -275 534.5 -238 Q558 -201 558 -69 L558 986 L678 986 Z M678 1365 L678 1172 L558 1172 L558 1365 L678 1365 Z " />
<glyph glyph-name="Jcircumflex" unicode="&#x134;" horiz-adv-x="950" d="M806 1379 L806 404 Q806 294 793 231 Q780 168 745 113 Q714 64 681.5 40 Q649 16 593 1 Q500 -24 406 -24 Q287 -24 198 24.5 Q109 73 68 160 Q27 247 27 403 Q27 424 28 455 L153 455 L153 441 L153 410 Q153 274 184 211 Q243 88 420 88 Q567 88 631 181 Q676 247 676 420 L676 1379 L806 1379 Z M1045 1479 L924 1479 L742 1665 L556 1479 L447 1479 L683 1737 L808 1737 L1045 1479 Z " />
<glyph glyph-name="jcircumflex" unicode="&#x135;" horiz-adv-x="421" d="M271 986 L271 -66 Q271 -171 261.5 -220.5 Q252 -270 226 -305 Q171 -378 31 -378 Q6 -378 -27 -373 L-27 -273 Q0 -275 21 -275 Q104 -275 127 -238 Q150 -201 150 -69 L150 986 L271 986 Z M474 1133 L354 1133 L205 1335 L52 1133 L-55 1133 L148 1405 L269 1405 L474 1133 Z " />
<glyph glyph-name="Kcommaaccent" unicode="&#x136;" horiz-adv-x="1284" d="M1265 1365 L650 808 L1296 0 L1129 0 L557 719 L296 482 L296 0 L166 0 L166 1365 L296 1365 L296 631 Q359 692 385 717 L1092 1365 L1265 1365 Z M728 -116 L728 -241 Q732 -425 583 -463 L583 -402 Q623 -381 639.5 -353 Q656 -325 661 -269 L597 -269 L597 -116 L728 -116 Z " />
<glyph glyph-name="kcommaaccent" unicode="&#x137;" horiz-adv-x="1030" d="M982 986 L561 623 L1012 0 L861 0 L468 541 L272 374 L272 0 L152 0 L152 1365 L272 1365 L272 505 Q335 565 347 575 L822 986 L982 986 Z M601 -116 L601 -241 Q604 -425 456 -463 L456 -402 Q527 -367 534 -269 L470 -269 L470 -116 L601 -116 Z " />
<glyph glyph-name="kgreenlandic" unicode="&#x138;" horiz-adv-x="1030" d="M982 986 L561 623 L1012 0 L861 0 L468 541 L272 374 L272 0 L152 0 L152 986 L272 986 L272 505 Q335 565 347 575 L822 986 L982 986 Z " />
<glyph glyph-name="Lacute" unicode="&#x139;" horiz-adv-x="1098" d="M1062 112 L1062 0 L164 0 L164 1365 L294 1365 L294 112 L1062 112 Z M570 1737 L301 1479 L200 1479 L413 1737 L570 1737 Z " />
<glyph glyph-name="lacute" unicode="&#x13a;" horiz-adv-x="421" d="M270 1365 L270 0 L150 0 L150 1365 L270 1365 Z M478 1737 L250 1479 L157 1479 L335 1737 L478 1737 Z " />
<glyph glyph-name="Lcommaaccent" unicode="&#x13b;" horiz-adv-x="1098" d="M1062 112 L1062 0 L164 0 L164 1365 L294 1365 L294 112 L1062 112 Z M669 -116 L669 -241 Q672 -425 524 -463 L524 -402 Q595 -367 602 -269 L538 -269 L538 -116 L669 -116 Z " />
<glyph glyph-name="lcommaaccent" unicode="&#x13c;" horiz-adv-x="421" d="M270 1365 L270 0 L150 0 L150 1365 L270 1365 Z M279 -116 L279 -241 Q282 -425 134 -463 L134 -402 Q204 -367 211 -269 L148 -269 L148 -116 L279 -116 Z " />
<glyph glyph-name="Lcaron" unicode="&#x13d;" horiz-adv-x="1098" d="M1062 112 L1062 0 L164 0 L164 1365 L294 1365 L294 112 L1062 112 Z M642 1365 L642 1240 Q646 1056 497 1018 L497 1080 Q568 1114 575 1212 L511 1212 L511 1365 L642 1365 Z " />
<glyph glyph-name="lcaron" unicode="&#x13e;" horiz-adv-x="500" d="M270 1365 L270 0 L150 0 L150 1365 L270 1365 Z M513 1365 L513 1240 Q517 1056 368 1018 L368 1080 Q439 1115 446 1212 L382 1212 L382 1365 L513 1365 Z " />
<glyph glyph-name="Ldot" unicode="&#x13f;" horiz-adv-x="1098" d="M1062 112 L1062 0 L164 0 L164 1365 L294 1365 L294 112 L1062 112 Z M717 801 L717 606 L594 606 L594 801 L717 801 Z " />
<glyph glyph-name="ldot" unicode="&#x140;" horiz-adv-x="541" d="M270 1365 L270 0 L150 0 L150 1365 L270 1365 Z M541 786 L541 591 L418 591 L418 786 L541 786 Z " />
<glyph glyph-name="Lslash" unicode="&#x141;" horiz-adv-x="1098" d="M163 680 L163 1365 L293 1365 L293 742 L612 983 L613 854 L293 613 L293 112 L1062 112 L1062 0 L163 0 L163 551 L20 444 L20 573 L163 680 Z " />
<glyph glyph-name="lslash" unicode="&#x142;" horiz-adv-x="421" d="M149 751 L149 1365 L269 1365 L269 811 L399 909 L399 796 L269 698 L269 0 L149 0 L149 637 L21 539 L21 653 L149 751 Z " />
<glyph glyph-name="Nacute" unicode="&#x143;" horiz-adv-x="1405" d="M1242 1365 L1242 0 L1098 0 L462 916 Q345 1085 282 1209 Q287 1139 289 978 L290 882 L290 0 L166 0 L166 1365 L309 1365 L948 440 Q1044 300 1127 154 Q1118 336 1118 514 L1118 1365 L1242 1365 Z M995 1737 L726 1479 L626 1479 L838 1737 L995 1737 Z " />
<glyph glyph-name="nacute" unicode="&#x144;" horiz-adv-x="1098" d="M265 986 L265 801 Q307 875 345 913 Q449 1015 614 1015 Q747 1015 837 951 Q904 903 930 833.5 Q956 764 956 634 L956 0 L836 0 L836 596 Q836 761 793 820 Q729 910 587 910 Q452 910 368 827 Q315 774 293.5 700.5 Q272 627 272 496 L272 0 L152 0 L152 986 L265 986 Z M825 1405 L583 1133 L486 1133 L678 1405 L825 1405 Z " />
<glyph glyph-name="Ncommaaccent" unicode="&#x145;" horiz-adv-x="1405" d="M1242 1365 L1242 0 L1098 0 L462 916 Q345 1085 282 1209 Q287 1139 289 978 L290 882 L290 0 L166 0 L166 1365 L309 1365 L948 440 Q1044 300 1127 154 Q1118 336 1118 514 L1118 1365 L1242 1365 Z M737 -116 L737 -241 Q741 -425 592 -463 L592 -402 Q663 -367 670 -269 L606 -269 L606 -116 L737 -116 Z " />
<glyph glyph-name="ncommaaccent" unicode="&#x146;" horiz-adv-x="1098" d="M265 986 L265 801 Q307 875 345 913 Q449 1015 614 1015 Q747 1015 837 951 Q904 903 930 833.5 Q956 764 956 634 L956 0 L836 0 L836 596 Q836 761 793 820 Q729 910 587 910 Q452 910 368 827 Q315 774 293.5 700.5 Q272 627 272 496 L272 0 L152 0 L152 986 L265 986 Z M622 -116 L622 -241 Q625 -426 477 -463 L477 -402 Q548 -367 555 -269 L491 -269 L491 -116 L622 -116 Z " />
<glyph glyph-name="Ncaron" unicode="&#x147;" horiz-adv-x="1405" d="M1242 1365 L1242 0 L1098 0 L462 916 Q345 1085 282 1209 Q287 1139 289 978 L290 882 L290 0 L166 0 L166 1365 L309 1365 L948 440 Q1044 300 1127 154 Q1118 336 1118 514 L1118 1365 L1242 1365 Z M411 1737 L532 1737 L714 1551 L900 1737 L1009 1737 L774 1479 L649 1479 L411 1737 Z " />
<glyph glyph-name="ncaron" unicode="&#x148;" horiz-adv-x="1098" d="M265 986 L265 801 Q307 875 345 913 Q449 1015 614 1015 Q747 1015 837 951 Q904 903 930 833.5 Q956 764 956 634 L956 0 L836 0 L836 596 Q836 761 793 820 Q729 910 587 910 Q452 910 368 827 Q315 774 293.5 700.5 Q272 627 272 496 L272 0 L152 0 L152 986 L265 986 Z M314 1405 L433 1405 L582 1202 L735 1405 L842 1405 L640 1133 L519 1133 L314 1405 Z " />
<glyph glyph-name="napostrophe" unicode="&#x149;" horiz-adv-x="1351" d="M307 1365 L307 1210 Q316 961 138 901 L138 983 Q184 1011 203.5 1052 Q223 1093 224 1166 L150 1166 L150 1365 L307 1365 Z M518 986 L518 801 Q560 875 598 913 Q702 1015 867 1015 Q1000 1015 1090 951 Q1157 903 1183 833.5 Q1209 764 1209 634 L1209 0 L1089 0 L1089 596 Q1089 761 1046 820 Q982 910 840 910 Q705 910 621 827 Q568 774 546.5 700.5 Q525 627 525 496 L525 0 L405 0 L405 986 L518 986 Z " />
<glyph glyph-name="Eng" unicode="&#x14a;" horiz-adv-x="1405" d="M294 1365 L294 1117 Q352 1213 406 1263 Q552 1396 781 1396 Q961 1396 1081 1312 Q1171 1249 1206 1157 Q1241 1065 1241 893 L1241 -66 Q1241 -171 1231.5 -220.5 Q1222 -270 1194 -305 Q1137 -378 991 -378 Q965 -378 934 -373 L934 -272 Q959 -275 980 -275 Q1064 -275 1087.5 -238 Q1111 -201 1111 -69 L1111 843 Q1111 973 1097.5 1043 Q1084 1113 1049 1161 Q1015 1207 963 1236 Q871 1287 748 1287 Q554 1287 432 1171 Q356 1098 325 995 Q294 892 294 709 L294 0 L164 0 L164 1365 L294 1365 Z " />
<glyph glyph-name="eng" unicode="&#x14b;" horiz-adv-x="1098" d="M265 986 L265 801 Q307 875 345 913 Q449 1015 615 1015 Q747 1015 837 951 Q904 903 930 833.5 Q956 764 956 634 L956 -66 Q956 -171 947 -220.5 Q938 -270 911 -305 Q857 -378 716 -378 Q690 -378 659 -373 L659 -272 Q684 -275 705 -275 Q789 -275 812.5 -238 Q836 -201 836 -69 L836 596 Q836 760 793 820 Q730 910 587 910 Q453 910 368 827 Q315 774 293.5 700.5 Q272 627 272 496 L272 0 L152 0 L152 986 L265 986 Z " />
<glyph glyph-name="Omacron" unicode="&#x14c;" horiz-adv-x="1475" d="M745 1397 Q1021 1397 1202 1196 Q1380 999 1380 679 Q1380 397 1237 208 Q1055 -31 735 -31 Q418 -31 237 208 Q94 398 94 681 Q94 1005 270 1196 Q455 1397 745 1397 Z M744 1285 Q513 1285 367 1121 Q224 959 224 685 Q224 431 346 269 Q421 171 536 121 Q629 81 737 81 Q961 81 1104 240 Q1250 404 1250 680 Q1250 951 1109 1117 Q966 1285 744 1285 Z M1047 1642 L1047 1556 L427 1556 L427 1642 L1047 1642 Z " />
<glyph glyph-name="omacron" unicode="&#x14d;" horiz-adv-x="1103" d="M560 1015 Q773 1015 903 860 Q1018 722 1018 490 Q1018 243 885 104 Q758 -29 553 -29 Q326 -29 201 125 Q84 268 84 492 Q84 712 194 852 Q323 1015 560 1015 Z M557 915 Q400 915 305 804 Q207 690 207 492 Q207 295 302 182 Q396 71 555 71 Q705 71 795 174 Q896 290 896 492 Q896 682 805 797 Q762 852 696 883.5 Q630 915 557 915 Z M820 1315 L820 1229 L282 1229 L282 1315 L820 1315 Z " />
<glyph glyph-name="Obreve" unicode="&#x14e;" horiz-adv-x="1475" d="M745 1397 Q1021 1397 1202 1196 Q1380 999 1380 679 Q1380 397 1237 208 Q1055 -31 735 -31 Q418 -31 237 208 Q94 398 94 681 Q94 1005 270 1196 Q455 1397 745 1397 Z M744 1285 Q513 1285 367 1121 Q224 959 224 685 Q224 431 346 269 Q421 171 536 121 Q629 81 737 81 Q961 81 1104 240 Q1250 404 1250 680 Q1250 951 1109 1117 Q966 1285 744 1285 Z M1013 1737 Q1001 1652 965 1598 Q890 1486 734 1486 Q616 1486 542 1553.5 Q468 1621 461 1737 L536 1737 Q548 1679 574 1646 Q629 1573 738 1573 Q901 1573 939 1737 L1013 1737 Z " />
<glyph glyph-name="obreve" unicode="&#x14f;" horiz-adv-x="1103" d="M560 1015 Q773 1015 903 860 Q1018 722 1018 490 Q1018 243 885 104 Q758 -29 553 -29 Q326 -29 201 125 Q84 268 84 492 Q84 712 194 852 Q323 1015 560 1015 Z M557 915 Q400 915 305 804 Q207 690 207 492 Q207 295 302 182 Q396 71 555 71 Q705 71 795 174 Q896 290 896 492 Q896 682 805 797 Q762 852 696 883.5 Q630 915 557 915 Z M800 1402 Q789 1317 756 1261 Q690 1147 548 1147 Q442 1147 375.5 1215.5 Q309 1284 302 1402 L376 1402 Q405 1234 555 1234 Q693 1234 726 1402 L800 1402 Z " />
<glyph glyph-name="Ohungarumlaut" unicode="&#x150;" horiz-adv-x="1475" d="M745 1397 Q1021 1397 1202 1196 Q1380 999 1380 679 Q1380 397 1237 208 Q1055 -31 735 -31 Q418 -31 237 208 Q94 398 94 681 Q94 1005 270 1196 Q455 1397 745 1397 Z M744 1285 Q513 1285 367 1121 Q224 959 224 685 Q224 431 346 269 Q421 171 536 121 Q629 81 737 81 Q961 81 1104 240 Q1250 404 1250 680 Q1250 951 1109 1117 Q966 1285 744 1285 Z M1156 1737 L935 1479 L843 1479 L1008 1737 L1156 1737 Z M842 1737 L621 1479 L529 1479 L694 1737 L842 1737 Z " />
<glyph glyph-name="ohungarumlaut" unicode="&#x151;" horiz-adv-x="1103" d="M560 1015 Q773 1015 903 860 Q1018 722 1018 490 Q1018 243 885 104 Q758 -29 553 -29 Q326 -29 201 125 Q84 268 84 492 Q84 712 194 852 Q323 1015 560 1015 Z M557 915 Q400 915 305 804 Q207 690 207 492 Q207 295 302 182 Q396 71 555 71 Q705 71 795 174 Q896 290 896 492 Q896 682 805 797 Q762 852 696 883.5 Q630 915 557 915 Z M918 1405 L721 1133 L631 1133 L778 1405 L918 1405 Z M659 1405 L461 1133 L371 1133 L518 1405 L659 1405 Z " />
<glyph glyph-name="Racute" unicode="&#x154;" horiz-adv-x="1351" d="M158 1365 L759 1365 Q941 1365 1042 1303 Q1202 1205 1202 998 Q1202 867 1132.5 779 Q1063 691 934 659 Q1051 640 1109 569 Q1147 521 1158 471 Q1169 421 1183 232 Q1195 48 1239 0 L1092 0 Q1065 40 1058 188 Q1050 357 1034 423.5 Q1018 490 974 536 Q936 576 870 593 Q804 610 689 610 L288 610 L288 0 L158 0 L158 1365 Z M288 1253 L288 715 L673 715 Q867 715 953 764 Q1072 833 1072 989 Q1072 1147 942 1215 Q867 1253 718 1253 L288 1253 Z M909 1737 L640 1479 L540 1479 L752 1737 L909 1737 Z " />
<glyph glyph-name="racute" unicode="&#x155;" horiz-adv-x="634" d="M642 1001 L642 879 Q620 880 611 880 Q454 880 359 770 Q308 711 290 635 Q272 559 272 403 L272 0 L152 0 L152 986 L265 986 L265 750 Q368 1006 642 1001 Z M639 1405 L397 1133 L301 1133 L492 1405 L639 1405 Z " />
<glyph glyph-name="Rcommaaccent" unicode="&#x156;" horiz-adv-x="1351" d="M158 1365 L759 1365 Q941 1365 1042 1303 Q1202 1205 1202 998 Q1202 867 1132.5 779 Q1063 691 934 659 Q1051 640 1109 569 Q1147 521 1158 471 Q1169 421 1183 232 Q1195 48 1239 0 L1092 0 Q1065 40 1058 188 Q1050 357 1034 423.5 Q1018 490 974 536 Q936 576 870 593 Q804 610 689 610 L288 610 L288 0 L158 0 L158 1365 Z M288 1253 L288 715 L673 715 Q867 715 953 764 Q1072 833 1072 989 Q1072 1147 942 1215 Q867 1253 718 1253 L288 1253 Z M721 -116 L721 -241 Q724 -425 576 -463 L576 -402 Q647 -367 654 -269 L590 -269 L590 -116 L721 -116 Z " />
<glyph glyph-name="rcommaaccent" unicode="&#x157;" horiz-adv-x="634" d="M642 1001 L642 879 Q619 880 610 880 Q453 880 358 770 Q308 711 290 635 Q272 559 272 403 L272 0 L152 0 L152 986 L265 986 L265 750 Q367 1006 642 1001 Z M280 -116 L280 -241 Q283 -425 135 -463 L135 -402 Q205 -367 212 -269 L149 -269 L149 -116 L280 -116 Z " />
<glyph glyph-name="Rcaron" unicode="&#x158;" horiz-adv-x="1351" d="M158 1365 L759 1365 Q941 1365 1042 1303 Q1202 1205 1202 998 Q1202 867 1132.5 779 Q1063 691 934 659 Q1051 640 1109 569 Q1147 521 1158 471 Q1169 421 1183 232 Q1195 48 1239 0 L1092 0 Q1065 40 1058 188 Q1050 357 1034 423.5 Q1018 490 974 536 Q936 576 870 593 Q804 610 689 610 L288 610 L288 0 L158 0 L158 1365 Z M288 1253 L288 715 L673 715 Q867 715 953 764 Q1072 833 1072 989 Q1072 1147 942 1215 Q867 1253 718 1253 L288 1253 Z M336 1737 L457 1737 L639 1551 L825 1737 L934 1737 L699 1479 L573 1479 L336 1737 Z " />
<glyph glyph-name="rcaron" unicode="&#x159;" horiz-adv-x="634" d="M642 1001 L642 879 Q619 880 611 880 Q454 880 359 770 Q308 711 290 635 Q272 559 272 403 L272 0 L152 0 L152 986 L265 986 L265 750 Q368 1006 642 1001 Z M107 1405 L227 1405 L376 1202 L528 1405 L636 1405 L433 1133 L312 1133 L107 1405 Z " />
<glyph glyph-name="Sacute" unicode="&#x15a;" horiz-adv-x="1201" d="M1071 972 L946 972 Q932 1129 842 1204 Q741 1288 565 1288 Q416 1288 329 1229 Q225 1159 225 1027 Q225 911 308 861 Q378 818 593 769 Q755 732 824.5 710 Q894 688 945 659 Q1114 562 1114 372 Q1114 179 959 64 Q829 -31 600 -31 Q344 -31 201 92 Q132 152 93.5 242.5 Q55 333 55 437 Q55 442 55 452 L180 452 Q185 297 256 211 Q366 78 609 78 Q802 78 898 161 Q988 240 988 360 Q988 510 829 576 Q755 606 527 660 Q392 691 329 713.5 Q266 736 217 770 Q98 852 98 1020 Q98 1194 226.5 1295.5 Q355 1397 575 1397 Q804 1397 933 1286.5 Q1062 1176 1071 972 Z M854 1737 L585 1479 L484 1479 L697 1737 L854 1737 Z " />
<glyph glyph-name="sacute" unicode="&#x15b;" horiz-adv-x="921" d="M811 700 L692 700 Q684 779 655 822 Q593 915 427 915 Q326 915 265 876 Q195 832 195 746 Q195 675 249 640.5 Q303 606 477 566 Q662 523 741 471 Q845 403 845 272 Q845 204 812 143.5 Q779 83 721 43 Q616 -29 453 -29 Q227 -29 120 102 Q52 186 48 322 L165 322 Q172 222 211 171 Q284 71 456 71 Q608 71 682 150 Q726 199 726 262 Q726 336 669 376.5 Q612 417 455 455 Q249 504 188 538 Q135 566 105.5 618.5 Q76 671 76 735 Q76 888 209 964 Q297 1015 435 1015 Q642 1015 741 900 Q801 830 811 700 Z M724 1405 L482 1133 L386 1133 L577 1405 L724 1405 Z " />
<glyph glyph-name="Scircumflex" unicode="&#x15c;" horiz-adv-x="1201" d="M1071 972 L946 972 Q932 1129 842 1204 Q741 1288 565 1288 Q416 1288 329 1229 Q225 1159 225 1027 Q225 911 308 861 Q378 818 593 769 Q755 732 824.5 710 Q894 688 945 659 Q1114 562 1114 372 Q1114 179 959 64 Q829 -31 600 -31 Q344 -31 201 92 Q132 152 93.5 242.5 Q55 333 55 437 Q55 442 55 452 L180 452 Q185 297 256 211 Q366 78 609 78 Q802 78 898 161 Q988 240 988 360 Q988 510 829 576 Q755 606 527 660 Q392 691 329 713.5 Q266 736 217 770 Q98 852 98 1020 Q98 1194 226.5 1295.5 Q355 1397 575 1397 Q804 1397 933 1286.5 Q1062 1176 1071 972 Z M908 1479 L786 1479 L604 1665 L419 1479 L309 1479 L545 1737 L670 1737 L908 1479 Z " />
<glyph glyph-name="scircumflex" unicode="&#x15d;" horiz-adv-x="921" d="M811 700 L692 700 Q684 779 655 822 Q593 915 427 915 Q326 915 265 876 Q195 832 195 746 Q195 675 249 640.5 Q303 606 477 566 Q662 523 741 471 Q845 403 845 272 Q845 204 812 143.5 Q779 83 721 43 Q616 -29 453 -29 Q227 -29 120 102 Q52 186 48 322 L165 322 Q172 222 211 171 Q284 71 456 71 Q608 71 682 150 Q726 199 726 262 Q726 336 669 376.5 Q612 417 455 455 Q249 504 188 538 Q135 566 105.5 618.5 Q76 671 76 735 Q76 888 209 964 Q297 1015 435 1015 Q642 1015 741 900 Q801 830 811 700 Z M725 1133 L605 1133 L456 1335 L303 1133 L196 1133 L399 1405 L520 1405 L725 1133 Z " />
<glyph glyph-name="Scedilla" unicode="&#x15e;" horiz-adv-x="1201" d="M583 -33 L523 -115 Q569 -106 592 -106 Q657 -106 700 -142 Q743 -178 743 -231 Q743 -304 684.5 -349.5 Q626 -395 533 -395 Q455 -395 353 -356 L379 -298 Q454 -330 520 -330 Q570 -330 602 -305 Q634 -280 634 -241 Q634 -209 606 -187.5 Q578 -166 536 -166 Q504 -166 453 -183 L423 -154 L516 -30 Q303 4 201 92 Q132 152 93.5 242.5 Q55 333 55 437 Q55 442 55 452 L180 452 Q185 297 256 211 Q366 78 609 78 Q802 78 898 161 Q988 240 988 360 Q988 510 829 576 Q755 606 527 660 Q392 691 329 713.5 Q266 736 217 770 Q98 852 98 1020 Q98 1194 226.5 1295.5 Q355 1397 575 1397 Q804 1397 933 1286.5 Q1062 1176 1071 972 L946 972 Q932 1129 842 1204 Q741 1288 565 1288 Q416 1288 329 1229 Q225 1159 225 1027 Q225 911 308 861 Q378 818 593 768 Q755 731 824.5 709.5 Q894 688 945 658 Q1114 562 1114 372 Q1114 263 1061 174.5 Q1008 86 910 33 Q794 -31 583 -33 Z " />
<glyph glyph-name="scedilla" unicode="&#x15f;" horiz-adv-x="921" d="M430 -29 L370 -107 Q413 -100 439 -100 Q507 -100 548 -134.5 Q589 -169 589 -226 Q589 -301 532.5 -345 Q476 -389 381 -389 Q302 -389 204 -350 L231 -292 Q301 -323 366 -323 Q419 -323 451 -299.5 Q483 -276 483 -237 Q483 -203 455 -181.5 Q427 -160 382 -160 Q348 -160 302 -177 L274 -148 L367 -24 Q344 -19 332 -16 Q253 2 206 28.5 Q159 55 120 103 Q52 185 48 322 L165 322 Q172 222 211 171 Q284 71 456 71 Q608 71 682 150 Q726 199 726 262 Q726 336 669 376.5 Q612 417 455 455 Q249 504 188 538 Q135 566 105.5 618.5 Q76 671 76 735 Q76 888 209 964 Q297 1015 435 1015 Q642 1015 741 900 Q801 830 811 700 L692 700 Q684 779 655 822 Q593 915 427 915 Q326 915 265 877 Q195 832 195 747 Q195 675 249 640.5 Q303 606 477 566 Q662 523 741 472 Q845 404 845 273 Q845 205 812 143.5 Q779 82 721 43 Q613 -29 460 -29 Q446 -29 430 -29 Z " />
<glyph glyph-name="Scaron" unicode="&#x160;" horiz-adv-x="1201" d="M1071 972 L946 972 Q932 1129 842 1204 Q741 1288 565 1288 Q416 1288 329 1229 Q225 1159 225 1027 Q225 911 308 861 Q378 818 593 769 Q755 732 824.5 710 Q894 688 945 659 Q1114 562 1114 372 Q1114 179 959 64 Q829 -31 600 -31 Q344 -31 201 92 Q132 152 93.5 242.5 Q55 333 55 437 Q55 442 55 452 L180 452 Q185 297 256 211 Q366 78 609 78 Q802 78 898 161 Q988 240 988 360 Q988 510 829 576 Q755 606 527 660 Q392 691 329 713.5 Q266 736 217 770 Q98 852 98 1020 Q98 1194 226.5 1295.5 Q355 1397 575 1397 Q804 1397 933 1286.5 Q1062 1176 1071 972 Z M299 1737 L421 1737 L603 1551 L788 1737 L898 1737 L662 1479 L537 1479 L299 1737 Z " />
<glyph glyph-name="scaron" unicode="&#x161;" horiz-adv-x="921" d="M811 700 L692 700 Q684 779 655 822 Q593 915 427 915 Q326 915 265 876 Q195 832 195 746 Q195 675 249 640.5 Q303 606 477 566 Q662 523 741 471 Q845 403 845 272 Q845 204 812 143.5 Q779 83 721 43 Q616 -29 453 -29 Q227 -29 120 102 Q52 186 48 322 L165 322 Q172 222 211 171 Q284 71 456 71 Q608 71 682 150 Q726 199 726 262 Q726 336 669 376.5 Q612 417 455 455 Q249 504 188 538 Q135 566 105.5 618.5 Q76 671 76 735 Q76 888 209 964 Q297 1015 435 1015 Q642 1015 741 900 Q801 830 811 700 Z M185 1405 L305 1405 L454 1202 L607 1405 L714 1405 L511 1133 L390 1133 L185 1405 Z " />
<glyph glyph-name="Tcommaaccent" unicode="&#x162;" horiz-adv-x="1147" d="M1119 1365 L1119 1253 L640 1253 L640 0 L510 0 L510 1253 L29 1253 L29 1365 L1119 1365 Z M646 -116 L646 -241 Q650 -425 501 -463 L501 -402 Q572 -367 579 -269 L515 -269 L515 -116 L646 -116 Z " />
<glyph glyph-name="tcommaaccent" unicode="&#x163;" horiz-adv-x="538" d="M479 986 L479 886 L274 886 L274 264 Q274 167 290 140 Q314 98 398 98 Q430 98 479 104 L479 1 Q422 -7 371 -7 Q222 -7 178 73 Q163 101 158.5 146 Q154 191 154 323 L154 886 L-18 886 L-18 986 L154 986 L154 1288 L274 1288 L274 986 L479 986 Z M358 -116 L358 -241 Q361 -425 213 -463 L213 -402 Q284 -367 291 -269 L227 -269 L227 -116 L358 -116 Z " />
<glyph glyph-name="Tcaron" unicode="&#x164;" horiz-adv-x="1147" d="M1119 1365 L1119 1253 L640 1253 L640 0 L510 0 L510 1253 L29 1253 L29 1365 L1119 1365 Z M275 1737 L396 1737 L578 1551 L764 1737 L873 1737 L637 1479 L512 1479 L275 1737 Z " />
<glyph glyph-name="tcaron" unicode="&#x165;" horiz-adv-x="528" d="M479 986 L479 886 L274 886 L274 264 Q274 167 290 140 Q314 98 398 98 Q430 98 479 104 L479 1 Q422 -7 371 -7 Q222 -7 178 73 Q163 101 158.5 146 Q154 191 154 323 L154 886 L-18 886 L-18 986 L154 986 L154 1288 L274 1288 L274 986 L479 986 Z M542 1456 L542 1331 Q545 1147 397 1109 L397 1171 Q468 1205 475 1303 L411 1303 L411 1456 L542 1456 Z " />
<glyph glyph-name="Tbar" unicode="&#x166;" horiz-adv-x="1147" d="M1119 1365 L1119 1253 L640 1253 L640 819 L981 819 L981 710 L640 710 L640 0 L510 0 L510 710 L168 710 L168 819 L510 819 L510 1253 L29 1253 L29 1365 L1119 1365 Z " />
<glyph glyph-name="tbar" unicode="&#x167;" horiz-adv-x="538" d="M479 986 L479 886 L274 886 L274 694 L459 694 L459 598 L274 598 L274 264 Q274 167 290 140 Q314 98 399 98 Q432 98 479 104 L479 1 Q423 -7 371 -7 Q222 -7 178 73 Q163 101 158.5 146 Q154 191 154 323 L154 598 L2 598 L2 694 L154 694 L154 886 L-18 886 L-18 986 L154 986 L154 1288 L274 1288 L274 986 L479 986 Z " />
<glyph glyph-name="Utilde" unicode="&#x168;" horiz-adv-x="1352" d="M1209 1365 L1209 547 Q1209 391 1188 313 Q1143 144 1014.5 56 Q886 -32 684 -32 Q352 -32 218 189 Q178 255 161.5 336 Q145 417 145 551 L145 1365 L275 1365 L275 546 Q275 426 289.5 356 Q304 286 339 230 Q437 77 686 77 Q924 77 1016 225 Q1079 327 1079 548 L1079 1365 L1209 1365 Z M979 1703 Q943 1517 814 1517 Q776 1517 742.5 1528.5 Q709 1540 611 1588 Q576 1605 538 1605 Q473 1605 447 1509 L375 1509 Q390 1599 435.5 1647.5 Q481 1696 549 1696 Q603 1696 677 1659 Q746 1623 767 1615.5 Q788 1608 814 1608 Q880 1608 905 1703 L979 1703 Z " />
<glyph glyph-name="utilde" unicode="&#x169;" horiz-adv-x="1096" d="M945 986 L945 0 L832 0 L832 184 Q790 101 734 56 Q630 -29 487 -29 Q403 -29 329 3 Q255 35 211 90 Q144 176 144 350 L144 986 L264 986 L264 403 Q264 263 289 203 Q313 145 372 112 Q436 76 513 76 Q680 76 767 214 Q825 307 825 480 L825 986 L945 986 Z M820 1368 Q789 1182 670 1182 Q638 1182 607 1194 Q576 1206 489 1253 Q457 1270 427 1270 Q368 1270 346 1174 L276 1174 Q290 1264 330.5 1312 Q371 1360 434 1360 Q482 1360 548 1323 Q612 1288 630 1280.5 Q648 1273 670 1273 Q728 1273 748 1368 L820 1368 Z " />
<glyph glyph-name="Umacron" unicode="&#x16a;" horiz-adv-x="1351" d="M1209 1365 L1209 547 Q1209 401 1190.5 321 Q1172 241 1122 166 Q988 -31 684 -31 Q351 -31 218 189 Q177 256 161 336.5 Q145 417 145 551 L145 1365 L275 1365 L275 546 Q275 426 289 356 Q303 286 339 230 Q438 78 685 78 Q924 78 1016 226 Q1079 327 1079 548 L1079 1365 L1209 1365 Z M985 1642 L985 1556 L366 1556 L366 1642 L985 1642 Z " />
<glyph glyph-name="umacron" unicode="&#x16b;" horiz-adv-x="1096" d="M945 986 L945 0 L832 0 L832 184 Q790 101 734 56 Q630 -29 487 -29 Q403 -29 329 3 Q255 35 211 90 Q144 176 144 350 L144 986 L264 986 L264 403 Q264 263 289 203 Q313 145 372 112 Q436 76 513 76 Q680 76 767 214 Q825 307 825 480 L825 986 L945 986 Z M813 1315 L813 1229 L275 1229 L275 1315 L813 1315 Z " />
<glyph glyph-name="Ubreve" unicode="&#x16c;" horiz-adv-x="1351" d="M1209 1365 L1209 547 Q1209 401 1190.5 321 Q1172 241 1122 166 Q988 -31 684 -31 Q351 -31 218 189 Q177 256 161 336.5 Q145 417 145 551 L145 1365 L275 1365 L275 546 Q275 426 289 356 Q303 286 339 230 Q438 78 685 78 Q924 78 1016 226 Q1079 327 1079 548 L1079 1365 L1209 1365 Z M952 1737 Q934 1652 903 1602 Q871 1548 809 1517 Q747 1486 671 1486 Q554 1486 480.5 1554 Q407 1622 399 1737 L474 1737 Q486 1679 512 1646 Q568 1573 676 1573 Q840 1573 877 1737 L952 1737 Z " />
<glyph glyph-name="ubreve" unicode="&#x16d;" horiz-adv-x="1096" d="M945 986 L945 0 L832 0 L832 184 Q790 101 734 56 Q630 -29 487 -29 Q403 -29 329 3 Q255 35 211 90 Q144 176 144 350 L144 986 L264 986 L264 403 Q264 263 289 203 Q313 145 372 112 Q436 76 513 76 Q680 76 767 214 Q825 307 825 480 L825 986 L945 986 Z M797 1402 Q786 1317 753 1261 Q687 1147 545 1147 Q439 1147 373 1215.5 Q307 1284 299 1402 L373 1402 Q403 1234 553 1234 Q690 1234 723 1402 L797 1402 Z " />
<glyph glyph-name="Uring" unicode="&#x16e;" horiz-adv-x="1351" d="M1209 1365 L1209 547 Q1209 401 1190.5 321 Q1172 241 1122 166 Q988 -31 684 -31 Q351 -31 218 189 Q177 256 161 336.5 Q145 417 145 551 L145 1365 L275 1365 L275 546 Q275 426 289 356 Q303 286 339 230 Q438 78 685 78 Q924 78 1016 226 Q1079 327 1079 548 L1079 1365 L1209 1365 Z M680 1836 Q765 1836 824 1770 Q875 1714 875 1638 Q875 1550 810 1491 Q753 1440 677 1440 Q589 1440 530 1505 Q479 1562 479 1639 Q479 1725 545 1785 Q600 1836 680 1836 Z M679 1757 Q628 1757 593 1722.5 Q558 1688 558 1639 Q558 1589 592.5 1554 Q627 1519 677 1519 Q726 1519 761 1554 Q796 1589 796 1638 Q796 1687 761.5 1722 Q727 1757 679 1757 Z " />
<glyph glyph-name="uring" unicode="&#x16f;" horiz-adv-x="1096" d="M945 986 L945 0 L832 0 L832 184 Q790 101 734 56 Q630 -29 487 -29 Q403 -29 329 3 Q255 35 211 90 Q144 176 144 350 L144 986 L264 986 L264 403 Q264 263 289 203 Q313 145 372 112 Q436 76 513 76 Q680 76 767 214 Q825 307 825 480 L825 986 L945 986 Z M560 1474 Q641 1474 699 1411 Q748 1356 748 1283 Q748 1198 685 1141 Q630 1092 557 1092 Q472 1092 415 1155 Q366 1210 366 1285 Q366 1367 429 1425 Q483 1474 560 1474 Z M559 1395 Q511 1395 478 1362.5 Q445 1330 445 1284 Q445 1237 477.5 1204 Q510 1171 557 1171 Q603 1171 636 1204 Q669 1237 669 1283 Q669 1329 636.5 1362 Q604 1395 559 1395 Z " />
<glyph glyph-name="Uhungarumlaut" unicode="&#x170;" horiz-adv-x="1351" d="M1209 1365 L1209 547 Q1209 401 1190.5 321 Q1172 241 1122 166 Q988 -31 684 -31 Q351 -31 218 189 Q177 256 161 336.5 Q145 417 145 551 L145 1365 L275 1365 L275 546 Q275 426 289 356 Q303 286 339 230 Q438 78 685 78 Q924 78 1016 226 Q1079 327 1079 548 L1079 1365 L1209 1365 Z M1082 1737 L861 1479 L770 1479 L934 1737 L1082 1737 Z M768 1737 L547 1479 L455 1479 L620 1737 L768 1737 Z " />
<glyph glyph-name="uhungarumlaut" unicode="&#x171;" horiz-adv-x="1096" d="M945 986 L945 0 L832 0 L832 184 Q790 101 734 56 Q630 -29 487 -29 Q403 -29 329 3 Q255 35 211 90 Q144 176 144 350 L144 986 L264 986 L264 403 Q264 263 289 203 Q313 145 372 112 Q436 76 513 76 Q680 76 767 214 Q825 307 825 480 L825 986 L945 986 Z M901 1405 L704 1133 L614 1133 L761 1405 L901 1405 Z M642 1405 L445 1133 L355 1133 L502 1405 L642 1405 Z " />
<glyph glyph-name="Uogonek" unicode="&#x172;" horiz-adv-x="1351" d="M1051 -259 L1051 -330 Q990 -351 937 -351 Q839 -351 785 -301 Q739 -259 739 -198 Q739 -99 881 -7 Q765 -31 678 -31 Q351 -31 218 189 Q177 256 161 336.5 Q145 417 145 551 L145 1365 L275 1365 L275 546 Q275 426 289 356 Q303 286 339 230 Q438 78 685 78 Q923 78 1015 226 Q1079 327 1079 548 L1079 1365 L1209 1365 L1209 547 Q1209 377 1181 288 Q1157 214 1123 166 Q1089 118 1015 56 Q923 -23 881.5 -79 Q840 -135 840 -182 Q840 -235 891 -259 Q926 -275 967 -275 Q1000 -275 1051 -259 Z " />
<glyph glyph-name="uogonek" unicode="&#x173;" horiz-adv-x="1096" d="M945 0 Q806 -80 806 -184 Q806 -235 856 -259 Q891 -275 932 -275 Q964 -275 1016 -259 L1016 -330 Q955 -351 902 -351 Q804 -351 750 -301 Q704 -259 704 -198 Q704 -86 874 0 L832 0 L832 184 Q790 101 734 56 Q630 -29 487 -29 Q403 -29 329 3 Q255 35 211 90 Q144 176 144 350 L144 986 L264 986 L264 403 Q264 263 289 203 Q313 145 372 112 Q436 76 513 76 Q680 76 767 214 Q825 307 825 480 L825 986 L945 986 L945 0 Z " />
<glyph glyph-name="Wcircumflex" unicode="&#x174;" horiz-adv-x="1788" d="M1760 1365 L1382 0 L1241 0 L963 961 Q918 1119 893 1243 Q865 1121 820 965 L546 0 L405 0 L28 1365 L164 1365 L418 418 Q459 267 482 136 Q503 249 551 419 L821 1365 L969 1365 L1246 405 Q1283 275 1311 136 Q1336 269 1372 403 L1630 1365 L1760 1365 Z M1193 1479 L1072 1479 L890 1665 L704 1479 L595 1479 L830 1737 L955 1737 L1193 1479 Z " />
<glyph glyph-name="wcircumflex" unicode="&#x175;" horiz-adv-x="1424" d="M1409 986 L1088 0 L958 0 L762 648 Q741 718 713 842 Q681 711 663 649 L471 0 L337 0 L16 986 L147 986 L335 385 Q359 306 405 130 Q455 344 468 390 L645 986 L784 986 L971 360 Q990 295 1028 131 Q1062 277 1087 356 L1284 986 L1409 986 Z M977 1133 L857 1133 L708 1335 L555 1133 L448 1133 L651 1405 L772 1405 L977 1133 Z " />
<glyph glyph-name="Ycircumflex" unicode="&#x176;" horiz-adv-x="1186" d="M1201 1365 L660 564 L660 0 L530 0 L530 564 L-12 1365 L144 1365 L525 793 Q558 744 599 673 Q642 748 669 789 L1052 1365 L1201 1365 Z M894 1479 L772 1479 L590 1665 L405 1479 L295 1479 L531 1737 L656 1737 L894 1479 Z " />
<glyph glyph-name="ycircumflex" unicode="&#x177;" horiz-adv-x="895" d="M889 986 L502 -37 Q430 -227 393 -282 Q331 -374 210 -374 Q169 -374 131 -369 L105 -365 L105 -259 Q159 -272 191 -272 Q246 -272 283.5 -238 Q321 -204 350 -128 Q380 -50 385 -41 Q403 -7 403 1 Q403 4 401 7 L5 986 L137 986 L404 307 Q415 279 462 133 Q503 263 524 320 L766 986 L889 986 Z M711 1133 L592 1133 L442 1335 L290 1133 L182 1133 L385 1405 L506 1405 L711 1133 Z " />
<glyph glyph-name="Zacute" unicode="&#x179;" horiz-adv-x="1176" d="M1107 1365 L1107 1252 L276 195 Q231 142 206 109 Q256 109 402 112 L1126 112 L1126 0 L58 0 L58 116 L896 1179 Q940 1232 959 1256 Q823 1253 780 1253 L121 1253 L121 1365 L1107 1365 Z M892 1737 L622 1479 L522 1479 L734 1737 L892 1737 Z " />
<glyph glyph-name="zacute" unicode="&#x17a;" horiz-adv-x="894" d="M847 986 L847 901 L259 178 Q218 131 194 99 L242 100 L298 100 L874 100 L874 0 L48 0 L48 98 L626 809 L694 887 Q670 887 615 886 L92 886 L92 986 L847 986 Z M717 1405 L475 1133 L378 1133 L570 1405 L717 1405 Z " />
<glyph glyph-name="Zdotaccent" unicode="&#x17b;" horiz-adv-x="1176" d="M1107 1365 L1107 1252 L276 195 Q231 142 206 109 Q256 109 402 112 L1126 112 L1126 0 L58 0 L58 116 L896 1179 Q940 1232 959 1256 Q823 1253 780 1253 L121 1253 L121 1365 L1107 1365 Z M672 1700 L672 1509 L542 1509 L542 1700 L672 1700 Z " />
<glyph glyph-name="zdotaccent" unicode="&#x17c;" horiz-adv-x="894" d="M847 986 L847 901 L259 178 Q218 131 194 99 L242 100 L298 100 L874 100 L874 0 L48 0 L48 98 L626 809 L694 887 Q670 887 615 886 L92 886 L92 986 L847 986 Z M538 1368 L538 1173 L415 1173 L415 1368 L538 1368 Z " />
<glyph glyph-name="Zcaron" unicode="&#x17d;" horiz-adv-x="1176" d="M1107 1365 L1107 1252 L276 195 Q231 142 206 109 Q256 109 402 112 L1126 112 L1126 0 L58 0 L58 116 L896 1179 Q940 1232 959 1256 Q823 1253 780 1253 L121 1253 L121 1365 L1107 1365 Z M313 1737 L435 1737 L617 1551 L802 1737 L912 1737 L676 1479 L551 1479 L313 1737 Z " />
<glyph glyph-name="zcaron" unicode="&#x17e;" horiz-adv-x="894" d="M847 986 L847 901 L259 178 Q218 131 194 99 L242 100 L298 100 L874 100 L874 0 L48 0 L48 98 L626 809 L694 887 Q670 887 615 886 L92 886 L92 986 L847 986 Z M218 1405 L337 1405 L487 1202 L639 1405 L747 1405 L544 1133 L423 1133 L218 1405 Z " />
<glyph glyph-name="longs" unicode="&#x17f;" horiz-adv-x="533" d="M512 1368 L512 1266 Q464 1273 430 1273 Q335 1273 305 1221 Q288 1189 288 1084 L288 0 L168 0 L168 886 L0 886 L0 986 L168 986 L168 1070 Q168 1161 175 1202.5 Q182 1244 202 1276 Q263 1375 416 1375 Q460 1375 512 1368 Z " />
<glyph glyph-name="uni018F" unicode="&#x18f;" horiz-adv-x="1475" d="M1249 736 Q1238 910 1162 1041 Q1093 1159 980 1223 Q872 1284 738 1284 Q609 1284 505.5 1230 Q402 1176 337 1075 L218 1122 Q404 1396 741 1396 Q1022 1396 1202 1196 Q1380 998 1380 680 Q1380 397 1237 208 Q1055 -31 735 -31 Q418 -31 237 208 Q94 398 94 674 Q94 693 96 736 L1249 736 Z M1249 630 L226 630 Q239 463 296 351 Q365 215 492 143 Q603 81 737 81 Q912 81 1043 183 Q1225 326 1249 630 Z " />
<glyph glyph-name="Ohorn" unicode="&#x1a0;" horiz-adv-x="1475" d="M1231 1163 Q1295 1197 1302 1292 L1238 1292 L1238 1445 L1369 1445 L1369 1320 Q1369 1237 1345.5 1189 Q1322 1141 1266 1112 Q1381 930 1381 678 Q1381 396 1237 207 Q1055 -32 735 -32 Q419 -32 237 207 Q94 397 94 683 Q94 1002 270 1196 Q452 1397 737 1397 Q1048 1397 1231 1163 Z M730 1285 Q513 1285 367 1121 Q224 959 224 687 Q224 431 347 269 Q421 170 537 120 Q630 80 737 80 Q962 80 1104 239 Q1251 403 1251 678 Q1251 950 1110 1116 Q966 1285 730 1285 Z " />
<glyph glyph-name="ohorn" unicode="&#x1a1;" horiz-adv-x="1103" d="M948 794 Q1004 828 1012 919 L948 919 L948 1072 L1079 1072 L1079 947 Q1079 863 1055.5 815.5 Q1032 768 975 739 Q1018 631 1018 486 Q1018 243 885 104 Q758 -29 553 -29 Q329 -29 201 125 Q84 265 84 494 Q84 713 194 852 Q324 1015 553 1015 Q816 1015 948 794 Z M548 915 Q400 915 305 804 Q207 690 207 494 Q207 294 302 182 Q397 71 555 71 Q706 71 796 174 Q897 290 897 490 Q897 682 806 797 Q713 915 548 915 Z " />
<glyph glyph-name="Uhorn" unicode="&#x1af;" horiz-adv-x="1352" d="M1209 1365 L1209 547 Q1209 391 1188 313 Q1143 144 1014.5 56 Q886 -32 684 -32 Q352 -32 218 189 Q178 255 161.5 336 Q145 417 145 551 L145 1365 L275 1365 L275 546 Q275 426 289.5 356 Q304 286 339 230 Q437 77 686 77 Q924 77 1016 225 Q1079 327 1079 548 L1079 1365 L1209 1365 Z M1429 1425 L1429 1300 Q1432 1116 1284 1078 L1284 1140 Q1355 1174 1362 1272 L1298 1272 L1298 1425 L1429 1425 Z " />
<glyph glyph-name="uhorn" unicode="&#x1b0;" horiz-adv-x="1096" d="M945 986 L945 0 L832 0 L832 184 Q717 -29 487 -29 Q403 -29 330 3 Q257 35 212 91 Q144 175 144 350 L144 986 L265 986 L265 402 Q265 264 290 203 Q313 145 373 112 Q436 76 513 76 Q592 76 658.5 112.5 Q725 149 766 214 Q824 307 824 480 L824 986 L945 986 Z M1154 1073 L1154 948 Q1157 765 1009 726 L1009 788 Q1080 822 1087 920 L1023 920 L1023 1073 L1154 1073 Z " />
<glyph glyph-name="uni01C4" unicode="&#x1c4;" horiz-adv-x="2324" d="M1362 1737 L1483 1737 L1665 1551 L1851 1737 L1960 1737 L1725 1479 L1599 1479 L1362 1737 Z M166 1365 L642 1365 Q790 1365 891.5 1332.5 Q993 1300 1074 1228 Q1179 1132 1229 979 Q1271 852 1271 707 Q1271 344 1079 151 Q997 69 900 34.5 Q803 0 652 0 L166 0 L166 1365 Z M296 1253 L296 112 L621 112 Q762 112 844 138 Q926 164 989 229 Q1141 386 1141 701 Q1141 983 996 1128 Q931 1194 847 1223.5 Q763 1253 641 1253 L296 1253 Z M2256 1365 L2256 1252 L1425 195 Q1380 142 1355 109 Q1405 109 1551 112 L2275 112 L2275 0 L1207 0 L1207 116 L2045 1179 Q2089 1232 2108 1256 Q1972 1253 1929 1253 L1270 1253 L1270 1365 L2256 1365 Z " />
<glyph glyph-name="uni01C5" unicode="&#x1c5;" horiz-adv-x="2145" d="M166 1365 L642 1365 Q790 1365 891.5 1332.5 Q993 1300 1074 1228 Q1179 1132 1229 979 Q1271 852 1271 707 Q1271 344 1079 151 Q997 69 900 34.5 Q803 0 652 0 L166 0 L166 1365 Z M296 1253 L296 112 L621 112 Q762 112 844 138 Q926 164 989 229 Q1141 386 1141 701 Q1141 983 996 1128 Q931 1194 847 1223.5 Q763 1253 641 1253 L296 1253 Z M2097 986 L2097 901 L1509 178 Q1468 131 1444 99 L1492 100 L1548 100 L2124 100 L2124 0 L1298 0 L1298 98 L1876 809 L1944 887 Q1920 887 1865 886 L1342 886 L1342 986 L2097 986 Z M1454 1405 L1574 1405 L1723 1202 L1876 1405 L1983 1405 L1780 1133 L1659 1133 L1454 1405 Z " />
<glyph glyph-name="uni01C6" unicode="&#x1c6;" horiz-adv-x="2558" d="M1657 1405 L1777 1405 L1926 1202 L2079 1405 L2186 1405 L1983 1133 L1862 1133 L1657 1405 Z M2256 986 L2256 901 L1668 178 Q1627 131 1603 99 L1651 100 L1707 100 L2284 100 L2284 0 L1458 0 L1458 98 L2035 809 L2103 887 Q2079 887 2024 886 L1501 886 L1501 986 L2256 986 Z M1345 1365 L1345 0 L1232 0 L1232 196 Q1186 86 1095.5 28.5 Q1005 -29 878 -29 Q667 -29 546 122 Q432 264 432 493 Q432 738 556 877 Q679 1015 874 1015 Q1125 1015 1225 804 L1225 1365 L1345 1365 Z M893 915 Q739 915 649 808 Q554 694 554 494 Q554 314 636 198 Q725 71 889 71 Q1049 71 1141 189 Q1228 301 1228 491 Q1228 694 1135 803 Q1039 915 893 915 Z " />
<glyph glyph-name="uni01C7" unicode="&#x1c7;" horiz-adv-x="2027" d="M1062 112 L1062 0 L164 0 L164 1365 L294 1365 L294 112 L1062 112 Z M1883 1379 L1883 404 Q1883 293 1870 230 Q1857 167 1822 113 Q1791 63 1758.5 39 Q1726 15 1670 0 Q1576 -25 1484 -25 Q1364 -25 1275 23.5 Q1186 72 1145 159 Q1104 246 1104 403 Q1104 424 1105 455 L1230 455 Q1230 435 1230 413 Q1230 274 1261 210 Q1320 87 1497 87 Q1644 87 1708 181 Q1753 247 1753 420 L1753 1379 L1883 1379 Z " />
<glyph glyph-name="uni01C8" unicode="&#x1c8;" horiz-adv-x="1461" d="M1062 112 L1062 0 L164 0 L164 1365 L294 1365 L294 112 L1062 112 Z M1311 986 L1311 -66 Q1311 -171 1302 -220.5 Q1293 -270 1266 -305 Q1212 -378 1071 -378 Q1045 -378 1013 -373 L1013 -272 Q1039 -275 1060 -275 Q1144 -275 1167.5 -238 Q1191 -201 1191 -69 L1191 986 L1311 986 Z M1311 1365 L1311 1172 L1191 1172 L1191 1365 L1311 1365 Z " />
<glyph glyph-name="uni01C9" unicode="&#x1c9;" horiz-adv-x="691" d="M540 986 L540 -66 Q540 -171 531 -220.5 Q522 -270 495 -305 Q441 -378 300 -378 Q274 -378 242 -373 L242 -272 Q268 -275 289 -275 Q373 -275 396.5 -238 Q420 -201 420 -69 L420 986 L540 986 Z M540 1365 L540 1172 L420 1172 L420 1365 L540 1365 Z M270 1365 L270 0 L150 0 L150 1365 L270 1365 Z " />
<glyph glyph-name="uni01CA" unicode="&#x1ca;" horiz-adv-x="2265" d="M1242 1365 L1242 0 L1098 0 L462 916 Q345 1085 282 1209 Q287 1139 289 978 L290 882 L290 0 L166 0 L166 1365 L309 1365 L948 440 Q1044 300 1127 154 Q1118 336 1118 514 L1118 1365 L1242 1365 Z M2121 1379 L2121 404 Q2121 293 2108 230 Q2095 167 2060 113 Q2029 63 1996.5 39 Q1964 15 1908 0 Q1814 -25 1722 -25 Q1602 -25 1513 23.5 Q1424 72 1383 159 Q1342 246 1342 403 Q1342 417 1343 455 L1469 455 Q1468 426 1468 413 Q1468 274 1499 210 Q1558 87 1735 87 Q1882 87 1946 181 Q1991 247 1991 420 L1991 1379 L2121 1379 Z " />
<glyph glyph-name="uni01CB" unicode="&#x1cb;" horiz-adv-x="1642" d="M1242 1365 L1242 0 L1098 0 L462 916 Q345 1085 282 1209 Q287 1139 289 978 L290 882 L290 0 L166 0 L166 1365 L309 1365 L948 440 Q1044 300 1127 154 Q1118 336 1118 514 L1118 1365 L1242 1365 Z M1492 986 L1492 -66 Q1492 -171 1483 -220.5 Q1474 -270 1447 -305 Q1393 -378 1252 -378 Q1226 -378 1194 -373 L1194 -272 Q1220 -275 1241 -275 Q1325 -275 1348.5 -238 Q1372 -201 1372 -69 L1372 986 L1492 986 Z M1492 1365 L1492 1172 L1372 1172 L1372 1365 L1492 1365 Z " />
<glyph glyph-name="uni01CC" unicode="&#x1cc;" horiz-adv-x="1418" d="M1268 986 L1268 -66 Q1268 -171 1259 -220.5 Q1250 -270 1223 -305 Q1169 -378 1028 -378 Q1002 -378 970 -373 L970 -272 Q996 -275 1017 -275 Q1101 -275 1124.5 -238 Q1148 -201 1148 -69 L1148 986 L1268 986 Z M1268 1365 L1268 1172 L1148 1172 L1148 1365 L1268 1365 Z M265 986 L265 801 Q307 875 345 913 Q449 1015 614 1015 Q747 1015 837 951 Q904 903 930 833.5 Q956 764 956 634 L956 0 L836 0 L836 596 Q836 761 793 820 Q729 910 587 910 Q452 910 368 827 Q315 774 293.5 700.5 Q272 627 272 496 L272 0 L152 0 L152 986 L265 986 Z " />
<glyph glyph-name="uni01CD" unicode="&#x1cd;" horiz-adv-x="1277" d="M714 1369 L1259 0 L1113 0 L948 430 L324 430 L156 0 L17 0 L568 1369 L714 1369 Z M909 535 L713 1040 Q670 1150 639 1247 Q600 1139 564 1047 L363 535 L909 535 Z M339 1737 L460 1737 L642 1551 L828 1737 L937 1737 L701 1479 L576 1479 L339 1737 Z " />
<glyph glyph-name="uni01CE" unicode="&#x1ce;" horiz-adv-x="1023" d="M985 100 L985 7 Q940 -8 889 -8 Q819 -8 790.5 32.5 Q762 73 762 173 Q634 -29 389 -29 Q246 -29 163 37 Q67 113 67 250 Q67 444 253 517 Q306 538 354 545.5 Q402 553 599 572 Q689 581 722.5 608 Q756 635 756 699 Q756 813 693 863 Q628 915 498 915 Q371 915 306 858.5 Q241 802 229 681 L114 681 Q121 842 224.5 928.5 Q328 1015 512 1015 Q714 1015 812 914 Q848 876 860.5 827 Q873 778 873 671 L872 381 Q873 200 874 167.5 Q875 135 882 120 Q893 93 939 93 Q960 93 985 100 Z M756 537 Q725 511 684.5 500.5 Q644 490 484 468 Q325 446 259 401 Q189 353 189 261 Q189 173 251 122 Q314 69 419 69 Q566 69 661 155.5 Q756 242 756 377 L756 537 Z M240 1405 L360 1405 L509 1202 L662 1405 L769 1405 L566 1133 L445 1133 L240 1405 Z " />
<glyph glyph-name="uni01CF" unicode="&#x1cf;" horiz-adv-x="457" d="M293 1365 L293 0 L163 0 L163 1365 L293 1365 Z M-71 1737 L51 1737 L233 1551 L418 1737 L528 1737 L292 1479 L167 1479 L-71 1737 Z " />
<glyph glyph-name="uni01D0" unicode="&#x1d0;" horiz-adv-x="421" d="M271 986 L271 0 L151 0 L151 986 L271 986 Z M-54 1405 L66 1405 L215 1202 L367 1405 L475 1405 L272 1133 L151 1133 L-54 1405 Z " />
<glyph glyph-name="uni01D1" unicode="&#x1d1;" horiz-adv-x="1475" d="M745 1397 Q1021 1397 1202 1196 Q1380 999 1380 679 Q1380 397 1237 208 Q1055 -31 735 -31 Q418 -31 237 208 Q94 398 94 681 Q94 1005 270 1196 Q455 1397 745 1397 Z M744 1285 Q513 1285 367 1121 Q224 959 224 685 Q224 431 346 269 Q421 171 536 121 Q629 81 737 81 Q961 81 1104 240 Q1250 404 1250 680 Q1250 951 1109 1117 Q966 1285 744 1285 Z M444 1737 L565 1737 L747 1551 L933 1737 L1042 1737 L806 1479 L681 1479 L444 1737 Z " />
<glyph glyph-name="uni01D2" unicode="&#x1d2;" horiz-adv-x="1103" d="M560 1015 Q773 1015 903 860 Q1018 723 1018 490 Q1018 243 885 104 Q758 -29 553 -29 Q329 -29 201 125 Q84 265 84 492 Q84 712 194 852 Q323 1015 560 1015 Z M548 915 Q400 915 305 804 Q207 690 207 494 Q207 294 302 182 Q397 71 555 71 Q706 71 796 174 Q897 290 897 490 Q897 682 806 797 Q713 915 548 915 Z M287 1405 L406 1405 L555 1202 L708 1405 L816 1405 L613 1133 L492 1133 L287 1405 Z " />
<glyph glyph-name="uni01D3" unicode="&#x1d3;" horiz-adv-x="1351" d="M1209 1365 L1209 547 Q1209 401 1190.5 321 Q1172 241 1122 166 Q988 -31 684 -31 Q351 -31 218 189 Q177 256 161 336.5 Q145 417 145 551 L145 1365 L275 1365 L275 546 Q275 426 289 356 Q303 286 339 230 Q438 78 685 78 Q924 78 1016 226 Q1079 327 1079 548 L1079 1365 L1209 1365 Z M378 1737 L499 1737 L681 1551 L867 1737 L976 1737 L740 1479 L615 1479 L378 1737 Z " />
<glyph glyph-name="uni01D4" unicode="&#x1d4;" horiz-adv-x="1096" d="M945 986 L945 0 L832 0 L832 184 Q790 101 734 56 Q630 -29 487 -29 Q403 -29 329 3 Q255 35 211 90 Q144 176 144 350 L144 986 L264 986 L264 403 Q264 263 289 203 Q313 145 372 112 Q436 76 513 76 Q680 76 767 214 Q825 307 825 480 L825 986 L945 986 Z M280 1405 L399 1405 L548 1202 L701 1405 L808 1405 L605 1133 L485 1133 L280 1405 Z " />
<glyph glyph-name="uni01DD" unicode="&#x1dd;" horiz-adv-x="1058" d="M94 661 Q113 757 153 822 Q270 1015 514 1015 Q736 1015 858 857 Q967 717 967 503 Q967 266 838 117 Q712 -29 517 -29 Q360 -29 249 68 Q161 143 121.5 251.5 Q82 360 83 522 L845 521 Q844 620 822 687 Q747 915 512 915 Q393 915 316 850 Q239 785 210 661 L94 661 Z M205 422 Q212 296 263 214 Q352 71 520 71 Q633 71 716 140 Q822 226 845 422 L205 422 Z " />
<glyph glyph-name="Gcaron" unicode="&#x1e6;" horiz-adv-x="1463" d="M1329 694 L1329 0 L1243 0 L1216 255 Q1154 119 1028 44 Q902 -31 735 -31 Q535 -31 384 67 Q234 164 156 345 Q93 492 93 670 Q93 994 278 1201 Q453 1396 742 1396 Q1012 1396 1175 1225 Q1286 1108 1310 945 L1184 945 Q1157 1098 1035.5 1191 Q914 1284 743 1284 Q488 1284 343 1090 Q223 930 223 672 Q223 425 344 269 Q488 81 742 81 Q946 81 1076 208 Q1213 341 1214 588 L746 588 L746 694 L1329 694 Z M435 1737 L557 1737 L739 1551 L924 1737 L1034 1737 L798 1479 L673 1479 L435 1737 Z " />
<glyph glyph-name="gcaron" unicode="&#x1e7;" horiz-adv-x="1123" d="M971 986 L971 95 Q971 -19 958 -86.5 Q945 -154 912 -209 Q807 -386 528 -386 Q346 -386 240.5 -308.5 Q135 -231 124 -89 L245 -89 Q274 -289 530 -289 Q699 -289 775 -205 Q851 -121 852 66 L853 230 Q748 14 511 14 Q310 14 192 158 Q84 289 84 504 Q84 737 204 874 Q326 1015 522 1015 Q748 1015 858 802 L858 986 L971 986 Z M534 915 Q366 915 279 787 Q206 680 206 517 Q206 312 307 206 Q393 114 525 114 Q687 114 778 245 Q851 349 851 516 Q851 724 746 829 Q660 915 534 915 Z M293 1405 L413 1405 L562 1202 L715 1405 L822 1405 L619 1133 L498 1133 L293 1405 Z " />
<glyph glyph-name="uni01F4" unicode="&#x1f4;" horiz-adv-x="1463" d="M1329 694 L1329 0 L1243 0 L1216 255 Q1154 119 1028 44 Q902 -31 735 -31 Q535 -31 384 67 Q234 164 156 345 Q93 492 93 670 Q93 994 278 1201 Q453 1396 742 1396 Q1012 1396 1175 1225 Q1286 1108 1310 945 L1184 945 Q1157 1098 1035.5 1191 Q914 1284 743 1284 Q488 1284 343 1090 Q223 930 223 672 Q223 425 344 269 Q488 81 742 81 Q946 81 1076 208 Q1213 341 1214 588 L746 588 L746 694 L1329 694 Z M1028 1737 L758 1479 L658 1479 L870 1737 L1028 1737 Z " />
<glyph glyph-name="uni01F5" unicode="&#x1f5;" horiz-adv-x="1123" d="M972 986 L972 95 Q972 -18 958.5 -86.5 Q945 -155 913 -210 Q808 -387 529 -387 Q347 -387 241.5 -309 Q136 -231 124 -89 L246 -89 Q274 -290 531 -290 Q699 -290 775.5 -205.5 Q852 -121 853 66 L854 230 Q749 13 512 13 Q311 13 193 157 Q85 288 85 503 Q85 737 205 874 Q327 1015 523 1015 Q748 1015 859 802 L859 986 L972 986 Z M522 915 Q366 915 279 786 Q206 679 206 515 Q206 312 307 205 Q393 113 525 113 Q688 113 779 244 Q852 348 852 520 Q852 723 747 828 Q660 915 522 915 Z M751 1405 L509 1133 L412 1133 L604 1405 L751 1405 Z " />
<glyph glyph-name="Aringacute" unicode="&#x1fa;" horiz-adv-x="1277" d="M714 1370 L1259 0 L1113 0 L949 430 L324 430 L156 0 L17 0 L568 1370 L714 1370 Z M909 536 L713 1041 Q669 1152 639 1247 Q598 1132 564 1047 L363 536 L909 536 Z M636 1800 Q720 1800 779 1734 Q830 1678 830 1602 Q830 1514 765 1455 Q709 1404 633 1404 Q544 1404 486 1469 Q435 1526 435 1604 Q435 1689 500 1749 Q556 1800 636 1800 Z M631 1721 Q583 1721 548.5 1686 Q514 1651 514 1602 Q514 1553 548.5 1518 Q583 1483 633 1483 Q682 1483 716.5 1518 Q751 1553 751 1603 Q751 1652 716 1686.5 Q681 1721 631 1721 Z M724 2005 L455 1747 L355 1747 L567 2005 L724 2005 Z " />
<glyph glyph-name="aringacute" unicode="&#x1fb;" horiz-adv-x="1023" d="M985 100 L985 7 Q940 -8 889 -8 Q819 -8 790.5 32.5 Q762 73 762 173 Q714 98 663 58 Q553 -29 389 -29 Q247 -29 163 37 Q67 112 67 250 Q67 444 253 517 Q306 537 354 545 Q402 553 600 572 Q689 581 722.5 608 Q756 635 756 698 Q756 813 693 863 Q627 915 498 915 Q371 915 306 858.5 Q241 802 229 681 L114 681 Q121 841 224.5 928 Q328 1015 512 1015 Q630 1015 719.5 975.5 Q809 936 844 869 Q866 827 869.5 766 Q873 705 873 381 Q874 200 875 167 Q876 134 883 120 Q894 93 940 93 Q960 93 985 100 Z M756 537 Q724 511 683.5 500.5 Q643 490 484 468 Q325 446 259 401 Q189 353 189 261 Q189 173 251 122 Q314 69 419 69 Q566 69 661 155.5 Q756 242 756 377 L756 537 Z M527 1474 Q608 1474 666 1411 Q715 1357 715 1283 Q715 1198 652 1141 Q597 1092 524 1092 Q439 1092 382 1155 Q333 1210 333 1285 Q333 1367 396 1425 Q450 1474 527 1474 Z M522 1395 Q477 1395 444.5 1362 Q412 1329 412 1283 Q412 1236 444.5 1203.5 Q477 1171 524 1171 Q571 1171 603.5 1204 Q636 1237 636 1284 Q636 1330 602.5 1362.5 Q569 1395 522 1395 Z M642 1732 L400 1460 L303 1460 L495 1732 L642 1732 Z " />
<glyph glyph-name="AEacute" unicode="&#x1fc;" horiz-adv-x="1790" d="M1704 1365 L1704 1253 L998 1253 L998 763 L1656 763 L1656 651 L998 651 L998 112 L1712 112 L1712 0 L868 0 L868 446 L379 446 L150 0 L1 0 L714 1365 L1704 1365 Z M868 555 L868 1253 L789 1253 L432 555 L868 555 Z M1433 1737 L1164 1479 L1064 1479 L1276 1737 L1433 1737 Z " />
<glyph glyph-name="aeacute" unicode="&#x1fd;" horiz-adv-x="1688" d="M1601 322 Q1575 196 1503 111 Q1384 -29 1175 -29 Q898 -29 809 220 Q763 105 648 36 Q533 -33 386 -33 Q243 -33 154.5 48 Q66 129 66 261 Q66 399 165 479 Q244 542 459 562 Q677 583 711 605 Q752 633 752 700 Q752 810 690.5 862.5 Q629 915 499 915 Q365 915 298 858 Q231 801 221 679 L105 679 Q119 822 193 900 Q300 1015 502 1015 Q681 1015 765 940 Q812 899 836 812 Q870 885 925 931 Q1026 1015 1178 1015 Q1389 1015 1508 865 Q1612 733 1612 514 Q1612 495 1611 464 L863 464 Q863 343 893 268 Q970 71 1187 71 Q1425 71 1485 322 L1601 322 Z M1491 564 Q1488 694 1432 781 Q1345 915 1178 915 Q1093 915 1022.5 875.5 Q952 836 912 765 Q872 695 861 564 L1491 564 Z M751 536 Q723 511 690 501.5 Q657 492 575 484 Q382 467 319 444 Q188 397 188 265 Q188 170 250 115 Q312 60 419 60 Q578 60 678 176 Q719 222 735 276.5 Q751 331 751 418 L751 536 Z M1074 1405 L832 1133 L735 1133 L927 1405 L1074 1405 Z " />
<glyph glyph-name="Oslashacute" unicode="&#x1fe;" horiz-adv-x="1475" d="M1233 1159 Q1381 962 1381 678 Q1381 396 1237 207 Q1055 -32 736 -32 Q481 -32 306 131 L163 -23 L94 38 L241 203 Q94 398 94 683 Q94 1002 270 1196 Q452 1397 736 1397 Q994 1397 1169 1231 L1309 1388 L1378 1325 L1233 1159 Z M1141 1074 L392 216 Q441 174 482 149 Q595 80 737 80 Q962 80 1104 239 Q1251 403 1251 678 Q1251 915 1141 1074 Z M331 292 L1083 1145 Q932 1285 737 1285 Q513 1285 368 1121 Q224 959 224 689 Q224 455 331 292 Z M1001 1737 L732 1479 L631 1479 L844 1737 L1001 1737 Z " />
<glyph glyph-name="oslashacute" unicode="&#x1ff;" horiz-adv-x="1103" d="M927 830 Q959 777 977 734 Q1018 632 1018 491 Q1018 243 885 104 Q758 -29 554 -29 Q366 -29 236 86 L128 -31 L64 27 L180 152 Q84 297 84 494 Q84 713 194 852 Q324 1015 551 1015 Q743 1015 870 897 L974 1008 L1038 951 L927 830 Z M839 747 L316 166 Q423 71 555 71 Q706 71 796 174 Q897 290 897 492 Q897 634 839 747 Z M264 236 L790 818 Q689 915 552 915 Q399 915 304 804 Q205 689 205 498 Q205 343 264 236 Z M797 1405 L555 1133 L458 1133 L649 1405 L797 1405 Z " />
<glyph glyph-name="uni0200" unicode="&#x200;" horiz-adv-x="1277" d="M714 1369 L1259 0 L1113 0 L948 430 L324 430 L156 0 L17 0 L568 1369 L714 1369 Z M909 535 L713 1040 Q670 1150 639 1247 Q600 1139 564 1047 L363 535 L909 535 Z M232 1737 L381 1737 L545 1479 L454 1479 L232 1737 Z M546 1737 L695 1737 L859 1479 L768 1479 L546 1737 Z " />
<glyph glyph-name="uni0201" unicode="&#x201;" horiz-adv-x="1023" d="M139 1419 L288 1419 L452 1161 L361 1161 L139 1419 Z M453 1419 L602 1419 L766 1161 L675 1161 L453 1419 Z M985 100 L985 7 Q940 -8 889 -8 Q819 -8 790.5 32.5 Q762 73 762 173 Q634 -29 389 -29 Q246 -29 163 37 Q67 113 67 250 Q67 444 253 517 Q306 538 354 545.5 Q402 553 599 572 Q689 581 722.5 608 Q756 635 756 699 Q756 813 693 863 Q628 915 498 915 Q371 915 306 858.5 Q241 802 229 681 L114 681 Q121 842 224.5 928.5 Q328 1015 512 1015 Q714 1015 812 914 Q848 876 860.5 827 Q873 778 873 671 L872 381 Q873 200 874 167.5 Q875 135 882 120 Q893 93 939 93 Q960 93 985 100 Z M756 537 Q725 511 684.5 500.5 Q644 490 484 468 Q325 446 259 401 Q189 353 189 261 Q189 173 251 122 Q314 69 419 69 Q566 69 661 155.5 Q756 242 756 377 L756 537 Z " />
<glyph glyph-name="Scommaaccent" unicode="&#x218;" horiz-adv-x="1201" d="M1071 972 L946 972 Q932 1129 842 1204 Q741 1288 565 1288 Q416 1288 329 1229 Q225 1159 225 1027 Q225 911 308 861 Q378 818 593 769 Q755 732 824.5 710 Q894 688 945 659 Q1114 562 1114 372 Q1114 179 959 64 Q829 -31 600 -31 Q344 -31 201 92 Q132 152 93.5 242.5 Q55 333 55 437 Q55 442 55 452 L180 452 Q185 297 256 211 Q366 78 609 78 Q802 78 898 161 Q988 240 988 360 Q988 510 829 576 Q755 606 527 660 Q392 691 329 713.5 Q266 736 217 770 Q98 852 98 1020 Q98 1194 226.5 1295.5 Q355 1397 575 1397 Q804 1397 933 1286.5 Q1062 1176 1071 972 Z M639 -116 L639 -241 Q642 -426 494 -463 L494 -402 Q565 -367 572 -269 L508 -269 L508 -116 L639 -116 Z " />
<glyph glyph-name="scommaaccent" unicode="&#x219;" horiz-adv-x="921" d="M811 700 L692 700 Q684 779 655 822 Q593 915 427 915 Q326 915 265 876 Q195 832 195 746 Q195 675 249 640.5 Q303 606 477 566 Q662 523 741 471 Q845 403 845 272 Q845 204 812 143.5 Q779 83 721 43 Q616 -29 453 -29 Q227 -29 120 102 Q52 186 48 322 L165 322 Q172 222 211 171 Q284 71 456 71 Q608 71 682 150 Q726 199 726 262 Q726 336 669 376.5 Q612 417 455 455 Q249 504 188 538 Q135 566 105.5 618.5 Q76 671 76 735 Q76 888 209 964 Q297 1015 435 1015 Q642 1015 741 900 Q801 830 811 700 Z M495 -116 L495 -241 Q498 -425 350 -463 L350 -402 Q421 -367 428 -269 L364 -269 L364 -116 L495 -116 Z " />
<glyph glyph-name="uni021A" unicode="&#x21a;" horiz-adv-x="1147" d="M1119 1365 L1119 1253 L640 1253 L640 0 L510 0 L510 1253 L29 1253 L29 1365 L1119 1365 Z M646 -116 L646 -241 Q650 -425 501 -463 L501 -402 Q572 -367 579 -269 L515 -269 L515 -116 L646 -116 Z " />
<glyph glyph-name="uni021B" unicode="&#x21b;" horiz-adv-x="538" d="M479 986 L479 886 L274 886 L274 264 Q274 167 290 140 Q314 98 398 98 Q430 98 479 104 L479 1 Q422 -7 371 -7 Q222 -7 178 73 Q163 101 158.5 146 Q154 191 154 323 L154 886 L-18 886 L-18 986 L154 986 L154 1288 L274 1288 L274 986 L479 986 Z M358 -116 L358 -241 Q361 -425 213 -463 L213 -402 Q284 -367 291 -269 L227 -269 L227 -116 L358 -116 Z " />
<glyph glyph-name="uni0226" unicode="&#x226;" horiz-adv-x="1277" d="M714 1369 L1259 0 L1113 0 L948 430 L324 430 L156 0 L17 0 L568 1369 L714 1369 Z M909 535 L713 1040 Q670 1150 639 1247 Q600 1139 564 1047 L363 535 L909 535 Z M711 1700 L711 1509 L581 1509 L581 1700 L711 1700 Z " />
<glyph glyph-name="uni0227" unicode="&#x227;" horiz-adv-x="1023" d="M985 100 L985 7 Q940 -8 889 -8 Q819 -8 790.5 32.5 Q762 73 762 173 Q634 -29 389 -29 Q246 -29 163 37 Q67 113 67 250 Q67 444 253 517 Q306 538 354 545.5 Q402 553 599 572 Q689 581 722.5 608 Q756 635 756 699 Q756 813 693 863 Q628 915 498 915 Q371 915 306 858.5 Q241 802 229 681 L114 681 Q121 842 224.5 928.5 Q328 1015 512 1015 Q714 1015 812 914 Q848 876 860.5 827 Q873 778 873 671 L872 381 Q873 200 874 167.5 Q875 135 882 120 Q893 93 939 93 Q960 93 985 100 Z M756 537 Q725 511 684.5 500.5 Q644 490 484 468 Q325 446 259 401 Q189 353 189 261 Q189 173 251 122 Q314 69 419 69 Q566 69 661 155.5 Q756 242 756 377 L756 537 Z M577 1368 L577 1173 L454 1173 L454 1368 L577 1368 Z " />
<glyph glyph-name="uni0237" unicode="&#x237;" horiz-adv-x="421" d="M271 986 L271 -66 Q271 -171 262 -220.5 Q253 -270 226 -305 Q172 -378 31 -378 Q5 -378 -27 -373 L-27 -272 Q-1 -275 20 -275 Q104 -275 127.5 -238 Q151 -201 151 -69 L151 986 L271 986 Z " />
<glyph glyph-name="uni0259" unicode="&#x259;" horiz-adv-x="1058" d="M94 661 Q113 757 153 822 Q270 1015 514 1015 Q736 1015 858 857 Q967 717 967 503 Q967 266 838 117 Q712 -29 517 -29 Q360 -29 249 68 Q161 143 121.5 251.5 Q82 360 83 522 L845 521 Q844 620 822 687 Q747 915 512 915 Q393 915 316 850 Q239 785 210 661 L94 661 Z M205 422 Q212 296 263 214 Q352 71 520 71 Q633 71 716 140 Q822 226 845 422 L205 422 Z " />
<glyph glyph-name="uni02BB" unicode="&#x2bb;" horiz-adv-x="475" d="M324 890 L150 890 L150 1112 Q150 1334 324 1365 L324 1273 Q277 1259 260 1222 Q243 1185 242 1095 L324 1095 L324 890 Z " />
<glyph glyph-name="afii57929" unicode="&#x2bc;" horiz-adv-x="457" d="M307 1365 L307 1210 Q316 961 138 901 L138 983 Q184 1011 203.5 1052 Q223 1093 224 1166 L150 1166 L150 1365 L307 1365 Z " />
<glyph glyph-name="uni02C9" unicode="&#x2c9;" horiz-adv-x="1024" d="M781 1315 L781 1229 L243 1229 L243 1315 L781 1315 Z " />
<glyph glyph-name="uni037E" unicode="&#x37e;" horiz-adv-x="492" d="M341 198 L341 57 Q341 -86 303 -158 Q265 -230 172 -265 L172 -184 Q256 -147 259 0 L184 0 L184 198 L341 198 Z M341 986 L341 781 L184 781 L184 986 L341 986 Z " />
<glyph glyph-name="tonos" unicode="&#x384;" horiz-adv-x="355" d="M129 1127 L109 1476 L246 1476 L226 1127 L129 1127 Z " />
<glyph glyph-name="dieresistonos" unicode="&#x385;" horiz-adv-x="820" d="M361 1127 L341 1476 L478 1476 L458 1127 L361 1127 Z M710 1368 L710 1173 L587 1173 L587 1368 L710 1368 Z M232 1368 L232 1173 L109 1173 L109 1368 L232 1368 Z " />
<glyph glyph-name="Alphatonos" unicode="&#x386;" horiz-adv-x="1294" d="M961 432 L338 432 L173 0 L41 0 L580 1365 L717 1365 L1265 0 L1131 0 L961 432 Z M918 536 L644 1239 L378 536 L918 536 Z M142 1114 L122 1476 L259 1476 L239 1114 L142 1114 Z " />
<glyph glyph-name="Epsilontonos" unicode="&#x388;" horiz-adv-x="1301" d="M1197 1365 L1197 1253 L403 1253 L403 754 L1131 754 L1131 649 L403 649 L403 112 L1215 112 L1215 0 L273 0 L273 1365 L1197 1365 Z M20 1114 L0 1476 L137 1476 L117 1114 L20 1114 Z " />
<glyph glyph-name="Etatonos" unicode="&#x389;" horiz-adv-x="1473" d="M1178 669 L403 669 L403 0 L273 0 L273 1365 L403 1365 L403 781 L1178 781 L1178 1365 L1308 1365 L1308 0 L1178 0 L1178 669 Z M20 1114 L0 1476 L137 1476 L117 1114 L20 1114 Z " />
<glyph glyph-name="Iotatonos" unicode="&#x38a;" horiz-adv-x="568" d="M403 1365 L403 0 L273 0 L273 1365 L403 1365 Z M20 1114 L0 1476 L137 1476 L117 1114 L20 1114 Z " />
<glyph glyph-name="Omicrontonos" unicode="&#x38c;" horiz-adv-x="1539" d="M799 1396 Q992 1396 1146 1292 Q1313 1179 1384 979 Q1431 845 1431 682 Q1431 378 1269 184 Q1089 -31 790 -31 Q490 -31 310 184 Q148 378 148 680 Q148 987 310 1181 Q489 1396 799 1396 Z M797 1284 Q635 1284 508 1198 Q278 1044 278 680 Q278 417 405 260 Q478 169 589 122 Q684 81 790 81 Q946 81 1072 166 Q1302 320 1302 682 Q1302 946 1175 1105 Q1102 1196 991 1243 Q894 1284 797 1284 Z M47 1114 L27 1476 L164 1476 L144 1114 L47 1114 Z " />
<glyph glyph-name="Upsilontonos" unicode="&#x38e;" horiz-adv-x="1360" d="M20 1114 L0 1476 L137 1476 L117 1114 L20 1114 Z M1375 1365 L834 564 L834 0 L704 0 L704 564 L162 1365 L318 1365 L699 793 Q732 745 773 673 Q821 755 843 789 L1226 1365 L1375 1365 Z " />
<glyph glyph-name="Omegatonos" unicode="&#x38f;" horiz-adv-x="1550" d="M1088 112 L1443 112 L1443 0 L907 0 L907 141 Q1028 165 1121 237 Q1314 386 1314 701 Q1314 957 1187 1110 Q1114 1198 1003 1245 Q908 1284 802 1284 Q646 1284 520 1202 Q290 1052 290 701 Q290 357 520 211 Q600 160 696 141 L696 0 L160 0 L160 112 L516 112 Q425 146 359 206 Q160 386 160 712 Q160 1003 322 1189 Q501 1396 802 1396 Q1102 1396 1282 1189 Q1443 1003 1443 712 Q1443 491 1349.5 333.5 Q1256 176 1088 112 Z M75 1114 L55 1476 L192 1476 L172 1114 L75 1114 Z " />
<glyph glyph-name="iotadieresistonos" unicode="&#x390;" horiz-adv-x="465" d="M292 986 L292 0 L172 0 L172 986 L292 986 Z M184 1127 L164 1476 L301 1476 L281 1127 L184 1127 Z M533 1368 L533 1173 L410 1173 L410 1368 L533 1368 Z M55 1368 L55 1173 L-68 1173 L-68 1368 L55 1368 Z " />
<glyph glyph-name="Alpha" unicode="&#x391;" horiz-adv-x="1277" d="M714 1369 L1259 0 L1113 0 L948 430 L324 430 L156 0 L17 0 L568 1369 L714 1369 Z M909 535 L713 1040 Q670 1150 639 1247 Q600 1139 564 1047 L363 535 L909 535 Z " />
<glyph glyph-name="Beta" unicode="&#x392;" horiz-adv-x="1319" d="M166 1365 L718 1365 Q913 1365 1012 1311 Q1091 1267 1136 1191.5 Q1181 1116 1181 1024 Q1181 913 1116.5 831 Q1052 749 943 723 Q1031 705 1082 674 Q1234 582 1234 390 Q1234 277 1178.5 187 Q1123 97 1021 48 Q924 0 751 0 L166 0 L166 1365 Z M296 1253 L296 760 L660 760 Q826 760 900 787 Q970 813 1011 872 Q1052 931 1052 1006 Q1052 1161 917 1222 Q848 1253 693 1253 L296 1253 Z M296 656 L296 112 L703 112 Q901 112 986 164 Q1104 237 1104 389 Q1104 527 1005 591.5 Q906 656 694 656 L296 656 Z " />
<glyph glyph-name="Gamma" unicode="&#x393;" horiz-adv-x="1098" d="M1062 1253 L294 1253 L294 0 L164 0 L164 1365 L1062 1365 L1062 1253 Z " />
<glyph glyph-name="uni0394" unicode="&#x394;" horiz-adv-x="1296" d="M17 0 L577 1369 L725 1369 L1278 0 L17 0 Z M1086 112 L723 1040 Q678 1156 649 1247 Q611 1144 573 1047 L203 112 L1086 112 Z " />
<glyph glyph-name="Epsilon" unicode="&#x395;" horiz-adv-x="1199" d="M1114 1365 L1114 1253 L296 1253 L296 763 L1062 763 L1062 651 L296 651 L296 112 L1122 112 L1122 0 L166 0 L166 1365 L1114 1365 Z " />
<glyph glyph-name="Zeta" unicode="&#x396;" horiz-adv-x="1176" d="M1107 1365 L1107 1252 L276 195 Q231 142 206 109 Q256 109 402 112 L1126 112 L1126 0 L58 0 L58 116 L896 1179 Q940 1232 959 1256 Q823 1253 780 1253 L121 1253 L121 1365 L1107 1365 Z " />
<glyph glyph-name="Eta" unicode="&#x397;" horiz-adv-x="1405" d="M1241 1365 L1241 0 L1111 0 L1111 659 L294 659 L294 0 L164 0 L164 1365 L294 1365 L294 771 L1111 771 L1111 1365 L1241 1365 Z " />
<glyph glyph-name="Theta" unicode="&#x398;" horiz-adv-x="1475" d="M462 627 L462 739 L1012 739 L1012 627 L462 627 Z M745 1397 Q1021 1397 1202 1196 Q1380 999 1380 679 Q1380 397 1237 208 Q1055 -31 735 -31 Q418 -31 237 208 Q94 398 94 681 Q94 1005 270 1196 Q455 1397 745 1397 Z M744 1285 Q513 1285 367 1121 Q224 959 224 685 Q224 431 346 269 Q421 171 536 121 Q629 81 737 81 Q961 81 1104 240 Q1250 404 1250 680 Q1250 951 1109 1117 Q966 1285 744 1285 Z " />
<glyph glyph-name="Iota" unicode="&#x399;" horiz-adv-x="457" d="M294 1365 L294 0 L164 0 L164 1365 L294 1365 Z " />
<glyph glyph-name="Kappa" unicode="&#x39a;" horiz-adv-x="1284" d="M1265 1365 L650 808 L1296 0 L1129 0 L557 719 L296 482 L296 0 L166 0 L166 1365 L296 1365 L296 631 Q359 692 385 717 L1092 1365 L1265 1365 Z " />
<glyph glyph-name="Lambda" unicode="&#x39b;" horiz-adv-x="1199" d="M527 1365 L661 1365 L1171 0 L1029 0 L696 942 L667 1022 L636 1112 Q604 1199 592 1232 L576 1184 Q522 1024 493 942 L166 0 L28 0 L527 1365 Z " />
<glyph glyph-name="Mu" unicode="&#x39c;" horiz-adv-x="1657" d="M1494 1365 L1494 0 L1370 0 L1370 825 Q1370 1077 1385 1255 L1371 1214 L1347 1148 Q1306 1033 1295 1006 L892 0 L776 0 L365 994 Q327 1088 277 1247 Q290 975 290 829 L290 0 L166 0 L166 1365 L344 1365 L741 391 Q791 269 834 135 Q889 297 925 388 L1315 1365 L1494 1365 Z " />
<glyph glyph-name="Nu" unicode="&#x39d;" horiz-adv-x="1405" d="M1242 1365 L1242 0 L1098 0 L462 916 Q345 1085 282 1209 Q287 1139 289 978 L290 882 L290 0 L166 0 L166 1365 L309 1365 L948 440 Q1044 300 1127 154 Q1118 336 1118 514 L1118 1365 L1242 1365 Z " />
<glyph glyph-name="Xi" unicode="&#x39e;" horiz-adv-x="1137" d="M73 1365 L1065 1365 L1065 1246 L73 1246 L73 1365 Z M138 648 L138 764 L999 764 L999 648 L138 648 Z M55 0 L55 119 L1083 119 L1083 0 L55 0 Z " />
<glyph glyph-name="Omicron" unicode="&#x39f;" horiz-adv-x="1475" d="M745 1397 Q1021 1397 1202 1196 Q1380 999 1380 679 Q1380 397 1237 208 Q1055 -31 735 -31 Q418 -31 237 208 Q94 398 94 681 Q94 1005 270 1196 Q455 1397 745 1397 Z M744 1285 Q513 1285 367 1121 Q224 959 224 685 Q224 431 346 269 Q421 171 536 121 Q629 81 737 81 Q961 81 1104 240 Q1250 404 1250 680 Q1250 951 1109 1117 Q966 1285 744 1285 Z " />
<glyph glyph-name="Pi" unicode="&#x3a0;" horiz-adv-x="1405" d="M1111 1253 L294 1253 L294 0 L164 0 L164 1365 L1241 1365 L1241 0 L1111 0 L1111 1253 Z " />
<glyph glyph-name="Rho" unicode="&#x3a1;" horiz-adv-x="1241" d="M166 1365 L712 1365 Q828 1365 897.5 1350 Q967 1335 1023 1297 Q1179 1193 1179 980 Q1179 764 1028 657 Q921 582 728 582 L296 582 L296 0 L166 0 L166 1365 Z M296 1253 L296 694 L692 694 Q780 694 833 704.5 Q886 715 928 741 Q1049 817 1049 974 Q1049 1134 932 1207 Q888 1234 836.5 1243.5 Q785 1253 685 1253 L296 1253 Z " />
<glyph glyph-name="Sigma" unicode="&#x3a3;" horiz-adv-x="1068" d="M564 683 L86 1252 L86 1365 L1004 1365 L1004 1253 L249 1253 L717 692 L179 112 L1027 112 L1027 0 L27 0 L27 112 L564 683 Z " />
<glyph glyph-name="Tau" unicode="&#x3a4;" horiz-adv-x="1147" d="M1119 1365 L1119 1253 L640 1253 L640 0 L510 0 L510 1253 L29 1253 L29 1365 L1119 1365 Z " />
<glyph glyph-name="Upsilon" unicode="&#x3a5;" horiz-adv-x="1186" d="M1201 1365 L660 564 L660 0 L530 0 L530 564 L-12 1365 L144 1365 L525 793 Q558 744 599 673 Q642 748 669 789 L1052 1365 L1201 1365 Z " />
<glyph glyph-name="Phi" unicode="&#x3a6;" horiz-adv-x="1655" d="M891 0 L765 0 L765 168 Q578 168 428 215 Q255 270 164 399 Q82 516 82 683 Q82 1037 431 1150 Q578 1198 765 1198 L765 1365 L891 1365 L891 1198 Q1078 1198 1225 1150 Q1574 1037 1574 683 Q1574 443 1409 311 Q1230 168 891 168 L891 0 Z M765 273 L765 1093 Q627 1091 546 1075 Q465 1059 398 1021 Q209 914 209 683 Q209 431 429 329 Q496 299 568.5 286.5 Q641 274 765 273 Z M891 273 Q1026 274 1106 290 Q1186 306 1257 345 Q1447 449 1447 683 Q1447 933 1229 1036 Q1115 1090 891 1093 L891 273 Z " />
<glyph glyph-name="Chi" unicode="&#x3a7;" horiz-adv-x="1169" d="M1131 1365 L664 702 L1157 0 L1001 0 L659 490 Q648 505 599 584 L585 606 L506 490 L162 0 L13 0 L508 702 L43 1365 L197 1365 L501 928 Q525 894 586 792 L602 818 Q667 919 675 929 L986 1365 L1131 1365 Z " />
<glyph glyph-name="Psi" unicode="&#x3a8;" horiz-adv-x="1478" d="M804 1365 L804 459 Q1244 479 1234 895 L1234 1365 L1364 1365 L1364 924 Q1364 806 1344 719 Q1307 553 1163.5 454.5 Q1020 356 804 347 L804 0 L674 0 L674 347 Q401 358 251 507 Q190 568 159 639.5 Q128 711 118 814 Q113 869 113 924 L113 1365 L243 1365 L243 895 Q243 788 263.5 718.5 Q284 649 331 596 Q443 469 674 459 L674 1365 L804 1365 Z " />
<glyph glyph-name="uni03A9" unicode="&#x3a9;" horiz-adv-x="1498" d="M1035 112 L1390 112 L1390 0 L854 0 L854 141 Q975 165 1068 237 Q1261 386 1261 701 Q1261 957 1134 1110 Q1061 1198 950 1245 Q855 1284 749 1284 Q593 1284 467 1202 Q237 1052 237 701 Q237 357 467 211 Q547 160 643 141 L643 0 L107 0 L107 112 L463 112 Q372 146 306 206 Q107 386 107 712 Q107 1003 269 1189 Q448 1396 749 1396 Q1049 1396 1229 1189 Q1390 1003 1390 712 Q1390 491 1296.5 333.5 Q1203 176 1035 112 Z " />
<glyph glyph-name="Iotadieresis" unicode="&#x3aa;" horiz-adv-x="457" d="M294 1365 L294 0 L164 0 L164 1365 L294 1365 Z M419 1700 L419 1509 L289 1509 L289 1700 L419 1700 Z M169 1700 L169 1509 L39 1509 L39 1700 L169 1700 Z " />
<glyph glyph-name="Upsilondieresis" unicode="&#x3ab;" horiz-adv-x="1189" d="M861 1700 L861 1509 L731 1509 L731 1700 L861 1700 Z M448 1700 L448 1509 L318 1509 L318 1700 L448 1700 Z M1201 1365 L660 564 L660 0 L530 0 L530 564 L-12 1365 L144 1365 L525 793 Q558 744 599 673 Q642 748 669 789 L1052 1365 L1201 1365 Z " />
<glyph glyph-name="alphatonos" unicode="&#x3ac;" horiz-adv-x="1212" d="M511 1127 L492 1476 L629 1476 L609 1127 L511 1127 Z M932 688 L992 986 L1122 986 L998 520 L1143 0 L1014 0 L927 313 Q878 210 850 167 Q789 72 716 25 Q630 -29 508 -29 Q367 -29 257 59 Q175 126 130 240 Q84 355 84 492 Q84 735 214 878 Q338 1015 541 1015 Q769 1015 880 811 Q902 772 932 688 Z M889 489 Q858 613 829.5 681 Q801 749 756 803 Q665 915 529 915 Q372 915 287 790 Q207 673 207 482 Q207 255 321 147 Q401 71 512 71 Q588 71 645.5 102 Q703 133 759 205 Q832 299 889 489 Z " />
<glyph glyph-name="epsilontonos" unicode="&#x3ad;" horiz-adv-x="960" d="M529 552 L529 452 L441 452 Q190 452 190 277 Q190 175 271 121 Q348 71 466 71 Q643 71 725 203 Q764 265 776 352 L897 352 Q878 217 809 126 Q748 46 666 8.5 Q584 -29 469 -29 Q304 -29 199 34 Q138 70 103 132 Q68 194 68 267 Q68 356 119.5 417.5 Q171 479 268 504 Q191 521 154 553 Q82 613 82 722 Q82 788 114 847.5 Q146 907 201 944 Q309 1015 476 1015 Q655 1015 762.5 926.5 Q870 838 890 674 L768 674 Q721 915 470 915 Q356 915 285 871 Q203 820 203 721 Q203 552 441 552 L529 552 Z M431 1127 L411 1476 L548 1476 L529 1127 L431 1127 Z " />
<glyph glyph-name="etatonos" unicode="&#x3ae;" horiz-adv-x="1098" d="M265 986 L265 801 Q307 875 345 913 Q449 1015 614 1015 Q747 1015 837 951 Q904 903 930 833.5 Q956 764 956 634 L956 -366 L836 -366 L836 596 Q836 761 793 820 Q729 910 587 910 Q452 910 368 827 Q315 774 293.5 700.5 Q272 627 272 496 L272 0 L152 0 L152 986 L265 986 Z M500 1127 L481 1476 L618 1476 L598 1127 L500 1127 Z " />
<glyph glyph-name="iotatonos" unicode="&#x3af;" horiz-adv-x="434" d="M277 986 L277 0 L157 0 L157 986 L277 986 Z M169 1127 L149 1476 L286 1476 L266 1127 L169 1127 Z " />
<glyph glyph-name="upsilondieresistonos" unicode="&#x3b0;" horiz-adv-x="1092" d="M828 986 L948 986 L948 376 Q948 273 930.5 208.5 Q913 144 871 94 Q770 -29 546 -29 Q322 -29 221 94 Q179 144 161.5 208.5 Q144 273 144 376 L144 986 L264 986 L264 378 Q264 230 322 156 Q389 71 546 71 Q703 71 770 156 Q828 230 828 378 L828 986 Z M497 1127 L478 1476 L615 1476 L595 1127 L497 1127 Z M847 1368 L847 1173 L724 1173 L724 1368 L847 1368 Z M369 1368 L369 1173 L246 1173 L246 1368 L369 1368 Z " />
<glyph glyph-name="alpha" unicode="&#x3b1;" horiz-adv-x="1212" d="M932 688 L992 986 L1122 986 L998 520 L1143 0 L1014 0 L927 313 Q878 210 850 167 Q789 72 716 25 Q630 -29 508 -29 Q367 -29 257 59 Q175 126 130 240 Q84 355 84 492 Q84 735 214 878 Q338 1015 541 1015 Q769 1015 880 811 Q902 772 932 688 Z M889 489 Q858 613 829.5 681 Q801 749 756 803 Q665 915 529 915 Q372 915 287 790 Q207 673 207 482 Q207 255 321 147 Q401 71 512 71 Q588 71 645.5 102 Q703 133 759 205 Q832 299 889 489 Z " />
<glyph glyph-name="beta" unicode="&#x3b2;" horiz-adv-x="1145" d="M734 700 Q845 685 900 655 Q1063 568 1063 365 Q1063 174 927 62 Q817 -29 641 -29 Q368 -29 272 184 L272 -366 L152 -366 L152 884 Q152 1100 219 1204 Q328 1375 586 1375 Q774 1375 884.5 1279.5 Q995 1184 995 1022 Q995 839 854 748 Q805 717 734 700 Z M525 643 L525 743 L585 743 Q711 743 787 809 Q873 884 873 1015 Q873 1135 794.5 1205 Q716 1275 583 1275 Q419 1275 345.5 1184.5 Q272 1094 272 892 L272 514 Q271 390 303 294 Q335 196 412 137 Q497 71 632 71 Q768 71 851 150 Q941 234 941 371 Q941 503 850 573 Q759 643 588 643 L525 643 Z " />
<glyph glyph-name="gamma" unicode="&#x3b3;" horiz-adv-x="928" d="M524 -15 L524 -366 L404 -366 L404 -15 L9 986 L149 986 L344 463 Q354 436 378 376 Q415 284 464 132 Q480 192 552 372 L591 463 L783 986 L918 986 L524 -15 Z " />
<glyph glyph-name="delta" unicode="&#x3b4;" horiz-adv-x="1103" d="M548 1014 L225 1273 L225 1365 L963 1365 L963 1263 L408 1263 L789 958 Q865 898 903 854.5 Q941 811 966 759 Q1018 648 1018 492 Q1018 243 885 104 Q758 -29 553 -29 Q326 -29 201 125 Q84 268 84 494 Q84 729 209.5 869.5 Q335 1010 548 1014 Z M557 915 Q400 915 305 804 Q207 690 207 492 Q207 295 302 182 Q396 71 555 71 Q705 71 795 174 Q896 290 896 492 Q896 682 805 797 Q762 852 696 883.5 Q630 915 557 915 Z " />
<glyph glyph-name="epsilon" unicode="&#x3b5;" horiz-adv-x="960" d="M529 552 L529 452 L441 452 Q190 452 190 277 Q190 175 271 121 Q348 71 466 71 Q643 71 725 203 Q764 265 776 352 L897 352 Q878 217 809 126 Q748 46 666 8.5 Q584 -29 469 -29 Q304 -29 199 34 Q138 70 103 132 Q68 194 68 267 Q68 356 119.5 417.5 Q171 479 268 504 Q191 521 154 553 Q82 613 82 722 Q82 788 114 847.5 Q146 907 201 944 Q309 1015 476 1015 Q655 1015 762.5 926.5 Q870 838 890 674 L768 674 Q721 915 470 915 Q356 915 285 871 Q203 820 203 721 Q203 552 441 552 L529 552 Z " />
<glyph glyph-name="zeta" unicode="&#x3b6;" horiz-adv-x="831" d="M702 -366 L581 -366 Q687 -175 687 -99 Q687 -66 668 -52 Q649 -38 600 -34 L540 -29 Q428 -21 370 -2 Q239 42 162 160.5 Q85 279 85 437 Q85 650 215.5 833 Q346 1016 675 1265 L151 1265 L151 1365 L831 1365 L831 1273 Q540 1049 408 897 Q302 774 254.5 667 Q207 560 207 443 Q207 258 315 153 Q360 109 417 90 Q474 71 580 63 L671 57 Q752 51 783 9 Q810 -27 810 -69 Q810 -170 702 -366 Z " />
<glyph glyph-name="eta" unicode="&#x3b7;" horiz-adv-x="1098" d="M265 986 L265 801 Q307 875 345 913 Q449 1015 614 1015 Q747 1015 837 951 Q904 903 930 833.5 Q956 764 956 634 L956 -366 L836 -366 L836 596 Q836 761 793 820 Q729 910 587 910 Q452 910 368 827 Q315 774 293.5 700.5 Q272 627 272 496 L272 0 L152 0 L152 986 L265 986 Z " />
<glyph glyph-name="theta" unicode="&#x3b8;" horiz-adv-x="1103" d="M896 623 L208 623 Q216 431 267 304 Q315 181 398 122 Q470 71 554 71 Q704 71 794.5 217.5 Q885 364 896 623 Z M208 723 L895 723 Q888 904 840 1032 Q794 1154 715 1217 Q641 1275 553 1275 Q403 1275 310.5 1127 Q218 979 208 723 Z M560 1375 Q702 1375 814 1275 Q1018 1092 1018 668 Q1018 343 885 149 Q763 -29 553 -29 Q323 -29 201 178 Q84 375 84 671 Q84 966 194 1155 Q322 1375 560 1375 Z " />
<glyph glyph-name="iota" unicode="&#x3b9;" horiz-adv-x="421" d="M270 986 L270 0 L150 0 L150 986 L270 986 Z " />
<glyph glyph-name="kappa" unicode="&#x3ba;" horiz-adv-x="1014" d="M272 469 L799 986 L959 986 L519 573 L977 0 L829 0 L438 496 L272 340 L272 0 L152 0 L152 986 L272 986 L272 469 Z " />
<glyph glyph-name="lambda" unicode="&#x3bb;" horiz-adv-x="885" d="M385 980 L236 1365 L363 1365 L904 0 L764 0 L569 523 L535 612 Q467 790 444 849 Q418 780 389 701 Q366 638 322 523 L129 0 L-6 0 L385 980 Z " />
<glyph glyph-name="uni03BC" unicode="&#x3bc;" horiz-adv-x="1104" d="M272 40 L272 -366 L152 -366 L152 986 L272 986 L272 403 Q272 263 297 203 Q321 145 380 112 Q444 76 521 76 Q688 76 775 214 Q833 307 833 480 L833 986 L953 986 L953 0 L840 0 L840 184 Q798 101 742 56 Q638 -29 494 -29 Q369 -29 272 40 Z " />
<glyph glyph-name="nu" unicode="&#x3bd;" horiz-adv-x="885" d="M879 986 L516 0 L386 0 L5 986 L135 986 L364 387 Q388 324 454 119 Q508 292 545 395 L757 986 L879 986 Z " />
<glyph glyph-name="xi" unicode="&#x3be;" horiz-adv-x="872" d="M410 1265 L151 1265 L151 1365 L831 1365 L831 1273 Q642 1273 564 1259 Q443 1238 366 1160 Q296 1088 296 980 Q296 860 383.5 790 Q471 720 622 720 L702 720 L702 620 L597 620 Q496 620 441.5 610 Q387 600 339 573 Q207 500 207 345 Q207 269 240 207.5 Q273 146 333 111 Q376 86 420 76 Q464 66 543 62 L649 58 Q723 55 757 34 Q780 20 795 -9.5 Q810 -39 810 -69 Q810 -172 702 -366 L581 -366 Q687 -175 687 -99 Q687 -66 667.5 -51.5 Q648 -37 600 -34 L506 -27 Q363 -17 269 29 Q177 73 129 159 Q85 237 85 337 Q85 623 414 677 Q174 750 174 965 Q174 1072 235 1149.5 Q296 1227 410 1265 Z " />
<glyph glyph-name="omicron" unicode="&#x3bf;" horiz-adv-x="1103" d="M560 1015 Q773 1015 903 860 Q1018 722 1018 490 Q1018 243 885 104 Q758 -29 553 -29 Q326 -29 201 125 Q84 268 84 492 Q84 712 194 852 Q323 1015 560 1015 Z M557 915 Q400 915 305 804 Q207 690 207 492 Q207 295 302 182 Q396 71 555 71 Q705 71 795 174 Q896 290 896 492 Q896 682 805 797 Q762 852 696 883.5 Q630 915 557 915 Z " />
<glyph glyph-name="rho" unicode="&#x3c1;" horiz-adv-x="1155" d="M277 152 L277 -366 L157 -366 L157 448 Q157 703 248 831 Q377 1013 612 1013 Q819 1013 943 863 Q1054 728 1054 505 Q1054 281 947 140 Q819 -28 612 -28 Q451 -28 342 78 Q321 98 277 152 Z M610 909 Q447 909 358 789 Q277 679 277 491 Q277 307 358 197 Q446 77 605 77 Q765 77 853 197 Q934 307 934 493 Q934 680 853 789 Q764 909 610 909 Z " />
<glyph glyph-name="uni03C2" unicode="&#x3c2;" horiz-adv-x="1016" d="M702 -366 L581 -366 Q687 -175 687 -99 Q687 -66 668 -52 Q649 -38 600 -34 L540 -29 Q431 -21 371 0 Q224 52 146 203 Q84 325 84 484 Q84 740 221 883 Q347 1015 544 1015 Q715 1015 821.5 925 Q928 835 947 674 L825 674 Q807 767 762 821 Q684 915 545 915 Q370 915 279 774 Q206 661 206 492 Q206 278 315 162 Q360 114 418 92.5 Q476 71 580 63 L671 57 Q752 51 783 9 Q810 -27 810 -69 Q810 -171 702 -366 Z " />
<glyph glyph-name="sigma" unicode="&#x3c3;" horiz-adv-x="1121" d="M1051 989 L1051 894 L815 911 Q1020 796 1020 494 Q1020 255 887 111 Q758 -28 552 -28 Q345 -28 217 111 Q84 255 84 493 Q84 782 272 925 Q388 1014 600 1014 Q697 1014 894 999 Q991 992 1051 989 Z M558 915 Q400 915 305 804 Q207 690 207 492 Q207 294 302 182 Q397 71 555 71 Q706 71 796 174 Q897 290 897 492 Q897 682 806 797 Q763 852 696.5 883.5 Q630 915 558 915 Z " />
<glyph glyph-name="tau" unicode="&#x3c4;" horiz-adv-x="825" d="M473 886 L473 0 L353 0 L353 886 L25 886 L25 986 L801 986 L801 886 L473 886 Z " />
<glyph glyph-name="upsilon" unicode="&#x3c5;" horiz-adv-x="1092" d="M828 986 L948 986 L948 376 Q948 273 930.5 208.5 Q913 144 871 94 Q770 -29 546 -29 Q322 -29 221 94 Q179 144 161.5 208.5 Q144 273 144 376 L144 986 L264 986 L264 378 Q264 230 322 156 Q389 71 546 71 Q703 71 770 156 Q828 230 828 378 L828 986 Z " />
<glyph glyph-name="phi" unicode="&#x3c6;" horiz-adv-x="1241" d="M678 -366 L562 -366 L562 -28 Q393 -22 274 66 Q84 207 84 493 Q84 666 158 791 Q191 847 269 912 L344 844 Q280 786 249 724 Q201 627 201 495 Q201 220 390 116 Q465 74 562 67 L562 1013 Q603 1014 625 1014 Q842 1014 977 909 Q1156 769 1156 493 Q1156 315 1076 187 Q950 -18 678 -28 L678 -366 Z M678 67 Q795 76 879 134 Q1039 244 1039 494 Q1039 756 855 866 Q778 912 678 920 L678 67 Z " />
<glyph glyph-name="chi" unicode="&#x3c7;" horiz-adv-x="865" d="M493 339 L879 -366 L746 -366 L431 224 L121 -366 L-14 -366 L374 339 L27 986 L158 986 L434 459 L711 986 L845 986 L493 339 Z " />
<glyph glyph-name="psi" unicode="&#x3c8;" horiz-adv-x="1333" d="M732 -366 L612 -366 L612 -28 Q384 -29 258 103 Q144 227 149 432 L149 986 L269 986 L269 431 Q269 272 345 184 Q436 80 612 73 L612 986 L732 986 L732 73 Q898 79 986 171 Q1074 263 1074 431 L1074 986 L1194 986 L1194 399 Q1194 203 1069.5 88 Q945 -27 732 -28 L732 -366 Z " />
<glyph glyph-name="omega" unicode="&#x3c9;" horiz-adv-x="1299" d="M709 520 L709 370 Q709 234 740 170 Q788 71 889 71 Q986 71 1039 174 Q1094 280 1094 466 Q1094 634 1048 747.5 Q1002 861 894 958 L968 1017 Q1062 950 1116 865 Q1214 711 1214 451 Q1214 209 1119 85 Q1033 -29 893 -29 Q685 -29 649 192 Q648 188 647 175 Q633 81 568 26 Q503 -29 405 -29 Q253 -29 168.5 97.5 Q84 224 84 451 Q84 711 182 865 Q235 950 330 1017 L404 958 Q296 861 250 747.5 Q204 634 204 466 Q204 279 258 175 Q312 71 409 71 Q518 71 564 184 Q589 244 589 370 L589 520 L709 520 Z " />
<glyph glyph-name="iotadieresis" unicode="&#x3ca;" horiz-adv-x="421" d="M270 986 L270 0 L150 0 L150 986 L270 986 Z M389 1368 L389 1173 L266 1173 L266 1368 L389 1368 Z M154 1368 L154 1173 L31 1173 L31 1368 L154 1368 Z " />
<glyph glyph-name="upsilondieresis" unicode="&#x3cb;" horiz-adv-x="1092" d="M828 986 L948 986 L948 376 Q948 273 930.5 208.5 Q913 144 871 94 Q770 -29 546 -29 Q322 -29 221 94 Q179 144 161.5 208.5 Q144 273 144 376 L144 986 L264 986 L264 378 Q264 230 322 156 Q389 71 546 71 Q703 71 770 156 Q828 230 828 378 L828 986 Z M781 1368 L781 1173 L658 1173 L658 1368 L781 1368 Z M434 1368 L434 1173 L311 1173 L311 1368 L434 1368 Z " />
<glyph glyph-name="omicrontonos" unicode="&#x3cc;" horiz-adv-x="1137" d="M576 1013 Q775 1013 904 874 Q1037 731 1037 492 Q1037 255 904 111 Q775 -28 569 -28 Q362 -28 234 111 Q101 255 101 491 Q101 730 234 874 Q362 1013 576 1013 Z M573 909 Q401 909 310 782 Q229 670 229 492 Q229 316 310 204 Q400 77 569 77 Q674 77 756 133 Q829 183 869 277 Q909 371 909 493 Q909 670 828 782 Q786 841 717.5 875 Q649 909 573 909 Z M520 1127 L500 1476 L637 1476 L618 1127 L520 1127 Z " />
<glyph glyph-name="upsilontonos" unicode="&#x3cd;" horiz-adv-x="1092" d="M828 986 L948 986 L948 376 Q948 273 930.5 208.5 Q913 144 871 94 Q770 -29 546 -29 Q322 -29 221 94 Q179 144 161.5 208.5 Q144 273 144 376 L144 986 L264 986 L264 378 Q264 230 322 156 Q389 71 546 71 Q703 71 770 156 Q828 230 828 378 L828 986 Z M497 1127 L478 1476 L615 1476 L595 1127 L497 1127 Z " />
<glyph glyph-name="omegatonos" unicode="&#x3ce;" horiz-adv-x="1299" d="M709 520 L709 370 Q709 234 740 170 Q788 71 889 71 Q986 71 1039 174 Q1094 280 1094 466 Q1094 634 1048 747.5 Q1002 861 894 958 L968 1017 Q1062 950 1116 865 Q1214 711 1214 451 Q1214 209 1119 85 Q1033 -29 893 -29 Q685 -29 649 192 Q648 188 647 175 Q633 81 568 26 Q503 -29 405 -29 Q253 -29 168.5 97.5 Q84 224 84 451 Q84 711 182 865 Q235 950 330 1017 L404 958 Q296 861 250 747.5 Q204 634 204 466 Q204 279 258 175 Q312 71 409 71 Q518 71 564 184 Q589 244 589 370 L589 520 L709 520 Z M600 1127 L581 1476 L718 1476 L698 1127 L600 1127 Z " />
<glyph glyph-name="theta1" unicode="&#x3d1;" horiz-adv-x="1082" d="M125 466 L27 466 L27 566 L248 566 Q248 361 276 267 Q336 71 517 71 Q671 71 761 221.5 Q851 372 851 629 Q585 634 458 676 Q292 731 213 842 Q144 939 144 1059 Q144 1210 250 1297 Q345 1375 491 1375 Q677 1375 800 1249 Q958 1088 972 729 L1082 729 L1082 629 L972 629 Q960 379 883 223 Q757 -29 508 -29 Q334 -29 231.5 103 Q129 235 125 466 Z M851 729 Q851 918 787 1059 Q690 1275 492 1275 Q378 1275 315 1202 Q267 1146 267 1058 Q267 831 559 755 Q660 729 851 729 Z " />
<glyph glyph-name="phi1" unicode="&#x3d5;" horiz-adv-x="1241" d="M678 -366 L562 -366 L562 -28 Q393 -22 274 66 Q84 207 84 493 Q84 796 299 935 Q411 1008 562 1014 L562 1365 L678 1365 L678 1014 Q854 1007 976 910 Q1156 768 1156 493 Q1156 315 1076 187 Q950 -18 678 -28 L678 -366 Z M562 66 L562 919 Q445 910 359 848 Q201 735 201 494 Q201 220 390 116 Q465 74 562 66 Z M678 66 Q795 75 879 134 Q1039 244 1039 494 Q1039 756 855 865 Q778 911 678 919 L678 66 Z " />
<glyph glyph-name="uni0400" unicode="&#x400;" horiz-adv-x="1201" d="M1115 1365 L1115 1253 L297 1253 L297 763 L1063 763 L1063 651 L297 651 L297 112 L1123 112 L1123 0 L167 0 L167 1365 L1115 1365 Z M365 1737 L522 1737 L734 1479 L634 1479 L365 1737 Z " />
<glyph glyph-name="afii10023" unicode="&#x401;" horiz-adv-x="1201" d="M1115 1365 L1115 1253 L297 1253 L297 763 L1063 763 L1063 651 L297 651 L297 112 L1123 112 L1123 0 L167 0 L167 1365 L1115 1365 Z M917 1700 L917 1509 L787 1509 L787 1700 L917 1700 Z M503 1700 L503 1509 L373 1509 L373 1700 L503 1700 Z " />
<glyph glyph-name="afii10051" unicode="&#x402;" horiz-adv-x="1518" d="M522 1253 L522 671 Q652 882 925 882 Q1125 882 1250 770 Q1410 626 1410 293 Q1410 104 1355 -47 Q1240 -360 909 -367 L909 -261 Q1280 -243 1280 288 Q1280 773 896 773 Q719 773 620.5 667 Q522 561 522 372 L522 0 L392 0 L392 1253 L30 1253 L30 1365 L392 1365 L522 1365 L1120 1365 L1120 1253 L522 1253 Z " />
<glyph glyph-name="afii10052" unicode="&#x403;" horiz-adv-x="1100" d="M1063 1253 L295 1253 L295 0 L165 0 L165 1365 L1063 1365 L1063 1253 Z M895 1737 L625 1479 L525 1479 L737 1737 L895 1737 Z " />
<glyph glyph-name="afii10053" unicode="&#x404;" horiz-adv-x="1382" d="M214 750 L787 750 L787 638 L212 638 Q223 450 292 326 Q358 207 465.5 144 Q573 81 711 81 Q939 81 1064 246 Q1145 353 1158 476 L1286 476 Q1280 401 1247.5 321.5 Q1215 242 1163 176 Q998 -31 706 -31 Q398 -31 224 198 Q81 387 81 681 Q81 995 260 1199 Q432 1396 718 1396 Q988 1396 1150 1222 Q1261 1103 1276 956 L1147 956 Q1123 1072 1045 1153 Q920 1284 714 1284 Q414 1284 279 1007 Q226 897 214 750 Z " />
<glyph glyph-name="afii10054" unicode="&#x405;" horiz-adv-x="1203" d="M1072 972 L947 972 Q933 1129 843 1204 Q742 1288 566 1288 Q417 1288 330 1229 Q226 1159 226 1027 Q226 911 309 861 Q379 818 594 769 Q756 732 825.5 710 Q895 688 946 659 Q1115 562 1115 372 Q1115 179 960 64 Q830 -31 601 -31 Q345 -31 202 92 Q133 152 94.5 242.5 Q56 333 56 437 Q56 442 56 452 L181 452 Q186 297 257 211 Q367 78 610 78 Q803 78 899 161 Q989 240 989 360 Q989 510 830 576 Q756 606 528 660 Q393 691 330 713.5 Q267 736 218 770 Q99 852 99 1020 Q99 1194 227.5 1295.5 Q356 1397 576 1397 Q805 1397 934 1286.5 Q1063 1176 1072 972 Z " />
<glyph glyph-name="afii10055" unicode="&#x406;" horiz-adv-x="459" d="M295 1365 L295 0 L165 0 L165 1365 L295 1365 Z " />
<glyph glyph-name="afii10056" unicode="&#x407;" horiz-adv-x="457" d="M294 1365 L294 0 L164 0 L164 1365 L294 1365 Z M419 1700 L419 1509 L289 1509 L289 1700 L419 1700 Z M169 1700 L169 1509 L39 1509 L39 1700 L169 1700 Z " />
<glyph glyph-name="afii10057" unicode="&#x408;" horiz-adv-x="952" d="M808 1379 L808 404 Q808 293 795 230 Q782 167 747 113 Q716 63 683.5 39 Q651 15 595 0 Q501 -25 409 -25 Q289 -25 200 23.5 Q111 72 70 159 Q29 246 29 403 Q29 424 30 455 L155 455 L155 441 L155 413 Q155 274 186 210 Q245 87 422 87 Q569 87 633 181 Q678 247 678 420 L678 1379 L808 1379 Z " />
<glyph glyph-name="afii10058" unicode="&#x409;" horiz-adv-x="2037" d="M1036 0 L1036 1253 L440 1253 L440 453 Q440 295 396 200 Q302 -3 93 -3 Q76 -3 36 -1 L36 111 Q128 111 179 141 Q247 179 276 252 Q305 325 305 455 L305 1365 L1167 1365 L1167 784 L1558 784 Q1752 784 1858 709 Q2009 602 2009 385 Q2009 171 1853 68 Q1797 30 1727.5 15 Q1658 0 1542 0 L1036 0 Z M1167 112 L1515 112 Q1615 112 1666.5 121.5 Q1718 131 1762 158 Q1879 232 1879 391 Q1879 549 1758 625 Q1716 651 1663 661.5 Q1610 672 1522 672 L1167 672 L1167 112 Z " />
<glyph glyph-name="afii10059" unicode="&#x40a;" horiz-adv-x="2083" d="M1084 0 L1084 666 L294 666 L294 0 L164 0 L164 1365 L294 1365 L294 778 L1084 778 L1084 1365 L1214 1365 L1214 778 L1605 778 Q1798 778 1905 703 Q2056 597 2056 382 Q2056 170 1900 67 Q1844 30 1774.5 15 Q1705 0 1589 0 L1084 0 Z M1214 112 L1562 112 Q1662 112 1713.5 121.5 Q1765 131 1809 158 Q1926 230 1926 388 Q1926 544 1805 619 Q1763 645 1710 655.5 Q1657 666 1569 666 L1214 666 L1214 112 Z " />
<glyph glyph-name="afii10060" unicode="&#x40b;" horiz-adv-x="1518" d="M522 1253 L522 671 Q570 749 625 790 Q747 881 934 881 Q1131 881 1257 779 Q1338 713 1373.5 619.5 Q1409 526 1409 378 L1409 0 L1279 0 L1279 378 Q1279 526 1232 612 Q1187 694 1099 733 Q1012 772 911 772 Q724 772 623 668.5 Q522 565 522 372 L522 0 L392 0 L392 1253 L30 1253 L30 1365 L392 1365 L522 1365 L1120 1365 L1120 1253 L522 1253 Z " />
<glyph glyph-name="afii10061" unicode="&#x40c;" horiz-adv-x="1283" d="M1263 1365 L648 808 L1294 0 L1127 0 L555 719 L294 482 L294 0 L164 0 L164 1365 L294 1365 L294 631 Q357 692 383 717 L1090 1365 L1263 1365 Z M960 1737 L690 1479 L590 1479 L802 1737 L960 1737 Z " />
<glyph glyph-name="uni040D" unicode="&#x40d;" horiz-adv-x="1404" d="M423 1737 L580 1737 L792 1479 L692 1479 L423 1737 Z M1240 0 L1116 0 L1116 851 Q1116 1029 1125 1211 Q1018 1049 939 935 L293 0 L164 0 L164 1365 L288 1365 L288 481 L287 385 Q285 224 280 154 Q370 303 470 441 L1111 1365 L1240 1365 L1240 0 Z " />
<glyph glyph-name="afii10062" unicode="&#x40e;" horiz-adv-x="1147" d="M1159 1365 L504 125 Q470 61 441 34 Q379 -22 286 -22 Q246 -22 173 -10 L173 105 Q234 89 271 89 Q363 89 410 182 L498 352 L-12 1365 L134 1365 L478 663 Q518 581 562 468 Q578 505 656 657 L1020 1365 L1159 1365 Z M898 1737 Q885 1652 849 1598 Q774 1486 618 1486 Q500 1486 426.5 1553.5 Q353 1621 345 1737 L420 1737 Q432 1679 458 1646 Q514 1573 622 1573 Q785 1573 823 1737 L898 1737 Z " />
<glyph glyph-name="afii10145" unicode="&#x40f;" horiz-adv-x="1407" d="M639 0 L165 0 L165 1365 L295 1365 L295 112 L1112 112 L1112 1365 L1242 1365 L1242 0 L769 0 L769 -273 L639 -273 L639 0 Z " />
<glyph glyph-name="afii10017" unicode="&#x410;" horiz-adv-x="1278" d="M715 1369 L1260 0 L1114 0 L949 430 L325 430 L157 0 L18 0 L569 1369 L715 1369 Z M910 535 L714 1040 Q671 1150 640 1247 Q601 1139 565 1047 L364 535 L910 535 Z " />
<glyph glyph-name="afii10018" unicode="&#x411;" horiz-adv-x="1243" d="M297 1253 L297 784 L729 784 Q922 784 1029 709 Q1180 602 1180 385 Q1180 171 1024 68 Q968 30 898.5 15 Q829 0 713 0 L167 0 L167 1365 L1019 1365 L1019 1253 L297 1253 Z M297 112 L686 112 Q786 112 837.5 121.5 Q889 131 932 158 Q1050 232 1050 391 Q1050 549 929 625 Q887 651 834 661.5 Q781 672 692 672 L297 672 L297 112 Z " />
<glyph glyph-name="afii10019" unicode="&#x412;" horiz-adv-x="1321" d="M167 1365 L719 1365 Q914 1365 1013 1311 Q1092 1267 1137 1191.5 Q1182 1116 1182 1024 Q1182 913 1117.5 831 Q1053 749 944 723 Q1032 705 1083 674 Q1235 582 1235 390 Q1235 277 1179.5 187 Q1124 97 1022 48 Q925 0 752 0 L167 0 L167 1365 Z M297 1253 L297 760 L661 760 Q827 760 901 787 Q971 813 1012 872 Q1053 931 1053 1006 Q1053 1161 918 1222 Q849 1253 694 1253 L297 1253 Z M297 656 L297 112 L704 112 Q902 112 987 164 Q1105 237 1105 389 Q1105 527 1006 591.5 Q907 656 695 656 L297 656 Z " />
<glyph glyph-name="afii10020" unicode="&#x413;" horiz-adv-x="1100" d="M1063 1253 L295 1253 L295 0 L165 0 L165 1365 L1063 1365 L1063 1253 Z " />
<glyph glyph-name="afii10021" unicode="&#x414;" horiz-adv-x="1381" d="M349 1365 L1210 1365 L1210 112 L1367 112 L1367 -273 L1237 -273 L1237 0 L130 0 L130 -273 L0 -273 L0 112 Q91 114 150 166 Q232 238 270 467.5 Q308 697 349 1365 Z M240 112 L1080 112 L1080 1253 L485 1253 Q430 594 380 378 Q337 191 240 112 Z " />
<glyph glyph-name="afii10022" unicode="&#x415;" horiz-adv-x="1201" d="M1115 1365 L1115 1253 L297 1253 L297 763 L1063 763 L1063 651 L297 651 L297 112 L1123 112 L1123 0 L167 0 L167 1365 L1115 1365 Z " />
<glyph glyph-name="afii10024" unicode="&#x416;" horiz-adv-x="1734" d="M932 0 L802 0 L802 661 L564 661 L141 0 L-14 0 L450 716 L46 1365 L204 1365 L564 767 L802 767 L802 1365 L932 1365 L932 767 L1169 767 L1530 1365 L1687 1365 L1284 716 L1748 0 L1592 0 L1169 661 L932 661 L932 0 Z " />
<glyph glyph-name="afii10025" unicode="&#x417;" horiz-adv-x="1277" d="M82 476 L210 476 Q222 357 303 246 Q424 81 672 81 Q874 81 984 188 Q1070 272 1070 395 Q1070 556 914 613 Q844 638 709 638 L580 638 L580 750 L709 750 Q882 750 966 822 Q1052 895 1052 1019 Q1052 1151 942 1221 Q840 1285 670 1285 Q491 1285 372.5 1198 Q254 1111 220 956 L91 956 Q108 1116 235 1240 Q319 1322 422.5 1359 Q526 1396 670 1396 Q922 1396 1059 1287 Q1184 1186 1184 1021 Q1184 862 1077 767 Q1021 718 913 697 Q1055 670 1128.5 589.5 Q1202 509 1202 380 Q1202 203 1070 90 Q930 -31 689 -31 Q452 -31 310 74 Q215 145 152 256 Q89 367 82 476 Z " />
<glyph glyph-name="afii10026" unicode="&#x418;" horiz-adv-x="1404" d="M1240 0 L1116 0 L1116 851 Q1116 1029 1125 1211 Q1018 1049 939 935 L293 0 L164 0 L164 1365 L288 1365 L288 481 L287 385 Q285 224 280 154 Q370 303 470 441 L1111 1365 L1240 1365 L1240 0 Z " />
<glyph glyph-name="afii10027" unicode="&#x419;" horiz-adv-x="1404" d="M979 1737 Q967 1652 931 1598 Q856 1486 700 1486 Q582 1486 508 1554 Q434 1622 427 1737 L502 1737 Q514 1679 540 1646 Q595 1573 704 1573 Q867 1573 905 1737 L979 1737 Z M1240 0 L1116 0 L1116 851 Q1116 1029 1125 1211 Q1018 1049 939 935 L293 0 L164 0 L164 1365 L288 1365 L288 481 L287 385 Q285 224 280 154 Q370 303 470 441 L1111 1365 L1240 1365 L1240 0 Z " />
<glyph glyph-name="afii10028" unicode="&#x41a;" horiz-adv-x="1284" d="M1265 1365 L650 808 L1296 0 L1129 0 L557 719 L296 482 L296 0 L166 0 L166 1365 L296 1365 L296 631 Q359 692 385 717 L1092 1365 L1265 1365 Z " />
<glyph glyph-name="afii10029" unicode="&#x41b;" horiz-adv-x="1359" d="M65 -1 L65 111 Q157 111 208 141 Q276 179 305 251.5 Q334 324 334 454 L334 1365 L1195 1365 L1195 0 L1065 0 L1065 1253 L469 1253 L469 452 Q469 295 425 200 Q379 101 301.5 49 Q224 -3 122 -3 Q105 -3 65 -1 Z " />
<glyph glyph-name="afii10030" unicode="&#x41c;" horiz-adv-x="1659" d="M1495 1365 L1495 0 L1371 0 L1371 825 Q1371 1077 1386 1255 L1372 1214 L1348 1148 Q1307 1033 1296 1006 L893 0 L777 0 L366 994 Q328 1088 278 1247 Q291 975 291 829 L291 0 L167 0 L167 1365 L345 1365 L742 391 Q792 269 835 135 Q890 297 926 388 L1316 1365 L1495 1365 Z " />
<glyph glyph-name="afii10031" unicode="&#x41d;" horiz-adv-x="1407" d="M1242 1365 L1242 0 L1112 0 L1112 659 L295 659 L295 0 L165 0 L165 1365 L295 1365 L295 771 L1112 771 L1112 1365 L1242 1365 Z " />
<glyph glyph-name="afii10032" unicode="&#x41e;" horiz-adv-x="1476" d="M746 1397 Q1022 1397 1203 1196 Q1381 999 1381 679 Q1381 397 1238 208 Q1056 -31 736 -31 Q419 -31 238 208 Q95 398 95 681 Q95 1005 271 1196 Q456 1397 746 1397 Z M745 1285 Q514 1285 368 1121 Q225 959 225 685 Q225 431 347 269 Q422 171 537 121 Q630 81 738 81 Q962 81 1105 240 Q1251 404 1251 680 Q1251 951 1110 1117 Q967 1285 745 1285 Z " />
<glyph glyph-name="afii10033" unicode="&#x41f;" horiz-adv-x="1405" d="M1112 1253 L295 1253 L295 0 L165 0 L165 1365 L1242 1365 L1242 0 L1112 0 L1112 1253 Z " />
<glyph glyph-name="afii10034" unicode="&#x420;" horiz-adv-x="1243" d="M167 1365 L713 1365 Q829 1365 898.5 1350 Q968 1335 1024 1297 Q1180 1193 1180 980 Q1180 764 1029 657 Q922 582 729 582 L297 582 L297 0 L167 0 L167 1365 Z M297 1253 L297 694 L693 694 Q781 694 834 704.5 Q887 715 929 741 Q1050 817 1050 974 Q1050 1134 933 1207 Q889 1234 837.5 1243.5 Q786 1253 686 1253 L297 1253 Z " />
<glyph glyph-name="afii10035" unicode="&#x421;" horiz-adv-x="1382" d="M1307 523 Q1290 320 1176 176 Q1012 -31 720 -31 Q412 -31 238 198 Q95 387 95 680 Q95 995 274 1199 Q446 1396 732 1396 Q1002 1396 1164 1222 Q1275 1103 1290 956 L1161 956 Q1136 1072 1059 1153 Q934 1284 728 1284 Q472 1284 334 1079 Q225 916 225 682 Q225 440 332 284 Q471 81 725 81 Q916 81 1035 196.5 Q1154 312 1179 523 L1307 523 Z " />
<glyph glyph-name="afii10036" unicode="&#x422;" horiz-adv-x="1149" d="M1120 1365 L1120 1253 L641 1253 L641 0 L511 0 L511 1253 L30 1253 L30 1365 L1120 1365 Z " />
<glyph glyph-name="afii10037" unicode="&#x423;" horiz-adv-x="1147" d="M1159 1365 L504 125 Q470 61 441 34 Q379 -22 286 -22 Q246 -22 173 -10 L173 105 Q234 89 271 89 Q363 89 410 182 L498 352 L-12 1365 L134 1365 L478 663 Q518 581 562 468 Q578 505 656 657 L1020 1365 L1159 1365 Z " />
<glyph glyph-name="afii10038" unicode="&#x424;" horiz-adv-x="1655" d="M891 0 L765 0 L765 168 Q578 168 428 215 Q255 270 164 399 Q82 516 82 683 Q82 1037 431 1150 Q578 1198 765 1198 L765 1365 L891 1365 L891 1198 Q1078 1198 1225 1150 Q1574 1037 1574 683 Q1574 443 1409 311 Q1230 168 891 168 L891 0 Z M765 273 L765 1093 Q627 1091 546 1075 Q465 1059 398 1021 Q209 914 209 683 Q209 431 429 329 Q496 299 568.5 286.5 Q641 274 765 273 Z M891 273 Q1026 274 1106 290 Q1186 306 1257 345 Q1447 449 1447 683 Q1447 933 1229 1036 Q1115 1090 891 1093 L891 273 Z " />
<glyph glyph-name="afii10039" unicode="&#x425;" horiz-adv-x="1171" d="M1131 1365 L664 702 L1157 0 L1001 0 L659 490 Q648 505 599 584 L585 606 L506 490 L162 0 L13 0 L508 702 L43 1365 L197 1365 L501 928 Q525 894 586 792 L602 818 Q667 919 675 929 L986 1365 L1131 1365 Z " />
<glyph glyph-name="afii10040" unicode="&#x426;" horiz-adv-x="1413" d="M1242 1365 L1242 112 L1399 112 L1399 -273 L1269 -273 L1269 0 L165 0 L165 1365 L295 1365 L295 112 L1112 112 L1112 1365 L1242 1365 Z " />
<glyph glyph-name="afii10041" unicode="&#x427;" horiz-adv-x="1290" d="M1125 1365 L1125 0 L995 0 L995 694 Q947 616 892 575 Q770 484 584 484 Q387 484 261 586 Q180 652 144.5 745.5 Q109 839 109 987 L109 1365 L239 1365 L239 987 Q239 839 286 753 Q331 671 419 632 Q506 593 607 593 Q794 593 894.5 696.5 Q995 800 995 993 L995 1365 L1125 1365 Z " />
<glyph glyph-name="afii10042" unicode="&#x428;" horiz-adv-x="1896" d="M1601 112 L1601 1365 L1731 1365 L1731 0 L165 0 L165 1365 L295 1365 L295 112 L883 112 L883 1365 L1013 1365 L1013 112 L1601 112 Z " />
<glyph glyph-name="afii10043" unicode="&#x429;" horiz-adv-x="1888" d="M1758 0 L165 0 L165 1365 L295 1365 L295 112 L883 112 L883 1365 L1013 1365 L1013 112 L1601 112 L1601 1365 L1731 1365 L1731 112 L1888 112 L1888 -273 L1758 -273 L1758 0 Z " />
<glyph glyph-name="afii10044" unicode="&#x42a;" horiz-adv-x="1520" d="M1 1365 L595 1365 L595 784 L1014 784 Q1207 784 1313 709 Q1465 602 1465 385 Q1465 172 1309 68 Q1252 30 1183 15 Q1114 0 998 0 L465 0 L465 1253 L1 1253 L1 1365 Z M595 112 L970 112 Q1071 112 1122.5 121.5 Q1174 131 1217 158 Q1335 232 1335 391 Q1335 549 1214 625 Q1172 651 1119 661.5 Q1066 672 977 672 L595 672 L595 112 Z " />
<glyph glyph-name="afii10045" unicode="&#x42b;" horiz-adv-x="1587" d="M166 0 L166 1365 L296 1365 L296 784 L687 784 Q880 784 987 709 Q1138 602 1138 385 Q1138 171 982 68 Q926 30 856.5 15 Q787 0 671 0 L166 0 Z M296 112 L644 112 Q744 112 795.5 121.5 Q847 131 891 158 Q1008 232 1008 391 Q1008 549 887 625 Q846 651 792.5 661.5 Q739 672 651 672 L296 672 L296 112 Z M1424 1365 L1424 0 L1294 0 L1294 1365 L1424 1365 Z " />
</font>
</svg>
